<svg width="340" height="55" viewBox="0 0 340 55" fill="none" xmlns="http://www.w3.org/2000/svg">
<g filter="url(#filter0_dd_2031_1704)">
<rect x="9" y="8" width="322" height="36" rx="18" fill="#171717"/>
<rect x="9" y="8" width="322" height="36" rx="18" fill="url(#paint0_linear_2031_1704)"/>
<rect x="9" y="8" width="322" height="36" rx="18" fill="white" fill-opacity="0.07"/>
<path d="M21.28 31L24.864 21.06H26.488L30.072 31H28.756L27.762 28.172H23.59L22.596 31H21.28ZM23.996 26.996H27.356L25.676 22.11L23.996 26.996ZM31.1981 31V23.58H32.2761L32.3181 25.47L32.1781 25.344C32.2715 24.9053 32.4348 24.546 32.6681 24.266C32.9015 23.9767 33.1815 23.762 33.5081 23.622C33.8441 23.482 34.2035 23.412 34.5861 23.412C35.1555 23.412 35.6221 23.538 35.9861 23.79C36.3595 24.042 36.6348 24.3827 36.8121 24.812C36.9988 25.232 37.0921 25.7033 37.0921 26.226V31H35.9161V26.562C35.9161 26.1047 35.8601 25.722 35.7481 25.414C35.6455 25.0967 35.4775 24.8587 35.2441 24.7C35.0108 24.532 34.7075 24.448 34.3341 24.448C33.7648 24.448 33.2935 24.63 32.9201 24.994C32.5561 25.3487 32.3741 25.8713 32.3741 26.562V31H31.1981ZM41.1982 31.168C40.4328 31.168 39.8215 30.9907 39.3642 30.636C38.9162 30.2813 38.6922 29.7867 38.6922 29.152C38.6922 28.5173 38.8788 28.018 39.2522 27.654C39.6255 27.29 40.2182 27.0333 41.0302 26.884L43.6622 26.394C43.6622 25.7687 43.5128 25.302 43.2142 24.994C42.9248 24.686 42.4862 24.532 41.8982 24.532C41.3848 24.532 40.9788 24.6487 40.6802 24.882C40.3815 25.106 40.1762 25.4327 40.0642 25.862L38.8182 25.764C38.9582 25.064 39.2942 24.4993 39.8262 24.07C40.3675 23.6313 41.0582 23.412 41.8982 23.412C42.8502 23.412 43.5782 23.6827 44.0822 24.224C44.5862 24.756 44.8382 25.4933 44.8382 26.436V29.502C44.8382 29.67 44.8662 29.7913 44.9222 29.866C44.9875 29.9313 45.0902 29.964 45.2302 29.964H45.5242V31C45.4868 31.0093 45.4262 31.014 45.3422 31.014C45.2582 31.0233 45.1695 31.028 45.0762 31.028C44.7402 31.028 44.4648 30.9767 44.2502 30.874C44.0448 30.762 43.8955 30.594 43.8022 30.37C43.7088 30.1367 43.6622 29.8333 43.6622 29.46L43.8022 29.488C43.7368 29.8053 43.5782 30.0947 43.3262 30.356C43.0742 30.608 42.7615 30.8087 42.3882 30.958C42.0148 31.098 41.6182 31.168 41.1982 31.168ZM41.3102 30.132C41.8048 30.132 42.2248 30.0387 42.5702 29.852C42.9248 29.656 43.1955 29.3947 43.3822 29.068C43.5688 28.732 43.6622 28.3587 43.6622 27.948V27.416L41.2542 27.864C40.7502 27.9573 40.4002 28.102 40.2042 28.298C40.0175 28.4847 39.9242 28.732 39.9242 29.04C39.9242 29.3853 40.0455 29.656 40.2882 29.852C40.5402 30.0387 40.8808 30.132 41.3102 30.132ZM48.2264 31C47.7971 31 47.4471 30.888 47.1764 30.664C46.9057 30.44 46.7704 30.0853 46.7704 29.6V21.06H47.9464V29.502C47.9464 29.6513 47.9837 29.768 48.0584 29.852C48.1424 29.9267 48.2591 29.964 48.4084 29.964H49.0524V31H48.2264ZM50.483 33.1V32.064H51.337C51.5983 32.064 51.7897 32.022 51.911 31.938C52.0417 31.8633 52.1397 31.7373 52.205 31.56L52.471 30.86H52.065L49.349 23.58H50.637L52.849 29.768L54.963 23.58H56.251L53.241 31.938C53.101 32.3393 52.891 32.6333 52.611 32.82C52.331 33.0067 51.9437 33.1 51.449 33.1H50.483ZM57.0441 31V29.824L61.7341 24.616H57.1841V23.58H63.0221V24.756L58.3321 29.964H63.1341V31H57.0441ZM67.5239 31.168C66.8239 31.168 66.2172 31.0093 65.7039 30.692C65.1999 30.3747 64.8079 29.9267 64.5279 29.348C64.2572 28.76 64.1219 28.074 64.1219 27.29C64.1219 26.506 64.2572 25.8247 64.5279 25.246C64.8079 24.6673 65.1952 24.2193 65.6899 23.902C66.1939 23.5753 66.7865 23.412 67.4679 23.412C68.1119 23.412 68.6812 23.566 69.1759 23.874C69.6705 24.1727 70.0532 24.6113 70.3239 25.19C70.6039 25.7687 70.7439 26.4733 70.7439 27.304V27.654H65.3539C65.4005 28.4473 65.6105 29.0447 65.9839 29.446C66.3665 29.8473 66.8799 30.048 67.5239 30.048C68.0092 30.048 68.4059 29.936 68.7139 29.712C69.0312 29.4787 69.2505 29.1753 69.3719 28.802L70.6319 28.9C70.4359 29.5627 70.0625 30.1087 69.5119 30.538C68.9705 30.958 68.3079 31.168 67.5239 31.168ZM65.3539 26.618H69.4559C69.3999 25.8993 69.1899 25.372 68.8259 25.036C68.4712 24.7 68.0185 24.532 67.4679 24.532C66.8985 24.532 66.4272 24.7093 66.0539 25.064C65.6899 25.4093 65.4565 25.9273 65.3539 26.618ZM75.9735 31V23.58H77.0515L77.0935 25.456L76.9255 25.4C77.0095 24.9893 77.1542 24.6393 77.3595 24.35C77.5742 24.0513 77.8355 23.8227 78.1435 23.664C78.4515 23.496 78.7922 23.412 79.1655 23.412C79.8095 23.412 80.3322 23.5893 80.7335 23.944C81.1442 24.2987 81.4008 24.7933 81.5035 25.428L81.2795 25.414C81.3542 24.9847 81.4895 24.6253 81.6855 24.336C81.8908 24.0373 82.1522 23.8087 82.4695 23.65C82.7868 23.4913 83.1508 23.412 83.5615 23.412C84.0935 23.412 84.5415 23.524 84.9055 23.748C85.2695 23.9627 85.5448 24.28 85.7315 24.7C85.9182 25.12 86.0115 25.6287 86.0115 26.226V31H84.8355V26.478C84.8355 25.806 84.7048 25.302 84.4435 24.966C84.1822 24.6207 83.7948 24.448 83.2815 24.448C82.9362 24.448 82.6328 24.532 82.3715 24.7C82.1195 24.868 81.9235 25.1107 81.7835 25.428C81.6435 25.736 81.5735 26.114 81.5735 26.562V31H80.3975V26.562C80.3975 25.8993 80.2808 25.3813 80.0475 25.008C79.8142 24.6347 79.4222 24.448 78.8715 24.448C78.5262 24.448 78.2228 24.532 77.9615 24.7C77.7095 24.868 77.5088 25.1107 77.3595 25.428C77.2195 25.7453 77.1495 26.1233 77.1495 26.562V31H75.9735ZM88.0943 33.1V32.064H88.9483C89.2097 32.064 89.401 32.022 89.5223 31.938C89.653 31.8633 89.751 31.7373 89.8163 31.56L90.0823 30.86H89.6763L86.9603 23.58H88.2483L90.4603 29.768L92.5743 23.58H93.8623L90.8523 31.938C90.7123 32.3393 90.5023 32.6333 90.2223 32.82C89.9423 33.0067 89.555 33.1 89.0603 33.1H88.0943ZM98.7919 31V21.06H99.9679V25.218L99.8279 25.19C99.9212 24.7793 100.08 24.4433 100.304 24.182C100.528 23.9207 100.803 23.7293 101.13 23.608C101.457 23.4773 101.816 23.412 102.208 23.412C102.74 23.412 103.188 23.5333 103.552 23.776C103.925 24.0093 104.205 24.3407 104.392 24.77C104.588 25.19 104.686 25.6753 104.686 26.226V31H103.51V26.562C103.51 25.8433 103.379 25.3113 103.118 24.966C102.866 24.6207 102.479 24.448 101.956 24.448C101.359 24.448 100.878 24.63 100.514 24.994C100.15 25.358 99.9679 25.8853 99.9679 26.576V31H98.7919ZM109.661 31.168C108.979 31.168 108.382 31.0093 107.869 30.692C107.355 30.3747 106.959 29.9267 106.679 29.348C106.399 28.76 106.259 28.074 106.259 27.29C106.259 26.4967 106.399 25.8107 106.679 25.232C106.959 24.6533 107.355 24.2053 107.869 23.888C108.382 23.5707 108.979 23.412 109.661 23.412C110.342 23.412 110.935 23.5707 111.439 23.888C111.952 24.2053 112.349 24.6533 112.629 25.232C112.909 25.8107 113.049 26.4967 113.049 27.29C113.049 28.074 112.909 28.76 112.629 29.348C112.349 29.9267 111.952 30.3747 111.439 30.692C110.935 31.0093 110.342 31.168 109.661 31.168ZM109.661 30.048C110.342 30.048 110.869 29.8053 111.243 29.32C111.625 28.8253 111.817 28.1487 111.817 27.29C111.817 26.4313 111.625 25.7593 111.243 25.274C110.869 24.7793 110.342 24.532 109.661 24.532C108.979 24.532 108.447 24.7793 108.065 25.274C107.682 25.7593 107.491 26.4313 107.491 27.29C107.491 28.1487 107.682 28.8253 108.065 29.32C108.447 29.8053 108.979 30.048 109.661 30.048ZM114.651 31V23.58H115.729L115.771 25.456L115.603 25.4C115.687 24.9893 115.832 24.6393 116.037 24.35C116.252 24.0513 116.513 23.8227 116.821 23.664C117.129 23.496 117.47 23.412 117.843 23.412C118.487 23.412 119.01 23.5893 119.411 23.944C119.822 24.2987 120.079 24.7933 120.181 25.428L119.957 25.414C120.032 24.9847 120.167 24.6253 120.363 24.336C120.569 24.0373 120.83 23.8087 121.147 23.65C121.465 23.4913 121.829 23.412 122.239 23.412C122.771 23.412 123.219 23.524 123.583 23.748C123.947 23.9627 124.223 24.28 124.409 24.7C124.596 25.12 124.689 25.6287 124.689 26.226V31H123.513V26.478C123.513 25.806 123.383 25.302 123.121 24.966C122.86 24.6207 122.473 24.448 121.959 24.448C121.614 24.448 121.311 24.532 121.049 24.7C120.797 24.868 120.601 25.1107 120.461 25.428C120.321 25.736 120.251 26.114 120.251 26.562V31H119.075V26.562C119.075 25.8993 118.959 25.3813 118.725 25.008C118.492 24.6347 118.1 24.448 117.549 24.448C117.204 24.448 116.901 24.532 116.639 24.7C116.387 24.868 116.187 25.1107 116.037 25.428C115.897 25.7453 115.827 26.1233 115.827 26.562V31H114.651ZM129.663 31.168C128.963 31.168 128.356 31.0093 127.843 30.692C127.339 30.3747 126.947 29.9267 126.667 29.348C126.396 28.76 126.261 28.074 126.261 27.29C126.261 26.506 126.396 25.8247 126.667 25.246C126.947 24.6673 127.334 24.2193 127.829 23.902C128.333 23.5753 128.925 23.412 129.607 23.412C130.251 23.412 130.82 23.566 131.315 23.874C131.809 24.1727 132.192 24.6113 132.463 25.19C132.743 25.7687 132.883 26.4733 132.883 27.304V27.654H127.493C127.539 28.4473 127.749 29.0447 128.123 29.446C128.505 29.8473 129.019 30.048 129.663 30.048C130.148 30.048 130.545 29.936 130.853 29.712C131.17 29.4787 131.389 29.1753 131.511 28.802L132.771 28.9C132.575 29.5627 132.201 30.1087 131.651 30.538C131.109 30.958 130.447 31.168 129.663 31.168ZM127.493 26.618H131.595C131.539 25.8993 131.329 25.372 130.965 25.036C130.61 24.7 130.157 24.532 129.607 24.532C129.037 24.532 128.566 24.7093 128.193 25.064C127.829 25.4093 127.595 25.9273 127.493 26.618ZM139.568 31C139.139 31 138.789 30.888 138.518 30.664C138.248 30.44 138.112 30.0853 138.112 29.6V21.06H139.288V29.502C139.288 29.6513 139.326 29.768 139.4 29.852C139.484 29.9267 139.601 29.964 139.75 29.964H140.394V31H139.568ZM144.661 31.168C143.979 31.168 143.382 31.0093 142.869 30.692C142.355 30.3747 141.959 29.9267 141.679 29.348C141.399 28.76 141.259 28.074 141.259 27.29C141.259 26.4967 141.399 25.8107 141.679 25.232C141.959 24.6533 142.355 24.2053 142.869 23.888C143.382 23.5707 143.979 23.412 144.661 23.412C145.342 23.412 145.935 23.5707 146.439 23.888C146.952 24.2053 147.349 24.6533 147.629 25.232C147.909 25.8107 148.049 26.4967 148.049 27.29C148.049 28.074 147.909 28.76 147.629 29.348C147.349 29.9267 146.952 30.3747 146.439 30.692C145.935 31.0093 145.342 31.168 144.661 31.168ZM144.661 30.048C145.342 30.048 145.869 29.8053 146.243 29.32C146.625 28.8253 146.817 28.1487 146.817 27.29C146.817 26.4313 146.625 25.7593 146.243 25.274C145.869 24.7793 145.342 24.532 144.661 24.532C143.979 24.532 143.447 24.7793 143.065 25.274C142.682 25.7593 142.491 26.4313 142.491 27.29C142.491 28.1487 142.682 28.8253 143.065 29.32C143.447 29.8053 143.979 30.048 144.661 30.048ZM151.845 31.168C151.079 31.168 150.468 30.9907 150.011 30.636C149.563 30.2813 149.339 29.7867 149.339 29.152C149.339 28.5173 149.525 28.018 149.899 27.654C150.272 27.29 150.865 27.0333 151.677 26.884L154.309 26.394C154.309 25.7687 154.159 25.302 153.861 24.994C153.571 24.686 153.133 24.532 152.545 24.532C152.031 24.532 151.625 24.6487 151.327 24.882C151.028 25.106 150.823 25.4327 150.711 25.862L149.465 25.764C149.605 25.064 149.941 24.4993 150.473 24.07C151.014 23.6313 151.705 23.412 152.545 23.412C153.497 23.412 154.225 23.6827 154.729 24.224C155.233 24.756 155.485 25.4933 155.485 26.436V29.502C155.485 29.67 155.513 29.7913 155.569 29.866C155.634 29.9313 155.737 29.964 155.877 29.964H156.171V31C156.133 31.0093 156.073 31.014 155.989 31.014C155.905 31.0233 155.816 31.028 155.723 31.028C155.387 31.028 155.111 30.9767 154.897 30.874C154.691 30.762 154.542 30.594 154.449 30.37C154.355 30.1367 154.309 29.8333 154.309 29.46L154.449 29.488C154.383 29.8053 154.225 30.0947 153.973 30.356C153.721 30.608 153.408 30.8087 153.035 30.958C152.661 31.098 152.265 31.168 151.845 31.168ZM151.957 30.132C152.451 30.132 152.871 30.0387 153.217 29.852C153.571 29.656 153.842 29.3947 154.029 29.068C154.215 28.732 154.309 28.3587 154.309 27.948V27.416L151.901 27.864C151.397 27.9573 151.047 28.102 150.851 28.298C150.664 28.4847 150.571 28.732 150.571 29.04C150.571 29.3853 150.692 29.656 150.935 29.852C151.187 30.0387 151.527 30.132 151.957 30.132ZM157.499 31V23.58H158.577L158.619 25.47L158.479 25.344C158.572 24.9053 158.736 24.546 158.969 24.266C159.202 23.9767 159.482 23.762 159.809 23.622C160.145 23.482 160.504 23.412 160.887 23.412C161.456 23.412 161.923 23.538 162.287 23.79C162.66 24.042 162.936 24.3827 163.113 24.812C163.3 25.232 163.393 25.7033 163.393 26.226V31H162.217V26.562C162.217 26.1047 162.161 25.722 162.049 25.414C161.946 25.0967 161.778 24.8587 161.545 24.7C161.312 24.532 161.008 24.448 160.635 24.448C160.066 24.448 159.594 24.63 159.221 24.994C158.857 25.3487 158.675 25.8713 158.675 26.562V31H157.499Z" fill="white"/>
<path d="M178.072 32.0113C177.577 32.2166 177.064 32.3706 176.532 32.4733C176.009 32.5759 175.454 32.6273 174.866 32.6273C173.765 32.6273 172.822 32.4266 172.038 32.0253C171.254 31.6239 170.652 31.0452 170.232 30.2892C169.821 29.5239 169.616 28.6092 169.616 27.5452C169.616 26.5932 169.765 25.7252 170.064 24.9412C170.372 24.1479 170.806 23.4666 171.366 22.8972C171.935 22.3186 172.607 21.8752 173.382 21.5672C174.157 21.2499 175.015 21.0912 175.958 21.0912C177.041 21.0912 177.983 21.2966 178.786 21.7072C179.598 22.1179 180.223 22.6966 180.662 23.4432C181.11 24.1899 181.334 25.0672 181.334 26.0752C181.334 26.8406 181.217 27.5126 180.984 28.0912C180.751 28.6606 180.429 29.1039 180.018 29.4212C179.607 29.7386 179.131 29.8972 178.59 29.8972C178.123 29.8972 177.745 29.7666 177.456 29.5052C177.167 29.2439 177.008 28.8892 176.98 28.4412L177.232 28.3852C177.129 28.6746 176.957 28.9406 176.714 29.1833C176.471 29.4259 176.191 29.6172 175.874 29.7572C175.557 29.8972 175.23 29.9672 174.894 29.9672C174.353 29.9672 173.891 29.8599 173.508 29.6452C173.135 29.4306 172.85 29.1319 172.654 28.7492C172.458 28.3572 172.36 27.9046 172.36 27.3912C172.36 26.7566 172.481 26.1826 172.724 25.6692C172.967 25.1559 173.307 24.7499 173.746 24.4512C174.194 24.1526 174.712 24.0032 175.3 24.0032C175.804 24.0032 176.233 24.1152 176.588 24.3392C176.943 24.5632 177.167 24.8572 177.26 25.2212L177.064 25.3192L177.162 24.0452H178.38L178.142 26.9292C178.133 27.1346 178.114 27.3632 178.086 27.6152C178.067 27.8672 178.058 28.0772 178.058 28.2452C178.058 28.4412 178.114 28.5952 178.226 28.7072C178.338 28.8192 178.506 28.8752 178.73 28.8752C179.187 28.8752 179.547 28.6372 179.808 28.1612C180.079 27.6759 180.214 27.0086 180.214 26.1592C180.214 25.2912 180.051 24.5586 179.724 23.9613C179.397 23.3639 178.912 22.9159 178.268 22.6172C177.633 22.3092 176.849 22.1552 175.916 22.1552C175.141 22.1552 174.437 22.2859 173.802 22.5472C173.167 22.7992 172.621 23.1632 172.164 23.6393C171.707 24.1059 171.352 24.6659 171.1 25.3192C170.857 25.9726 170.736 26.7006 170.736 27.5032C170.736 28.3619 170.895 29.0946 171.212 29.7012C171.539 30.3079 172.015 30.7699 172.64 31.0873C173.265 31.4046 174.021 31.5633 174.908 31.5633C175.431 31.5633 175.935 31.5119 176.42 31.4093C176.905 31.3159 177.367 31.1759 177.806 30.9892L178.072 32.0113ZM175.132 28.8892C175.552 28.8892 175.897 28.7866 176.168 28.5812C176.439 28.3666 176.639 28.0959 176.77 27.7692C176.91 27.4332 176.98 27.0786 176.98 26.7052C176.98 26.3972 176.929 26.1219 176.826 25.8792C176.723 25.6272 176.565 25.4312 176.35 25.2912C176.135 25.1512 175.851 25.0812 175.496 25.0812C175.113 25.0812 174.791 25.1839 174.53 25.3892C174.269 25.5852 174.068 25.8512 173.928 26.1872C173.788 26.5139 173.718 26.8826 173.718 27.2932C173.718 27.7506 173.825 28.1332 174.04 28.4412C174.255 28.7399 174.619 28.8892 175.132 28.8892ZM183.151 31.0312V21.0912H186.861C188 21.0912 188.887 21.3666 189.521 21.9172C190.156 22.4586 190.473 23.2146 190.473 24.1852C190.473 24.8292 190.329 25.3892 190.039 25.8652C189.75 26.3319 189.335 26.6912 188.793 26.9432C188.261 27.1859 187.617 27.3072 186.861 27.3072H184.663V31.0312H183.151ZM184.663 25.9352H186.819C187.501 25.9352 188.019 25.7906 188.373 25.5012C188.728 25.2026 188.905 24.7639 188.905 24.1852C188.905 23.6159 188.728 23.1912 188.373 22.9112C188.019 22.6219 187.501 22.4772 186.819 22.4772H184.663V25.9352ZM190.376 31.0312L193.96 21.0912H195.878L199.462 31.0312H197.852L196.942 28.4412H192.882L191.986 31.0312H190.376ZM193.358 27.0692H196.48L194.912 22.5332L193.358 27.0692ZM200.336 32.3193V31.0312H206.986V32.3193H200.336ZM208.759 31.0312V21.0912H210.831L213.785 29.2532L216.739 21.0912H218.811V31.0312H217.299V23.7512L214.625 31.0172H212.945L210.271 23.7512V31.0312H208.759ZM223.009 31.1993C222.234 31.1993 221.614 31.0219 221.147 30.6672C220.69 30.3126 220.461 29.8132 220.461 29.1692C220.461 28.5252 220.652 28.0259 221.035 27.6712C221.427 27.3072 222.029 27.0459 222.841 26.8872L225.403 26.3972C225.403 25.8186 225.268 25.3892 224.997 25.1092C224.726 24.8199 224.325 24.6752 223.793 24.6752C223.317 24.6752 222.944 24.7826 222.673 24.9972C222.402 25.2026 222.216 25.5106 222.113 25.9212L220.587 25.8232C220.727 25.0766 221.072 24.4886 221.623 24.0592C222.183 23.6299 222.906 23.4152 223.793 23.4152C224.801 23.4152 225.566 23.6859 226.089 24.2272C226.621 24.7592 226.887 25.5106 226.887 26.4812V29.3792C226.887 29.5566 226.915 29.6826 226.971 29.7572C227.036 29.8226 227.139 29.8552 227.279 29.8552H227.545V31.0312C227.498 31.0406 227.424 31.0499 227.321 31.0593C227.218 31.0686 227.111 31.0733 226.999 31.0733C226.682 31.0733 226.406 31.0219 226.173 30.9192C225.949 30.8166 225.781 30.6486 225.669 30.4152C225.557 30.1726 225.501 29.8506 225.501 29.4492L225.655 29.5192C225.58 29.8459 225.417 30.1352 225.165 30.3872C224.922 30.6392 224.61 30.8399 224.227 30.9892C223.854 31.1293 223.448 31.1993 223.009 31.1993ZM223.247 30.0232C223.695 30.0232 224.078 29.9392 224.395 29.7712C224.712 29.5939 224.96 29.3512 225.137 29.0432C225.314 28.7352 225.403 28.3852 225.403 27.9932V27.5172L223.219 27.9372C222.771 28.0212 222.454 28.1566 222.267 28.3432C222.09 28.5206 222.001 28.7492 222.001 29.0292C222.001 29.3466 222.108 29.5939 222.323 29.7712C222.547 29.9392 222.855 30.0232 223.247 30.0232ZM228.798 33.1313V23.5832H230.198L230.24 25.1792L230.072 25.0952C230.259 24.5446 230.567 24.1292 230.996 23.8492C231.425 23.5599 231.92 23.4152 232.48 23.4152C233.208 23.4152 233.805 23.5972 234.272 23.9613C234.748 24.3159 235.098 24.7872 235.322 25.3752C235.555 25.9632 235.672 26.6072 235.672 27.3072C235.672 28.0072 235.555 28.6512 235.322 29.2392C235.098 29.8272 234.748 30.3032 234.272 30.6672C233.805 31.0219 233.208 31.1993 232.48 31.1993C232.107 31.1993 231.757 31.1339 231.43 31.0032C231.103 30.8726 230.823 30.6906 230.59 30.4572C230.366 30.2146 230.207 29.9299 230.114 29.6032L230.282 29.4352V33.1313H228.798ZM232.214 29.9112C232.811 29.9112 233.278 29.6826 233.614 29.2252C233.959 28.7679 234.132 28.1286 234.132 27.3072C234.132 26.4859 233.959 25.8466 233.614 25.3892C233.278 24.9319 232.811 24.7032 232.214 24.7032C231.822 24.7032 231.481 24.8012 231.192 24.9972C230.903 25.1839 230.679 25.4732 230.52 25.8652C230.361 26.2572 230.282 26.7379 230.282 27.3072C230.282 27.8766 230.357 28.3572 230.506 28.7492C230.665 29.1412 230.889 29.4352 231.178 29.6312C231.477 29.8179 231.822 29.9112 232.214 29.9112ZM238.871 31.0312C238.386 31.0312 237.994 30.9052 237.695 30.6532C237.397 30.4012 237.247 29.9999 237.247 29.4492V21.0912H238.731V29.3092C238.731 29.4772 238.773 29.6032 238.857 29.6872C238.951 29.7712 239.081 29.8132 239.249 29.8132H239.837V31.0312H238.871ZM244.169 31.1993C243.441 31.1993 242.811 31.0406 242.279 30.7232C241.756 30.4059 241.35 29.9532 241.061 29.3652C240.781 28.7772 240.641 28.0912 240.641 27.3072C240.641 26.5232 240.781 25.8419 241.061 25.2632C241.35 24.6752 241.756 24.2226 242.279 23.9052C242.801 23.5786 243.417 23.4152 244.127 23.4152C244.799 23.4152 245.391 23.5739 245.905 23.8912C246.418 24.1992 246.815 24.6472 247.095 25.2352C247.384 25.8232 247.529 26.5326 247.529 27.3632V27.7412H242.181C242.218 28.4692 242.409 29.0152 242.755 29.3792C243.109 29.7432 243.585 29.9252 244.183 29.9252C244.621 29.9252 244.985 29.8226 245.275 29.6172C245.564 29.4119 245.765 29.1366 245.877 28.7912L247.417 28.8892C247.221 29.5799 246.833 30.1399 246.255 30.5693C245.685 30.9893 244.99 31.1993 244.169 31.1993ZM242.181 26.6212H245.961C245.914 25.9586 245.723 25.4686 245.387 25.1512C245.06 24.8339 244.64 24.6752 244.127 24.6752C243.595 24.6752 243.156 24.8432 242.811 25.1792C242.475 25.5059 242.265 25.9866 242.181 26.6212ZM248.262 31.0312L251.846 21.0912H253.764L257.348 31.0312H255.738L254.828 28.4412H250.768L249.872 31.0312H248.262ZM251.244 27.0692H254.366L252.798 22.5332L251.244 27.0692ZM259.797 31.0312L257.081 23.5832H258.663L260.693 29.5192L262.723 23.5832H264.319L261.589 31.0312H259.797ZM268.341 31.1993C267.613 31.1993 266.983 31.0406 266.451 30.7232C265.928 30.4059 265.522 29.9532 265.233 29.3652C264.953 28.7772 264.813 28.0912 264.813 27.3072C264.813 26.5232 264.953 25.8419 265.233 25.2632C265.522 24.6752 265.928 24.2226 266.451 23.9052C266.973 23.5786 267.589 23.4152 268.299 23.4152C268.971 23.4152 269.563 23.5739 270.077 23.8912C270.59 24.1992 270.987 24.6472 271.267 25.2352C271.556 25.8232 271.701 26.5326 271.701 27.3632V27.7412H266.353C266.39 28.4692 266.581 29.0152 266.927 29.3792C267.281 29.7432 267.757 29.9252 268.355 29.9252C268.793 29.9252 269.157 29.8226 269.447 29.6172C269.736 29.4119 269.937 29.1366 270.049 28.7912L271.589 28.8892C271.393 29.5799 271.005 30.1399 270.427 30.5693C269.857 30.9893 269.162 31.1993 268.341 31.1993ZM266.353 26.6212H270.133C270.086 25.9586 269.895 25.4686 269.559 25.1512C269.232 24.8339 268.812 24.6752 268.299 24.6752C267.767 24.6752 267.328 24.8432 266.983 25.1792C266.647 25.5059 266.437 25.9866 266.353 26.6212ZM273.204 31.0312V23.5832H274.562L274.618 25.5712L274.436 25.4732C274.52 24.9879 274.679 24.5959 274.912 24.2972C275.146 23.9986 275.43 23.7792 275.766 23.6393C276.102 23.4899 276.466 23.4152 276.858 23.4152C277.418 23.4152 277.88 23.5412 278.244 23.7932C278.618 24.0359 278.898 24.3719 279.084 24.8012C279.28 25.2212 279.378 25.7019 279.378 26.2432V31.0312H277.894V26.6912C277.894 26.2526 277.848 25.8839 277.754 25.5852C277.661 25.2866 277.507 25.0579 277.292 24.8992C277.078 24.7406 276.798 24.6612 276.452 24.6612C275.93 24.6612 275.505 24.8339 275.178 25.1792C274.852 25.5246 274.688 26.0286 274.688 26.6912V31.0312H273.204ZM283.734 31.1993C282.988 31.1993 282.39 30.9519 281.942 30.4572C281.504 29.9532 281.284 29.2579 281.284 28.3712V23.5832H282.768V27.9932C282.768 28.6652 282.885 29.1599 283.118 29.4772C283.352 29.7946 283.706 29.9532 284.182 29.9532C284.724 29.9532 285.144 29.7806 285.442 29.4352C285.75 29.0806 285.904 28.5859 285.904 27.9512V23.5832H287.388V31.0312H286.002L285.974 29.0852L286.184 29.1692C286.054 29.8226 285.778 30.3266 285.358 30.6812C284.938 31.0266 284.397 31.1993 283.734 31.1993ZM288.889 31.0312V29.2672H290.695V31.0312H288.889ZM291.689 31.0312V29.2672H293.495V31.0312H291.689ZM294.489 31.0312V29.2672H296.295V31.0312H294.489Z" fill="white"/>
<path d="M169 32.7812H228.097V33.4813H169V32.7812ZM230.981 32.7812H288.301V33.4813H230.981V32.7812Z" fill="white"/>
<g filter="url(#filter1_d_2031_1704)">
<g filter="url(#filter2_di_2031_1704)">
<path fill-rule="evenodd" clip-rule="evenodd" d="M315.566 33.0739H305.81C305.292 33.0739 304.796 32.874 304.43 32.5183C304.064 32.1625 303.859 31.68 303.859 31.1768V17.8971C303.859 17.394 304.064 16.9114 304.43 16.5556C304.796 16.1999 305.292 16 305.81 16H311.26V22.084H317.518V31.1768C317.518 31.68 317.312 32.1625 316.946 32.5183C316.58 32.874 316.084 33.0739 315.566 33.0739Z" fill="white"/>
</g>
<g filter="url(#filter3_ddii_2031_1704)">
<path d="M317.518 22.084C317.518 21.8325 317.415 21.5912 317.232 21.4134L311.95 16.2779C311.767 16.1 311.519 16.0001 311.26 16V22.084H317.518Z" fill="white"/>
</g>
</g>
<rect x="302" y="26.6719" width="17" height="9.39066" rx="2.56109" fill="#CF3F3F"/>
<path d="M304.955 32.8672V28.8264H306.52C306.995 28.8264 307.365 28.9402 307.63 29.1678C307.896 29.3955 308.029 29.7104 308.029 30.1126C308.029 30.382 307.968 30.6153 307.846 30.8126C307.725 31.0061 307.552 31.1541 307.329 31.2565C307.105 31.359 306.835 31.4102 306.52 31.4102H305.695V32.8672H304.955ZM305.695 30.7671H306.486C306.737 30.7671 306.928 30.7121 307.061 30.602C307.198 30.492 307.266 30.3289 307.266 30.1126C307.266 29.9001 307.198 29.7408 307.061 29.6345C306.928 29.5245 306.737 29.4695 306.486 29.4695H305.695V30.7671ZM308.624 32.8672V28.8264H309.967C310.612 28.8264 311.107 29.0028 311.452 29.3557C311.801 29.7047 311.976 30.2037 311.976 30.8525C311.976 31.4975 311.805 31.9945 311.463 32.3436C311.122 32.6927 310.634 32.8672 310.001 32.8672H308.624ZM309.363 32.2241H309.967C310.388 32.2241 310.701 32.1102 310.906 31.8826C311.111 31.6549 311.213 31.3116 311.213 30.8525C311.213 30.3858 311.111 30.0386 310.906 29.811C310.701 29.5833 310.388 29.4695 309.967 29.4695H309.363V32.2241ZM312.586 32.8672V28.8264H315.29V29.4695H312.922L313.326 29.054V30.9094L312.922 30.5736H315.187V31.211H312.922L313.326 30.8752V32.8672H312.586Z" fill="white"/>
</g>
<defs>
<filter id="filter0_dd_2031_1704" x="0.2" y="0.8" width="339.6" height="53.6" filterUnits="userSpaceOnUse" color-interpolation-filters="sRGB">
<feFlood flood-opacity="0" result="BackgroundImageFix"/>
<feColorMatrix in="SourceAlpha" type="matrix" values="0 0 0 0 0 0 0 0 0 0 0 0 0 0 0 0 0 0 127 0" result="hardAlpha"/>
<feMorphology radius="1.2" operator="dilate" in="SourceAlpha" result="effect1_dropShadow_2031_1704"/>
<feOffset/>
<feColorMatrix type="matrix" values="0 0 0 0 1 0 0 0 0 1 0 0 0 0 1 0 0 0 0.09 0"/>
<feBlend mode="normal" in2="BackgroundImageFix" result="effect1_dropShadow_2031_1704"/>
<feColorMatrix in="SourceAlpha" type="matrix" values="0 0 0 0 0 0 0 0 0 0 0 0 0 0 0 0 0 0 127 0" result="hardAlpha"/>
<feOffset dy="1.6"/>
<feGaussianBlur stdDeviation="4.4"/>
<feColorMatrix type="matrix" values="0 0 0 0 0.0431373 0 0 0 0 0.0431373 0 0 0 0 0.0431373 0 0 0 0.08 0"/>
<feBlend mode="normal" in2="effect1_dropShadow_2031_1704" result="effect2_dropShadow_2031_1704"/>
<feBlend mode="normal" in="SourceGraphic" in2="effect2_dropShadow_2031_1704" result="shape"/>
</filter>
<filter id="filter1_d_2031_1704" x="303.005" y="15.1463" width="15.3666" height="18.7816" filterUnits="userSpaceOnUse" color-interpolation-filters="sRGB">
<feFlood flood-opacity="0" result="BackgroundImageFix"/>
<feColorMatrix in="SourceAlpha" type="matrix" values="0 0 0 0 0 0 0 0 0 0 0 0 0 0 0 0 0 0 127 0" result="hardAlpha"/>
<feOffset/>
<feGaussianBlur stdDeviation="0.426848"/>
<feComposite in2="hardAlpha" operator="out"/>
<feColorMatrix type="matrix" values="0 0 0 0 0 0 0 0 0 0 0 0 0 0 0 0 0 0 0.05 0"/>
<feBlend mode="normal" in2="BackgroundImageFix" result="effect1_dropShadow_2031_1704"/>
<feBlend mode="normal" in="SourceGraphic" in2="effect1_dropShadow_2031_1704" result="shape"/>
</filter>
<filter id="filter2_di_2031_1704" x="299.761" y="13.9511" width="21.8547" height="25.2697" filterUnits="userSpaceOnUse" color-interpolation-filters="sRGB">
<feFlood flood-opacity="0" result="BackgroundImageFix"/>
<feColorMatrix in="SourceAlpha" type="matrix" values="0 0 0 0 0 0 0 0 0 0 0 0 0 0 0 0 0 0 127 0" result="hardAlpha"/>
<feOffset dy="2.04887"/>
<feGaussianBlur stdDeviation="2.04887"/>
<feColorMatrix type="matrix" values="0 0 0 0 0.194157 0 0 0 0 0.194752 0 0 0 0 0.195608 0 0 0 0.1 0"/>
<feBlend mode="normal" in2="BackgroundImageFix" result="effect1_dropShadow_2031_1704"/>
<feBlend mode="normal" in="SourceGraphic" in2="effect1_dropShadow_2031_1704" result="shape"/>
<feColorMatrix in="SourceAlpha" type="matrix" values="0 0 0 0 0 0 0 0 0 0 0 0 0 0 0 0 0 0 127 0" result="hardAlpha"/>
<feOffset dy="-0.546365"/>
<feGaussianBlur stdDeviation="0.273183"/>
<feComposite in2="hardAlpha" operator="arithmetic" k2="-1" k3="1"/>
<feColorMatrix type="matrix" values="0 0 0 0 0.916179 0 0 0 0 0.918987 0 0 0 0 0.923024 0 0 0 0.5 0"/>
<feBlend mode="normal" in2="shape" result="effect2_innerShadow_2031_1704"/>
</filter>
<filter id="filter3_ddii_2031_1704" x="299.761" y="12.5852" width="21.8547" height="26.6356" filterUnits="userSpaceOnUse" color-interpolation-filters="sRGB">
<feFlood flood-opacity="0" result="BackgroundImageFix"/>
<feColorMatrix in="SourceAlpha" type="matrix" values="0 0 0 0 0 0 0 0 0 0 0 0 0 0 0 0 0 0 127 0" result="hardAlpha"/>
<feOffset dy="2.04887"/>
<feGaussianBlur stdDeviation="2.04887"/>
<feColorMatrix type="matrix" values="0 0 0 0 0.194157 0 0 0 0 0.194752 0 0 0 0 0.195608 0 0 0 0.17 0"/>
<feBlend mode="normal" in2="BackgroundImageFix" result="effect1_dropShadow_2031_1704"/>
<feColorMatrix in="SourceAlpha" type="matrix" values="0 0 0 0 0 0 0 0 0 0 0 0 0 0 0 0 0 0 127 0" result="hardAlpha"/>
<feOffset/>
<feGaussianBlur stdDeviation="1.70739"/>
<feComposite in2="hardAlpha" operator="out"/>
<feColorMatrix type="matrix" values="0 0 0 0 0 0 0 0 0 0 0 0 0 0 0 0 0 0 0.06 0"/>
<feBlend mode="normal" in2="effect1_dropShadow_2031_1704" result="effect2_dropShadow_2031_1704"/>
<feBlend mode="normal" in="SourceGraphic" in2="effect2_dropShadow_2031_1704" result="shape"/>
<feColorMatrix in="SourceAlpha" type="matrix" values="0 0 0 0 0 0 0 0 0 0 0 0 0 0 0 0 0 0 127 0" result="hardAlpha"/>
<feOffset dy="0.546365"/>
<feGaussianBlur stdDeviation="0.273183"/>
<feComposite in2="hardAlpha" operator="arithmetic" k2="-1" k3="1"/>
<feColorMatrix type="matrix" values="0 0 0 0 1 0 0 0 0 1 0 0 0 0 1 0 0 0 1 0"/>
<feBlend mode="normal" in2="shape" result="effect3_innerShadow_2031_1704"/>
<feColorMatrix in="SourceAlpha" type="matrix" values="0 0 0 0 0 0 0 0 0 0 0 0 0 0 0 0 0 0 127 0" result="hardAlpha"/>
<feOffset dy="-0.546365"/>
<feGaussianBlur stdDeviation="0.273183"/>
<feComposite in2="hardAlpha" operator="arithmetic" k2="-1" k3="1"/>
<feColorMatrix type="matrix" values="0 0 0 0 0.916179 0 0 0 0 0.918987 0 0 0 0 0.923024 0 0 0 0.3 0"/>
<feBlend mode="normal" in2="effect3_innerShadow_2031_1704" result="effect4_innerShadow_2031_1704"/>
</filter>
<linearGradient id="paint0_linear_2031_1704" x1="170.351" y1="13.0072" x2="170.351" y2="39.036" gradientUnits="userSpaceOnUse">
<stop stop-color="#1C1C1C"/>
<stop offset="1" stop-color="#121212"/>
</linearGradient>
</defs>
</svg>
