<svg width="811" height="494" viewBox="0 0 811 494" fill="none" xmlns="http://www.w3.org/2000/svg">
<path d="M158.709 396.555H48.3494C22.1991 396.555 1 418.145 1 444.777C1 471.41 22.1991 493 48.3494 493H158.709C184.86 493 206.059 471.41 206.059 444.777C206.059 418.145 184.86 396.555 158.709 396.555Z" fill="url(#paint0_linear_581_5986)" fill-opacity="0.02"/>
<path d="M652.291 492.987H762.651C788.801 492.987 810 471.397 810 444.764C810 418.131 788.801 396.541 762.651 396.541H652.291C626.141 396.541 604.942 418.131 604.942 444.764C604.942 471.397 626.141 492.987 652.291 492.987Z" fill="url(#paint1_linear_581_5986)" fill-opacity="0.02"/>
<path d="M450.082 396.218H360.245C334.095 396.218 312.896 417.808 312.896 444.441C312.896 471.073 334.095 492.663 360.245 492.663H450.082C476.232 492.663 497.431 471.073 497.431 444.441C497.431 417.808 476.232 396.218 450.082 396.218Z" fill="url(#paint2_linear_581_5986)" fill-opacity="0.02"/>
<path d="M609.295 354.189H715.567C741.718 354.189 762.917 332.599 762.917 305.966C762.917 279.334 741.718 257.744 715.567 257.744H609.295C583.144 257.744 561.945 279.334 561.945 305.966C561.945 332.599 583.144 354.189 609.295 354.189Z" fill="url(#paint3_linear_581_5986)" fill-opacity="0.02"/>
<path d="M199.747 257.72H93.4744C67.324 257.72 46.125 279.31 46.125 305.942C46.125 332.575 67.324 354.165 93.4744 354.165H199.747C225.897 354.165 247.096 332.575 247.096 305.942C247.096 279.31 225.897 257.72 199.747 257.72Z" fill="url(#paint4_linear_581_5986)" fill-opacity="0.02"/>
<path d="M484.26 257.463H326.12C299.97 257.463 278.771 279.053 278.771 305.686C278.771 332.319 299.97 353.909 326.12 353.909H484.26C510.41 353.909 531.609 332.319 531.609 305.686C531.609 279.053 510.41 257.463 484.26 257.463Z" fill="url(#paint5_linear_581_5986)" fill-opacity="0.02"/>
<path d="M342.346 114.798H140.558C114.407 114.798 93.2083 136.388 93.2083 163.02C93.2083 189.653 114.407 211.243 140.558 211.243H342.346C368.497 211.243 389.696 189.653 389.696 163.02C389.696 136.388 368.497 114.798 342.346 114.798Z" fill="url(#paint6_linear_581_5986)" fill-opacity="0.02"/>
<path d="M479.748 211.187H668.651C694.801 211.187 716 189.597 716 162.964C716 136.331 694.801 114.741 668.651 114.741H479.748C453.598 114.741 432.399 136.331 432.399 162.964C432.399 189.597 453.598 211.187 479.748 211.187Z" fill="url(#paint7_linear_581_5986)" fill-opacity="0.02"/>
<path d="M623.109 -24H516.599C490.449 -24 469.25 -2.41001 469.25 24.2226C469.25 50.8552 490.449 72.4452 516.599 72.4452H623.109C649.259 72.4452 670.458 50.8552 670.458 24.2226C670.458 -2.41001 649.259 -24 623.109 -24Z" fill="url(#paint8_linear_581_5986)" fill-opacity="0.02"/>
<path d="M292.359 -24H185.849C159.699 -24 138.5 -2.41001 138.5 24.2226C138.5 50.8552 159.699 72.4452 185.849 72.4452H292.359C318.509 72.4452 339.708 50.8552 339.708 24.2226C339.708 -2.41001 318.509 -24 292.359 -24Z" fill="url(#paint9_linear_581_5986)" fill-opacity="0.02"/>
<path d="M158.709 396.055C185.144 396.055 206.559 417.877 206.559 444.777C206.559 471.677 185.144 493.5 158.709 493.5H48.3496C21.9145 493.5 0.5 471.677 0.5 444.777C0.500032 417.877 21.9146 396.055 48.3496 396.055H158.709ZM762.65 396.041C789.085 396.041 810.5 417.864 810.5 444.764C810.5 471.664 789.085 493.486 762.65 493.486H652.291C625.856 493.486 604.441 471.664 604.441 444.764C604.442 417.864 625.856 396.041 652.291 396.041H762.65ZM450.082 395.718C476.517 395.718 497.931 417.54 497.932 444.44C497.932 471.341 476.517 493.163 450.082 493.163H360.245C333.81 493.163 312.396 471.341 312.396 444.44C312.396 417.54 333.81 395.718 360.245 395.718H450.082ZM715.567 257.244C742.002 257.244 763.417 279.066 763.417 305.966C763.417 332.866 742.002 354.688 715.567 354.688H609.295C582.86 354.688 561.445 332.866 561.445 305.966C561.446 279.066 582.86 257.244 609.295 257.244H715.567ZM199.747 257.22C226.182 257.22 247.597 279.042 247.597 305.942C247.597 332.842 226.182 354.665 199.747 354.665H93.4746C67.0396 354.665 45.625 332.843 45.625 305.942C45.625 279.042 67.0395 257.22 93.4746 257.22H199.747ZM484.26 256.963C510.695 256.963 532.109 278.786 532.109 305.686C532.109 332.586 510.695 354.408 484.26 354.408H326.12C299.685 354.408 278.271 332.586 278.271 305.686C278.271 278.786 299.685 256.963 326.12 256.963H484.26ZM342.347 114.298C368.782 114.298 390.196 136.12 390.196 163.021C390.196 189.92 368.782 211.743 342.347 211.743H140.558C114.123 211.743 92.7081 189.92 92.708 163.021C92.708 136.12 114.123 114.298 140.558 114.298H342.347ZM668.65 114.241C695.085 114.241 716.5 136.064 716.5 162.964C716.5 189.864 695.085 211.687 668.65 211.687H479.748C453.313 211.686 431.898 189.864 431.898 162.964C431.899 136.064 453.313 114.241 479.748 114.241H668.65ZM292.358 -24.5C318.793 -24.5 340.208 -2.67744 340.208 24.2227C340.208 51.1227 318.793 72.9453 292.358 72.9453H185.85C159.415 72.9453 138 51.1227 138 24.2227C138 -2.67744 159.415 -24.5 185.85 -24.5H292.358ZM623.108 -24.5C649.543 -24.5 670.958 -2.67744 670.958 24.2227C670.958 51.1227 649.543 72.9453 623.108 72.9453H516.6C490.165 72.9453 468.75 51.1227 468.75 24.2227C468.75 -2.67744 490.165 -24.5 516.6 -24.5H623.108Z" stroke="url(#paint10_linear_581_5986)" stroke-opacity="0.15"/>
<defs>
<linearGradient id="paint0_linear_581_5986" x1="249.156" y1="187.309" x2="837.214" y2="382.567" gradientUnits="userSpaceOnUse">
<stop stop-color="white"/>
<stop offset="1" stop-color="white" stop-opacity="0"/>
</linearGradient>
<linearGradient id="paint1_linear_581_5986" x1="249.156" y1="187.309" x2="837.214" y2="382.567" gradientUnits="userSpaceOnUse">
<stop stop-color="white"/>
<stop offset="1" stop-color="white" stop-opacity="0"/>
</linearGradient>
<linearGradient id="paint2_linear_581_5986" x1="249.156" y1="187.309" x2="837.214" y2="382.567" gradientUnits="userSpaceOnUse">
<stop stop-color="white"/>
<stop offset="1" stop-color="white" stop-opacity="0"/>
</linearGradient>
<linearGradient id="paint3_linear_581_5986" x1="249.156" y1="187.309" x2="837.214" y2="382.567" gradientUnits="userSpaceOnUse">
<stop stop-color="white"/>
<stop offset="1" stop-color="white" stop-opacity="0"/>
</linearGradient>
<linearGradient id="paint4_linear_581_5986" x1="249.156" y1="187.309" x2="837.214" y2="382.567" gradientUnits="userSpaceOnUse">
<stop stop-color="white"/>
<stop offset="1" stop-color="white" stop-opacity="0"/>
</linearGradient>
<linearGradient id="paint5_linear_581_5986" x1="249.156" y1="187.309" x2="837.214" y2="382.567" gradientUnits="userSpaceOnUse">
<stop stop-color="white"/>
<stop offset="1" stop-color="white" stop-opacity="0"/>
</linearGradient>
<linearGradient id="paint6_linear_581_5986" x1="249.156" y1="187.309" x2="837.214" y2="382.567" gradientUnits="userSpaceOnUse">
<stop stop-color="white"/>
<stop offset="1" stop-color="white" stop-opacity="0"/>
</linearGradient>
<linearGradient id="paint7_linear_581_5986" x1="249.156" y1="187.309" x2="837.214" y2="382.567" gradientUnits="userSpaceOnUse">
<stop stop-color="white"/>
<stop offset="1" stop-color="white" stop-opacity="0"/>
</linearGradient>
<linearGradient id="paint8_linear_581_5986" x1="249.156" y1="187.309" x2="837.214" y2="382.567" gradientUnits="userSpaceOnUse">
<stop stop-color="white"/>
<stop offset="1" stop-color="white" stop-opacity="0"/>
</linearGradient>
<linearGradient id="paint9_linear_581_5986" x1="249.156" y1="187.309" x2="837.214" y2="382.567" gradientUnits="userSpaceOnUse">
<stop stop-color="white"/>
<stop offset="1" stop-color="white" stop-opacity="0"/>
</linearGradient>
<linearGradient id="paint10_linear_581_5986" x1="95.9604" y1="152.703" x2="214.423" y2="337.864" gradientUnits="userSpaceOnUse">
<stop stop-color="white"/>
<stop offset="1" stop-color="white" stop-opacity="0"/>
</linearGradient>
</defs>
</svg>
