<svg width="366" height="322" viewBox="0 0 366 322" fill="none" xmlns="http://www.w3.org/2000/svg">
<g clip-path="url(#clip0_2031_1768)">
<path d="M0.796875 14.4C0.796875 6.44711 7.24397 0 15.1969 0H351.197C359.15 0 365.597 6.4471 365.597 14.4V307.2C365.597 315.153 359.15 321.6 351.197 321.6H15.1969C7.24398 321.6 0.796875 315.153 0.796875 307.2V14.4Z" fill="url(#paint0_linear_2031_1768)"/>
<path d="M0.796875 14.4C0.796875 6.44711 7.24397 0 15.1969 0H351.197C359.15 0 365.597 6.4471 365.597 14.4V307.2C365.597 315.153 359.15 321.6 351.197 321.6H15.1969C7.24398 321.6 0.796875 315.153 0.796875 307.2V14.4Z" fill="white" fill-opacity="0.02"/>
<rect x="15.1968" y="92.4004" width="48" height="49.2" rx="4.8" fill="#A48AFB"/>
<path d="M31.396 164.669C30.2648 164.669 29.2904 164.423 28.4728 163.93C27.6664 163.426 27.0448 162.709 26.608 161.78C26.1712 160.85 25.9528 159.741 25.9528 158.453C25.9528 157.165 26.1712 156.056 26.608 155.127C27.0448 154.186 27.6664 153.464 28.4728 152.96C29.2904 152.456 30.2648 152.204 31.396 152.204C32.5384 152.204 33.5128 152.456 34.3192 152.96C35.1368 153.464 35.764 154.186 36.2008 155.127C36.6376 156.056 36.856 157.165 36.856 158.453C36.856 159.741 36.6376 160.85 36.2008 161.78C35.764 162.709 35.1368 163.426 34.3192 163.93C33.5128 164.423 32.5384 164.669 31.396 164.669ZM31.396 163.258C32.2248 163.258 32.9304 163.068 33.5128 162.687C34.1064 162.306 34.56 161.757 34.8736 161.04C35.1872 160.324 35.344 159.461 35.344 158.453C35.344 157.445 35.1872 156.583 34.8736 155.866C34.56 155.138 34.1064 154.584 33.5128 154.203C32.9304 153.811 32.2248 153.615 31.396 153.615C30.5784 153.615 29.8728 153.811 29.2792 154.203C28.6968 154.584 28.2488 155.138 27.9352 155.866C27.6216 156.583 27.4648 157.445 27.4648 158.453C27.4648 159.461 27.6216 160.324 27.9352 161.04C28.2488 161.757 28.6968 162.306 29.2792 162.687C29.8728 163.068 30.5784 163.258 31.396 163.258ZM42.6676 164.602C41.8388 164.602 41.1164 164.412 40.5004 164.031C39.8956 163.65 39.4252 163.112 39.0892 162.418C38.7532 161.712 38.5852 160.889 38.5852 159.948C38.5852 159.008 38.7532 158.19 39.0892 157.496C39.4252 156.801 39.8956 156.264 40.5004 155.883C41.1164 155.491 41.8388 155.295 42.6676 155.295C43.3508 155.295 43.9556 155.418 44.482 155.664C45.0196 155.9 45.4564 156.247 45.7924 156.706C46.1284 157.165 46.3468 157.725 46.4476 158.386L44.9692 158.487C44.8684 157.893 44.6108 157.44 44.1964 157.126C43.782 156.801 43.2724 156.639 42.6676 156.639C41.85 156.639 41.2116 156.936 40.7524 157.529C40.2932 158.112 40.0636 158.918 40.0636 159.948C40.0636 160.979 40.2932 161.791 40.7524 162.384C41.2116 162.967 41.85 163.258 42.6676 163.258C43.2724 163.258 43.782 163.09 44.1964 162.754C44.6108 162.418 44.8684 161.914 44.9692 161.242L46.4476 161.343C46.3468 162.004 46.1284 162.58 45.7924 163.073C45.4564 163.555 45.0196 163.93 44.482 164.199C43.9556 164.468 43.3508 164.602 42.6676 164.602ZM51.1117 164.4C50.3053 164.4 49.7061 164.216 49.3141 163.846C48.9333 163.476 48.7429 162.9 48.7429 162.116V153.413H50.1541V162.082C50.1541 162.485 50.2437 162.765 50.4229 162.922C50.6021 163.079 50.8765 163.157 51.2461 163.157H52.5229V164.4H51.1117ZM47.4325 156.74V155.496H52.5229V156.74H47.4325Z" fill="#737373"/>
<rect x="91.9968" y="109.2" width="48" height="32.4" rx="4.8" fill="#A48AFB"/>
<path d="M102.042 164.4V152.472H104.092L109.989 162.956V152.472H111.434V164.4H109.283L103.487 154.119V164.4H102.042ZM117.64 164.602C116.822 164.602 116.105 164.412 115.489 164.031C114.873 163.65 114.397 163.112 114.061 162.418C113.725 161.712 113.557 160.889 113.557 159.948C113.557 158.996 113.725 158.173 114.061 157.479C114.397 156.784 114.873 156.247 115.489 155.866C116.105 155.485 116.822 155.295 117.64 155.295C118.457 155.295 119.168 155.485 119.773 155.866C120.389 156.247 120.865 156.784 121.201 157.479C121.537 158.173 121.705 158.996 121.705 159.948C121.705 160.889 121.537 161.712 121.201 162.418C120.865 163.112 120.389 163.65 119.773 164.031C119.168 164.412 118.457 164.602 117.64 164.602ZM117.64 163.258C118.457 163.258 119.09 162.967 119.538 162.384C119.997 161.791 120.227 160.979 120.227 159.948C120.227 158.918 119.997 158.112 119.538 157.529C119.09 156.936 118.457 156.639 117.64 156.639C116.822 156.639 116.184 156.936 115.724 157.529C115.265 158.112 115.036 158.918 115.036 159.948C115.036 160.979 115.265 161.791 115.724 162.384C116.184 162.967 116.822 163.258 117.64 163.258ZM125.634 164.4L122.391 155.496H123.937L126.524 162.956L129.111 155.496H130.657L127.415 164.4H125.634Z" fill="#737373"/>
<rect x="168.797" y="43.2002" width="48" height="98.4" rx="4.8" fill="url(#paint1_linear_2031_1768)"/>
<path d="M178.842 164.4V152.472H182.538C184.375 152.472 185.786 152.993 186.772 154.035C187.769 155.065 188.267 156.538 188.267 158.453C188.267 160.357 187.78 161.824 186.806 162.855C185.831 163.885 184.442 164.4 182.639 164.4H178.842ZM180.287 162.989H182.538C183.938 162.989 184.991 162.614 185.697 161.864C186.402 161.102 186.755 159.965 186.755 158.453C186.755 156.919 186.402 155.776 185.697 155.026C184.991 154.264 183.938 153.884 182.538 153.884H180.287V162.989ZM194.079 164.602C193.239 164.602 192.511 164.412 191.895 164.031C191.29 163.65 190.819 163.112 190.483 162.418C190.159 161.712 189.996 160.889 189.996 159.948C189.996 159.008 190.159 158.19 190.483 157.496C190.819 156.801 191.284 156.264 191.878 155.883C192.483 155.491 193.194 155.295 194.011 155.295C194.784 155.295 195.467 155.48 196.061 155.849C196.655 156.208 197.114 156.734 197.439 157.428C197.775 158.123 197.943 158.968 197.943 159.965V160.385H191.475C191.531 161.337 191.783 162.054 192.231 162.536C192.69 163.017 193.306 163.258 194.079 163.258C194.661 163.258 195.137 163.124 195.507 162.855C195.887 162.575 196.151 162.211 196.296 161.763L197.808 161.88C197.573 162.676 197.125 163.331 196.464 163.846C195.815 164.35 195.019 164.602 194.079 164.602ZM191.475 159.142H196.397C196.33 158.28 196.078 157.647 195.641 157.244C195.215 156.84 194.672 156.639 194.011 156.639C193.328 156.639 192.763 156.852 192.315 157.277C191.878 157.692 191.598 158.313 191.475 159.142ZM203.332 164.602C202.503 164.602 201.781 164.412 201.165 164.031C200.56 163.65 200.089 163.112 199.753 162.418C199.417 161.712 199.249 160.889 199.249 159.948C199.249 159.008 199.417 158.19 199.753 157.496C200.089 156.801 200.56 156.264 201.165 155.883C201.781 155.491 202.503 155.295 203.332 155.295C204.015 155.295 204.62 155.418 205.146 155.664C205.684 155.9 206.121 156.247 206.457 156.706C206.793 157.165 207.011 157.725 207.112 158.386L205.633 158.487C205.533 157.893 205.275 157.44 204.861 157.126C204.446 156.801 203.937 156.639 203.332 156.639C202.514 156.639 201.876 156.936 201.417 157.529C200.957 158.112 200.728 158.918 200.728 159.948C200.728 160.979 200.957 161.791 201.417 162.384C201.876 162.967 202.514 163.258 203.332 163.258C203.937 163.258 204.446 163.09 204.861 162.754C205.275 162.418 205.533 161.914 205.633 161.242L207.112 161.343C207.011 162.004 206.793 162.58 206.457 163.073C206.121 163.555 205.684 163.93 205.146 164.199C204.62 164.468 204.015 164.602 203.332 164.602Z" fill="#737373"/>
<path d="M369.192 96.001L-1.60791 96.001" stroke="#0B0B0B" stroke-opacity="0.15" stroke-width="1.2" stroke-dasharray="4.8 4.8"/>
<path d="M369.192 42.001L-1.60791 42.001" stroke="#EC2222" stroke-width="1.2" stroke-dasharray="4.8 4.8"/>
<rect x="259.595" y="81.6025" width="91.6" height="31.6" rx="12" fill="#1E1E1E"/>
<path d="M268.571 103.698V90.8823H269.666V103.698H268.571ZM269.234 102.604C268.437 102.604 267.746 102.46 267.16 102.172C266.574 101.874 266.109 101.466 265.763 100.948C265.427 100.43 265.23 99.8295 265.173 99.1479L266.742 99.0615C266.8 99.5223 266.934 99.9159 267.146 100.242C267.357 100.559 267.635 100.804 267.981 100.977C268.336 101.14 268.763 101.222 269.262 101.222C269.694 101.222 270.064 101.169 270.371 101.063C270.678 100.948 270.909 100.785 271.062 100.574C271.226 100.362 271.307 100.098 271.307 99.7815C271.307 99.4935 271.24 99.2439 271.106 99.0327C270.971 98.8119 270.712 98.6103 270.328 98.4279C269.944 98.2359 269.382 98.0535 268.643 97.8807C267.846 97.6887 267.208 97.4727 266.728 97.2327C266.248 96.9927 265.902 96.6999 265.691 96.3543C265.49 95.9991 265.389 95.5575 265.389 95.0295C265.389 94.4631 265.528 93.9639 265.806 93.5319C266.085 93.0903 266.478 92.7495 266.987 92.5095C267.506 92.2599 268.125 92.1351 268.845 92.1351C269.613 92.1351 270.266 92.2743 270.803 92.5527C271.35 92.8311 271.782 93.2151 272.099 93.7047C272.416 94.1943 272.613 94.7559 272.69 95.3895L271.12 95.4759C271.072 95.1015 270.952 94.7655 270.76 94.4679C270.578 94.1703 270.323 93.9399 269.997 93.7767C269.67 93.6039 269.277 93.5175 268.816 93.5175C268.24 93.5175 267.784 93.6519 267.448 93.9207C267.112 94.1895 266.944 94.5447 266.944 94.9863C266.944 95.2743 267.011 95.5143 267.146 95.7063C267.29 95.8983 267.534 96.0663 267.88 96.2103C268.235 96.3543 268.739 96.5031 269.392 96.6567C270.256 96.8583 270.942 97.1031 271.451 97.3911C271.96 97.6695 272.325 98.0007 272.546 98.3847C272.766 98.7687 272.877 99.2055 272.877 99.6951C272.877 100.29 272.723 100.809 272.416 101.25C272.109 101.682 271.682 102.018 271.134 102.258C270.587 102.489 269.954 102.604 269.234 102.604ZM274.498 102.402C274.498 101.634 274.613 100.948 274.844 100.343C275.074 99.7383 275.468 99.1767 276.024 98.6583C276.581 98.1399 277.349 97.6215 278.328 97.1031C278.799 96.8631 279.173 96.6423 279.452 96.4407C279.74 96.2295 279.946 96.0135 280.071 95.7927C280.196 95.5719 280.258 95.3031 280.258 94.9863C280.258 94.6599 280.186 94.3815 280.042 94.1511C279.908 93.9111 279.706 93.7239 279.437 93.5895C279.168 93.4455 278.828 93.3735 278.415 93.3735C277.762 93.3735 277.244 93.5511 276.86 93.9063C276.485 94.2519 276.25 94.7511 276.154 95.4039L274.541 95.3031C274.656 94.2759 275.045 93.4599 275.708 92.8551C276.38 92.2503 277.282 91.9479 278.415 91.9479C279.144 91.9479 279.764 92.0775 280.272 92.3367C280.791 92.5863 281.184 92.9367 281.453 93.3879C281.732 93.8391 281.871 94.3623 281.871 94.9575C281.871 95.4759 281.784 95.9223 281.612 96.2967C281.439 96.6711 281.151 97.0215 280.748 97.3479C280.344 97.6647 279.797 98.0055 279.106 98.3703C278.223 98.8407 277.556 99.3063 277.104 99.7671C276.653 100.218 276.413 100.622 276.384 100.977H281.871V102.402H274.498ZM285.013 102.402C285.013 101.346 285.152 100.305 285.431 99.2775C285.719 98.2407 286.122 97.2471 286.64 96.2967C287.168 95.3367 287.797 94.4391 288.527 93.6039H282.81V92.1783H290.168V93.5031C289.362 94.4247 288.69 95.3463 288.152 96.2679C287.624 97.1799 287.231 98.1399 286.971 99.1479C286.722 100.146 286.597 101.231 286.597 102.402H285.013ZM292.944 102.402C292.944 101.346 293.083 100.305 293.362 99.2775C293.65 98.2407 294.053 97.2471 294.571 96.2967C295.099 95.3367 295.728 94.4391 296.458 93.6039H290.741V92.1783H298.099V93.5031C297.293 94.4247 296.621 95.3463 296.083 96.2679C295.555 97.1799 295.162 98.1399 294.903 99.1479C294.653 100.146 294.528 101.231 294.528 102.402H292.944ZM297.33 102.402V100.588H299.187V102.402H297.33ZM304.24 102.633C303.059 102.633 302.147 102.359 301.504 101.812C300.871 101.265 300.53 100.545 300.482 99.6519L302.08 99.5655C302.138 100.151 302.359 100.574 302.743 100.833C303.136 101.082 303.635 101.207 304.24 101.207C304.643 101.207 305.013 101.154 305.349 101.049C305.695 100.934 305.968 100.751 306.17 100.502C306.381 100.242 306.487 99.9063 306.487 99.4935C306.487 98.8791 306.28 98.4279 305.867 98.1399C305.455 97.8423 304.907 97.6935 304.226 97.6935H303.376V96.3399H304.226C304.773 96.3399 305.229 96.2295 305.594 96.0087C305.959 95.7879 306.141 95.4039 306.141 94.8567C306.141 94.3767 305.987 94.0119 305.68 93.7623C305.373 93.5031 304.903 93.3735 304.269 93.3735C303.655 93.3735 303.189 93.4935 302.872 93.7335C302.555 93.9735 302.368 94.2999 302.311 94.7127L300.712 94.6263C300.808 93.8199 301.159 93.1719 301.763 92.6823C302.378 92.1927 303.213 91.9479 304.269 91.9479C304.999 91.9479 305.623 92.0631 306.141 92.2935C306.659 92.5143 307.058 92.8359 307.336 93.2583C307.615 93.6807 307.754 94.1751 307.754 94.7415C307.754 95.3655 307.552 95.8743 307.149 96.2679C306.755 96.6615 306.175 96.9303 305.407 97.0743V96.8151C306.242 96.9207 306.899 97.2183 307.379 97.7079C307.859 98.1879 308.099 98.8023 308.099 99.5511C308.099 100.194 307.936 100.751 307.61 101.222C307.283 101.682 306.832 102.033 306.256 102.273C305.68 102.513 305.008 102.633 304.24 102.633ZM314.349 102.402V100.271H309.194V98.9463L314.162 92.1783H315.904V98.8599H317.157V100.271H315.904V102.402H314.349ZM310.965 98.8599H314.349V94.3383L310.965 98.8599ZM324.574 102.575C323.777 102.575 323.139 102.393 322.659 102.028C322.188 101.663 321.953 101.15 321.953 100.487C321.953 99.8247 322.15 99.3111 322.544 98.9463C322.947 98.5719 323.566 98.3031 324.401 98.1399L327.036 97.6359C327.036 97.0407 326.897 96.5991 326.619 96.3111C326.34 96.0135 325.928 95.8647 325.38 95.8647C324.891 95.8647 324.507 95.9751 324.228 96.1959C323.95 96.4071 323.758 96.7239 323.652 97.1463L322.083 97.0455C322.227 96.2775 322.582 95.6727 323.148 95.2311C323.724 94.7895 324.468 94.5687 325.38 94.5687C326.417 94.5687 327.204 94.8471 327.742 95.4039C328.289 95.9511 328.563 96.7239 328.563 97.7223V100.703C328.563 100.886 328.592 101.015 328.649 101.092C328.716 101.159 328.822 101.193 328.966 101.193H329.24V102.402C329.192 102.412 329.115 102.422 329.009 102.431C328.904 102.441 328.793 102.446 328.678 102.446C328.352 102.446 328.068 102.393 327.828 102.287C327.598 102.182 327.425 102.009 327.31 101.769C327.195 101.519 327.137 101.188 327.137 100.775L327.296 100.847C327.219 101.183 327.051 101.481 326.792 101.74C326.542 101.999 326.22 102.206 325.827 102.359C325.443 102.503 325.025 102.575 324.574 102.575ZM324.819 101.366C325.28 101.366 325.673 101.279 326 101.106C326.326 100.924 326.58 100.674 326.763 100.358C326.945 100.041 327.036 99.6807 327.036 99.2775V98.7879L324.79 99.2199C324.329 99.3063 324.003 99.4455 323.811 99.6375C323.628 99.8199 323.537 100.055 323.537 100.343C323.537 100.67 323.648 100.924 323.868 101.106C324.099 101.279 324.416 101.366 324.819 101.366ZM332.207 102.402L329.414 94.7415H331.041L333.129 100.847L335.217 94.7415H336.858L334.05 102.402H332.207ZM340.922 104.735C340.318 104.735 339.785 104.644 339.324 104.462C338.863 104.279 338.484 104.02 338.186 103.684C337.889 103.358 337.687 102.974 337.582 102.532L339.166 102.431C339.271 102.748 339.454 102.998 339.713 103.18C339.982 103.372 340.385 103.468 340.922 103.468C341.556 103.468 342.041 103.334 342.377 103.065C342.722 102.796 342.895 102.388 342.895 101.841V100.732C342.713 101.126 342.42 101.438 342.017 101.668C341.614 101.898 341.162 102.014 340.663 102.014C340.02 102.014 339.449 101.855 338.95 101.538C338.45 101.222 338.062 100.785 337.783 100.228C337.505 99.6711 337.366 99.0279 337.366 98.2983C337.366 97.5591 337.5 96.9111 337.769 96.3543C338.047 95.7975 338.431 95.3607 338.921 95.0439C339.42 94.7271 339.982 94.5687 340.606 94.5687C341.153 94.5687 341.633 94.6935 342.046 94.9431C342.468 95.1927 342.77 95.5287 342.953 95.9511V94.7415H344.422V101.798C344.422 102.431 344.278 102.964 343.99 103.396C343.711 103.838 343.308 104.169 342.78 104.39C342.262 104.62 341.642 104.735 340.922 104.735ZM340.908 100.718C341.503 100.718 341.978 100.502 342.334 100.07C342.698 99.6375 342.886 99.0423 342.895 98.2839C342.905 97.7847 342.828 97.3575 342.665 97.0023C342.502 96.6375 342.266 96.3591 341.959 96.1671C341.662 95.9655 341.311 95.8647 340.908 95.8647C340.284 95.8647 339.799 96.0855 339.454 96.5271C339.118 96.9591 338.95 97.5447 338.95 98.2839C338.95 99.0327 339.122 99.6279 339.468 100.07C339.823 100.502 340.303 100.718 340.908 100.718Z" fill="#737373"/>
<rect x="278.595" y="26.3994" width="72.6" height="31.6" rx="12" fill="#212121"/>
<path d="M287.789 48.4952V35.6792H288.884V48.4952H287.789ZM288.452 47.4008C287.655 47.4008 286.964 47.2568 286.378 46.9688C285.792 46.6712 285.327 46.2632 284.981 45.7448C284.645 45.2264 284.448 44.6264 284.391 43.9448L285.96 43.8584C286.018 44.3192 286.152 44.7128 286.364 45.0392C286.575 45.356 286.853 45.6008 287.199 45.7736C287.554 45.9368 287.981 46.0184 288.48 46.0184C288.912 46.0184 289.282 45.9656 289.589 45.86C289.896 45.7448 290.127 45.5816 290.28 45.3704C290.444 45.1592 290.525 44.8952 290.525 44.5784C290.525 44.2904 290.458 44.0408 290.324 43.8296C290.189 43.6088 289.93 43.4072 289.546 43.2248C289.162 43.0328 288.6 42.8504 287.861 42.6776C287.064 42.4856 286.426 42.2696 285.946 42.0296C285.466 41.7896 285.12 41.4968 284.909 41.1512C284.708 40.796 284.607 40.3544 284.607 39.8264C284.607 39.26 284.746 38.7608 285.024 38.3288C285.303 37.8872 285.696 37.5464 286.205 37.3064C286.724 37.0568 287.343 36.932 288.063 36.932C288.831 36.932 289.484 37.0712 290.021 37.3496C290.568 37.628 291 38.012 291.317 38.5016C291.634 38.9912 291.831 39.5528 291.908 40.1864L290.338 40.2728C290.29 39.8984 290.17 39.5624 289.978 39.2648C289.796 38.9672 289.541 38.7368 289.215 38.5736C288.888 38.4008 288.495 38.3144 288.034 38.3144C287.458 38.3144 287.002 38.4488 286.666 38.7176C286.33 38.9864 286.162 39.3416 286.162 39.7832C286.162 40.0712 286.229 40.3112 286.364 40.5032C286.508 40.6952 286.752 40.8632 287.098 41.0072C287.453 41.1512 287.957 41.3 288.61 41.4536C289.474 41.6552 290.16 41.9 290.669 42.188C291.178 42.4664 291.543 42.7976 291.764 43.1816C291.984 43.5656 292.095 44.0024 292.095 44.492C292.095 45.0872 291.941 45.6056 291.634 46.0472C291.327 46.4792 290.9 46.8152 290.352 47.0552C289.805 47.2856 289.172 47.4008 288.452 47.4008ZM293.716 47.1992C293.716 46.4312 293.831 45.7448 294.062 45.14C294.292 44.5352 294.686 43.9736 295.242 43.4552C295.799 42.9368 296.567 42.4184 297.546 41.9C298.017 41.66 298.391 41.4392 298.67 41.2376C298.958 41.0264 299.164 40.8104 299.289 40.5896C299.414 40.3688 299.476 40.1 299.476 39.7832C299.476 39.4568 299.404 39.1784 299.26 38.948C299.126 38.708 298.924 38.5208 298.655 38.3864C298.386 38.2424 298.046 38.1704 297.633 38.1704C296.98 38.1704 296.462 38.348 296.078 38.7032C295.703 39.0488 295.468 39.548 295.372 40.2008L293.759 40.1C293.874 39.0728 294.263 38.2568 294.926 37.652C295.598 37.0472 296.5 36.7448 297.633 36.7448C298.362 36.7448 298.982 36.8744 299.49 37.1336C300.009 37.3832 300.402 37.7336 300.671 38.1848C300.95 38.636 301.089 39.1592 301.089 39.7544C301.089 40.2728 301.002 40.7192 300.83 41.0936C300.657 41.468 300.369 41.8184 299.966 42.1448C299.562 42.4616 299.015 42.8024 298.324 43.1672C297.441 43.6376 296.774 44.1032 296.322 44.564C295.871 45.0152 295.631 45.4184 295.602 45.7736H301.089V47.1992H293.716ZM302.613 49.46L303.333 47.1992H302.541V45.3848H304.399V46.9832L303.492 49.46H302.613ZM306.627 47.1992V39.9128H304.467V38.66H305.345C305.729 38.66 306.041 38.612 306.281 38.516C306.521 38.4104 306.694 38.2376 306.8 37.9976C306.905 37.748 306.958 37.4072 306.958 36.9752H308.182V47.1992H306.627ZM311.9 47.1992V39.9128H309.74V38.66H310.619C311.003 38.66 311.315 38.612 311.555 38.516C311.795 38.4104 311.968 38.2376 312.073 37.9976C312.179 37.748 312.232 37.4072 312.232 36.9752H313.456V47.1992H311.9ZM315.738 47.1992C315.738 46.4312 315.853 45.7448 316.083 45.14C316.314 44.5352 316.707 43.9736 317.264 43.4552C317.821 42.9368 318.589 42.4184 319.568 41.9C320.039 41.66 320.413 41.4392 320.691 41.2376C320.979 41.0264 321.186 40.8104 321.311 40.5896C321.435 40.3688 321.498 40.1 321.498 39.7832C321.498 39.4568 321.426 39.1784 321.282 38.948C321.147 38.708 320.946 38.5208 320.677 38.3864C320.408 38.2424 320.067 38.1704 319.655 38.1704C319.002 38.1704 318.483 38.348 318.099 38.7032C317.725 39.0488 317.49 39.548 317.394 40.2008L315.781 40.1C315.896 39.0728 316.285 38.2568 316.947 37.652C317.619 37.0472 318.522 36.7448 319.655 36.7448C320.384 36.7448 321.003 36.8744 321.512 37.1336C322.031 37.3832 322.424 37.7336 322.693 38.1848C322.971 38.636 323.111 39.1592 323.111 39.7544C323.111 40.2728 323.024 40.7192 322.851 41.0936C322.679 41.468 322.391 41.8184 321.987 42.1448C321.584 42.4616 321.037 42.8024 320.346 43.1672C319.463 43.6376 318.795 44.1032 318.344 44.564C317.893 45.0152 317.653 45.4184 317.624 45.7736H323.111V47.1992H315.738ZM324.563 47.1992V45.3848H326.421V47.1992H324.563ZM331.596 47.4296C330.751 47.4296 330.017 47.2136 329.393 46.7816C328.769 46.3496 328.289 45.7352 327.953 44.9384C327.617 44.1416 327.449 43.196 327.449 42.1016C327.449 41.0072 327.617 40.0616 327.953 39.2648C328.298 38.4584 328.778 37.8392 329.393 37.4072C330.017 36.9656 330.751 36.7448 331.596 36.7448C332.45 36.7448 333.185 36.9656 333.799 37.4072C334.423 37.8392 334.903 38.4536 335.239 39.2504C335.585 40.0472 335.757 40.9976 335.757 42.1016C335.757 43.196 335.589 44.1416 335.253 44.9384C334.917 45.7352 334.437 46.3496 333.813 46.7816C333.189 47.2136 332.45 47.4296 331.596 47.4296ZM331.596 46.004C332.412 46.004 333.041 45.668 333.482 44.996C333.924 44.324 334.145 43.3592 334.145 42.1016C334.145 41.2568 334.044 40.5416 333.842 39.956C333.65 39.3704 333.362 38.9288 332.978 38.6312C332.604 38.324 332.143 38.1704 331.596 38.1704C331.058 38.1704 330.597 38.324 330.213 38.6312C329.839 38.9288 329.551 39.3704 329.349 39.956C329.157 40.5416 329.061 41.2568 329.061 42.1016C329.061 43.3592 329.282 44.324 329.724 44.996C330.165 45.668 330.789 46.004 331.596 46.004ZM341.313 47.4296C340.468 47.4296 339.734 47.2136 339.11 46.7816C338.486 46.3496 338.006 45.7352 337.67 44.9384C337.334 44.1416 337.166 43.196 337.166 42.1016C337.166 41.0072 337.334 40.0616 337.67 39.2648C338.015 38.4584 338.495 37.8392 339.11 37.4072C339.734 36.9656 340.468 36.7448 341.313 36.7448C342.167 36.7448 342.902 36.9656 343.516 37.4072C344.14 37.8392 344.62 38.4536 344.956 39.2504C345.302 40.0472 345.475 40.9976 345.475 42.1016C345.475 43.196 345.307 44.1416 344.971 44.9384C344.635 45.7352 344.155 46.3496 343.531 46.7816C342.907 47.2136 342.167 47.4296 341.313 47.4296ZM341.313 46.004C342.129 46.004 342.758 45.668 343.199 44.996C343.641 44.324 343.862 43.3592 343.862 42.1016C343.862 41.2568 343.761 40.5416 343.559 39.956C343.367 39.3704 343.079 38.9288 342.695 38.6312C342.321 38.324 341.86 38.1704 341.313 38.1704C340.775 38.1704 340.315 38.324 339.931 38.6312C339.556 38.9288 339.268 39.3704 339.067 39.956C338.875 40.5416 338.779 41.2568 338.779 42.1016C338.779 43.3592 338.999 44.324 339.441 44.996C339.883 45.668 340.507 46.004 341.313 46.004Z" fill="#EC2222"/>
<rect x="15.1968" y="184.8" width="38.4" height="38.4" rx="19.2" fill="white"/>
<rect x="14.5968" y="184.2" width="39.6" height="39.6" rx="19.8" stroke="#0B0B0B" stroke-opacity="0.1" stroke-width="1.2"/>
<path d="M42.8304 211.755C32.9232 216.47 26.7747 212.525 22.8388 210.129C22.5953 209.978 22.1813 210.164 22.5405 210.577C23.8517 212.167 28.1489 215.999 33.758 215.999C39.3709 215.999 42.7101 212.936 43.1278 212.402C43.5427 211.872 43.2496 211.58 42.8303 211.755H42.8304ZM45.6128 210.218C45.3468 209.872 43.9951 209.807 43.1444 209.912C42.2924 210.013 41.0135 210.534 41.1247 210.847C41.1818 210.964 41.2982 210.911 41.8835 210.859C42.4704 210.8 44.1145 210.593 44.4571 211.04C44.8013 211.491 43.9327 213.639 43.7741 213.986C43.6208 214.332 43.8327 214.422 44.1206 214.191C44.4045 213.96 44.9185 213.363 45.2635 212.518C45.6061 211.668 45.8151 210.482 45.6128 210.218Z" fill="#FF9900"/>
<path fill-rule="evenodd" clip-rule="evenodd" d="M36.1709 202.138C36.1709 203.375 36.2022 204.406 35.5769 205.505C35.0722 206.398 34.2727 206.948 33.3795 206.948C32.1601 206.948 31.45 206.019 31.45 204.648C31.45 201.941 33.8751 201.45 36.1709 201.45V202.138ZM39.3732 209.878C39.1633 210.065 38.8596 210.079 38.6229 209.954C37.5688 209.078 37.3812 208.672 36.8006 207.837C35.0588 209.614 33.8261 210.146 31.5662 210.146C28.8953 210.146 26.814 208.498 26.814 205.197C26.814 202.62 28.212 200.865 30.1994 200.007C31.9234 199.248 34.3308 199.114 36.1709 198.904V198.493C36.1709 197.738 36.2289 196.845 35.7868 196.193C35.3982 195.608 34.6568 195.367 34.0047 195.367C32.7944 195.367 31.7135 195.987 31.45 197.274C31.3963 197.56 31.1865 197.841 30.9006 197.854L27.8189 197.524C27.5599 197.466 27.274 197.256 27.3455 196.858C28.0556 193.125 31.4276 191.999 34.4468 191.999C35.9921 191.999 38.0109 192.41 39.2302 193.58C40.7756 195.023 40.6281 196.948 40.6281 199.042V203.991C40.6281 205.478 41.2445 206.13 41.8251 206.934C42.0305 207.22 42.0752 207.564 41.8161 207.778C41.1685 208.319 40.0162 209.324 39.3821 209.887L39.3731 209.878" fill="black"/>
<path d="M42.8304 211.755C32.9232 216.47 26.7747 212.525 22.8388 210.129C22.5953 209.978 22.1813 210.164 22.5405 210.577C23.8517 212.167 28.1489 215.999 33.758 215.999C39.3709 215.999 42.7101 212.936 43.1278 212.402C43.5427 211.872 43.2496 211.58 42.8303 211.755H42.8304ZM45.6128 210.218C45.3468 209.872 43.9951 209.807 43.1444 209.912C42.2924 210.013 41.0135 210.534 41.1247 210.847C41.1818 210.964 41.2982 210.911 41.8835 210.859C42.4704 210.8 44.1145 210.593 44.4571 211.04C44.8013 211.491 43.9327 213.639 43.7741 213.986C43.6208 214.332 43.8327 214.422 44.1206 214.191C44.4045 213.96 44.9185 213.363 45.2635 212.518C45.6061 211.668 45.8151 210.482 45.6128 210.218Z" fill="#FF9900"/>
<path fill-rule="evenodd" clip-rule="evenodd" d="M36.1709 202.138C36.1709 203.375 36.2022 204.406 35.5769 205.505C35.0722 206.398 34.2727 206.948 33.3795 206.948C32.1601 206.948 31.45 206.019 31.45 204.648C31.45 201.941 33.8751 201.45 36.1709 201.45V202.138ZM39.3732 209.878C39.1633 210.065 38.8596 210.079 38.6229 209.954C37.5688 209.078 37.3812 208.672 36.8006 207.837C35.0588 209.614 33.8261 210.146 31.5662 210.146C28.8953 210.146 26.814 208.498 26.814 205.197C26.814 202.62 28.212 200.865 30.1994 200.007C31.9234 199.248 34.3308 199.114 36.1709 198.904V198.493C36.1709 197.738 36.2289 196.845 35.7868 196.193C35.3982 195.608 34.6568 195.367 34.0047 195.367C32.7944 195.367 31.7135 195.987 31.45 197.274C31.3963 197.56 31.1865 197.841 30.9006 197.854L27.8189 197.524C27.5599 197.466 27.274 197.256 27.3455 196.858C28.0556 193.125 31.4276 191.999 34.4468 191.999C35.9921 191.999 38.0109 192.41 39.2302 193.58C40.7756 195.023 40.6281 196.948 40.6281 199.042V203.991C40.6281 205.478 41.2445 206.13 41.8251 206.934C42.0305 207.22 42.0752 207.564 41.8161 207.778C41.1685 208.319 40.0162 209.324 39.3821 209.887L39.3731 209.878" fill="black"/>
<path d="M23.5488 268.192V242.56H25.7376V268.192H23.5488ZM24.8736 266.003C23.28 266.003 21.8976 265.715 20.7264 265.139C19.5552 264.544 18.624 263.728 17.9328 262.691C17.2608 261.654 16.8672 260.454 16.752 259.091L19.8912 258.918C20.0064 259.84 20.2752 260.627 20.6976 261.28C21.12 261.913 21.6768 262.403 22.368 262.748C23.0784 263.075 23.9328 263.238 24.9312 263.238C25.7952 263.238 26.5344 263.132 27.1488 262.921C27.7632 262.691 28.224 262.364 28.5312 261.942C28.8576 261.52 29.0208 260.992 29.0208 260.358C29.0208 259.782 28.8864 259.283 28.6176 258.86C28.3488 258.419 27.8304 258.016 27.0624 257.651C26.2944 257.267 25.1712 256.902 23.6928 256.556C22.0992 256.172 20.8224 255.74 19.8624 255.26C18.9024 254.78 18.2112 254.195 17.7888 253.504C17.3856 252.793 17.184 251.91 17.184 250.854C17.184 249.721 17.4624 248.723 18.0192 247.859C18.576 246.976 19.3632 246.294 20.3808 245.814C21.4176 245.315 22.656 245.065 24.096 245.065C25.632 245.065 26.9376 245.344 28.0128 245.9C29.1072 246.457 29.9712 247.225 30.6048 248.204C31.2384 249.184 31.632 250.307 31.7856 251.574L28.6464 251.747C28.5504 250.998 28.3104 250.326 27.9264 249.731C27.5616 249.136 27.0528 248.675 26.4 248.348C25.7472 248.003 24.96 247.83 24.0384 247.83C22.8864 247.83 21.9744 248.099 21.3024 248.636C20.6304 249.174 20.2944 249.884 20.2944 250.768C20.2944 251.344 20.4288 251.824 20.6976 252.208C20.9856 252.592 21.4752 252.928 22.1664 253.216C22.8768 253.504 23.8848 253.801 25.1904 254.108C26.9184 254.512 28.2912 255.001 29.3088 255.577C30.3264 256.134 31.056 256.796 31.4976 257.564C31.9392 258.332 32.16 259.206 32.16 260.185C32.16 261.376 31.8528 262.412 31.2384 263.296C30.624 264.16 29.7696 264.832 28.6752 265.312C27.5808 265.772 26.3136 266.003 24.8736 266.003ZM35.4022 265.6C35.4022 264.064 35.6326 262.691 36.0934 261.481C36.5542 260.272 37.3414 259.148 38.455 258.112C39.5686 257.075 41.1046 256.038 43.063 255.001C44.0038 254.521 44.7526 254.08 45.3094 253.676C45.8854 253.254 46.2982 252.822 46.5478 252.38C46.7974 251.939 46.9222 251.401 46.9222 250.768C46.9222 250.115 46.7782 249.558 46.4902 249.097C46.2214 248.617 45.8182 248.243 45.2806 247.974C44.743 247.686 44.0614 247.542 43.2358 247.542C41.9302 247.542 40.8934 247.897 40.1254 248.608C39.3766 249.299 38.9062 250.297 38.7142 251.603L35.4886 251.401C35.719 249.347 36.4966 247.715 37.8214 246.505C39.1654 245.296 40.9702 244.691 43.2358 244.691C44.695 244.691 45.9334 244.95 46.951 245.468C47.9878 245.968 48.775 246.668 49.3126 247.571C49.8694 248.473 50.1478 249.52 50.1478 250.71C50.1478 251.747 49.975 252.64 49.6294 253.388C49.2838 254.137 48.7078 254.838 47.9014 255.491C47.095 256.124 46.0006 256.806 44.6182 257.536C42.8518 258.476 41.5174 259.408 40.615 260.329C39.7126 261.232 39.2326 262.038 39.175 262.748H50.1478V265.6H35.4022ZM53.1973 270.121L54.6373 265.6H53.0533V261.971H56.7685V265.168L54.9541 270.121H53.1973ZM61.2244 265.6V251.027H56.9044V248.521H58.6612C59.4292 248.521 60.0532 248.425 60.5332 248.233C61.0132 248.022 61.3588 247.676 61.57 247.196C61.7812 246.697 61.8868 246.016 61.8868 245.152H64.3348V265.6H61.2244ZM71.7712 265.6V251.027H67.4512V248.521H69.208C69.976 248.521 70.6 248.425 71.08 248.233C71.56 248.022 71.9056 247.676 72.1168 247.196C72.328 246.697 72.4336 246.016 72.4336 245.152H74.8816V265.6H71.7712ZM79.446 265.6C79.446 264.064 79.6764 262.691 80.1372 261.481C80.598 260.272 81.3852 259.148 82.4988 258.112C83.6124 257.075 85.1484 256.038 87.1068 255.001C88.0476 254.521 88.7964 254.08 89.3532 253.676C89.9292 253.254 90.342 252.822 90.5916 252.38C90.8412 251.939 90.966 251.401 90.966 250.768C90.966 250.115 90.822 249.558 90.534 249.097C90.2652 248.617 89.862 248.243 89.3244 247.974C88.7868 247.686 88.1052 247.542 87.2796 247.542C85.974 247.542 84.9372 247.897 84.1692 248.608C83.4204 249.299 82.95 250.297 82.758 251.603L79.5324 251.401C79.7628 249.347 80.5404 247.715 81.8652 246.505C83.2092 245.296 85.014 244.691 87.2796 244.691C88.7388 244.691 89.9772 244.95 90.9948 245.468C92.0316 245.968 92.8188 246.668 93.3564 247.571C93.9132 248.473 94.1916 249.52 94.1916 250.71C94.1916 251.747 94.0188 252.64 93.6732 253.388C93.3276 254.137 92.7516 254.838 91.9452 255.491C91.1388 256.124 90.0444 256.806 88.662 257.536C86.8956 258.476 85.5612 259.408 84.6588 260.329C83.7564 261.232 83.2764 262.038 83.2188 262.748H94.1916V265.6H79.446ZM97.097 265.6V261.971H100.812V265.6H97.097ZM111.162 266.06C109.472 266.06 108.003 265.628 106.755 264.764C105.507 263.9 104.547 262.672 103.875 261.078C103.203 259.484 102.867 257.593 102.867 255.404C102.867 253.216 103.203 251.324 103.875 249.731C104.567 248.118 105.527 246.88 106.755 246.016C108.003 245.132 109.472 244.691 111.162 244.691C112.871 244.691 114.339 245.132 115.568 246.016C116.816 246.88 117.776 248.108 118.448 249.702C119.139 251.296 119.485 253.196 119.485 255.404C119.485 257.593 119.149 259.484 118.477 261.078C117.805 262.672 116.845 263.9 115.597 264.764C114.349 265.628 112.871 266.06 111.162 266.06ZM111.162 263.209C112.794 263.209 114.051 262.537 114.935 261.193C115.818 259.849 116.259 257.92 116.259 255.404C116.259 253.715 116.058 252.284 115.655 251.113C115.271 249.942 114.695 249.059 113.927 248.464C113.178 247.849 112.256 247.542 111.162 247.542C110.087 247.542 109.165 247.849 108.397 248.464C107.648 249.059 107.072 249.942 106.669 251.113C106.285 252.284 106.093 253.715 106.093 255.404C106.093 257.92 106.535 259.849 107.418 261.193C108.301 262.537 109.549 263.209 111.162 263.209ZM130.596 266.06C128.907 266.06 127.438 265.628 126.19 264.764C124.942 263.9 123.982 262.672 123.31 261.078C122.638 259.484 122.302 257.593 122.302 255.404C122.302 253.216 122.638 251.324 123.31 249.731C124.001 248.118 124.961 246.88 126.19 246.016C127.438 245.132 128.907 244.691 130.596 244.691C132.305 244.691 133.774 245.132 135.003 246.016C136.251 246.88 137.211 248.108 137.883 249.702C138.574 251.296 138.919 253.196 138.919 255.404C138.919 257.593 138.583 259.484 137.911 261.078C137.239 262.672 136.279 263.9 135.031 264.764C133.783 265.628 132.305 266.06 130.596 266.06ZM130.596 263.209C132.228 263.209 133.486 262.537 134.369 261.193C135.252 259.849 135.694 257.92 135.694 255.404C135.694 253.715 135.492 252.284 135.089 251.113C134.705 249.942 134.129 249.059 133.361 248.464C132.612 247.849 131.691 247.542 130.596 247.542C129.521 247.542 128.599 247.849 127.831 248.464C127.083 249.059 126.507 249.942 126.103 251.113C125.719 252.284 125.527 253.715 125.527 255.404C125.527 257.92 125.969 259.849 126.852 261.193C127.735 262.537 128.983 263.209 130.596 263.209ZM155.392 265.945C153.952 265.945 152.733 265.724 151.734 265.283C150.755 264.841 149.997 264.236 149.459 263.468C148.922 262.681 148.614 261.779 148.538 260.761L151.677 260.617C151.83 261.462 152.195 262.134 152.771 262.633C153.347 263.132 154.221 263.382 155.392 263.382C156.352 263.382 157.11 263.228 157.667 262.921C158.224 262.614 158.502 262.124 158.502 261.452C158.502 261.088 158.406 260.78 158.214 260.531C158.042 260.262 157.696 260.041 157.178 259.868C156.659 259.676 155.891 259.494 154.874 259.321C153.357 259.033 152.166 258.697 151.302 258.313C150.438 257.929 149.824 257.44 149.459 256.844C149.094 256.249 148.912 255.529 148.912 254.684C148.912 253.283 149.43 252.14 150.467 251.257C151.523 250.374 153.04 249.932 155.018 249.932C156.342 249.932 157.456 250.163 158.358 250.624C159.261 251.065 159.962 251.67 160.461 252.438C160.979 253.187 161.306 254.032 161.44 254.972L158.301 255.145C158.205 254.608 158.013 254.147 157.725 253.763C157.456 253.36 157.091 253.052 156.63 252.841C156.17 252.611 155.622 252.496 154.989 252.496C154.01 252.496 153.28 252.688 152.8 253.072C152.32 253.456 152.08 253.955 152.08 254.569C152.08 255.03 152.186 255.404 152.397 255.692C152.627 255.98 152.992 256.22 153.491 256.412C153.99 256.585 154.653 256.739 155.478 256.873C157.072 257.142 158.32 257.478 159.222 257.881C160.125 258.265 160.758 258.745 161.123 259.321C161.488 259.897 161.67 260.598 161.67 261.424C161.67 262.384 161.402 263.2 160.864 263.872C160.326 264.544 159.587 265.062 158.646 265.427C157.706 265.772 156.621 265.945 155.392 265.945ZM164.76 269.92V250.278H167.64L167.726 253.561L167.381 253.388C167.765 252.256 168.398 251.401 169.281 250.825C170.165 250.23 171.182 249.932 172.334 249.932C173.832 249.932 175.061 250.307 176.021 251.056C177 251.785 177.72 252.755 178.181 253.964C178.661 255.174 178.901 256.499 178.901 257.939C178.901 259.379 178.661 260.704 178.181 261.913C177.72 263.123 177 264.102 176.021 264.851C175.061 265.58 173.832 265.945 172.334 265.945C171.566 265.945 170.846 265.811 170.174 265.542C169.502 265.273 168.926 264.899 168.446 264.419C167.985 263.92 167.659 263.334 167.467 262.662L167.813 262.316V269.92H164.76ZM171.787 263.296C173.016 263.296 173.976 262.825 174.667 261.884C175.378 260.944 175.733 259.628 175.733 257.939C175.733 256.249 175.378 254.934 174.667 253.993C173.976 253.052 173.016 252.582 171.787 252.582C170.981 252.582 170.28 252.784 169.685 253.187C169.089 253.571 168.629 254.166 168.302 254.972C167.976 255.779 167.813 256.768 167.813 257.939C167.813 259.11 167.966 260.099 168.273 260.905C168.6 261.712 169.061 262.316 169.656 262.72C170.27 263.104 170.981 263.296 171.787 263.296ZM188.308 265.945C186.81 265.945 185.514 265.619 184.42 264.966C183.345 264.313 182.509 263.382 181.914 262.172C181.338 260.963 181.05 259.552 181.05 257.939C181.05 256.326 181.338 254.924 181.914 253.734C182.509 252.524 183.345 251.593 184.42 250.94C185.495 250.268 186.762 249.932 188.221 249.932C189.604 249.932 190.823 250.259 191.879 250.912C192.935 251.545 193.751 252.467 194.327 253.676C194.922 254.886 195.22 256.345 195.22 258.054V258.832H184.218C184.295 260.329 184.689 261.452 185.399 262.201C186.129 262.95 187.108 263.324 188.337 263.324C189.239 263.324 189.988 263.113 190.583 262.691C191.178 262.268 191.591 261.702 191.821 260.992L194.989 261.193C194.586 262.614 193.789 263.766 192.599 264.649C191.428 265.513 189.997 265.945 188.308 265.945ZM184.218 256.528H191.994C191.898 255.164 191.505 254.156 190.813 253.504C190.141 252.851 189.277 252.524 188.221 252.524C187.127 252.524 186.225 252.87 185.514 253.561C184.823 254.233 184.391 255.222 184.218 256.528ZM198.313 265.6V250.278H201.107L201.222 254.368L200.847 254.166C201.02 253.168 201.347 252.361 201.827 251.747C202.307 251.132 202.892 250.681 203.583 250.393C204.275 250.086 205.023 249.932 205.83 249.932C206.982 249.932 207.932 250.192 208.681 250.71C209.449 251.209 210.025 251.9 210.409 252.784C210.812 253.648 211.014 254.636 211.014 255.75V265.6H207.961V256.672C207.961 255.769 207.865 255.011 207.673 254.396C207.481 253.782 207.164 253.312 206.723 252.985C206.281 252.659 205.705 252.496 204.995 252.496C203.919 252.496 203.046 252.851 202.374 253.561C201.702 254.272 201.366 255.308 201.366 256.672V265.6H198.313ZM220.107 265.6C218.648 265.6 217.573 265.264 216.881 264.592C216.19 263.92 215.845 262.873 215.845 261.452V246.678H218.897V261.222C218.897 261.932 219.051 262.422 219.358 262.691C219.665 262.96 220.136 263.094 220.769 263.094H222.958V265.6H220.107ZM213.512 252.784V250.278H222.958V252.784H213.512Z" fill="white"/>
<path d="M16.3208 292.267V290.721H24.4184V292.267H16.3208ZM19.5968 295.543V287.445H21.1424V295.543H19.5968ZM29.8046 297.911V282.943H31.0982V297.911H29.8046ZM30.5942 296.635C29.7318 296.635 28.9758 296.467 28.3262 296.131C27.6878 295.783 27.1782 295.302 26.7974 294.686C26.4166 294.07 26.1926 293.347 26.1254 292.519L27.9062 292.401C27.9846 292.972 28.1414 293.454 28.3766 293.846C28.6118 294.238 28.9198 294.535 29.3006 294.736C29.6814 294.927 30.1294 295.022 30.6446 295.022C31.171 295.022 31.6078 294.96 31.955 294.837C32.3022 294.703 32.5654 294.512 32.7446 294.266C32.9238 294.019 33.0134 293.723 33.0134 293.375C33.0134 293.017 32.9294 292.715 32.7614 292.468C32.6046 292.211 32.3022 291.981 31.8542 291.779C31.4062 291.578 30.7454 291.365 29.8718 291.141C29.0766 290.928 28.4214 290.676 27.9062 290.385C27.391 290.083 27.0102 289.719 26.7638 289.293C26.5286 288.867 26.411 288.369 26.411 287.798C26.411 287.115 26.5678 286.527 26.8814 286.034C27.2062 285.53 27.6654 285.143 28.259 284.875C28.8526 284.595 29.5694 284.455 30.4094 284.455C31.2382 284.455 31.9438 284.611 32.5262 284.925C33.1198 285.227 33.5846 285.659 33.9206 286.219C34.2678 286.779 34.4806 287.439 34.559 288.201L32.7782 288.302C32.7222 287.843 32.599 287.445 32.4086 287.109C32.2182 286.773 31.955 286.515 31.619 286.336C31.283 286.157 30.863 286.067 30.359 286.067C29.6646 286.067 29.1214 286.213 28.7294 286.504C28.3374 286.795 28.1414 287.199 28.1414 287.714C28.1414 288.061 28.2198 288.347 28.3766 288.571C28.5334 288.795 28.8078 288.996 29.1998 289.175C29.5918 289.343 30.1518 289.528 30.8798 289.73C31.843 289.987 32.6046 290.279 33.1646 290.603C33.7358 290.917 34.1446 291.298 34.391 291.746C34.6374 292.183 34.7606 292.726 34.7606 293.375C34.7606 294.025 34.587 294.596 34.2398 295.089C33.8926 295.582 33.4054 295.963 32.7782 296.231C32.1622 296.5 31.4342 296.635 30.5942 296.635ZM40.0629 296.399V287.899H37.0053V286.403H38.5173C38.9541 286.403 39.3069 286.342 39.5757 286.219C39.8445 286.084 40.0405 285.877 40.1637 285.597C40.2869 285.317 40.3485 284.942 40.3485 284.471H41.8269V296.399H40.0629ZM36.4173 296.399V294.736H44.6157V296.399H36.4173ZM49.6491 299.02L50.4555 296.399H49.4811V294.182H51.6987V296.164L50.6235 299.02H49.6491ZM60.6633 296.668C59.8457 296.668 59.1121 296.534 58.4625 296.265C57.8241 295.996 57.3201 295.599 56.9505 295.072C56.5809 294.546 56.3961 293.896 56.3961 293.123C56.3961 292.261 56.6537 291.544 57.1689 290.973C57.6953 290.402 58.3953 290.021 59.2689 289.831L59.3025 290.167C58.5969 289.987 58.0257 289.679 57.5889 289.243C57.1521 288.806 56.9337 288.218 56.9337 287.479C56.9337 286.851 57.0905 286.291 57.4041 285.799C57.7289 285.306 58.1713 284.919 58.7313 284.639C59.2913 284.348 59.9353 284.203 60.6633 284.203C61.3913 284.203 62.0353 284.348 62.5953 284.639C63.1665 284.919 63.6089 285.306 63.9225 285.799C64.2361 286.291 64.3929 286.851 64.3929 287.479C64.3929 288.218 64.1745 288.806 63.7377 289.243C63.3121 289.679 62.7409 289.987 62.0241 290.167L62.0577 289.831C62.9313 290.032 63.6257 290.419 64.1409 290.99C64.6673 291.55 64.9305 292.261 64.9305 293.123C64.9305 293.896 64.7457 294.546 64.3761 295.072C64.0065 295.599 63.5025 295.996 62.8641 296.265C62.2257 296.534 61.4921 296.668 60.6633 296.668ZM60.6633 295.022C61.3689 295.022 61.9513 294.859 62.4105 294.535C62.8697 294.199 63.0993 293.683 63.0993 292.989C63.0993 292.339 62.8921 291.824 62.4777 291.443C62.0745 291.051 61.4697 290.855 60.6633 290.855C59.8681 290.855 59.2633 291.051 58.8489 291.443C58.4345 291.824 58.2273 292.339 58.2273 292.989C58.2273 293.683 58.4569 294.199 58.9161 294.535C59.3753 294.859 59.9577 295.022 60.6633 295.022ZM60.6633 289.276C61.2345 289.276 61.6937 289.131 62.0409 288.839C62.3881 288.548 62.5617 288.111 62.5617 287.529C62.5617 287.014 62.3881 286.605 62.0409 286.303C61.7049 286 61.2457 285.849 60.6633 285.849C60.0809 285.849 59.6161 286 59.2689 286.303C58.9329 286.605 58.7649 287.014 58.7649 287.529C58.7649 288.111 58.9385 288.548 59.2857 288.839C59.6329 289.131 60.0921 289.276 60.6633 289.276ZM70.636 296.668C69.3256 296.668 68.3232 296.355 67.6288 295.727C66.9344 295.1 66.5592 294.277 66.5032 293.258L68.3008 293.14C68.368 293.823 68.6144 294.311 69.04 294.602C69.4768 294.882 70.0144 295.022 70.6528 295.022C71.0896 295.022 71.4984 294.955 71.8792 294.82C72.26 294.686 72.5624 294.473 72.7864 294.182C73.0216 293.891 73.1392 293.499 73.1392 293.006C73.1392 292.524 73.0328 292.127 72.82 291.813C72.6184 291.499 72.3272 291.27 71.9464 291.124C71.5768 290.967 71.1512 290.889 70.6696 290.889H69.7456V289.31H70.6696C71.0504 289.31 71.3976 289.254 71.7112 289.142C72.0248 289.03 72.2712 288.845 72.4504 288.587C72.6408 288.33 72.736 287.999 72.736 287.596C72.736 287.014 72.5568 286.577 72.1984 286.286C71.8512 285.995 71.3528 285.849 70.7032 285.849C70.0312 285.849 69.5216 285.989 69.1744 286.269C68.8384 286.549 68.6312 286.935 68.5528 287.428L66.7384 287.311C66.8616 286.381 67.2592 285.631 67.9312 285.059C68.6144 284.488 69.544 284.203 70.72 284.203C71.504 284.203 72.1816 284.337 72.7528 284.606C73.3352 284.863 73.7832 285.233 74.0968 285.715C74.4104 286.196 74.5672 286.773 74.5672 287.445C74.5672 288.184 74.332 288.783 73.8616 289.243C73.4024 289.691 72.7304 289.999 71.8456 290.167V289.847C72.8088 289.959 73.5704 290.307 74.1304 290.889C74.6904 291.46 74.9704 292.183 74.9704 293.056C74.9704 293.818 74.7856 294.467 74.416 295.005C74.0576 295.543 73.548 295.957 72.8872 296.248C72.2376 296.528 71.4872 296.668 70.636 296.668ZM82.0534 296.399V293.879H76.375V292.351L81.8686 284.471H83.8174V292.25H85.2454V293.879H83.8174V296.399H82.0534ZM78.1054 292.25H82.0534V286.823L78.1054 292.25ZM89.7413 296.399V294.182H92.0261V296.399H89.7413ZM100.991 296.668C100.072 296.668 99.2883 296.461 98.6387 296.047C98.0003 295.632 97.5131 295.027 97.1771 294.232C96.8523 293.426 96.6899 292.457 96.6899 291.326C96.6899 290.34 96.7739 289.416 96.9419 288.554C97.1099 287.691 97.3787 286.935 97.7483 286.286C98.1179 285.636 98.6051 285.127 99.2099 284.757C99.8147 284.387 100.559 284.203 101.444 284.203C102.183 284.203 102.799 284.326 103.292 284.572C103.796 284.807 104.199 285.143 104.502 285.58C104.815 286.017 105.051 286.515 105.207 287.075L103.393 287.227C103.281 286.812 103.074 286.482 102.771 286.235C102.48 285.978 102.038 285.849 101.444 285.849C100.839 285.849 100.319 286.023 99.8819 286.37C99.4563 286.717 99.1203 287.243 98.8739 287.949C98.6275 288.655 98.4931 289.556 98.4707 290.654L98.0339 290.587C98.1571 290.195 98.3643 289.831 98.6555 289.495C98.9579 289.159 99.3331 288.89 99.7811 288.688C100.229 288.475 100.744 288.369 101.327 288.369C102.122 288.369 102.805 288.537 103.376 288.873C103.959 289.198 104.412 289.668 104.737 290.284C105.062 290.889 105.224 291.595 105.224 292.401C105.224 293.286 105.045 294.047 104.687 294.686C104.328 295.313 103.835 295.8 103.208 296.147C102.581 296.495 101.842 296.668 100.991 296.668ZM100.991 295.005C101.73 295.005 102.312 294.781 102.738 294.333C103.175 293.885 103.393 293.252 103.393 292.435C103.393 291.673 103.191 291.074 102.788 290.637C102.385 290.189 101.831 289.965 101.125 289.965C100.621 289.965 100.173 290.066 99.7811 290.267C99.4003 290.469 99.0979 290.755 98.8739 291.124C98.6611 291.494 98.5547 291.931 98.5547 292.435C98.5547 292.927 98.6499 293.37 98.8403 293.762C99.0419 294.154 99.3275 294.462 99.6971 294.686C100.067 294.899 100.498 295.005 100.991 295.005ZM111.064 296.668C110.146 296.668 109.362 296.461 108.712 296.047C108.074 295.632 107.587 295.027 107.251 294.232C106.926 293.426 106.763 292.457 106.763 291.326C106.763 290.34 106.847 289.416 107.015 288.554C107.183 287.691 107.452 286.935 107.822 286.286C108.191 285.636 108.679 285.127 109.283 284.757C109.888 284.387 110.633 284.203 111.518 284.203C112.257 284.203 112.873 284.326 113.366 284.572C113.87 284.807 114.273 285.143 114.575 285.58C114.889 286.017 115.124 286.515 115.281 287.075L113.467 287.227C113.355 286.812 113.147 286.482 112.845 286.235C112.554 285.978 112.111 285.849 111.518 285.849C110.913 285.849 110.392 286.023 109.955 286.37C109.53 286.717 109.194 287.243 108.947 287.949C108.701 288.655 108.567 289.556 108.544 290.654L108.107 290.587C108.231 290.195 108.438 289.831 108.729 289.495C109.031 289.159 109.407 288.89 109.855 288.688C110.303 288.475 110.818 288.369 111.4 288.369C112.195 288.369 112.879 288.537 113.45 288.873C114.032 289.198 114.486 289.668 114.811 290.284C115.135 290.889 115.298 291.595 115.298 292.401C115.298 293.286 115.119 294.047 114.76 294.686C114.402 295.313 113.909 295.8 113.282 296.147C112.655 296.495 111.915 296.668 111.064 296.668ZM111.064 295.005C111.803 295.005 112.386 294.781 112.811 294.333C113.248 293.885 113.467 293.252 113.467 292.435C113.467 291.673 113.265 291.074 112.862 290.637C112.459 290.189 111.904 289.965 111.199 289.965C110.695 289.965 110.247 290.066 109.855 290.267C109.474 290.469 109.171 290.755 108.947 291.124C108.735 291.494 108.628 291.931 108.628 292.435C108.628 292.927 108.723 293.37 108.914 293.762C109.115 294.154 109.401 294.462 109.771 294.686C110.14 294.899 110.571 295.005 111.064 295.005Z" fill="#EC2222"/>
<path d="M129.049 298.247C128.276 297.071 127.694 295.879 127.302 294.669C126.921 293.459 126.731 292.244 126.731 291.023C126.731 288.548 127.504 286.14 129.049 283.799H130.628C129.228 286.219 128.528 288.627 128.528 291.023C128.528 292.222 128.702 293.426 129.049 294.635C129.408 295.834 129.934 297.038 130.628 298.247H129.049ZM134.704 292.267V290.721H142.802V292.267H134.704ZM137.98 295.543V287.445H139.526V295.543H137.98ZM150.07 296.399V293.879H144.391V292.351L149.885 284.471H151.834V292.25H153.262V293.879H151.834V296.399H150.07ZM146.122 292.25H150.07V286.823L146.122 292.25ZM157.758 296.399V294.182H160.042V296.399H157.758ZM168.94 284.203C169.858 284.203 170.637 284.41 171.275 284.824C171.925 285.239 172.412 285.843 172.737 286.639C173.073 287.434 173.241 288.403 173.241 289.545C173.241 290.531 173.157 291.455 172.989 292.317C172.821 293.179 172.552 293.935 172.182 294.585C171.813 295.235 171.325 295.744 170.721 296.114C170.116 296.483 169.371 296.668 168.486 296.668C167.747 296.668 167.125 296.551 166.621 296.315C166.129 296.069 165.725 295.727 165.412 295.291C165.109 294.854 164.88 294.355 164.723 293.795L166.537 293.644C166.661 294.059 166.868 294.395 167.159 294.652C167.461 294.899 167.904 295.022 168.486 295.022C169.091 295.022 169.612 294.848 170.049 294.501C170.485 294.154 170.821 293.627 171.057 292.922C171.303 292.216 171.437 291.315 171.46 290.217L171.897 290.284C171.785 290.676 171.577 291.04 171.275 291.376C170.973 291.712 170.597 291.987 170.149 292.199C169.701 292.401 169.186 292.502 168.604 292.502C167.82 292.502 167.137 292.339 166.554 292.015C165.972 291.679 165.518 291.208 165.193 290.603C164.869 289.987 164.706 289.276 164.706 288.47C164.706 287.585 164.885 286.829 165.244 286.202C165.602 285.563 166.095 285.071 166.722 284.723C167.361 284.376 168.1 284.203 168.94 284.203ZM168.94 285.866C168.201 285.866 167.613 286.09 167.176 286.538C166.75 286.986 166.537 287.619 166.537 288.436C166.537 289.187 166.739 289.786 167.142 290.234C167.557 290.682 168.111 290.906 168.805 290.906C169.309 290.906 169.752 290.805 170.133 290.603C170.525 290.402 170.827 290.116 171.04 289.747C171.264 289.377 171.376 288.94 171.376 288.436C171.376 287.943 171.275 287.501 171.073 287.109C170.883 286.717 170.603 286.415 170.233 286.202C169.875 285.978 169.444 285.866 168.94 285.866ZM176.577 290.251C175.894 290.251 175.317 289.999 174.847 289.495C174.376 288.991 174.141 288.257 174.141 287.294C174.141 286.319 174.376 285.586 174.847 285.093C175.317 284.589 175.894 284.337 176.577 284.337C177.272 284.337 177.848 284.589 178.308 285.093C178.778 285.586 179.013 286.319 179.013 287.294C179.013 288.257 178.778 288.991 178.308 289.495C177.848 289.999 177.272 290.251 176.577 290.251ZM176.577 289.125C176.913 289.125 177.176 288.968 177.367 288.655C177.568 288.341 177.669 287.887 177.669 287.294C177.669 286.7 177.568 286.247 177.367 285.933C177.176 285.619 176.913 285.463 176.577 285.463C176.241 285.463 175.972 285.619 175.771 285.933C175.58 286.247 175.485 286.7 175.485 287.294C175.485 287.887 175.58 288.341 175.771 288.655C175.972 288.968 176.241 289.125 176.577 289.125ZM174.83 296.399L181.903 284.471H183.264L176.191 296.399H174.83ZM181.516 296.534C180.822 296.534 180.24 296.282 179.769 295.778C179.31 295.274 179.08 294.54 179.08 293.577C179.08 292.603 179.31 291.869 179.769 291.376C180.24 290.872 180.822 290.62 181.516 290.62C182.2 290.62 182.776 290.872 183.247 291.376C183.717 291.869 183.952 292.603 183.952 293.577C183.952 294.54 183.717 295.274 183.247 295.778C182.776 296.282 182.2 296.534 181.516 296.534ZM181.516 295.408C181.852 295.408 182.116 295.251 182.306 294.938C182.508 294.624 182.608 294.171 182.608 293.577C182.608 292.983 182.508 292.53 182.306 292.216C182.116 291.903 181.852 291.746 181.516 291.746C181.18 291.746 180.912 291.903 180.71 292.216C180.52 292.53 180.424 292.983 180.424 293.577C180.424 294.171 180.52 294.624 180.71 294.938C180.912 295.251 181.18 295.408 181.516 295.408ZM188.751 298.247H187.172C187.866 297.038 188.387 295.834 188.734 294.635C189.092 293.426 189.272 292.222 189.272 291.023C189.272 288.627 188.572 286.219 187.172 283.799H188.751C190.296 286.14 191.069 288.548 191.069 291.023C191.069 292.244 190.873 293.459 190.481 294.669C190.1 295.879 189.524 297.071 188.751 298.247Z" fill="#EC2222"/>
<path d="M205.551 296.399L202.308 287.495H203.854L206.441 294.955L209.028 287.495H210.574L207.331 296.399H205.551ZM215.089 296.601C214.294 296.601 213.616 296.472 213.056 296.215C212.507 295.957 212.076 295.604 211.763 295.156C211.46 294.697 211.287 294.176 211.242 293.594L212.72 293.493C212.81 294.031 213.039 294.462 213.409 294.787C213.779 295.1 214.339 295.257 215.089 295.257C215.694 295.257 216.175 295.162 216.534 294.971C216.903 294.77 217.088 294.451 217.088 294.014C217.088 293.779 217.032 293.583 216.92 293.426C216.808 293.269 216.59 293.135 216.265 293.023C215.94 292.899 215.459 292.782 214.82 292.67C213.969 292.513 213.297 292.323 212.804 292.099C212.323 291.863 211.975 291.578 211.763 291.242C211.561 290.895 211.46 290.486 211.46 290.015C211.46 289.22 211.751 288.571 212.334 288.067C212.916 287.551 213.745 287.294 214.82 287.294C215.548 287.294 216.159 287.428 216.651 287.697C217.155 287.955 217.547 288.302 217.827 288.739C218.119 289.164 218.309 289.635 218.399 290.15L216.92 290.251C216.853 289.937 216.73 289.663 216.551 289.427C216.371 289.181 216.136 288.991 215.845 288.856C215.554 288.711 215.207 288.638 214.803 288.638C214.165 288.638 213.695 288.761 213.392 289.007C213.09 289.254 212.939 289.567 212.939 289.948C212.939 290.239 213.006 290.48 213.14 290.671C213.286 290.85 213.515 291.001 213.829 291.124C214.143 291.236 214.563 291.337 215.089 291.427C215.996 291.583 216.702 291.774 217.206 291.998C217.71 292.222 218.063 292.496 218.264 292.821C218.466 293.146 218.567 293.543 218.567 294.014C218.567 294.563 218.41 295.033 218.096 295.425C217.794 295.806 217.379 296.097 216.853 296.299C216.338 296.5 215.75 296.601 215.089 296.601ZM224.857 298.919V287.495H226.167L226.201 289.411L225.999 289.31C226.223 288.649 226.593 288.151 227.108 287.815C227.634 287.467 228.239 287.294 228.922 287.294C229.807 287.294 230.53 287.512 231.09 287.949C231.661 288.386 232.081 288.957 232.35 289.663C232.63 290.368 232.77 291.13 232.77 291.947C232.77 292.765 232.63 293.527 232.35 294.232C232.081 294.938 231.661 295.509 231.09 295.946C230.53 296.383 229.807 296.601 228.922 296.601C228.463 296.601 228.032 296.523 227.629 296.366C227.237 296.209 226.901 295.991 226.621 295.711C226.352 295.431 226.167 295.1 226.066 294.719L226.268 294.484V298.919H224.857ZM228.788 295.257C229.561 295.257 230.171 294.966 230.619 294.383C231.067 293.801 231.291 292.989 231.291 291.947C231.291 290.906 231.067 290.094 230.619 289.511C230.171 288.929 229.561 288.638 228.788 288.638C228.273 288.638 227.825 288.761 227.444 289.007C227.074 289.254 226.783 289.623 226.57 290.116C226.369 290.609 226.268 291.219 226.268 291.947C226.268 292.675 226.369 293.286 226.57 293.779C226.772 294.271 227.063 294.641 227.444 294.887C227.825 295.134 228.273 295.257 228.788 295.257ZM237.316 296.601C236.398 296.601 235.664 296.388 235.115 295.963C234.578 295.537 234.309 294.943 234.309 294.182C234.309 293.42 234.533 292.821 234.981 292.384C235.429 291.947 236.14 291.639 237.115 291.46L240.273 290.872C240.273 290.122 240.094 289.562 239.735 289.192C239.388 288.823 238.862 288.638 238.156 288.638C237.54 288.638 237.053 288.778 236.695 289.058C236.336 289.327 236.09 289.719 235.955 290.234L234.46 290.116C234.628 289.276 235.031 288.599 235.67 288.083C236.319 287.557 237.148 287.294 238.156 287.294C239.299 287.294 240.172 287.619 240.777 288.268C241.382 288.907 241.684 289.791 241.684 290.923V294.602C241.684 294.803 241.718 294.949 241.785 295.039C241.863 295.117 241.987 295.156 242.155 295.156H242.507V296.399C242.463 296.411 242.39 296.416 242.289 296.416C242.188 296.427 242.082 296.433 241.97 296.433C241.567 296.433 241.236 296.371 240.979 296.248C240.732 296.114 240.553 295.912 240.441 295.643C240.329 295.363 240.273 294.999 240.273 294.551L240.441 294.585C240.363 294.966 240.172 295.313 239.87 295.627C239.567 295.929 239.192 296.17 238.744 296.349C238.296 296.517 237.82 296.601 237.316 296.601ZM237.451 295.358C238.044 295.358 238.548 295.246 238.963 295.022C239.388 294.787 239.713 294.473 239.937 294.081C240.161 293.678 240.273 293.23 240.273 292.737V292.099L237.383 292.636C236.779 292.748 236.359 292.922 236.123 293.157C235.899 293.381 235.787 293.678 235.787 294.047C235.787 294.462 235.933 294.787 236.224 295.022C236.527 295.246 236.935 295.358 237.451 295.358ZM247.311 296.601C246.516 296.601 245.838 296.472 245.278 296.215C244.729 295.957 244.298 295.604 243.985 295.156C243.682 294.697 243.509 294.176 243.464 293.594L244.942 293.493C245.032 294.031 245.261 294.462 245.631 294.787C246.001 295.1 246.561 295.257 247.311 295.257C247.916 295.257 248.397 295.162 248.756 294.971C249.125 294.77 249.31 294.451 249.31 294.014C249.31 293.779 249.254 293.583 249.142 293.426C249.03 293.269 248.812 293.135 248.487 293.023C248.162 292.899 247.681 292.782 247.042 292.67C246.191 292.513 245.519 292.323 245.026 292.099C244.545 291.863 244.197 291.578 243.985 291.242C243.783 290.895 243.682 290.486 243.682 290.015C243.682 289.22 243.973 288.571 244.556 288.067C245.138 287.551 245.967 287.294 247.042 287.294C247.77 287.294 248.381 287.428 248.873 287.697C249.377 287.955 249.769 288.302 250.049 288.739C250.341 289.164 250.531 289.635 250.621 290.15L249.142 290.251C249.075 289.937 248.952 289.663 248.773 289.427C248.593 289.181 248.358 288.991 248.067 288.856C247.776 288.711 247.429 288.638 247.025 288.638C246.387 288.638 245.917 288.761 245.614 289.007C245.312 289.254 245.161 289.567 245.161 289.948C245.161 290.239 245.228 290.48 245.362 290.671C245.508 290.85 245.737 291.001 246.051 291.124C246.365 291.236 246.785 291.337 247.311 291.427C248.218 291.583 248.924 291.774 249.428 291.998C249.932 292.222 250.285 292.496 250.486 292.821C250.688 293.146 250.789 293.543 250.789 294.014C250.789 294.563 250.632 295.033 250.318 295.425C250.016 295.806 249.601 296.097 249.075 296.299C248.56 296.5 247.972 296.601 247.311 296.601ZM255.629 296.399C254.823 296.399 254.224 296.215 253.832 295.845C253.451 295.475 253.261 294.899 253.261 294.115V285.412H254.672V294.081C254.672 294.484 254.761 294.764 254.941 294.921C255.12 295.078 255.394 295.156 255.764 295.156H257.041V296.399H255.629ZM251.95 288.739V287.495H257.041V288.739H251.95ZM266.862 296.668C265.54 296.668 264.521 296.36 263.804 295.744C263.087 295.117 262.701 294.311 262.645 293.325L264.14 293.224C264.207 293.952 264.487 294.473 264.98 294.787C265.484 295.1 266.111 295.257 266.862 295.257C267.377 295.257 267.853 295.19 268.29 295.055C268.727 294.91 269.079 294.68 269.348 294.367C269.617 294.042 269.751 293.611 269.751 293.073C269.751 292.278 269.488 291.695 268.962 291.326C268.435 290.956 267.741 290.771 266.879 290.771H265.938V289.36H266.879C267.584 289.36 268.167 289.22 268.626 288.94C269.096 288.66 269.331 288.179 269.331 287.495C269.331 286.879 269.13 286.415 268.727 286.101C268.335 285.776 267.741 285.614 266.946 285.614C266.162 285.614 265.568 285.765 265.165 286.067C264.773 286.37 264.538 286.784 264.459 287.311L262.947 287.21C263.059 286.314 263.457 285.591 264.14 285.043C264.823 284.483 265.759 284.203 266.946 284.203C267.752 284.203 268.447 284.337 269.029 284.606C269.611 284.863 270.059 285.233 270.373 285.715C270.687 286.196 270.843 286.767 270.843 287.428C270.843 288.167 270.608 288.767 270.138 289.226C269.679 289.674 268.995 289.982 268.088 290.15V289.847C269.063 289.959 269.835 290.307 270.407 290.889C270.978 291.471 271.263 292.199 271.263 293.073C271.263 293.835 271.073 294.484 270.692 295.022C270.323 295.559 269.807 295.968 269.147 296.248C268.486 296.528 267.724 296.668 266.862 296.668ZM277.652 296.399V287.495H278.946L278.996 289.747L278.795 289.679C278.895 289.187 279.069 288.767 279.315 288.419C279.573 288.061 279.887 287.787 280.256 287.596C280.626 287.395 281.035 287.294 281.483 287.294C282.255 287.294 282.883 287.507 283.364 287.932C283.857 288.358 284.165 288.951 284.288 289.713L284.019 289.696C284.109 289.181 284.271 288.75 284.507 288.403C284.753 288.044 285.067 287.77 285.447 287.579C285.828 287.389 286.265 287.294 286.758 287.294C287.396 287.294 287.934 287.428 288.371 287.697C288.807 287.955 289.138 288.335 289.362 288.839C289.586 289.343 289.698 289.954 289.698 290.671V296.399H288.287V290.973C288.287 290.167 288.13 289.562 287.816 289.159C287.503 288.744 287.038 288.537 286.422 288.537C286.007 288.537 285.643 288.638 285.33 288.839C285.027 289.041 284.792 289.332 284.624 289.713C284.456 290.083 284.372 290.536 284.372 291.074V296.399H282.961V291.074C282.961 290.279 282.821 289.657 282.541 289.209C282.261 288.761 281.791 288.537 281.13 288.537C280.715 288.537 280.351 288.638 280.038 288.839C279.735 289.041 279.495 289.332 279.315 289.713C279.147 290.094 279.063 290.547 279.063 291.074V296.399H277.652ZM295.666 296.601C294.848 296.601 294.131 296.411 293.515 296.03C292.899 295.649 292.423 295.111 292.087 294.417C291.751 293.711 291.583 292.888 291.583 291.947C291.583 290.995 291.751 290.172 292.087 289.478C292.423 288.783 292.899 288.246 293.515 287.865C294.131 287.484 294.848 287.294 295.666 287.294C296.483 287.294 297.194 287.484 297.799 287.865C298.415 288.246 298.891 288.783 299.227 289.478C299.563 290.172 299.731 290.995 299.731 291.947C299.731 292.888 299.563 293.711 299.227 294.417C298.891 295.111 298.415 295.649 297.799 296.03C297.194 296.411 296.483 296.601 295.666 296.601ZM295.666 295.257C296.483 295.257 297.116 294.966 297.564 294.383C298.023 293.79 298.253 292.978 298.253 291.947C298.253 290.917 298.023 290.111 297.564 289.528C297.116 288.935 296.483 288.638 295.666 288.638C294.848 288.638 294.21 288.935 293.75 289.528C293.291 290.111 293.062 290.917 293.062 291.947C293.062 292.978 293.291 293.79 293.75 294.383C294.21 294.966 294.848 295.257 295.666 295.257ZM301.654 296.399V287.495H302.948L302.998 289.763L302.83 289.612C302.942 289.086 303.138 288.655 303.418 288.319C303.698 287.971 304.034 287.714 304.426 287.546C304.83 287.378 305.261 287.294 305.72 287.294C306.403 287.294 306.963 287.445 307.4 287.747C307.848 288.05 308.178 288.459 308.391 288.974C308.615 289.478 308.727 290.043 308.727 290.671V296.399H307.316V291.074C307.316 290.525 307.249 290.066 307.114 289.696C306.991 289.315 306.79 289.03 306.51 288.839C306.23 288.638 305.866 288.537 305.418 288.537C304.734 288.537 304.169 288.755 303.721 289.192C303.284 289.618 303.066 290.245 303.066 291.074V296.399H301.654ZM314.003 296.399C313.196 296.399 312.597 296.215 312.205 295.845C311.824 295.475 311.634 294.899 311.634 294.115V285.412H313.045V294.081C313.045 294.484 313.135 294.764 313.314 294.921C313.493 295.078 313.768 295.156 314.137 295.156H315.414V296.399H314.003ZM310.324 288.739V287.495H315.414V288.739H310.324ZM317.224 296.399V284.471H318.635V289.461L318.467 289.427C318.579 288.935 318.77 288.531 319.038 288.218C319.307 287.904 319.638 287.675 320.03 287.529C320.422 287.372 320.853 287.294 321.323 287.294C321.962 287.294 322.499 287.439 322.936 287.731C323.384 288.011 323.72 288.408 323.944 288.923C324.179 289.427 324.297 290.01 324.297 290.671V296.399H322.886V291.074C322.886 290.211 322.729 289.573 322.415 289.159C322.113 288.744 321.648 288.537 321.021 288.537C320.304 288.537 319.727 288.755 319.29 289.192C318.854 289.629 318.635 290.262 318.635 291.091V296.399H317.224ZM330.031 296.601C329.236 296.601 328.558 296.472 327.998 296.215C327.45 295.957 327.018 295.604 326.705 295.156C326.402 294.697 326.229 294.176 326.184 293.594L327.662 293.493C327.752 294.031 327.982 294.462 328.351 294.787C328.721 295.1 329.281 295.257 330.031 295.257C330.636 295.257 331.118 295.162 331.476 294.971C331.846 294.77 332.03 294.451 332.03 294.014C332.03 293.779 331.974 293.583 331.862 293.426C331.75 293.269 331.532 293.135 331.207 293.023C330.882 292.899 330.401 292.782 329.762 292.67C328.911 292.513 328.239 292.323 327.746 292.099C327.265 291.863 326.918 291.578 326.705 291.242C326.503 290.895 326.402 290.486 326.402 290.015C326.402 289.22 326.694 288.571 327.276 288.067C327.858 287.551 328.687 287.294 329.762 287.294C330.49 287.294 331.101 287.428 331.594 287.697C332.098 287.955 332.49 288.302 332.77 288.739C333.061 289.164 333.251 289.635 333.341 290.15L331.862 290.251C331.795 289.937 331.672 289.663 331.493 289.427C331.314 289.181 331.078 288.991 330.787 288.856C330.496 288.711 330.149 288.638 329.746 288.638C329.107 288.638 328.637 288.761 328.334 289.007C328.032 289.254 327.881 289.567 327.881 289.948C327.881 290.239 327.948 290.48 328.082 290.671C328.228 290.85 328.458 291.001 328.771 291.124C329.085 291.236 329.505 291.337 330.031 291.427C330.938 291.583 331.644 291.774 332.148 291.998C332.652 292.222 333.005 292.496 333.206 292.821C333.408 293.146 333.509 293.543 333.509 294.014C333.509 294.563 333.352 295.033 333.038 295.425C332.736 295.806 332.322 296.097 331.795 296.299C331.28 296.5 330.692 296.601 330.031 296.601Z" fill="#737373"/>
</g>
<path d="M15.1973 0.599609H351.197C358.819 0.59984 364.997 6.779 364.997 14.4004V307.2C364.997 314.821 358.819 321 351.197 321H15.1973C7.5758 321 1.39658 314.822 1.39648 307.2V14.4004C1.39648 6.77886 7.57574 0.599609 15.1973 0.599609Z" stroke="white" stroke-opacity="0.06" stroke-width="1.2"/>
<defs>
<linearGradient id="paint0_linear_2031_1768" x1="183.594" y1="44.7309" x2="183.594" y2="277.255" gradientUnits="userSpaceOnUse">
<stop stop-color="#1C1C1C"/>
<stop offset="1" stop-color="#121212"/>
</linearGradient>
<linearGradient id="paint1_linear_2031_1768" x1="192.797" y1="43.2002" x2="192.797" y2="99.3387" gradientUnits="userSpaceOnUse">
<stop stop-color="#EC2222"/>
<stop offset="0.0666667" stop-color="#EB2324"/>
<stop offset="0.133333" stop-color="#E9262A"/>
<stop offset="0.2" stop-color="#E62B34"/>
<stop offset="0.266667" stop-color="#E13142"/>
<stop offset="0.333333" stop-color="#DB3A54"/>
<stop offset="0.4" stop-color="#D4456A"/>
<stop offset="0.466667" stop-color="#CC5082"/>
<stop offset="0.533333" stop-color="#C45C9B"/>
<stop offset="0.6" stop-color="#BC68B3"/>
<stop offset="0.666667" stop-color="#B572C9"/>
<stop offset="0.733333" stop-color="#AF7BDB"/>
<stop offset="0.8" stop-color="#AA82E9"/>
<stop offset="0.866667" stop-color="#A787F3"/>
<stop offset="0.933333" stop-color="#A589F9"/>
<stop offset="1" stop-color="#A48AFB"/>
</linearGradient>
<clipPath id="clip0_2031_1768">
<path d="M0.796875 14.4C0.796875 6.44711 7.24397 0 15.1969 0H351.197C359.15 0 365.597 6.4471 365.597 14.4V307.2C365.597 315.153 359.15 321.6 351.197 321.6H15.1969C7.24398 321.6 0.796875 315.153 0.796875 307.2V14.4Z" fill="white"/>
</clipPath>
</defs>
</svg>
