<svg width="423" height="403" viewBox="0 0 423 403" fill="none" xmlns="http://www.w3.org/2000/svg">
<g filter="url(#filter0_d_2031_1797)">
<g clip-path="url(#clip0_2031_1797)">
<path d="M27.5938 36.4C27.5938 28.4471 34.0409 22 41.9938 22H380.394C388.347 22 394.794 28.4471 394.794 36.4V354.8C394.794 362.753 388.347 369.2 380.394 369.2H41.9937C34.0408 369.2 27.5938 362.753 27.5938 354.8V36.4Z" fill="#171717"/>
<path d="M27.5938 36.4C27.5938 28.4471 34.0409 22 41.9938 22H380.394C388.347 22 394.794 28.4471 394.794 36.4V354.8C394.794 362.753 388.347 369.2 380.394 369.2H41.9937C34.0408 369.2 27.5938 362.753 27.5938 354.8V36.4Z" fill="url(#paint0_linear_2031_1797)"/>
<path d="M27.5938 36.4C27.5938 28.4471 34.0409 22 41.9938 22H380.394C388.347 22 394.794 28.4471 394.794 36.4V354.8C394.794 362.753 388.347 369.2 380.394 369.2H41.9937C34.0408 369.2 27.5938 362.753 27.5938 354.8V36.4Z" fill="url(#paint1_linear_2031_1797)"/>
<path d="M27.5938 36.4C27.5938 28.4471 34.0409 22 41.9938 22H380.394C388.347 22 394.794 28.4471 394.794 36.4V354.8C394.794 362.753 388.347 369.2 380.394 369.2H41.9937C34.0408 369.2 27.5938 362.753 27.5938 354.8V36.4Z" fill="white" fill-opacity="0.02"/>
<path d="M85.0937 53.2C85.0937 57.1764 81.8702 60.4 77.8937 60.4C73.9173 60.4 70.6937 57.1764 70.6937 53.2C70.6937 49.2235 73.9173 46 77.8937 46C81.8702 46 85.0937 49.2235 85.0937 53.2ZM72.8537 53.2C72.8537 55.9835 75.1102 58.24 77.8937 58.24C80.6772 58.24 82.9337 55.9835 82.9337 53.2C82.9337 50.4165 80.6772 48.16 77.8937 48.16C75.1102 48.16 72.8537 50.4165 72.8537 53.2Z" fill="#CCFF00"/>
<path d="M93.9711 59.2002V47.2722H98.4903C99.3303 47.2722 100.053 47.4178 100.657 47.709C101.262 48.0002 101.727 48.4202 102.052 48.969C102.388 49.5066 102.556 50.145 102.556 50.8842C102.556 51.4218 102.427 51.9034 102.169 52.329C101.923 52.7434 101.604 53.0738 101.212 53.3202C100.82 53.5666 100.411 53.701 99.9855 53.7234L99.8847 53.5722C100.613 53.5722 101.184 53.7402 101.598 54.0762C102.024 54.4122 102.27 54.9498 102.337 55.689L102.673 59.2002H101.212L100.909 55.8402C100.865 55.3474 100.685 54.9834 100.372 54.7482C100.069 54.513 99.5711 54.3954 98.8767 54.3954H95.4159V59.2002H93.9711ZM95.4159 52.9842H98.6751C99.4031 52.9842 99.9799 52.7994 100.405 52.4298C100.831 52.0602 101.044 51.5338 101.044 50.8506C101.044 50.1562 100.825 49.6242 100.389 49.2546C99.9519 48.8738 99.3191 48.6834 98.4903 48.6834H95.4159V52.9842ZM108.338 59.4018C107.52 59.4018 106.803 59.2114 106.187 58.8306C105.571 58.4498 105.095 57.9122 104.759 57.2178C104.423 56.5122 104.255 55.689 104.255 54.7482C104.255 53.7962 104.423 52.973 104.759 52.2786C105.095 51.5842 105.571 51.0466 106.187 50.6658C106.803 50.285 107.52 50.0946 108.338 50.0946C109.155 50.0946 109.866 50.285 110.471 50.6658C111.087 51.0466 111.563 51.5842 111.899 52.2786C112.235 52.973 112.403 53.7962 112.403 54.7482C112.403 55.689 112.235 56.5122 111.899 57.2178C111.563 57.9122 111.087 58.4498 110.471 58.8306C109.866 59.2114 109.155 59.4018 108.338 59.4018ZM108.338 58.0578C109.155 58.0578 109.788 57.7666 110.236 57.1842C110.695 56.5906 110.925 55.7786 110.925 54.7482C110.925 53.7178 110.695 52.9114 110.236 52.329C109.788 51.7354 109.155 51.4386 108.338 51.4386C107.52 51.4386 106.882 51.7354 106.422 52.329C105.963 52.9114 105.734 53.7178 105.734 54.7482C105.734 55.7786 105.963 56.5906 106.422 57.1842C106.882 57.7666 107.52 58.0578 108.338 58.0578ZM118.409 59.4018C117.793 59.4018 117.244 59.2674 116.762 58.9986C116.281 58.7186 115.911 58.3378 115.654 57.8562L115.603 59.2002H114.326V47.2722H115.738V51.5394C115.962 51.1698 116.309 50.8394 116.779 50.5482C117.25 50.2458 117.793 50.0946 118.409 50.0946C119.193 50.0946 119.87 50.285 120.442 50.6658C121.013 51.0466 121.455 51.5842 121.769 52.2786C122.082 52.973 122.239 53.7962 122.239 54.7482C122.239 55.7002 122.082 56.5234 121.769 57.2178C121.455 57.9122 121.013 58.4498 120.442 58.8306C119.87 59.2114 119.193 59.4018 118.409 59.4018ZM118.325 58.0578C119.075 58.0578 119.669 57.761 120.106 57.1674C120.542 56.5738 120.761 55.7674 120.761 54.7482C120.761 53.7178 120.542 52.9114 120.106 52.329C119.669 51.7354 119.086 51.4386 118.358 51.4386C117.81 51.4386 117.339 51.573 116.947 51.8418C116.555 52.0994 116.253 52.4746 116.04 52.9674C115.838 53.4602 115.738 54.0538 115.738 54.7482C115.738 55.4202 115.838 56.0082 116.04 56.5122C116.253 57.005 116.55 57.3858 116.93 57.6546C117.322 57.9234 117.787 58.0578 118.325 58.0578ZM124.154 59.2002V50.2962H125.565V59.2002H124.154ZM124.12 48.9018V47.2554H125.599V48.9018H124.12ZM128.419 59.2002V50.2962H129.713L129.763 52.5642L129.595 52.413C129.707 51.8866 129.903 51.4554 130.183 51.1194C130.463 50.7722 130.799 50.5146 131.191 50.3466C131.595 50.1786 132.026 50.0946 132.485 50.0946C133.168 50.0946 133.728 50.2458 134.165 50.5482C134.613 50.8506 134.943 51.2594 135.156 51.7746C135.38 52.2786 135.492 52.8442 135.492 53.4714V59.2002H134.081V53.8746C134.081 53.3258 134.014 52.8666 133.879 52.497C133.756 52.1162 133.555 51.8306 133.275 51.6402C132.995 51.4386 132.631 51.3378 132.183 51.3378C131.499 51.3378 130.934 51.5562 130.486 51.993C130.049 52.4186 129.831 53.0458 129.831 53.8746V59.2002H128.419ZM138.017 59.2002V47.2722H139.428V52.2618L139.26 52.2282C139.372 51.7354 139.563 51.3322 139.832 51.0186C140.1 50.705 140.431 50.4754 140.823 50.3298C141.215 50.173 141.646 50.0946 142.116 50.0946C142.755 50.0946 143.292 50.2402 143.729 50.5314C144.177 50.8114 144.513 51.209 144.737 51.7242C144.972 52.2282 145.09 52.8106 145.09 53.4714V59.2002H143.679V53.8746C143.679 53.0122 143.522 52.3738 143.208 51.9594C142.906 51.545 142.441 51.3378 141.814 51.3378C141.097 51.3378 140.52 51.5562 140.084 51.993C139.647 52.4298 139.428 53.0626 139.428 53.8914V59.2002H138.017ZM151.06 59.4018C150.242 59.4018 149.525 59.2114 148.909 58.8306C148.293 58.4498 147.817 57.9122 147.481 57.2178C147.145 56.5122 146.977 55.689 146.977 54.7482C146.977 53.7962 147.145 52.973 147.481 52.2786C147.817 51.5842 148.293 51.0466 148.909 50.6658C149.525 50.285 150.242 50.0946 151.06 50.0946C151.877 50.0946 152.588 50.285 153.193 50.6658C153.809 51.0466 154.285 51.5842 154.621 52.2786C154.957 52.973 155.125 53.7962 155.125 54.7482C155.125 55.689 154.957 56.5122 154.621 57.2178C154.285 57.9122 153.809 58.4498 153.193 58.8306C152.588 59.2114 151.877 59.4018 151.06 59.4018ZM151.06 58.0578C151.877 58.0578 152.51 57.7666 152.958 57.1842C153.417 56.5906 153.647 55.7786 153.647 54.7482C153.647 53.7178 153.417 52.9114 152.958 52.329C152.51 51.7354 151.877 51.4386 151.06 51.4386C150.242 51.4386 149.604 51.7354 149.144 52.329C148.685 52.9114 148.456 53.7178 148.456 54.7482C148.456 55.7786 148.685 56.5906 149.144 57.1842C149.604 57.7666 150.242 58.0578 151.06 58.0578ZM160.526 59.4018C159.708 59.4018 158.992 59.2114 158.376 58.8306C157.76 58.4498 157.284 57.9122 156.948 57.2178C156.612 56.5122 156.444 55.689 156.444 54.7482C156.444 53.7962 156.612 52.973 156.948 52.2786C157.284 51.5842 157.76 51.0466 158.376 50.6658C158.992 50.285 159.708 50.0946 160.526 50.0946C161.344 50.0946 162.055 50.285 162.66 50.6658C163.276 51.0466 163.752 51.5842 164.088 52.2786C164.424 52.973 164.592 53.7962 164.592 54.7482C164.592 55.689 164.424 56.5122 164.088 57.2178C163.752 57.9122 163.276 58.4498 162.66 58.8306C162.055 59.2114 161.344 59.4018 160.526 59.4018ZM160.526 58.0578C161.344 58.0578 161.976 57.7666 162.424 57.1842C162.884 56.5906 163.113 55.7786 163.113 54.7482C163.113 53.7178 162.884 52.9114 162.424 52.329C161.976 51.7354 161.344 51.4386 160.526 51.4386C159.708 51.4386 159.07 51.7354 158.611 52.329C158.152 52.9114 157.922 53.7178 157.922 54.7482C157.922 55.7786 158.152 56.5906 158.611 57.1842C159.07 57.7666 159.708 58.0578 160.526 58.0578ZM169.673 59.4018C168.9 59.4018 168.228 59.2114 167.657 58.8306C167.097 58.4498 166.666 57.9122 166.364 57.2178C166.061 56.5234 165.91 55.7002 165.91 54.7482C165.91 53.7962 166.061 52.973 166.364 52.2786C166.666 51.5842 167.097 51.0466 167.657 50.6658C168.228 50.285 168.9 50.0946 169.673 50.0946C170.267 50.0946 170.81 50.2234 171.303 50.481C171.796 50.7274 172.165 51.0802 172.412 51.5394V47.2722H173.823V59.2002H172.546L172.496 57.8562C172.249 58.3378 171.874 58.7186 171.37 58.9986C170.866 59.2674 170.3 59.4018 169.673 59.4018ZM169.959 58.0578C170.485 58.0578 170.928 57.9234 171.286 57.6546C171.656 57.3858 171.936 57.005 172.126 56.5122C172.316 56.0082 172.412 55.4202 172.412 54.7482C172.412 54.0538 172.316 53.4602 172.126 52.9674C171.936 52.4746 171.656 52.0994 171.286 51.8418C170.928 51.573 170.485 51.4386 169.959 51.4386C169.175 51.4386 168.548 51.7354 168.077 52.329C167.618 52.9114 167.388 53.7178 167.388 54.7482C167.388 55.7674 167.618 56.5738 168.077 57.1674C168.548 57.761 169.175 58.0578 169.959 58.0578Z" fill="#9E9E9E"/>
<path d="M79.3581 100.545V97.8662H89.0061V100.545H79.3581ZM101.584 107.601V103.338H91.2736V100.689L101.21 87.1526H104.694V100.516H107.2V103.338H104.694V107.601H101.584ZM94.816 100.516H101.584V91.4726L94.816 100.516ZM109.789 107.601V103.972H113.505V107.601H109.789ZM125.828 107.601V103.338H115.517V100.689L125.453 87.1526H128.938V100.516H131.444V103.338H128.938V107.601H125.828ZM119.06 100.516H125.828V91.4726L119.06 100.516ZM138.267 107.601V93.0278H133.947V90.5222H135.703C136.471 90.5222 137.095 90.4262 137.575 90.2342C138.055 90.023 138.401 89.6774 138.612 89.1974C138.823 88.6982 138.929 88.0166 138.929 87.1526H141.377V107.601H138.267ZM150.283 97.0598C148.959 97.0598 147.864 96.6278 147 95.7638C146.155 94.8998 145.733 93.6422 145.733 91.991C145.733 90.3206 146.155 89.063 147 88.2182C147.864 87.3542 148.959 86.9222 150.283 86.9222C151.608 86.9222 152.693 87.3542 153.538 88.2182C154.383 89.063 154.805 90.3206 154.805 91.991C154.805 93.6422 154.383 94.8998 153.538 95.7638C152.693 96.6278 151.608 97.0598 150.283 97.0598ZM150.283 95.1302C151.013 95.1302 151.56 94.8614 151.925 94.3238C152.29 93.7862 152.472 93.0086 152.472 91.991C152.472 90.9734 152.29 90.1958 151.925 89.6582C151.56 89.1206 151.013 88.8518 150.283 88.8518C149.573 88.8518 149.026 89.1206 148.642 89.6582C148.277 90.1958 148.095 90.9734 148.095 91.991C148.095 93.0086 148.277 93.7862 148.642 94.3238C149.026 94.8614 149.573 95.1302 150.283 95.1302ZM162.091 107.831C160.786 107.831 159.701 107.399 158.837 106.535C157.973 105.671 157.541 104.413 157.541 102.762C157.541 101.092 157.973 99.8342 158.837 98.9894C159.701 98.1254 160.786 97.6934 162.091 97.6934C163.435 97.6934 164.53 98.1254 165.375 98.9894C166.219 99.8342 166.642 101.092 166.642 102.762C166.642 104.413 166.219 105.671 165.375 106.535C164.53 107.399 163.435 107.831 162.091 107.831ZM162.091 105.901C162.821 105.901 163.368 105.633 163.733 105.095C164.098 104.557 164.28 103.78 164.28 102.762C164.28 101.745 164.098 100.967 163.733 100.429C163.368 99.8918 162.821 99.623 162.091 99.623C161.381 99.623 160.834 99.8918 160.45 100.429C160.085 100.967 159.903 101.745 159.903 102.762C159.903 103.78 160.085 104.557 160.45 105.095C160.834 105.633 161.381 105.901 162.091 105.901ZM148.008 107.601L161.947 87.1526H164.367L150.427 107.601H148.008Z" fill="white"/>
<path d="M74.945 134.284V132.722H80.3882V134.284H74.945ZM87.1016 139.912V124.944H88.3952V139.912H87.1016ZM87.8912 138.636C87.0288 138.636 86.2728 138.468 85.6232 138.132C84.9848 137.784 84.4752 137.303 84.0944 136.687C83.7136 136.071 83.4896 135.348 83.4224 134.52L85.2032 134.402C85.2816 134.973 85.4384 135.455 85.6736 135.847C85.9088 136.239 86.2168 136.536 86.5976 136.737C86.9784 136.928 87.4264 137.023 87.9416 137.023C88.468 137.023 88.9048 136.961 89.252 136.838C89.5992 136.704 89.8624 136.513 90.0416 136.267C90.2208 136.02 90.3104 135.724 90.3104 135.376C90.3104 135.018 90.2264 134.716 90.0584 134.469C89.9016 134.212 89.5992 133.982 89.1512 133.78C88.7032 133.579 88.0424 133.366 87.1688 133.142C86.3736 132.929 85.7184 132.677 85.2032 132.386C84.688 132.084 84.3072 131.72 84.0608 131.294C83.8256 130.868 83.708 130.37 83.708 129.799C83.708 129.116 83.8648 128.528 84.1784 128.035C84.5032 127.531 84.9624 127.144 85.556 126.876C86.1496 126.596 86.8664 126.456 87.7064 126.456C88.5352 126.456 89.2408 126.612 89.8232 126.926C90.4168 127.228 90.8816 127.66 91.2176 128.22C91.5648 128.78 91.7776 129.44 91.856 130.202L90.0752 130.303C90.0192 129.844 89.896 129.446 89.7056 129.11C89.5152 128.774 89.252 128.516 88.916 128.337C88.58 128.158 88.16 128.068 87.656 128.068C86.9616 128.068 86.4184 128.214 86.0264 128.505C85.6344 128.796 85.4384 129.2 85.4384 129.715C85.4384 130.062 85.5168 130.348 85.6736 130.572C85.8304 130.796 86.1048 130.997 86.4968 131.176C86.8888 131.344 87.4488 131.529 88.1768 131.731C89.14 131.988 89.9016 132.28 90.4616 132.604C91.0328 132.918 91.4416 133.299 91.688 133.747C91.9344 134.184 92.0576 134.727 92.0576 135.376C92.0576 136.026 91.884 136.597 91.5368 137.09C91.1896 137.583 90.7024 137.964 90.0752 138.232C89.4592 138.501 88.7312 138.636 87.8912 138.636ZM93.5799 138.4C93.5799 137.516 93.7087 136.726 93.9663 136.032C94.2239 135.337 94.6775 134.688 95.3271 134.083C95.9879 133.467 96.9007 132.851 98.0655 132.235C98.5695 131.977 98.9783 131.731 99.2919 131.496C99.6055 131.26 99.8351 131.008 99.9807 130.74C100.126 130.471 100.199 130.146 100.199 129.765C100.199 129.373 100.121 129.037 99.9639 128.757C99.8071 128.477 99.5719 128.259 99.2583 128.102C98.9447 127.934 98.5527 127.85 98.0823 127.85C97.3207 127.85 96.7215 128.052 96.2847 128.455C95.8591 128.858 95.5903 129.435 95.4783 130.185L93.6471 130.068C93.7703 128.892 94.2127 127.956 94.9743 127.262C95.7359 126.556 96.7719 126.204 98.0823 126.204C98.9335 126.204 99.6503 126.349 100.233 126.64C100.826 126.932 101.274 127.34 101.577 127.867C101.879 128.393 102.03 129.004 102.03 129.698C102.03 130.314 101.929 130.846 101.728 131.294C101.526 131.742 101.19 132.156 100.72 132.537C100.249 132.918 99.6055 133.327 98.7879 133.764C98.1047 134.133 97.5335 134.497 97.0743 134.856C96.6263 135.203 96.2847 135.539 96.0495 135.864C95.8255 136.177 95.7023 136.468 95.6799 136.737H102.047V138.4H93.5799ZM106.946 141.021L107.752 138.4H106.778V136.183H108.996V138.165L107.92 141.021H106.946ZM117.86 138.669C116.549 138.669 115.547 138.356 114.852 137.728C114.158 137.101 113.783 136.278 113.727 135.259L115.524 135.141C115.592 135.824 115.838 136.312 116.264 136.603C116.7 136.883 117.238 137.023 117.876 137.023C118.313 137.023 118.722 136.956 119.103 136.821C119.484 136.687 119.786 136.474 120.01 136.183C120.245 135.892 120.363 135.5 120.363 135.007C120.363 134.525 120.256 134.128 120.044 133.814C119.842 133.5 119.551 133.271 119.17 133.125C118.8 132.968 118.375 132.89 117.893 132.89H116.969V131.311H117.893C118.274 131.311 118.621 131.255 118.935 131.143C119.248 131.031 119.495 130.846 119.674 130.588C119.864 130.331 119.96 130 119.96 129.597C119.96 129.015 119.78 128.578 119.422 128.287C119.075 127.996 118.576 127.85 117.927 127.85C117.255 127.85 116.745 127.99 116.398 128.27C116.062 128.55 115.855 128.936 115.776 129.429L113.962 129.312C114.085 128.382 114.483 127.632 115.155 127.06C115.838 126.489 116.768 126.204 117.944 126.204C118.728 126.204 119.405 126.338 119.976 126.607C120.559 126.864 121.007 127.234 121.32 127.716C121.634 128.197 121.791 128.774 121.791 129.446C121.791 130.185 121.556 130.784 121.085 131.244C120.626 131.692 119.954 132 119.069 132.168V131.848C120.032 131.96 120.794 132.308 121.354 132.89C121.914 133.461 122.194 134.184 122.194 135.057C122.194 135.819 122.009 136.468 121.64 137.006C121.281 137.544 120.772 137.958 120.111 138.249C119.461 138.529 118.711 138.669 117.86 138.669ZM126.085 138.4C126.085 137.18 126.247 135.976 126.572 134.788C126.908 133.59 127.39 132.431 128.017 131.311C128.644 130.191 129.389 129.132 130.251 128.136H123.968V126.472H132.099V128.018C131.371 128.847 130.744 129.67 130.218 130.488C129.691 131.294 129.26 132.112 128.924 132.94C128.588 133.769 128.342 134.637 128.185 135.544C128.028 136.44 127.95 137.392 127.95 138.4H126.085ZM136.158 138.4C136.158 137.18 136.321 135.976 136.646 134.788C136.982 133.59 137.463 132.431 138.09 131.311C138.718 130.191 139.462 129.132 140.325 128.136H134.042V126.472H142.173V128.018C141.445 128.847 140.818 129.67 140.291 130.488C139.765 131.294 139.334 132.112 138.998 132.94C138.662 133.769 138.415 134.637 138.258 135.544C138.102 136.44 138.023 137.392 138.023 138.4H136.158ZM147.038 138.4V136.183H149.323V138.4H147.038ZM158.288 138.669C157.369 138.669 156.585 138.462 155.936 138.048C155.297 137.633 154.81 137.028 154.474 136.233C154.149 135.427 153.987 134.458 153.987 133.327C153.987 132.341 154.071 131.417 154.239 130.555C154.407 129.692 154.676 128.936 155.045 128.287C155.415 127.637 155.902 127.128 156.507 126.758C157.112 126.388 157.856 126.204 158.741 126.204C159.48 126.204 160.096 126.327 160.589 126.573C161.093 126.808 161.496 127.144 161.799 127.581C162.112 128.018 162.348 128.516 162.504 129.076L160.69 129.228C160.578 128.813 160.371 128.483 160.068 128.236C159.777 127.979 159.335 127.85 158.741 127.85C158.136 127.85 157.616 128.024 157.179 128.371C156.753 128.718 156.417 129.244 156.171 129.95C155.924 130.656 155.79 131.557 155.768 132.655L155.331 132.588C155.454 132.196 155.661 131.832 155.952 131.496C156.255 131.16 156.63 130.891 157.078 130.689C157.526 130.476 158.041 130.37 158.624 130.37C159.419 130.37 160.102 130.538 160.673 130.874C161.256 131.199 161.709 131.669 162.034 132.285C162.359 132.89 162.521 133.596 162.521 134.402C162.521 135.287 162.342 136.048 161.984 136.687C161.625 137.314 161.132 137.801 160.505 138.148C159.878 138.496 159.139 138.669 158.288 138.669ZM158.288 137.006C159.027 137.006 159.609 136.782 160.035 136.334C160.472 135.886 160.69 135.253 160.69 134.436C160.69 133.674 160.488 133.075 160.085 132.638C159.682 132.19 159.128 131.966 158.422 131.966C157.918 131.966 157.47 132.067 157.078 132.268C156.697 132.47 156.395 132.756 156.171 133.125C155.958 133.495 155.852 133.932 155.852 134.436C155.852 134.928 155.947 135.371 156.137 135.763C156.339 136.155 156.624 136.463 156.994 136.687C157.364 136.9 157.795 137.006 158.288 137.006ZM168.361 138.669C167.443 138.669 166.659 138.462 166.009 138.048C165.371 137.633 164.884 137.028 164.548 136.233C164.223 135.427 164.06 134.458 164.06 133.327C164.06 132.341 164.144 131.417 164.312 130.555C164.48 129.692 164.749 128.936 165.119 128.287C165.488 127.637 165.976 127.128 166.58 126.758C167.185 126.388 167.93 126.204 168.815 126.204C169.554 126.204 170.17 126.327 170.663 126.573C171.167 126.808 171.57 127.144 171.872 127.581C172.186 128.018 172.421 128.516 172.578 129.076L170.764 129.228C170.652 128.813 170.444 128.483 170.142 128.236C169.851 127.979 169.408 127.85 168.815 127.85C168.21 127.85 167.689 128.024 167.252 128.371C166.827 128.718 166.491 129.244 166.244 129.95C165.998 130.656 165.864 131.557 165.841 132.655L165.404 132.588C165.528 132.196 165.735 131.832 166.026 131.496C166.328 131.16 166.704 130.891 167.152 130.689C167.6 130.476 168.115 130.37 168.697 130.37C169.492 130.37 170.176 130.538 170.747 130.874C171.329 131.199 171.783 131.669 172.108 132.285C172.432 132.89 172.595 133.596 172.595 134.402C172.595 135.287 172.416 136.048 172.057 136.687C171.699 137.314 171.206 137.801 170.579 138.148C169.952 138.496 169.212 138.669 168.361 138.669ZM168.361 137.006C169.1 137.006 169.683 136.782 170.108 136.334C170.545 135.886 170.764 135.253 170.764 134.436C170.764 133.674 170.562 133.075 170.159 132.638C169.756 132.19 169.201 131.966 168.496 131.966C167.992 131.966 167.544 132.067 167.152 132.268C166.771 132.47 166.468 132.756 166.244 133.125C166.032 133.495 165.925 133.932 165.925 134.436C165.925 134.928 166.02 135.371 166.211 135.763C166.412 136.155 166.698 136.463 167.068 136.687C167.437 136.9 167.868 137.006 168.361 137.006Z" fill="#ED4E4E"/>
<path d="M266.494 53.2C266.494 57.1764 263.27 60.4 259.294 60.4C255.317 60.4 252.094 57.1764 252.094 53.2C252.094 49.2235 255.317 46 259.294 46C263.27 46 266.494 49.2235 266.494 53.2ZM254.254 53.2C254.254 55.9835 256.51 58.24 259.294 58.24C262.077 58.24 264.334 55.9835 264.334 53.2C264.334 50.4165 262.077 48.16 259.294 48.16C256.51 48.16 254.254 50.4165 254.254 53.2Z" fill="#0052FF"/>
<path d="M280.166 59.469C279.102 59.469 278.167 59.2226 277.36 58.7298C276.554 58.2258 275.927 57.509 275.479 56.5794C275.031 55.6498 274.807 54.541 274.807 53.253C274.807 51.965 275.031 50.8562 275.479 49.9266C275.927 48.9858 276.554 48.2634 277.36 47.7594C278.167 47.2554 279.102 47.0034 280.166 47.0034C281.611 47.0034 282.731 47.3674 283.526 48.0954C284.321 48.8234 284.842 49.8146 285.088 51.069L283.56 51.1698C283.392 50.3186 283.033 49.6466 282.484 49.1538C281.936 48.661 281.163 48.4146 280.166 48.4146C279.404 48.4146 278.732 48.6106 278.15 49.0026C277.579 49.3834 277.131 49.9378 276.806 50.6658C276.481 51.3826 276.319 52.245 276.319 53.253C276.319 54.261 276.481 55.1234 276.806 55.8402C277.131 56.557 277.579 57.1058 278.15 57.4866C278.732 57.8674 279.404 58.0578 280.166 58.0578C281.208 58.0578 282.014 57.789 282.585 57.2514C283.156 56.7026 283.515 55.9634 283.66 55.0338L285.189 55.1346C285.044 55.997 284.758 56.753 284.332 57.4026C283.907 58.0522 283.341 58.5618 282.636 58.9314C281.941 59.2898 281.118 59.469 280.166 59.469ZM290.554 59.4018C289.736 59.4018 289.019 59.2114 288.403 58.8306C287.787 58.4498 287.311 57.9122 286.975 57.2178C286.639 56.5122 286.471 55.689 286.471 54.7482C286.471 53.7962 286.639 52.973 286.975 52.2786C287.311 51.5842 287.787 51.0466 288.403 50.6658C289.019 50.285 289.736 50.0946 290.554 50.0946C291.371 50.0946 292.083 50.285 292.687 50.6658C293.303 51.0466 293.779 51.5842 294.115 52.2786C294.451 52.973 294.619 53.7962 294.619 54.7482C294.619 55.689 294.451 56.5122 294.115 57.2178C293.779 57.9122 293.303 58.4498 292.687 58.8306C292.083 59.2114 291.371 59.4018 290.554 59.4018ZM290.554 58.0578C291.371 58.0578 292.004 57.7666 292.452 57.1842C292.911 56.5906 293.141 55.7786 293.141 54.7482C293.141 53.7178 292.911 52.9114 292.452 52.329C292.004 51.7354 291.371 51.4386 290.554 51.4386C289.736 51.4386 289.098 51.7354 288.639 52.329C288.179 52.9114 287.95 53.7178 287.95 54.7482C287.95 55.7786 288.179 56.5906 288.639 57.1842C289.098 57.7666 289.736 58.0578 290.554 58.0578ZM296.543 59.2002V50.2962H297.954V59.2002H296.543ZM296.509 48.9018V47.2554H297.987V48.9018H296.509ZM300.808 59.2002V50.2962H302.102L302.152 52.5642L301.984 52.413C302.096 51.8866 302.292 51.4554 302.572 51.1194C302.852 50.7722 303.188 50.5146 303.58 50.3466C303.983 50.1786 304.415 50.0946 304.874 50.0946C305.557 50.0946 306.117 50.2458 306.554 50.5482C307.002 50.8506 307.332 51.2594 307.545 51.7746C307.769 52.2786 307.881 52.8442 307.881 53.4714V59.2002H306.47V53.8746C306.47 53.3258 306.403 52.8666 306.268 52.497C306.145 52.1162 305.943 51.8306 305.663 51.6402C305.383 51.4386 305.019 51.3378 304.571 51.3378C303.888 51.3378 303.323 51.5562 302.875 51.993C302.438 52.4186 302.219 53.0458 302.219 53.8746V59.2002H300.808ZM314.488 59.4018C313.872 59.4018 313.323 59.2674 312.842 58.9986C312.36 58.7186 311.991 58.3378 311.733 57.8562L311.683 59.2002H310.406V47.2722H311.817V51.5394C312.041 51.1698 312.388 50.8394 312.859 50.5482C313.329 50.2458 313.872 50.0946 314.488 50.0946C315.272 50.0946 315.95 50.285 316.521 50.6658C317.092 51.0466 317.535 51.5842 317.848 52.2786C318.162 52.973 318.319 53.7962 318.319 54.7482C318.319 55.7002 318.162 56.5234 317.848 57.2178C317.535 57.9122 317.092 58.4498 316.521 58.8306C315.95 59.2114 315.272 59.4018 314.488 59.4018ZM314.404 58.0578C315.155 58.0578 315.748 57.761 316.185 57.1674C316.622 56.5738 316.84 55.7674 316.84 54.7482C316.84 53.7178 316.622 52.9114 316.185 52.329C315.748 51.7354 315.166 51.4386 314.438 51.4386C313.889 51.4386 313.419 51.573 313.027 51.8418C312.635 52.0994 312.332 52.4746 312.119 52.9674C311.918 53.4602 311.817 54.0538 311.817 54.7482C311.817 55.4202 311.918 56.0082 312.119 56.5122C312.332 57.005 312.629 57.3858 313.01 57.6546C313.402 57.9234 313.867 58.0578 314.404 58.0578ZM322.865 59.4018C321.947 59.4018 321.213 59.189 320.664 58.7634C320.127 58.3378 319.858 57.7442 319.858 56.9826C319.858 56.221 320.082 55.6218 320.53 55.185C320.978 54.7482 321.689 54.4402 322.664 54.261L325.822 53.673C325.822 52.9226 325.643 52.3626 325.284 51.993C324.937 51.6234 324.411 51.4386 323.705 51.4386C323.089 51.4386 322.602 51.5786 322.244 51.8586C321.885 52.1274 321.639 52.5194 321.504 53.0346L320.009 52.917C320.177 52.077 320.58 51.3994 321.219 50.8842C321.868 50.3578 322.697 50.0946 323.705 50.0946C324.848 50.0946 325.721 50.4194 326.326 51.069C326.931 51.7074 327.233 52.5922 327.233 53.7234V57.4026C327.233 57.6042 327.267 57.7498 327.334 57.8394C327.412 57.9178 327.536 57.957 327.704 57.957H328.056V59.2002C328.012 59.2114 327.939 59.217 327.838 59.217C327.737 59.2282 327.631 59.2338 327.519 59.2338C327.116 59.2338 326.785 59.1722 326.528 59.049C326.281 58.9146 326.102 58.713 325.99 58.4442C325.878 58.1642 325.822 57.8002 325.822 57.3522L325.99 57.3858C325.912 57.7666 325.721 58.1138 325.419 58.4274C325.116 58.7298 324.741 58.9706 324.293 59.1498C323.845 59.3178 323.369 59.4018 322.865 59.4018ZM323 58.1586C323.593 58.1586 324.097 58.0466 324.512 57.8226C324.937 57.5874 325.262 57.2738 325.486 56.8818C325.71 56.4786 325.822 56.0306 325.822 55.5378V54.8994L322.932 55.437C322.328 55.549 321.908 55.7226 321.672 55.9578C321.448 56.1818 321.336 56.4786 321.336 56.8482C321.336 57.2626 321.482 57.5874 321.773 57.8226C322.076 58.0466 322.484 58.1586 323 58.1586ZM332.86 59.4018C332.065 59.4018 331.387 59.273 330.827 59.0154C330.278 58.7578 329.847 58.405 329.534 57.957C329.231 57.4978 329.058 56.977 329.013 56.3946L330.491 56.2938C330.581 56.8314 330.81 57.2626 331.18 57.5874C331.55 57.901 332.11 58.0578 332.86 58.0578C333.465 58.0578 333.946 57.9626 334.305 57.7722C334.674 57.5706 334.859 57.2514 334.859 56.8146C334.859 56.5794 334.803 56.3834 334.691 56.2266C334.579 56.0698 334.361 55.9354 334.036 55.8234C333.711 55.7002 333.23 55.5826 332.591 55.4706C331.74 55.3138 331.068 55.1234 330.575 54.8994C330.094 54.6642 329.746 54.3786 329.534 54.0426C329.332 53.6954 329.231 53.2866 329.231 52.8162C329.231 52.021 329.522 51.3714 330.105 50.8674C330.687 50.3522 331.516 50.0946 332.591 50.0946C333.319 50.0946 333.93 50.229 334.422 50.4978C334.926 50.7554 335.318 51.1026 335.598 51.5394C335.89 51.965 336.08 52.4354 336.17 52.9506L334.691 53.0514C334.624 52.7378 334.501 52.4634 334.322 52.2282C334.142 51.9818 333.907 51.7914 333.616 51.657C333.325 51.5114 332.978 51.4386 332.574 51.4386C331.936 51.4386 331.466 51.5618 331.163 51.8082C330.861 52.0546 330.71 52.3682 330.71 52.749C330.71 53.0402 330.777 53.281 330.911 53.4714C331.057 53.6506 331.286 53.8018 331.6 53.925C331.914 54.037 332.334 54.1378 332.86 54.2274C333.767 54.3842 334.473 54.5746 334.977 54.7986C335.481 55.0226 335.834 55.297 336.035 55.6218C336.237 55.9466 336.338 56.3442 336.338 56.8146C336.338 57.3634 336.181 57.8338 335.867 58.2258C335.565 58.6066 335.15 58.8978 334.624 59.0994C334.109 59.301 333.521 59.4018 332.86 59.4018ZM341.741 59.4018C340.901 59.4018 340.173 59.2114 339.557 58.8306C338.952 58.4498 338.482 57.9122 338.146 57.2178C337.821 56.5122 337.659 55.689 337.659 54.7482C337.659 53.8074 337.821 52.9898 338.146 52.2954C338.482 51.601 338.947 51.0634 339.54 50.6826C340.145 50.2906 340.856 50.0946 341.674 50.0946C342.447 50.0946 343.13 50.2794 343.724 50.649C344.317 51.0074 344.776 51.5338 345.101 52.2282C345.437 52.9226 345.605 53.7682 345.605 54.765V55.185H339.137C339.193 56.137 339.445 56.8538 339.893 57.3354C340.352 57.817 340.968 58.0578 341.741 58.0578C342.324 58.0578 342.8 57.9234 343.169 57.6546C343.55 57.3746 343.813 57.0106 343.959 56.5626L345.471 56.6802C345.236 57.4754 344.788 58.1306 344.127 58.6458C343.477 59.1498 342.682 59.4018 341.741 59.4018ZM339.137 53.9418H344.06C343.992 53.0794 343.74 52.4466 343.304 52.0434C342.878 51.6402 342.335 51.4386 341.674 51.4386C340.991 51.4386 340.425 51.6514 339.977 52.077C339.54 52.4914 339.26 53.113 339.137 53.9418Z" fill="#9E9E9E"/>
<path d="M263.524 106.132V92.2502H266.174V106.132H263.524ZM257.908 100.516V97.8662H271.79V100.516H257.908ZM278.371 107.601V93.0278H274.051V90.5222H275.808C276.576 90.5222 277.2 90.4262 277.68 90.2342C278.16 90.023 278.506 89.6774 278.717 89.1974C278.928 88.6982 279.034 88.0166 279.034 87.1526H281.482V107.601H278.371ZM285.838 107.601V103.972H289.553V107.601H285.838ZM294.009 107.601V93.0278H289.689V90.5222H291.446C292.214 90.5222 292.838 90.4262 293.318 90.2342C293.798 90.023 294.143 89.6774 294.354 89.1974C294.566 88.6982 294.671 88.0166 294.671 87.1526H297.119V107.601H294.009ZM309.453 108.061C307.936 108.061 306.64 107.821 305.565 107.341C304.49 106.842 303.645 106.151 303.03 105.268C302.416 104.385 302.061 103.367 301.965 102.215L305.162 102.013C305.315 103.089 305.766 103.895 306.515 104.433C307.283 104.951 308.262 105.21 309.453 105.21C310.797 105.21 311.853 104.836 312.621 104.087C313.408 103.338 313.802 102.292 313.802 100.948C313.802 100.065 313.619 99.3062 313.254 98.6726C312.909 98.0198 312.41 97.5206 311.757 97.175C311.104 96.8102 310.326 96.6278 309.424 96.6278C308.522 96.6278 307.715 96.8198 307.005 97.2038C306.294 97.5878 305.786 98.1158 305.478 98.7878H302.253L303.635 87.1526H315.616V90.0038H306.4L305.536 97.0022L305.046 96.5702C305.373 95.9942 305.786 95.5238 306.285 95.159C306.784 94.775 307.36 94.487 308.013 94.295C308.685 94.0838 309.395 93.9782 310.144 93.9782C311.526 93.9782 312.726 94.2758 313.744 94.871C314.781 95.4662 315.587 96.2918 316.163 97.3478C316.739 98.4038 317.027 99.6038 317.027 100.948C317.027 102.349 316.71 103.588 316.077 104.663C315.443 105.738 314.56 106.573 313.427 107.169C312.294 107.764 310.97 108.061 309.453 108.061ZM324.476 97.0598C323.151 97.0598 322.056 96.6278 321.192 95.7638C320.348 94.8998 319.925 93.6422 319.925 91.991C319.925 90.3206 320.348 89.063 321.192 88.2182C322.056 87.3542 323.151 86.9222 324.476 86.9222C325.8 86.9222 326.885 87.3542 327.73 88.2182C328.575 89.063 328.997 90.3206 328.997 91.991C328.997 93.6422 328.575 94.8998 327.73 95.7638C326.885 96.6278 325.8 97.0598 324.476 97.0598ZM324.476 95.1302C325.205 95.1302 325.752 94.8614 326.117 94.3238C326.482 93.7862 326.664 93.0086 326.664 91.991C326.664 90.9734 326.482 90.1958 326.117 89.6582C325.752 89.1206 325.205 88.8518 324.476 88.8518C323.765 88.8518 323.218 89.1206 322.834 89.6582C322.469 90.1958 322.287 90.9734 322.287 91.991C322.287 93.0086 322.469 93.7862 322.834 94.3238C323.218 94.8614 323.765 95.1302 324.476 95.1302ZM336.284 107.831C334.978 107.831 333.893 107.399 333.029 106.535C332.165 105.671 331.733 104.413 331.733 102.762C331.733 101.092 332.165 99.8342 333.029 98.9894C333.893 98.1254 334.978 97.6934 336.284 97.6934C337.628 97.6934 338.722 98.1254 339.567 98.9894C340.412 99.8342 340.834 101.092 340.834 102.762C340.834 104.413 340.412 105.671 339.567 106.535C338.722 107.399 337.628 107.831 336.284 107.831ZM336.284 105.901C337.013 105.901 337.56 105.633 337.925 105.095C338.29 104.557 338.472 103.78 338.472 102.762C338.472 101.745 338.29 100.967 337.925 100.429C337.56 99.8918 337.013 99.623 336.284 99.623C335.573 99.623 335.026 99.8918 334.642 100.429C334.277 100.967 334.095 101.745 334.095 102.762C334.095 103.78 334.277 104.557 334.642 105.095C335.026 105.633 335.573 105.901 336.284 105.901ZM322.2 107.601L336.14 87.1526H338.559L324.62 107.601H322.2Z" fill="white"/>
<path d="M259.885 134.268V132.722H267.983V134.268H259.885ZM263.161 137.544V129.446H264.707V137.544H263.161ZM273.369 139.912V124.944H274.662V139.912H273.369ZM274.158 138.636C273.296 138.636 272.54 138.468 271.89 138.132C271.252 137.784 270.742 137.303 270.362 136.687C269.981 136.071 269.757 135.348 269.69 134.52L271.47 134.402C271.549 134.973 271.706 135.455 271.941 135.847C272.176 136.239 272.484 136.536 272.865 136.737C273.246 136.928 273.694 137.023 274.209 137.023C274.735 137.023 275.172 136.961 275.519 136.838C275.866 136.704 276.13 136.513 276.309 136.267C276.488 136.02 276.578 135.724 276.578 135.376C276.578 135.018 276.494 134.716 276.326 134.469C276.169 134.212 275.866 133.982 275.418 133.78C274.97 133.579 274.31 133.366 273.436 133.142C272.641 132.929 271.986 132.677 271.47 132.386C270.955 132.084 270.574 131.72 270.328 131.294C270.093 130.868 269.975 130.37 269.975 129.799C269.975 129.116 270.132 128.528 270.446 128.035C270.77 127.531 271.23 127.144 271.823 126.876C272.417 126.596 273.134 126.456 273.974 126.456C274.802 126.456 275.508 126.612 276.09 126.926C276.684 127.228 277.149 127.66 277.485 128.22C277.832 128.78 278.045 129.44 278.123 130.202L276.342 130.303C276.286 129.844 276.163 129.446 275.973 129.11C275.782 128.774 275.519 128.516 275.183 128.337C274.847 128.158 274.427 128.068 273.923 128.068C273.229 128.068 272.686 128.214 272.294 128.505C271.902 128.796 271.706 129.2 271.706 129.715C271.706 130.062 271.784 130.348 271.941 130.572C272.098 130.796 272.372 130.997 272.764 131.176C273.156 131.344 273.716 131.529 274.444 131.731C275.407 131.988 276.169 132.28 276.729 132.604C277.3 132.918 277.709 133.299 277.955 133.747C278.202 134.184 278.325 134.727 278.325 135.376C278.325 136.026 278.151 136.597 277.804 137.09C277.457 137.583 276.97 137.964 276.342 138.232C275.726 138.501 274.998 138.636 274.158 138.636ZM284.114 138.669C283.196 138.669 282.412 138.462 281.762 138.048C281.124 137.633 280.637 137.028 280.301 136.233C279.976 135.427 279.813 134.458 279.813 133.327C279.813 132.341 279.897 131.417 280.065 130.555C280.233 129.692 280.502 128.936 280.872 128.287C281.241 127.637 281.729 127.128 282.333 126.758C282.938 126.388 283.683 126.204 284.568 126.204C285.307 126.204 285.923 126.327 286.416 126.573C286.92 126.808 287.323 127.144 287.625 127.581C287.939 128.018 288.174 128.516 288.331 129.076L286.517 129.228C286.405 128.813 286.197 128.483 285.895 128.236C285.604 127.979 285.161 127.85 284.568 127.85C283.963 127.85 283.442 128.024 283.005 128.371C282.58 128.718 282.244 129.244 281.997 129.95C281.751 130.656 281.617 131.557 281.594 132.655L281.157 132.588C281.281 132.196 281.488 131.832 281.779 131.496C282.081 131.16 282.457 130.891 282.905 130.689C283.353 130.476 283.868 130.37 284.45 130.37C285.245 130.37 285.929 130.538 286.5 130.874C287.082 131.199 287.536 131.669 287.861 132.285C288.185 132.89 288.348 133.596 288.348 134.402C288.348 135.287 288.169 136.048 287.81 136.687C287.452 137.314 286.959 137.801 286.332 138.148C285.705 138.496 284.965 138.669 284.114 138.669ZM284.114 137.006C284.853 137.006 285.436 136.782 285.861 136.334C286.298 135.886 286.517 135.253 286.517 134.436C286.517 133.674 286.315 133.075 285.912 132.638C285.509 132.19 284.954 131.966 284.249 131.966C283.745 131.966 283.297 132.067 282.905 132.268C282.524 132.47 282.221 132.756 281.997 133.125C281.785 133.495 281.678 133.932 281.678 134.436C281.678 134.928 281.773 135.371 281.964 135.763C282.165 136.155 282.451 136.463 282.821 136.687C283.19 136.9 283.621 137.006 284.114 137.006ZM293.701 138.4V129.9H290.643V128.404H292.155C292.592 128.404 292.945 128.343 293.213 128.22C293.482 128.085 293.678 127.878 293.801 127.598C293.925 127.318 293.986 126.943 293.986 126.472H295.465V138.4H293.701ZM290.055 138.4V136.737H298.253V138.4H290.055ZM302.279 138.4C302.279 137.18 302.441 135.976 302.766 134.788C303.102 133.59 303.584 132.431 304.211 131.311C304.838 130.191 305.583 129.132 306.445 128.136H300.162V126.472H308.293V128.018C307.565 128.847 306.938 129.67 306.412 130.488C305.885 131.294 305.454 132.112 305.118 132.94C304.782 133.769 304.536 134.637 304.379 135.544C304.222 136.44 304.144 137.392 304.144 138.4H302.279ZM313.159 138.4V136.183H315.443V138.4H313.159ZM320.141 138.4C320.141 137.516 320.27 136.726 320.527 136.032C320.785 135.337 321.238 134.688 321.888 134.083C322.549 133.467 323.462 132.851 324.626 132.235C325.13 131.977 325.539 131.731 325.853 131.496C326.166 131.26 326.396 131.008 326.542 130.74C326.687 130.471 326.76 130.146 326.76 129.765C326.76 129.373 326.682 129.037 326.525 128.757C326.368 128.477 326.133 128.259 325.819 128.102C325.506 127.934 325.114 127.85 324.643 127.85C323.882 127.85 323.282 128.052 322.846 128.455C322.42 128.858 322.151 129.435 322.039 130.185L320.208 130.068C320.331 128.892 320.774 127.956 321.535 127.262C322.297 126.556 323.333 126.204 324.643 126.204C325.494 126.204 326.211 126.349 326.794 126.64C327.387 126.932 327.835 127.34 328.138 127.867C328.44 128.393 328.591 129.004 328.591 129.698C328.591 130.314 328.49 130.846 328.289 131.294C328.087 131.742 327.751 132.156 327.281 132.537C326.81 132.918 326.166 133.327 325.349 133.764C324.666 134.133 324.094 134.497 323.635 134.856C323.187 135.203 322.846 135.539 322.61 135.864C322.386 136.177 322.263 136.468 322.241 136.737H328.608V138.4H320.141ZM330.214 138.4C330.214 137.516 330.343 136.726 330.601 136.032C330.858 135.337 331.312 134.688 331.961 134.083C332.622 133.467 333.535 132.851 334.7 132.235C335.204 131.977 335.613 131.731 335.926 131.496C336.24 131.26 336.469 131.008 336.615 130.74C336.761 130.471 336.833 130.146 336.833 129.765C336.833 129.373 336.755 129.037 336.598 128.757C336.441 128.477 336.206 128.259 335.893 128.102C335.579 127.934 335.187 127.85 334.717 127.85C333.955 127.85 333.356 128.052 332.919 128.455C332.493 128.858 332.225 129.435 332.113 130.185L330.281 130.068C330.405 128.892 330.847 127.956 331.609 127.262C332.37 126.556 333.406 126.204 334.717 126.204C335.568 126.204 336.285 126.349 336.867 126.64C337.461 126.932 337.909 127.34 338.211 127.867C338.513 128.393 338.665 129.004 338.665 129.698C338.665 130.314 338.564 130.846 338.362 131.294C338.161 131.742 337.825 132.156 337.354 132.537C336.884 132.918 336.24 133.327 335.422 133.764C334.739 134.133 334.168 134.497 333.709 134.856C333.261 135.203 332.919 135.539 332.684 135.864C332.46 136.177 332.337 136.468 332.314 136.737H338.681V138.4H330.214Z" fill="#12B76A"/>
<path d="M302.398 369.2L302.398 180.8" stroke="#5C5C5C" stroke-width="1.2" stroke-dasharray="4.8 4.8"/>
<path d="M302.992 283.632L314.467 281.224L325.942 286.296L337.417 284.041L348.892 261.883L360.367 258.538L371.842 269.376L383.317 283.837L394.792 292.057" stroke="white" stroke-opacity="0.1" stroke-width="2.4" stroke-miterlimit="16"/>
<path d="M27.5938 281.655L39.0687 275.681L50.5437 273.031L62.0187 275.267L73.4937 259.706L84.9687 253.657L96.4437 252.8L107.919 274.5L119.394 295.003L130.869 294.017L142.344 292.675L153.819 306.436L165.294 311.006L176.769 301.486L188.244 309.03L199.719 311.6L211.194 309.679L222.669 307.675L234.144 301.395L245.619 299.975L257.094 297.353L268.569 280.681L280.044 279.72L291.519 280.022L302.994 283.63" stroke="#CCFF00" stroke-width="2.4" stroke-miterlimit="16"/>
<path d="M27.5938 271.698L39.007 278.415L50.4202 288.716L61.8334 317.894L73.2466 308.042L84.6598 299.85L96.073 316.704L107.486 303.773L118.899 304.765H130.313L141.726 310.15L153.139 316.42L164.552 314.629L175.966 317.763L184.416 322.825L193.511 317.763L209.725 329.6L221.618 319.877L233.032 307.337L244.445 316.742L255.858 286.289L267.271 272.285L278.684 254.819L290.098 261.537L301.511 245.862" stroke="#0052FF" stroke-width="2.4" stroke-miterlimit="16"/>
<path d="M301.516 245.861L312.929 252.9L324.342 254.887L335.755 258.722L347.169 242.726L358.582 240.487L369.995 243.369L381.408 238.238L397.197 229.999" stroke="white" stroke-opacity="0.1" stroke-width="2.4" stroke-miterlimit="16"/>
<rect width="51.6" height="31.6" transform="translate(272.398 180.8)" fill="#1C1C1C"/>
<path d="M281.418 201.83C280.784 201.83 280.222 201.681 279.733 201.384C279.243 201.076 278.859 200.654 278.581 200.116C278.312 199.579 278.173 198.96 278.163 198.259L279.43 198.172C279.44 198.96 279.618 199.564 279.963 199.987C280.309 200.409 280.794 200.62 281.418 200.62C282.07 200.62 282.57 200.395 282.915 199.944C283.27 199.492 283.448 198.854 283.448 198.028V191.376H284.686V198.028C284.686 198.806 284.552 199.483 284.283 200.059C284.014 200.625 283.635 201.062 283.146 201.369C282.666 201.676 282.09 201.83 281.418 201.83ZM289.002 201.772C288.215 201.772 287.586 201.59 287.115 201.225C286.655 200.86 286.424 200.352 286.424 199.699C286.424 199.046 286.616 198.532 287 198.158C287.384 197.784 287.994 197.52 288.829 197.366L291.536 196.862C291.536 196.219 291.383 195.739 291.075 195.422C290.778 195.105 290.327 194.947 289.722 194.947C289.194 194.947 288.776 195.067 288.469 195.307C288.162 195.537 287.951 195.873 287.835 196.315L286.554 196.214C286.698 195.494 287.043 194.913 287.591 194.472C288.147 194.02 288.858 193.795 289.722 193.795C290.701 193.795 291.45 194.073 291.968 194.63C292.487 195.177 292.746 195.936 292.746 196.905V200.059C292.746 200.232 292.775 200.356 292.832 200.433C292.899 200.5 293.005 200.534 293.149 200.534H293.451V201.6C293.413 201.609 293.351 201.614 293.264 201.614C293.178 201.624 293.087 201.628 292.991 201.628C292.645 201.628 292.362 201.576 292.141 201.47C291.93 201.355 291.776 201.182 291.68 200.952C291.584 200.712 291.536 200.4 291.536 200.016L291.68 200.044C291.613 200.371 291.45 200.668 291.191 200.937C290.931 201.196 290.61 201.403 290.226 201.556C289.842 201.7 289.434 201.772 289.002 201.772ZM289.117 200.707C289.626 200.707 290.058 200.611 290.413 200.419C290.778 200.217 291.056 199.948 291.248 199.612C291.44 199.267 291.536 198.883 291.536 198.46V197.913L289.059 198.374C288.541 198.47 288.181 198.619 287.979 198.82C287.787 199.012 287.691 199.267 287.691 199.584C287.691 199.939 287.816 200.217 288.066 200.419C288.325 200.611 288.675 200.707 289.117 200.707ZM294.818 201.6V193.968H295.926L295.97 195.912L295.826 195.782C295.922 195.331 296.09 194.961 296.33 194.673C296.57 194.376 296.858 194.155 297.194 194.011C297.539 193.867 297.909 193.795 298.302 193.795C298.888 193.795 299.368 193.924 299.742 194.184C300.126 194.443 300.41 194.793 300.592 195.235C300.784 195.667 300.88 196.152 300.88 196.689V201.6H299.67V197.035C299.67 196.564 299.613 196.171 299.498 195.854C299.392 195.528 299.219 195.283 298.979 195.12C298.739 194.947 298.427 194.86 298.043 194.86C297.458 194.86 296.973 195.048 296.589 195.422C296.214 195.787 296.027 196.324 296.027 197.035V201.6H294.818ZM308.34 201.6V194.025H306.209V192.96H307.073C307.447 192.96 307.745 192.912 307.966 192.816C308.196 192.72 308.359 192.556 308.455 192.326C308.551 192.096 308.599 191.779 308.599 191.376H309.578V201.6H308.34ZM313.723 201.6C313.723 200.544 313.867 199.492 314.155 198.446C314.443 197.39 314.855 196.368 315.393 195.379C315.94 194.39 316.593 193.459 317.351 192.585H311.447V191.376H318.705V192.499C317.851 193.478 317.145 194.448 316.588 195.408C316.041 196.358 315.638 197.342 315.379 198.36C315.119 199.368 314.99 200.448 314.99 201.6H313.723Z" fill="#9E9E9E"/>
<g filter="url(#filter1_d_2031_1797)">
<rect x="298.797" y="243.202" width="7.2" height="7.2" rx="3.6" fill="#0052FF"/>
</g>
<g filter="url(#filter2_d_2031_1797)">
<rect x="298.797" y="279.202" width="7.2" height="7.2" rx="3.6" fill="#CCFF00"/>
</g>
</g>
<path d="M41.9941 22.4004H380.394C388.126 22.4004 394.394 28.6684 394.394 36.4004V354.8C394.394 362.532 388.126 368.8 380.394 368.8H41.9941C34.2622 368.8 27.9941 362.532 27.9941 354.8V36.4004C27.9941 28.7891 34.0676 22.5957 41.6328 22.4043L41.9941 22.4004Z" stroke="white" stroke-opacity="0.06" stroke-width="0.8"/>
</g>
<defs>
<filter id="filter0_d_2031_1797" x="-0.00625038" y="-4.76837e-07" width="422.4" height="402.4" filterUnits="userSpaceOnUse" color-interpolation-filters="sRGB">
<feFlood flood-opacity="0" result="BackgroundImageFix"/>
<feColorMatrix in="SourceAlpha" type="matrix" values="0 0 0 0 0 0 0 0 0 0 0 0 0 0 0 0 0 0 127 0" result="hardAlpha"/>
<feOffset dy="5.6"/>
<feGaussianBlur stdDeviation="13.8"/>
<feColorMatrix type="matrix" values="0 0 0 0 0 0 0 0 0 0 0 0 0 0 0 0 0 0 0.24 0"/>
<feBlend mode="normal" in2="BackgroundImageFix" result="effect1_dropShadow_2031_1797"/>
<feBlend mode="normal" in="SourceGraphic" in2="effect1_dropShadow_2031_1797" result="shape"/>
</filter>
<filter id="filter1_d_2031_1797" x="289.197" y="233.602" width="26.4" height="26.4002" filterUnits="userSpaceOnUse" color-interpolation-filters="sRGB">
<feFlood flood-opacity="0" result="BackgroundImageFix"/>
<feColorMatrix in="SourceAlpha" type="matrix" values="0 0 0 0 0 0 0 0 0 0 0 0 0 0 0 0 0 0 127 0" result="hardAlpha"/>
<feMorphology radius="9.6" operator="dilate" in="SourceAlpha" result="effect1_dropShadow_2031_1797"/>
<feOffset/>
<feComposite in2="hardAlpha" operator="out"/>
<feColorMatrix type="matrix" values="0 0 0 0 0 0 0 0 0 0.321569 0 0 0 0 1 0 0 0 0.1 0"/>
<feBlend mode="normal" in2="BackgroundImageFix" result="effect1_dropShadow_2031_1797"/>
<feBlend mode="normal" in="SourceGraphic" in2="effect1_dropShadow_2031_1797" result="shape"/>
</filter>
<filter id="filter2_d_2031_1797" x="289.197" y="269.602" width="26.4" height="26.4002" filterUnits="userSpaceOnUse" color-interpolation-filters="sRGB">
<feFlood flood-opacity="0" result="BackgroundImageFix"/>
<feColorMatrix in="SourceAlpha" type="matrix" values="0 0 0 0 0 0 0 0 0 0 0 0 0 0 0 0 0 0 127 0" result="hardAlpha"/>
<feMorphology radius="9.6" operator="dilate" in="SourceAlpha" result="effect1_dropShadow_2031_1797"/>
<feOffset/>
<feComposite in2="hardAlpha" operator="out"/>
<feColorMatrix type="matrix" values="0 0 0 0 0.8 0 0 0 0 1 0 0 0 0 0 0 0 0 0.1 0"/>
<feBlend mode="normal" in2="BackgroundImageFix" result="effect1_dropShadow_2031_1797"/>
<feBlend mode="normal" in="SourceGraphic" in2="effect1_dropShadow_2031_1797" result="shape"/>
</filter>
<linearGradient id="paint0_linear_2031_1797" x1="211.194" y1="22" x2="211.194" y2="379.564" gradientUnits="userSpaceOnUse">
<stop stop-color="white"/>
<stop offset="1" stop-color="#FAFAFA"/>
</linearGradient>
<linearGradient id="paint1_linear_2031_1797" x1="211.594" y1="70.2916" x2="211.594" y2="321.325" gradientUnits="userSpaceOnUse">
<stop stop-color="#1C1C1C"/>
<stop offset="1" stop-color="#121212"/>
</linearGradient>
<clipPath id="clip0_2031_1797">
<path d="M27.5938 36.4C27.5938 28.4471 34.0409 22 41.9938 22H380.394C388.347 22 394.794 28.4471 394.794 36.4V354.8C394.794 362.753 388.347 369.2 380.394 369.2H41.9937C34.0408 369.2 27.5938 362.753 27.5938 354.8V36.4Z" fill="white"/>
</clipPath>
</defs>
</svg>
