<svg width="383" height="340" viewBox="0 0 383 340" fill="none" xmlns="http://www.w3.org/2000/svg">
<rect x="9.6" y="8.6" width="363.6" height="320.4" stroke="white" stroke-opacity="0.06" stroke-width="1.2"/>
<g filter="url(#filter0_dd_2031_1739)">
<g clip-path="url(#clip0_2031_1739)">
<rect x="9" y="8" width="364.8" height="321.6" rx="14.4" fill="url(#paint0_linear_2031_1739)"/>
<rect x="9" y="8" width="364.8" height="321.6" rx="14.4" fill="white" fill-opacity="0.02"/>
<path d="M382.2 111.2L11.3999 111.2" stroke="#0B0B0B" stroke-opacity="0.15" stroke-width="1.2" stroke-dasharray="4.8 4.8"/>
<path d="M23.7359 172.4L28.0367 160.472H29.9855L34.2863 172.4H32.7071L31.5143 169.007H26.5079L25.3151 172.4H23.7359ZM26.9951 167.596H31.0271L29.0111 161.732L26.9951 167.596ZM38.5609 172.602C37.6761 172.602 36.9649 172.305 36.4273 171.712C35.9009 171.107 35.6377 170.278 35.6377 169.225V163.496H37.0489V168.839C37.0489 169.701 37.2001 170.34 37.5025 170.754C37.8161 171.157 38.2921 171.359 38.9305 171.359C39.6361 171.359 40.1905 171.135 40.5937 170.687C40.9969 170.228 41.1985 169.6 41.1985 168.805V163.496H42.6097V172.4H41.2657V170.2L41.4841 170.317C41.3049 171.045 40.9633 171.611 40.4593 172.014C39.9553 172.406 39.3225 172.602 38.5609 172.602ZM48.5137 175.122C47.8753 175.122 47.2985 175.016 46.7833 174.803C46.2681 174.59 45.8369 174.288 45.4897 173.896C45.1425 173.504 44.9073 173.05 44.7841 172.535L46.2625 172.434C46.3969 172.848 46.6321 173.173 46.9681 173.408C47.3153 173.655 47.8305 173.778 48.5137 173.778C49.3201 173.778 49.9361 173.616 50.3617 173.291C50.7985 172.966 51.0169 172.479 51.0169 171.829V170.384C50.8041 170.855 50.4625 171.23 49.9921 171.51C49.5217 171.79 48.9953 171.93 48.4129 171.93C47.6625 171.93 46.9905 171.745 46.3969 171.376C45.8145 171.006 45.3553 170.496 45.0193 169.847C44.6945 169.197 44.5321 168.452 44.5321 167.612C44.5321 166.761 44.6945 166.016 45.0193 165.378C45.3441 164.728 45.7921 164.219 46.3633 163.849C46.9457 163.48 47.6065 163.295 48.3457 163.295C48.9729 163.295 49.5329 163.44 50.0257 163.732C50.5297 164.023 50.8825 164.415 51.0841 164.908V163.496H52.4281V171.796C52.4281 172.49 52.2713 173.084 51.9577 173.576C51.6441 174.08 51.1961 174.461 50.6137 174.719C50.0313 174.988 49.3313 175.122 48.5137 175.122ZM48.4801 170.586C49.2417 170.586 49.8521 170.323 50.3113 169.796C50.7705 169.259 51.0057 168.531 51.0169 167.612C51.0281 166.996 50.9273 166.47 50.7145 166.033C50.5129 165.585 50.2161 165.244 49.8241 165.008C49.4433 164.762 48.9953 164.639 48.4801 164.639C47.6961 164.639 47.0857 164.908 46.6489 165.445C46.2233 165.972 46.0105 166.694 46.0105 167.612C46.0105 168.531 46.2289 169.259 46.6657 169.796C47.1137 170.323 47.7185 170.586 48.4801 170.586Z" fill="#737373"/>
<path d="M91.0447 172.669C90.1263 172.669 89.3255 172.496 88.6423 172.148C87.9591 171.801 87.4159 171.325 87.0127 170.72C86.6207 170.104 86.3911 169.393 86.3239 168.587L87.8359 168.486C87.9143 169.08 88.0879 169.584 88.3567 169.998C88.6255 170.412 88.9839 170.726 89.4319 170.939C89.8911 171.152 90.4399 171.258 91.0783 171.258C91.6383 171.258 92.1143 171.185 92.5063 171.04C92.8983 170.894 93.1951 170.681 93.3967 170.401C93.6095 170.121 93.7159 169.78 93.7159 169.376C93.7159 169.007 93.6263 168.682 93.4471 168.402C93.2791 168.111 92.9487 167.848 92.4559 167.612C91.9743 167.366 91.2575 167.125 90.3055 166.89C89.3871 166.655 88.6535 166.397 88.1047 166.117C87.5671 165.837 87.1751 165.496 86.9287 165.092C86.6935 164.689 86.5759 164.191 86.5759 163.597C86.5759 162.925 86.7327 162.337 87.0463 161.833C87.3711 161.318 87.8303 160.92 88.4239 160.64C89.0175 160.349 89.7231 160.204 90.5407 160.204C91.4143 160.204 92.1647 160.372 92.7919 160.708C93.4191 161.032 93.9175 161.48 94.2871 162.052C94.6567 162.623 94.8863 163.272 94.9759 164L93.4639 164.101C93.3967 163.62 93.2399 163.194 92.9935 162.824C92.7583 162.444 92.4335 162.147 92.0191 161.934C91.6047 161.721 91.1007 161.615 90.5071 161.615C89.7679 161.615 89.1799 161.794 88.7431 162.152C88.3063 162.5 88.0879 162.959 88.0879 163.53C88.0879 163.9 88.1719 164.208 88.3399 164.454C88.5191 164.689 88.8327 164.902 89.2807 165.092C89.7287 165.272 90.3727 165.468 91.2127 165.68C92.2095 165.927 92.9991 166.224 93.5815 166.571C94.1751 166.907 94.5951 167.299 94.8415 167.747C95.0991 168.195 95.2279 168.704 95.2279 169.276C95.2279 169.97 95.0487 170.575 94.6903 171.09C94.3319 171.594 93.8391 171.986 93.2119 172.266C92.5847 172.535 91.8623 172.669 91.0447 172.669ZM101.197 172.602C100.357 172.602 99.6293 172.412 99.0133 172.031C98.4085 171.65 97.9381 171.112 97.6021 170.418C97.2773 169.712 97.1149 168.889 97.1149 167.948C97.1149 167.008 97.2773 166.19 97.6021 165.496C97.9381 164.801 98.4029 164.264 98.9965 163.883C99.6013 163.491 100.312 163.295 101.13 163.295C101.903 163.295 102.586 163.48 103.18 163.849C103.773 164.208 104.232 164.734 104.557 165.428C104.893 166.123 105.061 166.968 105.061 167.965V168.385H98.5933C98.6493 169.337 98.9013 170.054 99.3493 170.536C99.8085 171.017 100.424 171.258 101.197 171.258C101.78 171.258 102.256 171.124 102.625 170.855C103.006 170.575 103.269 170.211 103.415 169.763L104.927 169.88C104.692 170.676 104.244 171.331 103.583 171.846C102.933 172.35 102.138 172.602 101.197 172.602ZM98.5933 167.142H103.516C103.448 166.28 103.196 165.647 102.76 165.244C102.334 164.84 101.791 164.639 101.13 164.639C100.447 164.639 99.8813 164.852 99.4333 165.277C98.9965 165.692 98.7165 166.313 98.5933 167.142ZM106.973 174.92V163.496H108.283L108.317 165.412L108.115 165.311C108.339 164.65 108.709 164.152 109.224 163.816C109.75 163.468 110.355 163.295 111.038 163.295C111.923 163.295 112.646 163.513 113.206 163.95C113.777 164.387 114.197 164.958 114.466 165.664C114.746 166.369 114.886 167.131 114.886 167.948C114.886 168.766 114.746 169.528 114.466 170.233C114.197 170.939 113.777 171.51 113.206 171.947C112.646 172.384 111.923 172.602 111.038 172.602C110.579 172.602 110.148 172.524 109.745 172.367C109.353 172.21 109.017 171.992 108.737 171.712C108.468 171.432 108.283 171.101 108.182 170.72L108.384 170.485V174.92H106.973ZM110.904 171.258C111.677 171.258 112.287 170.967 112.735 170.384C113.183 169.802 113.407 168.99 113.407 167.948C113.407 166.907 113.183 166.095 112.735 165.512C112.287 164.93 111.677 164.639 110.904 164.639C110.389 164.639 109.941 164.762 109.56 165.008C109.19 165.255 108.899 165.624 108.686 166.117C108.485 166.61 108.384 167.22 108.384 167.948C108.384 168.676 108.485 169.287 108.686 169.78C108.888 170.272 109.179 170.642 109.56 170.888C109.941 171.135 110.389 171.258 110.904 171.258Z" fill="#737373"/>
<path d="M153.599 172.669C152.468 172.669 151.494 172.423 150.676 171.93C149.87 171.426 149.248 170.709 148.811 169.78C148.374 168.85 148.156 167.741 148.156 166.453C148.156 165.165 148.374 164.056 148.811 163.127C149.248 162.186 149.87 161.464 150.676 160.96C151.494 160.456 152.468 160.204 153.599 160.204C154.742 160.204 155.716 160.456 156.522 160.96C157.34 161.464 157.967 162.186 158.404 163.127C158.841 164.056 159.059 165.165 159.059 166.453C159.059 167.741 158.841 168.85 158.404 169.78C157.967 170.709 157.34 171.426 156.522 171.93C155.716 172.423 154.742 172.669 153.599 172.669ZM153.599 171.258C154.428 171.258 155.134 171.068 155.716 170.687C156.31 170.306 156.763 169.757 157.077 169.04C157.39 168.324 157.547 167.461 157.547 166.453C157.547 165.445 157.39 164.583 157.077 163.866C156.763 163.138 156.31 162.584 155.716 162.203C155.134 161.811 154.428 161.615 153.599 161.615C152.782 161.615 152.076 161.811 151.482 162.203C150.9 162.584 150.452 163.138 150.138 163.866C149.825 164.583 149.668 165.445 149.668 166.453C149.668 167.461 149.825 168.324 150.138 169.04C150.452 169.757 150.9 170.306 151.482 170.687C152.076 171.068 152.782 171.258 153.599 171.258ZM164.871 172.602C164.042 172.602 163.32 172.412 162.704 172.031C162.099 171.65 161.628 171.112 161.292 170.418C160.956 169.712 160.788 168.889 160.788 167.948C160.788 167.008 160.956 166.19 161.292 165.496C161.628 164.801 162.099 164.264 162.704 163.883C163.32 163.491 164.042 163.295 164.871 163.295C165.554 163.295 166.159 163.418 166.685 163.664C167.223 163.9 167.66 164.247 167.996 164.706C168.332 165.165 168.55 165.725 168.651 166.386L167.172 166.487C167.072 165.893 166.814 165.44 166.4 165.126C165.985 164.801 165.476 164.639 164.871 164.639C164.053 164.639 163.415 164.936 162.956 165.529C162.496 166.112 162.267 166.918 162.267 167.948C162.267 168.979 162.496 169.791 162.956 170.384C163.415 170.967 164.053 171.258 164.871 171.258C165.476 171.258 165.985 171.09 166.4 170.754C166.814 170.418 167.072 169.914 167.172 169.242L168.651 169.343C168.55 170.004 168.332 170.58 167.996 171.073C167.66 171.555 167.223 171.93 166.685 172.199C166.159 172.468 165.554 172.602 164.871 172.602ZM173.315 172.4C172.508 172.4 171.909 172.216 171.517 171.846C171.136 171.476 170.946 170.9 170.946 170.116V161.413H172.357V170.082C172.357 170.485 172.447 170.765 172.626 170.922C172.805 171.079 173.08 171.157 173.449 171.157H174.726V172.4H173.315ZM169.636 164.74V163.496H174.726V164.74H169.636Z" fill="#737373"/>
<path d="M207.946 172.4V160.472H209.995L215.892 170.956V160.472H217.337V172.4H215.186L209.39 162.119V172.4H207.946ZM223.543 172.602C222.725 172.602 222.008 172.412 221.392 172.031C220.776 171.65 220.3 171.112 219.964 170.418C219.628 169.712 219.46 168.889 219.46 167.948C219.46 166.996 219.628 166.173 219.964 165.479C220.3 164.784 220.776 164.247 221.392 163.866C222.008 163.485 222.725 163.295 223.543 163.295C224.36 163.295 225.071 163.485 225.676 163.866C226.292 164.247 226.768 164.784 227.104 165.479C227.44 166.173 227.608 166.996 227.608 167.948C227.608 168.889 227.44 169.712 227.104 170.418C226.768 171.112 226.292 171.65 225.676 172.031C225.071 172.412 224.36 172.602 223.543 172.602ZM223.543 171.258C224.36 171.258 224.993 170.967 225.441 170.384C225.9 169.791 226.13 168.979 226.13 167.948C226.13 166.918 225.9 166.112 225.441 165.529C224.993 164.936 224.36 164.639 223.543 164.639C222.725 164.639 222.087 164.936 221.627 165.529C221.168 166.112 220.939 166.918 220.939 167.948C220.939 168.979 221.168 169.791 221.627 170.384C222.087 170.967 222.725 171.258 223.543 171.258ZM231.537 172.4L228.295 163.496H229.84L232.427 170.956L235.015 163.496H236.56L233.318 172.4H231.537Z" fill="#737373"/>
<path d="M269.946 172.4V160.472H273.642C275.478 160.472 276.89 160.993 277.875 162.035C278.872 163.065 279.37 164.538 279.37 166.453C279.37 168.357 278.883 169.824 277.909 170.855C276.934 171.885 275.546 172.4 273.742 172.4H269.946ZM271.39 170.989H273.642C275.042 170.989 276.094 170.614 276.8 169.864C277.506 169.102 277.858 167.965 277.858 166.453C277.858 164.919 277.506 163.776 276.8 163.026C276.094 162.264 275.042 161.884 273.642 161.884H271.39V170.989ZM285.182 172.602C284.342 172.602 283.614 172.412 282.998 172.031C282.393 171.65 281.922 171.112 281.586 170.418C281.262 169.712 281.099 168.889 281.099 167.948C281.099 167.008 281.262 166.19 281.586 165.496C281.922 164.801 282.387 164.264 282.981 163.883C283.586 163.491 284.297 163.295 285.114 163.295C285.887 163.295 286.57 163.48 287.164 163.849C287.758 164.208 288.217 164.734 288.542 165.428C288.878 166.123 289.046 166.968 289.046 167.965V168.385H282.578C282.634 169.337 282.886 170.054 283.334 170.536C283.793 171.017 284.409 171.258 285.182 171.258C285.764 171.258 286.24 171.124 286.61 170.855C286.99 170.575 287.254 170.211 287.399 169.763L288.911 169.88C288.676 170.676 288.228 171.331 287.567 171.846C286.918 172.35 286.122 172.602 285.182 172.602ZM282.578 167.142H287.5C287.433 166.28 287.181 165.647 286.744 165.244C286.318 164.84 285.775 164.639 285.114 164.639C284.431 164.639 283.866 164.852 283.418 165.277C282.981 165.692 282.701 166.313 282.578 167.142ZM294.435 172.602C293.606 172.602 292.884 172.412 292.268 172.031C291.663 171.65 291.192 171.112 290.856 170.418C290.52 169.712 290.352 168.889 290.352 167.948C290.352 167.008 290.52 166.19 290.856 165.496C291.192 164.801 291.663 164.264 292.268 163.883C292.884 163.491 293.606 163.295 294.435 163.295C295.118 163.295 295.723 163.418 296.249 163.664C296.787 163.9 297.224 164.247 297.56 164.706C297.896 165.165 298.114 165.725 298.215 166.386L296.736 166.487C296.636 165.893 296.378 165.44 295.964 165.126C295.549 164.801 295.04 164.639 294.435 164.639C293.617 164.639 292.979 164.936 292.52 165.529C292.06 166.112 291.831 166.918 291.831 167.948C291.831 168.979 292.06 169.791 292.52 170.384C292.979 170.967 293.617 171.258 294.435 171.258C295.04 171.258 295.549 171.09 295.964 170.754C296.378 170.418 296.636 169.914 296.736 169.242L298.215 169.343C298.114 170.004 297.896 170.58 297.56 171.073C297.224 171.555 296.787 171.93 296.249 172.199C295.723 172.468 295.118 172.602 294.435 172.602Z" fill="#737373"/>
<path d="M335.322 172.669C334.583 172.669 333.928 172.496 333.357 172.148C332.786 171.79 332.338 171.297 332.013 170.67C331.699 170.043 331.537 169.32 331.526 168.503L333.004 168.402C333.015 169.32 333.222 170.026 333.626 170.519C334.029 171.012 334.594 171.258 335.322 171.258C336.084 171.258 336.666 170.995 337.07 170.468C337.484 169.942 337.691 169.197 337.691 168.234V160.472H339.136V168.234C339.136 169.141 338.979 169.931 338.666 170.603C338.352 171.264 337.91 171.773 337.338 172.132C336.778 172.49 336.106 172.669 335.322 172.669ZM344.087 172.602C343.168 172.602 342.435 172.389 341.886 171.964C341.348 171.538 341.079 170.944 341.079 170.183C341.079 169.421 341.303 168.822 341.751 168.385C342.199 167.948 342.911 167.64 343.885 167.461L347.043 166.873C347.043 166.123 346.864 165.563 346.506 165.193C346.159 164.824 345.632 164.639 344.927 164.639C344.311 164.639 343.823 164.779 343.465 165.059C343.107 165.328 342.86 165.72 342.726 166.235L341.231 166.117C341.399 165.277 341.802 164.6 342.44 164.084C343.09 163.558 343.919 163.295 344.927 163.295C346.069 163.295 346.943 163.62 347.547 164.269C348.152 164.908 348.455 165.792 348.455 166.924V172.4H347.178L347.127 170.519L347.279 170.552C347.2 170.944 347.004 171.297 346.691 171.611C346.377 171.913 345.991 172.154 345.531 172.333C345.072 172.512 344.591 172.602 344.087 172.602ZM344.221 171.359C344.815 171.359 345.319 171.247 345.733 171.023C346.159 170.788 346.483 170.474 346.707 170.082C346.931 169.679 347.043 169.231 347.043 168.738V168.1L344.154 168.637C343.549 168.749 343.129 168.923 342.894 169.158C342.67 169.382 342.558 169.679 342.558 170.048C342.558 170.463 342.703 170.788 342.995 171.023C343.297 171.247 343.706 171.359 344.221 171.359ZM350.808 172.4V163.496H352.102L352.152 165.764L351.984 165.613C352.096 165.087 352.292 164.656 352.572 164.32C352.852 163.972 353.188 163.715 353.58 163.547C353.983 163.379 354.414 163.295 354.874 163.295C355.557 163.295 356.117 163.446 356.554 163.748C357.002 164.051 357.332 164.46 357.545 164.975C357.769 165.479 357.881 166.044 357.881 166.672V172.4H356.47V167.075C356.47 166.526 356.402 166.067 356.268 165.697C356.145 165.316 355.943 165.031 355.663 164.84C355.383 164.639 355.019 164.538 354.571 164.538C353.888 164.538 353.322 164.756 352.874 165.193C352.438 165.619 352.219 166.246 352.219 167.075V172.4H350.808Z" fill="#737373"/>
<path d="M377.403 49.9971L6.60303 49.9971" stroke="#EC2222" stroke-width="1.2" stroke-dasharray="4.8 4.8"/>
<rect x="23.3999" y="192.8" width="38.4" height="38.4" rx="19.2" fill="#22CCEE" fill-opacity="0.1"/>
<path d="M33.603 201.999V208.999C33.603 210.099 34.503 210.999 35.603 210.999H39.603C40.1335 210.999 40.6422 210.788 41.0172 210.413C41.3923 210.038 41.603 209.529 41.603 208.999V201.999M37.603 201.999V221.999M51.603 214.999V201.999C50.2769 201.999 49.0052 202.526 48.0675 203.463C47.1298 204.401 46.603 205.673 46.603 206.999V212.999C46.603 214.099 47.503 214.999 48.603 214.999H51.603ZM51.603 214.999V221.999" stroke="#06AED4" stroke-width="1.8" stroke-linecap="round" stroke-linejoin="round"/>
<path d="M31.7519 276.192V250.56H33.9407V276.192H31.7519ZM33.0767 274.003C31.4831 274.003 30.1007 273.715 28.9295 273.139C27.7583 272.544 26.8271 271.728 26.1359 270.691C25.4639 269.654 25.0703 268.454 24.9551 267.091L28.0943 266.918C28.2095 267.84 28.4783 268.627 28.9007 269.28C29.3231 269.913 29.8799 270.403 30.5711 270.748C31.2815 271.075 32.1359 271.238 33.1343 271.238C33.9983 271.238 34.7375 271.132 35.3519 270.921C35.9663 270.691 36.4271 270.364 36.7343 269.942C37.0607 269.52 37.2239 268.992 37.2239 268.358C37.2239 267.782 37.0895 267.283 36.8207 266.86C36.5519 266.419 36.0335 266.016 35.2655 265.651C34.4975 265.267 33.3743 264.902 31.8959 264.556C30.3023 264.172 29.0255 263.74 28.0655 263.26C27.1055 262.78 26.4143 262.195 25.9919 261.504C25.5887 260.793 25.3871 259.91 25.3871 258.854C25.3871 257.721 25.6655 256.723 26.2223 255.859C26.7791 254.976 27.5663 254.294 28.5839 253.814C29.6207 253.315 30.8591 253.065 32.2991 253.065C33.8351 253.065 35.1407 253.344 36.2159 253.9C37.3103 254.457 38.1743 255.225 38.8079 256.204C39.4415 257.184 39.8351 258.307 39.9887 259.574L36.8495 259.747C36.7535 258.998 36.5135 258.326 36.1295 257.731C35.7647 257.136 35.2559 256.675 34.6031 256.348C33.9503 256.003 33.1631 255.83 32.2415 255.83C31.0895 255.83 30.1775 256.099 29.5055 256.636C28.8335 257.174 28.4975 257.884 28.4975 258.768C28.4975 259.344 28.6319 259.824 28.9007 260.208C29.1887 260.592 29.6783 260.928 30.3695 261.216C31.0799 261.504 32.0879 261.801 33.3935 262.108C35.1215 262.512 36.4943 263.001 37.5119 263.577C38.5295 264.134 39.2591 264.796 39.7007 265.564C40.1423 266.332 40.3631 267.206 40.3631 268.185C40.3631 269.376 40.0559 270.412 39.4415 271.296C38.8271 272.16 37.9727 272.832 36.8783 273.312C35.7839 273.772 34.5167 274.003 33.0767 274.003ZM43.6054 273.6C43.6054 272.064 43.8358 270.691 44.2966 269.481C44.7574 268.272 45.5446 267.148 46.6582 266.112C47.7718 265.075 49.3078 264.038 51.2662 263.001C52.207 262.521 52.9558 262.08 53.5126 261.676C54.0886 261.254 54.5014 260.822 54.751 260.38C55.0006 259.939 55.1254 259.401 55.1254 258.768C55.1254 258.115 54.9814 257.558 54.6934 257.097C54.4246 256.617 54.0214 256.243 53.4838 255.974C52.9462 255.686 52.2646 255.542 51.439 255.542C50.1334 255.542 49.0966 255.897 48.3286 256.608C47.5798 257.299 47.1094 258.297 46.9174 259.603L43.6918 259.401C43.9222 257.347 44.6998 255.715 46.0246 254.505C47.3686 253.296 49.1734 252.691 51.439 252.691C52.8982 252.691 54.1366 252.95 55.1542 253.468C56.191 253.968 56.9782 254.668 57.5158 255.571C58.0726 256.473 58.351 257.52 58.351 258.71C58.351 259.747 58.1782 260.64 57.8326 261.388C57.487 262.137 56.911 262.838 56.1046 263.491C55.2982 264.124 54.2038 264.806 52.8214 265.536C51.055 266.476 49.7206 267.408 48.8182 268.329C47.9158 269.232 47.4358 270.038 47.3782 270.748H58.351V273.6H43.6054ZM69.0612 274.06C67.506 274.06 66.1332 273.83 64.9428 273.369C63.7524 272.908 62.8212 272.227 62.1492 271.324C61.4964 270.422 61.17 269.318 61.17 268.012C61.17 266.515 61.6212 265.276 62.5236 264.297C63.426 263.318 64.6356 262.665 66.1524 262.339L66.21 262.915C64.9812 262.627 63.9924 262.099 63.2436 261.331C62.514 260.563 62.1492 259.555 62.1492 258.307C62.1492 257.212 62.4276 256.243 62.9844 255.398C63.5412 254.553 64.3284 253.891 65.346 253.411C66.3828 252.931 67.6212 252.691 69.0612 252.691C70.482 252.691 71.7108 252.931 72.7476 253.411C73.7844 253.891 74.5716 254.553 75.1092 255.398C75.666 256.243 75.9444 257.212 75.9444 258.307C75.9444 259.555 75.5796 260.563 74.85 261.331C74.1204 262.08 73.1316 262.608 71.8836 262.915L71.9412 262.339C73.4772 262.665 74.6964 263.318 75.5988 264.297C76.5012 265.276 76.9524 266.515 76.9524 268.012C76.9524 269.318 76.6164 270.422 75.9444 271.324C75.2916 272.227 74.37 272.908 73.1796 273.369C71.9892 273.83 70.6164 274.06 69.0612 274.06ZM69.0612 271.209C70.482 271.209 71.6052 270.921 72.4308 270.345C73.2756 269.75 73.698 268.867 73.698 267.696C73.698 266.582 73.314 265.689 72.546 265.017C71.7972 264.345 70.6356 264.009 69.0612 264.009C67.4868 264.009 66.3156 264.345 65.5476 265.017C64.7796 265.689 64.3956 266.582 64.3956 267.696C64.3956 268.867 64.818 269.75 65.6628 270.345C66.5076 270.921 67.6404 271.209 69.0612 271.209ZM69.0612 261.446C70.2324 261.446 71.1348 261.206 71.7684 260.726C72.4212 260.227 72.7476 259.468 72.7476 258.451C72.7476 257.568 72.4308 256.857 71.7972 256.32C71.1828 255.782 70.2708 255.513 69.0612 255.513C67.8516 255.513 66.93 255.782 66.2964 256.32C65.6628 256.857 65.346 257.568 65.346 258.451C65.346 259.468 65.6724 260.227 66.3252 260.726C66.978 261.206 67.89 261.446 69.0612 261.446ZM89.1636 273.6V269.337H78.8532V266.688L88.7892 253.152H92.274V266.515H94.7796V269.337H92.274V273.6H89.1636ZM82.3956 266.515H89.1636V257.472L82.3956 266.515ZM97.3689 273.6V269.971H101.084V273.6H97.3689ZM111.478 274.06C109.961 274.06 108.665 273.82 107.59 273.34C106.515 272.841 105.67 272.15 105.055 271.267C104.441 270.384 104.086 269.366 103.99 268.214L107.187 268.012C107.34 269.088 107.791 269.894 108.54 270.432C109.308 270.95 110.287 271.209 111.478 271.209C112.822 271.209 113.878 270.835 114.646 270.086C115.433 269.337 115.827 268.291 115.827 266.947C115.827 266.064 115.644 265.305 115.279 264.672C114.934 264.019 114.435 263.52 113.782 263.174C113.129 262.809 112.351 262.627 111.449 262.627C110.547 262.627 109.74 262.819 109.03 263.203C108.319 263.587 107.811 264.115 107.503 264.787H104.278L105.66 253.152H117.641V256.003H108.425L107.561 263.001L107.071 262.569C107.398 261.993 107.811 261.523 108.31 261.158C108.809 260.774 109.385 260.486 110.038 260.294C110.71 260.083 111.42 259.977 112.169 259.977C113.551 259.977 114.751 260.275 115.769 260.87C116.806 261.465 117.612 262.291 118.188 263.347C118.764 264.403 119.052 265.603 119.052 266.947C119.052 268.348 118.735 269.587 118.102 270.662C117.468 271.737 116.585 272.572 115.452 273.168C114.319 273.763 112.995 274.06 111.478 274.06ZM129.928 274.06C128.411 274.06 127.115 273.82 126.04 273.34C124.965 272.841 124.12 272.15 123.505 271.267C122.891 270.384 122.536 269.366 122.44 268.214L125.637 268.012C125.79 269.088 126.241 269.894 126.99 270.432C127.758 270.95 128.737 271.209 129.928 271.209C131.272 271.209 132.328 270.835 133.096 270.086C133.883 269.337 134.277 268.291 134.277 266.947C134.277 266.064 134.094 265.305 133.729 264.672C133.384 264.019 132.885 263.52 132.232 263.174C131.579 262.809 130.801 262.627 129.899 262.627C128.997 262.627 128.19 262.819 127.48 263.203C126.769 263.587 126.261 264.115 125.953 264.787H122.728L124.11 253.152H136.091V256.003H126.875L126.011 263.001L125.521 262.569C125.848 261.993 126.261 261.523 126.76 261.158C127.259 260.774 127.835 260.486 128.488 260.294C129.16 260.083 129.87 259.977 130.619 259.977C132.001 259.977 133.201 260.275 134.219 260.87C135.256 261.465 136.062 262.291 136.638 263.347C137.214 264.403 137.502 265.603 137.502 266.947C137.502 268.348 137.185 269.587 136.552 270.662C135.918 271.737 135.035 272.572 133.902 273.168C132.769 273.763 131.445 274.06 129.928 274.06ZM154.258 273.945C152.818 273.945 151.598 273.724 150.6 273.283C149.621 272.841 148.862 272.236 148.325 271.468C147.787 270.681 147.48 269.779 147.403 268.761L150.542 268.617C150.696 269.462 151.061 270.134 151.637 270.633C152.213 271.132 153.086 271.382 154.258 271.382C155.218 271.382 155.976 271.228 156.533 270.921C157.09 270.614 157.368 270.124 157.368 269.452C157.368 269.088 157.272 268.78 157.08 268.531C156.907 268.262 156.562 268.041 156.043 267.868C155.525 267.676 154.757 267.494 153.739 267.321C152.222 267.033 151.032 266.697 150.168 266.313C149.304 265.929 148.69 265.44 148.325 264.844C147.96 264.249 147.778 263.529 147.778 262.684C147.778 261.283 148.296 260.14 149.333 259.257C150.389 258.374 151.906 257.932 153.883 257.932C155.208 257.932 156.322 258.163 157.224 258.624C158.126 259.065 158.827 259.67 159.326 260.438C159.845 261.187 160.171 262.032 160.306 262.972L157.166 263.145C157.07 262.608 156.878 262.147 156.59 261.763C156.322 261.36 155.957 261.052 155.496 260.841C155.035 260.611 154.488 260.496 153.854 260.496C152.875 260.496 152.146 260.688 151.666 261.072C151.186 261.456 150.946 261.955 150.946 262.569C150.946 263.03 151.051 263.404 151.262 263.692C151.493 263.98 151.858 264.22 152.357 264.412C152.856 264.585 153.518 264.739 154.344 264.873C155.938 265.142 157.186 265.478 158.088 265.881C158.99 266.265 159.624 266.745 159.989 267.321C160.354 267.897 160.536 268.598 160.536 269.424C160.536 270.384 160.267 271.2 159.73 271.872C159.192 272.544 158.453 273.062 157.512 273.427C156.571 273.772 155.486 273.945 154.258 273.945ZM163.626 277.92V258.278H166.506L166.592 261.561L166.246 261.388C166.63 260.256 167.264 259.401 168.147 258.825C169.03 258.23 170.048 257.932 171.2 257.932C172.698 257.932 173.926 258.307 174.886 259.056C175.866 259.785 176.586 260.755 177.046 261.964C177.526 263.174 177.766 264.499 177.766 265.939C177.766 267.379 177.526 268.704 177.046 269.913C176.586 271.123 175.866 272.102 174.886 272.851C173.926 273.58 172.698 273.945 171.2 273.945C170.432 273.945 169.712 273.811 169.04 273.542C168.368 273.273 167.792 272.899 167.312 272.419C166.851 271.92 166.525 271.334 166.333 270.662L166.678 270.316V277.92H163.626ZM170.653 271.296C171.882 271.296 172.842 270.825 173.533 269.884C174.243 268.944 174.598 267.628 174.598 265.939C174.598 264.249 174.243 262.934 173.533 261.993C172.842 261.052 171.882 260.582 170.653 260.582C169.846 260.582 169.146 260.784 168.55 261.187C167.955 261.571 167.494 262.166 167.168 262.972C166.842 263.779 166.678 264.768 166.678 265.939C166.678 267.11 166.832 268.099 167.139 268.905C167.466 269.712 167.926 270.316 168.522 270.72C169.136 271.104 169.846 271.296 170.653 271.296ZM187.173 273.945C185.676 273.945 184.38 273.619 183.285 272.966C182.21 272.313 181.375 271.382 180.78 270.172C180.204 268.963 179.916 267.552 179.916 265.939C179.916 264.326 180.204 262.924 180.78 261.734C181.375 260.524 182.21 259.593 183.285 258.94C184.361 258.268 185.628 257.932 187.087 257.932C188.469 257.932 189.689 258.259 190.745 258.912C191.801 259.545 192.617 260.467 193.193 261.676C193.788 262.886 194.085 264.345 194.085 266.054V266.832H183.084C183.161 268.329 183.554 269.452 184.265 270.201C184.994 270.95 185.973 271.324 187.202 271.324C188.105 271.324 188.853 271.113 189.449 270.691C190.044 270.268 190.457 269.702 190.687 268.992L193.855 269.193C193.452 270.614 192.655 271.766 191.465 272.649C190.293 273.513 188.863 273.945 187.173 273.945ZM183.084 264.528H190.86C190.764 263.164 190.37 262.156 189.679 261.504C189.007 260.851 188.143 260.524 187.087 260.524C185.993 260.524 185.09 260.87 184.38 261.561C183.689 262.233 183.257 263.222 183.084 264.528ZM197.179 273.6V258.278H199.972L200.087 262.368L199.713 262.166C199.886 261.168 200.212 260.361 200.692 259.747C201.172 259.132 201.758 258.681 202.449 258.393C203.14 258.086 203.889 257.932 204.695 257.932C205.847 257.932 206.798 258.192 207.547 258.71C208.315 259.209 208.891 259.9 209.275 260.784C209.678 261.648 209.879 262.636 209.879 263.75V273.6H206.827V264.672C206.827 263.769 206.731 263.011 206.539 262.396C206.347 261.782 206.03 261.312 205.588 260.985C205.147 260.659 204.571 260.496 203.86 260.496C202.785 260.496 201.911 260.851 201.239 261.561C200.567 262.272 200.231 263.308 200.231 264.672V273.6H197.179ZM218.973 273.6C217.513 273.6 216.438 273.264 215.747 272.592C215.056 271.92 214.71 270.873 214.71 269.452V254.678H217.763V269.222C217.763 269.932 217.917 270.422 218.224 270.691C218.531 270.96 219.001 271.094 219.635 271.094H221.824V273.6H218.973ZM212.377 260.784V258.278H221.824V260.784H212.377Z" fill="white"/>
<path d="M24.6341 300.267V298.721H32.7317V300.267H24.6341ZM27.9101 303.543V295.445H29.4557V303.543H27.9101ZM38.1179 305.911V290.943H39.4115V305.911H38.1179ZM38.9075 304.635C38.0451 304.635 37.2891 304.467 36.6395 304.131C36.0011 303.783 35.4915 303.302 35.1107 302.686C34.7299 302.07 34.5059 301.347 34.4387 300.519L36.2195 300.401C36.2979 300.972 36.4547 301.454 36.6899 301.846C36.9251 302.238 37.2331 302.535 37.6139 302.736C37.9947 302.927 38.4427 303.022 38.9579 303.022C39.4843 303.022 39.9211 302.96 40.2683 302.837C40.6155 302.703 40.8787 302.512 41.0579 302.266C41.2371 302.019 41.3267 301.723 41.3267 301.375C41.3267 301.017 41.2427 300.715 41.0747 300.468C40.9179 300.211 40.6155 299.981 40.1675 299.779C39.7195 299.578 39.0587 299.365 38.1851 299.141C37.3899 298.928 36.7347 298.676 36.2195 298.385C35.7043 298.083 35.3235 297.719 35.0771 297.293C34.8419 296.867 34.7243 296.369 34.7243 295.798C34.7243 295.115 34.8811 294.527 35.1947 294.034C35.5195 293.53 35.9787 293.143 36.5723 292.875C37.1659 292.595 37.8827 292.455 38.7227 292.455C39.5515 292.455 40.2571 292.611 40.8395 292.925C41.4331 293.227 41.8979 293.659 42.2339 294.219C42.5811 294.779 42.7939 295.439 42.8723 296.201L41.0915 296.302C41.0355 295.843 40.9123 295.445 40.7219 295.109C40.5315 294.773 40.2683 294.515 39.9323 294.336C39.5963 294.157 39.1763 294.067 38.6723 294.067C37.9779 294.067 37.4347 294.213 37.0427 294.504C36.6507 294.795 36.4547 295.199 36.4547 295.714C36.4547 296.061 36.5331 296.347 36.6899 296.571C36.8467 296.795 37.1211 296.996 37.5131 297.175C37.9051 297.343 38.4651 297.528 39.1931 297.73C40.1563 297.987 40.9179 298.279 41.4779 298.603C42.0491 298.917 42.4579 299.298 42.7043 299.746C42.9507 300.183 43.0739 300.726 43.0739 301.375C43.0739 302.025 42.9003 302.596 42.5531 303.089C42.2059 303.582 41.7187 303.963 41.0915 304.231C40.4755 304.5 39.7475 304.635 38.9075 304.635ZM48.8297 304.668C48.0121 304.668 47.2785 304.534 46.6289 304.265C45.9905 303.996 45.4865 303.599 45.1169 303.072C44.7473 302.546 44.5625 301.896 44.5625 301.123C44.5625 300.261 44.8201 299.544 45.3353 298.973C45.8617 298.402 46.5617 298.021 47.4353 297.831L47.4689 298.167C46.7633 297.987 46.1921 297.679 45.7553 297.243C45.3185 296.806 45.1001 296.218 45.1001 295.479C45.1001 294.851 45.2569 294.291 45.5705 293.799C45.8953 293.306 46.3377 292.919 46.8977 292.639C47.4577 292.348 48.1017 292.203 48.8297 292.203C49.5577 292.203 50.2017 292.348 50.7617 292.639C51.3329 292.919 51.7753 293.306 52.0889 293.799C52.4025 294.291 52.5593 294.851 52.5593 295.479C52.5593 296.218 52.3409 296.806 51.9041 297.243C51.4785 297.679 50.9073 297.987 50.1905 298.167L50.2241 297.831C51.0977 298.032 51.7921 298.419 52.3073 298.99C52.8337 299.55 53.0969 300.261 53.0969 301.123C53.0969 301.896 52.9121 302.546 52.5425 303.072C52.1729 303.599 51.6689 303.996 51.0305 304.265C50.3921 304.534 49.6585 304.668 48.8297 304.668ZM48.8297 303.022C49.5353 303.022 50.1177 302.859 50.5769 302.535C51.0361 302.199 51.2657 301.683 51.2657 300.989C51.2657 300.339 51.0585 299.824 50.6441 299.443C50.2409 299.051 49.6361 298.855 48.8297 298.855C48.0345 298.855 47.4297 299.051 47.0153 299.443C46.6009 299.824 46.3937 300.339 46.3937 300.989C46.3937 301.683 46.6233 302.199 47.0825 302.535C47.5417 302.859 48.1241 303.022 48.8297 303.022ZM48.8297 297.276C49.4009 297.276 49.8601 297.131 50.2073 296.839C50.5545 296.548 50.7281 296.111 50.7281 295.529C50.7281 295.014 50.5545 294.605 50.2073 294.303C49.8713 294 49.4121 293.849 48.8297 293.849C48.2473 293.849 47.7825 294 47.4353 294.303C47.0993 294.605 46.9313 295.014 46.9313 295.529C46.9313 296.111 47.1049 296.548 47.4521 296.839C47.7993 297.131 48.2585 297.276 48.8297 297.276ZM58.9032 304.668C58.0856 304.668 57.352 304.534 56.7024 304.265C56.064 303.996 55.56 303.599 55.1904 303.072C54.8208 302.546 54.636 301.896 54.636 301.123C54.636 300.261 54.8936 299.544 55.4088 298.973C55.9352 298.402 56.6352 298.021 57.5088 297.831L57.5424 298.167C56.8368 297.987 56.2656 297.679 55.8288 297.243C55.392 296.806 55.1736 296.218 55.1736 295.479C55.1736 294.851 55.3304 294.291 55.644 293.799C55.9688 293.306 56.4112 292.919 56.9712 292.639C57.5312 292.348 58.1752 292.203 58.9032 292.203C59.6312 292.203 60.2752 292.348 60.8352 292.639C61.4064 292.919 61.8488 293.306 62.1624 293.799C62.476 294.291 62.6328 294.851 62.6328 295.479C62.6328 296.218 62.4144 296.806 61.9776 297.243C61.552 297.679 60.9808 297.987 60.264 298.167L60.2976 297.831C61.1712 298.032 61.8656 298.419 62.3808 298.99C62.9072 299.55 63.1704 300.261 63.1704 301.123C63.1704 301.896 62.9856 302.546 62.616 303.072C62.2464 303.599 61.7424 303.996 61.104 304.265C60.4656 304.534 59.732 304.668 58.9032 304.668ZM58.9032 303.022C59.6088 303.022 60.1912 302.859 60.6504 302.535C61.1096 302.199 61.3392 301.683 61.3392 300.989C61.3392 300.339 61.132 299.824 60.7176 299.443C60.3144 299.051 59.7096 298.855 58.9032 298.855C58.108 298.855 57.5032 299.051 57.0888 299.443C56.6744 299.824 56.4672 300.339 56.4672 300.989C56.4672 301.683 56.6968 302.199 57.156 302.535C57.6152 302.859 58.1976 303.022 58.9032 303.022ZM58.9032 297.276C59.4744 297.276 59.9336 297.131 60.2808 296.839C60.628 296.548 60.8016 296.111 60.8016 295.529C60.8016 295.014 60.628 294.605 60.2808 294.303C59.9448 294 59.4856 293.849 58.9032 293.849C58.3208 293.849 57.856 294 57.5088 294.303C57.1728 294.605 57.0048 295.014 57.0048 295.529C57.0048 296.111 57.1784 296.548 57.5256 296.839C57.8728 297.131 58.332 297.276 58.9032 297.276ZM67.8342 304.399V302.182H70.119V304.399H67.8342ZM78.9493 304.668C77.6389 304.668 76.6365 304.355 75.9421 303.727C75.2477 303.1 74.8725 302.277 74.8165 301.258L76.6141 301.14C76.6813 301.823 76.9277 302.311 77.3533 302.602C77.7901 302.882 78.3277 303.022 78.9661 303.022C79.4029 303.022 79.8117 302.955 80.1925 302.82C80.5733 302.686 80.8757 302.473 81.0997 302.182C81.3349 301.891 81.4525 301.499 81.4525 301.006C81.4525 300.524 81.3461 300.127 81.1333 299.813C80.9317 299.499 80.6405 299.27 80.2597 299.124C79.8901 298.967 79.4645 298.889 78.9829 298.889H78.0589V297.31H78.9829C79.3637 297.31 79.7109 297.254 80.0245 297.142C80.3381 297.03 80.5845 296.845 80.7637 296.587C80.9541 296.33 81.0493 295.999 81.0493 295.596C81.0493 295.014 80.8701 294.577 80.5117 294.286C80.1645 293.995 79.6661 293.849 79.0165 293.849C78.3445 293.849 77.8349 293.989 77.4877 294.269C77.1517 294.549 76.9445 294.935 76.8661 295.428L75.0517 295.311C75.1749 294.381 75.5725 293.631 76.2445 293.059C76.9277 292.488 77.8573 292.203 79.0333 292.203C79.8173 292.203 80.4949 292.337 81.0661 292.606C81.6485 292.863 82.0965 293.233 82.4101 293.715C82.7237 294.196 82.8805 294.773 82.8805 295.445C82.8805 296.184 82.6453 296.783 82.1749 297.243C81.7157 297.691 81.0437 297.999 80.1589 298.167V297.847C81.1221 297.959 81.8837 298.307 82.4437 298.889C83.0037 299.46 83.2837 300.183 83.2837 301.056C83.2837 301.818 83.0989 302.467 82.7293 303.005C82.3709 303.543 81.8613 303.957 81.2005 304.248C80.5509 304.528 79.8005 304.668 78.9493 304.668ZM88.6699 304.399V295.899H85.6123V294.403H87.1243C87.5611 294.403 87.9139 294.342 88.1827 294.219C88.4515 294.084 88.6475 293.877 88.7707 293.597C88.8939 293.317 88.9555 292.942 88.9555 292.471H90.4339V304.399H88.6699ZM85.0243 304.399V302.736H93.2227V304.399H85.0243Z" fill="#EC2222"/>
<path d="M107.179 306.247C106.406 305.071 105.824 303.879 105.432 302.669C105.051 301.459 104.861 300.244 104.861 299.023C104.861 296.548 105.633 294.14 107.179 291.799H108.758C107.358 294.219 106.658 296.627 106.658 299.023C106.658 300.222 106.832 301.426 107.179 302.635C107.537 303.834 108.064 305.038 108.758 306.247H107.179ZM112.834 300.267V298.721H120.932V300.267H112.834ZM116.11 303.543V295.445H117.656V303.543H116.11ZM128.199 304.399V301.879H122.521V300.351L128.015 292.471H129.963V300.25H131.391V301.879H129.963V304.399H128.199ZM124.251 300.25H128.199V294.823L124.251 300.25ZM136.996 304.668C136.201 304.668 135.506 304.528 134.913 304.248C134.33 303.957 133.866 303.559 133.518 303.055C133.182 302.54 132.986 301.952 132.93 301.291L134.762 301.174C134.84 301.79 135.075 302.255 135.467 302.568C135.859 302.871 136.369 303.022 136.996 303.022C137.702 303.022 138.262 302.809 138.676 302.383C139.09 301.947 139.298 301.331 139.298 300.535C139.298 300.02 139.202 299.572 139.012 299.191C138.833 298.811 138.575 298.525 138.239 298.335C137.903 298.133 137.5 298.032 137.03 298.032C136.593 298.032 136.178 298.144 135.786 298.368C135.406 298.581 135.137 298.878 134.98 299.259L133.115 299.225L133.888 292.471H140.457V294.135H135.417L134.93 298.251L134.577 297.999C134.756 297.663 134.986 297.383 135.266 297.159C135.557 296.935 135.876 296.767 136.223 296.655C136.582 296.531 136.94 296.47 137.298 296.47C138.071 296.47 138.743 296.643 139.314 296.991C139.897 297.338 140.345 297.819 140.658 298.435C140.972 299.051 141.129 299.757 141.129 300.552C141.129 301.347 140.955 302.059 140.608 302.686C140.261 303.313 139.774 303.8 139.146 304.147C138.53 304.495 137.814 304.668 136.996 304.668ZM145.961 304.399V302.182H148.246V304.399H145.961ZM152.943 304.399C152.943 303.515 153.072 302.725 153.329 302.031C153.587 301.336 154.041 300.687 154.69 300.082C155.351 299.466 156.264 298.85 157.429 298.234C157.933 297.976 158.341 297.73 158.655 297.495C158.969 297.259 159.198 297.007 159.344 296.739C159.489 296.47 159.562 296.145 159.562 295.764C159.562 295.372 159.484 295.036 159.327 294.756C159.17 294.476 158.935 294.258 158.621 294.101C158.308 293.933 157.916 293.849 157.445 293.849C156.684 293.849 156.085 294.051 155.648 294.454C155.222 294.857 154.953 295.434 154.841 296.184L153.01 296.067C153.133 294.891 153.576 293.955 154.337 293.261C155.099 292.555 156.135 292.203 157.445 292.203C158.297 292.203 159.013 292.348 159.596 292.639C160.189 292.931 160.637 293.339 160.94 293.866C161.242 294.392 161.393 295.003 161.393 295.697C161.393 296.313 161.293 296.845 161.091 297.293C160.889 297.741 160.553 298.155 160.083 298.536C159.613 298.917 158.969 299.326 158.151 299.763C157.468 300.132 156.897 300.496 156.437 300.855C155.989 301.202 155.648 301.538 155.413 301.863C155.189 302.176 155.065 302.467 155.043 302.736H161.41V304.399H152.943ZM168.493 304.399V301.879H162.815V300.351L168.308 292.471H170.257V300.25H171.685V301.879H170.257V304.399H168.493ZM164.545 300.25H168.493V294.823L164.545 300.25ZM174.854 298.251C174.171 298.251 173.594 297.999 173.123 297.495C172.653 296.991 172.418 296.257 172.418 295.294C172.418 294.319 172.653 293.586 173.123 293.093C173.594 292.589 174.171 292.337 174.854 292.337C175.548 292.337 176.125 292.589 176.584 293.093C177.055 293.586 177.29 294.319 177.29 295.294C177.29 296.257 177.055 296.991 176.584 297.495C176.125 297.999 175.548 298.251 174.854 298.251ZM174.854 297.125C175.19 297.125 175.453 296.968 175.643 296.655C175.845 296.341 175.946 295.887 175.946 295.294C175.946 294.7 175.845 294.247 175.643 293.933C175.453 293.619 175.19 293.463 174.854 293.463C174.518 293.463 174.249 293.619 174.047 293.933C173.857 294.247 173.762 294.7 173.762 295.294C173.762 295.887 173.857 296.341 174.047 296.655C174.249 296.968 174.518 297.125 174.854 297.125ZM173.107 304.399L180.179 292.471H181.54L174.467 304.399H173.107ZM179.793 304.534C179.099 304.534 178.516 304.282 178.046 303.778C177.587 303.274 177.357 302.54 177.357 301.577C177.357 300.603 177.587 299.869 178.046 299.376C178.516 298.872 179.099 298.62 179.793 298.62C180.476 298.62 181.053 298.872 181.523 299.376C181.994 299.869 182.229 300.603 182.229 301.577C182.229 302.54 181.994 303.274 181.523 303.778C181.053 304.282 180.476 304.534 179.793 304.534ZM179.793 303.408C180.129 303.408 180.392 303.251 180.583 302.938C180.784 302.624 180.885 302.171 180.885 301.577C180.885 300.983 180.784 300.53 180.583 300.216C180.392 299.903 180.129 299.746 179.793 299.746C179.457 299.746 179.188 299.903 178.987 300.216C178.796 300.53 178.701 300.983 178.701 301.577C178.701 302.171 178.796 302.624 178.987 302.938C179.188 303.251 179.457 303.408 179.793 303.408ZM187.027 306.247H185.448C186.142 305.038 186.663 303.834 187.01 302.635C187.369 301.426 187.548 300.222 187.548 299.023C187.548 296.627 186.848 294.219 185.448 291.799H187.027C188.573 294.14 189.346 296.548 189.346 299.023C189.346 300.244 189.15 301.459 188.758 302.669C188.377 303.879 187.8 305.071 187.027 306.247Z" fill="#EC2222"/>
<path d="M203.647 304.399L200.405 295.495H201.95L204.537 302.955L207.125 295.495H208.67L205.428 304.399H203.647ZM213.185 304.601C212.39 304.601 211.713 304.472 211.153 304.215C210.604 303.957 210.173 303.604 209.859 303.156C209.557 302.697 209.383 302.176 209.338 301.594L210.817 301.493C210.906 302.031 211.136 302.462 211.505 302.787C211.875 303.1 212.435 303.257 213.185 303.257C213.79 303.257 214.272 303.162 214.63 302.971C215 302.77 215.185 302.451 215.185 302.014C215.185 301.779 215.129 301.583 215.017 301.426C214.905 301.269 214.686 301.135 214.361 301.023C214.037 300.899 213.555 300.782 212.917 300.67C212.065 300.513 211.393 300.323 210.901 300.099C210.419 299.863 210.072 299.578 209.859 299.242C209.657 298.895 209.557 298.486 209.557 298.015C209.557 297.22 209.848 296.571 210.43 296.067C211.013 295.551 211.841 295.294 212.917 295.294C213.645 295.294 214.255 295.428 214.748 295.697C215.252 295.955 215.644 296.302 215.924 296.739C216.215 297.164 216.405 297.635 216.495 298.15L215.017 298.251C214.949 297.937 214.826 297.663 214.647 297.427C214.468 297.181 214.233 296.991 213.941 296.856C213.65 296.711 213.303 296.638 212.9 296.638C212.261 296.638 211.791 296.761 211.489 297.007C211.186 297.254 211.035 297.567 211.035 297.948C211.035 298.239 211.102 298.48 211.237 298.671C211.382 298.85 211.612 299.001 211.925 299.124C212.239 299.236 212.659 299.337 213.185 299.427C214.093 299.583 214.798 299.774 215.302 299.998C215.806 300.222 216.159 300.496 216.361 300.821C216.562 301.146 216.663 301.543 216.663 302.014C216.663 302.563 216.506 303.033 216.193 303.425C215.89 303.806 215.476 304.097 214.949 304.299C214.434 304.5 213.846 304.601 213.185 304.601ZM222.953 306.919V295.495H224.264L224.297 297.411L224.096 297.31C224.32 296.649 224.689 296.151 225.204 295.815C225.731 295.467 226.336 295.294 227.019 295.294C227.904 295.294 228.626 295.512 229.186 295.949C229.757 296.386 230.177 296.957 230.446 297.663C230.726 298.368 230.866 299.13 230.866 299.947C230.866 300.765 230.726 301.527 230.446 302.232C230.177 302.938 229.757 303.509 229.186 303.946C228.626 304.383 227.904 304.601 227.019 304.601C226.56 304.601 226.128 304.523 225.725 304.366C225.333 304.209 224.997 303.991 224.717 303.711C224.448 303.431 224.264 303.1 224.163 302.719L224.364 302.484V306.919H222.953ZM226.884 303.257C227.657 303.257 228.268 302.966 228.716 302.383C229.164 301.801 229.388 300.989 229.388 299.947C229.388 298.906 229.164 298.094 228.716 297.511C228.268 296.929 227.657 296.638 226.884 296.638C226.369 296.638 225.921 296.761 225.54 297.007C225.171 297.254 224.88 297.623 224.667 298.116C224.465 298.609 224.364 299.219 224.364 299.947C224.364 300.675 224.465 301.286 224.667 301.779C224.868 302.271 225.16 302.641 225.54 302.887C225.921 303.134 226.369 303.257 226.884 303.257ZM235.413 304.601C234.494 304.601 233.761 304.388 233.212 303.963C232.674 303.537 232.405 302.943 232.405 302.182C232.405 301.42 232.629 300.821 233.077 300.384C233.525 299.947 234.237 299.639 235.211 299.46L238.369 298.872C238.369 298.122 238.19 297.562 237.832 297.192C237.485 296.823 236.958 296.638 236.253 296.638C235.637 296.638 235.149 296.778 234.791 297.058C234.433 297.327 234.186 297.719 234.052 298.234L232.557 298.116C232.725 297.276 233.128 296.599 233.766 296.083C234.416 295.557 235.245 295.294 236.253 295.294C237.395 295.294 238.269 295.619 238.873 296.268C239.478 296.907 239.781 297.791 239.781 298.923V302.602C239.781 302.803 239.814 302.949 239.881 303.039C239.96 303.117 240.083 303.156 240.251 303.156H240.604V304.399C240.559 304.411 240.486 304.416 240.385 304.416C240.285 304.427 240.178 304.433 240.066 304.433C239.663 304.433 239.333 304.371 239.075 304.248C238.829 304.114 238.649 303.912 238.537 303.643C238.425 303.363 238.369 302.999 238.369 302.551L238.537 302.585C238.459 302.966 238.269 303.313 237.966 303.627C237.664 303.929 237.289 304.17 236.841 304.349C236.393 304.517 235.917 304.601 235.413 304.601ZM235.547 303.358C236.141 303.358 236.645 303.246 237.059 303.022C237.485 302.787 237.809 302.473 238.033 302.081C238.257 301.678 238.369 301.23 238.369 300.737V300.099L235.48 300.636C234.875 300.748 234.455 300.922 234.22 301.157C233.996 301.381 233.884 301.678 233.884 302.047C233.884 302.462 234.029 302.787 234.321 303.022C234.623 303.246 235.032 303.358 235.547 303.358ZM245.407 304.601C244.612 304.601 243.934 304.472 243.374 304.215C242.826 303.957 242.394 303.604 242.081 303.156C241.778 302.697 241.605 302.176 241.56 301.594L243.038 301.493C243.128 302.031 243.358 302.462 243.727 302.787C244.097 303.1 244.657 303.257 245.407 303.257C246.012 303.257 246.494 303.162 246.852 302.971C247.222 302.77 247.406 302.451 247.406 302.014C247.406 301.779 247.35 301.583 247.238 301.426C247.126 301.269 246.908 301.135 246.583 301.023C246.258 300.899 245.777 300.782 245.138 300.67C244.287 300.513 243.615 300.323 243.122 300.099C242.641 299.863 242.294 299.578 242.081 299.242C241.879 298.895 241.778 298.486 241.778 298.015C241.778 297.22 242.07 296.571 242.652 296.067C243.234 295.551 244.063 295.294 245.138 295.294C245.866 295.294 246.477 295.428 246.97 295.697C247.474 295.955 247.866 296.302 248.146 296.739C248.437 297.164 248.627 297.635 248.717 298.15L247.238 298.251C247.171 297.937 247.048 297.663 246.869 297.427C246.69 297.181 246.454 296.991 246.163 296.856C245.872 296.711 245.525 296.638 245.122 296.638C244.483 296.638 244.013 296.761 243.71 297.007C243.408 297.254 243.257 297.567 243.257 297.948C243.257 298.239 243.324 298.48 243.458 298.671C243.604 298.85 243.834 299.001 244.147 299.124C244.461 299.236 244.881 299.337 245.407 299.427C246.314 299.583 247.02 299.774 247.524 299.998C248.028 300.222 248.381 300.496 248.582 300.821C248.784 301.146 248.885 301.543 248.885 302.014C248.885 302.563 248.728 303.033 248.414 303.425C248.112 303.806 247.698 304.097 247.171 304.299C246.656 304.5 246.068 304.601 245.407 304.601ZM253.726 304.399C252.919 304.399 252.32 304.215 251.928 303.845C251.547 303.475 251.357 302.899 251.357 302.115V293.412H252.768V302.081C252.768 302.484 252.858 302.764 253.037 302.921C253.216 303.078 253.49 303.156 253.86 303.156H255.137V304.399H253.726ZM250.046 296.739V295.495H255.137V296.739H250.046ZM265.143 304.668C264.303 304.668 263.575 304.528 262.959 304.248C262.354 303.968 261.873 303.576 261.514 303.072C261.167 302.568 260.965 301.986 260.909 301.325L262.421 301.224C262.511 301.896 262.797 302.406 263.278 302.753C263.771 303.089 264.393 303.257 265.143 303.257C265.983 303.257 266.649 303.022 267.142 302.551C267.635 302.07 267.881 301.409 267.881 300.569C267.881 300.009 267.769 299.527 267.545 299.124C267.333 298.71 267.019 298.391 266.605 298.167C266.19 297.943 265.692 297.831 265.109 297.831C264.561 297.831 264.062 297.948 263.614 298.183C263.166 298.419 262.847 298.749 262.657 299.175H261.111L261.901 292.471H268.587V293.883H263.228L262.69 298.284L262.421 298.015C262.601 297.668 262.836 297.383 263.127 297.159C263.429 296.923 263.771 296.75 264.152 296.638C264.544 296.515 264.953 296.453 265.378 296.453C266.173 296.453 266.873 296.632 267.478 296.991C268.083 297.338 268.553 297.825 268.889 298.452C269.225 299.068 269.393 299.774 269.393 300.569C269.393 301.364 269.214 302.075 268.856 302.703C268.497 303.319 267.999 303.8 267.361 304.147C266.722 304.495 265.983 304.668 265.143 304.668ZM275.962 304.399V295.495H277.255L277.306 297.747L277.104 297.679C277.205 297.187 277.379 296.767 277.625 296.419C277.883 296.061 278.196 295.787 278.566 295.596C278.935 295.395 279.344 295.294 279.792 295.294C280.565 295.294 281.192 295.507 281.674 295.932C282.167 296.358 282.475 296.951 282.598 297.713L282.329 297.696C282.419 297.181 282.581 296.75 282.816 296.403C283.063 296.044 283.376 295.77 283.757 295.579C284.138 295.389 284.575 295.294 285.067 295.294C285.706 295.294 286.243 295.428 286.68 295.697C287.117 295.955 287.447 296.335 287.671 296.839C287.895 297.343 288.007 297.954 288.007 298.671V304.399H286.596V298.973C286.596 298.167 286.439 297.562 286.126 297.159C285.812 296.744 285.347 296.537 284.731 296.537C284.317 296.537 283.953 296.638 283.639 296.839C283.337 297.041 283.102 297.332 282.934 297.713C282.766 298.083 282.682 298.536 282.682 299.074V304.399H281.271V299.074C281.271 298.279 281.131 297.657 280.851 297.209C280.571 296.761 280.1 296.537 279.439 296.537C279.025 296.537 278.661 296.638 278.347 296.839C278.045 297.041 277.804 297.332 277.625 297.713C277.457 298.094 277.373 298.547 277.373 299.074V304.399H275.962ZM293.975 304.601C293.158 304.601 292.441 304.411 291.825 304.03C291.209 303.649 290.733 303.111 290.397 302.417C290.061 301.711 289.893 300.888 289.893 299.947C289.893 298.995 290.061 298.172 290.397 297.478C290.733 296.783 291.209 296.246 291.825 295.865C292.441 295.484 293.158 295.294 293.975 295.294C294.793 295.294 295.504 295.484 296.109 295.865C296.725 296.246 297.201 296.783 297.537 297.478C297.873 298.172 298.041 298.995 298.041 299.947C298.041 300.888 297.873 301.711 297.537 302.417C297.201 303.111 296.725 303.649 296.109 304.03C295.504 304.411 294.793 304.601 293.975 304.601ZM293.975 303.257C294.793 303.257 295.426 302.966 295.874 302.383C296.333 301.79 296.563 300.978 296.563 299.947C296.563 298.917 296.333 298.111 295.874 297.528C295.426 296.935 294.793 296.638 293.975 296.638C293.158 296.638 292.519 296.935 292.06 297.528C291.601 298.111 291.371 298.917 291.371 299.947C291.371 300.978 291.601 301.79 292.06 302.383C292.519 302.966 293.158 303.257 293.975 303.257ZM299.964 304.399V295.495H301.258L301.308 297.763L301.14 297.612C301.252 297.086 301.448 296.655 301.728 296.319C302.008 295.971 302.344 295.714 302.736 295.546C303.139 295.378 303.571 295.294 304.03 295.294C304.713 295.294 305.273 295.445 305.71 295.747C306.158 296.05 306.488 296.459 306.701 296.974C306.925 297.478 307.037 298.043 307.037 298.671V304.399H305.626V299.074C305.626 298.525 305.559 298.066 305.424 297.696C305.301 297.315 305.099 297.03 304.819 296.839C304.539 296.638 304.175 296.537 303.727 296.537C303.044 296.537 302.479 296.755 302.031 297.192C301.594 297.618 301.375 298.245 301.375 299.074V304.399H299.964ZM312.312 304.399C311.506 304.399 310.907 304.215 310.515 303.845C310.134 303.475 309.944 302.899 309.944 302.115V293.412H311.355V302.081C311.355 302.484 311.444 302.764 311.624 302.921C311.803 303.078 312.077 303.156 312.447 303.156H313.724V304.399H312.312ZM308.633 296.739V295.495H313.724V296.739H308.633ZM315.534 304.399V292.471H316.945V297.461L316.777 297.427C316.889 296.935 317.079 296.531 317.348 296.218C317.617 295.904 317.947 295.675 318.339 295.529C318.731 295.372 319.162 295.294 319.633 295.294C320.271 295.294 320.809 295.439 321.246 295.731C321.694 296.011 322.03 296.408 322.254 296.923C322.489 297.427 322.606 298.01 322.606 298.671V304.399H321.195V299.074C321.195 298.211 321.038 297.573 320.725 297.159C320.422 296.744 319.958 296.537 319.33 296.537C318.614 296.537 318.037 296.755 317.6 297.192C317.163 297.629 316.945 298.262 316.945 299.091V304.399H315.534ZM328.341 304.601C327.546 304.601 326.868 304.472 326.308 304.215C325.759 303.957 325.328 303.604 325.014 303.156C324.712 302.697 324.538 302.176 324.494 301.594L325.972 301.493C326.062 302.031 326.291 302.462 326.661 302.787C327.03 303.1 327.59 303.257 328.341 303.257C328.946 303.257 329.427 303.162 329.786 302.971C330.155 302.77 330.34 302.451 330.34 302.014C330.34 301.779 330.284 301.583 330.172 301.426C330.06 301.269 329.842 301.135 329.517 301.023C329.192 300.899 328.71 300.782 328.072 300.67C327.221 300.513 326.549 300.323 326.056 300.099C325.574 299.863 325.227 299.578 325.014 299.242C324.813 298.895 324.712 298.486 324.712 298.015C324.712 297.22 325.003 296.571 325.586 296.067C326.168 295.551 326.997 295.294 328.072 295.294C328.8 295.294 329.41 295.428 329.903 295.697C330.407 295.955 330.799 296.302 331.079 296.739C331.37 297.164 331.561 297.635 331.65 298.15L330.172 298.251C330.105 297.937 329.982 297.663 329.802 297.427C329.623 297.181 329.388 296.991 329.097 296.856C328.806 296.711 328.458 296.638 328.055 296.638C327.417 296.638 326.946 296.761 326.644 297.007C326.342 297.254 326.19 297.567 326.19 297.948C326.19 298.239 326.258 298.48 326.392 298.671C326.538 298.85 326.767 299.001 327.081 299.124C327.394 299.236 327.814 299.337 328.341 299.427C329.248 299.583 329.954 299.774 330.458 299.998C330.962 300.222 331.314 300.496 331.516 300.821C331.718 301.146 331.818 301.543 331.818 302.014C331.818 302.563 331.662 303.033 331.348 303.425C331.046 303.806 330.631 304.097 330.105 304.299C329.59 304.5 329.002 304.601 328.341 304.601Z" fill="#737373"/>
<path d="M21.5744 108.097V95.2808H22.6688V108.097H21.5744ZM22.2368 107.002C21.44 107.002 20.7488 106.858 20.1632 106.57C19.5776 106.273 19.112 105.865 18.7664 105.346C18.4304 104.828 18.2336 104.228 18.176 103.546L19.7456 103.46C19.8032 103.921 19.9376 104.314 20.1488 104.641C20.36 104.958 20.6384 105.202 20.984 105.375C21.3392 105.538 21.7664 105.62 22.2656 105.62C22.6976 105.62 23.0672 105.567 23.3744 105.462C23.6816 105.346 23.912 105.183 24.0656 104.972C24.2288 104.761 24.3104 104.497 24.3104 104.18C24.3104 103.892 24.2432 103.642 24.1088 103.431C23.9744 103.21 23.7152 103.009 23.3312 102.826C22.9472 102.634 22.3856 102.452 21.6464 102.279C20.8496 102.087 20.2112 101.871 19.7312 101.631C19.2512 101.391 18.9056 101.098 18.6944 100.753C18.4928 100.398 18.392 99.956 18.392 99.428C18.392 98.8616 18.5312 98.3624 18.8096 97.9304C19.088 97.4888 19.4816 97.148 19.9904 96.908C20.5088 96.6584 21.128 96.5336 21.848 96.5336C22.616 96.5336 23.2688 96.6728 23.8064 96.9512C24.3536 97.2296 24.7856 97.6136 25.1024 98.1032C25.4192 98.5928 25.616 99.1544 25.6928 99.788L24.1232 99.8744C24.0752 99.5 23.9552 99.164 23.7632 98.8664C23.5808 98.5688 23.3264 98.3384 23 98.1752C22.6736 98.0024 22.28 97.916 21.8192 97.916C21.2432 97.916 20.7872 98.0504 20.4512 98.3192C20.1152 98.588 19.9472 98.9432 19.9472 99.3848C19.9472 99.6728 20.0144 99.9128 20.1488 100.105C20.2928 100.297 20.5376 100.465 20.8832 100.609C21.2384 100.753 21.7424 100.902 22.3952 101.055C23.2592 101.257 23.9456 101.502 24.4544 101.79C24.9632 102.068 25.328 102.399 25.5488 102.783C25.7696 103.167 25.88 103.604 25.88 104.094C25.88 104.689 25.7264 105.207 25.4192 105.649C25.112 106.081 24.6848 106.417 24.1376 106.657C23.5904 106.887 22.9568 107.002 22.2368 107.002ZM30.9284 107.031C30.0452 107.031 29.33 106.82 28.7828 106.398C28.2356 105.975 27.8564 105.414 27.6452 104.713L29.2148 104.612C29.33 104.929 29.5268 105.178 29.8052 105.361C30.0932 105.534 30.4676 105.62 30.9284 105.62C31.7348 105.62 32.3444 105.303 32.7572 104.67C33.1796 104.036 33.3956 103.009 33.4052 101.588L33.6932 101.66C33.4532 102.265 33.0884 102.726 32.5988 103.042C32.1188 103.359 31.5524 103.518 30.8996 103.518C30.2276 103.518 29.6372 103.374 29.1284 103.086C28.6196 102.788 28.2212 102.375 27.9332 101.847C27.6452 101.319 27.5012 100.705 27.5012 100.004C27.5012 99.2456 27.6548 98.5976 27.962 98.06C28.2692 97.5128 28.6964 97.0904 29.2436 96.7928C29.7908 96.4952 30.4244 96.3464 31.1444 96.3464C32.0276 96.3464 32.7476 96.5432 33.3044 96.9368C33.8708 97.3304 34.2884 97.8872 34.5572 98.6072C34.8356 99.3176 34.9748 100.172 34.9748 101.17C34.9748 102.034 34.9028 102.826 34.7588 103.546C34.6148 104.266 34.3796 104.886 34.0532 105.404C33.7364 105.922 33.3188 106.326 32.8004 106.614C32.2916 106.892 31.6676 107.031 30.9284 107.031ZM31.1156 102.178C31.5476 102.178 31.9268 102.092 32.2532 101.919C32.5796 101.746 32.834 101.502 33.0164 101.185C33.1988 100.858 33.29 100.465 33.29 100.004C33.29 99.5624 33.2036 99.1736 33.0308 98.8376C32.8676 98.492 32.6276 98.2232 32.3108 98.0312C31.994 97.8296 31.6148 97.7288 31.1732 97.7288C30.7412 97.7288 30.3668 97.8248 30.05 98.0168C29.7428 98.2088 29.5028 98.4776 29.33 98.8232C29.1668 99.1592 29.0852 99.548 29.0852 99.9896C29.0852 100.441 29.1716 100.83 29.3444 101.156C29.5172 101.482 29.7524 101.737 30.05 101.919C30.3572 102.092 30.7124 102.178 31.1156 102.178ZM40.3416 107.031C39.564 107.031 38.8776 106.916 38.2824 106.686C37.6872 106.455 37.2216 106.114 36.8856 105.663C36.5592 105.212 36.396 104.66 36.396 104.007C36.396 103.258 36.6216 102.639 37.0728 102.15C37.524 101.66 38.1288 101.334 38.8872 101.17L38.916 101.458C38.3016 101.314 37.8072 101.05 37.4328 100.666C37.068 100.282 36.8856 99.7784 36.8856 99.1544C36.8856 98.6072 37.0248 98.1224 37.3032 97.7C37.5816 97.2776 37.9752 96.9464 38.484 96.7064C39.0024 96.4664 39.6216 96.3464 40.3416 96.3464C41.052 96.3464 41.6664 96.4664 42.1848 96.7064C42.7032 96.9464 43.0968 97.2776 43.3656 97.7C43.644 98.1224 43.7832 98.6072 43.7832 99.1544C43.7832 99.7784 43.6008 100.282 43.236 100.666C42.8712 101.041 42.3768 101.305 41.7528 101.458L41.7816 101.17C42.5496 101.334 43.1592 101.66 43.6104 102.15C44.0616 102.639 44.2872 103.258 44.2872 104.007C44.2872 104.66 44.1192 105.212 43.7832 105.663C43.4568 106.114 42.996 106.455 42.4008 106.686C41.8056 106.916 41.1192 107.031 40.3416 107.031ZM40.3416 105.606C41.052 105.606 41.6136 105.462 42.0264 105.174C42.4488 104.876 42.66 104.434 42.66 103.849C42.66 103.292 42.468 102.846 42.084 102.51C41.7096 102.174 41.1288 102.006 40.3416 102.006C39.5544 102.006 38.9688 102.174 38.5848 102.51C38.2008 102.846 38.0088 103.292 38.0088 103.849C38.0088 104.434 38.22 104.876 38.6424 105.174C39.0648 105.462 39.6312 105.606 40.3416 105.606ZM40.3416 100.724C40.9272 100.724 41.3784 100.604 41.6952 100.364C42.0216 100.114 42.1848 99.7352 42.1848 99.2264C42.1848 98.7848 42.0264 98.4296 41.7096 98.1608C41.4024 97.892 40.9464 97.7576 40.3416 97.7576C39.7368 97.7576 39.276 97.892 38.9592 98.1608C38.6424 98.4296 38.484 98.7848 38.484 99.2264C38.484 99.7352 38.6472 100.114 38.9736 100.364C39.3 100.604 39.756 100.724 40.3416 100.724ZM45.4392 106.801V104.986H47.2968V106.801H45.4392ZM48.7496 106.801C48.7496 106.033 48.8648 105.346 49.0952 104.742C49.3256 104.137 49.7192 103.575 50.276 103.057C50.8328 102.538 51.6008 102.02 52.58 101.502C53.0504 101.262 53.4248 101.041 53.7032 100.839C53.9912 100.628 54.1976 100.412 54.3224 100.191C54.4472 99.9704 54.5096 99.7016 54.5096 99.3848C54.5096 99.0584 54.4376 98.78 54.2936 98.5496C54.1592 98.3096 53.9576 98.1224 53.6888 97.988C53.42 97.844 53.0792 97.772 52.6664 97.772C52.0136 97.772 51.4952 97.9496 51.1112 98.3048C50.7368 98.6504 50.5016 99.1496 50.4056 99.8024L48.7928 99.7016C48.908 98.6744 49.2968 97.8584 49.9592 97.2536C50.6312 96.6488 51.5336 96.3464 52.6664 96.3464C53.396 96.3464 54.0152 96.476 54.524 96.7352C55.0424 96.9848 55.436 97.3352 55.7048 97.7864C55.9832 98.2376 56.1224 98.7608 56.1224 99.356C56.1224 99.8744 56.036 100.321 55.8632 100.695C55.6904 101.07 55.4024 101.42 54.9992 101.746C54.596 102.063 54.0488 102.404 53.3576 102.769C52.4744 103.239 51.8072 103.705 51.356 104.166C50.9048 104.617 50.6648 105.02 50.636 105.375H56.1224V106.801H48.7496ZM57.8199 106.801C57.8199 106.033 57.9351 105.346 58.1655 104.742C58.3959 104.137 58.7895 103.575 59.3463 103.057C59.9031 102.538 60.6711 102.02 61.6503 101.502C62.1207 101.262 62.4951 101.041 62.7735 100.839C63.0615 100.628 63.2679 100.412 63.3927 100.191C63.5175 99.9704 63.5799 99.7016 63.5799 99.3848C63.5799 99.0584 63.5079 98.78 63.3639 98.5496C63.2295 98.3096 63.0279 98.1224 62.7591 97.988C62.4903 97.844 62.1495 97.772 61.7367 97.772C61.0839 97.772 60.5655 97.9496 60.1815 98.3048C59.8071 98.6504 59.5719 99.1496 59.4759 99.8024L57.8631 99.7016C57.9783 98.6744 58.3671 97.8584 59.0295 97.2536C59.7015 96.6488 60.6039 96.3464 61.7367 96.3464C62.4663 96.3464 63.0855 96.476 63.5943 96.7352C64.1127 96.9848 64.5063 97.3352 64.7751 97.7864C65.0535 98.2376 65.1927 98.7608 65.1927 99.356C65.1927 99.8744 65.1063 100.321 64.9335 100.695C64.7607 101.07 64.4727 101.42 64.0695 101.746C63.6663 102.063 63.1191 102.404 62.4279 102.769C61.5447 103.239 60.8775 103.705 60.4263 104.166C59.9751 104.617 59.7351 105.02 59.7063 105.375H65.1927V106.801H57.8199Z" fill="#06AED4"/>
<rect width="67.6" height="22" transform="translate(300.203 20)" fill="#212121"/>
<path d="M309.232 37.296V24.48H310.326V37.296H309.232ZM309.894 36.2016C309.097 36.2016 308.406 36.0576 307.82 35.7696C307.235 35.472 306.769 35.064 306.424 34.5456C306.088 34.0272 305.891 33.4272 305.833 32.7456L307.403 32.6592C307.46 33.12 307.595 33.5136 307.806 33.84C308.017 34.1568 308.296 34.4016 308.641 34.5744C308.996 34.7376 309.424 34.8192 309.923 34.8192C310.355 34.8192 310.724 34.7664 311.032 34.6608C311.339 34.5456 311.569 34.3824 311.723 34.1712C311.886 33.96 311.968 33.696 311.968 33.3792C311.968 33.0912 311.9 32.8416 311.766 32.6304C311.632 32.4096 311.372 32.208 310.988 32.0256C310.604 31.8336 310.043 31.6512 309.304 31.4784C308.507 31.2864 307.868 31.0704 307.388 30.8304C306.908 30.5904 306.563 30.2976 306.352 29.952C306.15 29.5968 306.049 29.1552 306.049 28.6272C306.049 28.0608 306.188 27.5616 306.467 27.1296C306.745 26.688 307.139 26.3472 307.648 26.1072C308.166 25.8576 308.785 25.7328 309.505 25.7328C310.273 25.7328 310.926 25.872 311.464 26.1504C312.011 26.4288 312.443 26.8128 312.76 27.3024C313.076 27.792 313.273 28.3536 313.35 28.9872L311.78 29.0736C311.732 28.6992 311.612 28.3632 311.42 28.0656C311.238 27.768 310.984 27.5376 310.657 27.3744C310.331 27.2016 309.937 27.1152 309.476 27.1152C308.9 27.1152 308.444 27.2496 308.108 27.5184C307.772 27.7872 307.604 28.1424 307.604 28.584C307.604 28.872 307.672 29.112 307.806 29.304C307.95 29.496 308.195 29.664 308.54 29.808C308.896 29.952 309.4 30.1008 310.052 30.2544C310.916 30.456 311.603 30.7008 312.112 30.9888C312.62 31.2672 312.985 31.5984 313.206 31.9824C313.427 32.3664 313.537 32.8032 313.537 33.2928C313.537 33.888 313.384 34.4064 313.076 34.848C312.769 35.28 312.342 35.616 311.795 35.856C311.248 36.0864 310.614 36.2016 309.894 36.2016ZM315.158 36C315.158 35.232 315.273 34.5456 315.504 33.9408C315.734 33.336 316.128 32.7744 316.685 32.256C317.241 31.7376 318.009 31.2192 318.989 30.7008C319.459 30.4608 319.833 30.24 320.112 30.0384C320.4 29.8272 320.606 29.6112 320.731 29.3904C320.856 29.1696 320.918 28.9008 320.918 28.584C320.918 28.2576 320.846 27.9792 320.702 27.7488C320.568 27.5088 320.366 27.3216 320.097 27.1872C319.829 27.0432 319.488 26.9712 319.075 26.9712C318.422 26.9712 317.904 27.1488 317.52 27.504C317.145 27.8496 316.91 28.3488 316.814 29.0016L315.201 28.9008C315.317 27.8736 315.705 27.0576 316.368 26.4528C317.04 25.848 317.942 25.5456 319.075 25.5456C319.805 25.5456 320.424 25.6752 320.933 25.9344C321.451 26.184 321.845 26.5344 322.113 26.9856C322.392 27.4368 322.531 27.96 322.531 28.5552C322.531 29.0736 322.445 29.52 322.272 29.8944C322.099 30.2688 321.811 30.6192 321.408 30.9456C321.005 31.2624 320.457 31.6032 319.766 31.968C318.883 32.4384 318.216 32.904 317.765 33.3648C317.313 33.816 317.073 34.2192 317.045 34.5744H322.531V36H315.158ZM327.886 36.2304C327.109 36.2304 326.422 36.1152 325.827 35.8848C325.232 35.6544 324.766 35.3136 324.43 34.8624C324.104 34.4112 323.941 33.8592 323.941 33.2064C323.941 32.4576 324.166 31.8384 324.617 31.3488C325.069 30.8592 325.673 30.5328 326.432 30.3696L326.461 30.6576C325.846 30.5136 325.352 30.2496 324.977 29.8656C324.613 29.4816 324.43 28.9776 324.43 28.3536C324.43 27.8064 324.569 27.3216 324.848 26.8992C325.126 26.4768 325.52 26.1456 326.029 25.9056C326.547 25.6656 327.166 25.5456 327.886 25.5456C328.597 25.5456 329.211 25.6656 329.729 25.9056C330.248 26.1456 330.641 26.4768 330.91 26.8992C331.189 27.3216 331.328 27.8064 331.328 28.3536C331.328 28.9776 331.145 29.4816 330.781 29.8656C330.416 30.24 329.921 30.504 329.297 30.6576L329.326 30.3696C330.094 30.5328 330.704 30.8592 331.155 31.3488C331.606 31.8384 331.832 32.4576 331.832 33.2064C331.832 33.8592 331.664 34.4112 331.328 34.8624C331.001 35.3136 330.541 35.6544 329.945 35.8848C329.35 36.1152 328.664 36.2304 327.886 36.2304ZM327.886 34.8048C328.597 34.8048 329.158 34.6608 329.571 34.3728C329.993 34.0752 330.205 33.6336 330.205 33.048C330.205 32.4912 330.013 32.0448 329.629 31.7088C329.254 31.3728 328.673 31.2048 327.886 31.2048C327.099 31.2048 326.513 31.3728 326.129 31.7088C325.745 32.0448 325.553 32.4912 325.553 33.048C325.553 33.6336 325.765 34.0752 326.187 34.3728C326.609 34.6608 327.176 34.8048 327.886 34.8048ZM327.886 29.9232C328.472 29.9232 328.923 29.8032 329.24 29.5632C329.566 29.3136 329.729 28.9344 329.729 28.4256C329.729 27.984 329.571 27.6288 329.254 27.36C328.947 27.0912 328.491 26.9568 327.886 26.9568C327.281 26.9568 326.821 27.0912 326.504 27.36C326.187 27.6288 326.029 27.984 326.029 28.4256C326.029 28.9344 326.192 29.3136 326.518 29.5632C326.845 29.8032 327.301 29.9232 327.886 29.9232ZM337.937 36V33.8688H332.782V32.544L337.75 25.776H339.493V32.4576H340.745V33.8688H339.493V36H337.937ZM334.553 32.4576H337.937V27.936L334.553 32.4576ZM342.04 36V34.1856H343.898V36H342.04ZM349.094 36.2304C348.336 36.2304 347.688 36.1104 347.15 35.8704C346.613 35.6208 346.19 35.2752 345.883 34.8336C345.576 34.392 345.398 33.8832 345.35 33.3072L346.949 33.2064C347.026 33.744 347.251 34.1472 347.626 34.416C348.01 34.6752 348.499 34.8048 349.094 34.8048C349.766 34.8048 350.294 34.6176 350.678 34.2432C351.072 33.8688 351.269 33.3456 351.269 32.6736C351.269 32.232 351.178 31.8528 350.995 31.536C350.822 31.2096 350.573 30.96 350.246 30.7872C349.92 30.6048 349.531 30.5136 349.08 30.5136C348.629 30.5136 348.226 30.6096 347.87 30.8016C347.515 30.9936 347.261 31.2576 347.107 31.5936H345.494L346.186 25.776H352.176V27.2016H347.568L347.136 30.7008L346.891 30.4848C347.054 30.1968 347.261 29.9616 347.51 29.7792C347.76 29.5872 348.048 29.4432 348.374 29.3472C348.71 29.2416 349.066 29.1888 349.44 29.1888C350.131 29.1888 350.731 29.3376 351.24 29.6352C351.758 29.9328 352.162 30.3456 352.45 30.8736C352.738 31.4016 352.882 32.0016 352.882 32.6736C352.882 33.3744 352.723 33.9936 352.406 34.5312C352.09 35.0688 351.648 35.4864 351.082 35.784C350.515 36.0816 349.853 36.2304 349.094 36.2304ZM358.319 36.2304C357.561 36.2304 356.913 36.1104 356.375 35.8704C355.838 35.6208 355.415 35.2752 355.108 34.8336C354.801 34.392 354.623 33.8832 354.575 33.3072L356.174 33.2064C356.251 33.744 356.476 34.1472 356.851 34.416C357.235 34.6752 357.724 34.8048 358.319 34.8048C358.991 34.8048 359.519 34.6176 359.903 34.2432C360.297 33.8688 360.494 33.3456 360.494 32.6736C360.494 32.232 360.403 31.8528 360.22 31.536C360.047 31.2096 359.798 30.96 359.471 30.7872C359.145 30.6048 358.756 30.5136 358.305 30.5136C357.854 30.5136 357.451 30.6096 357.095 30.8016C356.74 30.9936 356.486 31.2576 356.332 31.5936H354.719L355.411 25.776H361.401V27.2016H356.793L356.361 30.7008L356.116 30.4848C356.279 30.1968 356.486 29.9616 356.735 29.7792C356.985 29.5872 357.273 29.4432 357.599 29.3472C357.935 29.2416 358.291 29.1888 358.665 29.1888C359.356 29.1888 359.956 29.3376 360.465 29.6352C360.983 29.9328 361.387 30.3456 361.675 30.8736C361.963 31.4016 362.107 32.0016 362.107 32.6736C362.107 33.3744 361.948 33.9936 361.631 34.5312C361.315 35.0688 360.873 35.4864 360.307 35.784C359.74 36.0816 359.078 36.2304 358.319 36.2304Z" fill="#EC2222"/>
</g>
</g>
<rect x="33" y="123.203" width="9.6" height="9.6" rx="4.8" fill="#06AED4"/>
<rect x="94.2031" y="104" width="9.6" height="9.6" rx="4.8" fill="#06AED4"/>
<rect x="155.398" y="123.203" width="9.6" height="9.6" rx="4.8" fill="#06AED4"/>
<rect x="216.602" y="116" width="9.6" height="9.6" rx="4.8" fill="#06AED4"/>
<rect x="279" y="87.2031" width="9.6" height="9.6" rx="4.8" fill="#06AED4"/>
<rect x="341.398" y="45.2031" width="9.6" height="9.6" rx="4.8" fill="#EC2222"/>
<path d="M34.2031 129.201L97.0831 107.593L159.963 129.201L222.843 121.892L284.403 92.0008L348.603 48.8008" stroke="url(#paint1_linear_2031_1739)" stroke-width="2.4"/>
<defs>
<filter id="filter0_dd_2031_1739" x="0.2" y="0.8" width="382.4" height="339.2" filterUnits="userSpaceOnUse" color-interpolation-filters="sRGB">
<feFlood flood-opacity="0" result="BackgroundImageFix"/>
<feColorMatrix in="SourceAlpha" type="matrix" values="0 0 0 0 0 0 0 0 0 0 0 0 0 0 0 0 0 0 127 0" result="hardAlpha"/>
<feMorphology radius="1.2" operator="dilate" in="SourceAlpha" result="effect1_dropShadow_2031_1739"/>
<feOffset/>
<feColorMatrix type="matrix" values="0 0 0 0 1 0 0 0 0 1 0 0 0 0 1 0 0 0 0.09 0"/>
<feBlend mode="normal" in2="BackgroundImageFix" result="effect1_dropShadow_2031_1739"/>
<feColorMatrix in="SourceAlpha" type="matrix" values="0 0 0 0 0 0 0 0 0 0 0 0 0 0 0 0 0 0 127 0" result="hardAlpha"/>
<feOffset dy="1.6"/>
<feGaussianBlur stdDeviation="4.4"/>
<feColorMatrix type="matrix" values="0 0 0 0 0.0431373 0 0 0 0 0.0431373 0 0 0 0 0.0431373 0 0 0 0.08 0"/>
<feBlend mode="normal" in2="effect1_dropShadow_2031_1739" result="effect2_dropShadow_2031_1739"/>
<feBlend mode="normal" in="SourceGraphic" in2="effect2_dropShadow_2031_1739" result="shape"/>
</filter>
<linearGradient id="paint0_linear_2031_1739" x1="191.797" y1="52.7309" x2="191.797" y2="285.255" gradientUnits="userSpaceOnUse">
<stop stop-color="#1C1C1C"/>
<stop offset="1" stop-color="#121212"/>
</linearGradient>
<linearGradient id="paint1_linear_2031_1739" x1="281.403" y1="96.8008" x2="332.45" y2="49.9079" gradientUnits="userSpaceOnUse">
<stop stop-color="#06AED4"/>
<stop offset="1" stop-color="#EC2222"/>
</linearGradient>
<clipPath id="clip0_2031_1739">
<rect x="9" y="8" width="364.8" height="321.6" rx="14.4" fill="white"/>
</clipPath>
</defs>
</svg>
