<svg width="383" height="340" viewBox="0 0 383 340" fill="none" xmlns="http://www.w3.org/2000/svg">
<g filter="url(#filter0_dd_2031_1768)">
<g clip-path="url(#clip0_2031_1768)">
<path d="M8.79688 22.4C8.79688 14.4471 15.244 8 23.1969 8H359.197C367.15 8 373.597 14.4471 373.597 22.4V315.2C373.597 323.153 367.15 329.6 359.197 329.6H23.1969C15.244 329.6 8.79688 323.153 8.79688 315.2V22.4Z" fill="url(#paint0_linear_2031_1768)"/>
<path d="M8.79688 22.4C8.79688 14.4471 15.244 8 23.1969 8H359.197C367.15 8 373.597 14.4471 373.597 22.4V315.2C373.597 323.153 367.15 329.6 359.197 329.6H23.1969C15.244 329.6 8.79688 323.153 8.79688 315.2V22.4Z" fill="white" fill-opacity="0.02"/>
<rect x="23.1968" y="100.4" width="48" height="49.2" rx="4.8" fill="#A48AFB"/>
<path d="M39.396 172.669C38.2648 172.669 37.2904 172.423 36.4728 171.93C35.6664 171.426 35.0448 170.709 34.608 169.78C34.1712 168.85 33.9528 167.741 33.9528 166.453C33.9528 165.165 34.1712 164.056 34.608 163.127C35.0448 162.186 35.6664 161.464 36.4728 160.96C37.2904 160.456 38.2648 160.204 39.396 160.204C40.5384 160.204 41.5128 160.456 42.3192 160.96C43.1368 161.464 43.764 162.186 44.2008 163.127C44.6376 164.056 44.856 165.165 44.856 166.453C44.856 167.741 44.6376 168.85 44.2008 169.78C43.764 170.709 43.1368 171.426 42.3192 171.93C41.5128 172.423 40.5384 172.669 39.396 172.669ZM39.396 171.258C40.2248 171.258 40.9304 171.068 41.5128 170.687C42.1064 170.306 42.56 169.757 42.8736 169.04C43.1872 168.324 43.344 167.461 43.344 166.453C43.344 165.445 43.1872 164.583 42.8736 163.866C42.56 163.138 42.1064 162.584 41.5128 162.203C40.9304 161.811 40.2248 161.615 39.396 161.615C38.5784 161.615 37.8728 161.811 37.2792 162.203C36.6968 162.584 36.2488 163.138 35.9352 163.866C35.6216 164.583 35.4648 165.445 35.4648 166.453C35.4648 167.461 35.6216 168.324 35.9352 169.04C36.2488 169.757 36.6968 170.306 37.2792 170.687C37.8728 171.068 38.5784 171.258 39.396 171.258ZM50.6676 172.602C49.8388 172.602 49.1164 172.412 48.5004 172.031C47.8956 171.65 47.4252 171.112 47.0892 170.418C46.7532 169.712 46.5852 168.889 46.5852 167.948C46.5852 167.008 46.7532 166.19 47.0892 165.496C47.4252 164.801 47.8956 164.264 48.5004 163.883C49.1164 163.491 49.8388 163.295 50.6676 163.295C51.3508 163.295 51.9556 163.418 52.482 163.664C53.0196 163.9 53.4564 164.247 53.7924 164.706C54.1284 165.165 54.3468 165.725 54.4476 166.386L52.9692 166.487C52.8684 165.893 52.6108 165.44 52.1964 165.126C51.782 164.801 51.2724 164.639 50.6676 164.639C49.85 164.639 49.2116 164.936 48.7524 165.529C48.2932 166.112 48.0636 166.918 48.0636 167.948C48.0636 168.979 48.2932 169.791 48.7524 170.384C49.2116 170.967 49.85 171.258 50.6676 171.258C51.2724 171.258 51.782 171.09 52.1964 170.754C52.6108 170.418 52.8684 169.914 52.9692 169.242L54.4476 169.343C54.3468 170.004 54.1284 170.58 53.7924 171.073C53.4564 171.555 53.0196 171.93 52.482 172.199C51.9556 172.468 51.3508 172.602 50.6676 172.602ZM59.1117 172.4C58.3053 172.4 57.7061 172.216 57.3141 171.846C56.9333 171.476 56.7429 170.9 56.7429 170.116V161.413H58.1541V170.082C58.1541 170.485 58.2437 170.765 58.4229 170.922C58.6021 171.079 58.8765 171.157 59.2461 171.157H60.5229V172.4H59.1117ZM55.4325 164.74V163.496H60.5229V164.74H55.4325Z" fill="#737373"/>
<rect x="99.9968" y="117.2" width="48" height="32.4" rx="4.8" fill="#A48AFB"/>
<path d="M110.042 172.4V160.472H112.092L117.989 170.956V160.472H119.434V172.4H117.283L111.487 162.119V172.4H110.042ZM125.64 172.602C124.822 172.602 124.105 172.412 123.489 172.031C122.873 171.65 122.397 171.112 122.061 170.418C121.725 169.712 121.557 168.889 121.557 167.948C121.557 166.996 121.725 166.173 122.061 165.479C122.397 164.784 122.873 164.247 123.489 163.866C124.105 163.485 124.822 163.295 125.64 163.295C126.457 163.295 127.168 163.485 127.773 163.866C128.389 164.247 128.865 164.784 129.201 165.479C129.537 166.173 129.705 166.996 129.705 167.948C129.705 168.889 129.537 169.712 129.201 170.418C128.865 171.112 128.389 171.65 127.773 172.031C127.168 172.412 126.457 172.602 125.64 172.602ZM125.64 171.258C126.457 171.258 127.09 170.967 127.538 170.384C127.997 169.791 128.227 168.979 128.227 167.948C128.227 166.918 127.997 166.112 127.538 165.529C127.09 164.936 126.457 164.639 125.64 164.639C124.822 164.639 124.184 164.936 123.724 165.529C123.265 166.112 123.036 166.918 123.036 167.948C123.036 168.979 123.265 169.791 123.724 170.384C124.184 170.967 124.822 171.258 125.64 171.258ZM133.634 172.4L130.391 163.496H131.937L134.524 170.956L137.111 163.496H138.657L135.415 172.4H133.634Z" fill="#737373"/>
<rect x="176.797" y="51.2002" width="48" height="98.4" rx="4.8" fill="url(#paint1_linear_2031_1768)"/>
<path d="M186.842 172.4V160.472H190.538C192.375 160.472 193.786 160.993 194.772 162.035C195.769 163.065 196.267 164.538 196.267 166.453C196.267 168.357 195.78 169.824 194.806 170.855C193.831 171.885 192.442 172.4 190.639 172.4H186.842ZM188.287 170.989H190.538C191.938 170.989 192.991 170.614 193.697 169.864C194.402 169.102 194.755 167.965 194.755 166.453C194.755 164.919 194.402 163.776 193.697 163.026C192.991 162.264 191.938 161.884 190.538 161.884H188.287V170.989ZM202.079 172.602C201.239 172.602 200.511 172.412 199.895 172.031C199.29 171.65 198.819 171.112 198.483 170.418C198.159 169.712 197.996 168.889 197.996 167.948C197.996 167.008 198.159 166.19 198.483 165.496C198.819 164.801 199.284 164.264 199.878 163.883C200.483 163.491 201.194 163.295 202.011 163.295C202.784 163.295 203.467 163.48 204.061 163.849C204.655 164.208 205.114 164.734 205.439 165.428C205.775 166.123 205.943 166.968 205.943 167.965V168.385H199.475C199.531 169.337 199.783 170.054 200.231 170.536C200.69 171.017 201.306 171.258 202.079 171.258C202.661 171.258 203.137 171.124 203.507 170.855C203.887 170.575 204.151 170.211 204.296 169.763L205.808 169.88C205.573 170.676 205.125 171.331 204.464 171.846C203.815 172.35 203.019 172.602 202.079 172.602ZM199.475 167.142H204.397C204.33 166.28 204.078 165.647 203.641 165.244C203.215 164.84 202.672 164.639 202.011 164.639C201.328 164.639 200.763 164.852 200.315 165.277C199.878 165.692 199.598 166.313 199.475 167.142ZM211.332 172.602C210.503 172.602 209.781 172.412 209.165 172.031C208.56 171.65 208.089 171.112 207.753 170.418C207.417 169.712 207.249 168.889 207.249 167.948C207.249 167.008 207.417 166.19 207.753 165.496C208.089 164.801 208.56 164.264 209.165 163.883C209.781 163.491 210.503 163.295 211.332 163.295C212.015 163.295 212.62 163.418 213.146 163.664C213.684 163.9 214.121 164.247 214.457 164.706C214.793 165.165 215.011 165.725 215.112 166.386L213.633 166.487C213.533 165.893 213.275 165.44 212.861 165.126C212.446 164.801 211.937 164.639 211.332 164.639C210.514 164.639 209.876 164.936 209.417 165.529C208.957 166.112 208.728 166.918 208.728 167.948C208.728 168.979 208.957 169.791 209.417 170.384C209.876 170.967 210.514 171.258 211.332 171.258C211.937 171.258 212.446 171.09 212.861 170.754C213.275 170.418 213.533 169.914 213.633 169.242L215.112 169.343C215.011 170.004 214.793 170.58 214.457 171.073C214.121 171.555 213.684 171.93 213.146 172.199C212.62 172.468 212.015 172.602 211.332 172.602Z" fill="#737373"/>
<path d="M377.192 104.001L6.39209 104.001" stroke="#0B0B0B" stroke-opacity="0.15" stroke-width="1.2" stroke-dasharray="4.8 4.8"/>
<path d="M377.192 50.001L6.39209 50.001" stroke="#EC2222" stroke-width="1.2" stroke-dasharray="4.8 4.8"/>
<rect x="267.595" y="89.6025" width="91.6" height="31.6" rx="12" fill="#1E1E1E"/>
<path d="M276.571 111.698V98.8823H277.666V111.698H276.571ZM277.234 110.604C276.437 110.604 275.746 110.46 275.16 110.172C274.574 109.874 274.109 109.466 273.763 108.948C273.427 108.43 273.23 107.83 273.173 107.148L274.742 107.062C274.8 107.522 274.934 107.916 275.146 108.242C275.357 108.559 275.635 108.804 275.981 108.977C276.336 109.14 276.763 109.222 277.262 109.222C277.694 109.222 278.064 109.169 278.371 109.063C278.678 108.948 278.909 108.785 279.062 108.574C279.226 108.362 279.307 108.098 279.307 107.782C279.307 107.494 279.24 107.244 279.106 107.033C278.971 106.812 278.712 106.61 278.328 106.428C277.944 106.236 277.382 106.054 276.643 105.881C275.846 105.689 275.208 105.473 274.728 105.233C274.248 104.993 273.902 104.7 273.691 104.354C273.49 103.999 273.389 103.558 273.389 103.03C273.389 102.463 273.528 101.964 273.806 101.532C274.085 101.09 274.478 100.75 274.987 100.51C275.506 100.26 276.125 100.135 276.845 100.135C277.613 100.135 278.266 100.274 278.803 100.553C279.35 100.831 279.782 101.215 280.099 101.705C280.416 102.194 280.613 102.756 280.69 103.39L279.12 103.476C279.072 103.102 278.952 102.766 278.76 102.468C278.578 102.17 278.323 101.94 277.997 101.777C277.67 101.604 277.277 101.518 276.816 101.518C276.24 101.518 275.784 101.652 275.448 101.921C275.112 102.19 274.944 102.545 274.944 102.986C274.944 103.274 275.011 103.514 275.146 103.706C275.29 103.898 275.534 104.066 275.88 104.21C276.235 104.354 276.739 104.503 277.392 104.657C278.256 104.858 278.942 105.103 279.451 105.391C279.96 105.67 280.325 106.001 280.546 106.385C280.766 106.769 280.877 107.206 280.877 107.695C280.877 108.29 280.723 108.809 280.416 109.25C280.109 109.682 279.682 110.018 279.134 110.258C278.587 110.489 277.954 110.604 277.234 110.604ZM282.498 110.402C282.498 109.634 282.613 108.948 282.844 108.343C283.074 107.738 283.468 107.177 284.024 106.658C284.581 106.14 285.349 105.622 286.328 105.103C286.799 104.863 287.173 104.642 287.452 104.441C287.74 104.23 287.946 104.014 288.071 103.793C288.196 103.572 288.258 103.303 288.258 102.986C288.258 102.66 288.186 102.382 288.042 102.151C287.908 101.911 287.706 101.724 287.437 101.59C287.168 101.446 286.828 101.374 286.415 101.374C285.762 101.374 285.244 101.551 284.86 101.906C284.485 102.252 284.25 102.751 284.154 103.404L282.541 103.303C282.656 102.276 283.045 101.46 283.708 100.855C284.38 100.25 285.282 99.9479 286.415 99.9479C287.144 99.9479 287.764 100.078 288.272 100.337C288.791 100.586 289.184 100.937 289.453 101.388C289.732 101.839 289.871 102.362 289.871 102.958C289.871 103.476 289.784 103.922 289.612 104.297C289.439 104.671 289.151 105.022 288.748 105.348C288.344 105.665 287.797 106.006 287.106 106.37C286.223 106.841 285.556 107.306 285.104 107.767C284.653 108.218 284.413 108.622 284.384 108.977H289.871V110.402H282.498ZM293.013 110.402C293.013 109.346 293.152 108.305 293.431 107.278C293.719 106.241 294.122 105.247 294.64 104.297C295.168 103.337 295.797 102.439 296.527 101.604H290.81V100.178H298.168V101.503C297.362 102.425 296.69 103.346 296.152 104.268C295.624 105.18 295.231 106.14 294.971 107.148C294.722 108.146 294.597 109.231 294.597 110.402H293.013ZM300.944 110.402C300.944 109.346 301.083 108.305 301.362 107.278C301.65 106.241 302.053 105.247 302.571 104.297C303.099 103.337 303.728 102.439 304.458 101.604H298.741V100.178H306.099V101.503C305.293 102.425 304.621 103.346 304.083 104.268C303.555 105.18 303.162 106.14 302.903 107.148C302.653 108.146 302.528 109.231 302.528 110.402H300.944ZM305.33 110.402V108.588H307.187V110.402H305.33ZM312.24 110.633C311.059 110.633 310.147 110.359 309.504 109.812C308.871 109.265 308.53 108.545 308.482 107.652L310.08 107.566C310.138 108.151 310.359 108.574 310.743 108.833C311.136 109.082 311.635 109.207 312.24 109.207C312.643 109.207 313.013 109.154 313.349 109.049C313.695 108.934 313.968 108.751 314.17 108.502C314.381 108.242 314.487 107.906 314.487 107.494C314.487 106.879 314.28 106.428 313.867 106.14C313.455 105.842 312.907 105.694 312.226 105.694H311.376V104.34H312.226C312.773 104.34 313.229 104.23 313.594 104.009C313.959 103.788 314.141 103.404 314.141 102.857C314.141 102.377 313.987 102.012 313.68 101.762C313.373 101.503 312.903 101.374 312.269 101.374C311.655 101.374 311.189 101.494 310.872 101.734C310.555 101.974 310.368 102.3 310.311 102.713L308.712 102.626C308.808 101.82 309.159 101.172 309.763 100.682C310.378 100.193 311.213 99.9479 312.269 99.9479C312.999 99.9479 313.623 100.063 314.141 100.294C314.659 100.514 315.058 100.836 315.336 101.258C315.615 101.681 315.754 102.175 315.754 102.742C315.754 103.366 315.552 103.874 315.149 104.268C314.755 104.662 314.175 104.93 313.407 105.074V104.815C314.242 104.921 314.899 105.218 315.379 105.708C315.859 106.188 316.099 106.802 316.099 107.551C316.099 108.194 315.936 108.751 315.61 109.222C315.283 109.682 314.832 110.033 314.256 110.273C313.68 110.513 313.008 110.633 312.24 110.633ZM322.349 110.402V108.271H317.194V106.946L322.162 100.178H323.904V106.86H325.157V108.271H323.904V110.402H322.349ZM318.965 106.86H322.349V102.338L318.965 106.86ZM332.574 110.575C331.777 110.575 331.139 110.393 330.659 110.028C330.188 109.663 329.953 109.15 329.953 108.487C329.953 107.825 330.15 107.311 330.544 106.946C330.947 106.572 331.566 106.303 332.401 106.14L335.036 105.636C335.036 105.041 334.897 104.599 334.619 104.311C334.34 104.014 333.928 103.865 333.38 103.865C332.891 103.865 332.507 103.975 332.228 104.196C331.95 104.407 331.758 104.724 331.652 105.146L330.083 105.046C330.227 104.278 330.582 103.673 331.148 103.231C331.724 102.79 332.468 102.569 333.38 102.569C334.417 102.569 335.204 102.847 335.742 103.404C336.289 103.951 336.563 104.724 336.563 105.722V108.703C336.563 108.886 336.592 109.015 336.649 109.092C336.716 109.159 336.822 109.193 336.966 109.193H337.24V110.402C337.192 110.412 337.115 110.422 337.009 110.431C336.904 110.441 336.793 110.446 336.678 110.446C336.352 110.446 336.068 110.393 335.828 110.287C335.598 110.182 335.425 110.009 335.31 109.769C335.195 109.519 335.137 109.188 335.137 108.775L335.296 108.847C335.219 109.183 335.051 109.481 334.792 109.74C334.542 109.999 334.22 110.206 333.827 110.359C333.443 110.503 333.025 110.575 332.574 110.575ZM332.819 109.366C333.28 109.366 333.673 109.279 334 109.106C334.326 108.924 334.58 108.674 334.763 108.358C334.945 108.041 335.036 107.681 335.036 107.278V106.788L332.79 107.22C332.329 107.306 332.003 107.446 331.811 107.638C331.628 107.82 331.537 108.055 331.537 108.343C331.537 108.67 331.648 108.924 331.868 109.106C332.099 109.279 332.416 109.366 332.819 109.366ZM340.207 110.402L337.414 102.742H339.041L341.129 108.847L343.217 102.742H344.858L342.05 110.402H340.207ZM348.922 112.735C348.318 112.735 347.785 112.644 347.324 112.462C346.863 112.279 346.484 112.02 346.186 111.684C345.889 111.358 345.687 110.974 345.582 110.532L347.166 110.431C347.271 110.748 347.454 110.998 347.713 111.18C347.982 111.372 348.385 111.468 348.922 111.468C349.556 111.468 350.041 111.334 350.377 111.065C350.722 110.796 350.895 110.388 350.895 109.841V108.732C350.713 109.126 350.42 109.438 350.017 109.668C349.614 109.898 349.162 110.014 348.663 110.014C348.02 110.014 347.449 109.855 346.95 109.538C346.45 109.222 346.062 108.785 345.783 108.228C345.505 107.671 345.366 107.028 345.366 106.298C345.366 105.559 345.5 104.911 345.769 104.354C346.047 103.798 346.431 103.361 346.921 103.044C347.42 102.727 347.982 102.569 348.606 102.569C349.153 102.569 349.633 102.694 350.046 102.943C350.468 103.193 350.77 103.529 350.953 103.951V102.742H352.422V109.798C352.422 110.431 352.278 110.964 351.99 111.396C351.711 111.838 351.308 112.169 350.78 112.39C350.262 112.62 349.642 112.735 348.922 112.735ZM348.908 108.718C349.503 108.718 349.978 108.502 350.334 108.07C350.698 107.638 350.886 107.042 350.895 106.284C350.905 105.785 350.828 105.358 350.665 105.002C350.502 104.638 350.266 104.359 349.959 104.167C349.662 103.966 349.311 103.865 348.908 103.865C348.284 103.865 347.799 104.086 347.454 104.527C347.118 104.959 346.95 105.545 346.95 106.284C346.95 107.033 347.122 107.628 347.468 108.07C347.823 108.502 348.303 108.718 348.908 108.718Z" fill="#737373"/>
<rect x="286.595" y="34.3994" width="72.6" height="31.6" rx="12" fill="#212121"/>
<path d="M295.789 56.4952V43.6792H296.884V56.4952H295.789ZM296.452 55.4008C295.655 55.4008 294.964 55.2568 294.378 54.9688C293.792 54.6712 293.327 54.2632 292.981 53.7448C292.645 53.2264 292.448 52.6264 292.391 51.9448L293.96 51.8584C294.018 52.3192 294.152 52.7128 294.364 53.0392C294.575 53.356 294.853 53.6008 295.199 53.7736C295.554 53.9368 295.981 54.0184 296.48 54.0184C296.912 54.0184 297.282 53.9656 297.589 53.86C297.896 53.7448 298.127 53.5816 298.28 53.3704C298.444 53.1592 298.525 52.8952 298.525 52.5784C298.525 52.2904 298.458 52.0408 298.324 51.8296C298.189 51.6088 297.93 51.4072 297.546 51.2248C297.162 51.0328 296.6 50.8504 295.861 50.6776C295.064 50.4856 294.426 50.2696 293.946 50.0296C293.466 49.7896 293.12 49.4968 292.909 49.1512C292.708 48.796 292.607 48.3544 292.607 47.8264C292.607 47.26 292.746 46.7608 293.024 46.3288C293.303 45.8872 293.696 45.5464 294.205 45.3064C294.724 45.0568 295.343 44.932 296.063 44.932C296.831 44.932 297.484 45.0712 298.021 45.3496C298.568 45.628 299 46.012 299.317 46.5016C299.634 46.9912 299.831 47.5528 299.908 48.1864L298.338 48.2728C298.29 47.8984 298.17 47.5624 297.978 47.2648C297.796 46.9672 297.541 46.7368 297.215 46.5736C296.888 46.4008 296.495 46.3144 296.034 46.3144C295.458 46.3144 295.002 46.4488 294.666 46.7176C294.33 46.9864 294.162 47.3416 294.162 47.7832C294.162 48.0712 294.229 48.3112 294.364 48.5032C294.508 48.6952 294.752 48.8632 295.098 49.0072C295.453 49.1512 295.957 49.3 296.61 49.4536C297.474 49.6552 298.16 49.9 298.669 50.188C299.178 50.4664 299.543 50.7976 299.764 51.1816C299.984 51.5656 300.095 52.0024 300.095 52.492C300.095 53.0872 299.941 53.6056 299.634 54.0472C299.327 54.4792 298.9 54.8152 298.352 55.0552C297.805 55.2856 297.172 55.4008 296.452 55.4008ZM301.716 55.1992C301.716 54.4312 301.831 53.7448 302.062 53.14C302.292 52.5352 302.686 51.9736 303.242 51.4552C303.799 50.9368 304.567 50.4184 305.546 49.9C306.017 49.66 306.391 49.4392 306.67 49.2376C306.958 49.0264 307.164 48.8104 307.289 48.5896C307.414 48.3688 307.476 48.1 307.476 47.7832C307.476 47.4568 307.404 47.1784 307.26 46.948C307.126 46.708 306.924 46.5208 306.655 46.3864C306.386 46.2424 306.046 46.1704 305.633 46.1704C304.98 46.1704 304.462 46.348 304.078 46.7032C303.703 47.0488 303.468 47.548 303.372 48.2008L301.759 48.1C301.874 47.0728 302.263 46.2568 302.926 45.652C303.598 45.0472 304.5 44.7448 305.633 44.7448C306.362 44.7448 306.982 44.8744 307.49 45.1336C308.009 45.3832 308.402 45.7336 308.671 46.1848C308.95 46.636 309.089 47.1592 309.089 47.7544C309.089 48.2728 309.002 48.7192 308.83 49.0936C308.657 49.468 308.369 49.8184 307.966 50.1448C307.562 50.4616 307.015 50.8024 306.324 51.1672C305.441 51.6376 304.774 52.1032 304.322 52.564C303.871 53.0152 303.631 53.4184 303.602 53.7736H309.089V55.1992H301.716ZM310.613 57.46L311.333 55.1992H310.541V53.3848H312.399V54.9832L311.492 57.46H310.613ZM314.627 55.1992V47.9128H312.467V46.66H313.345C313.729 46.66 314.041 46.612 314.281 46.516C314.521 46.4104 314.694 46.2376 314.8 45.9976C314.905 45.748 314.958 45.4072 314.958 44.9752H316.182V55.1992H314.627ZM319.9 55.1992V47.9128H317.74V46.66H318.619C319.003 46.66 319.315 46.612 319.555 46.516C319.795 46.4104 319.968 46.2376 320.073 45.9976C320.179 45.748 320.232 45.4072 320.232 44.9752H321.456V55.1992H319.9ZM323.738 55.1992C323.738 54.4312 323.853 53.7448 324.083 53.14C324.314 52.5352 324.707 51.9736 325.264 51.4552C325.821 50.9368 326.589 50.4184 327.568 49.9C328.039 49.66 328.413 49.4392 328.691 49.2376C328.979 49.0264 329.186 48.8104 329.311 48.5896C329.435 48.3688 329.498 48.1 329.498 47.7832C329.498 47.4568 329.426 47.1784 329.282 46.948C329.147 46.708 328.946 46.5208 328.677 46.3864C328.408 46.2424 328.067 46.1704 327.655 46.1704C327.002 46.1704 326.483 46.348 326.099 46.7032C325.725 47.0488 325.49 47.548 325.394 48.2008L323.781 48.1C323.896 47.0728 324.285 46.2568 324.947 45.652C325.619 45.0472 326.522 44.7448 327.655 44.7448C328.384 44.7448 329.003 44.8744 329.512 45.1336C330.031 45.3832 330.424 45.7336 330.693 46.1848C330.971 46.636 331.111 47.1592 331.111 47.7544C331.111 48.2728 331.024 48.7192 330.851 49.0936C330.679 49.468 330.391 49.8184 329.987 50.1448C329.584 50.4616 329.037 50.8024 328.346 51.1672C327.463 51.6376 326.795 52.1032 326.344 52.564C325.893 53.0152 325.653 53.4184 325.624 53.7736H331.111V55.1992H323.738ZM332.563 55.1992V53.3848H334.421V55.1992H332.563ZM339.596 55.4296C338.751 55.4296 338.017 55.2136 337.393 54.7816C336.769 54.3496 336.289 53.7352 335.953 52.9384C335.617 52.1416 335.449 51.196 335.449 50.1016C335.449 49.0072 335.617 48.0616 335.953 47.2648C336.298 46.4584 336.778 45.8392 337.393 45.4072C338.017 44.9656 338.751 44.7448 339.596 44.7448C340.45 44.7448 341.185 44.9656 341.799 45.4072C342.423 45.8392 342.903 46.4536 343.239 47.2504C343.585 48.0472 343.757 48.9976 343.757 50.1016C343.757 51.196 343.589 52.1416 343.253 52.9384C342.917 53.7352 342.437 54.3496 341.813 54.7816C341.189 55.2136 340.45 55.4296 339.596 55.4296ZM339.596 54.004C340.412 54.004 341.041 53.668 341.482 52.996C341.924 52.324 342.145 51.3592 342.145 50.1016C342.145 49.2568 342.044 48.5416 341.842 47.956C341.65 47.3704 341.362 46.9288 340.978 46.6312C340.604 46.324 340.143 46.1704 339.596 46.1704C339.058 46.1704 338.597 46.324 338.213 46.6312C337.839 46.9288 337.551 47.3704 337.349 47.956C337.157 48.5416 337.061 49.2568 337.061 50.1016C337.061 51.3592 337.282 52.324 337.724 52.996C338.165 53.668 338.789 54.004 339.596 54.004ZM349.313 55.4296C348.468 55.4296 347.734 55.2136 347.11 54.7816C346.486 54.3496 346.006 53.7352 345.67 52.9384C345.334 52.1416 345.166 51.196 345.166 50.1016C345.166 49.0072 345.334 48.0616 345.67 47.2648C346.015 46.4584 346.495 45.8392 347.11 45.4072C347.734 44.9656 348.468 44.7448 349.313 44.7448C350.167 44.7448 350.902 44.9656 351.516 45.4072C352.14 45.8392 352.62 46.4536 352.956 47.2504C353.302 48.0472 353.475 48.9976 353.475 50.1016C353.475 51.196 353.307 52.1416 352.971 52.9384C352.635 53.7352 352.155 54.3496 351.531 54.7816C350.907 55.2136 350.167 55.4296 349.313 55.4296ZM349.313 54.004C350.129 54.004 350.758 53.668 351.199 52.996C351.641 52.324 351.862 51.3592 351.862 50.1016C351.862 49.2568 351.761 48.5416 351.559 47.956C351.367 47.3704 351.079 46.9288 350.695 46.6312C350.321 46.324 349.86 46.1704 349.313 46.1704C348.775 46.1704 348.315 46.324 347.931 46.6312C347.556 46.9288 347.268 47.3704 347.067 47.956C346.875 48.5416 346.779 49.2568 346.779 50.1016C346.779 51.3592 346.999 52.324 347.441 52.996C347.883 53.668 348.507 54.004 349.313 54.004Z" fill="#EC2222"/>
<rect x="23.1968" y="192.8" width="38.4" height="38.4" rx="19.2" fill="white"/>
<rect x="22.5968" y="192.2" width="39.6" height="39.6" rx="19.8" stroke="#0B0B0B" stroke-opacity="0.1" stroke-width="1.2"/>
<path d="M50.8304 219.755C40.9232 224.47 34.7747 220.525 30.8388 218.129C30.5953 217.978 30.1813 218.164 30.5405 218.577C31.8517 220.167 36.1489 223.999 41.758 223.999C47.3709 223.999 50.7101 220.936 51.1278 220.402C51.5427 219.872 51.2496 219.58 50.8303 219.755H50.8304ZM53.6128 218.218C53.3468 217.872 51.9951 217.807 51.1444 217.912C50.2924 218.013 49.0135 218.534 49.1247 218.847C49.1818 218.964 49.2982 218.911 49.8835 218.859C50.4704 218.8 52.1145 218.593 52.4571 219.04C52.8013 219.491 51.9327 221.639 51.7741 221.986C51.6208 222.332 51.8327 222.422 52.1206 222.191C52.4045 221.96 52.9185 221.363 53.2635 220.518C53.6061 219.668 53.8151 218.482 53.6128 218.218Z" fill="#FF9900"/>
<path fill-rule="evenodd" clip-rule="evenodd" d="M44.1709 210.138C44.1709 211.375 44.2022 212.406 43.5769 213.505C43.0722 214.398 42.2727 214.948 41.3795 214.948C40.1601 214.948 39.45 214.019 39.45 212.648C39.45 209.941 41.8751 209.45 44.1709 209.45V210.138ZM47.3732 217.878C47.1633 218.065 46.8596 218.079 46.6229 217.954C45.5688 217.078 45.3812 216.672 44.8006 215.837C43.0588 217.614 41.8261 218.146 39.5662 218.146C36.8953 218.146 34.814 216.498 34.814 213.197C34.814 210.62 36.212 208.865 38.1994 208.007C39.9234 207.248 42.3308 207.114 44.1709 206.904V206.493C44.1709 205.738 44.2289 204.845 43.7868 204.193C43.3982 203.608 42.6568 203.367 42.0047 203.367C40.7944 203.367 39.7135 203.987 39.45 205.274C39.3963 205.56 39.1865 205.841 38.9006 205.854L35.8189 205.524C35.5599 205.466 35.274 205.256 35.3455 204.858C36.0556 201.125 39.4276 199.999 42.4468 199.999C43.9921 199.999 46.0109 200.41 47.2302 201.58C48.7756 203.023 48.6281 204.948 48.6281 207.042V211.991C48.6281 213.478 49.2445 214.13 49.8251 214.934C50.0305 215.22 50.0752 215.564 49.8161 215.778C49.1685 216.319 48.0162 217.324 47.3821 217.887L47.3731 217.878" fill="black"/>
<path d="M50.8304 219.755C40.9232 224.47 34.7747 220.525 30.8388 218.129C30.5953 217.978 30.1813 218.164 30.5405 218.577C31.8517 220.167 36.1489 223.999 41.758 223.999C47.3709 223.999 50.7101 220.936 51.1278 220.402C51.5427 219.872 51.2496 219.58 50.8303 219.755H50.8304ZM53.6128 218.218C53.3468 217.872 51.9951 217.807 51.1444 217.912C50.2924 218.013 49.0135 218.534 49.1247 218.847C49.1818 218.964 49.2982 218.911 49.8835 218.859C50.4704 218.8 52.1145 218.593 52.4571 219.04C52.8013 219.491 51.9327 221.639 51.7741 221.986C51.6208 222.332 51.8327 222.422 52.1206 222.191C52.4045 221.96 52.9185 221.363 53.2635 220.518C53.6061 219.668 53.8151 218.482 53.6128 218.218Z" fill="#FF9900"/>
<path fill-rule="evenodd" clip-rule="evenodd" d="M44.1709 210.138C44.1709 211.375 44.2022 212.406 43.5769 213.505C43.0722 214.398 42.2727 214.948 41.3795 214.948C40.1601 214.948 39.45 214.019 39.45 212.648C39.45 209.941 41.8751 209.45 44.1709 209.45V210.138ZM47.3732 217.878C47.1633 218.065 46.8596 218.079 46.6229 217.954C45.5688 217.078 45.3812 216.672 44.8006 215.837C43.0588 217.614 41.8261 218.146 39.5662 218.146C36.8953 218.146 34.814 216.498 34.814 213.197C34.814 210.62 36.212 208.865 38.1994 208.007C39.9234 207.248 42.3308 207.114 44.1709 206.904V206.493C44.1709 205.738 44.2289 204.845 43.7868 204.193C43.3982 203.608 42.6568 203.367 42.0047 203.367C40.7944 203.367 39.7135 203.987 39.45 205.274C39.3963 205.56 39.1865 205.841 38.9006 205.854L35.8189 205.524C35.5599 205.466 35.274 205.256 35.3455 204.858C36.0556 201.125 39.4276 199.999 42.4468 199.999C43.9921 199.999 46.0109 200.41 47.2302 201.58C48.7756 203.023 48.6281 204.948 48.6281 207.042V211.991C48.6281 213.478 49.2445 214.13 49.8251 214.934C50.0305 215.22 50.0752 215.564 49.8161 215.778C49.1685 216.319 48.0162 217.324 47.3821 217.887L47.3731 217.878" fill="black"/>
<path d="M31.5488 276.192V250.56H33.7376V276.192H31.5488ZM32.8736 274.003C31.28 274.003 29.8976 273.715 28.7264 273.139C27.5552 272.544 26.624 271.728 25.9328 270.691C25.2608 269.654 24.8672 268.454 24.752 267.091L27.8912 266.918C28.0064 267.84 28.2752 268.627 28.6976 269.28C29.12 269.913 29.6768 270.403 30.368 270.748C31.0784 271.075 31.9328 271.238 32.9312 271.238C33.7952 271.238 34.5344 271.132 35.1488 270.921C35.7632 270.691 36.224 270.364 36.5312 269.942C36.8576 269.52 37.0208 268.992 37.0208 268.358C37.0208 267.782 36.8864 267.283 36.6176 266.86C36.3488 266.419 35.8304 266.016 35.0624 265.651C34.2944 265.267 33.1712 264.902 31.6928 264.556C30.0992 264.172 28.8224 263.74 27.8624 263.26C26.9024 262.78 26.2112 262.195 25.7888 261.504C25.3856 260.793 25.184 259.91 25.184 258.854C25.184 257.721 25.4624 256.723 26.0192 255.859C26.576 254.976 27.3632 254.294 28.3808 253.814C29.4176 253.315 30.656 253.065 32.096 253.065C33.632 253.065 34.9376 253.344 36.0128 253.9C37.1072 254.457 37.9712 255.225 38.6048 256.204C39.2384 257.184 39.632 258.307 39.7856 259.574L36.6464 259.747C36.5504 258.998 36.3104 258.326 35.9264 257.731C35.5616 257.136 35.0528 256.675 34.4 256.348C33.7472 256.003 32.96 255.83 32.0384 255.83C30.8864 255.83 29.9744 256.099 29.3024 256.636C28.6304 257.174 28.2944 257.884 28.2944 258.768C28.2944 259.344 28.4288 259.824 28.6976 260.208C28.9856 260.592 29.4752 260.928 30.1664 261.216C30.8768 261.504 31.8848 261.801 33.1904 262.108C34.9184 262.512 36.2912 263.001 37.3088 263.577C38.3264 264.134 39.056 264.796 39.4976 265.564C39.9392 266.332 40.16 267.206 40.16 268.185C40.16 269.376 39.8528 270.412 39.2384 271.296C38.624 272.16 37.7696 272.832 36.6752 273.312C35.5808 273.772 34.3136 274.003 32.8736 274.003ZM43.4022 273.6C43.4022 272.064 43.6326 270.691 44.0934 269.481C44.5542 268.272 45.3414 267.148 46.455 266.112C47.5686 265.075 49.1046 264.038 51.063 263.001C52.0038 262.521 52.7526 262.08 53.3094 261.676C53.8854 261.254 54.2982 260.822 54.5478 260.38C54.7974 259.939 54.9222 259.401 54.9222 258.768C54.9222 258.115 54.7782 257.558 54.4902 257.097C54.2214 256.617 53.8182 256.243 53.2806 255.974C52.743 255.686 52.0614 255.542 51.2358 255.542C49.9302 255.542 48.8934 255.897 48.1254 256.608C47.3766 257.299 46.9062 258.297 46.7142 259.603L43.4886 259.401C43.719 257.347 44.4966 255.715 45.8214 254.505C47.1654 253.296 48.9702 252.691 51.2358 252.691C52.695 252.691 53.9334 252.95 54.951 253.468C55.9878 253.968 56.775 254.668 57.3126 255.571C57.8694 256.473 58.1478 257.52 58.1478 258.71C58.1478 259.747 57.975 260.64 57.6294 261.388C57.2838 262.137 56.7078 262.838 55.9014 263.491C55.095 264.124 54.0006 264.806 52.6182 265.536C50.8518 266.476 49.5174 267.408 48.615 268.329C47.7126 269.232 47.2326 270.038 47.175 270.748H58.1478V273.6H43.4022ZM61.1973 278.121L62.6373 273.6H61.0533V269.971H64.7685V273.168L62.9541 278.121H61.1973ZM69.2244 273.6V259.027H64.9044V256.521H66.6612C67.4292 256.521 68.0532 256.425 68.5332 256.233C69.0132 256.022 69.3588 255.676 69.57 255.196C69.7812 254.697 69.8868 254.016 69.8868 253.152H72.3348V273.6H69.2244ZM79.7712 273.6V259.027H75.4512V256.521H77.208C77.976 256.521 78.6 256.425 79.08 256.233C79.56 256.022 79.9056 255.676 80.1168 255.196C80.328 254.697 80.4336 254.016 80.4336 253.152H82.8816V273.6H79.7712ZM87.446 273.6C87.446 272.064 87.6764 270.691 88.1372 269.481C88.598 268.272 89.3852 267.148 90.4988 266.112C91.6124 265.075 93.1484 264.038 95.1068 263.001C96.0476 262.521 96.7964 262.08 97.3532 261.676C97.9292 261.254 98.342 260.822 98.5916 260.38C98.8412 259.939 98.966 259.401 98.966 258.768C98.966 258.115 98.822 257.558 98.534 257.097C98.2652 256.617 97.862 256.243 97.3244 255.974C96.7868 255.686 96.1052 255.542 95.2796 255.542C93.974 255.542 92.9372 255.897 92.1692 256.608C91.4204 257.299 90.95 258.297 90.758 259.603L87.5324 259.401C87.7628 257.347 88.5404 255.715 89.8652 254.505C91.2092 253.296 93.014 252.691 95.2796 252.691C96.7388 252.691 97.9772 252.95 98.9948 253.468C100.032 253.968 100.819 254.668 101.356 255.571C101.913 256.473 102.192 257.52 102.192 258.71C102.192 259.747 102.019 260.64 101.673 261.388C101.328 262.137 100.752 262.838 99.9452 263.491C99.1388 264.124 98.0444 264.806 96.662 265.536C94.8956 266.476 93.5612 267.408 92.6588 268.329C91.7564 269.232 91.2764 270.038 91.2188 270.748H102.192V273.6H87.446ZM105.097 273.6V269.971H108.812V273.6H105.097ZM119.162 274.06C117.472 274.06 116.003 273.628 114.755 272.764C113.507 271.9 112.547 270.672 111.875 269.078C111.203 267.484 110.867 265.593 110.867 263.404C110.867 261.216 111.203 259.324 111.875 257.731C112.567 256.118 113.527 254.88 114.755 254.016C116.003 253.132 117.472 252.691 119.162 252.691C120.871 252.691 122.339 253.132 123.568 254.016C124.816 254.88 125.776 256.108 126.448 257.702C127.139 259.296 127.485 261.196 127.485 263.404C127.485 265.593 127.149 267.484 126.477 269.078C125.805 270.672 124.845 271.9 123.597 272.764C122.349 273.628 120.871 274.06 119.162 274.06ZM119.162 271.209C120.794 271.209 122.051 270.537 122.935 269.193C123.818 267.849 124.259 265.92 124.259 263.404C124.259 261.715 124.058 260.284 123.655 259.113C123.271 257.942 122.695 257.059 121.927 256.464C121.178 255.849 120.256 255.542 119.162 255.542C118.087 255.542 117.165 255.849 116.397 256.464C115.648 257.059 115.072 257.942 114.669 259.113C114.285 260.284 114.093 261.715 114.093 263.404C114.093 265.92 114.535 267.849 115.418 269.193C116.301 270.537 117.549 271.209 119.162 271.209ZM138.596 274.06C136.907 274.06 135.438 273.628 134.19 272.764C132.942 271.9 131.982 270.672 131.31 269.078C130.638 267.484 130.302 265.593 130.302 263.404C130.302 261.216 130.638 259.324 131.31 257.731C132.001 256.118 132.961 254.88 134.19 254.016C135.438 253.132 136.907 252.691 138.596 252.691C140.305 252.691 141.774 253.132 143.003 254.016C144.251 254.88 145.211 256.108 145.883 257.702C146.574 259.296 146.919 261.196 146.919 263.404C146.919 265.593 146.583 267.484 145.911 269.078C145.239 270.672 144.279 271.9 143.031 272.764C141.783 273.628 140.305 274.06 138.596 274.06ZM138.596 271.209C140.228 271.209 141.486 270.537 142.369 269.193C143.252 267.849 143.694 265.92 143.694 263.404C143.694 261.715 143.492 260.284 143.089 259.113C142.705 257.942 142.129 257.059 141.361 256.464C140.612 255.849 139.691 255.542 138.596 255.542C137.521 255.542 136.599 255.849 135.831 256.464C135.083 257.059 134.507 257.942 134.103 259.113C133.719 260.284 133.527 261.715 133.527 263.404C133.527 265.92 133.969 267.849 134.852 269.193C135.735 270.537 136.983 271.209 138.596 271.209ZM163.392 273.945C161.952 273.945 160.733 273.724 159.734 273.283C158.755 272.841 157.997 272.236 157.459 271.468C156.922 270.681 156.614 269.779 156.538 268.761L159.677 268.617C159.83 269.462 160.195 270.134 160.771 270.633C161.347 271.132 162.221 271.382 163.392 271.382C164.352 271.382 165.11 271.228 165.667 270.921C166.224 270.614 166.502 270.124 166.502 269.452C166.502 269.088 166.406 268.78 166.214 268.531C166.042 268.262 165.696 268.041 165.178 267.868C164.659 267.676 163.891 267.494 162.874 267.321C161.357 267.033 160.166 266.697 159.302 266.313C158.438 265.929 157.824 265.44 157.459 264.844C157.094 264.249 156.912 263.529 156.912 262.684C156.912 261.283 157.43 260.14 158.467 259.257C159.523 258.374 161.04 257.932 163.018 257.932C164.342 257.932 165.456 258.163 166.358 258.624C167.261 259.065 167.962 259.67 168.461 260.438C168.979 261.187 169.306 262.032 169.44 262.972L166.301 263.145C166.205 262.608 166.013 262.147 165.725 261.763C165.456 261.36 165.091 261.052 164.63 260.841C164.17 260.611 163.622 260.496 162.989 260.496C162.01 260.496 161.28 260.688 160.8 261.072C160.32 261.456 160.08 261.955 160.08 262.569C160.08 263.03 160.186 263.404 160.397 263.692C160.627 263.98 160.992 264.22 161.491 264.412C161.99 264.585 162.653 264.739 163.478 264.873C165.072 265.142 166.32 265.478 167.222 265.881C168.125 266.265 168.758 266.745 169.123 267.321C169.488 267.897 169.67 268.598 169.67 269.424C169.67 270.384 169.402 271.2 168.864 271.872C168.326 272.544 167.587 273.062 166.646 273.427C165.706 273.772 164.621 273.945 163.392 273.945ZM172.76 277.92V258.278H175.64L175.726 261.561L175.381 261.388C175.765 260.256 176.398 259.401 177.281 258.825C178.165 258.23 179.182 257.932 180.334 257.932C181.832 257.932 183.061 258.307 184.021 259.056C185 259.785 185.72 260.755 186.181 261.964C186.661 263.174 186.901 264.499 186.901 265.939C186.901 267.379 186.661 268.704 186.181 269.913C185.72 271.123 185 272.102 184.021 272.851C183.061 273.58 181.832 273.945 180.334 273.945C179.566 273.945 178.846 273.811 178.174 273.542C177.502 273.273 176.926 272.899 176.446 272.419C175.985 271.92 175.659 271.334 175.467 270.662L175.813 270.316V277.92H172.76ZM179.787 271.296C181.016 271.296 181.976 270.825 182.667 269.884C183.378 268.944 183.733 267.628 183.733 265.939C183.733 264.249 183.378 262.934 182.667 261.993C181.976 261.052 181.016 260.582 179.787 260.582C178.981 260.582 178.28 260.784 177.685 261.187C177.089 261.571 176.629 262.166 176.302 262.972C175.976 263.779 175.813 264.768 175.813 265.939C175.813 267.11 175.966 268.099 176.273 268.905C176.6 269.712 177.061 270.316 177.656 270.72C178.27 271.104 178.981 271.296 179.787 271.296ZM196.308 273.945C194.81 273.945 193.514 273.619 192.42 272.966C191.345 272.313 190.509 271.382 189.914 270.172C189.338 268.963 189.05 267.552 189.05 265.939C189.05 264.326 189.338 262.924 189.914 261.734C190.509 260.524 191.345 259.593 192.42 258.94C193.495 258.268 194.762 257.932 196.221 257.932C197.604 257.932 198.823 258.259 199.879 258.912C200.935 259.545 201.751 260.467 202.327 261.676C202.922 262.886 203.22 264.345 203.22 266.054V266.832H192.218C192.295 268.329 192.689 269.452 193.399 270.201C194.129 270.95 195.108 271.324 196.337 271.324C197.239 271.324 197.988 271.113 198.583 270.691C199.178 270.268 199.591 269.702 199.821 268.992L202.989 269.193C202.586 270.614 201.789 271.766 200.599 272.649C199.428 273.513 197.997 273.945 196.308 273.945ZM192.218 264.528H199.994C199.898 263.164 199.505 262.156 198.813 261.504C198.141 260.851 197.277 260.524 196.221 260.524C195.127 260.524 194.225 260.87 193.514 261.561C192.823 262.233 192.391 263.222 192.218 264.528ZM206.313 273.6V258.278H209.107L209.222 262.368L208.847 262.166C209.02 261.168 209.347 260.361 209.827 259.747C210.307 259.132 210.892 258.681 211.583 258.393C212.275 258.086 213.023 257.932 213.83 257.932C214.982 257.932 215.932 258.192 216.681 258.71C217.449 259.209 218.025 259.9 218.409 260.784C218.812 261.648 219.014 262.636 219.014 263.75V273.6H215.961V264.672C215.961 263.769 215.865 263.011 215.673 262.396C215.481 261.782 215.164 261.312 214.723 260.985C214.281 260.659 213.705 260.496 212.995 260.496C211.919 260.496 211.046 260.851 210.374 261.561C209.702 262.272 209.366 263.308 209.366 264.672V273.6H206.313ZM228.107 273.6C226.648 273.6 225.573 273.264 224.881 272.592C224.19 271.92 223.845 270.873 223.845 269.452V254.678H226.897V269.222C226.897 269.932 227.051 270.422 227.358 270.691C227.665 270.96 228.136 271.094 228.769 271.094H230.958V273.6H228.107ZM221.512 260.784V258.278H230.958V260.784H221.512Z" fill="white"/>
<path d="M24.3208 300.267V298.721H32.4184V300.267H24.3208ZM27.5968 303.543V295.445H29.1424V303.543H27.5968ZM37.8046 305.911V290.943H39.0982V305.911H37.8046ZM38.5942 304.635C37.7318 304.635 36.9758 304.467 36.3262 304.131C35.6878 303.783 35.1782 303.302 34.7974 302.686C34.4166 302.07 34.1926 301.347 34.1254 300.519L35.9062 300.401C35.9846 300.972 36.1414 301.454 36.3766 301.846C36.6118 302.238 36.9198 302.535 37.3006 302.736C37.6814 302.927 38.1294 303.022 38.6446 303.022C39.171 303.022 39.6078 302.96 39.955 302.837C40.3022 302.703 40.5654 302.512 40.7446 302.266C40.9238 302.019 41.0134 301.723 41.0134 301.375C41.0134 301.017 40.9294 300.715 40.7614 300.468C40.6046 300.211 40.3022 299.981 39.8542 299.779C39.4062 299.578 38.7454 299.365 37.8718 299.141C37.0766 298.928 36.4214 298.676 35.9062 298.385C35.391 298.083 35.0102 297.719 34.7638 297.293C34.5286 296.867 34.411 296.369 34.411 295.798C34.411 295.115 34.5678 294.527 34.8814 294.034C35.2062 293.53 35.6654 293.143 36.259 292.875C36.8526 292.595 37.5694 292.455 38.4094 292.455C39.2382 292.455 39.9438 292.611 40.5262 292.925C41.1198 293.227 41.5846 293.659 41.9206 294.219C42.2678 294.779 42.4806 295.439 42.559 296.201L40.7782 296.302C40.7222 295.843 40.599 295.445 40.4086 295.109C40.2182 294.773 39.955 294.515 39.619 294.336C39.283 294.157 38.863 294.067 38.359 294.067C37.6646 294.067 37.1214 294.213 36.7294 294.504C36.3374 294.795 36.1414 295.199 36.1414 295.714C36.1414 296.061 36.2198 296.347 36.3766 296.571C36.5334 296.795 36.8078 296.996 37.1998 297.175C37.5918 297.343 38.1518 297.528 38.8798 297.73C39.843 297.987 40.6046 298.279 41.1646 298.603C41.7358 298.917 42.1446 299.298 42.391 299.746C42.6374 300.183 42.7606 300.726 42.7606 301.375C42.7606 302.025 42.587 302.596 42.2398 303.089C41.8926 303.582 41.4054 303.963 40.7782 304.231C40.1622 304.5 39.4342 304.635 38.5942 304.635ZM48.0629 304.399V295.899H45.0053V294.403H46.5173C46.9541 294.403 47.3069 294.342 47.5757 294.219C47.8445 294.084 48.0405 293.877 48.1637 293.597C48.2869 293.317 48.3485 292.942 48.3485 292.471H49.8269V304.399H48.0629ZM44.4173 304.399V302.736H52.6157V304.399H44.4173ZM57.6491 307.02L58.4555 304.399H57.4811V302.182H59.6987V304.164L58.6235 307.02H57.6491ZM68.6633 304.668C67.8457 304.668 67.1121 304.534 66.4625 304.265C65.8241 303.996 65.3201 303.599 64.9505 303.072C64.5809 302.546 64.3961 301.896 64.3961 301.123C64.3961 300.261 64.6537 299.544 65.1689 298.973C65.6953 298.402 66.3953 298.021 67.2689 297.831L67.3025 298.167C66.5969 297.987 66.0257 297.679 65.5889 297.243C65.1521 296.806 64.9337 296.218 64.9337 295.479C64.9337 294.851 65.0905 294.291 65.4041 293.799C65.7289 293.306 66.1713 292.919 66.7313 292.639C67.2913 292.348 67.9353 292.203 68.6633 292.203C69.3913 292.203 70.0353 292.348 70.5953 292.639C71.1665 292.919 71.6089 293.306 71.9225 293.799C72.2361 294.291 72.3929 294.851 72.3929 295.479C72.3929 296.218 72.1745 296.806 71.7377 297.243C71.3121 297.679 70.7409 297.987 70.0241 298.167L70.0577 297.831C70.9313 298.032 71.6257 298.419 72.1409 298.99C72.6673 299.55 72.9305 300.261 72.9305 301.123C72.9305 301.896 72.7457 302.546 72.3761 303.072C72.0065 303.599 71.5025 303.996 70.8641 304.265C70.2257 304.534 69.4921 304.668 68.6633 304.668ZM68.6633 303.022C69.3689 303.022 69.9513 302.859 70.4105 302.535C70.8697 302.199 71.0993 301.683 71.0993 300.989C71.0993 300.339 70.8921 299.824 70.4777 299.443C70.0745 299.051 69.4697 298.855 68.6633 298.855C67.8681 298.855 67.2633 299.051 66.8489 299.443C66.4345 299.824 66.2273 300.339 66.2273 300.989C66.2273 301.683 66.4569 302.199 66.9161 302.535C67.3753 302.859 67.9577 303.022 68.6633 303.022ZM68.6633 297.276C69.2345 297.276 69.6937 297.131 70.0409 296.839C70.3881 296.548 70.5617 296.111 70.5617 295.529C70.5617 295.014 70.3881 294.605 70.0409 294.303C69.7049 294 69.2457 293.849 68.6633 293.849C68.0809 293.849 67.6161 294 67.2689 294.303C66.9329 294.605 66.7649 295.014 66.7649 295.529C66.7649 296.111 66.9385 296.548 67.2857 296.839C67.6329 297.131 68.0921 297.276 68.6633 297.276ZM78.636 304.668C77.3256 304.668 76.3232 304.355 75.6288 303.727C74.9344 303.1 74.5592 302.277 74.5032 301.258L76.3008 301.14C76.368 301.823 76.6144 302.311 77.04 302.602C77.4768 302.882 78.0144 303.022 78.6528 303.022C79.0896 303.022 79.4984 302.955 79.8792 302.82C80.26 302.686 80.5624 302.473 80.7864 302.182C81.0216 301.891 81.1392 301.499 81.1392 301.006C81.1392 300.524 81.0328 300.127 80.82 299.813C80.6184 299.499 80.3272 299.27 79.9464 299.124C79.5768 298.967 79.1512 298.889 78.6696 298.889H77.7456V297.31H78.6696C79.0504 297.31 79.3976 297.254 79.7112 297.142C80.0248 297.03 80.2712 296.845 80.4504 296.587C80.6408 296.33 80.736 295.999 80.736 295.596C80.736 295.014 80.5568 294.577 80.1984 294.286C79.8512 293.995 79.3528 293.849 78.7032 293.849C78.0312 293.849 77.5216 293.989 77.1744 294.269C76.8384 294.549 76.6312 294.935 76.5528 295.428L74.7384 295.311C74.8616 294.381 75.2592 293.631 75.9312 293.059C76.6144 292.488 77.544 292.203 78.72 292.203C79.504 292.203 80.1816 292.337 80.7528 292.606C81.3352 292.863 81.7832 293.233 82.0968 293.715C82.4104 294.196 82.5672 294.773 82.5672 295.445C82.5672 296.184 82.332 296.783 81.8616 297.243C81.4024 297.691 80.7304 297.999 79.8456 298.167V297.847C80.8088 297.959 81.5704 298.307 82.1304 298.889C82.6904 299.46 82.9704 300.183 82.9704 301.056C82.9704 301.818 82.7856 302.467 82.416 303.005C82.0576 303.543 81.548 303.957 80.8872 304.248C80.2376 304.528 79.4872 304.668 78.636 304.668ZM90.0534 304.399V301.879H84.375V300.351L89.8686 292.471H91.8174V300.25H93.2454V301.879H91.8174V304.399H90.0534ZM86.1054 300.25H90.0534V294.823L86.1054 300.25ZM97.7413 304.399V302.182H100.026V304.399H97.7413ZM108.991 304.668C108.072 304.668 107.288 304.461 106.639 304.047C106 303.632 105.513 303.027 105.177 302.232C104.852 301.426 104.69 300.457 104.69 299.326C104.69 298.34 104.774 297.416 104.942 296.554C105.11 295.691 105.379 294.935 105.748 294.286C106.118 293.636 106.605 293.127 107.21 292.757C107.815 292.387 108.559 292.203 109.444 292.203C110.183 292.203 110.799 292.326 111.292 292.572C111.796 292.807 112.199 293.143 112.502 293.58C112.815 294.017 113.051 294.515 113.207 295.075L111.393 295.227C111.281 294.812 111.074 294.482 110.771 294.235C110.48 293.978 110.038 293.849 109.444 293.849C108.839 293.849 108.319 294.023 107.882 294.37C107.456 294.717 107.12 295.243 106.874 295.949C106.627 296.655 106.493 297.556 106.471 298.654L106.034 298.587C106.157 298.195 106.364 297.831 106.655 297.495C106.958 297.159 107.333 296.89 107.781 296.688C108.229 296.475 108.744 296.369 109.327 296.369C110.122 296.369 110.805 296.537 111.376 296.873C111.959 297.198 112.412 297.668 112.737 298.284C113.062 298.889 113.224 299.595 113.224 300.401C113.224 301.286 113.045 302.047 112.687 302.686C112.328 303.313 111.835 303.8 111.208 304.147C110.581 304.495 109.842 304.668 108.991 304.668ZM108.991 303.005C109.73 303.005 110.312 302.781 110.738 302.333C111.175 301.885 111.393 301.252 111.393 300.435C111.393 299.673 111.191 299.074 110.788 298.637C110.385 298.189 109.831 297.965 109.125 297.965C108.621 297.965 108.173 298.066 107.781 298.267C107.4 298.469 107.098 298.755 106.874 299.124C106.661 299.494 106.555 299.931 106.555 300.435C106.555 300.927 106.65 301.37 106.84 301.762C107.042 302.154 107.327 302.462 107.697 302.686C108.067 302.899 108.498 303.005 108.991 303.005ZM119.064 304.668C118.146 304.668 117.362 304.461 116.712 304.047C116.074 303.632 115.587 303.027 115.251 302.232C114.926 301.426 114.763 300.457 114.763 299.326C114.763 298.34 114.847 297.416 115.015 296.554C115.183 295.691 115.452 294.935 115.822 294.286C116.191 293.636 116.679 293.127 117.283 292.757C117.888 292.387 118.633 292.203 119.518 292.203C120.257 292.203 120.873 292.326 121.366 292.572C121.87 292.807 122.273 293.143 122.575 293.58C122.889 294.017 123.124 294.515 123.281 295.075L121.467 295.227C121.355 294.812 121.147 294.482 120.845 294.235C120.554 293.978 120.111 293.849 119.518 293.849C118.913 293.849 118.392 294.023 117.955 294.37C117.53 294.717 117.194 295.243 116.947 295.949C116.701 296.655 116.567 297.556 116.544 298.654L116.107 298.587C116.231 298.195 116.438 297.831 116.729 297.495C117.031 297.159 117.407 296.89 117.855 296.688C118.303 296.475 118.818 296.369 119.4 296.369C120.195 296.369 120.879 296.537 121.45 296.873C122.032 297.198 122.486 297.668 122.811 298.284C123.135 298.889 123.298 299.595 123.298 300.401C123.298 301.286 123.119 302.047 122.76 302.686C122.402 303.313 121.909 303.8 121.282 304.147C120.655 304.495 119.915 304.668 119.064 304.668ZM119.064 303.005C119.803 303.005 120.386 302.781 120.811 302.333C121.248 301.885 121.467 301.252 121.467 300.435C121.467 299.673 121.265 299.074 120.862 298.637C120.459 298.189 119.904 297.965 119.199 297.965C118.695 297.965 118.247 298.066 117.855 298.267C117.474 298.469 117.171 298.755 116.947 299.124C116.735 299.494 116.628 299.931 116.628 300.435C116.628 300.927 116.723 301.37 116.914 301.762C117.115 302.154 117.401 302.462 117.771 302.686C118.14 302.899 118.571 303.005 119.064 303.005Z" fill="#EC2222"/>
<path d="M137.049 306.247C136.276 305.071 135.694 303.879 135.302 302.669C134.921 301.459 134.731 300.244 134.731 299.023C134.731 296.548 135.504 294.14 137.049 291.799H138.628C137.228 294.219 136.528 296.627 136.528 299.023C136.528 300.222 136.702 301.426 137.049 302.635C137.408 303.834 137.934 305.038 138.628 306.247H137.049ZM142.704 300.267V298.721H150.802V300.267H142.704ZM145.98 303.543V295.445H147.526V303.543H145.98ZM158.07 304.399V301.879H152.391V300.351L157.885 292.471H159.834V300.25H161.262V301.879H159.834V304.399H158.07ZM154.122 300.25H158.07V294.823L154.122 300.25ZM165.758 304.399V302.182H168.042V304.399H165.758ZM176.94 292.203C177.858 292.203 178.637 292.41 179.275 292.824C179.925 293.239 180.412 293.843 180.737 294.639C181.073 295.434 181.241 296.403 181.241 297.545C181.241 298.531 181.157 299.455 180.989 300.317C180.821 301.179 180.552 301.935 180.182 302.585C179.813 303.235 179.325 303.744 178.721 304.114C178.116 304.483 177.371 304.668 176.486 304.668C175.747 304.668 175.125 304.551 174.621 304.315C174.129 304.069 173.725 303.727 173.412 303.291C173.109 302.854 172.88 302.355 172.723 301.795L174.537 301.644C174.661 302.059 174.868 302.395 175.159 302.652C175.461 302.899 175.904 303.022 176.486 303.022C177.091 303.022 177.612 302.848 178.049 302.501C178.485 302.154 178.821 301.627 179.057 300.922C179.303 300.216 179.437 299.315 179.46 298.217L179.897 298.284C179.785 298.676 179.577 299.04 179.275 299.376C178.973 299.712 178.597 299.987 178.149 300.199C177.701 300.401 177.186 300.502 176.604 300.502C175.82 300.502 175.137 300.339 174.554 300.015C173.972 299.679 173.518 299.208 173.193 298.603C172.869 297.987 172.706 297.276 172.706 296.47C172.706 295.585 172.885 294.829 173.244 294.202C173.602 293.563 174.095 293.071 174.722 292.723C175.361 292.376 176.1 292.203 176.94 292.203ZM176.94 293.866C176.201 293.866 175.613 294.09 175.176 294.538C174.75 294.986 174.537 295.619 174.537 296.436C174.537 297.187 174.739 297.786 175.142 298.234C175.557 298.682 176.111 298.906 176.805 298.906C177.309 298.906 177.752 298.805 178.133 298.603C178.525 298.402 178.827 298.116 179.04 297.747C179.264 297.377 179.376 296.94 179.376 296.436C179.376 295.943 179.275 295.501 179.073 295.109C178.883 294.717 178.603 294.415 178.233 294.202C177.875 293.978 177.444 293.866 176.94 293.866ZM184.577 298.251C183.894 298.251 183.317 297.999 182.847 297.495C182.376 296.991 182.141 296.257 182.141 295.294C182.141 294.319 182.376 293.586 182.847 293.093C183.317 292.589 183.894 292.337 184.577 292.337C185.272 292.337 185.848 292.589 186.308 293.093C186.778 293.586 187.013 294.319 187.013 295.294C187.013 296.257 186.778 296.991 186.308 297.495C185.848 297.999 185.272 298.251 184.577 298.251ZM184.577 297.125C184.913 297.125 185.176 296.968 185.367 296.655C185.568 296.341 185.669 295.887 185.669 295.294C185.669 294.7 185.568 294.247 185.367 293.933C185.176 293.619 184.913 293.463 184.577 293.463C184.241 293.463 183.972 293.619 183.771 293.933C183.58 294.247 183.485 294.7 183.485 295.294C183.485 295.887 183.58 296.341 183.771 296.655C183.972 296.968 184.241 297.125 184.577 297.125ZM182.83 304.399L189.903 292.471H191.264L184.191 304.399H182.83ZM189.516 304.534C188.822 304.534 188.24 304.282 187.769 303.778C187.31 303.274 187.08 302.54 187.08 301.577C187.08 300.603 187.31 299.869 187.769 299.376C188.24 298.872 188.822 298.62 189.516 298.62C190.2 298.62 190.776 298.872 191.247 299.376C191.717 299.869 191.952 300.603 191.952 301.577C191.952 302.54 191.717 303.274 191.247 303.778C190.776 304.282 190.2 304.534 189.516 304.534ZM189.516 303.408C189.852 303.408 190.116 303.251 190.306 302.938C190.508 302.624 190.608 302.171 190.608 301.577C190.608 300.983 190.508 300.53 190.306 300.216C190.116 299.903 189.852 299.746 189.516 299.746C189.18 299.746 188.912 299.903 188.71 300.216C188.52 300.53 188.424 300.983 188.424 301.577C188.424 302.171 188.52 302.624 188.71 302.938C188.912 303.251 189.18 303.408 189.516 303.408ZM196.751 306.247H195.172C195.866 305.038 196.387 303.834 196.734 302.635C197.092 301.426 197.272 300.222 197.272 299.023C197.272 296.627 196.572 294.219 195.172 291.799H196.751C198.296 294.14 199.069 296.548 199.069 299.023C199.069 300.244 198.873 301.459 198.481 302.669C198.1 303.879 197.524 305.071 196.751 306.247Z" fill="#EC2222"/>
<path d="M213.551 304.399L210.308 295.495H211.854L214.441 302.955L217.028 295.495H218.574L215.331 304.399H213.551ZM223.089 304.601C222.294 304.601 221.616 304.472 221.056 304.215C220.507 303.957 220.076 303.604 219.763 303.156C219.46 302.697 219.287 302.176 219.242 301.594L220.72 301.493C220.81 302.031 221.039 302.462 221.409 302.787C221.779 303.1 222.339 303.257 223.089 303.257C223.694 303.257 224.175 303.162 224.534 302.971C224.903 302.77 225.088 302.451 225.088 302.014C225.088 301.779 225.032 301.583 224.92 301.426C224.808 301.269 224.59 301.135 224.265 301.023C223.94 300.899 223.459 300.782 222.82 300.67C221.969 300.513 221.297 300.323 220.804 300.099C220.323 299.863 219.975 299.578 219.763 299.242C219.561 298.895 219.46 298.486 219.46 298.015C219.46 297.22 219.751 296.571 220.334 296.067C220.916 295.551 221.745 295.294 222.82 295.294C223.548 295.294 224.159 295.428 224.651 295.697C225.155 295.955 225.547 296.302 225.827 296.739C226.119 297.164 226.309 297.635 226.399 298.15L224.92 298.251C224.853 297.937 224.73 297.663 224.551 297.427C224.371 297.181 224.136 296.991 223.845 296.856C223.554 296.711 223.207 296.638 222.803 296.638C222.165 296.638 221.695 296.761 221.392 297.007C221.09 297.254 220.939 297.567 220.939 297.948C220.939 298.239 221.006 298.48 221.14 298.671C221.286 298.85 221.515 299.001 221.829 299.124C222.143 299.236 222.563 299.337 223.089 299.427C223.996 299.583 224.702 299.774 225.206 299.998C225.71 300.222 226.063 300.496 226.264 300.821C226.466 301.146 226.567 301.543 226.567 302.014C226.567 302.563 226.41 303.033 226.096 303.425C225.794 303.806 225.379 304.097 224.853 304.299C224.338 304.5 223.75 304.601 223.089 304.601ZM232.857 306.919V295.495H234.167L234.201 297.411L233.999 297.31C234.223 296.649 234.593 296.151 235.108 295.815C235.634 295.467 236.239 295.294 236.922 295.294C237.807 295.294 238.53 295.512 239.09 295.949C239.661 296.386 240.081 296.957 240.35 297.663C240.63 298.368 240.77 299.13 240.77 299.947C240.77 300.765 240.63 301.527 240.35 302.232C240.081 302.938 239.661 303.509 239.09 303.946C238.53 304.383 237.807 304.601 236.922 304.601C236.463 304.601 236.032 304.523 235.629 304.366C235.237 304.209 234.901 303.991 234.621 303.711C234.352 303.431 234.167 303.1 234.066 302.719L234.268 302.484V306.919H232.857ZM236.788 303.257C237.561 303.257 238.171 302.966 238.619 302.383C239.067 301.801 239.291 300.989 239.291 299.947C239.291 298.906 239.067 298.094 238.619 297.511C238.171 296.929 237.561 296.638 236.788 296.638C236.273 296.638 235.825 296.761 235.444 297.007C235.074 297.254 234.783 297.623 234.57 298.116C234.369 298.609 234.268 299.219 234.268 299.947C234.268 300.675 234.369 301.286 234.57 301.779C234.772 302.271 235.063 302.641 235.444 302.887C235.825 303.134 236.273 303.257 236.788 303.257ZM245.316 304.601C244.398 304.601 243.664 304.388 243.115 303.963C242.578 303.537 242.309 302.943 242.309 302.182C242.309 301.42 242.533 300.821 242.981 300.384C243.429 299.947 244.14 299.639 245.115 299.46L248.273 298.872C248.273 298.122 248.094 297.562 247.735 297.192C247.388 296.823 246.862 296.638 246.156 296.638C245.54 296.638 245.053 296.778 244.695 297.058C244.336 297.327 244.09 297.719 243.955 298.234L242.46 298.116C242.628 297.276 243.031 296.599 243.67 296.083C244.319 295.557 245.148 295.294 246.156 295.294C247.299 295.294 248.172 295.619 248.777 296.268C249.382 296.907 249.684 297.791 249.684 298.923V302.602C249.684 302.803 249.718 302.949 249.785 303.039C249.863 303.117 249.987 303.156 250.155 303.156H250.507V304.399C250.463 304.411 250.39 304.416 250.289 304.416C250.188 304.427 250.082 304.433 249.97 304.433C249.567 304.433 249.236 304.371 248.979 304.248C248.732 304.114 248.553 303.912 248.441 303.643C248.329 303.363 248.273 302.999 248.273 302.551L248.441 302.585C248.363 302.966 248.172 303.313 247.87 303.627C247.567 303.929 247.192 304.17 246.744 304.349C246.296 304.517 245.82 304.601 245.316 304.601ZM245.451 303.358C246.044 303.358 246.548 303.246 246.963 303.022C247.388 302.787 247.713 302.473 247.937 302.081C248.161 301.678 248.273 301.23 248.273 300.737V300.099L245.383 300.636C244.779 300.748 244.359 300.922 244.123 301.157C243.899 301.381 243.787 301.678 243.787 302.047C243.787 302.462 243.933 302.787 244.224 303.022C244.527 303.246 244.935 303.358 245.451 303.358ZM255.311 304.601C254.516 304.601 253.838 304.472 253.278 304.215C252.729 303.957 252.298 303.604 251.985 303.156C251.682 302.697 251.509 302.176 251.464 301.594L252.942 301.493C253.032 302.031 253.261 302.462 253.631 302.787C254.001 303.1 254.561 303.257 255.311 303.257C255.916 303.257 256.397 303.162 256.756 302.971C257.125 302.77 257.31 302.451 257.31 302.014C257.31 301.779 257.254 301.583 257.142 301.426C257.03 301.269 256.812 301.135 256.487 301.023C256.162 300.899 255.681 300.782 255.042 300.67C254.191 300.513 253.519 300.323 253.026 300.099C252.545 299.863 252.197 299.578 251.985 299.242C251.783 298.895 251.682 298.486 251.682 298.015C251.682 297.22 251.973 296.571 252.556 296.067C253.138 295.551 253.967 295.294 255.042 295.294C255.77 295.294 256.381 295.428 256.873 295.697C257.377 295.955 257.769 296.302 258.049 296.739C258.341 297.164 258.531 297.635 258.621 298.15L257.142 298.251C257.075 297.937 256.952 297.663 256.773 297.427C256.593 297.181 256.358 296.991 256.067 296.856C255.776 296.711 255.429 296.638 255.025 296.638C254.387 296.638 253.917 296.761 253.614 297.007C253.312 297.254 253.161 297.567 253.161 297.948C253.161 298.239 253.228 298.48 253.362 298.671C253.508 298.85 253.737 299.001 254.051 299.124C254.365 299.236 254.785 299.337 255.311 299.427C256.218 299.583 256.924 299.774 257.428 299.998C257.932 300.222 258.285 300.496 258.486 300.821C258.688 301.146 258.789 301.543 258.789 302.014C258.789 302.563 258.632 303.033 258.318 303.425C258.016 303.806 257.601 304.097 257.075 304.299C256.56 304.5 255.972 304.601 255.311 304.601ZM263.629 304.399C262.823 304.399 262.224 304.215 261.832 303.845C261.451 303.475 261.261 302.899 261.261 302.115V293.412H262.672V302.081C262.672 302.484 262.761 302.764 262.941 302.921C263.12 303.078 263.394 303.156 263.764 303.156H265.041V304.399H263.629ZM259.95 296.739V295.495H265.041V296.739H259.95ZM274.862 304.668C273.54 304.668 272.521 304.36 271.804 303.744C271.087 303.117 270.701 302.311 270.645 301.325L272.14 301.224C272.207 301.952 272.487 302.473 272.98 302.787C273.484 303.1 274.111 303.257 274.862 303.257C275.377 303.257 275.853 303.19 276.29 303.055C276.727 302.91 277.079 302.68 277.348 302.367C277.617 302.042 277.751 301.611 277.751 301.073C277.751 300.278 277.488 299.695 276.962 299.326C276.435 298.956 275.741 298.771 274.879 298.771H273.938V297.36H274.879C275.584 297.36 276.167 297.22 276.626 296.94C277.096 296.66 277.331 296.179 277.331 295.495C277.331 294.879 277.13 294.415 276.727 294.101C276.335 293.776 275.741 293.614 274.946 293.614C274.162 293.614 273.568 293.765 273.165 294.067C272.773 294.37 272.538 294.784 272.459 295.311L270.947 295.21C271.059 294.314 271.457 293.591 272.14 293.043C272.823 292.483 273.759 292.203 274.946 292.203C275.752 292.203 276.447 292.337 277.029 292.606C277.611 292.863 278.059 293.233 278.373 293.715C278.687 294.196 278.843 294.767 278.843 295.428C278.843 296.167 278.608 296.767 278.138 297.226C277.679 297.674 276.995 297.982 276.088 298.15V297.847C277.063 297.959 277.835 298.307 278.407 298.889C278.978 299.471 279.263 300.199 279.263 301.073C279.263 301.835 279.073 302.484 278.692 303.022C278.323 303.559 277.807 303.968 277.147 304.248C276.486 304.528 275.724 304.668 274.862 304.668ZM285.652 304.399V295.495H286.946L286.996 297.747L286.795 297.679C286.895 297.187 287.069 296.767 287.315 296.419C287.573 296.061 287.887 295.787 288.256 295.596C288.626 295.395 289.035 295.294 289.483 295.294C290.255 295.294 290.883 295.507 291.364 295.932C291.857 296.358 292.165 296.951 292.288 297.713L292.019 297.696C292.109 297.181 292.271 296.75 292.507 296.403C292.753 296.044 293.067 295.77 293.447 295.579C293.828 295.389 294.265 295.294 294.758 295.294C295.396 295.294 295.934 295.428 296.371 295.697C296.807 295.955 297.138 296.335 297.362 296.839C297.586 297.343 297.698 297.954 297.698 298.671V304.399H296.287V298.973C296.287 298.167 296.13 297.562 295.816 297.159C295.503 296.744 295.038 296.537 294.422 296.537C294.007 296.537 293.643 296.638 293.33 296.839C293.027 297.041 292.792 297.332 292.624 297.713C292.456 298.083 292.372 298.536 292.372 299.074V304.399H290.961V299.074C290.961 298.279 290.821 297.657 290.541 297.209C290.261 296.761 289.791 296.537 289.13 296.537C288.715 296.537 288.351 296.638 288.038 296.839C287.735 297.041 287.495 297.332 287.315 297.713C287.147 298.094 287.063 298.547 287.063 299.074V304.399H285.652ZM303.666 304.601C302.848 304.601 302.131 304.411 301.515 304.03C300.899 303.649 300.423 303.111 300.087 302.417C299.751 301.711 299.583 300.888 299.583 299.947C299.583 298.995 299.751 298.172 300.087 297.478C300.423 296.783 300.899 296.246 301.515 295.865C302.131 295.484 302.848 295.294 303.666 295.294C304.483 295.294 305.194 295.484 305.799 295.865C306.415 296.246 306.891 296.783 307.227 297.478C307.563 298.172 307.731 298.995 307.731 299.947C307.731 300.888 307.563 301.711 307.227 302.417C306.891 303.111 306.415 303.649 305.799 304.03C305.194 304.411 304.483 304.601 303.666 304.601ZM303.666 303.257C304.483 303.257 305.116 302.966 305.564 302.383C306.023 301.79 306.253 300.978 306.253 299.947C306.253 298.917 306.023 298.111 305.564 297.528C305.116 296.935 304.483 296.638 303.666 296.638C302.848 296.638 302.21 296.935 301.75 297.528C301.291 298.111 301.062 298.917 301.062 299.947C301.062 300.978 301.291 301.79 301.75 302.383C302.21 302.966 302.848 303.257 303.666 303.257ZM309.654 304.399V295.495H310.948L310.998 297.763L310.83 297.612C310.942 297.086 311.138 296.655 311.418 296.319C311.698 295.971 312.034 295.714 312.426 295.546C312.83 295.378 313.261 295.294 313.72 295.294C314.403 295.294 314.963 295.445 315.4 295.747C315.848 296.05 316.178 296.459 316.391 296.974C316.615 297.478 316.727 298.043 316.727 298.671V304.399H315.316V299.074C315.316 298.525 315.249 298.066 315.114 297.696C314.991 297.315 314.79 297.03 314.51 296.839C314.23 296.638 313.866 296.537 313.418 296.537C312.734 296.537 312.169 296.755 311.721 297.192C311.284 297.618 311.066 298.245 311.066 299.074V304.399H309.654ZM322.003 304.399C321.196 304.399 320.597 304.215 320.205 303.845C319.824 303.475 319.634 302.899 319.634 302.115V293.412H321.045V302.081C321.045 302.484 321.135 302.764 321.314 302.921C321.493 303.078 321.768 303.156 322.137 303.156H323.414V304.399H322.003ZM318.324 296.739V295.495H323.414V296.739H318.324ZM325.224 304.399V292.471H326.635V297.461L326.467 297.427C326.579 296.935 326.77 296.531 327.038 296.218C327.307 295.904 327.638 295.675 328.03 295.529C328.422 295.372 328.853 295.294 329.323 295.294C329.962 295.294 330.499 295.439 330.936 295.731C331.384 296.011 331.72 296.408 331.944 296.923C332.179 297.427 332.297 298.01 332.297 298.671V304.399H330.886V299.074C330.886 298.211 330.729 297.573 330.415 297.159C330.113 296.744 329.648 296.537 329.021 296.537C328.304 296.537 327.727 296.755 327.29 297.192C326.854 297.629 326.635 298.262 326.635 299.091V304.399H325.224ZM338.031 304.601C337.236 304.601 336.558 304.472 335.998 304.215C335.45 303.957 335.018 303.604 334.705 303.156C334.402 302.697 334.229 302.176 334.184 301.594L335.662 301.493C335.752 302.031 335.982 302.462 336.351 302.787C336.721 303.1 337.281 303.257 338.031 303.257C338.636 303.257 339.118 303.162 339.476 302.971C339.846 302.77 340.03 302.451 340.03 302.014C340.03 301.779 339.974 301.583 339.862 301.426C339.75 301.269 339.532 301.135 339.207 301.023C338.882 300.899 338.401 300.782 337.762 300.67C336.911 300.513 336.239 300.323 335.746 300.099C335.265 299.863 334.918 299.578 334.705 299.242C334.503 298.895 334.402 298.486 334.402 298.015C334.402 297.22 334.694 296.571 335.276 296.067C335.858 295.551 336.687 295.294 337.762 295.294C338.49 295.294 339.101 295.428 339.594 295.697C340.098 295.955 340.49 296.302 340.77 296.739C341.061 297.164 341.251 297.635 341.341 298.15L339.862 298.251C339.795 297.937 339.672 297.663 339.493 297.427C339.314 297.181 339.078 296.991 338.787 296.856C338.496 296.711 338.149 296.638 337.746 296.638C337.107 296.638 336.637 296.761 336.334 297.007C336.032 297.254 335.881 297.567 335.881 297.948C335.881 298.239 335.948 298.48 336.082 298.671C336.228 298.85 336.458 299.001 336.771 299.124C337.085 299.236 337.505 299.337 338.031 299.427C338.938 299.583 339.644 299.774 340.148 299.998C340.652 300.222 341.005 300.496 341.206 300.821C341.408 301.146 341.509 301.543 341.509 302.014C341.509 302.563 341.352 303.033 341.038 303.425C340.736 303.806 340.322 304.097 339.795 304.299C339.28 304.5 338.692 304.601 338.031 304.601Z" fill="#737373"/>
</g>
<path d="M23.1973 8.59961H359.197C366.819 8.59983 372.997 14.779 372.997 22.4004V315.2C372.997 322.822 366.819 329 359.197 329H23.1973C15.5758 329 9.39659 322.822 9.39648 315.2V22.4004L9.40137 22.0439C9.59023 14.587 15.6948 8.59961 23.1973 8.59961Z" stroke="white" stroke-opacity="0.06" stroke-width="1.2"/>
</g>
<defs>
<filter id="filter0_dd_2031_1768" x="-0.00312519" y="0.8" width="382.4" height="339.2" filterUnits="userSpaceOnUse" color-interpolation-filters="sRGB">
<feFlood flood-opacity="0" result="BackgroundImageFix"/>
<feColorMatrix in="SourceAlpha" type="matrix" values="0 0 0 0 0 0 0 0 0 0 0 0 0 0 0 0 0 0 127 0" result="hardAlpha"/>
<feMorphology radius="1.2" operator="dilate" in="SourceAlpha" result="effect1_dropShadow_2031_1768"/>
<feOffset/>
<feColorMatrix type="matrix" values="0 0 0 0 1 0 0 0 0 1 0 0 0 0 1 0 0 0 0.09 0"/>
<feBlend mode="normal" in2="BackgroundImageFix" result="effect1_dropShadow_2031_1768"/>
<feColorMatrix in="SourceAlpha" type="matrix" values="0 0 0 0 0 0 0 0 0 0 0 0 0 0 0 0 0 0 127 0" result="hardAlpha"/>
<feOffset dy="1.6"/>
<feGaussianBlur stdDeviation="4.4"/>
<feColorMatrix type="matrix" values="0 0 0 0 0.0431373 0 0 0 0 0.0431373 0 0 0 0 0.0431373 0 0 0 0.08 0"/>
<feBlend mode="normal" in2="effect1_dropShadow_2031_1768" result="effect2_dropShadow_2031_1768"/>
<feBlend mode="normal" in="SourceGraphic" in2="effect2_dropShadow_2031_1768" result="shape"/>
</filter>
<linearGradient id="paint0_linear_2031_1768" x1="191.594" y1="52.7309" x2="191.594" y2="285.255" gradientUnits="userSpaceOnUse">
<stop stop-color="#1C1C1C"/>
<stop offset="1" stop-color="#121212"/>
</linearGradient>
<linearGradient id="paint1_linear_2031_1768" x1="200.797" y1="51.2002" x2="200.797" y2="107.339" gradientUnits="userSpaceOnUse">
<stop stop-color="#EC2222"/>
<stop offset="0.0666667" stop-color="#EB2324"/>
<stop offset="0.133333" stop-color="#E9262A"/>
<stop offset="0.2" stop-color="#E62B34"/>
<stop offset="0.266667" stop-color="#E13142"/>
<stop offset="0.333333" stop-color="#DB3A54"/>
<stop offset="0.4" stop-color="#D4456A"/>
<stop offset="0.466667" stop-color="#CC5082"/>
<stop offset="0.533333" stop-color="#C45C9B"/>
<stop offset="0.6" stop-color="#BC68B3"/>
<stop offset="0.666667" stop-color="#B572C9"/>
<stop offset="0.733333" stop-color="#AF7BDB"/>
<stop offset="0.8" stop-color="#AA82E9"/>
<stop offset="0.866667" stop-color="#A787F3"/>
<stop offset="0.933333" stop-color="#A589F9"/>
<stop offset="1" stop-color="#A48AFB"/>
</linearGradient>
<clipPath id="clip0_2031_1768">
<path d="M8.79688 22.4C8.79688 14.4471 15.244 8 23.1969 8H359.197C367.15 8 373.597 14.4471 373.597 22.4V315.2C373.597 323.153 367.15 329.6 359.197 329.6H23.1969C15.244 329.6 8.79688 323.153 8.79688 315.2V22.4Z" fill="white"/>
</clipPath>
</defs>
</svg>
