<svg width="310" height="55" viewBox="0 0 310 55" fill="none" xmlns="http://www.w3.org/2000/svg">
<g filter="url(#filter0_dd_2031_1734)">
<rect x="9" y="8" width="292" height="36" rx="18" fill="#171717"/>
<rect x="9" y="8" width="292" height="36" rx="18" fill="url(#paint0_linear_2031_1734)"/>
<rect x="9" y="8" width="292" height="36" rx="18" fill="white" fill-opacity="0.07"/>
<path d="M25.704 31.224C24.9387 31.224 24.2713 31.0793 23.702 30.79C23.1327 30.5007 22.68 30.104 22.344 29.6C22.0173 29.0867 21.826 28.494 21.77 27.822L23.03 27.738C23.0953 28.2327 23.24 28.6527 23.464 28.998C23.688 29.3433 23.9867 29.6047 24.36 29.782C24.7427 29.9593 25.2 30.048 25.732 30.048C26.1987 30.048 26.5953 29.9873 26.922 29.866C27.2487 29.7447 27.496 29.5673 27.664 29.334C27.8413 29.1007 27.93 28.816 27.93 28.48C27.93 28.172 27.8553 27.9013 27.706 27.668C27.566 27.4253 27.2907 27.206 26.88 27.01C26.4787 26.8047 25.8813 26.604 25.088 26.408C24.3227 26.212 23.7113 25.9973 23.254 25.764C22.806 25.5307 22.4793 25.246 22.274 24.91C22.078 24.574 21.98 24.1587 21.98 23.664C21.98 23.104 22.1107 22.614 22.372 22.194C22.6427 21.7647 23.0253 21.4333 23.52 21.2C24.0147 20.9573 24.6027 20.836 25.284 20.836C26.012 20.836 26.6373 20.976 27.16 21.256C27.6827 21.5267 28.098 21.9 28.406 22.376C28.714 22.852 28.9053 23.3933 28.98 24L27.72 24.084C27.664 23.6827 27.5333 23.328 27.328 23.02C27.132 22.7027 26.8613 22.4553 26.516 22.278C26.1707 22.1007 25.7507 22.012 25.256 22.012C24.64 22.012 24.15 22.1613 23.786 22.46C23.422 22.7493 23.24 23.132 23.24 23.608C23.24 23.916 23.31 24.1727 23.45 24.378C23.5993 24.574 23.8607 24.7513 24.234 24.91C24.6073 25.0593 25.144 25.2227 25.844 25.4C26.6747 25.6053 27.3327 25.8527 27.818 26.142C28.3127 26.422 28.6627 26.7487 28.868 27.122C29.0827 27.4953 29.19 27.92 29.19 28.396C29.19 28.9747 29.0407 29.4787 28.742 29.908C28.4433 30.328 28.0327 30.6547 27.51 30.888C26.9873 31.112 26.3853 31.224 25.704 31.224ZM33.5111 31.168C32.7737 31.168 32.1811 30.9207 31.7331 30.426C31.2944 29.922 31.0751 29.2313 31.0751 28.354V23.58H32.2511V28.032C32.2511 28.7507 32.3771 29.2827 32.6291 29.628C32.8904 29.964 33.2871 30.132 33.8191 30.132C34.4071 30.132 34.8691 29.9453 35.2051 29.572C35.5411 29.1893 35.7091 28.6667 35.7091 28.004V23.58H36.8851V31H35.7651V29.166L35.9471 29.264C35.7977 29.8707 35.5131 30.342 35.0931 30.678C34.6731 31.0047 34.1457 31.168 33.5111 31.168ZM39.1278 31V23.58H40.2058L40.2478 25.456L40.0798 25.4C40.1638 24.9893 40.3085 24.6393 40.5138 24.35C40.7285 24.0513 40.9898 23.8227 41.2978 23.664C41.6058 23.496 41.9465 23.412 42.3198 23.412C42.9638 23.412 43.4865 23.5893 43.8878 23.944C44.2985 24.2987 44.5551 24.7933 44.6578 25.428L44.4338 25.414C44.5085 24.9847 44.6438 24.6253 44.8398 24.336C45.0451 24.0373 45.3065 23.8087 45.6238 23.65C45.9411 23.4913 46.3051 23.412 46.7158 23.412C47.2478 23.412 47.6958 23.524 48.0598 23.748C48.4238 23.9627 48.6991 24.28 48.8858 24.7C49.0725 25.12 49.1658 25.6287 49.1658 26.226V31H47.9898V26.478C47.9898 25.806 47.8591 25.302 47.5978 24.966C47.3365 24.6207 46.9491 24.448 46.4358 24.448C46.0905 24.448 45.7871 24.532 45.5258 24.7C45.2738 24.868 45.0778 25.1107 44.9378 25.428C44.7978 25.736 44.7278 26.114 44.7278 26.562V31H43.5518V26.562C43.5518 25.8993 43.4351 25.3813 43.2018 25.008C42.9685 24.6347 42.5765 24.448 42.0258 24.448C41.6805 24.448 41.3771 24.532 41.1158 24.7C40.8638 24.868 40.6631 25.1107 40.5138 25.428C40.3738 25.7453 40.3038 26.1233 40.3038 26.562V31H39.1278ZM51.1317 31V23.58H52.2097L52.2517 25.456L52.0837 25.4C52.1677 24.9893 52.3124 24.6393 52.5177 24.35C52.7324 24.0513 52.9937 23.8227 53.3017 23.664C53.6097 23.496 53.9504 23.412 54.3237 23.412C54.9677 23.412 55.4904 23.5893 55.8917 23.944C56.3024 24.2987 56.5591 24.7933 56.6617 25.428L56.4377 25.414C56.5124 24.9847 56.6477 24.6253 56.8437 24.336C57.0491 24.0373 57.3104 23.8087 57.6277 23.65C57.9451 23.4913 58.3091 23.412 58.7197 23.412C59.2517 23.412 59.6997 23.524 60.0637 23.748C60.4277 23.9627 60.7031 24.28 60.8897 24.7C61.0764 25.12 61.1697 25.6287 61.1697 26.226V31H59.9937V26.478C59.9937 25.806 59.8631 25.302 59.6017 24.966C59.3404 24.6207 58.9531 24.448 58.4397 24.448C58.0944 24.448 57.7911 24.532 57.5297 24.7C57.2777 24.868 57.0817 25.1107 56.9417 25.428C56.8017 25.736 56.7317 26.114 56.7317 26.562V31H55.5557V26.562C55.5557 25.8993 55.4391 25.3813 55.2057 25.008C54.9724 24.6347 54.5804 24.448 54.0297 24.448C53.6844 24.448 53.3811 24.532 53.1197 24.7C52.8677 24.868 52.6671 25.1107 52.5177 25.428C52.3777 25.7453 52.3077 26.1233 52.3077 26.562V31H51.1317ZM65.2743 31.168C64.509 31.168 63.8977 30.9907 63.4403 30.636C62.9923 30.2813 62.7683 29.7867 62.7683 29.152C62.7683 28.5173 62.955 28.018 63.3283 27.654C63.7017 27.29 64.2943 27.0333 65.1063 26.884L67.7383 26.394C67.7383 25.7687 67.589 25.302 67.2903 24.994C67.001 24.686 66.5623 24.532 65.9743 24.532C65.461 24.532 65.055 24.6487 64.7563 24.882C64.4577 25.106 64.2523 25.4327 64.1403 25.862L62.8943 25.764C63.0343 25.064 63.3703 24.4993 63.9023 24.07C64.4437 23.6313 65.1343 23.412 65.9743 23.412C66.9263 23.412 67.6543 23.6827 68.1583 24.224C68.6623 24.756 68.9143 25.4933 68.9143 26.436V29.502C68.9143 29.67 68.9423 29.7913 68.9983 29.866C69.0637 29.9313 69.1663 29.964 69.3063 29.964H69.6003V31C69.563 31.0093 69.5023 31.014 69.4183 31.014C69.3343 31.0233 69.2457 31.028 69.1523 31.028C68.8163 31.028 68.541 30.9767 68.3263 30.874C68.121 30.762 67.9717 30.594 67.8783 30.37C67.785 30.1367 67.7383 29.8333 67.7383 29.46L67.8783 29.488C67.813 29.8053 67.6543 30.0947 67.4023 30.356C67.1503 30.608 66.8377 30.8087 66.4643 30.958C66.091 31.098 65.6943 31.168 65.2743 31.168ZM65.3863 30.132C65.881 30.132 66.301 30.0387 66.6463 29.852C67.001 29.656 67.2717 29.3947 67.4583 29.068C67.645 28.732 67.7383 28.3587 67.7383 27.948V27.416L65.3303 27.864C64.8263 27.9573 64.4763 28.102 64.2803 28.298C64.0937 28.4847 64.0003 28.732 64.0003 29.04C64.0003 29.3853 64.1217 29.656 64.3643 29.852C64.6163 30.0387 64.957 30.132 65.3863 30.132ZM70.9286 31V23.58H71.9646L72.0206 25.456L71.9086 25.414C72.0019 24.7793 72.2026 24.3173 72.5106 24.028C72.8279 23.7293 73.2479 23.58 73.7706 23.58H74.4986V24.7H73.7846C73.4113 24.7 73.0986 24.77 72.8466 24.91C72.6039 25.0407 72.4173 25.2413 72.2866 25.512C72.1653 25.7733 72.1046 26.1093 72.1046 26.52V31H70.9286ZM75.8095 31V23.58H76.9855V31H75.8095ZM75.7815 22.418V21.046H77.0135V22.418H75.7815ZM78.9054 31V29.824L83.5954 24.616H79.0454V23.58H84.8834V24.756L80.1934 29.964H84.9954V31H78.9054ZM89.3852 31.168C88.6852 31.168 88.0785 31.0093 87.5652 30.692C87.0612 30.3747 86.6692 29.9267 86.3892 29.348C86.1185 28.76 85.9832 28.074 85.9832 27.29C85.9832 26.506 86.1185 25.8247 86.3892 25.246C86.6692 24.6673 87.0565 24.2193 87.5512 23.902C88.0552 23.5753 88.6479 23.412 89.3292 23.412C89.9732 23.412 90.5425 23.566 91.0372 23.874C91.5319 24.1727 91.9145 24.6113 92.1852 25.19C92.4652 25.7687 92.6052 26.4733 92.6052 27.304V27.654H87.2152C87.2619 28.4473 87.4719 29.0447 87.8452 29.446C88.2279 29.8473 88.7412 30.048 89.3852 30.048C89.8705 30.048 90.2672 29.936 90.5752 29.712C90.8925 29.4787 91.1119 29.1753 91.2332 28.802L92.4932 28.9C92.2972 29.5627 91.9239 30.1087 91.3732 30.538C90.8319 30.958 90.1692 31.168 89.3852 31.168ZM87.2152 26.618H91.3172C91.2612 25.8993 91.0512 25.372 90.6872 25.036C90.3325 24.7 89.8799 24.532 89.3292 24.532C88.7599 24.532 88.2885 24.7093 87.9152 25.064C87.5512 25.4093 87.3179 25.9273 87.2152 26.618ZM97.8348 31V23.58H98.9128L98.9548 25.456L98.7868 25.4C98.8708 24.9893 99.0155 24.6393 99.2208 24.35C99.4355 24.0513 99.6968 23.8227 100.005 23.664C100.313 23.496 100.654 23.412 101.027 23.412C101.671 23.412 102.194 23.5893 102.595 23.944C103.006 24.2987 103.262 24.7933 103.365 25.428L103.141 25.414C103.216 24.9847 103.351 24.6253 103.547 24.336C103.752 24.0373 104.014 23.8087 104.331 23.65C104.648 23.4913 105.012 23.412 105.423 23.412C105.955 23.412 106.403 23.524 106.767 23.748C107.131 23.9627 107.406 24.28 107.593 24.7C107.78 25.12 107.873 25.6287 107.873 26.226V31H106.697V26.478C106.697 25.806 106.566 25.302 106.305 24.966C106.044 24.6207 105.656 24.448 105.143 24.448C104.798 24.448 104.494 24.532 104.233 24.7C103.981 24.868 103.785 25.1107 103.645 25.428C103.505 25.736 103.435 26.114 103.435 26.562V31H102.259V26.562C102.259 25.8993 102.142 25.3813 101.909 25.008C101.676 24.6347 101.284 24.448 100.733 24.448C100.388 24.448 100.084 24.532 99.8228 24.7C99.5708 24.868 99.3702 25.1107 99.2208 25.428C99.0808 25.7453 99.0108 26.1233 99.0108 26.562V31H97.8348ZM111.977 31.168C111.212 31.168 110.601 30.9907 110.143 30.636C109.695 30.2813 109.471 29.7867 109.471 29.152C109.471 28.5173 109.658 28.018 110.031 27.654C110.405 27.29 110.997 27.0333 111.809 26.884L114.441 26.394C114.441 25.7687 114.292 25.302 113.993 24.994C113.704 24.686 113.265 24.532 112.677 24.532C112.164 24.532 111.758 24.6487 111.459 24.882C111.161 25.106 110.955 25.4327 110.843 25.862L109.597 25.764C109.737 25.064 110.073 24.4993 110.605 24.07C111.147 23.6313 111.837 23.412 112.677 23.412C113.629 23.412 114.357 23.6827 114.861 24.224C115.365 24.756 115.617 25.4933 115.617 26.436V29.502C115.617 29.67 115.645 29.7913 115.701 29.866C115.767 29.9313 115.869 29.964 116.009 29.964H116.303V31C116.266 31.0093 116.205 31.014 116.121 31.014C116.037 31.0233 115.949 31.028 115.855 31.028C115.519 31.028 115.244 30.9767 115.029 30.874C114.824 30.762 114.675 30.594 114.581 30.37C114.488 30.1367 114.441 29.8333 114.441 29.46L114.581 29.488C114.516 29.8053 114.357 30.0947 114.105 30.356C113.853 30.608 113.541 30.8087 113.167 30.958C112.794 31.098 112.397 31.168 111.977 31.168ZM112.089 30.132C112.584 30.132 113.004 30.0387 113.349 29.852C113.704 29.656 113.975 29.3947 114.161 29.068C114.348 28.732 114.441 28.3587 114.441 27.948V27.416L112.033 27.864C111.529 27.9573 111.179 28.102 110.983 28.298C110.797 28.4847 110.703 28.732 110.703 29.04C110.703 29.3853 110.825 29.656 111.067 29.852C111.319 30.0387 111.66 30.132 112.089 30.132ZM117.632 31V23.58H118.668L118.724 25.456L118.612 25.414C118.705 24.7793 118.906 24.3173 119.214 24.028C119.531 23.7293 119.951 23.58 120.474 23.58H121.202V24.7H120.488C120.114 24.7 119.802 24.77 119.55 24.91C119.307 25.0407 119.12 25.2413 118.99 25.512C118.868 25.7733 118.808 26.1093 118.808 26.52V31H117.632ZM122.513 31V21.06H123.689V27.57L127.301 23.58H128.869L125.943 26.73L128.995 31H127.567L125.145 27.528L123.689 29.068V31H122.513ZM132.971 31.168C132.271 31.168 131.664 31.0093 131.151 30.692C130.647 30.3747 130.255 29.9267 129.975 29.348C129.704 28.76 129.569 28.074 129.569 27.29C129.569 26.506 129.704 25.8247 129.975 25.246C130.255 24.6673 130.642 24.2193 131.137 23.902C131.641 23.5753 132.234 23.412 132.915 23.412C133.559 23.412 134.128 23.566 134.623 23.874C135.118 24.1727 135.5 24.6113 135.771 25.19C136.051 25.7687 136.191 26.4733 136.191 27.304V27.654H130.801C130.848 28.4473 131.058 29.0447 131.431 29.446C131.814 29.8473 132.327 30.048 132.971 30.048C133.456 30.048 133.853 29.936 134.161 29.712C134.478 29.4787 134.698 29.1753 134.819 28.802L136.079 28.9C135.883 29.5627 135.51 30.1087 134.959 30.538C134.418 30.958 133.755 31.168 132.971 31.168ZM130.801 26.618H134.903C134.847 25.8993 134.637 25.372 134.273 25.036C133.918 24.7 133.466 24.532 132.915 24.532C132.346 24.532 131.874 24.7093 131.501 25.064C131.137 25.4093 130.904 25.9273 130.801 26.618ZM140.213 31C139.541 31 139.042 30.846 138.715 30.538C138.398 30.23 138.239 29.7493 138.239 29.096V21.844H139.415V29.068C139.415 29.404 139.49 29.6373 139.639 29.768C139.788 29.8987 140.017 29.964 140.325 29.964H141.389V31H140.213ZM137.147 24.616V23.58H141.389V24.616H137.147ZM146.479 31V23.58H147.557L147.599 25.47L147.459 25.344C147.553 24.9053 147.716 24.546 147.949 24.266C148.183 23.9767 148.463 23.762 148.789 23.622C149.125 23.482 149.485 23.412 149.867 23.412C150.437 23.412 150.903 23.538 151.267 23.79C151.641 24.042 151.916 24.3827 152.093 24.812C152.28 25.232 152.373 25.7033 152.373 26.226V31H151.197V26.562C151.197 26.1047 151.141 25.722 151.029 25.414C150.927 25.0967 150.759 24.8587 150.525 24.7C150.292 24.532 149.989 24.448 149.615 24.448C149.046 24.448 148.575 24.63 148.201 24.994C147.837 25.3487 147.655 25.8713 147.655 26.562V31H146.479ZM157.348 31.168C156.648 31.168 156.041 31.0093 155.528 30.692C155.024 30.3747 154.632 29.9267 154.352 29.348C154.081 28.76 153.946 28.074 153.946 27.29C153.946 26.506 154.081 25.8247 154.352 25.246C154.632 24.6673 155.019 24.2193 155.514 23.902C156.018 23.5753 156.611 23.412 157.292 23.412C157.936 23.412 158.505 23.566 159 23.874C159.495 24.1727 159.877 24.6113 160.148 25.19C160.428 25.7687 160.568 26.4733 160.568 27.304V27.654H155.178C155.225 28.4473 155.435 29.0447 155.808 29.446C156.191 29.8473 156.704 30.048 157.348 30.048C157.833 30.048 158.23 29.936 158.538 29.712C158.855 29.4787 159.075 29.1753 159.196 28.802L160.456 28.9C160.26 29.5627 159.887 30.1087 159.336 30.538C158.795 30.958 158.132 31.168 157.348 31.168ZM155.178 26.618H159.28C159.224 25.8993 159.014 25.372 158.65 25.036C158.295 24.7 157.843 24.532 157.292 24.532C156.723 24.532 156.251 24.7093 155.878 25.064C155.514 25.4093 155.281 25.9273 155.178 26.618ZM163.426 31L161.13 23.58H162.418L164.154 29.768L165.918 23.58H167.178L168.942 29.768L170.692 23.58H171.98L169.684 31H168.2L166.548 25.358L164.896 31H163.426ZM175.746 31.168C175.083 31.168 174.518 31.0607 174.052 30.846C173.594 30.6313 173.235 30.3373 172.974 29.964C172.722 29.5813 172.577 29.1473 172.54 28.662L173.772 28.578C173.846 29.026 174.038 29.3853 174.346 29.656C174.654 29.9173 175.12 30.048 175.746 30.048C176.25 30.048 176.651 29.9687 176.95 29.81C177.258 29.642 177.412 29.376 177.412 29.012C177.412 28.816 177.365 28.6527 177.272 28.522C177.178 28.3913 176.996 28.2793 176.726 28.186C176.455 28.0833 176.054 27.9853 175.522 27.892C174.812 27.7613 174.252 27.6027 173.842 27.416C173.44 27.22 173.151 26.982 172.974 26.702C172.806 26.4127 172.722 26.072 172.722 25.68C172.722 25.0173 172.964 24.476 173.45 24.056C173.935 23.6267 174.626 23.412 175.522 23.412C176.128 23.412 176.637 23.524 177.048 23.748C177.468 23.9627 177.794 24.252 178.028 24.616C178.27 24.9707 178.429 25.3627 178.504 25.792L177.272 25.876C177.216 25.6147 177.113 25.386 176.964 25.19C176.814 24.9847 176.618 24.826 176.376 24.714C176.133 24.5927 175.844 24.532 175.508 24.532C174.976 24.532 174.584 24.6347 174.332 24.84C174.08 25.0453 173.954 25.3067 173.954 25.624C173.954 25.8667 174.01 26.0673 174.122 26.226C174.243 26.3753 174.434 26.5013 174.696 26.604C174.957 26.6973 175.307 26.7813 175.746 26.856C176.502 26.9867 177.09 27.1453 177.51 27.332C177.93 27.5187 178.224 27.7473 178.392 28.018C178.56 28.2887 178.644 28.62 178.644 29.012C178.644 29.4693 178.513 29.8613 178.252 30.188C178 30.5053 177.654 30.748 177.216 30.916C176.786 31.084 176.296 31.168 175.746 31.168ZM186.518 31.168C185.874 31.168 185.314 31.0093 184.838 30.692C184.371 30.3747 184.012 29.9267 183.76 29.348C183.508 28.7693 183.382 28.0833 183.382 27.29C183.382 26.4967 183.508 25.8107 183.76 25.232C184.012 24.6533 184.371 24.2053 184.838 23.888C185.314 23.5707 185.874 23.412 186.518 23.412C187.012 23.412 187.465 23.5193 187.876 23.734C188.286 23.9393 188.594 24.2333 188.8 24.616V21.06H189.976V31H188.912L188.87 29.88C188.664 30.2813 188.352 30.5987 187.932 30.832C187.512 31.056 187.04 31.168 186.518 31.168ZM186.756 30.048C187.194 30.048 187.563 29.936 187.862 29.712C188.17 29.488 188.403 29.1707 188.562 28.76C188.72 28.34 188.8 27.85 188.8 27.29C188.8 26.7113 188.72 26.2167 188.562 25.806C188.403 25.3953 188.17 25.0827 187.862 24.868C187.563 24.644 187.194 24.532 186.756 24.532C186.102 24.532 185.58 24.7793 185.188 25.274C184.805 25.7593 184.614 26.4313 184.614 27.29C184.614 28.1393 184.805 28.8113 185.188 29.306C185.58 29.8007 186.102 30.048 186.756 30.048ZM194.077 31.168C193.312 31.168 192.7 30.9907 192.243 30.636C191.795 30.2813 191.571 29.7867 191.571 29.152C191.571 28.5173 191.758 28.018 192.131 27.654C192.504 27.29 193.097 27.0333 193.909 26.884L196.541 26.394C196.541 25.7687 196.392 25.302 196.093 24.994C195.804 24.686 195.365 24.532 194.777 24.532C194.264 24.532 193.858 24.6487 193.559 24.882C193.26 25.106 193.055 25.4327 192.943 25.862L191.697 25.764C191.837 25.064 192.173 24.4993 192.705 24.07C193.246 23.6313 193.937 23.412 194.777 23.412C195.729 23.412 196.457 23.6827 196.961 24.224C197.465 24.756 197.717 25.4933 197.717 26.436V29.502C197.717 29.67 197.745 29.7913 197.801 29.866C197.866 29.9313 197.969 29.964 198.109 29.964H198.403V31C198.366 31.0093 198.305 31.014 198.221 31.014C198.137 31.0233 198.048 31.028 197.955 31.028C197.619 31.028 197.344 30.9767 197.129 30.874C196.924 30.762 196.774 30.594 196.681 30.37C196.588 30.1367 196.541 29.8333 196.541 29.46L196.681 29.488C196.616 29.8053 196.457 30.0947 196.205 30.356C195.953 30.608 195.64 30.8087 195.267 30.958C194.894 31.098 194.497 31.168 194.077 31.168ZM194.189 30.132C194.684 30.132 195.104 30.0387 195.449 29.852C195.804 29.656 196.074 29.3947 196.261 29.068C196.448 28.732 196.541 28.3587 196.541 27.948V27.416L194.133 27.864C193.629 27.9573 193.279 28.102 193.083 28.298C192.896 28.4847 192.803 28.732 192.803 29.04C192.803 29.3853 192.924 29.656 193.167 29.852C193.419 30.0387 193.76 30.132 194.189 30.132ZM199.677 31V23.58H200.853V31H199.677ZM199.649 22.418V21.046H200.881V22.418H199.649ZM204.414 31C203.985 31 203.635 30.888 203.364 30.664C203.093 30.44 202.958 30.0853 202.958 29.6V21.06H204.134V29.502C204.134 29.6513 204.171 29.768 204.246 29.852C204.33 29.9267 204.447 29.964 204.596 29.964H205.24V31H204.414ZM206.671 33.1V32.064H207.525C207.786 32.064 207.977 32.022 208.099 31.938C208.229 31.8633 208.327 31.7373 208.393 31.56L208.659 30.86H208.253L205.537 23.58H206.825L209.037 29.768L211.151 23.58H212.439L209.429 31.938C209.289 32.3393 209.079 32.6333 208.799 32.82C208.519 33.0067 208.131 33.1 207.637 33.1H206.671ZM219.37 31.168C218.605 31.168 217.993 30.9907 217.536 30.636C217.088 30.2813 216.864 29.7867 216.864 29.152C216.864 28.5173 217.051 28.018 217.424 27.654C217.797 27.29 218.39 27.0333 219.202 26.884L221.834 26.394C221.834 25.7687 221.685 25.302 221.386 24.994C221.097 24.686 220.658 24.532 220.07 24.532C219.557 24.532 219.151 24.6487 218.852 24.882C218.553 25.106 218.348 25.4327 218.236 25.862L216.99 25.764C217.13 25.064 217.466 24.4993 217.998 24.07C218.539 23.6313 219.23 23.412 220.07 23.412C221.022 23.412 221.75 23.6827 222.254 24.224C222.758 24.756 223.01 25.4933 223.01 26.436V29.502C223.01 29.67 223.038 29.7913 223.094 29.866C223.159 29.9313 223.262 29.964 223.402 29.964H223.696V31C223.659 31.0093 223.598 31.014 223.514 31.014C223.43 31.0233 223.341 31.028 223.248 31.028C222.912 31.028 222.637 30.9767 222.422 30.874C222.217 30.762 222.067 30.594 221.974 30.37C221.881 30.1367 221.834 29.8333 221.834 29.46L221.974 29.488C221.909 29.8053 221.75 30.0947 221.498 30.356C221.246 30.608 220.933 30.8087 220.56 30.958C220.187 31.098 219.79 31.168 219.37 31.168ZM219.482 30.132C219.977 30.132 220.397 30.0387 220.742 29.852C221.097 29.656 221.367 29.3947 221.554 29.068C221.741 28.732 221.834 28.3587 221.834 27.948V27.416L219.426 27.864C218.922 27.9573 218.572 28.102 218.376 28.298C218.189 28.4847 218.096 28.732 218.096 29.04C218.096 29.3853 218.217 29.656 218.46 29.852C218.712 30.0387 219.053 30.132 219.482 30.132ZM227.371 31C226.699 31 226.2 30.846 225.873 30.538C225.556 30.23 225.397 29.7493 225.397 29.096V21.844H226.573V29.068C226.573 29.404 226.648 29.6373 226.797 29.768C226.946 29.8987 227.175 29.964 227.483 29.964H228.547V31H227.371ZM224.305 24.616V23.58H228.547V24.616H224.305ZM236.55 31.224C235.728 31.224 235.056 31.0233 234.534 30.622C234.02 30.2113 233.67 29.698 233.484 29.082L234.758 28.984C234.87 29.32 235.075 29.5813 235.374 29.768C235.672 29.9547 236.064 30.048 236.55 30.048C237.38 30.048 238.015 29.7167 238.454 29.054C238.902 28.382 239.13 27.304 239.14 25.82L239.434 25.876C239.2 26.5013 238.841 26.9867 238.356 27.332C237.87 27.668 237.306 27.836 236.662 27.836C236.018 27.836 235.448 27.6913 234.954 27.402C234.459 27.1127 234.067 26.7067 233.778 26.184C233.498 25.6613 233.358 25.0547 233.358 24.364C233.358 23.636 233.507 23.0107 233.806 22.488C234.104 21.956 234.51 21.55 235.024 21.27C235.546 20.9807 236.144 20.836 236.816 20.836C237.646 20.836 238.323 21.0273 238.846 21.41C239.378 21.7927 239.77 22.3293 240.022 23.02C240.274 23.7013 240.4 24.5087 240.4 25.442C240.4 26.2727 240.334 27.0427 240.204 27.752C240.073 28.452 239.858 29.0633 239.56 29.586C239.261 30.0993 238.864 30.5007 238.37 30.79C237.884 31.0793 237.278 31.224 236.55 31.224ZM236.746 26.646C237.203 26.646 237.604 26.5573 237.95 26.38C238.295 26.2027 238.566 25.946 238.762 25.61C238.967 25.274 239.07 24.868 239.07 24.392C239.07 23.9347 238.976 23.5287 238.79 23.174C238.612 22.81 238.356 22.5253 238.02 22.32C237.684 22.1147 237.282 22.012 236.816 22.012C236.358 22.012 235.966 22.1147 235.64 22.32C235.313 22.516 235.061 22.7913 234.884 23.146C234.706 23.5007 234.618 23.9067 234.618 24.364C234.618 24.8307 234.706 25.2367 234.884 25.582C235.07 25.918 235.322 26.1793 235.64 26.366C235.957 26.5527 236.326 26.646 236.746 26.646ZM242.405 31V29.418H243.987V31H242.405ZM242.405 25.498V23.916H243.987V25.498H242.405ZM249.771 31.224C248.968 31.224 248.273 31.014 247.685 30.594C247.097 30.174 246.639 29.5767 246.313 28.802C245.995 28.0273 245.837 27.108 245.837 26.044C245.837 24.98 245.995 24.0607 246.313 23.286C246.639 22.502 247.097 21.9 247.685 21.48C248.273 21.0507 248.968 20.836 249.771 20.836C250.583 20.836 251.283 21.0507 251.871 21.48C252.459 21.9 252.911 22.4973 253.229 23.272C253.555 24.0467 253.719 24.9707 253.719 26.044C253.719 27.108 253.555 28.0273 253.229 28.802C252.911 29.5767 252.459 30.174 251.871 30.594C251.283 31.014 250.583 31.224 249.771 31.224ZM249.771 30.048C250.629 30.048 251.292 29.7027 251.759 29.012C252.225 28.312 252.459 27.3227 252.459 26.044C252.459 25.1853 252.351 24.4573 252.137 23.86C251.931 23.2533 251.628 22.796 251.227 22.488C250.835 22.1707 250.349 22.012 249.771 22.012C249.201 22.012 248.716 22.1707 248.315 22.488C247.923 22.796 247.619 23.2533 247.405 23.86C247.199 24.4573 247.097 25.1853 247.097 26.044C247.097 27.3227 247.33 28.312 247.797 29.012C248.263 29.7027 248.921 30.048 249.771 30.048ZM259.054 31.224C258.251 31.224 257.556 31.014 256.968 30.594C256.38 30.174 255.923 29.5767 255.596 28.802C255.279 28.0273 255.12 27.108 255.12 26.044C255.12 24.98 255.279 24.0607 255.596 23.286C255.923 22.502 256.38 21.9 256.968 21.48C257.556 21.0507 258.251 20.836 259.054 20.836C259.866 20.836 260.566 21.0507 261.154 21.48C261.742 21.9 262.195 22.4973 262.512 23.272C262.839 24.0467 263.002 24.9707 263.002 26.044C263.002 27.108 262.839 28.0273 262.512 28.802C262.195 29.5767 261.742 30.174 261.154 30.594C260.566 31.014 259.866 31.224 259.054 31.224ZM259.054 30.048C259.913 30.048 260.575 29.7027 261.042 29.012C261.509 28.312 261.742 27.3227 261.742 26.044C261.742 25.1853 261.635 24.4573 261.42 23.86C261.215 23.2533 260.911 22.796 260.51 22.488C260.118 22.1707 259.633 22.012 259.054 22.012C258.485 22.012 257.999 22.1707 257.598 22.488C257.206 22.796 256.903 23.2533 256.688 23.86C256.483 24.4573 256.38 25.1853 256.38 26.044C256.38 27.3227 256.613 28.312 257.08 29.012C257.547 29.7027 258.205 30.048 259.054 30.048ZM267.483 31L271.067 21.06H272.691L276.275 31H274.959L273.965 28.172H269.793L268.799 31H267.483ZM270.199 26.996H273.559L271.879 22.11L270.199 26.996ZM277.569 31V21.06H279.249L282.427 29.684L285.591 21.06H287.271V31H286.067V23.3L283.225 31H281.615L278.773 23.3V31H277.569Z" fill="white"/>
</g>
<defs>
<filter id="filter0_dd_2031_1734" x="0.2" y="0.8" width="309.6" height="53.6" filterUnits="userSpaceOnUse" color-interpolation-filters="sRGB">
<feFlood flood-opacity="0" result="BackgroundImageFix"/>
<feColorMatrix in="SourceAlpha" type="matrix" values="0 0 0 0 0 0 0 0 0 0 0 0 0 0 0 0 0 0 127 0" result="hardAlpha"/>
<feMorphology radius="1.2" operator="dilate" in="SourceAlpha" result="effect1_dropShadow_2031_1734"/>
<feOffset/>
<feColorMatrix type="matrix" values="0 0 0 0 1 0 0 0 0 1 0 0 0 0 1 0 0 0 0.09 0"/>
<feBlend mode="normal" in2="BackgroundImageFix" result="effect1_dropShadow_2031_1734"/>
<feColorMatrix in="SourceAlpha" type="matrix" values="0 0 0 0 0 0 0 0 0 0 0 0 0 0 0 0 0 0 127 0" result="hardAlpha"/>
<feOffset dy="1.6"/>
<feGaussianBlur stdDeviation="4.4"/>
<feColorMatrix type="matrix" values="0 0 0 0 0.0431373 0 0 0 0 0.0431373 0 0 0 0 0.0431373 0 0 0 0.08 0"/>
<feBlend mode="normal" in2="effect1_dropShadow_2031_1734" result="effect2_dropShadow_2031_1734"/>
<feBlend mode="normal" in="SourceGraphic" in2="effect2_dropShadow_2031_1734" result="shape"/>
</filter>
<linearGradient id="paint0_linear_2031_1734" x1="155.318" y1="13.0072" x2="155.318" y2="39.036" gradientUnits="userSpaceOnUse">
<stop stop-color="#1C1C1C"/>
<stop offset="1" stop-color="#121212"/>
</linearGradient>
</defs>
</svg>
