<svg width="289" height="56" viewBox="0 0 289 56" fill="none" xmlns="http://www.w3.org/2000/svg">
<g filter="url(#filter0_d_2027_1996)">
<mask id="path-1-inside-1_2027_1996" fill="white">
<path d="M10.5 27C10.5 17.0589 18.5589 9 28.5 9H260.5C270.441 9 278.5 17.0589 278.5 27V27C278.5 36.9411 270.441 45 260.5 45H28.5C18.5589 45 10.5 36.9411 10.5 27V27Z"/>
</mask>
<path d="M10.5 27C10.5 17.0589 18.5589 9 28.5 9H260.5C270.441 9 278.5 17.0589 278.5 27V27C278.5 36.9411 270.441 45 260.5 45H28.5C18.5589 45 10.5 36.9411 10.5 27V27Z" fill="#171717"/>
<path d="M10.5 27C10.5 17.0589 18.5589 9 28.5 9H260.5C270.441 9 278.5 17.0589 278.5 27V27C278.5 36.9411 270.441 45 260.5 45H28.5C18.5589 45 10.5 36.9411 10.5 27V27Z" fill="white" fill-opacity="0.02"/>
<path d="M10.5 27C10.5 17.0589 18.5589 9 28.5 9H260.5C270.441 9 278.5 17.0589 278.5 27V27C278.5 36.9411 270.441 45 260.5 45H28.5C18.5589 45 10.5 36.9411 10.5 27V27Z" fill="url(#paint0_linear_2027_1996)" fill-opacity="0.06"/>
<path d="M10.5 27C10.5 16.5066 19.0066 8 29.5 8H259.5C269.993 8 278.5 16.5066 278.5 27C278.5 17.6112 270.441 10 260.5 10H28.5C18.5589 10 10.5 17.6112 10.5 27ZM278.5 45H10.5H278.5ZM10.5 45V9V45ZM278.5 9V45V9Z" fill="white" fill-opacity="0.15" mask="url(#path-1-inside-1_2027_1996)"/>
<rect x="14.5" y="13" width="28" height="28" rx="14" fill="#F23E94" fill-opacity="0.1"/>
<path d="M26.0499 20V22.8M31.6499 20V22.8M22.5499 25.6H35.1499M30.9499 34V31.2C30.9499 30.8287 31.0974 30.4726 31.36 30.2101C31.6225 29.9475 31.9786 29.8 32.3499 29.8H35.1499M35.1499 30.5V22.8C35.1499 22.4287 35.0024 22.0726 34.7399 21.8101C34.4773 21.5475 34.1212 21.4 33.7499 21.4H23.9499C23.5786 21.4 23.2225 21.5475 22.96 21.8101C22.6974 22.0726 22.5499 22.4287 22.5499 22.8V32.6C22.5499 32.9713 22.6974 33.3274 22.96 33.5899C23.2225 33.8525 23.5786 34 23.9499 34H31.6499L35.1499 30.5Z" stroke="#F23E94" stroke-width="1.225" stroke-linecap="round" stroke-linejoin="round"/>
<path d="M55.204 32.224C54.4387 32.224 53.7713 32.0793 53.202 31.79C52.6327 31.5007 52.18 31.104 51.844 30.6C51.5173 30.0867 51.326 29.494 51.27 28.822L52.53 28.738C52.5953 29.2327 52.74 29.6527 52.964 29.998C53.188 30.3433 53.4867 30.6047 53.86 30.782C54.2427 30.9593 54.7 31.048 55.232 31.048C55.6987 31.048 56.0953 30.9873 56.422 30.866C56.7487 30.7447 56.996 30.5673 57.164 30.334C57.3413 30.1007 57.43 29.816 57.43 29.48C57.43 29.172 57.3553 28.9013 57.206 28.668C57.066 28.4253 56.7907 28.206 56.38 28.01C55.9787 27.8047 55.3813 27.604 54.588 27.408C53.8227 27.212 53.2113 26.9973 52.754 26.764C52.306 26.5307 51.9793 26.246 51.774 25.91C51.578 25.574 51.48 25.1587 51.48 24.664C51.48 24.104 51.6107 23.614 51.872 23.194C52.1427 22.7647 52.5253 22.4333 53.02 22.2C53.5147 21.9573 54.1027 21.836 54.784 21.836C55.512 21.836 56.1373 21.976 56.66 22.256C57.1827 22.5267 57.598 22.9 57.906 23.376C58.214 23.852 58.4053 24.3933 58.48 25L57.22 25.084C57.164 24.6827 57.0333 24.328 56.828 24.02C56.632 23.7027 56.3613 23.4553 56.016 23.278C55.6707 23.1007 55.2507 23.012 54.756 23.012C54.14 23.012 53.65 23.1613 53.286 23.46C52.922 23.7493 52.74 24.132 52.74 24.608C52.74 24.916 52.81 25.1727 52.95 25.378C53.0993 25.574 53.3607 25.7513 53.734 25.91C54.1073 26.0593 54.644 26.2227 55.344 26.4C56.1747 26.6053 56.8327 26.8527 57.318 27.142C57.8127 27.422 58.1627 27.7487 58.368 28.122C58.5827 28.4953 58.69 28.92 58.69 29.396C58.69 29.9747 58.5407 30.4787 58.242 30.908C57.9433 31.328 57.5327 31.6547 57.01 31.888C56.4873 32.112 55.8853 32.224 55.204 32.224ZM60.3837 32V24.58H61.5597V32H60.3837ZM60.3557 23.418V22.046H61.5877V23.418H60.3557ZM63.9384 32V24.58H65.0164L65.0584 26.456L64.8904 26.4C64.9744 25.9893 65.119 25.6393 65.3244 25.35C65.539 25.0513 65.8004 24.8227 66.1084 24.664C66.4164 24.496 66.757 24.412 67.1304 24.412C67.7744 24.412 68.297 24.5893 68.6984 24.944C69.109 25.2987 69.3657 25.7933 69.4684 26.428L69.2444 26.414C69.319 25.9847 69.4544 25.6253 69.6504 25.336C69.8557 25.0373 70.117 24.8087 70.4344 24.65C70.7517 24.4913 71.1157 24.412 71.5264 24.412C72.0584 24.412 72.5064 24.524 72.8704 24.748C73.2344 24.9627 73.5097 25.28 73.6964 25.7C73.883 26.12 73.9764 26.6287 73.9764 27.226V32H72.8004V27.478C72.8004 26.806 72.6697 26.302 72.4084 25.966C72.147 25.6207 71.7597 25.448 71.2464 25.448C70.901 25.448 70.5977 25.532 70.3364 25.7C70.0844 25.868 69.8884 26.1107 69.7484 26.428C69.6084 26.736 69.5384 27.114 69.5384 27.562V32H68.3624V27.562C68.3624 26.8993 68.2457 26.3813 68.0124 26.008C67.779 25.6347 67.387 25.448 66.8364 25.448C66.491 25.448 66.1877 25.532 65.9264 25.7C65.6744 25.868 65.4737 26.1107 65.3244 26.428C65.1844 26.7453 65.1144 27.1233 65.1144 27.562V32H63.9384ZM78.4466 32.168C77.7093 32.168 77.1166 31.9207 76.6686 31.426C76.23 30.922 76.0106 30.2313 76.0106 29.354V24.58H77.1866V29.032C77.1866 29.7507 77.3126 30.2827 77.5646 30.628C77.826 30.964 78.2226 31.132 78.7546 31.132C79.3426 31.132 79.8046 30.9453 80.1406 30.572C80.4766 30.1893 80.6446 29.6667 80.6446 29.004V24.58H81.8206V32H80.7006V30.166L80.8826 30.264C80.7333 30.8707 80.4486 31.342 80.0286 31.678C79.6086 32.0047 79.0813 32.168 78.4466 32.168ZM85.5194 32C85.09 32 84.74 31.888 84.4694 31.664C84.1987 31.44 84.0634 31.0853 84.0634 30.6V22.06H85.2394V30.502C85.2394 30.6513 85.2767 30.768 85.3514 30.852C85.4354 30.9267 85.552 30.964 85.7014 30.964H86.3454V32H85.5194ZM89.7978 32.168C89.0324 32.168 88.4211 31.9907 87.9638 31.636C87.5158 31.2813 87.2918 30.7867 87.2918 30.152C87.2918 29.5173 87.4784 29.018 87.8518 28.654C88.2251 28.29 88.8178 28.0333 89.6298 27.884L92.2618 27.394C92.2618 26.7687 92.1124 26.302 91.8138 25.994C91.5244 25.686 91.0858 25.532 90.4978 25.532C89.9844 25.532 89.5784 25.6487 89.2798 25.882C88.9811 26.106 88.7758 26.4327 88.6638 26.862L87.4178 26.764C87.5578 26.064 87.8938 25.4993 88.4258 25.07C88.9671 24.6313 89.6578 24.412 90.4978 24.412C91.4498 24.412 92.1778 24.6827 92.6818 25.224C93.1858 25.756 93.4378 26.4933 93.4378 27.436V30.502C93.4378 30.67 93.4658 30.7913 93.5218 30.866C93.5871 30.9313 93.6898 30.964 93.8298 30.964H94.1238V32C94.0864 32.0093 94.0258 32.014 93.9418 32.014C93.8578 32.0233 93.7691 32.028 93.6758 32.028C93.3398 32.028 93.0644 31.9767 92.8498 31.874C92.6444 31.762 92.4951 31.594 92.4018 31.37C92.3084 31.1367 92.2618 30.8333 92.2618 30.46L92.4018 30.488C92.3364 30.8053 92.1778 31.0947 91.9258 31.356C91.6738 31.608 91.3611 31.8087 90.9878 31.958C90.6144 32.098 90.2178 32.168 89.7978 32.168ZM89.9098 31.132C90.4044 31.132 90.8244 31.0387 91.1698 30.852C91.5244 30.656 91.7951 30.3947 91.9818 30.068C92.1684 29.732 92.2618 29.3587 92.2618 28.948V28.416L89.8538 28.864C89.3498 28.9573 88.9998 29.102 88.8038 29.298C88.6171 29.4847 88.5238 29.732 88.5238 30.04C88.5238 30.3853 88.6451 30.656 88.8878 30.852C89.1398 31.0387 89.4804 31.132 89.9098 31.132ZM97.7989 32C97.1269 32 96.6276 31.846 96.3009 31.538C95.9836 31.23 95.8249 30.7493 95.8249 30.096V22.844H97.0009V30.068C97.0009 30.404 97.0756 30.6373 97.2249 30.768C97.3742 30.8987 97.6029 30.964 97.9109 30.964H98.9749V32H97.7989ZM94.7329 25.616V24.58H98.9749V25.616H94.7329ZM103.245 32.168C102.545 32.168 101.938 32.0093 101.425 31.692C100.921 31.3747 100.529 30.9267 100.249 30.348C99.9779 29.76 99.8426 29.074 99.8426 28.29C99.8426 27.506 99.9779 26.8247 100.249 26.246C100.529 25.6673 100.916 25.2193 101.411 24.902C101.915 24.5753 102.507 24.412 103.189 24.412C103.833 24.412 104.402 24.566 104.897 24.874C105.391 25.1727 105.774 25.6113 106.045 26.19C106.325 26.7687 106.465 27.4733 106.465 28.304V28.654H101.075C101.121 29.4473 101.331 30.0447 101.705 30.446C102.087 30.8473 102.601 31.048 103.245 31.048C103.73 31.048 104.127 30.936 104.435 30.712C104.752 30.4787 104.971 30.1753 105.093 29.802L106.353 29.9C106.157 30.5627 105.783 31.1087 105.233 31.538C104.691 31.958 104.029 32.168 103.245 32.168ZM101.075 27.618H105.177C105.121 26.8993 104.911 26.372 104.547 26.036C104.192 25.7 103.739 25.532 103.189 25.532C102.619 25.532 102.148 25.7093 101.775 26.064C101.411 26.4093 101.177 26.9273 101.075 27.618ZM111.694 32V24.58H112.772L112.814 26.47L112.674 26.344C112.768 25.9053 112.931 25.546 113.164 25.266C113.398 24.9767 113.678 24.762 114.004 24.622C114.34 24.482 114.7 24.412 115.082 24.412C115.652 24.412 116.118 24.538 116.482 24.79C116.856 25.042 117.131 25.3827 117.308 25.812C117.495 26.232 117.588 26.7033 117.588 27.226V32H116.412V27.562C116.412 27.1047 116.356 26.722 116.244 26.414C116.142 26.0967 115.974 25.8587 115.74 25.7C115.507 25.532 115.204 25.448 114.83 25.448C114.261 25.448 113.79 25.63 113.416 25.994C113.052 26.3487 112.87 26.8713 112.87 27.562V32H111.694ZM122.563 32.168C121.863 32.168 121.256 32.0093 120.743 31.692C120.239 31.3747 119.847 30.9267 119.567 30.348C119.296 29.76 119.161 29.074 119.161 28.29C119.161 27.506 119.296 26.8247 119.567 26.246C119.847 25.6673 120.234 25.2193 120.729 24.902C121.233 24.5753 121.826 24.412 122.507 24.412C123.151 24.412 123.72 24.566 124.215 24.874C124.71 25.1727 125.092 25.6113 125.363 26.19C125.643 26.7687 125.783 27.4733 125.783 28.304V28.654H120.393C120.44 29.4473 120.65 30.0447 121.023 30.446C121.406 30.8473 121.919 31.048 122.563 31.048C123.048 31.048 123.445 30.936 123.753 30.712C124.07 30.4787 124.29 30.1753 124.411 29.802L125.671 29.9C125.475 30.5627 125.102 31.1087 124.551 31.538C124.01 31.958 123.347 32.168 122.563 32.168ZM120.393 27.618H124.495C124.439 26.8993 124.229 26.372 123.865 26.036C123.51 25.7 123.058 25.532 122.507 25.532C121.938 25.532 121.466 25.7093 121.093 26.064C120.729 26.4093 120.496 26.9273 120.393 27.618ZM129.805 32C129.133 32 128.633 31.846 128.307 31.538C127.989 31.23 127.831 30.7493 127.831 30.096V22.844H129.007V30.068C129.007 30.404 129.081 30.6373 129.231 30.768C129.38 30.8987 129.609 30.964 129.917 30.964H130.981V32H129.805ZM126.739 25.616V24.58H130.981V25.616H126.739ZM137.555 32L135.259 24.58H136.547L138.283 30.768L140.047 24.58H141.307L143.071 30.768L144.821 24.58H146.109L143.813 32H142.329L140.677 26.358L139.025 32H137.555ZM150.071 32.168C149.389 32.168 148.792 32.0093 148.279 31.692C147.765 31.3747 147.369 30.9267 147.089 30.348C146.809 29.76 146.669 29.074 146.669 28.29C146.669 27.4967 146.809 26.8107 147.089 26.232C147.369 25.6533 147.765 25.2053 148.279 24.888C148.792 24.5707 149.389 24.412 150.071 24.412C150.752 24.412 151.345 24.5707 151.849 24.888C152.362 25.2053 152.759 25.6533 153.039 26.232C153.319 26.8107 153.459 27.4967 153.459 28.29C153.459 29.074 153.319 29.76 153.039 30.348C152.759 30.9267 152.362 31.3747 151.849 31.692C151.345 32.0093 150.752 32.168 150.071 32.168ZM150.071 31.048C150.752 31.048 151.279 30.8053 151.653 30.32C152.035 29.8253 152.227 29.1487 152.227 28.29C152.227 27.4313 152.035 26.7593 151.653 26.274C151.279 25.7793 150.752 25.532 150.071 25.532C149.389 25.532 148.857 25.7793 148.475 26.274C148.092 26.7593 147.901 27.4313 147.901 28.29C147.901 29.1487 148.092 29.8253 148.475 30.32C148.857 30.8053 149.389 31.048 150.071 31.048ZM155.061 32V24.58H156.097L156.153 26.456L156.041 26.414C156.135 25.7793 156.335 25.3173 156.643 25.028C156.961 24.7293 157.381 24.58 157.903 24.58H158.631V25.7H157.917C157.544 25.7 157.231 25.77 156.979 25.91C156.737 26.0407 156.55 26.2413 156.419 26.512C156.298 26.7733 156.237 27.1093 156.237 27.52V32H155.061ZM162.385 32C161.713 32 161.213 31.846 160.887 31.538C160.569 31.23 160.411 30.7493 160.411 30.096V22.844H161.587V30.068C161.587 30.404 161.661 30.6373 161.811 30.768C161.96 30.8987 162.189 30.964 162.497 30.964H163.561V32H162.385ZM159.319 25.616V24.58H163.561V25.616H159.319ZM165.069 32V22.06H166.245V26.218L166.105 26.19C166.199 25.7793 166.357 25.4433 166.581 25.182C166.805 24.9207 167.081 24.7293 167.407 24.608C167.734 24.4773 168.093 24.412 168.485 24.412C169.017 24.412 169.465 24.5333 169.829 24.776C170.203 25.0093 170.483 25.3407 170.669 25.77C170.865 26.19 170.963 26.6753 170.963 27.226V32H169.787V27.562C169.787 26.8433 169.657 26.3113 169.395 25.966C169.143 25.6207 168.756 25.448 168.233 25.448C167.636 25.448 167.155 25.63 166.791 25.994C166.427 26.358 166.245 26.8853 166.245 27.576V32H165.069ZM176.704 32V24.58H177.88V32H176.704ZM176.676 23.418V22.046H177.908V23.418H176.676ZM180.259 32V24.58H181.337L181.379 26.47L181.239 26.344C181.332 25.9053 181.495 25.546 181.729 25.266C181.962 24.9767 182.242 24.762 182.569 24.622C182.905 24.482 183.264 24.412 183.647 24.412C184.216 24.412 184.683 24.538 185.047 24.79C185.42 25.042 185.695 25.3827 185.873 25.812C186.059 26.232 186.153 26.7033 186.153 27.226V32H184.977V27.562C184.977 27.1047 184.921 26.722 184.809 26.414C184.706 26.0967 184.538 25.8587 184.305 25.7C184.071 25.532 183.768 25.448 183.395 25.448C182.825 25.448 182.354 25.63 181.981 25.994C181.617 26.3487 181.435 26.8713 181.435 27.562V32H180.259ZM195.141 32.224C194.441 32.224 193.835 32.1073 193.321 31.874C192.817 31.6407 192.416 31.314 192.117 30.894C191.828 30.474 191.66 29.9887 191.613 29.438L192.873 29.354C192.948 29.914 193.186 30.3387 193.587 30.628C193.998 30.908 194.516 31.048 195.141 31.048C195.841 31.048 196.397 30.852 196.807 30.46C197.218 30.0587 197.423 29.508 197.423 28.808C197.423 28.3413 197.33 27.94 197.143 27.604C196.966 27.2587 196.705 26.9927 196.359 26.806C196.014 26.6193 195.599 26.526 195.113 26.526C194.656 26.526 194.241 26.624 193.867 26.82C193.494 27.016 193.228 27.2913 193.069 27.646H191.781L192.439 22.06H198.011V23.236H193.545L193.097 26.904L192.873 26.68C193.023 26.3907 193.219 26.1527 193.461 25.966C193.713 25.77 193.998 25.6253 194.315 25.532C194.642 25.4293 194.983 25.378 195.337 25.378C196 25.378 196.583 25.5273 197.087 25.826C197.591 26.1153 197.983 26.5213 198.263 27.044C198.543 27.5573 198.683 28.1453 198.683 28.808C198.683 29.4707 198.534 30.0633 198.235 30.586C197.937 31.0993 197.521 31.5007 196.989 31.79C196.457 32.0793 195.841 32.224 195.141 32.224ZM204.479 34.1V33.064H205.333C205.594 33.064 205.786 33.022 205.907 32.938C206.038 32.8633 206.136 32.7373 206.201 32.56L206.467 31.86H206.061L203.345 24.58H204.633L206.845 30.768L208.959 24.58H210.247L207.237 32.938C207.097 33.3393 206.887 33.6333 206.607 33.82C206.327 34.0067 205.94 34.1 205.445 34.1H204.479ZM214.206 32.168C213.506 32.168 212.899 32.0093 212.386 31.692C211.882 31.3747 211.49 30.9267 211.21 30.348C210.939 29.76 210.804 29.074 210.804 28.29C210.804 27.506 210.939 26.8247 211.21 26.246C211.49 25.6673 211.877 25.2193 212.372 24.902C212.876 24.5753 213.468 24.412 214.15 24.412C214.794 24.412 215.363 24.566 215.858 24.874C216.352 25.1727 216.735 25.6113 217.006 26.19C217.286 26.7687 217.426 27.4733 217.426 28.304V28.654H212.035C212.082 29.4473 212.292 30.0447 212.666 30.446C213.048 30.8473 213.562 31.048 214.206 31.048C214.691 31.048 215.088 30.936 215.396 30.712C215.713 30.4787 215.932 30.1753 216.054 29.802L217.314 29.9C217.118 30.5627 216.744 31.1087 216.194 31.538C215.652 31.958 214.99 32.168 214.206 32.168ZM212.035 27.618H216.138C216.082 26.8993 215.872 26.372 215.508 26.036C215.153 25.7 214.7 25.532 214.15 25.532C213.58 25.532 213.109 25.7093 212.736 26.064C212.372 26.4093 212.138 26.9273 212.035 27.618ZM221.212 32.168C220.447 32.168 219.835 31.9907 219.378 31.636C218.93 31.2813 218.706 30.7867 218.706 30.152C218.706 29.5173 218.893 29.018 219.266 28.654C219.639 28.29 220.232 28.0333 221.044 27.884L223.676 27.394C223.676 26.7687 223.527 26.302 223.228 25.994C222.939 25.686 222.5 25.532 221.912 25.532C221.399 25.532 220.993 25.6487 220.694 25.882C220.395 26.106 220.19 26.4327 220.078 26.862L218.832 26.764C218.972 26.064 219.308 25.4993 219.84 25.07C220.381 24.6313 221.072 24.412 221.912 24.412C222.864 24.412 223.592 24.6827 224.096 25.224C224.6 25.756 224.852 26.4933 224.852 27.436V30.502C224.852 30.67 224.88 30.7913 224.936 30.866C225.001 30.9313 225.104 30.964 225.244 30.964H225.538V32C225.501 32.0093 225.44 32.014 225.356 32.014C225.272 32.0233 225.183 32.028 225.09 32.028C224.754 32.028 224.479 31.9767 224.264 31.874C224.059 31.762 223.909 31.594 223.816 31.37C223.723 31.1367 223.676 30.8333 223.676 30.46L223.816 30.488C223.751 30.8053 223.592 31.0947 223.34 31.356C223.088 31.608 222.775 31.8087 222.402 31.958C222.029 32.098 221.632 32.168 221.212 32.168ZM221.324 31.132C221.819 31.132 222.239 31.0387 222.584 30.852C222.939 30.656 223.209 30.3947 223.396 30.068C223.583 29.732 223.676 29.3587 223.676 28.948V28.416L221.268 28.864C220.764 28.9573 220.414 29.102 220.218 29.298C220.031 29.4847 219.938 29.732 219.938 30.04C219.938 30.3853 220.059 30.656 220.302 30.852C220.554 31.0387 220.895 31.132 221.324 31.132ZM226.866 32V24.58H227.902L227.958 26.456L227.846 26.414C227.939 25.7793 228.14 25.3173 228.448 25.028C228.765 24.7293 229.185 24.58 229.708 24.58H230.436V25.7H229.722C229.349 25.7 229.036 25.77 228.784 25.91C228.541 26.0407 228.355 26.2413 228.224 26.512C228.103 26.7733 228.042 27.1093 228.042 27.52V32H226.866ZM234.312 32.168C233.65 32.168 233.085 32.0607 232.618 31.846C232.161 31.6313 231.802 31.3373 231.54 30.964C231.288 30.5813 231.144 30.1473 231.106 29.662L232.338 29.578C232.413 30.026 232.604 30.3853 232.912 30.656C233.22 30.9173 233.687 31.048 234.312 31.048C234.816 31.048 235.218 30.9687 235.516 30.81C235.824 30.642 235.978 30.376 235.978 30.012C235.978 29.816 235.932 29.6527 235.838 29.522C235.745 29.3913 235.563 29.2793 235.292 29.186C235.022 29.0833 234.62 28.9853 234.088 28.892C233.379 28.7613 232.819 28.6027 232.408 28.416C232.007 28.22 231.718 27.982 231.54 27.702C231.372 27.4127 231.288 27.072 231.288 26.68C231.288 26.0173 231.531 25.476 232.016 25.056C232.502 24.6267 233.192 24.412 234.088 24.412C234.695 24.412 235.204 24.524 235.614 24.748C236.034 24.9627 236.361 25.252 236.594 25.616C236.837 25.9707 236.996 26.3627 237.07 26.792L235.838 26.876C235.782 26.6147 235.68 26.386 235.53 26.19C235.381 25.9847 235.185 25.826 234.942 25.714C234.7 25.5927 234.41 25.532 234.074 25.532C233.542 25.532 233.15 25.6347 232.898 25.84C232.646 26.0453 232.52 26.3067 232.52 26.624C232.52 26.8667 232.576 27.0673 232.688 27.226C232.81 27.3753 233.001 27.5013 233.262 27.604C233.524 27.6973 233.874 27.7813 234.312 27.856C235.068 27.9867 235.656 28.1453 236.076 28.332C236.496 28.5187 236.79 28.7473 236.958 29.018C237.126 29.2887 237.21 29.62 237.21 30.012C237.21 30.4693 237.08 30.8613 236.818 31.188C236.566 31.5053 236.221 31.748 235.782 31.916C235.353 32.084 234.863 32.168 234.312 32.168Z" fill="white"/>
<mask id="path-6-inside-2_2027_1996" fill="white">
<path d="M246.5 27C246.5 19.268 252.768 13 260.5 13V13C268.232 13 274.5 19.268 274.5 27V27C274.5 34.732 268.232 41 260.5 41V41C252.768 41 246.5 34.732 246.5 27V27Z"/>
</mask>
<path d="M246.5 27C246.5 19.268 252.768 13 260.5 13V13C268.232 13 274.5 19.268 274.5 27V27C274.5 34.732 268.232 41 260.5 41V41C252.768 41 246.5 34.732 246.5 27V27Z" fill="#363636"/>
<path d="M246.5 26C246.5 18.268 252.768 12 260.5 12C268.232 12 274.5 18.268 274.5 26V27C274.5 19.8203 268.232 14 260.5 14C252.768 14 246.5 19.8203 246.5 27V26ZM274.5 41H246.5H274.5ZM246.5 41V13V41ZM274.5 13V41V13Z" fill="white" fill-opacity="0.1" mask="url(#path-6-inside-2_2027_1996)"/>
<path d="M254.667 26.9998L260.5 21.1665M260.5 21.1665L266.333 26.9998M260.5 21.1665V32.8332" stroke="#737373" stroke-width="1.5" stroke-linecap="round" stroke-linejoin="round"/>
</g>
<defs>
<filter id="filter0_d_2027_1996" x="0.5" y="0" width="288" height="56" filterUnits="userSpaceOnUse" color-interpolation-filters="sRGB">
<feFlood flood-opacity="0" result="BackgroundImageFix"/>
<feColorMatrix in="SourceAlpha" type="matrix" values="0 0 0 0 0 0 0 0 0 0 0 0 0 0 0 0 0 0 127 0" result="hardAlpha"/>
<feOffset dy="1"/>
<feGaussianBlur stdDeviation="5"/>
<feColorMatrix type="matrix" values="0 0 0 0 0 0 0 0 0 0 0 0 0 0 0 0 0 0 0.08 0"/>
<feBlend mode="normal" in2="BackgroundImageFix" result="effect1_dropShadow_2027_1996"/>
<feBlend mode="normal" in="SourceGraphic" in2="effect1_dropShadow_2027_1996" result="shape"/>
</filter>
<linearGradient id="paint0_linear_2027_1996" x1="119.555" y1="12.6429" x2="118.721" y2="33.8972" gradientUnits="userSpaceOnUse">
<stop stop-color="white"/>
<stop offset="1" stop-color="white" stop-opacity="0.4"/>
</linearGradient>
</defs>
</svg>
