<svg width="288" height="55" viewBox="0 0 288 55" fill="none" xmlns="http://www.w3.org/2000/svg">
<g filter="url(#filter0_dd_2027_1928)">
<rect x="-43" y="8" width="322" height="36" rx="18" fill="#171717"/>
<rect x="-43" y="8" width="322" height="36" rx="18" fill="url(#paint0_linear_2027_1928)"/>
<rect x="-43" y="8" width="322" height="36" rx="18" fill="white" fill-opacity="0.07"/>
<path d="M-30.72 31L-27.136 21.06H-25.512L-21.928 31H-23.244L-24.238 28.172H-28.41L-29.404 31H-30.72ZM-28.004 26.996H-24.644L-26.324 22.11L-28.004 26.996ZM-20.8019 31V23.58H-19.7239L-19.6819 25.47L-19.8219 25.344C-19.7285 24.9053 -19.5652 24.546 -19.3319 24.266C-19.0985 23.9767 -18.8185 23.762 -18.4919 23.622C-18.1559 23.482 -17.7965 23.412 -17.4139 23.412C-16.8445 23.412 -16.3779 23.538 -16.0139 23.79C-15.6405 24.042 -15.3652 24.3827 -15.1879 24.812C-15.0012 25.232 -14.9079 25.7033 -14.9079 26.226V31H-16.0839V26.562C-16.0839 26.1047 -16.1399 25.722 -16.2519 25.414C-16.3545 25.0967 -16.5225 24.8587 -16.7559 24.7C-16.9892 24.532 -17.2925 24.448 -17.6659 24.448C-18.2352 24.448 -18.7065 24.63 -19.0799 24.994C-19.4439 25.3487 -19.6259 25.8713 -19.6259 26.562V31H-20.8019ZM-10.8018 31.168C-11.5672 31.168 -12.1785 30.9907 -12.6358 30.636C-13.0838 30.2813 -13.3078 29.7867 -13.3078 29.152C-13.3078 28.5173 -13.1212 28.018 -12.7478 27.654C-12.3745 27.29 -11.7818 27.0333 -10.9698 26.884L-8.33783 26.394C-8.33783 25.7687 -8.48716 25.302 -8.78583 24.994C-9.07516 24.686 -9.51383 24.532 -10.1018 24.532C-10.6152 24.532 -11.0212 24.6487 -11.3198 24.882C-11.6185 25.106 -11.8238 25.4327 -11.9358 25.862L-13.1818 25.764C-13.0418 25.064 -12.7058 24.4993 -12.1738 24.07C-11.6325 23.6313 -10.9418 23.412 -10.1018 23.412C-9.14983 23.412 -8.42183 23.6827 -7.91783 24.224C-7.41383 24.756 -7.16183 25.4933 -7.16183 26.436V29.502C-7.16183 29.67 -7.13383 29.7913 -7.07783 29.866C-7.01249 29.9313 -6.90983 29.964 -6.76983 29.964H-6.47583V31C-6.51316 31.0093 -6.57383 31.014 -6.65783 31.014C-6.74183 31.0233 -6.83049 31.028 -6.92383 31.028C-7.25983 31.028 -7.53516 30.9767 -7.74983 30.874C-7.95516 30.762 -8.10449 30.594 -8.19783 30.37C-8.29116 30.1367 -8.33783 29.8333 -8.33783 29.46L-8.19783 29.488C-8.26316 29.8053 -8.42183 30.0947 -8.67383 30.356C-8.92583 30.608 -9.23849 30.8087 -9.61183 30.958C-9.98516 31.098 -10.3818 31.168 -10.8018 31.168ZM-10.6898 30.132C-10.1952 30.132 -9.77516 30.0387 -9.42983 29.852C-9.07516 29.656 -8.80449 29.3947 -8.61783 29.068C-8.43116 28.732 -8.33783 28.3587 -8.33783 27.948V27.416L-10.7458 27.864C-11.2498 27.9573 -11.5998 28.102 -11.7958 28.298C-11.9825 28.4847 -12.0758 28.732 -12.0758 29.04C-12.0758 29.3853 -11.9545 29.656 -11.7118 29.852C-11.4598 30.0387 -11.1192 30.132 -10.6898 30.132ZM-3.77361 31C-4.20294 31 -4.55294 30.888 -4.82361 30.664C-5.09428 30.44 -5.22961 30.0853 -5.22961 29.6V21.06H-4.05361V29.502C-4.05361 29.6513 -4.01628 29.768 -3.94161 29.852C-3.85761 29.9267 -3.74094 29.964 -3.59161 29.964H-2.94761V31H-3.77361ZM-1.51698 33.1V32.064H-0.662984C-0.401651 32.064 -0.210318 32.022 -0.0889842 31.938C0.0416825 31.8633 0.139682 31.7373 0.205016 31.56L0.471016 30.86H0.0650157L-2.65098 23.58H-1.36298L0.849016 29.768L2.96302 23.58H4.25102L1.24102 31.938C1.10102 32.3393 0.891016 32.6333 0.611016 32.82C0.331016 33.0067 -0.0563176 33.1 -0.550984 33.1H-1.51698ZM5.04409 31V29.824L9.73409 24.616H5.18409V23.58H11.0221V24.756L6.33209 29.964H11.1341V31H5.04409ZM15.5239 31.168C14.8239 31.168 14.2172 31.0093 13.7039 30.692C13.1999 30.3747 12.8079 29.9267 12.5279 29.348C12.2572 28.76 12.1219 28.074 12.1219 27.29C12.1219 26.506 12.2572 25.8247 12.5279 25.246C12.8079 24.6673 13.1952 24.2193 13.6899 23.902C14.1939 23.5753 14.7865 23.412 15.4679 23.412C16.1119 23.412 16.6812 23.566 17.1759 23.874C17.6705 24.1727 18.0532 24.6113 18.3239 25.19C18.6039 25.7687 18.7439 26.4733 18.7439 27.304V27.654H13.3539C13.4005 28.4473 13.6105 29.0447 13.9839 29.446C14.3665 29.8473 14.8799 30.048 15.5239 30.048C16.0092 30.048 16.4059 29.936 16.7139 29.712C17.0312 29.4787 17.2505 29.1753 17.3719 28.802L18.6319 28.9C18.4359 29.5627 18.0625 30.1087 17.5119 30.538C16.9705 30.958 16.3079 31.168 15.5239 31.168ZM13.3539 26.618H17.4559C17.3999 25.8993 17.1899 25.372 16.8259 25.036C16.4712 24.7 16.0185 24.532 15.4679 24.532C14.8985 24.532 14.4272 24.7093 14.0539 25.064C13.6899 25.4093 13.4565 25.9273 13.3539 26.618ZM23.9735 31V23.58H25.0515L25.0935 25.456L24.9255 25.4C25.0095 24.9893 25.1542 24.6393 25.3595 24.35C25.5742 24.0513 25.8355 23.8227 26.1435 23.664C26.4515 23.496 26.7922 23.412 27.1655 23.412C27.8095 23.412 28.3322 23.5893 28.7335 23.944C29.1442 24.2987 29.4008 24.7933 29.5035 25.428L29.2795 25.414C29.3542 24.9847 29.4895 24.6253 29.6855 24.336C29.8908 24.0373 30.1522 23.8087 30.4695 23.65C30.7868 23.4913 31.1508 23.412 31.5615 23.412C32.0935 23.412 32.5415 23.524 32.9055 23.748C33.2695 23.9627 33.5448 24.28 33.7315 24.7C33.9182 25.12 34.0115 25.6287 34.0115 26.226V31H32.8355V26.478C32.8355 25.806 32.7048 25.302 32.4435 24.966C32.1822 24.6207 31.7948 24.448 31.2815 24.448C30.9362 24.448 30.6328 24.532 30.3715 24.7C30.1195 24.868 29.9235 25.1107 29.7835 25.428C29.6435 25.736 29.5735 26.114 29.5735 26.562V31H28.3975V26.562C28.3975 25.8993 28.2808 25.3813 28.0475 25.008C27.8142 24.6347 27.4222 24.448 26.8715 24.448C26.5262 24.448 26.2228 24.532 25.9615 24.7C25.7095 24.868 25.5088 25.1107 25.3595 25.428C25.2195 25.7453 25.1495 26.1233 25.1495 26.562V31H23.9735ZM36.0943 33.1V32.064H36.9483C37.2097 32.064 37.401 32.022 37.5223 31.938C37.653 31.8633 37.751 31.7373 37.8163 31.56L38.0823 30.86H37.6763L34.9603 23.58H36.2483L38.4603 29.768L40.5743 23.58H41.8623L38.8523 31.938C38.7123 32.3393 38.5023 32.6333 38.2223 32.82C37.9423 33.0067 37.555 33.1 37.0603 33.1H36.0943ZM46.7919 31V21.06H47.9679V25.218L47.8279 25.19C47.9212 24.7793 48.0799 24.4433 48.3039 24.182C48.5279 23.9207 48.8032 23.7293 49.1299 23.608C49.4565 23.4773 49.8159 23.412 50.2079 23.412C50.7399 23.412 51.1879 23.5333 51.5519 23.776C51.9252 24.0093 52.2052 24.3407 52.3919 24.77C52.5879 25.19 52.6859 25.6753 52.6859 26.226V31H51.5099V26.562C51.5099 25.8433 51.3792 25.3113 51.1179 24.966C50.8659 24.6207 50.4785 24.448 49.9559 24.448C49.3585 24.448 48.8779 24.63 48.5139 24.994C48.1499 25.358 47.9679 25.8853 47.9679 26.576V31H46.7919ZM57.6606 31.168C56.9792 31.168 56.3819 31.0093 55.8686 30.692C55.3552 30.3747 54.9586 29.9267 54.6786 29.348C54.3986 28.76 54.2586 28.074 54.2586 27.29C54.2586 26.4967 54.3986 25.8107 54.6786 25.232C54.9586 24.6533 55.3552 24.2053 55.8686 23.888C56.3819 23.5707 56.9792 23.412 57.6606 23.412C58.3419 23.412 58.9346 23.5707 59.4386 23.888C59.9519 24.2053 60.3486 24.6533 60.6286 25.232C60.9086 25.8107 61.0486 26.4967 61.0486 27.29C61.0486 28.074 60.9086 28.76 60.6286 29.348C60.3486 29.9267 59.9519 30.3747 59.4386 30.692C58.9346 31.0093 58.3419 31.168 57.6606 31.168ZM57.6606 30.048C58.3419 30.048 58.8692 29.8053 59.2426 29.32C59.6252 28.8253 59.8166 28.1487 59.8166 27.29C59.8166 26.4313 59.6252 25.7593 59.2426 25.274C58.8692 24.7793 58.3419 24.532 57.6606 24.532C56.9792 24.532 56.4472 24.7793 56.0646 25.274C55.6819 25.7593 55.4906 26.4313 55.4906 27.29C55.4906 28.1487 55.6819 28.8253 56.0646 29.32C56.4472 29.8053 56.9792 30.048 57.6606 30.048ZM62.6513 31V23.58H63.7293L63.7713 25.456L63.6033 25.4C63.6873 24.9893 63.8319 24.6393 64.0373 24.35C64.2519 24.0513 64.5133 23.8227 64.8213 23.664C65.1293 23.496 65.4699 23.412 65.8433 23.412C66.4873 23.412 67.0099 23.5893 67.4113 23.944C67.8219 24.2987 68.0786 24.7933 68.1813 25.428L67.9573 25.414C68.0319 24.9847 68.1673 24.6253 68.3633 24.336C68.5686 24.0373 68.8299 23.8087 69.1473 23.65C69.4646 23.4913 69.8286 23.412 70.2393 23.412C70.7713 23.412 71.2193 23.524 71.5833 23.748C71.9473 23.9627 72.2226 24.28 72.4093 24.7C72.5959 25.12 72.6893 25.6287 72.6893 26.226V31H71.5133V26.478C71.5133 25.806 71.3826 25.302 71.1213 24.966C70.8599 24.6207 70.4726 24.448 69.9593 24.448C69.6139 24.448 69.3106 24.532 69.0493 24.7C68.7973 24.868 68.6013 25.1107 68.4613 25.428C68.3213 25.736 68.2513 26.114 68.2513 26.562V31H67.0753V26.562C67.0753 25.8993 66.9586 25.3813 66.7253 25.008C66.4919 24.6347 66.0999 24.448 65.5493 24.448C65.2039 24.448 64.9006 24.532 64.6393 24.7C64.3873 24.868 64.1866 25.1107 64.0373 25.428C63.8973 25.7453 63.8273 26.1233 63.8273 26.562V31H62.6513ZM77.6625 31.168C76.9625 31.168 76.3559 31.0093 75.8425 30.692C75.3385 30.3747 74.9465 29.9267 74.6665 29.348C74.3959 28.76 74.2605 28.074 74.2605 27.29C74.2605 26.506 74.3959 25.8247 74.6665 25.246C74.9465 24.6673 75.3339 24.2193 75.8285 23.902C76.3325 23.5753 76.9252 23.412 77.6065 23.412C78.2505 23.412 78.8199 23.566 79.3145 23.874C79.8092 24.1727 80.1919 24.6113 80.4625 25.19C80.7425 25.7687 80.8825 26.4733 80.8825 27.304V27.654H75.4925C75.5392 28.4473 75.7492 29.0447 76.1225 29.446C76.5052 29.8473 77.0185 30.048 77.6625 30.048C78.1479 30.048 78.5445 29.936 78.8525 29.712C79.1699 29.4787 79.3892 29.1753 79.5105 28.802L80.7705 28.9C80.5745 29.5627 80.2012 30.1087 79.6505 30.538C79.1092 30.958 78.4465 31.168 77.6625 31.168ZM75.4925 26.618H79.5945C79.5385 25.8993 79.3285 25.372 78.9645 25.036C78.6099 24.7 78.1572 24.532 77.6065 24.532C77.0372 24.532 76.5659 24.7093 76.1925 25.064C75.8285 25.4093 75.5952 25.9273 75.4925 26.618ZM87.5682 31C87.1389 31 86.7889 30.888 86.5182 30.664C86.2475 30.44 86.1122 30.0853 86.1122 29.6V21.06H87.2882V29.502C87.2882 29.6513 87.3255 29.768 87.4002 29.852C87.4842 29.9267 87.6009 29.964 87.7502 29.964H88.3942V31H87.5682ZM92.6606 31.168C91.9792 31.168 91.3819 31.0093 90.8686 30.692C90.3552 30.3747 89.9586 29.9267 89.6786 29.348C89.3986 28.76 89.2586 28.074 89.2586 27.29C89.2586 26.4967 89.3986 25.8107 89.6786 25.232C89.9586 24.6533 90.3552 24.2053 90.8686 23.888C91.3819 23.5707 91.9792 23.412 92.6606 23.412C93.3419 23.412 93.9346 23.5707 94.4386 23.888C94.9519 24.2053 95.3486 24.6533 95.6286 25.232C95.9086 25.8107 96.0486 26.4967 96.0486 27.29C96.0486 28.074 95.9086 28.76 95.6286 29.348C95.3486 29.9267 94.9519 30.3747 94.4386 30.692C93.9346 31.0093 93.3419 31.168 92.6606 31.168ZM92.6606 30.048C93.3419 30.048 93.8692 29.8053 94.2426 29.32C94.6252 28.8253 94.8166 28.1487 94.8166 27.29C94.8166 26.4313 94.6252 25.7593 94.2426 25.274C93.8692 24.7793 93.3419 24.532 92.6606 24.532C91.9792 24.532 91.4472 24.7793 91.0646 25.274C90.6819 25.7593 90.4906 26.4313 90.4906 27.29C90.4906 28.1487 90.6819 28.8253 91.0646 29.32C91.4472 29.8053 91.9792 30.048 92.6606 30.048ZM99.8447 31.168C99.0793 31.168 98.468 30.9907 98.0107 30.636C97.5627 30.2813 97.3387 29.7867 97.3387 29.152C97.3387 28.5173 97.5253 28.018 97.8987 27.654C98.272 27.29 98.8647 27.0333 99.6767 26.884L102.309 26.394C102.309 25.7687 102.159 25.302 101.861 24.994C101.571 24.686 101.133 24.532 100.545 24.532C100.031 24.532 99.6253 24.6487 99.3267 24.882C99.028 25.106 98.8227 25.4327 98.7107 25.862L97.4647 25.764C97.6047 25.064 97.9407 24.4993 98.4727 24.07C99.014 23.6313 99.7047 23.412 100.545 23.412C101.497 23.412 102.225 23.6827 102.729 24.224C103.233 24.756 103.485 25.4933 103.485 26.436V29.502C103.485 29.67 103.513 29.7913 103.569 29.866C103.634 29.9313 103.737 29.964 103.877 29.964H104.171V31C104.133 31.0093 104.073 31.014 103.989 31.014C103.905 31.0233 103.816 31.028 103.723 31.028C103.387 31.028 103.111 30.9767 102.897 30.874C102.691 30.762 102.542 30.594 102.449 30.37C102.355 30.1367 102.309 29.8333 102.309 29.46L102.449 29.488C102.383 29.8053 102.225 30.0947 101.973 30.356C101.721 30.608 101.408 30.8087 101.035 30.958C100.661 31.098 100.265 31.168 99.8447 31.168ZM99.9567 30.132C100.451 30.132 100.871 30.0387 101.217 29.852C101.571 29.656 101.842 29.3947 102.029 29.068C102.215 28.732 102.309 28.3587 102.309 27.948V27.416L99.9007 27.864C99.3967 27.9573 99.0467 28.102 98.8507 28.298C98.664 28.4847 98.5707 28.732 98.5707 29.04C98.5707 29.3853 98.692 29.656 98.9347 29.852C99.1867 30.0387 99.5273 30.132 99.9567 30.132ZM105.499 31V23.58H106.577L106.619 25.47L106.479 25.344C106.572 24.9053 106.736 24.546 106.969 24.266C107.202 23.9767 107.482 23.762 107.809 23.622C108.145 23.482 108.504 23.412 108.887 23.412C109.456 23.412 109.923 23.538 110.287 23.79C110.66 24.042 110.936 24.3827 111.113 24.812C111.3 25.232 111.393 25.7033 111.393 26.226V31H110.217V26.562C110.217 26.1047 110.161 25.722 110.049 25.414C109.946 25.0967 109.778 24.8587 109.545 24.7C109.312 24.532 109.008 24.448 108.635 24.448C108.066 24.448 107.594 24.63 107.221 24.994C106.857 25.3487 106.675 25.8713 106.675 26.562V31H105.499Z" fill="white"/>
<path d="M126.072 32.0113C125.577 32.2166 125.064 32.3706 124.532 32.4733C124.009 32.5759 123.454 32.6273 122.866 32.6273C121.765 32.6273 120.822 32.4266 120.038 32.0253C119.254 31.6239 118.652 31.0452 118.232 30.2892C117.821 29.5239 117.616 28.6092 117.616 27.5452C117.616 26.5932 117.765 25.7252 118.064 24.9412C118.372 24.1479 118.806 23.4666 119.366 22.8972C119.935 22.3186 120.607 21.8752 121.382 21.5672C122.157 21.2499 123.015 21.0912 123.958 21.0912C125.041 21.0912 125.983 21.2966 126.786 21.7072C127.598 22.1179 128.223 22.6966 128.662 23.4432C129.11 24.1899 129.334 25.0672 129.334 26.0752C129.334 26.8406 129.217 27.5126 128.984 28.0912C128.751 28.6606 128.429 29.1039 128.018 29.4212C127.607 29.7386 127.131 29.8972 126.59 29.8972C126.123 29.8972 125.745 29.7666 125.456 29.5052C125.167 29.2439 125.008 28.8892 124.98 28.4412L125.232 28.3852C125.129 28.6746 124.957 28.9406 124.714 29.1833C124.471 29.4259 124.191 29.6172 123.874 29.7572C123.557 29.8972 123.23 29.9672 122.894 29.9672C122.353 29.9672 121.891 29.8599 121.508 29.6452C121.135 29.4306 120.85 29.1319 120.654 28.7492C120.458 28.3572 120.36 27.9046 120.36 27.3912C120.36 26.7566 120.481 26.1826 120.724 25.6692C120.967 25.1559 121.307 24.7499 121.746 24.4512C122.194 24.1526 122.712 24.0032 123.3 24.0032C123.804 24.0032 124.233 24.1152 124.588 24.3392C124.943 24.5632 125.167 24.8572 125.26 25.2212L125.064 25.3192L125.162 24.0452H126.38L126.142 26.9292C126.133 27.1346 126.114 27.3632 126.086 27.6152C126.067 27.8672 126.058 28.0772 126.058 28.2452C126.058 28.4412 126.114 28.5952 126.226 28.7072C126.338 28.8192 126.506 28.8752 126.73 28.8752C127.187 28.8752 127.547 28.6372 127.808 28.1612C128.079 27.6759 128.214 27.0086 128.214 26.1592C128.214 25.2912 128.051 24.5586 127.724 23.9613C127.397 23.3639 126.912 22.9159 126.268 22.6172C125.633 22.3092 124.849 22.1552 123.916 22.1552C123.141 22.1552 122.437 22.2859 121.802 22.5472C121.167 22.7992 120.621 23.1632 120.164 23.6393C119.707 24.1059 119.352 24.6659 119.1 25.3192C118.857 25.9726 118.736 26.7006 118.736 27.5032C118.736 28.3619 118.895 29.0946 119.212 29.7012C119.539 30.3079 120.015 30.7699 120.64 31.0873C121.265 31.4046 122.021 31.5633 122.908 31.5633C123.431 31.5633 123.935 31.5119 124.42 31.4093C124.905 31.3159 125.367 31.1759 125.806 30.9892L126.072 32.0113ZM123.132 28.8892C123.552 28.8892 123.897 28.7866 124.168 28.5812C124.439 28.3666 124.639 28.0959 124.77 27.7692C124.91 27.4332 124.98 27.0786 124.98 26.7052C124.98 26.3972 124.929 26.1219 124.826 25.8792C124.723 25.6272 124.565 25.4312 124.35 25.2912C124.135 25.1512 123.851 25.0812 123.496 25.0812C123.113 25.0812 122.791 25.1839 122.53 25.3892C122.269 25.5852 122.068 25.8512 121.928 26.1872C121.788 26.5139 121.718 26.8826 121.718 27.2932C121.718 27.7506 121.825 28.1332 122.04 28.4412C122.255 28.7399 122.619 28.8892 123.132 28.8892ZM131.151 31.0312V21.0912H134.861C136 21.0912 136.887 21.3666 137.521 21.9172C138.156 22.4586 138.473 23.2146 138.473 24.1852C138.473 24.8292 138.329 25.3892 138.039 25.8652C137.75 26.3319 137.335 26.6912 136.793 26.9432C136.261 27.1859 135.617 27.3072 134.861 27.3072H132.663V31.0312H131.151ZM132.663 25.9352H134.819C135.501 25.9352 136.019 25.7906 136.373 25.5012C136.728 25.2026 136.905 24.7639 136.905 24.1852C136.905 23.6159 136.728 23.1912 136.373 22.9112C136.019 22.6219 135.501 22.4772 134.819 22.4772H132.663V25.9352ZM138.376 31.0312L141.96 21.0912H143.878L147.462 31.0312H145.852L144.942 28.4412H140.882L139.986 31.0312H138.376ZM141.358 27.0692H144.48L142.912 22.5332L141.358 27.0692ZM148.336 32.3193V31.0312H154.986V32.3193H148.336ZM156.759 31.0312V21.0912H158.831L161.785 29.2532L164.739 21.0912H166.811V31.0312H165.299V23.7512L162.625 31.0172H160.945L158.271 23.7512V31.0312H156.759ZM171.009 31.1993C170.234 31.1993 169.614 31.0219 169.147 30.6672C168.69 30.3126 168.461 29.8132 168.461 29.1692C168.461 28.5252 168.652 28.0259 169.035 27.6712C169.427 27.3072 170.029 27.0459 170.841 26.8872L173.403 26.3972C173.403 25.8186 173.268 25.3892 172.997 25.1092C172.726 24.8199 172.325 24.6752 171.793 24.6752C171.317 24.6752 170.944 24.7826 170.673 24.9972C170.402 25.2026 170.216 25.5106 170.113 25.9212L168.587 25.8232C168.727 25.0766 169.072 24.4886 169.623 24.0592C170.183 23.6299 170.906 23.4152 171.793 23.4152C172.801 23.4152 173.566 23.6859 174.089 24.2272C174.621 24.7592 174.887 25.5106 174.887 26.4812V29.3792C174.887 29.5566 174.915 29.6826 174.971 29.7572C175.036 29.8226 175.139 29.8552 175.279 29.8552H175.545V31.0312C175.498 31.0406 175.424 31.0499 175.321 31.0593C175.218 31.0686 175.111 31.0733 174.999 31.0733C174.682 31.0733 174.406 31.0219 174.173 30.9192C173.949 30.8166 173.781 30.6486 173.669 30.4152C173.557 30.1726 173.501 29.8506 173.501 29.4492L173.655 29.5192C173.58 29.8459 173.417 30.1352 173.165 30.3872C172.922 30.6392 172.61 30.8399 172.227 30.9892C171.854 31.1293 171.448 31.1993 171.009 31.1993ZM171.247 30.0232C171.695 30.0232 172.078 29.9392 172.395 29.7712C172.712 29.5939 172.96 29.3512 173.137 29.0432C173.314 28.7352 173.403 28.3852 173.403 27.9932V27.5172L171.219 27.9372C170.771 28.0212 170.454 28.1566 170.267 28.3432C170.09 28.5206 170.001 28.7492 170.001 29.0292C170.001 29.3466 170.108 29.5939 170.323 29.7712C170.547 29.9392 170.855 30.0232 171.247 30.0232ZM176.798 33.1313V23.5832H178.198L178.24 25.1792L178.072 25.0952C178.259 24.5446 178.567 24.1292 178.996 23.8492C179.425 23.5599 179.92 23.4152 180.48 23.4152C181.208 23.4152 181.805 23.5972 182.272 23.9613C182.748 24.3159 183.098 24.7872 183.322 25.3752C183.555 25.9632 183.672 26.6072 183.672 27.3072C183.672 28.0072 183.555 28.6512 183.322 29.2392C183.098 29.8272 182.748 30.3032 182.272 30.6672C181.805 31.0219 181.208 31.1993 180.48 31.1993C180.107 31.1993 179.757 31.1339 179.43 31.0032C179.103 30.8726 178.823 30.6906 178.59 30.4572C178.366 30.2146 178.207 29.9299 178.114 29.6032L178.282 29.4352V33.1313H176.798ZM180.214 29.9112C180.811 29.9112 181.278 29.6826 181.614 29.2252C181.959 28.7679 182.132 28.1286 182.132 27.3072C182.132 26.4859 181.959 25.8466 181.614 25.3892C181.278 24.9319 180.811 24.7032 180.214 24.7032C179.822 24.7032 179.481 24.8012 179.192 24.9972C178.903 25.1839 178.679 25.4732 178.52 25.8652C178.361 26.2572 178.282 26.7379 178.282 27.3072C178.282 27.8766 178.357 28.3572 178.506 28.7492C178.665 29.1412 178.889 29.4352 179.178 29.6312C179.477 29.8179 179.822 29.9112 180.214 29.9112ZM186.871 31.0312C186.386 31.0312 185.994 30.9052 185.695 30.6532C185.397 30.4012 185.247 29.9999 185.247 29.4492V21.0912H186.731V29.3092C186.731 29.4772 186.773 29.6032 186.857 29.6872C186.951 29.7712 187.081 29.8132 187.249 29.8132H187.837V31.0312H186.871ZM192.169 31.1993C191.441 31.1993 190.811 31.0406 190.279 30.7232C189.756 30.4059 189.35 29.9532 189.061 29.3652C188.781 28.7772 188.641 28.0912 188.641 27.3072C188.641 26.5232 188.781 25.8419 189.061 25.2632C189.35 24.6752 189.756 24.2226 190.279 23.9052C190.801 23.5786 191.417 23.4152 192.127 23.4152C192.799 23.4152 193.391 23.5739 193.905 23.8912C194.418 24.1992 194.815 24.6472 195.095 25.2352C195.384 25.8232 195.529 26.5326 195.529 27.3632V27.7412H190.181C190.218 28.4692 190.409 29.0152 190.755 29.3792C191.109 29.7432 191.585 29.9252 192.183 29.9252C192.621 29.9252 192.985 29.8226 193.275 29.6172C193.564 29.4119 193.765 29.1366 193.877 28.7912L195.417 28.8892C195.221 29.5799 194.833 30.1399 194.255 30.5693C193.685 30.9893 192.99 31.1993 192.169 31.1993ZM190.181 26.6212H193.961C193.914 25.9586 193.723 25.4686 193.387 25.1512C193.06 24.8339 192.64 24.6752 192.127 24.6752C191.595 24.6752 191.156 24.8432 190.811 25.1792C190.475 25.5059 190.265 25.9866 190.181 26.6212ZM196.262 31.0312L199.846 21.0912H201.764L205.348 31.0312H203.738L202.828 28.4412H198.768L197.872 31.0312H196.262ZM199.244 27.0692H202.366L200.798 22.5332L199.244 27.0692ZM207.797 31.0312L205.081 23.5832H206.663L208.693 29.5192L210.723 23.5832H212.319L209.589 31.0312H207.797ZM216.341 31.1993C215.613 31.1993 214.983 31.0406 214.451 30.7232C213.928 30.4059 213.522 29.9532 213.233 29.3652C212.953 28.7772 212.813 28.0912 212.813 27.3072C212.813 26.5232 212.953 25.8419 213.233 25.2632C213.522 24.6752 213.928 24.2226 214.451 23.9052C214.973 23.5786 215.589 23.4152 216.299 23.4152C216.971 23.4152 217.563 23.5739 218.077 23.8912C218.59 24.1992 218.987 24.6472 219.267 25.2352C219.556 25.8232 219.701 26.5326 219.701 27.3632V27.7412H214.353C214.39 28.4692 214.581 29.0152 214.927 29.3792C215.281 29.7432 215.757 29.9252 216.355 29.9252C216.793 29.9252 217.157 29.8226 217.447 29.6172C217.736 29.4119 217.937 29.1366 218.049 28.7912L219.589 28.8892C219.393 29.5799 219.005 30.1399 218.427 30.5693C217.857 30.9893 217.162 31.1993 216.341 31.1993ZM214.353 26.6212H218.133C218.086 25.9586 217.895 25.4686 217.559 25.1512C217.232 24.8339 216.812 24.6752 216.299 24.6752C215.767 24.6752 215.328 24.8432 214.983 25.1792C214.647 25.5059 214.437 25.9866 214.353 26.6212ZM221.204 31.0312V23.5832H222.562L222.618 25.5712L222.436 25.4732C222.52 24.9879 222.679 24.5959 222.912 24.2972C223.146 23.9986 223.43 23.7792 223.766 23.6393C224.102 23.4899 224.466 23.4152 224.858 23.4152C225.418 23.4152 225.88 23.5412 226.244 23.7932C226.618 24.0359 226.898 24.3719 227.084 24.8012C227.28 25.2212 227.378 25.7019 227.378 26.2432V31.0312H225.894V26.6912C225.894 26.2526 225.848 25.8839 225.754 25.5852C225.661 25.2866 225.507 25.0579 225.292 24.8992C225.078 24.7406 224.798 24.6612 224.452 24.6612C223.93 24.6612 223.505 24.8339 223.178 25.1792C222.852 25.5246 222.688 26.0286 222.688 26.6912V31.0312H221.204ZM231.734 31.1993C230.988 31.1993 230.39 30.9519 229.942 30.4572C229.504 29.9532 229.284 29.2579 229.284 28.3712V23.5832H230.768V27.9932C230.768 28.6652 230.885 29.1599 231.118 29.4772C231.352 29.7946 231.706 29.9532 232.182 29.9532C232.724 29.9532 233.144 29.7806 233.442 29.4352C233.75 29.0806 233.904 28.5859 233.904 27.9512V23.5832H235.388V31.0312H234.002L233.974 29.0852L234.184 29.1692C234.054 29.8226 233.778 30.3266 233.358 30.6812C232.938 31.0266 232.397 31.1993 231.734 31.1993ZM236.889 31.0312V29.2672H238.695V31.0312H236.889ZM239.689 31.0312V29.2672H241.495V31.0312H239.689ZM242.489 31.0312V29.2672H244.295V31.0312H242.489Z" fill="white"/>
<path d="M117 32.7812H176.097V33.4813H117V32.7812ZM178.981 32.7812H236.301V33.4813H178.981V32.7812Z" fill="white"/>
<g filter="url(#filter1_d_2027_1928)">
<g filter="url(#filter2_di_2027_1928)">
<path fill-rule="evenodd" clip-rule="evenodd" d="M263.566 33.0739H253.81C253.292 33.0739 252.796 32.874 252.43 32.5183C252.064 32.1625 251.859 31.68 251.859 31.1768V17.8971C251.859 17.394 252.064 16.9114 252.43 16.5556C252.796 16.1999 253.292 16 253.81 16H259.26V22.084H265.518V31.1768C265.518 31.68 265.312 32.1625 264.946 32.5183C264.58 32.874 264.084 33.0739 263.566 33.0739Z" fill="white"/>
</g>
<g filter="url(#filter3_ddii_2027_1928)">
<path d="M265.518 22.084C265.518 21.8325 265.415 21.5912 265.232 21.4134L259.95 16.2779C259.767 16.1 259.519 16.0001 259.26 16V22.084H265.518Z" fill="white"/>
</g>
</g>
<rect x="250" y="26.6719" width="17" height="9.39066" rx="2.56109" fill="#CF3F3F"/>
<path d="M252.955 32.8672V28.8264H254.52C254.995 28.8264 255.365 28.9402 255.63 29.1678C255.896 29.3955 256.029 29.7104 256.029 30.1126C256.029 30.382 255.968 30.6153 255.846 30.8126C255.725 31.0061 255.552 31.1541 255.329 31.2565C255.105 31.359 254.835 31.4102 254.52 31.4102H253.695V32.8672H252.955ZM253.695 30.7671H254.486C254.737 30.7671 254.928 30.7121 255.061 30.602C255.198 30.492 255.266 30.3289 255.266 30.1126C255.266 29.9001 255.198 29.7408 255.061 29.6345C254.928 29.5245 254.737 29.4695 254.486 29.4695H253.695V30.7671ZM256.624 32.8672V28.8264H257.967C258.612 28.8264 259.107 29.0028 259.452 29.3557C259.801 29.7047 259.976 30.2037 259.976 30.8525C259.976 31.4975 259.805 31.9945 259.463 32.3436C259.122 32.6927 258.634 32.8672 258.001 32.8672H256.624ZM257.363 32.2241H257.967C258.388 32.2241 258.701 32.1102 258.906 31.8826C259.111 31.6549 259.213 31.3116 259.213 30.8525C259.213 30.3858 259.111 30.0386 258.906 29.811C258.701 29.5833 258.388 29.4695 257.967 29.4695H257.363V32.2241ZM260.586 32.8672V28.8264H263.29V29.4695H260.922L261.326 29.054V30.9094L260.922 30.5736H263.187V31.211H260.922L261.326 30.8752V32.8672H260.586Z" fill="white"/>
</g>
<defs>
<filter id="filter0_dd_2027_1928" x="-51.8" y="0.8" width="339.6" height="53.6" filterUnits="userSpaceOnUse" color-interpolation-filters="sRGB">
<feFlood flood-opacity="0" result="BackgroundImageFix"/>
<feColorMatrix in="SourceAlpha" type="matrix" values="0 0 0 0 0 0 0 0 0 0 0 0 0 0 0 0 0 0 127 0" result="hardAlpha"/>
<feMorphology radius="1.2" operator="dilate" in="SourceAlpha" result="effect1_dropShadow_2027_1928"/>
<feOffset/>
<feColorMatrix type="matrix" values="0 0 0 0 1 0 0 0 0 1 0 0 0 0 1 0 0 0 0.09 0"/>
<feBlend mode="normal" in2="BackgroundImageFix" result="effect1_dropShadow_2027_1928"/>
<feColorMatrix in="SourceAlpha" type="matrix" values="0 0 0 0 0 0 0 0 0 0 0 0 0 0 0 0 0 0 127 0" result="hardAlpha"/>
<feOffset dy="1.6"/>
<feGaussianBlur stdDeviation="4.4"/>
<feColorMatrix type="matrix" values="0 0 0 0 0.0431373 0 0 0 0 0.0431373 0 0 0 0 0.0431373 0 0 0 0.08 0"/>
<feBlend mode="normal" in2="effect1_dropShadow_2027_1928" result="effect2_dropShadow_2027_1928"/>
<feBlend mode="normal" in="SourceGraphic" in2="effect2_dropShadow_2027_1928" result="shape"/>
</filter>
<filter id="filter1_d_2027_1928" x="251.005" y="15.1463" width="15.3666" height="18.7811" filterUnits="userSpaceOnUse" color-interpolation-filters="sRGB">
<feFlood flood-opacity="0" result="BackgroundImageFix"/>
<feColorMatrix in="SourceAlpha" type="matrix" values="0 0 0 0 0 0 0 0 0 0 0 0 0 0 0 0 0 0 127 0" result="hardAlpha"/>
<feOffset/>
<feGaussianBlur stdDeviation="0.426848"/>
<feComposite in2="hardAlpha" operator="out"/>
<feColorMatrix type="matrix" values="0 0 0 0 0 0 0 0 0 0 0 0 0 0 0 0 0 0 0.05 0"/>
<feBlend mode="normal" in2="BackgroundImageFix" result="effect1_dropShadow_2027_1928"/>
<feBlend mode="normal" in="SourceGraphic" in2="effect1_dropShadow_2027_1928" result="shape"/>
</filter>
<filter id="filter2_di_2027_1928" x="247.761" y="13.9511" width="21.8547" height="25.2692" filterUnits="userSpaceOnUse" color-interpolation-filters="sRGB">
<feFlood flood-opacity="0" result="BackgroundImageFix"/>
<feColorMatrix in="SourceAlpha" type="matrix" values="0 0 0 0 0 0 0 0 0 0 0 0 0 0 0 0 0 0 127 0" result="hardAlpha"/>
<feOffset dy="2.04887"/>
<feGaussianBlur stdDeviation="2.04887"/>
<feColorMatrix type="matrix" values="0 0 0 0 0.194157 0 0 0 0 0.194752 0 0 0 0 0.195608 0 0 0 0.1 0"/>
<feBlend mode="normal" in2="BackgroundImageFix" result="effect1_dropShadow_2027_1928"/>
<feBlend mode="normal" in="SourceGraphic" in2="effect1_dropShadow_2027_1928" result="shape"/>
<feColorMatrix in="SourceAlpha" type="matrix" values="0 0 0 0 0 0 0 0 0 0 0 0 0 0 0 0 0 0 127 0" result="hardAlpha"/>
<feOffset dy="-0.546365"/>
<feGaussianBlur stdDeviation="0.273183"/>
<feComposite in2="hardAlpha" operator="arithmetic" k2="-1" k3="1"/>
<feColorMatrix type="matrix" values="0 0 0 0 0.916179 0 0 0 0 0.918987 0 0 0 0 0.923024 0 0 0 0.5 0"/>
<feBlend mode="normal" in2="shape" result="effect2_innerShadow_2027_1928"/>
</filter>
<filter id="filter3_ddii_2027_1928" x="255.162" y="12.5852" width="14.4533" height="15.6454" filterUnits="userSpaceOnUse" color-interpolation-filters="sRGB">
<feFlood flood-opacity="0" result="BackgroundImageFix"/>
<feColorMatrix in="SourceAlpha" type="matrix" values="0 0 0 0 0 0 0 0 0 0 0 0 0 0 0 0 0 0 127 0" result="hardAlpha"/>
<feOffset dy="2.04887"/>
<feGaussianBlur stdDeviation="2.04887"/>
<feColorMatrix type="matrix" values="0 0 0 0 0.194157 0 0 0 0 0.194752 0 0 0 0 0.195608 0 0 0 0.17 0"/>
<feBlend mode="normal" in2="BackgroundImageFix" result="effect1_dropShadow_2027_1928"/>
<feColorMatrix in="SourceAlpha" type="matrix" values="0 0 0 0 0 0 0 0 0 0 0 0 0 0 0 0 0 0 127 0" result="hardAlpha"/>
<feOffset/>
<feGaussianBlur stdDeviation="1.70739"/>
<feComposite in2="hardAlpha" operator="out"/>
<feColorMatrix type="matrix" values="0 0 0 0 0 0 0 0 0 0 0 0 0 0 0 0 0 0 0.06 0"/>
<feBlend mode="normal" in2="effect1_dropShadow_2027_1928" result="effect2_dropShadow_2027_1928"/>
<feBlend mode="normal" in="SourceGraphic" in2="effect2_dropShadow_2027_1928" result="shape"/>
<feColorMatrix in="SourceAlpha" type="matrix" values="0 0 0 0 0 0 0 0 0 0 0 0 0 0 0 0 0 0 127 0" result="hardAlpha"/>
<feOffset dy="0.546365"/>
<feGaussianBlur stdDeviation="0.273183"/>
<feComposite in2="hardAlpha" operator="arithmetic" k2="-1" k3="1"/>
<feColorMatrix type="matrix" values="0 0 0 0 1 0 0 0 0 1 0 0 0 0 1 0 0 0 1 0"/>
<feBlend mode="normal" in2="shape" result="effect3_innerShadow_2027_1928"/>
<feColorMatrix in="SourceAlpha" type="matrix" values="0 0 0 0 0 0 0 0 0 0 0 0 0 0 0 0 0 0 127 0" result="hardAlpha"/>
<feOffset dy="-0.546365"/>
<feGaussianBlur stdDeviation="0.273183"/>
<feComposite in2="hardAlpha" operator="arithmetic" k2="-1" k3="1"/>
<feColorMatrix type="matrix" values="0 0 0 0 0.916179 0 0 0 0 0.918987 0 0 0 0 0.923024 0 0 0 0.3 0"/>
<feBlend mode="normal" in2="effect3_innerShadow_2027_1928" result="effect4_innerShadow_2027_1928"/>
</filter>
<linearGradient id="paint0_linear_2027_1928" x1="118.351" y1="13.0072" x2="118.351" y2="39.036" gradientUnits="userSpaceOnUse">
<stop stop-color="#1C1C1C"/>
<stop offset="1" stop-color="#121212"/>
</linearGradient>
</defs>
</svg>
