<svg width="1440" height="925" viewBox="0 0 1440 925" fill="none" xmlns="http://www.w3.org/2000/svg">
<g clip-path="url(#clip0_2041_1313)">
<g filter="url(#filter0_f_2041_1313)">
<mask id="path-1-outside-1_2041_1313" maskUnits="userSpaceOnUse" x="201.003" y="400" width="371" height="245" fill="black">
<rect fill="white" x="201.003" y="400" width="371" height="245"/>
<path d="M511.173 589.966C511.046 589.966 510.919 589.966 510.793 589.966C509.824 589.966 510.588 589.934 511.173 589.966Z"/>
</mask>
<path d="M236.011 441.266L240.368 431.165L236.011 441.266ZM300.695 452.859L300.805 441.859L300.805 441.859L300.695 452.859ZM342.543 450.441L341.162 439.528L341.162 439.528L342.543 450.441ZM391.886 441.785L393.645 452.644L393.645 452.644L391.886 441.785ZM521.138 431.39L522.014 420.425L522.014 420.425L521.138 431.39ZM553.851 445.989L545.442 453.079L545.442 453.079L553.851 445.989ZM554.944 467.91L562.347 476.046L562.347 476.046L554.944 467.91ZM494.164 503.932L488.893 494.277L488.893 494.277L494.164 503.932ZM441.932 538.531L434.987 530.001L434.987 530.001L441.932 538.531ZM424.912 562.712L435.91 562.536L435.91 562.536L424.912 562.712ZM429.401 568.384L432.324 557.78L432.324 557.78L429.401 568.384ZM437.95 569.537L438.706 558.563L438.706 558.563L437.95 569.537ZM464.73 570.26L464.759 581.26L464.759 581.26L464.73 570.26ZM519.538 566.441L520.82 577.366L520.82 577.366L519.538 566.441ZM519.9 566.398L521.183 577.323L521.183 577.323L519.9 566.398ZM549.518 566.237L552.345 555.607L552.345 555.607L549.518 566.237ZM547.566 586.938L543.403 576.756L543.403 576.756L547.566 586.938ZM511.173 589.966L511.194 578.966L510.566 600.95L511.173 589.966ZM511.652 590.034L506.762 599.887L506.763 599.888L511.652 590.034ZM201.003 400V419.073H223.003V400H201.003ZM201.003 419.073C201.003 428.561 206.3 435.491 212.02 440.221C217.622 444.854 224.825 448.42 231.653 451.366L240.368 431.165C233.926 428.386 229.125 425.818 226.041 423.268C223.074 420.815 223.003 419.511 223.003 419.073H201.003ZM231.653 451.366C252.763 460.473 276.091 463.614 300.586 463.858L300.805 441.859C277.889 441.631 257.786 438.68 240.368 431.165L231.653 451.366ZM300.586 463.858C315.252 464.005 329.578 463.169 343.924 461.354L341.162 439.528C327.808 441.217 314.477 441.996 300.805 441.859L300.586 463.858ZM343.924 461.354C352.705 460.243 361.183 458.694 369.383 457.125C377.674 455.537 385.564 453.953 393.645 452.644L390.127 430.927C381.64 432.302 373.276 433.98 365.247 435.517C357.125 437.072 349.216 438.509 341.162 439.528L343.924 461.354ZM393.645 452.644C434.699 445.993 478.951 439.056 520.263 442.355L522.014 420.425C477.619 416.88 430.744 424.347 390.127 430.927L393.645 452.644ZM520.263 442.355C528.071 442.978 533.009 444.272 536.528 445.918C539.892 447.492 542.566 449.669 545.442 453.079L562.261 438.898C557.833 433.646 552.729 429.209 545.851 425.991C539.129 422.846 531.361 421.171 522.014 420.425L520.263 442.355ZM545.442 453.079C546.835 454.732 547.766 456.026 548.357 457.057C548.946 458.085 549.01 458.529 549.008 458.516C549.005 458.49 548.995 458.386 549.015 458.24C549.035 458.092 549.07 458.007 549.069 458.009C549.058 458.033 548.783 458.644 547.542 459.773L562.347 476.046C568.332 470.602 571.93 463.652 570.8 455.497C569.843 448.588 565.651 442.918 562.261 438.898L545.442 453.079ZM547.542 459.773C540.659 466.034 531.653 471.667 521.271 477.33C516.117 480.14 510.78 482.877 505.303 485.685C499.872 488.47 494.3 491.326 488.893 494.277L499.434 513.588C504.547 510.797 509.863 508.07 515.34 505.262C520.772 502.478 526.362 499.612 531.805 496.644C542.617 490.747 553.482 484.111 562.347 476.046L547.542 459.773ZM488.893 494.277C469.034 505.116 451.022 516.945 434.987 530.001L448.877 547.061C463.707 534.986 480.562 523.888 499.434 513.588L488.893 494.277ZM434.987 530.001C430.462 533.685 425.336 538.058 421.375 543.05C417.352 548.12 413.783 554.761 413.913 562.888L435.91 562.536C435.892 561.379 436.335 559.591 438.61 556.724C440.948 553.777 444.406 550.702 448.877 547.061L434.987 530.001ZM413.913 562.888C413.947 564.997 414.311 568.466 416.497 571.89C418.85 575.575 422.447 577.878 426.478 578.989L432.324 557.78C432.397 557.8 432.823 557.929 433.399 558.329C434 558.746 434.58 559.331 435.04 560.051C435.484 560.747 435.702 561.388 435.807 561.83C435.906 562.251 435.91 562.518 435.91 562.536L413.913 562.888ZM426.478 578.989C430.335 580.052 434.551 580.329 437.194 580.511L438.706 558.563C435.684 558.355 433.695 558.158 432.324 557.78L426.478 578.989ZM437.194 580.511C446.413 581.145 455.752 581.284 464.759 581.26L464.7 559.26C455.92 559.283 447.171 559.146 438.706 558.563L437.194 580.511ZM464.759 581.26C484.027 581.208 502.437 579.523 520.82 577.366L518.256 555.516C500.207 557.634 482.747 559.212 464.7 559.26L464.759 581.26ZM520.82 577.366L521.183 577.323L518.618 555.473L518.255 555.516L520.82 577.366ZM521.183 577.323C525.702 576.792 530.519 576.232 535.224 576.054C540.028 575.873 543.928 576.133 546.692 576.868L552.345 555.607C546.455 554.041 540.005 553.858 534.393 554.07C528.682 554.286 523.017 554.957 518.618 555.473L521.183 577.323ZM546.692 576.868C548.29 577.293 547.77 577.579 547.061 576.512C546.725 576.007 546.522 575.438 546.445 574.913C546.372 574.418 546.43 574.1 546.449 574.015C546.47 573.921 546.356 574.398 545.68 575.14C545.039 575.845 544.212 576.425 543.403 576.756L551.73 597.12C559.294 594.026 566.022 587.176 567.904 578.884C568.918 574.414 568.551 569.1 565.383 564.333C562.28 559.665 557.45 556.964 552.345 555.607L546.692 576.868ZM543.403 576.756C540.218 578.058 535.604 578.769 529.576 579.003C523.457 579.242 517.658 578.979 511.194 578.966L511.151 600.966C516.385 600.977 523.78 601.246 530.432 600.987C537.174 600.724 544.909 599.909 551.73 597.12L543.403 576.756ZM510.566 600.95C510.545 600.949 510.34 600.938 510.035 600.898C509.885 600.878 509.572 600.834 509.171 600.744C508.965 600.698 508.665 600.624 508.307 600.511C507.972 600.405 507.416 600.212 506.762 599.887L516.542 580.181C515.343 579.585 514.306 579.349 513.986 579.277C513.522 579.173 513.135 579.116 512.901 579.085C512.428 579.023 512.018 578.996 511.78 578.983L510.566 600.95ZM506.763 599.888C504.702 598.865 503.4 597.343 502.659 596.075C501.969 594.896 501.724 593.885 501.631 593.408C501.461 592.538 501.546 592.09 501.514 592.498C501.492 592.782 501.442 593.159 501.344 593.803C501.305 594.056 501.24 594.477 501.191 594.85C501.157 595.103 501.043 595.942 501.043 596.881H523.043C523.043 597.539 522.968 597.979 522.999 597.746C523.014 597.632 523.038 597.481 523.095 597.105C523.188 596.49 523.357 595.383 523.449 594.201C523.531 593.143 523.624 591.247 523.223 589.191C522.881 587.442 521.599 582.69 516.542 580.18L506.763 599.888ZM501.043 596.881C501.043 610.049 499.425 627.531 506.9 644.446L527.023 635.554C521.939 624.049 523.043 612.868 523.043 596.881H501.043ZM511.173 589.966L511.131 611.966L512.386 568L511.173 589.966ZM511.215 567.967C511.076 567.966 510.935 567.966 510.793 567.966V611.966C510.904 611.966 511.016 611.966 511.131 611.966L511.215 567.967ZM510.793 567.966C510.48 567.966 510.831 567.961 511.345 567.984C511.451 567.988 511.651 567.998 511.903 568.016C512.046 568.026 512.683 568.07 513.492 568.188C513.788 568.23 514.897 568.391 516.276 568.777C516.879 568.947 518.495 569.418 520.4 570.398C520.922 570.667 528.115 574.037 531.131 582.795C535.624 595.841 527.031 604.746 524.163 607.066C521.215 609.449 518.376 610.446 517.717 610.681C515.822 611.357 514.252 611.607 513.992 611.651C513.028 611.814 512.262 611.873 512.13 611.884C511.849 611.907 511.627 611.919 511.51 611.926C511.269 611.938 511.084 611.944 511.006 611.946C510.623 611.956 510.348 611.954 509.96 611.933L512.386 568C511.413 567.946 510.464 567.944 509.794 567.963C509.681 567.966 509.466 567.972 509.202 567.986C509.074 567.993 508.842 568.006 508.554 568.03C508.414 568.041 507.642 568.101 506.674 568.264C506.412 568.308 504.841 568.559 502.945 569.235C502.285 569.47 499.446 570.467 496.498 572.851C493.629 575.171 485.036 584.076 489.529 597.122C492.545 605.88 499.739 609.25 500.262 609.52C502.167 610.5 503.783 610.971 504.387 611.141C505.767 611.528 506.877 611.689 507.176 611.732C507.989 611.85 508.634 611.895 508.785 611.905C509.046 611.924 509.257 611.934 509.378 611.94C510.003 611.968 510.622 611.966 510.793 611.966V567.966Z" fill="url(#paint0_linear_2041_1313)" mask="url(#path-1-outside-1_2041_1313)"/>
</g>
<g filter="url(#filter1_f_2041_1313)">
<mask id="path-3-outside-2_2041_1313" maskUnits="userSpaceOnUse" x="-109.329" y="314.155" width="734.314" height="452.772" fill="black">
<rect fill="white" x="-109.329" y="314.155" width="734.314" height="452.772"/>
<path d="M31.8654 534.916C31.971 534.99 32.0761 535.064 32.1808 535.138C32.9846 535.707 32.4074 535.227 31.8654 534.916Z"/>
</mask>
<path d="M523.084 551.09L521.628 559.258L521.628 559.258L523.084 551.09ZM446.007 526.292L436.555 531.729L436.555 531.729L446.007 526.292ZM415.594 499.401L404.061 503.002L404.061 503.002L415.594 499.401ZM390.005 462.03L401.929 458.923L401.929 458.923L390.005 462.03ZM301.252 376.119L293.149 382.362L293.149 382.362L301.252 376.119ZM248.302 371.19L252.815 379.11L252.815 379.11L248.302 371.19ZM208.609 391.943L196.09 388.952L196.09 388.952L208.609 391.943ZM195.255 462.728L182.124 461.653L182.124 461.653L195.255 462.728ZM177.334 527.111L164.632 524.497L164.632 524.497L177.334 527.111ZM151.599 558.883L160.503 565.276L160.503 565.276L151.599 558.883ZM137.841 561.787L141.965 554.074L141.965 554.074L137.841 561.787ZM128.715 557.9L137.038 551.775L137.038 551.775L128.715 557.9ZM102.293 544.713L92.6133 549.992L92.6133 549.992L102.293 544.713ZM63.6161 508.858L75.0384 505.129L75.0384 505.129L63.6161 508.858ZM42.0652 489.28L46.3781 481.614L46.3781 481.614L42.0652 489.28ZM7.055 510.627L20.1949 510.515L20.1949 510.515L7.055 510.627ZM31.8654 534.916L41.4625 529.579L23.2725 540.891L31.8654 534.916ZM31.3488 534.701L31.8909 526.458L31.8917 526.458L31.3488 534.701ZM624.984 531.242L591.235 549.856L573.272 537.154L607.022 518.54L624.984 531.242ZM591.235 549.856C569.442 561.876 544.089 561.587 521.628 559.258L524.541 542.922C544.343 544.975 559.941 544.507 573.272 537.154L591.235 549.856ZM521.628 559.258C488.539 555.827 459.155 547.117 436.555 531.729L455.458 520.854C472.998 532.796 496.278 539.991 524.541 542.922L521.628 559.258ZM436.555 531.729C423.726 522.995 412.995 513.481 404.061 503.002L427.128 495.8C434.955 504.98 444.295 513.253 455.458 520.854L436.555 531.729ZM404.061 503.002C398.57 496.563 394.178 489.913 390.151 483.563C386.04 477.081 382.384 471.041 378.082 465.137L401.929 458.923C406.612 465.35 410.658 472.022 414.548 478.156C418.522 484.422 422.432 490.292 427.128 495.8L404.061 503.002ZM378.082 465.137C355.66 434.366 331.816 402.617 293.149 382.362L309.355 369.875C353.847 393.181 380.058 428.908 401.929 458.923L378.082 465.137ZM293.149 382.362C286.5 378.879 281.043 377.46 275.624 377.036C269.825 376.582 262.781 377.166 252.815 379.11L243.789 363.27C255.205 361.042 266.313 359.73 277.482 360.604C289.032 361.508 299.358 364.639 309.355 369.875L293.149 382.362ZM252.815 379.11C235.241 382.54 225.66 386.376 221.127 394.934L196.09 388.952C204.419 373.226 223.618 367.207 243.789 363.27L252.815 379.11ZM221.127 394.934C209.489 416.908 211.427 438.937 208.386 463.802L182.124 461.653C184.84 439.438 183.14 413.402 196.09 388.952L221.127 394.934ZM208.386 463.802C205.675 485.978 199.704 507.901 190.035 529.726L164.632 524.497C173.844 503.702 179.536 482.812 182.124 461.653L208.386 463.802ZM190.035 529.726C184.74 541.679 180.324 554.529 160.503 565.276L142.696 552.489C155.974 545.29 158.922 537.386 164.632 524.497L190.035 529.726ZM160.503 565.276C158.208 566.52 154.849 568.153 150.732 569.231C146.499 570.339 140.416 571.113 133.717 569.499L141.965 554.074C141.17 553.883 140.424 553.843 139.9 553.866C139.439 553.886 139.293 553.948 139.513 553.89C139.733 553.833 140.141 553.703 140.738 553.449C141.325 553.198 141.977 552.878 142.696 552.489L160.503 565.276ZM133.717 569.499C127.628 568.033 122.867 565.377 120.391 564.026L137.038 551.775C139.949 553.363 141.169 553.882 141.965 554.074L133.717 569.499ZM120.391 564.026C116.881 562.11 113.035 560.519 107.872 558.216C103.127 556.1 97.4508 553.447 92.6133 549.992L111.973 539.434C114.466 541.215 117.796 542.861 122.328 544.882C126.442 546.717 132.141 549.102 137.038 551.775L120.391 564.026ZM92.6133 549.992C76.2496 538.302 63.6957 525.558 52.1938 512.587L75.0384 505.129C86.1727 517.685 97.5793 529.152 111.973 539.434L92.6133 549.992ZM52.1938 512.587C50.4794 510.653 48.9073 508.479 47.5851 506.668C46.1656 504.723 44.9123 503.02 43.5549 501.462C40.6131 498.084 38.6543 497.173 37.7523 496.947L46.3781 481.614C56.8738 484.253 62.9094 489.995 66.5032 494.122C68.4135 496.315 70.0632 498.577 71.425 500.443C72.8842 502.443 73.9718 503.926 75.0384 505.129L52.1938 512.587ZM37.7523 496.947C37.0318 496.765 33.3508 496.476 27.6615 500.466C25.2178 502.18 23.1696 504.238 21.822 506.243C20.4111 508.343 20.123 509.844 20.1949 510.515L-6.0849 510.739C-6.52004 506.672 -4.86299 502.589 -2.52665 499.113C-0.127064 495.543 3.37412 492.036 7.63203 489.05C15.3459 483.64 29.677 477.415 46.3781 481.614L37.7523 496.947ZM20.1949 510.515C20.465 513.039 22.4232 515.75 26.5014 519.099C30.9598 522.76 35.5906 525.457 41.4625 529.579L22.2682 540.253C18.4029 537.54 11.1561 533.022 5.90735 528.712C0.278454 524.089 -5.3 518.073 -6.0849 510.739L20.1949 510.515ZM23.2725 540.891C23.4113 540.971 23.8568 541.224 24.5301 541.514C24.8714 541.662 25.4865 541.912 26.3171 542.161C27.0419 542.378 28.6468 542.815 30.806 542.944L31.8917 526.458C35.7067 526.686 38.3507 527.904 38.6225 528.021C39.474 528.389 40.1183 528.746 40.4582 528.941L23.2725 540.891ZM30.8067 542.944C32.3907 543.038 33.6344 542.913 34.3794 542.804C35.1429 542.693 35.6869 542.554 35.9697 542.474C36.498 542.326 36.6861 542.223 36.4656 542.321C36.0382 542.512 35.2588 542.922 34.1446 543.59C33.0873 544.223 32.016 544.913 30.9765 545.586C30.485 545.905 29.9586 546.247 29.5007 546.538C29.0915 546.798 28.4917 547.174 27.8905 547.506L9.92771 534.804C9.82537 534.86 9.89818 534.824 10.2955 534.571C10.644 534.35 11.0579 534.081 11.6007 533.729C12.6296 533.063 14.0024 532.176 15.4447 531.311C16.8302 530.482 18.6063 529.474 20.4702 528.642C21.3953 528.23 22.6631 527.715 24.165 527.293C25.4215 526.94 28.2433 526.241 31.8909 526.458L30.8067 542.944ZM27.8905 547.506C2.76314 561.365 -22.8424 576.982 -54.7836 587.704L-68.144 573.001C-39.3872 563.348 -16.5309 549.397 9.92771 534.804L27.8905 547.506ZM31.8654 534.916L12.6695 545.589L49.0513 522.967L31.8654 534.916ZM51.0613 524.243C51.1866 524.331 51.3147 524.421 51.4449 524.513L12.9167 545.763C12.8376 545.707 12.7554 545.65 12.6695 545.589L51.0613 524.243ZM51.4449 524.513C51.7597 524.736 51.0994 524.249 50.1398 523.676C49.9451 523.56 49.587 523.349 49.12 523.096C48.8364 522.943 47.698 522.324 46.0905 521.666C45.4144 521.39 43.4185 520.586 40.6128 519.927C39.782 519.732 29.0036 516.964 18.1017 521.098C4.70189 526.179 6.15035 535.208 6.47516 536.73C6.99269 539.155 8.25406 540.944 8.59911 541.432C9.51139 542.722 10.4825 543.656 10.6783 543.846C11.0476 544.206 11.3622 544.483 11.5336 544.631C11.886 544.936 12.1759 545.166 12.3083 545.27C13.0028 545.816 13.7243 546.317 14.6794 546.866L49.0513 522.967C50.5484 523.826 51.8296 524.723 52.7472 525.444C52.9075 525.57 53.2201 525.818 53.5891 526.138C53.7689 526.294 54.0904 526.577 54.4649 526.941C54.666 527.137 55.6408 528.074 56.5552 529.368C56.9012 529.857 58.1632 531.647 58.6809 534.073C59.0059 535.596 60.4541 544.626 47.0537 549.707C36.1511 553.841 25.3716 551.073 24.5392 550.878C21.7319 550.218 19.734 549.414 19.0554 549.136C17.443 548.476 16.2978 547.855 16.0056 547.696C15.5299 547.439 15.1612 547.222 14.9538 547.098C13.8934 546.465 13.0037 545.825 12.9167 545.763L51.4449 524.513Z" fill="url(#paint1_linear_2041_1313)" fill-opacity="0.3" mask="url(#path-3-outside-2_2041_1313)"/>
</g>
</g>
<defs>
<filter id="filter0_f_2041_1313" x="-98.9971" y="100" width="970.004" height="844.446" filterUnits="userSpaceOnUse" color-interpolation-filters="sRGB">
<feFlood flood-opacity="0" result="BackgroundImageFix"/>
<feBlend mode="normal" in="SourceGraphic" in2="BackgroundImageFix" result="shape"/>
<feGaussianBlur stdDeviation="150" result="effect1_foregroundBlur_2041_1313"/>
</filter>
<filter id="filter1_f_2041_1313" x="-368.144" y="60.3311" width="1293.13" height="827.373" filterUnits="userSpaceOnUse" color-interpolation-filters="sRGB">
<feFlood flood-opacity="0" result="BackgroundImageFix"/>
<feBlend mode="normal" in="SourceGraphic" in2="BackgroundImageFix" result="shape"/>
<feGaussianBlur stdDeviation="150" result="effect1_foregroundBlur_2041_1313"/>
</filter>
<linearGradient id="paint0_linear_2041_1313" x1="231.159" y1="613.333" x2="531.269" y2="613.333" gradientUnits="userSpaceOnUse">
<stop stop-color="#F23E94"/>
<stop offset="0.35" stop-color="#6927DA"/>
<stop offset="0.67" stop-color="#1570EF"/>
<stop offset="1" stop-color="#22CCEE"/>
</linearGradient>
<linearGradient id="paint1_linear_2041_1313" x1="491.131" y1="579.481" x2="12.7388" y2="425.305" gradientUnits="userSpaceOnUse">
<stop stop-color="#F23E94"/>
<stop offset="1" stop-color="#6927DA"/>
</linearGradient>
<clipPath id="clip0_2041_1313">
<rect width="1440" height="925" fill="white"/>
</clipPath>
</defs>
</svg>
