<svg width="504" height="142" viewBox="0 0 504 142" fill="none" xmlns="http://www.w3.org/2000/svg">
<g filter="url(#filter0_d_2027_1964)">
<rect x="11" y="10" width="482" height="120" rx="12" fill="#171717"/>
<rect x="11" y="10" width="482" height="120" rx="12" fill="white" fill-opacity="0.02"/>
<rect x="11" y="10" width="482" height="120" rx="12" fill="url(#paint0_linear_2027_1964)" fill-opacity="0.06"/>
<rect x="10.5" y="9.5" width="483" height="121" rx="12.5" stroke="white" stroke-opacity="0.08"/>
<rect x="10.5" y="9.5" width="483" height="121" rx="12.5" stroke="url(#paint1_linear_2027_1964)" stroke-opacity="0.1"/>
<path d="M23.28 37L26.864 27.06H28.488L32.072 37H30.756L29.762 34.172H25.59L24.596 37H23.28ZM25.996 32.996H29.356L27.676 28.11L25.996 32.996ZM35.9275 37.168C35.2648 37.168 34.7001 37.0607 34.2335 36.846C33.7761 36.6313 33.4168 36.3373 33.1555 35.964C32.9035 35.5813 32.7588 35.1473 32.7215 34.662L33.9535 34.578C34.0281 35.026 34.2195 35.3853 34.5275 35.656C34.8355 35.9173 35.3021 36.048 35.9275 36.048C36.4315 36.048 36.8328 35.9687 37.1315 35.81C37.4395 35.642 37.5935 35.376 37.5935 35.012C37.5935 34.816 37.5468 34.6527 37.4535 34.522C37.3601 34.3913 37.1781 34.2793 36.9075 34.186C36.6368 34.0833 36.2355 33.9853 35.7035 33.892C34.9941 33.7613 34.4341 33.6027 34.0235 33.416C33.6221 33.22 33.3328 32.982 33.1555 32.702C32.9875 32.4127 32.9035 32.072 32.9035 31.68C32.9035 31.0173 33.1461 30.476 33.6315 30.056C34.1168 29.6267 34.8075 29.412 35.7035 29.412C36.3101 29.412 36.8188 29.524 37.2295 29.748C37.6495 29.9627 37.9761 30.252 38.2095 30.616C38.4521 30.9707 38.6108 31.3627 38.6855 31.792L37.4535 31.876C37.3975 31.6147 37.2948 31.386 37.1455 31.19C36.9961 30.9847 36.8001 30.826 36.5575 30.714C36.3148 30.5927 36.0255 30.532 35.6895 30.532C35.1575 30.532 34.7655 30.6347 34.5135 30.84C34.2615 31.0453 34.1355 31.3067 34.1355 31.624C34.1355 31.8667 34.1915 32.0673 34.3035 32.226C34.4248 32.3753 34.6161 32.5013 34.8775 32.604C35.1388 32.6973 35.4888 32.7813 35.9275 32.856C36.6835 32.9867 37.2715 33.1453 37.6915 33.332C38.1115 33.5187 38.4055 33.7473 38.5735 34.018C38.7415 34.2887 38.8255 34.62 38.8255 35.012C38.8255 35.4693 38.6948 35.8613 38.4335 36.188C38.1815 36.5053 37.8361 36.748 37.3975 36.916C36.9681 37.084 36.4781 37.168 35.9275 37.168ZM40.4305 37V27.06H41.6065V33.57L45.2185 29.58H46.7865L43.8605 32.73L46.9125 37H45.4845L43.0625 33.528L41.6065 35.068V37H40.4305ZM54.1904 37.168C53.425 37.168 52.8137 36.9907 52.3564 36.636C51.9084 36.2813 51.6844 35.7867 51.6844 35.152C51.6844 34.5173 51.871 34.018 52.2444 33.654C52.6177 33.29 53.2104 33.0333 54.0224 32.884L56.6544 32.394C56.6544 31.7687 56.505 31.302 56.2064 30.994C55.917 30.686 55.4784 30.532 54.8904 30.532C54.377 30.532 53.971 30.6487 53.6724 30.882C53.3737 31.106 53.1684 31.4327 53.0564 31.862L51.8104 31.764C51.9504 31.064 52.2864 30.4993 52.8184 30.07C53.3597 29.6313 54.0504 29.412 54.8904 29.412C55.8424 29.412 56.5704 29.6827 57.0744 30.224C57.5784 30.756 57.8304 31.4933 57.8304 32.436V35.502C57.8304 35.67 57.8584 35.7913 57.9144 35.866C57.9797 35.9313 58.0824 35.964 58.2224 35.964H58.5164V37C58.479 37.0093 58.4184 37.014 58.3344 37.014C58.2504 37.0233 58.1617 37.028 58.0684 37.028C57.7324 37.028 57.457 36.9767 57.2424 36.874C57.037 36.762 56.8877 36.594 56.7944 36.37C56.701 36.1367 56.6544 35.8333 56.6544 35.46L56.7944 35.488C56.729 35.8053 56.5704 36.0947 56.3184 36.356C56.0664 36.608 55.7537 36.8087 55.3804 36.958C55.007 37.098 54.6104 37.168 54.1904 37.168ZM54.3024 36.132C54.797 36.132 55.217 36.0387 55.5624 35.852C55.917 35.656 56.1877 35.3947 56.3744 35.068C56.561 34.732 56.6544 34.3587 56.6544 33.948V33.416L54.2464 33.864C53.7424 33.9573 53.3924 34.102 53.1964 34.298C53.0097 34.4847 52.9164 34.732 52.9164 35.04C52.9164 35.3853 53.0377 35.656 53.2804 35.852C53.5324 36.0387 53.873 36.132 54.3024 36.132ZM59.8446 37V29.58H60.9226L60.9646 31.47L60.8246 31.344C60.9179 30.9053 61.0813 30.546 61.3146 30.266C61.5479 29.9767 61.8279 29.762 62.1546 29.622C62.4906 29.482 62.8499 29.412 63.2326 29.412C63.8019 29.412 64.2686 29.538 64.6326 29.79C65.0059 30.042 65.2813 30.3827 65.4586 30.812C65.6453 31.232 65.7386 31.7033 65.7386 32.226V37H64.5626V32.562C64.5626 32.1047 64.5066 31.722 64.3946 31.414C64.2919 31.0967 64.1239 30.8587 63.8906 30.7C63.6573 30.532 63.3539 30.448 62.9806 30.448C62.4113 30.448 61.9399 30.63 61.5666 30.994C61.2026 31.3487 61.0206 31.8713 61.0206 32.562V37H59.8446ZM67.8229 39.1V38.064H68.6769C68.9382 38.064 69.1295 38.022 69.2509 37.938C69.3815 37.8633 69.4795 37.7373 69.5449 37.56L69.8109 36.86H69.4049L66.6889 29.58H67.9769L70.1889 35.768L72.3029 29.58H73.5909L70.5809 37.938C70.4409 38.3393 70.2309 38.6333 69.9509 38.82C69.6709 39.0067 69.2835 39.1 68.7889 39.1H67.8229ZM77.3946 37C76.7226 37 76.2233 36.846 75.8966 36.538C75.5793 36.23 75.4206 35.7493 75.4206 35.096V27.844H76.5966V35.068C76.5966 35.404 76.6713 35.6373 76.8206 35.768C76.9699 35.8987 77.1986 35.964 77.5066 35.964H78.5706V37H77.3946ZM74.3286 30.616V29.58H78.5706V30.616H74.3286ZM80.079 37V27.06H81.255V31.218L81.115 31.19C81.2083 30.7793 81.367 30.4433 81.591 30.182C81.815 29.9207 82.0903 29.7293 82.417 29.608C82.7437 29.4773 83.103 29.412 83.495 29.412C84.027 29.412 84.475 29.5333 84.839 29.776C85.2123 30.0093 85.4923 30.3407 85.679 30.77C85.875 31.19 85.973 31.6753 85.973 32.226V37H84.797V32.562C84.797 31.8433 84.6663 31.3113 84.405 30.966C84.153 30.6207 83.7657 30.448 83.243 30.448C82.6457 30.448 82.165 30.63 81.801 30.994C81.437 31.358 81.255 31.8853 81.255 32.576V37H80.079ZM88.077 37V29.58H89.253V37H88.077ZM88.049 28.418V27.046H89.281V28.418H88.049ZM91.6317 37V29.58H92.7097L92.7517 31.47L92.6117 31.344C92.7051 30.9053 92.8684 30.546 93.1017 30.266C93.3351 29.9767 93.6151 29.762 93.9417 29.622C94.2777 29.482 94.6371 29.412 95.0197 29.412C95.5891 29.412 96.0557 29.538 96.4197 29.79C96.7931 30.042 97.0684 30.3827 97.2457 30.812C97.4324 31.232 97.5257 31.7033 97.5257 32.226V37H96.3497V32.562C96.3497 32.1047 96.2937 31.722 96.1817 31.414C96.0791 31.0967 95.9111 30.8587 95.6777 30.7C95.4444 30.532 95.1411 30.448 94.7677 30.448C94.1984 30.448 93.7271 30.63 93.3537 30.994C92.9897 31.3487 92.8077 31.8713 92.8077 32.562V37H91.6317ZM102.416 39.268C101.884 39.268 101.404 39.1793 100.974 39.002C100.545 38.8247 100.186 38.5727 99.8964 38.246C99.6071 37.9193 99.4111 37.5413 99.3084 37.112L100.54 37.028C100.652 37.3733 100.848 37.644 101.128 37.84C101.418 38.0453 101.847 38.148 102.416 38.148C103.088 38.148 103.602 38.0127 103.956 37.742C104.32 37.4713 104.502 37.0653 104.502 36.524V35.32C104.325 35.712 104.04 36.0247 103.648 36.258C103.256 36.4913 102.818 36.608 102.332 36.608C101.707 36.608 101.147 36.454 100.652 36.146C100.167 35.838 99.7844 35.4133 99.5044 34.872C99.2338 34.3307 99.0984 33.71 99.0984 33.01C99.0984 32.3007 99.2338 31.68 99.5044 31.148C99.7751 30.6067 100.148 30.182 100.624 29.874C101.11 29.566 101.66 29.412 102.276 29.412C102.799 29.412 103.266 29.5333 103.676 29.776C104.096 30.0187 104.39 30.3453 104.558 30.756V29.58H105.678V36.496C105.678 37.0747 105.548 37.5693 105.286 37.98C105.025 38.4 104.652 38.7173 104.166 38.932C103.681 39.156 103.098 39.268 102.416 39.268ZM102.388 35.488C103.023 35.488 103.532 35.2687 103.914 34.83C104.297 34.382 104.493 33.7753 104.502 33.01C104.512 32.4967 104.428 32.058 104.25 31.694C104.082 31.3207 103.835 31.036 103.508 30.84C103.191 30.6347 102.818 30.532 102.388 30.532C101.735 30.532 101.226 30.756 100.862 31.204C100.508 31.6427 100.33 32.2447 100.33 33.01C100.33 33.7753 100.512 34.382 100.876 34.83C101.25 35.2687 101.754 35.488 102.388 35.488ZM110.911 37V35.418H112.493V37H110.911ZM113.727 37V35.418H115.309V37H113.727ZM116.544 37V35.418H118.126V37H116.544Z" fill="#9E9E9E"/>
<path d="M29.1667 108H40.8334M35.0001 102.167V113.833" stroke="#9E9E9E" stroke-width="1.5" stroke-linecap="round" stroke-linejoin="round"/>
<path d="M73.5 103V113C73.5 113.494 73.6466 113.978 73.9213 114.389C74.196 114.8 74.5865 115.12 75.0433 115.31C75.5001 115.499 76.0028 115.548 76.4877 115.452C76.9727 115.356 77.4181 115.117 77.7678 114.768C78.1174 114.418 78.3555 113.973 78.452 113.488C78.5484 113.003 78.4989 112.5 78.3097 112.043C78.1205 111.586 77.8 111.196 77.3889 110.921C76.9778 110.647 76.4945 110.5 76 110.5H66C65.5055 110.5 65.0222 110.647 64.6111 110.921C64.2 111.196 63.8795 111.586 63.6903 112.043C63.5011 112.5 63.4516 113.003 63.548 113.488C63.6445 113.973 63.8826 114.418 64.2322 114.768C64.5819 115.117 65.0273 115.356 65.5123 115.452C65.9972 115.548 66.4999 115.499 66.9567 115.31C67.4135 115.12 67.804 114.8 68.0787 114.389C68.3534 113.978 68.5 113.494 68.5 113V103C68.5 102.506 68.3534 102.022 68.0787 101.611C67.804 101.2 67.4135 100.88 66.9567 100.69C66.4999 100.501 65.9972 100.452 65.5123 100.548C65.0273 100.645 64.5819 100.883 64.2322 101.232C63.8826 101.582 63.6445 102.027 63.548 102.512C63.4516 102.997 63.5011 103.5 63.6903 103.957C63.8795 104.414 64.2 104.804 64.6111 105.079C65.0222 105.353 65.5055 105.5 66 105.5H76C76.4945 105.5 76.9778 105.353 77.3889 105.079C77.8 104.804 78.1205 104.414 78.3097 103.957C78.4989 103.5 78.5484 102.997 78.452 102.512C78.3555 102.027 78.1174 101.582 77.7678 101.232C77.4181 100.883 76.9727 100.645 76.4877 100.548C76.0028 100.452 75.5001 100.501 75.0433 100.69C74.5865 100.88 74.196 101.2 73.9213 101.611C73.6466 102.022 73.5 102.506 73.5 103Z" stroke="#9E9E9E" stroke-width="1.5" stroke-linecap="round" stroke-linejoin="round"/>
<g clip-path="url(#clip0_2027_1964)">
<path d="M110.333 104.667V108.833C110.333 109.496 110.597 110.132 111.066 110.601C111.534 111.07 112.17 111.333 112.833 111.333C113.496 111.333 114.132 111.07 114.601 110.601C115.07 110.132 115.333 109.496 115.333 108.833V108C115.333 106.123 114.7 104.3 113.535 102.828C112.37 101.356 110.742 100.321 108.915 99.8894C107.088 99.4581 105.169 99.6563 103.468 100.452C101.768 101.248 100.386 102.594 99.5465 104.273C98.707 105.952 98.459 107.865 98.8427 109.703C99.2264 111.541 100.219 113.195 101.661 114.398C103.102 115.601 104.907 116.282 106.784 116.33C108.66 116.379 110.498 115.793 112 114.667M110.333 108C110.333 109.841 108.841 111.333 107 111.333C105.159 111.333 103.667 109.841 103.667 108C103.667 106.159 105.159 104.667 107 104.667C108.841 104.667 110.333 106.159 110.333 108Z" stroke="#9E9E9E" stroke-width="1.5" stroke-linecap="round" stroke-linejoin="round"/>
</g>
<path d="M138.999 99.8335L139.666 102.25M137.249 104.667L134.833 104M144.666 101.417L142.999 103M138 108L136.416 109.667M140.499 105.5L144.666 115.5L146.166 111.167L150.499 109.667L140.499 105.5Z" stroke="#9E9E9E" stroke-width="1.5" stroke-linecap="round" stroke-linejoin="round"/>
<mask id="path-9-inside-1_2027_1964" fill="white">
<path d="M453 108C453 99.1634 460.163 92 469 92V92C477.837 92 485 99.1634 485 108V108C485 116.837 477.837 124 469 124V124C460.163 124 453 116.837 453 108V108Z"/>
</mask>
<path d="M453 108C453 99.1634 460.163 92 469 92V92C477.837 92 485 99.1634 485 108V108C485 116.837 477.837 124 469 124V124C460.163 124 453 116.837 453 108V108Z" fill="#363636"/>
<path d="M453 107C453 98.1634 460.163 91 469 91C477.837 91 485 98.1634 485 107V108C485 99.7157 477.837 93 469 93C460.163 93 453 99.7157 453 108V107ZM485 124H453H485ZM453 124V92V124ZM485 92V124V92Z" fill="white" fill-opacity="0.1" mask="url(#path-9-inside-1_2027_1964)"/>
<path d="M463.167 108L469 102.167M469 102.167L474.833 108M469 102.167V113.833" stroke="#737373" stroke-width="1.5" stroke-linecap="round" stroke-linejoin="round"/>
</g>
<defs>
<filter id="filter0_d_2027_1964" x="0" y="0" width="504" height="142" filterUnits="userSpaceOnUse" color-interpolation-filters="sRGB">
<feFlood flood-opacity="0" result="BackgroundImageFix"/>
<feColorMatrix in="SourceAlpha" type="matrix" values="0 0 0 0 0 0 0 0 0 0 0 0 0 0 0 0 0 0 127 0" result="hardAlpha"/>
<feOffset dy="1"/>
<feGaussianBlur stdDeviation="5"/>
<feColorMatrix type="matrix" values="0 0 0 0 0 0 0 0 0 0 0 0 0 0 0 0 0 0 0.08 0"/>
<feBlend mode="normal" in2="BackgroundImageFix" result="effect1_dropShadow_2027_1964"/>
<feBlend mode="normal" in="SourceGraphic" in2="effect1_dropShadow_2027_1964" result="shape"/>
</filter>
<linearGradient id="paint0_linear_2027_1964" x1="207.136" y1="22.1429" x2="202.001" y2="92.7262" gradientUnits="userSpaceOnUse">
<stop stop-color="white"/>
<stop offset="1" stop-color="white" stop-opacity="0.4"/>
</linearGradient>
<linearGradient id="paint1_linear_2027_1964" x1="262" y1="42.5" x2="262" y2="10" gradientUnits="userSpaceOnUse">
<stop stop-color="white" stop-opacity="0"/>
<stop offset="1" stop-color="white"/>
</linearGradient>
<clipPath id="clip0_2027_1964">
<rect width="20" height="20" fill="white" transform="translate(97 98)"/>
</clipPath>
</defs>
</svg>
