<svg width="484" height="122" viewBox="0 0 484 122" fill="none" xmlns="http://www.w3.org/2000/svg">
<rect x="1" y="1" width="482" height="120" rx="12" fill="#171717"/>
<rect x="1" y="1" width="482" height="120" rx="12" fill="white" fill-opacity="0.02"/>
<rect x="1" y="1" width="482" height="120" rx="12" fill="url(#paint0_linear_628_1842)" fill-opacity="0.06"/>
<rect x="0.5" y="0.5" width="483" height="121" rx="12.5" stroke="white" stroke-opacity="0.08"/>
<rect x="0.5" y="0.5" width="483" height="121" rx="12.5" stroke="url(#paint1_linear_628_1842)" stroke-opacity="0.1"/>
<path d="M13.28 28L16.864 18.06H18.488L22.072 28H20.756L19.762 25.172H15.59L14.596 28H13.28ZM15.996 23.996H19.356L17.676 19.11L15.996 23.996ZM25.9275 28.168C25.2648 28.168 24.7001 28.0607 24.2335 27.846C23.7761 27.6313 23.4168 27.3373 23.1555 26.964C22.9035 26.5813 22.7588 26.1473 22.7215 25.662L23.9535 25.578C24.0281 26.026 24.2195 26.3853 24.5275 26.656C24.8355 26.9173 25.3021 27.048 25.9275 27.048C26.4315 27.048 26.8328 26.9687 27.1315 26.81C27.4395 26.642 27.5935 26.376 27.5935 26.012C27.5935 25.816 27.5468 25.6527 27.4535 25.522C27.3601 25.3913 27.1781 25.2793 26.9075 25.186C26.6368 25.0833 26.2355 24.9853 25.7035 24.892C24.9941 24.7613 24.4341 24.6027 24.0235 24.416C23.6221 24.22 23.3328 23.982 23.1555 23.702C22.9875 23.4127 22.9035 23.072 22.9035 22.68C22.9035 22.0173 23.1461 21.476 23.6315 21.056C24.1168 20.6267 24.8075 20.412 25.7035 20.412C26.3101 20.412 26.8188 20.524 27.2295 20.748C27.6495 20.9627 27.9761 21.252 28.2095 21.616C28.4521 21.9707 28.6108 22.3627 28.6855 22.792L27.4535 22.876C27.3975 22.6147 27.2948 22.386 27.1455 22.19C26.9961 21.9847 26.8001 21.826 26.5575 21.714C26.3148 21.5927 26.0255 21.532 25.6895 21.532C25.1575 21.532 24.7655 21.6347 24.5135 21.84C24.2615 22.0453 24.1355 22.3067 24.1355 22.624C24.1355 22.8667 24.1915 23.0673 24.3035 23.226C24.4248 23.3753 24.6161 23.5013 24.8775 23.604C25.1388 23.6973 25.4888 23.7813 25.9275 23.856C26.6835 23.9867 27.2715 24.1453 27.6915 24.332C28.1115 24.5187 28.4055 24.7473 28.5735 25.018C28.7415 25.2887 28.8255 25.62 28.8255 26.012C28.8255 26.4693 28.6948 26.8613 28.4335 27.188C28.1815 27.5053 27.8361 27.748 27.3975 27.916C26.9681 28.084 26.4781 28.168 25.9275 28.168ZM30.4305 28V18.06H31.6065V24.57L35.2185 20.58H36.7865L33.8605 23.73L36.9125 28H35.4845L33.0625 24.528L31.6065 26.068V28H30.4305ZM44.1904 28.168C43.425 28.168 42.8137 27.9907 42.3564 27.636C41.9084 27.2813 41.6844 26.7867 41.6844 26.152C41.6844 25.5173 41.871 25.018 42.2444 24.654C42.6177 24.29 43.2104 24.0333 44.0224 23.884L46.6544 23.394C46.6544 22.7687 46.505 22.302 46.2064 21.994C45.917 21.686 45.4784 21.532 44.8904 21.532C44.377 21.532 43.971 21.6487 43.6724 21.882C43.3737 22.106 43.1684 22.4327 43.0564 22.862L41.8104 22.764C41.9504 22.064 42.2864 21.4993 42.8184 21.07C43.3597 20.6313 44.0504 20.412 44.8904 20.412C45.8424 20.412 46.5704 20.6827 47.0744 21.224C47.5784 21.756 47.8304 22.4933 47.8304 23.436V26.502C47.8304 26.67 47.8584 26.7913 47.9144 26.866C47.9797 26.9313 48.0824 26.964 48.2224 26.964H48.5164V28C48.479 28.0093 48.4184 28.014 48.3344 28.014C48.2504 28.0233 48.1617 28.028 48.0684 28.028C47.7324 28.028 47.457 27.9767 47.2424 27.874C47.037 27.762 46.8877 27.594 46.7944 27.37C46.701 27.1367 46.6544 26.8333 46.6544 26.46L46.7944 26.488C46.729 26.8053 46.5704 27.0947 46.3184 27.356C46.0664 27.608 45.7537 27.8087 45.3804 27.958C45.007 28.098 44.6104 28.168 44.1904 28.168ZM44.3024 27.132C44.797 27.132 45.217 27.0387 45.5624 26.852C45.917 26.656 46.1877 26.3947 46.3744 26.068C46.561 25.732 46.6544 25.3587 46.6544 24.948V24.416L44.2464 24.864C43.7424 24.9573 43.3924 25.102 43.1964 25.298C43.0097 25.4847 42.9164 25.732 42.9164 26.04C42.9164 26.3853 43.0377 26.656 43.2804 26.852C43.5324 27.0387 43.873 27.132 44.3024 27.132ZM49.8446 28V20.58H50.9226L50.9646 22.47L50.8246 22.344C50.9179 21.9053 51.0813 21.546 51.3146 21.266C51.5479 20.9767 51.8279 20.762 52.1546 20.622C52.4906 20.482 52.8499 20.412 53.2326 20.412C53.8019 20.412 54.2686 20.538 54.6326 20.79C55.0059 21.042 55.2813 21.3827 55.4586 21.812C55.6453 22.232 55.7386 22.7033 55.7386 23.226V28H54.5626V23.562C54.5626 23.1047 54.5066 22.722 54.3946 22.414C54.2919 22.0967 54.1239 21.8587 53.8906 21.7C53.6573 21.532 53.3539 21.448 52.9806 21.448C52.4113 21.448 51.9399 21.63 51.5666 21.994C51.2026 22.3487 51.0206 22.8713 51.0206 23.562V28H49.8446ZM57.8229 30.1V29.064H58.6769C58.9382 29.064 59.1295 29.022 59.2509 28.938C59.3815 28.8633 59.4795 28.7373 59.5449 28.56L59.8109 27.86H59.4049L56.6889 20.58H57.9769L60.1889 26.768L62.3029 20.58H63.5909L60.5809 28.938C60.4409 29.3393 60.2309 29.6333 59.9509 29.82C59.6709 30.0067 59.2835 30.1 58.7889 30.1H57.8229ZM67.3946 28C66.7226 28 66.2233 27.846 65.8966 27.538C65.5793 27.23 65.4206 26.7493 65.4206 26.096V18.844H66.5966V26.068C66.5966 26.404 66.6713 26.6373 66.8206 26.768C66.9699 26.8987 67.1986 26.964 67.5066 26.964H68.5706V28H67.3946ZM64.3286 21.616V20.58H68.5706V21.616H64.3286ZM70.079 28V18.06H71.255V22.218L71.115 22.19C71.2083 21.7793 71.367 21.4433 71.591 21.182C71.815 20.9207 72.0903 20.7293 72.417 20.608C72.7437 20.4773 73.103 20.412 73.495 20.412C74.027 20.412 74.475 20.5333 74.839 20.776C75.2123 21.0093 75.4923 21.3407 75.679 21.77C75.875 22.19 75.973 22.6753 75.973 23.226V28H74.797V23.562C74.797 22.8433 74.6663 22.3113 74.405 21.966C74.153 21.6207 73.7657 21.448 73.243 21.448C72.6457 21.448 72.165 21.63 71.801 21.994C71.437 22.358 71.255 22.8853 71.255 23.576V28H70.079ZM78.077 28V20.58H79.253V28H78.077ZM78.049 19.418V18.046H79.281V19.418H78.049ZM81.6317 28V20.58H82.7097L82.7517 22.47L82.6117 22.344C82.7051 21.9053 82.8684 21.546 83.1017 21.266C83.3351 20.9767 83.6151 20.762 83.9417 20.622C84.2777 20.482 84.6371 20.412 85.0197 20.412C85.5891 20.412 86.0557 20.538 86.4197 20.79C86.7931 21.042 87.0684 21.3827 87.2457 21.812C87.4324 22.232 87.5257 22.7033 87.5257 23.226V28H86.3497V23.562C86.3497 23.1047 86.2937 22.722 86.1817 22.414C86.0791 22.0967 85.9111 21.8587 85.6777 21.7C85.4444 21.532 85.1411 21.448 84.7677 21.448C84.1984 21.448 83.7271 21.63 83.3537 21.994C82.9897 22.3487 82.8077 22.8713 82.8077 23.562V28H81.6317ZM92.4164 30.268C91.8844 30.268 91.4038 30.1793 90.9744 30.002C90.5451 29.8247 90.1858 29.5727 89.8964 29.246C89.6071 28.9193 89.4111 28.5413 89.3084 28.112L90.5404 28.028C90.6524 28.3733 90.8484 28.644 91.1284 28.84C91.4178 29.0453 91.8471 29.148 92.4164 29.148C93.0884 29.148 93.6018 29.0127 93.9564 28.742C94.3204 28.4713 94.5024 28.0653 94.5024 27.524V26.32C94.3251 26.712 94.0404 27.0247 93.6484 27.258C93.2564 27.4913 92.8178 27.608 92.3324 27.608C91.7071 27.608 91.1471 27.454 90.6524 27.146C90.1671 26.838 89.7844 26.4133 89.5044 25.872C89.2338 25.3307 89.0984 24.71 89.0984 24.01C89.0984 23.3007 89.2338 22.68 89.5044 22.148C89.7751 21.6067 90.1484 21.182 90.6244 20.874C91.1098 20.566 91.6604 20.412 92.2764 20.412C92.7991 20.412 93.2658 20.5333 93.6764 20.776C94.0964 21.0187 94.3904 21.3453 94.5584 21.756V20.58H95.6784V27.496C95.6784 28.0747 95.5478 28.5693 95.2864 28.98C95.0251 29.4 94.6518 29.7173 94.1664 29.932C93.6811 30.156 93.0978 30.268 92.4164 30.268ZM92.3884 26.488C93.0231 26.488 93.5318 26.2687 93.9144 25.83C94.2971 25.382 94.4931 24.7753 94.5024 24.01C94.5118 23.4967 94.4278 23.058 94.2504 22.694C94.0824 22.3207 93.8351 22.036 93.5084 21.84C93.1911 21.6347 92.8178 21.532 92.3884 21.532C91.7351 21.532 91.2264 21.756 90.8624 22.204C90.5078 22.6427 90.3304 23.2447 90.3304 24.01C90.3304 24.7753 90.5124 25.382 90.8764 25.83C91.2498 26.2687 91.7538 26.488 92.3884 26.488ZM100.911 28V26.418H102.493V28H100.911ZM103.727 28V26.418H105.309V28H103.727ZM106.544 28V26.418H108.126V28H106.544Z" fill="#9E9E9E"/>
<path d="M19.1667 98.9998H30.8334M25.0001 93.1665V104.833" stroke="#9E9E9E" stroke-width="1.5" stroke-linecap="round" stroke-linejoin="round"/>
<path d="M63.5 94V104C63.5 104.494 63.6466 104.978 63.9213 105.389C64.196 105.8 64.5865 106.12 65.0433 106.31C65.5001 106.499 66.0028 106.548 66.4877 106.452C66.9727 106.356 67.4181 106.117 67.7678 105.768C68.1174 105.418 68.3555 104.973 68.452 104.488C68.5484 104.003 68.4989 103.5 68.3097 103.043C68.1205 102.586 67.8 102.196 67.3889 101.921C66.9778 101.647 66.4945 101.5 66 101.5H56C55.5055 101.5 55.0222 101.647 54.6111 101.921C54.2 102.196 53.8795 102.586 53.6903 103.043C53.5011 103.5 53.4516 104.003 53.548 104.488C53.6445 104.973 53.8826 105.418 54.2322 105.768C54.5819 106.117 55.0273 106.356 55.5123 106.452C55.9972 106.548 56.4999 106.499 56.9567 106.31C57.4135 106.12 57.804 105.8 58.0787 105.389C58.3534 104.978 58.5 104.494 58.5 104V94C58.5 93.5055 58.3534 93.0222 58.0787 92.6111C57.804 92.2 57.4135 91.8795 56.9567 91.6903C56.4999 91.5011 55.9972 91.4516 55.5123 91.548C55.0273 91.6445 54.5819 91.8826 54.2322 92.2322C53.8826 92.5819 53.6445 93.0273 53.548 93.5123C53.4516 93.9972 53.5011 94.4999 53.6903 94.9567C53.8795 95.4135 54.2 95.804 54.6111 96.0787C55.0222 96.3534 55.5055 96.5 56 96.5H66C66.4945 96.5 66.9778 96.3534 67.3889 96.0787C67.8 95.804 68.1205 95.4135 68.3097 94.9567C68.4989 94.4999 68.5484 93.9972 68.452 93.5123C68.3555 93.0273 68.1174 92.5819 67.7678 92.2322C67.4181 91.8826 66.9727 91.6445 66.4877 91.548C66.0028 91.4516 65.5001 91.5011 65.0433 91.6903C64.5865 91.8795 64.196 92.2 63.9213 92.6111C63.6466 93.0222 63.5 93.5055 63.5 94Z" stroke="#9E9E9E" stroke-width="1.5" stroke-linecap="round" stroke-linejoin="round"/>
<g clip-path="url(#clip0_628_1842)">
<path d="M100.333 95.6665V99.8332C100.333 100.496 100.597 101.132 101.066 101.601C101.534 102.07 102.17 102.333 102.833 102.333C103.496 102.333 104.132 102.07 104.601 101.601C105.07 101.132 105.333 100.496 105.333 99.8332V98.9998C105.333 97.1226 104.7 95.3003 103.535 93.8283C102.37 92.3563 100.742 91.3207 98.9147 90.8894C97.0877 90.4581 95.1685 90.6563 93.4682 91.452C91.7679 92.2476 90.3861 93.594 89.5465 95.2731C88.707 96.9521 88.459 98.8655 88.8427 100.703C89.2264 102.541 90.2193 104.195 91.6605 105.398C93.1018 106.601 94.907 107.282 96.7836 107.33C98.6602 107.379 100.498 106.793 102 105.667M100.333 98.9998C100.333 100.841 98.841 102.333 97.0001 102.333C95.1591 102.333 93.6667 100.841 93.6667 98.9998C93.6667 97.1589 95.1591 95.6665 97.0001 95.6665C98.841 95.6665 100.333 97.1589 100.333 98.9998Z" stroke="#9E9E9E" stroke-width="1.5" stroke-linecap="round" stroke-linejoin="round"/>
</g>
<path d="M128.999 90.8335L129.666 93.2502M127.249 95.6668L124.833 95.0002M134.666 92.417L132.999 94.0003M128 99.0002L126.416 100.667M130.499 96.5002L134.666 106.5L136.166 102.167L140.499 100.667L130.499 96.5002Z" stroke="#9E9E9E" stroke-width="1.5" stroke-linecap="round" stroke-linejoin="round"/>
<mask id="path-9-inside-1_628_1842" fill="white">
<path d="M443 99C443 90.1634 450.163 83 459 83C467.837 83 475 90.1634 475 99C475 107.837 467.837 115 459 115C450.163 115 443 107.837 443 99Z"/>
</mask>
<path d="M443 99C443 90.1634 450.163 83 459 83C467.837 83 475 90.1634 475 99C475 107.837 467.837 115 459 115C450.163 115 443 107.837 443 99Z" fill="#363636"/>
<path d="M443 98C443 89.1634 450.163 82 459 82C467.837 82 475 89.1634 475 98V99C475 90.7157 467.837 84 459 84C450.163 84 443 90.7157 443 99V98ZM475 115H443H475ZM443 115V83V115ZM475 83V115V83Z" fill="white" fill-opacity="0.1" mask="url(#path-9-inside-1_628_1842)"/>
<path d="M453.167 98.9998L459 93.1665M459 93.1665L464.833 98.9998M459 93.1665V104.833" stroke="#737373" stroke-width="1.5" stroke-linecap="round" stroke-linejoin="round"/>
<defs>
<linearGradient id="paint0_linear_628_1842" x1="197.136" y1="13.1429" x2="192.001" y2="83.7262" gradientUnits="userSpaceOnUse">
<stop stop-color="white"/>
<stop offset="1" stop-color="white" stop-opacity="0.4"/>
</linearGradient>
<linearGradient id="paint1_linear_628_1842" x1="252" y1="33.5" x2="252" y2="1" gradientUnits="userSpaceOnUse">
<stop stop-color="white" stop-opacity="0"/>
<stop offset="1" stop-color="white"/>
</linearGradient>
<clipPath id="clip0_628_1842">
<rect width="20" height="20" fill="white" transform="translate(87 89)"/>
</clipPath>
</defs>
</svg>
