<svg width="44" height="44" viewBox="0 0 44 44" fill="none" xmlns="http://www.w3.org/2000/svg">
<g filter="url(#filter0_i_468_28966)">
<rect x="2" y="2" width="40" height="40" rx="20" fill="#22CCEE" fill-opacity="0.1"/>
<rect x="1" y="1" width="42" height="42" rx="21" stroke="#FFFDFE" stroke-width="2"/>
<path d="M18.7999 19.9998C18.671 20.0068 18.5427 19.9781 18.4291 19.9167C18.3155 19.8554 18.2211 19.7638 18.1563 19.6521C18.0915 19.5405 18.0589 19.413 18.062 19.284C18.0651 19.1549 18.1038 19.0292 18.1739 18.9208L21.8999 12.9998C21.9585 12.8944 22.0433 12.8059 22.1461 12.7428C22.2489 12.6798 22.3663 12.6444 22.4868 12.6401C22.6073 12.6358 22.7269 12.6627 22.834 12.7181C22.941 12.7736 23.032 12.8558 23.0979 12.9568L26.7999 18.8998C26.8729 19.0046 26.9158 19.1274 26.924 19.2548C26.9322 19.3822 26.9054 19.5095 26.8465 19.6228C26.7876 19.7361 26.6988 19.8311 26.5898 19.8975C26.4807 19.964 26.3556 19.9994 26.2279 19.9998H18.7999Z" stroke="#06AED4" stroke-width="1.875" stroke-linecap="round" stroke-linejoin="round"/>
<path d="M19.5 23.9998H14.5C13.9477 23.9998 13.5 24.4475 13.5 24.9998V29.9998C13.5 30.552 13.9477 30.9998 14.5 30.9998H19.5C20.0523 30.9998 20.5 30.552 20.5 29.9998V24.9998C20.5 24.4475 20.0523 23.9998 19.5 23.9998Z" stroke="#06AED4" stroke-width="1.875" stroke-linecap="round" stroke-linejoin="round"/>
<path d="M28 30.9998C29.933 30.9998 31.5 29.4328 31.5 27.4998C31.5 25.5668 29.933 23.9998 28 23.9998C26.067 23.9998 24.5 25.5668 24.5 27.4998C24.5 29.4328 26.067 30.9998 28 30.9998Z" stroke="#06AED4" stroke-width="1.875" stroke-linecap="round" stroke-linejoin="round"/>
</g>
<defs>
<filter id="filter0_i_468_28966" x="0" y="0" width="44" height="44" filterUnits="userSpaceOnUse" color-interpolation-filters="sRGB">
<feFlood flood-opacity="0" result="BackgroundImageFix"/>
<feBlend mode="normal" in="SourceGraphic" in2="BackgroundImageFix" result="shape"/>
<feColorMatrix in="SourceAlpha" type="matrix" values="0 0 0 0 0 0 0 0 0 0 0 0 0 0 0 0 0 0 127 0" result="hardAlpha"/>
<feMorphology radius="3" operator="erode" in="SourceAlpha" result="effect1_innerShadow_468_28966"/>
<feOffset/>
<feComposite in2="hardAlpha" operator="arithmetic" k2="-1" k3="1"/>
<feColorMatrix type="matrix" values="0 0 0 0 0 0 0 0 0 0 0 0 0 0 0 0 0 0 0.02 0"/>
<feBlend mode="normal" in2="shape" result="effect1_innerShadow_468_28966"/>
</filter>
</defs>
</svg>
