<svg width="45" height="44" viewBox="0 0 45 44" fill="none" xmlns="http://www.w3.org/2000/svg">
<g filter="url(#filter0_i_468_28955)">
<rect x="2.5" y="2" width="40" height="40" rx="20" fill="#2E90FA" fill-opacity="0.1"/>
<rect x="1.5" y="1" width="42" height="42" rx="21" stroke="#FFFDFE" stroke-width="2"/>
<path d="M20 27H18C16.6739 27 15.4021 26.4732 14.4645 25.5355C13.5268 24.5979 13 23.3261 13 22C13 20.6739 13.5268 19.4021 14.4645 18.4645C15.4021 17.5268 16.6739 17 18 17H20M26 17H28C29.3261 17 30.5979 17.5268 31.5355 18.4645C32.4732 19.4021 33 20.6739 33 22C33 23.3261 32.4732 24.5979 31.5355 25.5355C30.5979 26.4732 29.3261 27 28 27H26M19 22H27" stroke="#2E90FA" stroke-width="1.875" stroke-linecap="round" stroke-linejoin="round"/>
</g>
<defs>
<filter id="filter0_i_468_28955" x="0.5" y="0" width="44" height="44" filterUnits="userSpaceOnUse" color-interpolation-filters="sRGB">
<feFlood flood-opacity="0" result="BackgroundImageFix"/>
<feBlend mode="normal" in="SourceGraphic" in2="BackgroundImageFix" result="shape"/>
<feColorMatrix in="SourceAlpha" type="matrix" values="0 0 0 0 0 0 0 0 0 0 0 0 0 0 0 0 0 0 127 0" result="hardAlpha"/>
<feMorphology radius="3" operator="erode" in="SourceAlpha" result="effect1_innerShadow_468_28955"/>
<feOffset/>
<feComposite in2="hardAlpha" operator="arithmetic" k2="-1" k3="1"/>
<feColorMatrix type="matrix" values="0 0 0 0 0 0 0 0 0 0 0 0 0 0 0 0 0 0 0.02 0"/>
<feBlend mode="normal" in2="shape" result="effect1_innerShadow_468_28955"/>
</filter>
</defs>
</svg>
