<svg width="45" height="44" viewBox="0 0 45 44" fill="none" xmlns="http://www.w3.org/2000/svg">
<g filter="url(#filter0_i_468_28958)">
<rect x="2.5" y="2" width="40" height="40" rx="20" fill="#F23E94" fill-opacity="0.1"/>
<rect x="1.5" y="1" width="42" height="42" rx="21" stroke="#FFFDFE" stroke-width="2"/>
<path d="M27 14H29C29.5304 14 30.0391 14.2107 30.4142 14.5858C30.7893 14.9609 31 15.4696 31 16V30C31 30.5304 30.7893 31.0391 30.4142 31.4142C30.0391 31.7893 29.5304 32 29 32H17C16.4696 32 15.9609 31.7893 15.5858 31.4142C15.2107 31.0391 15 30.5304 15 30V16C15 15.4696 15.2107 14.9609 15.5858 14.5858C15.9609 14.2107 16.4696 14 17 14H19M23 21H27M23 26H27M19 21H19.01M19 26H19.01M20 12H26C26.5523 12 27 12.4477 27 13V15C27 15.5523 26.5523 16 26 16H20C19.4477 16 19 15.5523 19 15V13C19 12.4477 19.4477 12 20 12Z" stroke="#F23E94" stroke-width="1.875" stroke-linecap="round" stroke-linejoin="round"/>
</g>
<defs>
<filter id="filter0_i_468_28958" x="0.5" y="0" width="44" height="44" filterUnits="userSpaceOnUse" color-interpolation-filters="sRGB">
<feFlood flood-opacity="0" result="BackgroundImageFix"/>
<feBlend mode="normal" in="SourceGraphic" in2="BackgroundImageFix" result="shape"/>
<feColorMatrix in="SourceAlpha" type="matrix" values="0 0 0 0 0 0 0 0 0 0 0 0 0 0 0 0 0 0 127 0" result="hardAlpha"/>
<feMorphology radius="3" operator="erode" in="SourceAlpha" result="effect1_innerShadow_468_28958"/>
<feOffset/>
<feComposite in2="hardAlpha" operator="arithmetic" k2="-1" k3="1"/>
<feColorMatrix type="matrix" values="0 0 0 0 0 0 0 0 0 0 0 0 0 0 0 0 0 0 0.02 0"/>
<feBlend mode="normal" in2="shape" result="effect1_innerShadow_468_28958"/>
</filter>
</defs>
</svg>
