<svg width="44" height="44" viewBox="0 0 44 44" fill="none" xmlns="http://www.w3.org/2000/svg">
<g filter="url(#filter0_i_468_28963)">
<rect x="2" y="2" width="40" height="40" rx="20" fill="#875BF7" fill-opacity="0.1"/>
<rect x="1" y="1" width="42" height="42" rx="21" stroke="#FFFDFE" stroke-width="2"/>
<path d="M22.5 30.0002H31.5M27 13.5002C27.3978 13.1024 27.9374 12.8789 28.5 12.8789C28.7786 12.8789 29.0544 12.9338 29.3118 13.0404C29.5692 13.147 29.803 13.3032 30 13.5002C30.197 13.6972 30.3532 13.9311 30.4598 14.1884C30.5665 14.4458 30.6213 14.7217 30.6213 15.0002C30.6213 15.2788 30.5665 15.5547 30.4598 15.812C30.3532 16.0694 30.197 16.3032 30 16.5002L17.5 29.0002L13.5 30.0002L14.5 26.0002L27 13.5002Z" stroke="#875BF7" stroke-width="1.875" stroke-linecap="round" stroke-linejoin="round"/>
</g>
<defs>
<filter id="filter0_i_468_28963" x="0" y="0" width="44" height="44" filterUnits="userSpaceOnUse" color-interpolation-filters="sRGB">
<feFlood flood-opacity="0" result="BackgroundImageFix"/>
<feBlend mode="normal" in="SourceGraphic" in2="BackgroundImageFix" result="shape"/>
<feColorMatrix in="SourceAlpha" type="matrix" values="0 0 0 0 0 0 0 0 0 0 0 0 0 0 0 0 0 0 127 0" result="hardAlpha"/>
<feMorphology radius="3" operator="erode" in="SourceAlpha" result="effect1_innerShadow_468_28963"/>
<feOffset/>
<feComposite in2="hardAlpha" operator="arithmetic" k2="-1" k3="1"/>
<feColorMatrix type="matrix" values="0 0 0 0 0 0 0 0 0 0 0 0 0 0 0 0 0 0 0.02 0"/>
<feBlend mode="normal" in2="shape" result="effect1_innerShadow_468_28963"/>
</filter>
</defs>
</svg>
