<svg width="45" height="44" viewBox="0 0 45 44" fill="none" xmlns="http://www.w3.org/2000/svg">
<g filter="url(#filter0_i_468_28969)">
<rect x="2.5" y="2" width="40" height="40" rx="20" fill="#FDB022" fill-opacity="0.1"/>
<rect x="1.5" y="1" width="42" height="42" rx="21" stroke="#FFFDFE" stroke-width="2"/>
<path d="M13 17L17.41 12.59C17.5961 12.4028 17.8173 12.2543 18.061 12.1531C18.3047 12.0518 18.5661 11.9998 18.83 12H27.17C27.4339 11.9998 27.6953 12.0518 27.939 12.1531C28.1827 12.2543 28.4039 12.4028 28.59 12.59L33 17M13 17H33M13 17V20C13 20.5304 13.2107 21.0391 13.5858 21.4142C13.9609 21.7893 14.4696 22 15 22M33 17V20C33 20.5304 32.7893 21.0391 32.4142 21.4142C32.0391 21.7893 31.5304 22 31 22M15 22V30C15 30.5304 15.2107 31.0391 15.5858 31.4142C15.9609 31.7893 16.4696 32 17 32H29C29.5304 32 30.0391 31.7893 30.4142 31.4142C30.7893 31.0391 31 30.5304 31 30V22M15 22C15.5843 21.9678 16.1423 21.7467 16.59 21.37C16.7093 21.2838 16.8528 21.2374 17 21.2374C17.1472 21.2374 17.2907 21.2838 17.41 21.37C17.8577 21.7467 18.4157 21.9678 19 22C19.5843 21.9678 20.1423 21.7467 20.59 21.37C20.7093 21.2838 20.8528 21.2374 21 21.2374C21.1472 21.2374 21.2907 21.2838 21.41 21.37C21.8577 21.7467 22.4157 21.9678 23 22C23.5843 21.9678 24.1423 21.7467 24.59 21.37C24.7093 21.2838 24.8528 21.2374 25 21.2374C25.1472 21.2374 25.2907 21.2838 25.41 21.37C25.8577 21.7467 26.4157 21.9678 27 22C27.5843 21.9678 28.1423 21.7467 28.59 21.37C28.7093 21.2838 28.8528 21.2374 29 21.2374C29.1472 21.2374 29.2907 21.2838 29.41 21.37C29.8577 21.7467 30.4157 21.9678 31 22M26 32V28C26 27.4696 25.7893 26.9609 25.4142 26.5858C25.0391 26.2107 24.5304 26 24 26H22C21.4696 26 20.9609 26.2107 20.5858 26.5858C20.2107 26.9609 20 27.4696 20 28V32" stroke="#F79009" stroke-width="1.875" stroke-linecap="round" stroke-linejoin="round"/>
</g>
<defs>
<filter id="filter0_i_468_28969" x="0.5" y="0" width="44" height="44" filterUnits="userSpaceOnUse" color-interpolation-filters="sRGB">
<feFlood flood-opacity="0" result="BackgroundImageFix"/>
<feBlend mode="normal" in="SourceGraphic" in2="BackgroundImageFix" result="shape"/>
<feColorMatrix in="SourceAlpha" type="matrix" values="0 0 0 0 0 0 0 0 0 0 0 0 0 0 0 0 0 0 127 0" result="hardAlpha"/>
<feMorphology radius="3" operator="erode" in="SourceAlpha" result="effect1_innerShadow_468_28969"/>
<feOffset/>
<feComposite in2="hardAlpha" operator="arithmetic" k2="-1" k3="1"/>
<feColorMatrix type="matrix" values="0 0 0 0 0 0 0 0 0 0 0 0 0 0 0 0 0 0 0.02 0"/>
<feBlend mode="normal" in2="shape" result="effect1_innerShadow_468_28969"/>
</filter>
</defs>
</svg>
