<svg width="1440" height="637" viewBox="0 0 1440 637" fill="none" xmlns="http://www.w3.org/2000/svg">
<g clip-path="url(#clip0_2007_1306)">
<path d="M-34.8158 468.111L-75 481H1452V52L1411.82 71.8464L1371.63 96.5033L1331.45 126.681L1291.26 131.113L1251.08 153.277L1210.89 126.681L1170.71 141.752L1130.53 137.319L1090.34 168.348L1050.16 214.502L1009.97 249.077L969.789 282.67L929.605 286.444L889.421 282.67L849.237 302.975L809.053 319.52L768.868 315.005L728.684 325.026L688.5 315.005L648.316 325.679L608.132 346.548L567.947 344.946L527.763 334.286L487.579 349.423L447.395 369.271L407.211 359.375L367.026 353.597L326.842 350.349L286.658 362.628L246.474 379.537L206.289 415.379L166.105 415.771L125.921 408.682L85.7368 416.741L45.5526 431.406L5.36842 462.394L-34.8158 468.111Z" fill="url(#paint0_radial_2007_1306)" fill-opacity="0.2"/>
<path d="M-75 481L-34.8158 468.111L5.36842 462.394L45.5526 431.406L85.7368 416.741L125.921 408.682L166.105 415.771L206.289 415.379L246.474 379.537L286.658 362.628L326.842 350.349L367.026 353.597L407.211 359.375L447.395 369.271L487.579 349.423L527.763 334.286L567.947 336.946L608.132 338.548L648.316 325.679L688.5 315.005L728.684 325.026L768.868 315.005L809.053 319.52L849.237 302.975L889.421 282.67L929.605 286.444L969.789 282.67L1009.97 249.077L1050.16 214.502L1090.34 168.348L1130.53 137.319L1170.71 141.752L1210.89 126.681L1251.08 153.277L1291.26 131.113L1331.45 126.681L1371.63 96.5033L1411.82 71.8464L1452 52" stroke="#E7E7E7" stroke-width="2" stroke-miterlimit="16"/>
<path d="M244 637L244 0" stroke="url(#paint1_linear_2007_1306)" stroke-width="1.5" stroke-dasharray="4 4"/>
<g filter="url(#filter0_dd_2007_1306)">
<path d="M239 382C239 379.239 241.239 377 244 377C246.761 377 249 379.239 249 382C249 384.761 246.761 387 244 387C241.239 387 239 384.761 239 382Z" fill="white"/>
</g>
<g filter="url(#filter1_dd_2007_1306)">
<path d="M124 214C124 208.477 128.477 204 134 204H354C359.523 204 364 208.477 364 214V254C364 259.523 359.523 264 354 264H134C128.477 264 124 259.523 124 254V214Z" fill="white"/>
<path opacity="0.5" d="M134.767 227V219.636H132.695V218.6H133.535C133.899 218.6 134.188 218.553 134.403 218.46C134.627 218.367 134.785 218.208 134.879 217.984C134.972 217.76 135.019 217.452 135.019 217.06H135.971V227H134.767ZM142.005 227.224C141.202 227.224 140.507 227.014 139.919 226.594C139.331 226.174 138.874 225.577 138.547 224.802C138.23 224.027 138.071 223.108 138.071 222.044C138.071 220.98 138.23 220.061 138.547 219.286C138.874 218.502 139.331 217.9 139.919 217.48C140.507 217.051 141.202 216.836 142.005 216.836C142.817 216.836 143.517 217.051 144.105 217.48C144.693 217.9 145.146 218.497 145.463 219.272C145.79 220.047 145.953 220.971 145.953 222.044C145.953 223.108 145.79 224.027 145.463 224.802C145.146 225.577 144.693 226.174 144.105 226.594C143.517 227.014 142.817 227.224 142.005 227.224ZM142.005 226.048C142.864 226.048 143.526 225.703 143.993 225.012C144.46 224.312 144.693 223.323 144.693 222.044C144.693 221.185 144.586 220.457 144.371 219.86C144.166 219.253 143.862 218.796 143.461 218.488C143.069 218.171 142.584 218.012 142.005 218.012C141.436 218.012 140.95 218.171 140.549 218.488C140.157 218.796 139.854 219.253 139.639 219.86C139.434 220.457 139.331 221.185 139.331 222.044C139.331 223.323 139.564 224.312 140.031 225.012C140.498 225.703 141.156 226.048 142.005 226.048ZM151.442 227V217.06H153.122L156.3 225.684L159.464 217.06H161.144V227H159.94V219.3L157.098 227H155.488L152.646 219.3V227H151.442ZM165.417 227.168C164.652 227.168 164.04 226.991 163.583 226.636C163.135 226.281 162.911 225.787 162.911 225.152C162.911 224.517 163.098 224.018 163.471 223.654C163.844 223.29 164.437 223.033 165.249 222.884L167.881 222.394C167.881 221.769 167.732 221.302 167.433 220.994C167.144 220.686 166.705 220.532 166.117 220.532C165.604 220.532 165.198 220.649 164.899 220.882C164.6 221.106 164.395 221.433 164.283 221.862L163.037 221.764C163.177 221.064 163.513 220.499 164.045 220.07C164.586 219.631 165.277 219.412 166.117 219.412C167.069 219.412 167.797 219.683 168.301 220.224C168.805 220.756 169.057 221.493 169.057 222.436V225.502C169.057 225.67 169.085 225.791 169.141 225.866C169.206 225.931 169.309 225.964 169.449 225.964H169.743V227C169.706 227.009 169.645 227.014 169.561 227.014C169.477 227.023 169.388 227.028 169.295 227.028C168.959 227.028 168.684 226.977 168.469 226.874C168.264 226.762 168.114 226.594 168.021 226.37C167.928 226.137 167.881 225.833 167.881 225.46L168.021 225.488C167.956 225.805 167.797 226.095 167.545 226.356C167.293 226.608 166.98 226.809 166.607 226.958C166.234 227.098 165.837 227.168 165.417 227.168ZM165.529 226.132C166.024 226.132 166.444 226.039 166.789 225.852C167.144 225.656 167.414 225.395 167.601 225.068C167.788 224.732 167.881 224.359 167.881 223.948V223.416L165.473 223.864C164.969 223.957 164.619 224.102 164.423 224.298C164.236 224.485 164.143 224.732 164.143 225.04C164.143 225.385 164.264 225.656 164.507 225.852C164.759 226.039 165.1 226.132 165.529 226.132ZM171.071 227V219.58H172.107L172.163 221.456L172.051 221.414C172.145 220.779 172.345 220.317 172.653 220.028C172.971 219.729 173.391 219.58 173.913 219.58H174.641V220.7H173.927C173.554 220.7 173.241 220.77 172.989 220.91C172.747 221.041 172.56 221.241 172.429 221.512C172.308 221.773 172.247 222.109 172.247 222.52V227H171.071ZM179.596 227C179.596 226.3 179.703 225.67 179.918 225.11C180.142 224.541 180.529 223.999 181.08 223.486C181.64 222.973 182.415 222.455 183.404 221.932C183.861 221.689 184.23 221.465 184.51 221.26C184.79 221.055 184.995 220.835 185.126 220.602C185.257 220.369 185.322 220.084 185.322 219.748C185.322 219.403 185.247 219.104 185.098 218.852C184.949 218.591 184.725 218.385 184.426 218.236C184.137 218.087 183.773 218.012 183.334 218.012C182.634 218.012 182.079 218.194 181.668 218.558C181.267 218.922 181.015 219.44 180.912 220.112L179.652 220.028C179.764 219.057 180.137 218.283 180.772 217.704C181.407 217.125 182.261 216.836 183.334 216.836C184.015 216.836 184.599 216.957 185.084 217.2C185.569 217.443 185.938 217.783 186.19 218.222C186.451 218.651 186.582 219.151 186.582 219.72C186.582 220.224 186.498 220.663 186.33 221.036C186.162 221.4 185.877 221.741 185.476 222.058C185.084 222.375 184.543 222.716 183.852 223.08C182.956 223.556 182.275 224.037 181.808 224.522C181.351 225.007 181.108 225.441 181.08 225.824H186.582V227H179.596ZM191.921 227.224C191.118 227.224 190.423 227.014 189.835 226.594C189.247 226.174 188.79 225.577 188.463 224.802C188.146 224.027 187.987 223.108 187.987 222.044C187.987 220.98 188.146 220.061 188.463 219.286C188.79 218.502 189.247 217.9 189.835 217.48C190.423 217.051 191.118 216.836 191.921 216.836C192.733 216.836 193.433 217.051 194.021 217.48C194.609 217.9 195.062 218.497 195.379 219.272C195.706 220.047 195.869 220.971 195.869 222.044C195.869 223.108 195.706 224.027 195.379 224.802C195.062 225.577 194.609 226.174 194.021 226.594C193.433 227.014 192.733 227.224 191.921 227.224ZM191.921 226.048C192.78 226.048 193.442 225.703 193.909 225.012C194.376 224.312 194.609 223.323 194.609 222.044C194.609 221.185 194.502 220.457 194.287 219.86C194.082 219.253 193.778 218.796 193.377 218.488C192.985 218.171 192.5 218.012 191.921 218.012C191.352 218.012 190.866 218.171 190.465 218.488C190.073 218.796 189.77 219.253 189.555 219.86C189.35 220.457 189.247 221.185 189.247 222.044C189.247 223.323 189.48 224.312 189.947 225.012C190.414 225.703 191.072 226.048 191.921 226.048ZM197.274 227C197.274 226.3 197.381 225.67 197.596 225.11C197.82 224.541 198.207 223.999 198.758 223.486C199.318 222.973 200.092 222.455 201.082 221.932C201.539 221.689 201.908 221.465 202.188 221.26C202.468 221.055 202.673 220.835 202.804 220.602C202.934 220.369 203 220.084 203 219.748C203 219.403 202.925 219.104 202.776 218.852C202.626 218.591 202.402 218.385 202.104 218.236C201.814 218.087 201.45 218.012 201.012 218.012C200.312 218.012 199.756 218.194 199.346 218.558C198.944 218.922 198.692 219.44 198.59 220.112L197.33 220.028C197.442 219.057 197.815 218.283 198.45 217.704C199.084 217.125 199.938 216.836 201.012 216.836C201.693 216.836 202.276 216.957 202.762 217.2C203.247 217.443 203.616 217.783 203.868 218.222C204.129 218.651 204.26 219.151 204.26 219.72C204.26 220.224 204.176 220.663 204.008 221.036C203.84 221.4 203.555 221.741 203.154 222.058C202.762 222.375 202.22 222.716 201.53 223.08C200.634 223.556 199.952 224.037 199.486 224.522C199.028 225.007 198.786 225.441 198.758 225.824H204.26V227H197.274ZM209.47 227.224C208.77 227.224 208.163 227.107 207.65 226.874C207.146 226.641 206.744 226.314 206.446 225.894C206.156 225.474 205.988 224.989 205.942 224.438L207.202 224.354C207.276 224.914 207.514 225.339 207.916 225.628C208.326 225.908 208.844 226.048 209.47 226.048C210.17 226.048 210.725 225.852 211.136 225.46C211.546 225.059 211.752 224.508 211.752 223.808C211.752 223.341 211.658 222.94 211.472 222.604C211.294 222.259 211.033 221.993 210.688 221.806C210.342 221.619 209.927 221.526 209.442 221.526C208.984 221.526 208.569 221.624 208.196 221.82C207.822 222.016 207.556 222.291 207.398 222.646H206.11L206.768 217.06H212.34V218.236H207.874L207.426 221.904L207.202 221.68C207.351 221.391 207.547 221.153 207.79 220.966C208.042 220.77 208.326 220.625 208.644 220.532C208.97 220.429 209.311 220.378 209.666 220.378C210.328 220.378 210.912 220.527 211.416 220.826C211.92 221.115 212.312 221.521 212.592 222.044C212.872 222.557 213.012 223.145 213.012 223.808C213.012 224.471 212.862 225.063 212.564 225.586C212.265 226.099 211.85 226.501 211.318 226.79C210.786 227.079 210.17 227.224 209.47 227.224Z" fill="#9E9E9E"/>
<g opacity="0.5">
<path d="M136.166 252.26V239.8H137.23V252.26H136.166ZM136.81 251.196C136.036 251.196 135.364 251.056 134.794 250.776C134.225 250.487 133.772 250.09 133.436 249.586C133.11 249.082 132.918 248.499 132.862 247.836L134.388 247.752C134.444 248.2 134.575 248.583 134.78 248.9C134.986 249.208 135.256 249.446 135.592 249.614C135.938 249.773 136.353 249.852 136.838 249.852C137.258 249.852 137.618 249.801 137.916 249.698C138.215 249.586 138.439 249.427 138.588 249.222C138.747 249.017 138.826 248.76 138.826 248.452C138.826 248.172 138.761 247.929 138.63 247.724C138.5 247.509 138.248 247.313 137.874 247.136C137.501 246.949 136.955 246.772 136.236 246.604C135.462 246.417 134.841 246.207 134.374 245.974C133.908 245.741 133.572 245.456 133.366 245.12C133.17 244.775 133.072 244.345 133.072 243.832C133.072 243.281 133.208 242.796 133.478 242.376C133.749 241.947 134.132 241.615 134.626 241.382C135.13 241.139 135.732 241.018 136.432 241.018C137.179 241.018 137.814 241.153 138.336 241.424C138.868 241.695 139.288 242.068 139.596 242.544C139.904 243.02 140.096 243.566 140.17 244.182L138.644 244.266C138.598 243.902 138.481 243.575 138.294 243.286C138.117 242.997 137.87 242.773 137.552 242.614C137.235 242.446 136.852 242.362 136.404 242.362C135.844 242.362 135.401 242.493 135.074 242.754C134.748 243.015 134.584 243.361 134.584 243.79C134.584 244.07 134.65 244.303 134.78 244.49C134.92 244.677 135.158 244.84 135.494 244.98C135.84 245.12 136.33 245.265 136.964 245.414C137.804 245.61 138.472 245.848 138.966 246.128C139.461 246.399 139.816 246.721 140.03 247.094C140.245 247.467 140.352 247.892 140.352 248.368C140.352 248.947 140.203 249.451 139.904 249.88C139.606 250.3 139.19 250.627 138.658 250.86C138.126 251.084 137.51 251.196 136.81 251.196ZM145.569 251.224C144.785 251.224 144.122 251.051 143.581 250.706C143.039 250.351 142.629 249.843 142.349 249.18C142.069 248.508 141.929 247.696 141.929 246.744C141.929 245.913 141.999 245.143 142.139 244.434C142.288 243.715 142.521 243.09 142.839 242.558C143.156 242.017 143.567 241.597 144.071 241.298C144.584 240.99 145.205 240.836 145.933 240.836C146.847 240.836 147.561 241.06 148.075 241.508C148.588 241.947 148.943 242.535 149.139 243.272L147.641 243.398C147.529 243.034 147.342 242.745 147.081 242.53C146.829 242.315 146.446 242.208 145.933 242.208C145.167 242.208 144.565 242.535 144.127 243.188C143.688 243.841 143.455 244.84 143.427 246.184L143.161 246.128C143.263 245.811 143.436 245.521 143.679 245.26C143.921 244.989 144.225 244.775 144.589 244.616C144.962 244.448 145.387 244.364 145.863 244.364C146.525 244.364 147.104 244.504 147.599 244.784C148.103 245.055 148.49 245.442 148.761 245.946C149.041 246.45 149.181 247.038 149.181 247.71C149.181 248.438 149.027 249.068 148.719 249.6C148.411 250.123 147.986 250.524 147.445 250.804C146.903 251.084 146.278 251.224 145.569 251.224ZM145.583 249.88C146.189 249.88 146.679 249.689 147.053 249.306C147.435 248.914 147.627 248.382 147.627 247.71C147.627 247.29 147.543 246.926 147.375 246.618C147.216 246.301 146.987 246.058 146.689 245.89C146.399 245.722 146.063 245.638 145.681 245.638C145.261 245.638 144.887 245.722 144.561 245.89C144.234 246.058 143.977 246.301 143.791 246.618C143.604 246.926 143.511 247.29 143.511 247.71C143.511 248.13 143.595 248.503 143.763 248.83C143.931 249.157 144.169 249.413 144.477 249.6C144.794 249.787 145.163 249.88 145.583 249.88ZM154.469 251.224C153.732 251.224 153.102 251.107 152.579 250.874C152.056 250.631 151.646 250.295 151.347 249.866C151.048 249.437 150.876 248.942 150.829 248.382L152.383 248.284C152.458 248.807 152.677 249.199 153.041 249.46C153.414 249.712 153.89 249.838 154.469 249.838C155.122 249.838 155.636 249.656 156.009 249.292C156.392 248.928 156.583 248.419 156.583 247.766C156.583 247.337 156.494 246.968 156.317 246.66C156.149 246.343 155.906 246.1 155.589 245.932C155.272 245.755 154.894 245.666 154.455 245.666C154.016 245.666 153.624 245.759 153.279 245.946C152.934 246.133 152.686 246.389 152.537 246.716H150.969L151.641 241.06H157.465V242.446H152.985L152.565 245.848L152.327 245.638C152.486 245.358 152.686 245.129 152.929 244.952C153.172 244.765 153.452 244.625 153.769 244.532C154.096 244.429 154.441 244.378 154.805 244.378C155.477 244.378 156.06 244.523 156.555 244.812C157.059 245.101 157.451 245.503 157.731 246.016C158.011 246.529 158.151 247.113 158.151 247.766C158.151 248.447 157.997 249.049 157.689 249.572C157.381 250.095 156.952 250.501 156.401 250.79C155.85 251.079 155.206 251.224 154.469 251.224ZM159.63 253.198L160.33 251H159.56V249.236H161.366V250.79L160.484 253.198H159.63ZM166.334 251.224C165.578 251.224 164.911 251.112 164.332 250.888C163.753 250.664 163.301 250.333 162.974 249.894C162.657 249.455 162.498 248.919 162.498 248.284C162.498 247.556 162.717 246.954 163.156 246.478C163.595 246.002 164.183 245.685 164.92 245.526L164.948 245.806C164.351 245.666 163.87 245.409 163.506 245.036C163.151 244.663 162.974 244.173 162.974 243.566C162.974 243.034 163.109 242.563 163.38 242.152C163.651 241.741 164.033 241.419 164.528 241.186C165.032 240.953 165.634 240.836 166.334 240.836C167.025 240.836 167.622 240.953 168.126 241.186C168.63 241.419 169.013 241.741 169.274 242.152C169.545 242.563 169.68 243.034 169.68 243.566C169.68 244.173 169.503 244.663 169.148 245.036C168.793 245.4 168.313 245.657 167.706 245.806L167.734 245.526C168.481 245.685 169.073 246.002 169.512 246.478C169.951 246.954 170.17 247.556 170.17 248.284C170.17 248.919 170.007 249.455 169.68 249.894C169.363 250.333 168.915 250.664 168.336 250.888C167.757 251.112 167.09 251.224 166.334 251.224ZM166.334 249.838C167.025 249.838 167.571 249.698 167.972 249.418C168.383 249.129 168.588 248.699 168.588 248.13C168.588 247.589 168.401 247.155 168.028 246.828C167.664 246.501 167.099 246.338 166.334 246.338C165.569 246.338 164.999 246.501 164.626 246.828C164.253 247.155 164.066 247.589 164.066 248.13C164.066 248.699 164.271 249.129 164.682 249.418C165.093 249.698 165.643 249.838 166.334 249.838ZM166.334 245.092C166.903 245.092 167.342 244.975 167.65 244.742C167.967 244.499 168.126 244.131 168.126 243.636C168.126 243.207 167.972 242.861 167.664 242.6C167.365 242.339 166.922 242.208 166.334 242.208C165.746 242.208 165.298 242.339 164.99 242.6C164.682 242.861 164.528 243.207 164.528 243.636C164.528 244.131 164.687 244.499 165.004 244.742C165.321 244.975 165.765 245.092 166.334 245.092ZM173.348 251V243.916H171.248V242.698H172.102C172.475 242.698 172.779 242.651 173.012 242.558C173.245 242.455 173.413 242.287 173.516 242.054C173.619 241.811 173.67 241.48 173.67 241.06H174.86V251H173.348ZM180.772 251.224C180.016 251.224 179.348 251.112 178.77 250.888C178.191 250.664 177.738 250.333 177.412 249.894C177.094 249.455 176.936 248.919 176.936 248.284C176.936 247.556 177.155 246.954 177.594 246.478C178.032 246.002 178.62 245.685 179.358 245.526L179.386 245.806C178.788 245.666 178.308 245.409 177.944 245.036C177.589 244.663 177.412 244.173 177.412 243.566C177.412 243.034 177.547 242.563 177.818 242.152C178.088 241.741 178.471 241.419 178.966 241.186C179.47 240.953 180.072 240.836 180.772 240.836C181.462 240.836 182.06 240.953 182.564 241.186C183.068 241.419 183.45 241.741 183.712 242.152C183.982 242.563 184.118 243.034 184.118 243.566C184.118 244.173 183.94 244.663 183.586 245.036C183.231 245.4 182.75 245.657 182.144 245.806L182.172 245.526C182.918 245.685 183.511 246.002 183.95 246.478C184.388 246.954 184.608 247.556 184.608 248.284C184.608 248.919 184.444 249.455 184.118 249.894C183.8 250.333 183.352 250.664 182.774 250.888C182.195 251.112 181.528 251.224 180.772 251.224ZM180.772 249.838C181.462 249.838 182.008 249.698 182.41 249.418C182.82 249.129 183.026 248.699 183.026 248.13C183.026 247.589 182.839 247.155 182.466 246.828C182.102 246.501 181.537 246.338 180.772 246.338C180.006 246.338 179.437 246.501 179.064 246.828C178.69 247.155 178.504 247.589 178.504 248.13C178.504 248.699 178.709 249.129 179.12 249.418C179.53 249.698 180.081 249.838 180.772 249.838ZM180.772 245.092C181.341 245.092 181.78 244.975 182.088 244.742C182.405 244.499 182.564 244.131 182.564 243.636C182.564 243.207 182.41 242.861 182.102 242.6C181.803 242.339 181.36 242.208 180.772 242.208C180.184 242.208 179.736 242.339 179.428 242.6C179.12 242.861 178.966 243.207 178.966 243.636C178.966 244.131 179.124 244.499 179.442 244.742C179.759 244.975 180.202 245.092 180.772 245.092ZM185.728 251V249.236H187.534V251H185.728ZM193.524 251V248.928H188.512V247.64L193.342 241.06H195.036V247.556H196.254V248.928H195.036V251H193.524ZM190.234 247.556H193.524V243.16L190.234 247.556ZM201.391 251.224C200.653 251.224 200.023 251.107 199.501 250.874C198.978 250.631 198.567 250.295 198.269 249.866C197.97 249.437 197.797 248.942 197.751 248.382L199.305 248.284C199.379 248.807 199.599 249.199 199.963 249.46C200.336 249.712 200.812 249.838 201.391 249.838C202.044 249.838 202.557 249.656 202.931 249.292C203.313 248.928 203.505 248.419 203.505 247.766C203.505 247.337 203.416 246.968 203.239 246.66C203.071 246.343 202.828 246.1 202.511 245.932C202.193 245.755 201.815 245.666 201.377 245.666C200.938 245.666 200.546 245.759 200.201 245.946C199.855 246.133 199.608 246.389 199.459 246.716H197.891L198.563 241.06H204.387V242.446H199.907L199.487 245.848L199.249 245.638C199.407 245.358 199.608 245.129 199.851 244.952C200.093 244.765 200.373 244.625 200.691 244.532C201.017 244.429 201.363 244.378 201.727 244.378C202.399 244.378 202.982 244.523 203.477 244.812C203.981 245.101 204.373 245.503 204.653 246.016C204.933 246.529 205.073 247.113 205.073 247.766C205.073 248.447 204.919 249.049 204.611 249.572C204.303 250.095 203.873 250.501 203.323 250.79C202.772 251.079 202.128 251.224 201.391 251.224Z" fill="#2E2E2E" fill-opacity="0.8"/>
<path d="M227.97 247.556V246.268H234.718V247.556H227.97ZM230.7 250.286V243.538H231.988V250.286H230.7ZM239.206 252.26V239.786H240.284V252.26H239.206ZM239.864 251.196C239.146 251.196 238.516 251.056 237.974 250.776C237.442 250.487 237.018 250.085 236.7 249.572C236.383 249.059 236.196 248.457 236.14 247.766L237.624 247.668C237.69 248.144 237.82 248.545 238.016 248.872C238.212 249.199 238.469 249.446 238.786 249.614C239.104 249.773 239.477 249.852 239.906 249.852C240.345 249.852 240.709 249.801 240.998 249.698C241.288 249.586 241.507 249.427 241.656 249.222C241.806 249.017 241.88 248.769 241.88 248.48C241.88 248.181 241.81 247.929 241.67 247.724C241.54 247.509 241.288 247.318 240.914 247.15C240.541 246.982 239.99 246.805 239.262 246.618C238.6 246.441 238.054 246.231 237.624 245.988C237.195 245.736 236.878 245.433 236.672 245.078C236.476 244.723 236.378 244.308 236.378 243.832C236.378 243.263 236.509 242.773 236.77 242.362C237.041 241.942 237.424 241.62 237.918 241.396C238.413 241.163 239.01 241.046 239.71 241.046C240.401 241.046 240.989 241.177 241.474 241.438C241.969 241.69 242.356 242.049 242.636 242.516C242.926 242.983 243.103 243.533 243.168 244.168L241.684 244.252C241.638 243.869 241.535 243.538 241.376 243.258C241.218 242.978 240.998 242.763 240.718 242.614C240.438 242.465 240.088 242.39 239.668 242.39C239.09 242.39 238.637 242.511 238.31 242.754C237.984 242.997 237.82 243.333 237.82 243.762C237.82 244.051 237.886 244.289 238.016 244.476C238.147 244.663 238.376 244.831 238.702 244.98C239.029 245.12 239.496 245.274 240.102 245.442C240.905 245.657 241.54 245.899 242.006 246.17C242.482 246.431 242.823 246.749 243.028 247.122C243.234 247.486 243.336 247.939 243.336 248.48C243.336 249.021 243.192 249.497 242.902 249.908C242.613 250.319 242.207 250.636 241.684 250.86C241.171 251.084 240.564 251.196 239.864 251.196ZM248.049 251.224C246.957 251.224 246.121 250.963 245.543 250.44C244.964 249.917 244.651 249.231 244.605 248.382L246.103 248.284C246.159 248.853 246.364 249.259 246.719 249.502C247.083 249.735 247.531 249.852 248.063 249.852C248.427 249.852 248.767 249.796 249.085 249.684C249.402 249.572 249.654 249.395 249.841 249.152C250.037 248.909 250.135 248.583 250.135 248.172C250.135 247.771 250.046 247.439 249.869 247.178C249.701 246.917 249.458 246.725 249.141 246.604C248.833 246.473 248.478 246.408 248.077 246.408H247.307V245.092H248.077C248.394 245.092 248.683 245.045 248.945 244.952C249.206 244.859 249.411 244.705 249.561 244.49C249.719 244.275 249.799 244 249.799 243.664C249.799 243.179 249.649 242.815 249.351 242.572C249.061 242.329 248.646 242.208 248.105 242.208C247.545 242.208 247.12 242.325 246.831 242.558C246.551 242.791 246.378 243.113 246.313 243.524L244.801 243.426C244.903 242.651 245.235 242.026 245.795 241.55C246.364 241.074 247.139 240.836 248.119 240.836C248.772 240.836 249.337 240.948 249.813 241.172C250.298 241.387 250.671 241.695 250.933 242.096C251.194 242.497 251.325 242.978 251.325 243.538C251.325 244.154 251.129 244.653 250.737 245.036C250.354 245.409 249.794 245.666 249.057 245.806V245.54C249.859 245.633 250.494 245.923 250.961 246.408C251.427 246.884 251.661 247.486 251.661 248.214C251.661 248.849 251.507 249.39 251.199 249.838C250.9 250.286 250.475 250.631 249.925 250.874C249.383 251.107 248.758 251.224 248.049 251.224ZM256.499 240.836C257.265 240.836 257.913 241.009 258.445 241.354C258.987 241.699 259.393 242.203 259.663 242.866C259.943 243.529 260.083 244.336 260.083 245.288C260.083 246.109 260.013 246.879 259.873 247.598C259.733 248.317 259.509 248.947 259.201 249.488C258.893 250.029 258.487 250.454 257.983 250.762C257.479 251.07 256.859 251.224 256.121 251.224C255.505 251.224 254.987 251.126 254.567 250.93C254.157 250.725 253.821 250.44 253.559 250.076C253.307 249.712 253.116 249.297 252.985 248.83L254.497 248.704C254.6 249.049 254.773 249.329 255.015 249.544C255.267 249.749 255.636 249.852 256.121 249.852C256.625 249.852 257.059 249.707 257.423 249.418C257.787 249.129 258.067 248.69 258.263 248.102C258.469 247.514 258.581 246.763 258.599 245.848L258.963 245.904C258.87 246.231 258.697 246.534 258.445 246.814C258.193 247.094 257.881 247.323 257.507 247.5C257.134 247.668 256.705 247.752 256.219 247.752C255.566 247.752 254.997 247.617 254.511 247.346C254.026 247.066 253.648 246.674 253.377 246.17C253.107 245.657 252.971 245.064 252.971 244.392C252.971 243.655 253.121 243.025 253.419 242.502C253.718 241.97 254.129 241.559 254.651 241.27C255.183 240.981 255.799 240.836 256.499 240.836ZM256.499 242.222C255.883 242.222 255.393 242.409 255.029 242.782C254.675 243.155 254.497 243.683 254.497 244.364C254.497 244.989 254.665 245.489 255.001 245.862C255.347 246.235 255.809 246.422 256.387 246.422C256.807 246.422 257.176 246.338 257.493 246.17C257.82 246.002 258.072 245.764 258.249 245.456C258.436 245.148 258.529 244.784 258.529 244.364C258.529 243.953 258.445 243.585 258.277 243.258C258.119 242.931 257.885 242.679 257.577 242.502C257.279 242.315 256.919 242.222 256.499 242.222ZM265.958 251V248.9H261.226V247.626L265.804 241.06H267.428V247.542H268.618V248.9H267.428V251H265.958ZM262.668 247.542H265.958V243.02L262.668 247.542ZM272.364 251V249.152H274.268V251H272.364ZM281.683 240.836C282.448 240.836 283.097 241.009 283.629 241.354C284.17 241.699 284.576 242.203 284.847 242.866C285.127 243.529 285.267 244.336 285.267 245.288C285.267 246.109 285.197 246.879 285.057 247.598C284.917 248.317 284.693 248.947 284.385 249.488C284.077 250.029 283.671 250.454 283.167 250.762C282.663 251.07 282.042 251.224 281.305 251.224C280.689 251.224 280.171 251.126 279.751 250.93C279.34 250.725 279.004 250.44 278.743 250.076C278.491 249.712 278.3 249.297 278.169 248.83L279.681 248.704C279.784 249.049 279.956 249.329 280.199 249.544C280.451 249.749 280.82 249.852 281.305 249.852C281.809 249.852 282.243 249.707 282.607 249.418C282.971 249.129 283.251 248.69 283.447 248.102C283.652 247.514 283.764 246.763 283.783 245.848L284.147 245.904C284.054 246.231 283.881 246.534 283.629 246.814C283.377 247.094 283.064 247.323 282.691 247.5C282.318 247.668 281.888 247.752 281.403 247.752C280.75 247.752 280.18 247.617 279.695 247.346C279.21 247.066 278.832 246.674 278.561 246.17C278.29 245.657 278.155 245.064 278.155 244.392C278.155 243.655 278.304 243.025 278.603 242.502C278.902 241.97 279.312 241.559 279.835 241.27C280.367 240.981 280.983 240.836 281.683 240.836ZM281.683 242.222C281.067 242.222 280.577 242.409 280.213 242.782C279.858 243.155 279.681 243.683 279.681 244.364C279.681 244.989 279.849 245.489 280.185 245.862C280.53 246.235 280.992 246.422 281.571 246.422C281.991 246.422 282.36 246.338 282.677 246.17C283.004 246.002 283.256 245.764 283.433 245.456C283.62 245.148 283.713 244.784 283.713 244.364C283.713 243.953 283.629 243.585 283.461 243.258C283.302 242.931 283.069 242.679 282.761 242.502C282.462 242.315 282.103 242.222 281.683 242.222ZM289.727 251V243.916H287.179V242.67H288.439C288.803 242.67 289.097 242.619 289.321 242.516C289.545 242.404 289.709 242.231 289.811 241.998C289.914 241.765 289.965 241.452 289.965 241.06H291.197V251H289.727ZM286.689 251V249.614H293.521V251H286.689ZM301.603 252.54C300.959 251.56 300.473 250.566 300.147 249.558C299.829 248.55 299.671 247.537 299.671 246.52C299.671 244.457 300.315 242.451 301.603 240.5H302.919C301.752 242.516 301.169 244.523 301.169 246.52C301.169 247.519 301.313 248.522 301.603 249.53C301.901 250.529 302.34 251.532 302.919 252.54H301.603ZM306.315 247.556V246.268H313.063V247.556H306.315ZM309.045 250.286V243.538H310.333V250.286H309.045ZM315.62 249.516L319.428 242.474L320.548 242.544L316.74 249.586L315.62 249.516ZM318.084 251.224C317.356 251.224 316.726 251.014 316.194 250.594C315.662 250.174 315.256 249.577 314.976 248.802C314.696 248.027 314.556 247.108 314.556 246.044C314.556 244.971 314.696 244.047 314.976 243.272C315.256 242.497 315.662 241.9 316.194 241.48C316.726 241.051 317.356 240.836 318.084 240.836C318.821 240.836 319.451 241.051 319.974 241.48C320.506 241.9 320.912 242.497 321.192 243.272C321.472 244.047 321.612 244.971 321.612 246.044C321.612 247.108 321.472 248.027 321.192 248.802C320.912 249.577 320.506 250.174 319.974 250.594C319.451 251.014 318.821 251.224 318.084 251.224ZM318.084 249.852C318.504 249.852 318.858 249.703 319.148 249.404C319.446 249.096 319.675 248.657 319.834 248.088C320.002 247.519 320.086 246.837 320.086 246.044C320.086 245.232 320.002 244.541 319.834 243.972C319.675 243.403 319.446 242.969 319.148 242.67C318.858 242.362 318.504 242.208 318.084 242.208C317.673 242.208 317.318 242.362 317.02 242.67C316.721 242.969 316.488 243.403 316.32 243.972C316.161 244.541 316.082 245.232 316.082 246.044C316.082 246.837 316.161 247.519 316.32 248.088C316.488 248.657 316.721 249.096 317.02 249.404C317.318 249.703 317.673 249.852 318.084 249.852ZM325.526 251V249.152H327.43V251H325.526ZM334.901 251.224C334.135 251.224 333.482 251.051 332.941 250.706C332.409 250.361 332.003 249.857 331.723 249.194C331.452 248.522 331.317 247.715 331.317 246.772C331.317 245.951 331.387 245.181 331.527 244.462C331.667 243.743 331.891 243.113 332.199 242.572C332.507 242.031 332.913 241.606 333.417 241.298C333.921 240.99 334.541 240.836 335.279 240.836C335.895 240.836 336.408 240.939 336.819 241.144C337.239 241.34 337.575 241.62 337.827 241.984C338.088 242.348 338.284 242.763 338.415 243.23L336.903 243.356C336.809 243.011 336.637 242.735 336.385 242.53C336.142 242.315 335.773 242.208 335.279 242.208C334.775 242.208 334.341 242.353 333.977 242.642C333.622 242.931 333.342 243.37 333.137 243.958C332.931 244.546 332.819 245.297 332.801 246.212L332.437 246.156C332.539 245.829 332.712 245.526 332.955 245.246C333.207 244.966 333.519 244.742 333.893 244.574C334.266 244.397 334.695 244.308 335.181 244.308C335.843 244.308 336.413 244.448 336.889 244.728C337.374 244.999 337.752 245.391 338.023 245.904C338.293 246.408 338.429 246.996 338.429 247.668C338.429 248.405 338.279 249.04 337.981 249.572C337.682 250.095 337.271 250.501 336.749 250.79C336.226 251.079 335.61 251.224 334.901 251.224ZM334.901 249.838C335.517 249.838 336.002 249.651 336.357 249.278C336.721 248.905 336.903 248.377 336.903 247.696C336.903 247.061 336.735 246.562 336.399 246.198C336.063 245.825 335.601 245.638 335.013 245.638C334.593 245.638 334.219 245.722 333.893 245.89C333.575 246.058 333.323 246.296 333.137 246.604C332.959 246.912 332.871 247.276 332.871 247.696C332.871 248.107 332.95 248.475 333.109 248.802C333.277 249.129 333.515 249.385 333.823 249.572C334.131 249.749 334.49 249.838 334.901 249.838ZM341.209 245.876C340.64 245.876 340.159 245.666 339.767 245.246C339.375 244.826 339.179 244.215 339.179 243.412C339.179 242.6 339.375 241.989 339.767 241.578C340.159 241.158 340.64 240.948 341.209 240.948C341.788 240.948 342.269 241.158 342.651 241.578C343.043 241.989 343.239 242.6 343.239 243.412C343.239 244.215 343.043 244.826 342.651 245.246C342.269 245.666 341.788 245.876 341.209 245.876ZM341.209 244.938C341.489 244.938 341.709 244.807 341.867 244.546C342.035 244.285 342.119 243.907 342.119 243.412C342.119 242.917 342.035 242.539 341.867 242.278C341.709 242.017 341.489 241.886 341.209 241.886C340.929 241.886 340.705 242.017 340.537 242.278C340.379 242.539 340.299 242.917 340.299 243.412C340.299 243.907 340.379 244.285 340.537 244.546C340.705 244.807 340.929 244.938 341.209 244.938ZM339.753 251L345.647 241.06H346.781L340.887 251H339.753ZM345.325 251.112C344.747 251.112 344.261 250.902 343.869 250.482C343.487 250.062 343.295 249.451 343.295 248.648C343.295 247.836 343.487 247.225 343.869 246.814C344.261 246.394 344.747 246.184 345.325 246.184C345.895 246.184 346.375 246.394 346.767 246.814C347.159 247.225 347.355 247.836 347.355 248.648C347.355 249.451 347.159 250.062 346.767 250.482C346.375 250.902 345.895 251.112 345.325 251.112ZM345.325 250.174C345.605 250.174 345.825 250.043 345.983 249.782C346.151 249.521 346.235 249.143 346.235 248.648C346.235 248.153 346.151 247.775 345.983 247.514C345.825 247.253 345.605 247.122 345.325 247.122C345.045 247.122 344.821 247.253 344.653 247.514C344.495 247.775 344.415 248.153 344.415 248.648C344.415 249.143 344.495 249.521 344.653 249.782C344.821 250.043 345.045 250.174 345.325 250.174ZM351.354 252.54H350.038C350.616 251.532 351.05 250.529 351.34 249.53C351.638 248.522 351.788 247.519 351.788 246.52C351.788 244.523 351.204 242.516 350.038 240.5H351.354C352.642 242.451 353.286 244.457 353.286 246.52C353.286 247.537 353.122 248.55 352.796 249.558C352.478 250.566 351.998 251.56 351.354 252.54Z" fill="#2E2E2E" fill-opacity="0.8"/>
</g>
</g>
</g>
<defs>
<filter id="filter0_dd_2007_1306" x="238" y="370" width="12" height="18" filterUnits="userSpaceOnUse" color-interpolation-filters="sRGB">
<feFlood flood-opacity="0" result="BackgroundImageFix"/>
<feColorMatrix in="SourceAlpha" type="matrix" values="0 0 0 0 0 0 0 0 0 0 0 0 0 0 0 0 0 0 127 0" result="hardAlpha"/>
<feMorphology radius="1" operator="dilate" in="SourceAlpha" result="effect1_dropShadow_2007_1306"/>
<feOffset/>
<feComposite in2="hardAlpha" operator="out"/>
<feColorMatrix type="matrix" values="0 0 0 0 0 0 0 0 0 0 0 0 0 0 0 0 0 0 0.1 0"/>
<feBlend mode="normal" in2="BackgroundImageFix" result="effect1_dropShadow_2007_1306"/>
<feColorMatrix in="SourceAlpha" type="matrix" values="0 0 0 0 0 0 0 0 0 0 0 0 0 0 0 0 0 0 127 0" result="hardAlpha"/>
<feMorphology radius="5" operator="erode" in="SourceAlpha" result="effect2_dropShadow_2007_1306"/>
<feOffset dy="-6"/>
<feGaussianBlur stdDeviation="3"/>
<feComposite in2="hardAlpha" operator="out"/>
<feColorMatrix type="matrix" values="0 0 0 0 0.119271 0 0 0 0 0.119271 0 0 0 0 0.119271 0 0 0 0.08 0"/>
<feBlend mode="normal" in2="effect1_dropShadow_2007_1306" result="effect2_dropShadow_2007_1306"/>
<feBlend mode="normal" in="SourceGraphic" in2="effect2_dropShadow_2007_1306" result="shape"/>
</filter>
<filter id="filter1_dd_2007_1306" x="112" y="192" width="264" height="84" filterUnits="userSpaceOnUse" color-interpolation-filters="sRGB">
<feFlood flood-opacity="0" result="BackgroundImageFix"/>
<feColorMatrix in="SourceAlpha" type="matrix" values="0 0 0 0 0 0 0 0 0 0 0 0 0 0 0 0 0 0 127 0" result="hardAlpha"/>
<feMorphology radius="1" operator="dilate" in="SourceAlpha" result="effect1_dropShadow_2007_1306"/>
<feOffset/>
<feComposite in2="hardAlpha" operator="out"/>
<feColorMatrix type="matrix" values="0 0 0 0 0.0431373 0 0 0 0 0.0431373 0 0 0 0 0.0431373 0 0 0 0.05 0"/>
<feBlend mode="normal" in2="BackgroundImageFix" result="effect1_dropShadow_2007_1306"/>
<feColorMatrix in="SourceAlpha" type="matrix" values="0 0 0 0 0 0 0 0 0 0 0 0 0 0 0 0 0 0 127 0" result="hardAlpha"/>
<feOffset dy="1"/>
<feGaussianBlur stdDeviation="3"/>
<feComposite in2="hardAlpha" operator="out"/>
<feColorMatrix type="matrix" values="0 0 0 0 0.0431373 0 0 0 0 0.0431373 0 0 0 0 0.0431373 0 0 0 0.06 0"/>
<feBlend mode="normal" in2="effect1_dropShadow_2007_1306" result="effect2_dropShadow_2007_1306"/>
<feBlend mode="normal" in="SourceGraphic" in2="effect2_dropShadow_2007_1306" result="shape"/>
</filter>
<radialGradient id="paint0_radial_2007_1306" cx="0" cy="0" r="1" gradientUnits="userSpaceOnUse" gradientTransform="translate(1137.18 205.263) rotate(132.31) scale(517.2 1355.5)">
<stop stop-color="#E7E7E7"/>
<stop offset="0.0666667" stop-color="#E7E7E7"/>
<stop offset="0.133333" stop-color="#E8E8E8"/>
<stop offset="0.2" stop-color="#E9E9E9"/>
<stop offset="0.266667" stop-color="#EAEAEA"/>
<stop offset="0.333333" stop-color="#EBEBEB"/>
<stop offset="0.4" stop-color="#EDEDED"/>
<stop offset="0.466667" stop-color="#EFEFEF"/>
<stop offset="0.533333" stop-color="#F2F2F2"/>
<stop offset="0.6" stop-color="#F4F4F4"/>
<stop offset="0.666667" stop-color="#F6F6F6"/>
<stop offset="0.733333" stop-color="#F7F7F7"/>
<stop offset="0.8" stop-color="#F8F8F8"/>
<stop offset="0.866667" stop-color="#F9F9F9"/>
<stop offset="0.933333" stop-color="#FAFAFA"/>
<stop offset="1" stop-color="#FAFAFA"/>
</radialGradient>
<linearGradient id="paint1_linear_2007_1306" x1="244.5" y1="-2.18557e-08" x2="244.5" y2="504.5" gradientUnits="userSpaceOnUse">
<stop stop-color="#E7E7E7" stop-opacity="0"/>
<stop offset="0.17061" stop-color="#E7E7E7"/>
<stop offset="0.85" stop-color="#E7E7E7"/>
<stop offset="1" stop-color="#E7E7E7" stop-opacity="0"/>
</linearGradient>
<clipPath id="clip0_2007_1306">
<rect width="1440" height="637" fill="white"/>
</clipPath>
</defs>
</svg>
