<svg width="20" height="20" viewBox="0 0 20 20" fill="none" xmlns="http://www.w3.org/2000/svg">
<mask id="mask0_468_33902" style="mask-type:luminance" maskUnits="userSpaceOnUse" x="0" y="2" width="20" height="16">
<path d="M19.9848 2.25977H0V17.741H19.9848V2.25977Z" fill="white"/>
</mask>
<g mask="url(#mask0_468_33902)">
<path d="M16.918 3.63772C15.6443 3.05326 14.2783 2.62266 12.8502 2.37603C12.8242 2.37127 12.7982 2.38317 12.7848 2.40696C12.6091 2.7194 12.4145 3.12701 12.2783 3.44739C10.7422 3.21742 9.214 3.21742 7.70942 3.44739C7.57313 3.11989 7.37148 2.7194 7.19502 2.40696C7.18163 2.38396 7.15565 2.37207 7.12964 2.37603C5.70227 2.62187 4.33635 3.05247 3.06179 3.63772C3.05076 3.64248 3.0413 3.65041 3.03502 3.66072C0.444156 7.53142 -0.265591 11.307 0.0825875 15.0357C0.0841629 15.054 0.0944033 15.0714 0.108583 15.0825C1.81796 16.3378 3.47379 17.0999 5.09887 17.6051C5.12488 17.613 5.15243 17.6035 5.16898 17.5821C5.5534 17.0571 5.89607 16.5036 6.18987 15.9215C6.20721 15.8874 6.19066 15.847 6.15522 15.8335C5.61169 15.6273 5.09414 15.3759 4.59629 15.0904C4.55691 15.0674 4.55376 15.0111 4.58999 14.9842C4.69475 14.9057 4.79954 14.824 4.89958 14.7415C4.91768 14.7264 4.9429 14.7233 4.96418 14.7328C8.23483 16.226 11.7757 16.226 15.0078 14.7328C15.029 14.7225 15.0543 14.7257 15.0731 14.7407C15.1732 14.8232 15.278 14.9057 15.3835 14.9842C15.4197 15.0111 15.4174 15.0674 15.378 15.0904C14.8802 15.3815 14.3626 15.6273 13.8183 15.8327C13.7828 15.8462 13.7671 15.8874 13.7844 15.9215C14.0845 16.5028 14.4272 17.0563 14.8045 17.5813C14.8203 17.6035 14.8486 17.613 14.8746 17.6051C16.5076 17.0999 18.1634 16.3378 19.8728 15.0825C19.8878 15.0714 19.8972 15.0548 19.8988 15.0365C20.3155 10.7257 19.2009 6.98107 16.944 3.6615C16.9385 3.65041 16.9291 3.64248 16.918 3.63772ZM6.67829 12.7653C5.6936 12.7653 4.88224 11.8613 4.88224 10.7511C4.88224 9.64083 5.67787 8.73681 6.67829 8.73681C7.68657 8.73681 8.49007 9.64877 8.47431 10.7511C8.47431 11.8613 7.67869 12.7653 6.67829 12.7653ZM13.3189 12.7653C12.3342 12.7653 11.5228 11.8613 11.5228 10.7511C11.5228 9.64083 12.3184 8.73681 13.3189 8.73681C14.3272 8.73681 15.1306 9.64877 15.1149 10.7511C15.1149 11.8613 14.3272 12.7653 13.3189 12.7653Z" fill="currentColor"/>
</g>
</svg>
