<svg width="20" height="20" viewBox="0 0 20 20" fill="none" xmlns="http://www.w3.org/2000/svg">
<path d="M1.76712 5.17371C1.728 5.33802 1.70608 5.50415 1.69247 5.67073C1.66697 5.98286 1.66698 6.36181 1.66699 6.80107V13.1987C1.66698 13.638 1.66697 14.017 1.69247 14.3291C1.71939 14.6586 1.77882 14.9862 1.93948 15.3016C2.17916 15.772 2.56161 16.1544 3.03202 16.3941C3.34733 16.5548 3.67502 16.6142 4.00447 16.6411C4.31658 16.6666 4.6955 16.6666 5.13474 16.6666H14.8658C15.305 16.6666 15.6841 16.6666 15.9962 16.6411C16.3256 16.6142 16.6533 16.5548 16.9686 16.3941C17.439 16.1544 17.8215 15.772 18.0612 15.3016C18.2218 14.9862 18.2813 14.6586 18.3082 14.3291C18.3337 14.017 18.3337 13.638 18.3337 13.1987V6.80112C18.3337 6.36183 18.3337 5.98287 18.3082 5.67073C18.2946 5.50415 18.2727 5.33802 18.2335 5.17371L11.5834 10.6147C10.6625 11.3682 9.33815 11.3682 8.41723 10.6147L1.76712 5.17371Z" fill="currentColor"/>
<path d="M17.2841 3.79705C17.1843 3.72591 17.0789 3.6619 16.9686 3.60574C16.6533 3.44508 16.3256 3.38565 15.9962 3.35873C15.6841 3.33323 15.3051 3.33324 14.8658 3.33325H5.13488C4.69561 3.33324 4.3166 3.33323 4.00447 3.35873C3.67502 3.38565 3.34734 3.44508 3.03202 3.60574C2.92179 3.6619 2.81638 3.72591 2.71651 3.79705L9.47263 9.32478C9.7796 9.57594 10.2211 9.57594 10.528 9.32478L17.2841 3.79705Z" fill="currentColor"/>
</svg>
