<svg width="1442" height="639" viewBox="0 0 1442 639" fill="none" xmlns="http://www.w3.org/2000/svg">
<g clip-path="url(#clip0_2007_1306)" filter="url(#filter0_d_2007_1306)">
<rect width="1440" height="637" transform="translate(1 1)" fill="url(#paint0_linear_2007_1306)"/>
<rect width="1440" height="637" transform="translate(1 1)" fill="black" fill-opacity="0.01"/>
<path d="M-33.8158 469.111L-74 482H1453V53L1412.82 72.8464L1372.63 97.5033L1332.45 127.681L1292.26 132.113L1252.08 154.277L1211.89 127.681L1171.71 142.752L1131.53 138.319L1091.34 169.348L1051.16 215.502L1010.97 250.077L970.789 283.67L930.605 287.444L890.421 283.67L850.237 303.975L810.053 320.52L769.868 316.005L729.684 326.026L689.5 316.005L649.316 326.679L609.132 347.548L568.947 345.946L528.763 335.286L488.579 350.423L448.395 370.271L408.211 360.375L368.026 354.597L327.842 351.349L287.658 363.628L247.474 380.537L207.289 416.379L167.105 416.771L126.921 409.682L86.7368 417.741L46.5526 432.406L6.36842 463.394L-33.8158 469.111Z" fill="url(#paint1_radial_2007_1306)" fill-opacity="0.2"/>
<path d="M-74 482L-33.8158 469.111L6.36842 463.394L46.5526 432.406L86.7368 417.741L126.921 409.682L167.105 416.771L207.289 416.379L247.474 380.537L287.658 363.628L327.842 351.349L368.026 354.597L408.211 360.375L448.395 370.271L488.579 350.423L528.763 335.286L568.947 337.946L609.132 339.548L649.316 326.679L689.5 316.005L729.684 326.026L769.868 316.005L810.053 320.52L850.237 303.975L890.421 283.67L930.605 287.444L970.789 283.67L1010.97 250.077L1051.16 215.502L1091.34 169.348L1131.53 138.319L1171.71 142.752L1211.89 127.681L1252.08 154.277L1292.26 132.113L1332.45 127.681L1372.63 97.5033L1412.82 72.8464L1453 53" stroke="#E7E7E7" stroke-width="2" stroke-miterlimit="16"/>
<path d="M245 638L245 1" stroke="url(#paint2_linear_2007_1306)" stroke-width="1.5" stroke-dasharray="4 4"/>
<g filter="url(#filter1_dd_2007_1306)">
<path d="M240 383C240 380.239 242.239 378 245 378V378C247.761 378 250 380.239 250 383V383C250 385.761 247.761 388 245 388V388C242.239 388 240 385.761 240 383V383Z" fill="white"/>
</g>
<g filter="url(#filter2_dd_2007_1306)">
<path d="M125 215C125 209.477 129.477 205 135 205H355C360.523 205 365 209.477 365 215V255C365 260.523 360.523 265 355 265H135C129.477 265 125 260.523 125 255V215Z" fill="white"/>
<path opacity="0.5" d="M135.767 228V220.636H133.695V219.6H134.535C134.899 219.6 135.188 219.553 135.403 219.46C135.627 219.367 135.785 219.208 135.879 218.984C135.972 218.76 136.019 218.452 136.019 218.06H136.971V228H135.767ZM143.005 228.224C142.202 228.224 141.507 228.014 140.919 227.594C140.331 227.174 139.874 226.577 139.547 225.802C139.23 225.027 139.071 224.108 139.071 223.044C139.071 221.98 139.23 221.061 139.547 220.286C139.874 219.502 140.331 218.9 140.919 218.48C141.507 218.051 142.202 217.836 143.005 217.836C143.817 217.836 144.517 218.051 145.105 218.48C145.693 218.9 146.146 219.497 146.463 220.272C146.79 221.047 146.953 221.971 146.953 223.044C146.953 224.108 146.79 225.027 146.463 225.802C146.146 226.577 145.693 227.174 145.105 227.594C144.517 228.014 143.817 228.224 143.005 228.224ZM143.005 227.048C143.864 227.048 144.526 226.703 144.993 226.012C145.46 225.312 145.693 224.323 145.693 223.044C145.693 222.185 145.586 221.457 145.371 220.86C145.166 220.253 144.862 219.796 144.461 219.488C144.069 219.171 143.584 219.012 143.005 219.012C142.436 219.012 141.95 219.171 141.549 219.488C141.157 219.796 140.854 220.253 140.639 220.86C140.434 221.457 140.331 222.185 140.331 223.044C140.331 224.323 140.564 225.312 141.031 226.012C141.498 226.703 142.156 227.048 143.005 227.048ZM152.442 228V218.06H154.122L157.3 226.684L160.464 218.06H162.144V228H160.94V220.3L158.098 228H156.488L153.646 220.3V228H152.442ZM166.417 228.168C165.652 228.168 165.04 227.991 164.583 227.636C164.135 227.281 163.911 226.787 163.911 226.152C163.911 225.517 164.098 225.018 164.471 224.654C164.844 224.29 165.437 224.033 166.249 223.884L168.881 223.394C168.881 222.769 168.732 222.302 168.433 221.994C168.144 221.686 167.705 221.532 167.117 221.532C166.604 221.532 166.198 221.649 165.899 221.882C165.6 222.106 165.395 222.433 165.283 222.862L164.037 222.764C164.177 222.064 164.513 221.499 165.045 221.07C165.586 220.631 166.277 220.412 167.117 220.412C168.069 220.412 168.797 220.683 169.301 221.224C169.805 221.756 170.057 222.493 170.057 223.436V226.502C170.057 226.67 170.085 226.791 170.141 226.866C170.206 226.931 170.309 226.964 170.449 226.964H170.743V228C170.706 228.009 170.645 228.014 170.561 228.014C170.477 228.023 170.388 228.028 170.295 228.028C169.959 228.028 169.684 227.977 169.469 227.874C169.264 227.762 169.114 227.594 169.021 227.37C168.928 227.137 168.881 226.833 168.881 226.46L169.021 226.488C168.956 226.805 168.797 227.095 168.545 227.356C168.293 227.608 167.98 227.809 167.607 227.958C167.234 228.098 166.837 228.168 166.417 228.168ZM166.529 227.132C167.024 227.132 167.444 227.039 167.789 226.852C168.144 226.656 168.414 226.395 168.601 226.068C168.788 225.732 168.881 225.359 168.881 224.948V224.416L166.473 224.864C165.969 224.957 165.619 225.102 165.423 225.298C165.236 225.485 165.143 225.732 165.143 226.04C165.143 226.385 165.264 226.656 165.507 226.852C165.759 227.039 166.1 227.132 166.529 227.132ZM172.071 228V220.58H173.107L173.163 222.456L173.051 222.414C173.145 221.779 173.345 221.317 173.653 221.028C173.971 220.729 174.391 220.58 174.913 220.58H175.641V221.7H174.927C174.554 221.7 174.241 221.77 173.989 221.91C173.747 222.041 173.56 222.241 173.429 222.512C173.308 222.773 173.247 223.109 173.247 223.52V228H172.071ZM180.596 228C180.596 227.3 180.703 226.67 180.918 226.11C181.142 225.541 181.529 224.999 182.08 224.486C182.64 223.973 183.415 223.455 184.404 222.932C184.861 222.689 185.23 222.465 185.51 222.26C185.79 222.055 185.995 221.835 186.126 221.602C186.257 221.369 186.322 221.084 186.322 220.748C186.322 220.403 186.247 220.104 186.098 219.852C185.949 219.591 185.725 219.385 185.426 219.236C185.137 219.087 184.773 219.012 184.334 219.012C183.634 219.012 183.079 219.194 182.668 219.558C182.267 219.922 182.015 220.44 181.912 221.112L180.652 221.028C180.764 220.057 181.137 219.283 181.772 218.704C182.407 218.125 183.261 217.836 184.334 217.836C185.015 217.836 185.599 217.957 186.084 218.2C186.569 218.443 186.938 218.783 187.19 219.222C187.451 219.651 187.582 220.151 187.582 220.72C187.582 221.224 187.498 221.663 187.33 222.036C187.162 222.4 186.877 222.741 186.476 223.058C186.084 223.375 185.543 223.716 184.852 224.08C183.956 224.556 183.275 225.037 182.808 225.522C182.351 226.007 182.108 226.441 182.08 226.824H187.582V228H180.596ZM192.921 228.224C192.118 228.224 191.423 228.014 190.835 227.594C190.247 227.174 189.79 226.577 189.463 225.802C189.146 225.027 188.987 224.108 188.987 223.044C188.987 221.98 189.146 221.061 189.463 220.286C189.79 219.502 190.247 218.9 190.835 218.48C191.423 218.051 192.118 217.836 192.921 217.836C193.733 217.836 194.433 218.051 195.021 218.48C195.609 218.9 196.062 219.497 196.379 220.272C196.706 221.047 196.869 221.971 196.869 223.044C196.869 224.108 196.706 225.027 196.379 225.802C196.062 226.577 195.609 227.174 195.021 227.594C194.433 228.014 193.733 228.224 192.921 228.224ZM192.921 227.048C193.78 227.048 194.442 226.703 194.909 226.012C195.376 225.312 195.609 224.323 195.609 223.044C195.609 222.185 195.502 221.457 195.287 220.86C195.082 220.253 194.778 219.796 194.377 219.488C193.985 219.171 193.5 219.012 192.921 219.012C192.352 219.012 191.866 219.171 191.465 219.488C191.073 219.796 190.77 220.253 190.555 220.86C190.35 221.457 190.247 222.185 190.247 223.044C190.247 224.323 190.48 225.312 190.947 226.012C191.414 226.703 192.072 227.048 192.921 227.048ZM198.274 228C198.274 227.3 198.381 226.67 198.596 226.11C198.82 225.541 199.207 224.999 199.758 224.486C200.318 223.973 201.092 223.455 202.082 222.932C202.539 222.689 202.908 222.465 203.188 222.26C203.468 222.055 203.673 221.835 203.804 221.602C203.934 221.369 204 221.084 204 220.748C204 220.403 203.925 220.104 203.776 219.852C203.626 219.591 203.402 219.385 203.104 219.236C202.814 219.087 202.45 219.012 202.012 219.012C201.312 219.012 200.756 219.194 200.346 219.558C199.944 219.922 199.692 220.44 199.59 221.112L198.33 221.028C198.442 220.057 198.815 219.283 199.45 218.704C200.084 218.125 200.938 217.836 202.012 217.836C202.693 217.836 203.276 217.957 203.762 218.2C204.247 218.443 204.616 218.783 204.868 219.222C205.129 219.651 205.26 220.151 205.26 220.72C205.26 221.224 205.176 221.663 205.008 222.036C204.84 222.4 204.555 222.741 204.154 223.058C203.762 223.375 203.22 223.716 202.53 224.08C201.634 224.556 200.952 225.037 200.486 225.522C200.028 226.007 199.786 226.441 199.758 226.824H205.26V228H198.274ZM210.47 228.224C209.77 228.224 209.163 228.107 208.65 227.874C208.146 227.641 207.744 227.314 207.446 226.894C207.156 226.474 206.988 225.989 206.942 225.438L208.202 225.354C208.276 225.914 208.514 226.339 208.916 226.628C209.326 226.908 209.844 227.048 210.47 227.048C211.17 227.048 211.725 226.852 212.136 226.46C212.546 226.059 212.752 225.508 212.752 224.808C212.752 224.341 212.658 223.94 212.472 223.604C212.294 223.259 212.033 222.993 211.688 222.806C211.342 222.619 210.927 222.526 210.442 222.526C209.984 222.526 209.569 222.624 209.196 222.82C208.822 223.016 208.556 223.291 208.398 223.646H207.11L207.768 218.06H213.34V219.236H208.874L208.426 222.904L208.202 222.68C208.351 222.391 208.547 222.153 208.79 221.966C209.042 221.77 209.326 221.625 209.644 221.532C209.97 221.429 210.311 221.378 210.666 221.378C211.328 221.378 211.912 221.527 212.416 221.826C212.92 222.115 213.312 222.521 213.592 223.044C213.872 223.557 214.012 224.145 214.012 224.808C214.012 225.471 213.862 226.063 213.564 226.586C213.265 227.099 212.85 227.501 212.318 227.79C211.786 228.079 211.17 228.224 210.47 228.224Z" fill="#9E9E9E"/>
<g opacity="0.5">
<path d="M137.166 253.26V240.8H138.23V253.26H137.166ZM137.81 252.196C137.036 252.196 136.364 252.056 135.794 251.776C135.225 251.487 134.772 251.09 134.436 250.586C134.11 250.082 133.918 249.499 133.862 248.836L135.388 248.752C135.444 249.2 135.575 249.583 135.78 249.9C135.986 250.208 136.256 250.446 136.592 250.614C136.938 250.773 137.353 250.852 137.838 250.852C138.258 250.852 138.618 250.801 138.916 250.698C139.215 250.586 139.439 250.427 139.588 250.222C139.747 250.017 139.826 249.76 139.826 249.452C139.826 249.172 139.761 248.929 139.63 248.724C139.5 248.509 139.248 248.313 138.874 248.136C138.501 247.949 137.955 247.772 137.236 247.604C136.462 247.417 135.841 247.207 135.374 246.974C134.908 246.741 134.572 246.456 134.366 246.12C134.17 245.775 134.072 245.345 134.072 244.832C134.072 244.281 134.208 243.796 134.478 243.376C134.749 242.947 135.132 242.615 135.626 242.382C136.13 242.139 136.732 242.018 137.432 242.018C138.179 242.018 138.814 242.153 139.336 242.424C139.868 242.695 140.288 243.068 140.596 243.544C140.904 244.02 141.096 244.566 141.17 245.182L139.644 245.266C139.598 244.902 139.481 244.575 139.294 244.286C139.117 243.997 138.87 243.773 138.552 243.614C138.235 243.446 137.852 243.362 137.404 243.362C136.844 243.362 136.401 243.493 136.074 243.754C135.748 244.015 135.584 244.361 135.584 244.79C135.584 245.07 135.65 245.303 135.78 245.49C135.92 245.677 136.158 245.84 136.494 245.98C136.84 246.12 137.33 246.265 137.964 246.414C138.804 246.61 139.472 246.848 139.966 247.128C140.461 247.399 140.816 247.721 141.03 248.094C141.245 248.467 141.352 248.892 141.352 249.368C141.352 249.947 141.203 250.451 140.904 250.88C140.606 251.3 140.19 251.627 139.658 251.86C139.126 252.084 138.51 252.196 137.81 252.196ZM146.569 252.224C145.785 252.224 145.122 252.051 144.581 251.706C144.039 251.351 143.629 250.843 143.349 250.18C143.069 249.508 142.929 248.696 142.929 247.744C142.929 246.913 142.999 246.143 143.139 245.434C143.288 244.715 143.521 244.09 143.839 243.558C144.156 243.017 144.567 242.597 145.071 242.298C145.584 241.99 146.205 241.836 146.933 241.836C147.847 241.836 148.561 242.06 149.075 242.508C149.588 242.947 149.943 243.535 150.139 244.272L148.641 244.398C148.529 244.034 148.342 243.745 148.081 243.53C147.829 243.315 147.446 243.208 146.933 243.208C146.167 243.208 145.565 243.535 145.127 244.188C144.688 244.841 144.455 245.84 144.427 247.184L144.161 247.128C144.263 246.811 144.436 246.521 144.679 246.26C144.921 245.989 145.225 245.775 145.589 245.616C145.962 245.448 146.387 245.364 146.863 245.364C147.525 245.364 148.104 245.504 148.599 245.784C149.103 246.055 149.49 246.442 149.761 246.946C150.041 247.45 150.181 248.038 150.181 248.71C150.181 249.438 150.027 250.068 149.719 250.6C149.411 251.123 148.986 251.524 148.445 251.804C147.903 252.084 147.278 252.224 146.569 252.224ZM146.583 250.88C147.189 250.88 147.679 250.689 148.053 250.306C148.435 249.914 148.627 249.382 148.627 248.71C148.627 248.29 148.543 247.926 148.375 247.618C148.216 247.301 147.987 247.058 147.689 246.89C147.399 246.722 147.063 246.638 146.681 246.638C146.261 246.638 145.887 246.722 145.561 246.89C145.234 247.058 144.977 247.301 144.791 247.618C144.604 247.926 144.511 248.29 144.511 248.71C144.511 249.13 144.595 249.503 144.763 249.83C144.931 250.157 145.169 250.413 145.477 250.6C145.794 250.787 146.163 250.88 146.583 250.88ZM155.469 252.224C154.732 252.224 154.102 252.107 153.579 251.874C153.056 251.631 152.646 251.295 152.347 250.866C152.048 250.437 151.876 249.942 151.829 249.382L153.383 249.284C153.458 249.807 153.677 250.199 154.041 250.46C154.414 250.712 154.89 250.838 155.469 250.838C156.122 250.838 156.636 250.656 157.009 250.292C157.392 249.928 157.583 249.419 157.583 248.766C157.583 248.337 157.494 247.968 157.317 247.66C157.149 247.343 156.906 247.1 156.589 246.932C156.272 246.755 155.894 246.666 155.455 246.666C155.016 246.666 154.624 246.759 154.279 246.946C153.934 247.133 153.686 247.389 153.537 247.716H151.969L152.641 242.06H158.465V243.446H153.985L153.565 246.848L153.327 246.638C153.486 246.358 153.686 246.129 153.929 245.952C154.172 245.765 154.452 245.625 154.769 245.532C155.096 245.429 155.441 245.378 155.805 245.378C156.477 245.378 157.06 245.523 157.555 245.812C158.059 246.101 158.451 246.503 158.731 247.016C159.011 247.529 159.151 248.113 159.151 248.766C159.151 249.447 158.997 250.049 158.689 250.572C158.381 251.095 157.952 251.501 157.401 251.79C156.85 252.079 156.206 252.224 155.469 252.224ZM160.63 254.198L161.33 252H160.56V250.236H162.366V251.79L161.484 254.198H160.63ZM167.334 252.224C166.578 252.224 165.911 252.112 165.332 251.888C164.753 251.664 164.301 251.333 163.974 250.894C163.657 250.455 163.498 249.919 163.498 249.284C163.498 248.556 163.717 247.954 164.156 247.478C164.595 247.002 165.183 246.685 165.92 246.526L165.948 246.806C165.351 246.666 164.87 246.409 164.506 246.036C164.151 245.663 163.974 245.173 163.974 244.566C163.974 244.034 164.109 243.563 164.38 243.152C164.651 242.741 165.033 242.419 165.528 242.186C166.032 241.953 166.634 241.836 167.334 241.836C168.025 241.836 168.622 241.953 169.126 242.186C169.63 242.419 170.013 242.741 170.274 243.152C170.545 243.563 170.68 244.034 170.68 244.566C170.68 245.173 170.503 245.663 170.148 246.036C169.793 246.4 169.313 246.657 168.706 246.806L168.734 246.526C169.481 246.685 170.073 247.002 170.512 247.478C170.951 247.954 171.17 248.556 171.17 249.284C171.17 249.919 171.007 250.455 170.68 250.894C170.363 251.333 169.915 251.664 169.336 251.888C168.757 252.112 168.09 252.224 167.334 252.224ZM167.334 250.838C168.025 250.838 168.571 250.698 168.972 250.418C169.383 250.129 169.588 249.699 169.588 249.13C169.588 248.589 169.401 248.155 169.028 247.828C168.664 247.501 168.099 247.338 167.334 247.338C166.569 247.338 165.999 247.501 165.626 247.828C165.253 248.155 165.066 248.589 165.066 249.13C165.066 249.699 165.271 250.129 165.682 250.418C166.093 250.698 166.643 250.838 167.334 250.838ZM167.334 246.092C167.903 246.092 168.342 245.975 168.65 245.742C168.967 245.499 169.126 245.131 169.126 244.636C169.126 244.207 168.972 243.861 168.664 243.6C168.365 243.339 167.922 243.208 167.334 243.208C166.746 243.208 166.298 243.339 165.99 243.6C165.682 243.861 165.528 244.207 165.528 244.636C165.528 245.131 165.687 245.499 166.004 245.742C166.321 245.975 166.765 246.092 167.334 246.092ZM174.348 252V244.916H172.248V243.698H173.102C173.475 243.698 173.779 243.651 174.012 243.558C174.245 243.455 174.413 243.287 174.516 243.054C174.619 242.811 174.67 242.48 174.67 242.06H175.86V252H174.348ZM181.772 252.224C181.016 252.224 180.348 252.112 179.77 251.888C179.191 251.664 178.738 251.333 178.412 250.894C178.094 250.455 177.936 249.919 177.936 249.284C177.936 248.556 178.155 247.954 178.594 247.478C179.032 247.002 179.62 246.685 180.358 246.526L180.386 246.806C179.788 246.666 179.308 246.409 178.944 246.036C178.589 245.663 178.412 245.173 178.412 244.566C178.412 244.034 178.547 243.563 178.818 243.152C179.088 242.741 179.471 242.419 179.966 242.186C180.47 241.953 181.072 241.836 181.772 241.836C182.462 241.836 183.06 241.953 183.564 242.186C184.068 242.419 184.45 242.741 184.712 243.152C184.982 243.563 185.118 244.034 185.118 244.566C185.118 245.173 184.94 245.663 184.586 246.036C184.231 246.4 183.75 246.657 183.144 246.806L183.172 246.526C183.918 246.685 184.511 247.002 184.95 247.478C185.388 247.954 185.608 248.556 185.608 249.284C185.608 249.919 185.444 250.455 185.118 250.894C184.8 251.333 184.352 251.664 183.774 251.888C183.195 252.112 182.528 252.224 181.772 252.224ZM181.772 250.838C182.462 250.838 183.008 250.698 183.41 250.418C183.82 250.129 184.026 249.699 184.026 249.13C184.026 248.589 183.839 248.155 183.466 247.828C183.102 247.501 182.537 247.338 181.772 247.338C181.006 247.338 180.437 247.501 180.064 247.828C179.69 248.155 179.504 248.589 179.504 249.13C179.504 249.699 179.709 250.129 180.12 250.418C180.53 250.698 181.081 250.838 181.772 250.838ZM181.772 246.092C182.341 246.092 182.78 245.975 183.088 245.742C183.405 245.499 183.564 245.131 183.564 244.636C183.564 244.207 183.41 243.861 183.102 243.6C182.803 243.339 182.36 243.208 181.772 243.208C181.184 243.208 180.736 243.339 180.428 243.6C180.12 243.861 179.966 244.207 179.966 244.636C179.966 245.131 180.124 245.499 180.442 245.742C180.759 245.975 181.202 246.092 181.772 246.092ZM186.728 252V250.236H188.534V252H186.728ZM194.524 252V249.928H189.512V248.64L194.342 242.06H196.036V248.556H197.254V249.928H196.036V252H194.524ZM191.234 248.556H194.524V244.16L191.234 248.556ZM202.391 252.224C201.653 252.224 201.023 252.107 200.501 251.874C199.978 251.631 199.567 251.295 199.269 250.866C198.97 250.437 198.797 249.942 198.751 249.382L200.305 249.284C200.379 249.807 200.599 250.199 200.963 250.46C201.336 250.712 201.812 250.838 202.391 250.838C203.044 250.838 203.557 250.656 203.931 250.292C204.313 249.928 204.505 249.419 204.505 248.766C204.505 248.337 204.416 247.968 204.239 247.66C204.071 247.343 203.828 247.1 203.511 246.932C203.193 246.755 202.815 246.666 202.377 246.666C201.938 246.666 201.546 246.759 201.201 246.946C200.855 247.133 200.608 247.389 200.459 247.716H198.891L199.563 242.06H205.387V243.446H200.907L200.487 246.848L200.249 246.638C200.407 246.358 200.608 246.129 200.851 245.952C201.093 245.765 201.373 245.625 201.691 245.532C202.017 245.429 202.363 245.378 202.727 245.378C203.399 245.378 203.982 245.523 204.477 245.812C204.981 246.101 205.373 246.503 205.653 247.016C205.933 247.529 206.073 248.113 206.073 248.766C206.073 249.447 205.919 250.049 205.611 250.572C205.303 251.095 204.873 251.501 204.323 251.79C203.772 252.079 203.128 252.224 202.391 252.224Z" fill="#2E2E2E" fill-opacity="0.8"/>
<path d="M228.97 248.556V247.268H235.718V248.556H228.97ZM231.7 251.286V244.538H232.988V251.286H231.7ZM240.206 253.26V240.786H241.284V253.26H240.206ZM240.864 252.196C240.146 252.196 239.516 252.056 238.974 251.776C238.442 251.487 238.018 251.085 237.7 250.572C237.383 250.059 237.196 249.457 237.14 248.766L238.624 248.668C238.69 249.144 238.82 249.545 239.016 249.872C239.212 250.199 239.469 250.446 239.786 250.614C240.104 250.773 240.477 250.852 240.906 250.852C241.345 250.852 241.709 250.801 241.998 250.698C242.288 250.586 242.507 250.427 242.656 250.222C242.806 250.017 242.88 249.769 242.88 249.48C242.88 249.181 242.81 248.929 242.67 248.724C242.54 248.509 242.288 248.318 241.914 248.15C241.541 247.982 240.99 247.805 240.262 247.618C239.6 247.441 239.054 247.231 238.624 246.988C238.195 246.736 237.878 246.433 237.672 246.078C237.476 245.723 237.378 245.308 237.378 244.832C237.378 244.263 237.509 243.773 237.77 243.362C238.041 242.942 238.424 242.62 238.918 242.396C239.413 242.163 240.01 242.046 240.71 242.046C241.401 242.046 241.989 242.177 242.474 242.438C242.969 242.69 243.356 243.049 243.636 243.516C243.926 243.983 244.103 244.533 244.168 245.168L242.684 245.252C242.638 244.869 242.535 244.538 242.376 244.258C242.218 243.978 241.998 243.763 241.718 243.614C241.438 243.465 241.088 243.39 240.668 243.39C240.09 243.39 239.637 243.511 239.31 243.754C238.984 243.997 238.82 244.333 238.82 244.762C238.82 245.051 238.886 245.289 239.016 245.476C239.147 245.663 239.376 245.831 239.702 245.98C240.029 246.12 240.496 246.274 241.102 246.442C241.905 246.657 242.54 246.899 243.006 247.17C243.482 247.431 243.823 247.749 244.028 248.122C244.234 248.486 244.336 248.939 244.336 249.48C244.336 250.021 244.192 250.497 243.902 250.908C243.613 251.319 243.207 251.636 242.684 251.86C242.171 252.084 241.564 252.196 240.864 252.196ZM249.049 252.224C247.957 252.224 247.121 251.963 246.543 251.44C245.964 250.917 245.651 250.231 245.605 249.382L247.103 249.284C247.159 249.853 247.364 250.259 247.719 250.502C248.083 250.735 248.531 250.852 249.063 250.852C249.427 250.852 249.767 250.796 250.085 250.684C250.402 250.572 250.654 250.395 250.841 250.152C251.037 249.909 251.135 249.583 251.135 249.172C251.135 248.771 251.046 248.439 250.869 248.178C250.701 247.917 250.458 247.725 250.141 247.604C249.833 247.473 249.478 247.408 249.077 247.408H248.307V246.092H249.077C249.394 246.092 249.683 246.045 249.945 245.952C250.206 245.859 250.411 245.705 250.561 245.49C250.719 245.275 250.799 245 250.799 244.664C250.799 244.179 250.649 243.815 250.351 243.572C250.061 243.329 249.646 243.208 249.105 243.208C248.545 243.208 248.12 243.325 247.831 243.558C247.551 243.791 247.378 244.113 247.313 244.524L245.801 244.426C245.903 243.651 246.235 243.026 246.795 242.55C247.364 242.074 248.139 241.836 249.119 241.836C249.772 241.836 250.337 241.948 250.813 242.172C251.298 242.387 251.671 242.695 251.933 243.096C252.194 243.497 252.325 243.978 252.325 244.538C252.325 245.154 252.129 245.653 251.737 246.036C251.354 246.409 250.794 246.666 250.057 246.806V246.54C250.859 246.633 251.494 246.923 251.961 247.408C252.427 247.884 252.661 248.486 252.661 249.214C252.661 249.849 252.507 250.39 252.199 250.838C251.9 251.286 251.475 251.631 250.925 251.874C250.383 252.107 249.758 252.224 249.049 252.224ZM257.499 241.836C258.265 241.836 258.913 242.009 259.445 242.354C259.987 242.699 260.393 243.203 260.663 243.866C260.943 244.529 261.083 245.336 261.083 246.288C261.083 247.109 261.013 247.879 260.873 248.598C260.733 249.317 260.509 249.947 260.201 250.488C259.893 251.029 259.487 251.454 258.983 251.762C258.479 252.07 257.859 252.224 257.121 252.224C256.505 252.224 255.987 252.126 255.567 251.93C255.157 251.725 254.821 251.44 254.559 251.076C254.307 250.712 254.116 250.297 253.985 249.83L255.497 249.704C255.6 250.049 255.773 250.329 256.015 250.544C256.267 250.749 256.636 250.852 257.121 250.852C257.625 250.852 258.059 250.707 258.423 250.418C258.787 250.129 259.067 249.69 259.263 249.102C259.469 248.514 259.581 247.763 259.599 246.848L259.963 246.904C259.87 247.231 259.697 247.534 259.445 247.814C259.193 248.094 258.881 248.323 258.507 248.5C258.134 248.668 257.705 248.752 257.219 248.752C256.566 248.752 255.997 248.617 255.511 248.346C255.026 248.066 254.648 247.674 254.377 247.17C254.107 246.657 253.971 246.064 253.971 245.392C253.971 244.655 254.121 244.025 254.419 243.502C254.718 242.97 255.129 242.559 255.651 242.27C256.183 241.981 256.799 241.836 257.499 241.836ZM257.499 243.222C256.883 243.222 256.393 243.409 256.029 243.782C255.675 244.155 255.497 244.683 255.497 245.364C255.497 245.989 255.665 246.489 256.001 246.862C256.347 247.235 256.809 247.422 257.387 247.422C257.807 247.422 258.176 247.338 258.493 247.17C258.82 247.002 259.072 246.764 259.249 246.456C259.436 246.148 259.529 245.784 259.529 245.364C259.529 244.953 259.445 244.585 259.277 244.258C259.119 243.931 258.885 243.679 258.577 243.502C258.279 243.315 257.919 243.222 257.499 243.222ZM266.958 252V249.9H262.226V248.626L266.804 242.06H268.428V248.542H269.618V249.9H268.428V252H266.958ZM263.668 248.542H266.958V244.02L263.668 248.542ZM273.364 252V250.152H275.268V252H273.364ZM282.683 241.836C283.448 241.836 284.097 242.009 284.629 242.354C285.17 242.699 285.576 243.203 285.847 243.866C286.127 244.529 286.267 245.336 286.267 246.288C286.267 247.109 286.197 247.879 286.057 248.598C285.917 249.317 285.693 249.947 285.385 250.488C285.077 251.029 284.671 251.454 284.167 251.762C283.663 252.07 283.042 252.224 282.305 252.224C281.689 252.224 281.171 252.126 280.751 251.93C280.34 251.725 280.004 251.44 279.743 251.076C279.491 250.712 279.3 250.297 279.169 249.83L280.681 249.704C280.784 250.049 280.956 250.329 281.199 250.544C281.451 250.749 281.82 250.852 282.305 250.852C282.809 250.852 283.243 250.707 283.607 250.418C283.971 250.129 284.251 249.69 284.447 249.102C284.652 248.514 284.764 247.763 284.783 246.848L285.147 246.904C285.054 247.231 284.881 247.534 284.629 247.814C284.377 248.094 284.064 248.323 283.691 248.5C283.318 248.668 282.888 248.752 282.403 248.752C281.75 248.752 281.18 248.617 280.695 248.346C280.21 248.066 279.832 247.674 279.561 247.17C279.29 246.657 279.155 246.064 279.155 245.392C279.155 244.655 279.304 244.025 279.603 243.502C279.902 242.97 280.312 242.559 280.835 242.27C281.367 241.981 281.983 241.836 282.683 241.836ZM282.683 243.222C282.067 243.222 281.577 243.409 281.213 243.782C280.858 244.155 280.681 244.683 280.681 245.364C280.681 245.989 280.849 246.489 281.185 246.862C281.53 247.235 281.992 247.422 282.571 247.422C282.991 247.422 283.36 247.338 283.677 247.17C284.004 247.002 284.256 246.764 284.433 246.456C284.62 246.148 284.713 245.784 284.713 245.364C284.713 244.953 284.629 244.585 284.461 244.258C284.302 243.931 284.069 243.679 283.761 243.502C283.462 243.315 283.103 243.222 282.683 243.222ZM290.727 252V244.916H288.179V243.67H289.439C289.803 243.67 290.097 243.619 290.321 243.516C290.545 243.404 290.709 243.231 290.811 242.998C290.914 242.765 290.965 242.452 290.965 242.06H292.197V252H290.727ZM287.689 252V250.614H294.521V252H287.689ZM302.603 253.54C301.959 252.56 301.473 251.566 301.147 250.558C300.829 249.55 300.671 248.537 300.671 247.52C300.671 245.457 301.315 243.451 302.603 241.5H303.919C302.752 243.516 302.169 245.523 302.169 247.52C302.169 248.519 302.313 249.522 302.603 250.53C302.901 251.529 303.34 252.532 303.919 253.54H302.603ZM307.315 248.556V247.268H314.063V248.556H307.315ZM310.045 251.286V244.538H311.333V251.286H310.045ZM316.62 250.516L320.428 243.474L321.548 243.544L317.74 250.586L316.62 250.516ZM319.084 252.224C318.356 252.224 317.726 252.014 317.194 251.594C316.662 251.174 316.256 250.577 315.976 249.802C315.696 249.027 315.556 248.108 315.556 247.044C315.556 245.971 315.696 245.047 315.976 244.272C316.256 243.497 316.662 242.9 317.194 242.48C317.726 242.051 318.356 241.836 319.084 241.836C319.821 241.836 320.451 242.051 320.974 242.48C321.506 242.9 321.912 243.497 322.192 244.272C322.472 245.047 322.612 245.971 322.612 247.044C322.612 248.108 322.472 249.027 322.192 249.802C321.912 250.577 321.506 251.174 320.974 251.594C320.451 252.014 319.821 252.224 319.084 252.224ZM319.084 250.852C319.504 250.852 319.858 250.703 320.148 250.404C320.446 250.096 320.675 249.657 320.834 249.088C321.002 248.519 321.086 247.837 321.086 247.044C321.086 246.232 321.002 245.541 320.834 244.972C320.675 244.403 320.446 243.969 320.148 243.67C319.858 243.362 319.504 243.208 319.084 243.208C318.673 243.208 318.318 243.362 318.02 243.67C317.721 243.969 317.488 244.403 317.32 244.972C317.161 245.541 317.082 246.232 317.082 247.044C317.082 247.837 317.161 248.519 317.32 249.088C317.488 249.657 317.721 250.096 318.02 250.404C318.318 250.703 318.673 250.852 319.084 250.852ZM326.526 252V250.152H328.43V252H326.526ZM335.901 252.224C335.135 252.224 334.482 252.051 333.941 251.706C333.409 251.361 333.003 250.857 332.723 250.194C332.452 249.522 332.317 248.715 332.317 247.772C332.317 246.951 332.387 246.181 332.527 245.462C332.667 244.743 332.891 244.113 333.199 243.572C333.507 243.031 333.913 242.606 334.417 242.298C334.921 241.99 335.541 241.836 336.279 241.836C336.895 241.836 337.408 241.939 337.819 242.144C338.239 242.34 338.575 242.62 338.827 242.984C339.088 243.348 339.284 243.763 339.415 244.23L337.903 244.356C337.809 244.011 337.637 243.735 337.385 243.53C337.142 243.315 336.773 243.208 336.279 243.208C335.775 243.208 335.341 243.353 334.977 243.642C334.622 243.931 334.342 244.37 334.137 244.958C333.931 245.546 333.819 246.297 333.801 247.212L333.437 247.156C333.539 246.829 333.712 246.526 333.955 246.246C334.207 245.966 334.519 245.742 334.893 245.574C335.266 245.397 335.695 245.308 336.181 245.308C336.843 245.308 337.413 245.448 337.889 245.728C338.374 245.999 338.752 246.391 339.023 246.904C339.293 247.408 339.429 247.996 339.429 248.668C339.429 249.405 339.279 250.04 338.981 250.572C338.682 251.095 338.271 251.501 337.749 251.79C337.226 252.079 336.61 252.224 335.901 252.224ZM335.901 250.838C336.517 250.838 337.002 250.651 337.357 250.278C337.721 249.905 337.903 249.377 337.903 248.696C337.903 248.061 337.735 247.562 337.399 247.198C337.063 246.825 336.601 246.638 336.013 246.638C335.593 246.638 335.219 246.722 334.893 246.89C334.575 247.058 334.323 247.296 334.137 247.604C333.959 247.912 333.871 248.276 333.871 248.696C333.871 249.107 333.95 249.475 334.109 249.802C334.277 250.129 334.515 250.385 334.823 250.572C335.131 250.749 335.49 250.838 335.901 250.838ZM342.209 246.876C341.64 246.876 341.159 246.666 340.767 246.246C340.375 245.826 340.179 245.215 340.179 244.412C340.179 243.6 340.375 242.989 340.767 242.578C341.159 242.158 341.64 241.948 342.209 241.948C342.788 241.948 343.269 242.158 343.651 242.578C344.043 242.989 344.239 243.6 344.239 244.412C344.239 245.215 344.043 245.826 343.651 246.246C343.269 246.666 342.788 246.876 342.209 246.876ZM342.209 245.938C342.489 245.938 342.709 245.807 342.867 245.546C343.035 245.285 343.119 244.907 343.119 244.412C343.119 243.917 343.035 243.539 342.867 243.278C342.709 243.017 342.489 242.886 342.209 242.886C341.929 242.886 341.705 243.017 341.537 243.278C341.379 243.539 341.299 243.917 341.299 244.412C341.299 244.907 341.379 245.285 341.537 245.546C341.705 245.807 341.929 245.938 342.209 245.938ZM340.753 252L346.647 242.06H347.781L341.887 252H340.753ZM346.325 252.112C345.747 252.112 345.261 251.902 344.869 251.482C344.487 251.062 344.295 250.451 344.295 249.648C344.295 248.836 344.487 248.225 344.869 247.814C345.261 247.394 345.747 247.184 346.325 247.184C346.895 247.184 347.375 247.394 347.767 247.814C348.159 248.225 348.355 248.836 348.355 249.648C348.355 250.451 348.159 251.062 347.767 251.482C347.375 251.902 346.895 252.112 346.325 252.112ZM346.325 251.174C346.605 251.174 346.825 251.043 346.983 250.782C347.151 250.521 347.235 250.143 347.235 249.648C347.235 249.153 347.151 248.775 346.983 248.514C346.825 248.253 346.605 248.122 346.325 248.122C346.045 248.122 345.821 248.253 345.653 248.514C345.495 248.775 345.415 249.153 345.415 249.648C345.415 250.143 345.495 250.521 345.653 250.782C345.821 251.043 346.045 251.174 346.325 251.174ZM352.354 253.54H351.038C351.616 252.532 352.05 251.529 352.34 250.53C352.638 249.522 352.788 248.519 352.788 247.52C352.788 245.523 352.204 243.516 351.038 241.5H352.354C353.642 243.451 354.286 245.457 354.286 247.52C354.286 248.537 354.122 249.55 353.796 250.558C353.478 251.566 352.998 252.56 352.354 253.54Z" fill="#2E2E2E" fill-opacity="0.8"/>
</g>
</g>
</g>
<defs>
<filter id="filter0_d_2007_1306" x="0" y="0" width="1442" height="639" filterUnits="userSpaceOnUse" color-interpolation-filters="sRGB">
<feFlood flood-opacity="0" result="BackgroundImageFix"/>
<feColorMatrix in="SourceAlpha" type="matrix" values="0 0 0 0 0 0 0 0 0 0 0 0 0 0 0 0 0 0 127 0" result="hardAlpha"/>
<feMorphology radius="1" operator="dilate" in="SourceAlpha" result="effect1_dropShadow_2007_1306"/>
<feOffset/>
<feComposite in2="hardAlpha" operator="out"/>
<feColorMatrix type="matrix" values="0 0 0 0 0 0 0 0 0 0 0 0 0 0 0 0 0 0 0.25 0"/>
<feBlend mode="normal" in2="BackgroundImageFix" result="effect1_dropShadow_2007_1306"/>
<feBlend mode="normal" in="SourceGraphic" in2="effect1_dropShadow_2007_1306" result="shape"/>
</filter>
<filter id="filter1_dd_2007_1306" x="239" y="371" width="12" height="18" filterUnits="userSpaceOnUse" color-interpolation-filters="sRGB">
<feFlood flood-opacity="0" result="BackgroundImageFix"/>
<feColorMatrix in="SourceAlpha" type="matrix" values="0 0 0 0 0 0 0 0 0 0 0 0 0 0 0 0 0 0 127 0" result="hardAlpha"/>
<feMorphology radius="1" operator="dilate" in="SourceAlpha" result="effect1_dropShadow_2007_1306"/>
<feOffset/>
<feComposite in2="hardAlpha" operator="out"/>
<feColorMatrix type="matrix" values="0 0 0 0 0 0 0 0 0 0 0 0 0 0 0 0 0 0 0.1 0"/>
<feBlend mode="normal" in2="BackgroundImageFix" result="effect1_dropShadow_2007_1306"/>
<feColorMatrix in="SourceAlpha" type="matrix" values="0 0 0 0 0 0 0 0 0 0 0 0 0 0 0 0 0 0 127 0" result="hardAlpha"/>
<feMorphology radius="5" operator="erode" in="SourceAlpha" result="effect2_dropShadow_2007_1306"/>
<feOffset dy="-6"/>
<feGaussianBlur stdDeviation="3"/>
<feComposite in2="hardAlpha" operator="out"/>
<feColorMatrix type="matrix" values="0 0 0 0 0.119271 0 0 0 0 0.119271 0 0 0 0 0.119271 0 0 0 0.08 0"/>
<feBlend mode="normal" in2="effect1_dropShadow_2007_1306" result="effect2_dropShadow_2007_1306"/>
<feBlend mode="normal" in="SourceGraphic" in2="effect2_dropShadow_2007_1306" result="shape"/>
</filter>
<filter id="filter2_dd_2007_1306" x="113" y="193" width="264" height="84" filterUnits="userSpaceOnUse" color-interpolation-filters="sRGB">
<feFlood flood-opacity="0" result="BackgroundImageFix"/>
<feColorMatrix in="SourceAlpha" type="matrix" values="0 0 0 0 0 0 0 0 0 0 0 0 0 0 0 0 0 0 127 0" result="hardAlpha"/>
<feMorphology radius="1" operator="dilate" in="SourceAlpha" result="effect1_dropShadow_2007_1306"/>
<feOffset/>
<feComposite in2="hardAlpha" operator="out"/>
<feColorMatrix type="matrix" values="0 0 0 0 0.0431373 0 0 0 0 0.0431373 0 0 0 0 0.0431373 0 0 0 0.05 0"/>
<feBlend mode="normal" in2="BackgroundImageFix" result="effect1_dropShadow_2007_1306"/>
<feColorMatrix in="SourceAlpha" type="matrix" values="0 0 0 0 0 0 0 0 0 0 0 0 0 0 0 0 0 0 127 0" result="hardAlpha"/>
<feOffset dy="1"/>
<feGaussianBlur stdDeviation="3"/>
<feComposite in2="hardAlpha" operator="out"/>
<feColorMatrix type="matrix" values="0 0 0 0 0.0431373 0 0 0 0 0.0431373 0 0 0 0 0.0431373 0 0 0 0.06 0"/>
<feBlend mode="normal" in2="effect1_dropShadow_2007_1306" result="effect2_dropShadow_2007_1306"/>
<feBlend mode="normal" in="SourceGraphic" in2="effect2_dropShadow_2007_1306" result="shape"/>
</filter>
<linearGradient id="paint0_linear_2007_1306" x1="728" y1="224.256" x2="728" y2="495.168" gradientUnits="userSpaceOnUse">
<stop stop-color="#FAFAFA"/>
<stop offset="1" stop-color="#F5F5F5"/>
</linearGradient>
<radialGradient id="paint1_radial_2007_1306" cx="0" cy="0" r="1" gradientUnits="userSpaceOnUse" gradientTransform="translate(1138.18 206.263) rotate(132.31) scale(517.2 1355.5)">
<stop stop-color="#E7E7E7"/>
<stop offset="0.0666667" stop-color="#E7E7E7"/>
<stop offset="0.133333" stop-color="#E8E8E8"/>
<stop offset="0.2" stop-color="#E9E9E9"/>
<stop offset="0.266667" stop-color="#EAEAEA"/>
<stop offset="0.333333" stop-color="#EBEBEB"/>
<stop offset="0.4" stop-color="#EDEDED"/>
<stop offset="0.466667" stop-color="#EFEFEF"/>
<stop offset="0.533333" stop-color="#F2F2F2"/>
<stop offset="0.6" stop-color="#F4F4F4"/>
<stop offset="0.666667" stop-color="#F6F6F6"/>
<stop offset="0.733333" stop-color="#F7F7F7"/>
<stop offset="0.8" stop-color="#F8F8F8"/>
<stop offset="0.866667" stop-color="#F9F9F9"/>
<stop offset="0.933333" stop-color="#FAFAFA"/>
<stop offset="1" stop-color="#FAFAFA"/>
</radialGradient>
<linearGradient id="paint2_linear_2007_1306" x1="245.5" y1="1" x2="245.5" y2="505.5" gradientUnits="userSpaceOnUse">
<stop stop-color="#E7E7E7" stop-opacity="0"/>
<stop offset="0.17061" stop-color="#E7E7E7"/>
<stop offset="0.85" stop-color="#E7E7E7"/>
<stop offset="1" stop-color="#E7E7E7" stop-opacity="0"/>
</linearGradient>
<clipPath id="clip0_2007_1306">
<rect width="1440" height="637" fill="white" transform="translate(1 1)"/>
</clipPath>
</defs>
</svg>
