<svg width="20" height="20" viewBox="0 0 20 20" fill="none" xmlns="http://www.w3.org/2000/svg">
<path fill-rule="evenodd" clip-rule="evenodd" d="M1.66797 3.05942C1.66797 2.69012 1.81467 2.33596 2.0758 2.07483C2.33693 1.8137 2.6911 1.66699 3.06039 1.66699H16.9407C17.1237 1.6667 17.305 1.7025 17.4741 1.77235C17.6433 1.8422 17.797 1.94473 17.9265 2.07407C18.056 2.20341 18.1587 2.35701 18.2287 2.52609C18.2987 2.69517 18.3347 2.87641 18.3346 3.05942V16.9397C18.3348 17.1228 18.2989 17.3041 18.229 17.4732C18.1591 17.6424 18.0565 17.7961 17.9271 17.9256C17.7977 18.055 17.644 18.1577 17.4749 18.2277C17.3058 18.2978 17.1245 18.3338 16.9415 18.3337H3.06039C2.87747 18.3337 2.69635 18.2976 2.52736 18.2276C2.35837 18.1576 2.20484 18.0549 2.07553 17.9256C1.94622 17.7962 1.84367 17.6426 1.77374 17.4736C1.70381 17.3045 1.66787 17.1234 1.66797 16.9405V3.05942ZM8.26494 8.02154H10.5218V9.15487C10.8475 8.50336 11.6808 7.91699 12.9331 7.91699C15.3339 7.91699 15.9028 9.21472 15.9028 11.5958V16.0064H13.4733V12.1382C13.4733 10.7821 13.1475 10.017 12.3202 10.017C11.1725 10.017 10.6952 10.842 10.6952 12.1382V16.0064H8.26494V8.02154ZM4.09827 15.9026H6.52857V7.91699H4.09827V15.9018V15.9026ZM6.8763 5.31245C6.88088 5.52053 6.84386 5.72744 6.76739 5.92102C6.69093 6.1146 6.57657 6.29096 6.43102 6.43975C6.28548 6.58853 6.11168 6.70675 5.91983 6.78745C5.72798 6.86816 5.52194 6.90973 5.3138 6.90973C5.10567 6.90973 4.89963 6.86816 4.70778 6.78745C4.51592 6.70675 4.34213 6.58853 4.19658 6.43975C4.05104 6.29096 3.93668 6.1146 3.86021 5.92102C3.78375 5.72744 3.74672 5.52053 3.7513 5.31245C3.7603 4.904 3.92887 4.51532 4.22091 4.22963C4.51296 3.94395 4.90526 3.78398 5.3138 3.78398C5.72234 3.78398 6.11465 3.94395 6.40669 4.22963C6.69874 4.51532 6.86731 4.904 6.8763 5.31245Z" fill="currentColor"/>
</svg>
