<svg width="1440" height="1320" viewBox="0 0 1440 1320" fill="none" xmlns="http://www.w3.org/2000/svg">
<g clip-path="url(#clip0_2050_6993)">
<g filter="url(#filter0_f_2050_6993)">
<path d="M938.167 872.866L938.167 872.867C908.448 879.849 878.55 885.339 847.198 885.507C832.606 885.585 817.412 885.137 802.389 883.066L802.233 883.044C797.88 882.444 790.964 881.492 784.77 878.073C778.484 874.603 775.316 868.925 773.739 863.98C772.193 859.133 771.867 854.096 771.836 850.19C771.569 816.795 786.343 789.97 800.946 766.165C826.245 724.924 854.824 687.301 886.558 652.622C895.576 642.767 904.705 633.392 913.711 624.145C939.831 597.326 964.907 571.577 983.188 538.28C994.047 518.503 990.892 500.628 980.928 476.966C975.279 463.551 969.728 454.492 963.098 448.282C956.704 442.293 948.588 438.289 936.499 436.356C870.359 425.782 799.362 448.011 732.895 469.569C722.396 472.974 712.098 476.957 701.473 481.066C698.922 482.053 696.352 483.047 693.756 484.042C680.522 489.114 666.779 494.141 652.516 497.755C629.215 503.658 605.9 506.385 582.013 505.908C541.81 505.104 504.068 494.677 470.581 465.75C448.295 446.499 428 422.567 428 385.671V324H450V385.671C450 412.958 464.386 431.327 484.962 449.101C513.694 473.92 546.09 483.186 582.453 483.912C604.33 484.349 625.68 481.858 647.114 476.428C660.038 473.154 672.76 468.528 685.883 463.499C688.334 462.559 690.806 461.603 693.297 460.64C703.964 456.513 714.97 452.255 726.107 448.642C791.533 427.422 867.702 403.078 939.972 414.632C955.589 417.128 967.991 422.722 978.137 432.225C988.046 441.507 995.058 453.834 1001.2 468.428C1012.06 494.209 1018.22 520.189 1002.47 548.868C982.62 585.029 954.578 613.801 927.916 641.156C919.288 650.009 910.803 658.714 902.788 667.473C871.974 701.147 844.246 737.653 819.698 777.669C805.246 801.228 793.622 823.374 793.835 850.014C793.859 853.08 794.142 855.549 794.699 857.296C795.025 858.318 795.314 858.709 795.426 858.826C797.6 860.017 800.606 860.612 805.394 861.272C818.929 863.138 832.947 863.583 847.08 863.507C875.99 863.352 904.019 858.29 933.134 851.45L933.135 851.45M938.167 872.866L933.135 851.45M938.167 872.866L938.753 872.729L938.754 872.729M938.167 872.866L938.754 872.729M933.135 851.45L933.72 851.312M933.135 851.45L933.72 851.312M933.72 851.312L933.72 851.312M933.72 851.312L933.72 851.312M933.72 851.312L934.022 851.241C941.056 849.587 950.214 847.434 959.482 846.733C968.832 846.025 979.61 846.666 989.237 851.791C1006.29 860.87 1009.06 880.792 1007.37 895.759C1006.46 903.763 1004.21 911.77 1001.02 918.784C997.887 925.671 993.512 932.336 987.884 936.944C977.324 945.589 964.766 948.399 953.408 949.284C947.479 949.746 941.13 949.695 935.249 949.548C935.248 949.562 935.248 949.576 935.247 949.589C935.147 952.186 934.955 954.771 934.801 956.799C934.721 957.847 934.655 958.705 934.608 959.424C934.584 959.777 934.568 960.057 934.558 960.274C934.547 960.505 934.547 960.593 934.547 960.583C934.547 967.885 934.497 975.112 934.448 982.277C934.176 1022.1 933.917 1059.96 942.232 1097.63L920.749 1102.37C911.854 1062.07 912.152 1021.39 912.444 981.633C912.495 974.585 912.547 967.566 912.547 960.583C912.547 959.277 912.697 957.315 912.823 955.666C912.837 955.485 912.851 955.308 912.864 955.135C913.018 953.094 913.181 950.88 913.264 948.737C913.299 947.84 913.317 947.018 913.318 946.28C911.996 945.058 910.445 943.043 909.936 940.035C908.825 933.469 913.553 929.843 914.4 929.239C915.721 928.298 916.934 927.887 917.268 927.774C918.149 927.477 918.873 927.362 919.028 927.337C919.311 927.291 919.542 927.265 919.673 927.251C919.941 927.223 920.164 927.209 920.288 927.202C920.888 927.169 921.736 927.165 922.632 927.227M933.72 851.312L922.632 927.227M938.754 872.729C946.083 871.006 953.724 869.232 961.143 868.67C968.614 868.104 974.551 868.896 978.899 871.211C983.494 873.656 986.915 880.843 985.505 893.281C984.859 898.98 983.232 904.751 980.992 909.677C978.694 914.731 976.085 918.171 973.947 919.921C968.348 924.505 960.965 926.628 951.699 927.351C945.282 927.851 939.178 927.659 932.724 927.455C929.477 927.353 926.141 927.248 922.632 927.227M938.754 872.729L922.632 927.227M795.476 858.867C795.477 858.87 795.46 858.86 795.428 858.828C795.46 858.848 795.475 858.863 795.476 858.867Z" stroke="url(#paint0_linear_2050_6993)" stroke-width="22"/>
</g>
</g>
<defs>
<filter id="filter0_f_2050_6993" x="128" y="24" width="1184" height="1378.37" filterUnits="userSpaceOnUse" color-interpolation-filters="sRGB">
<feFlood flood-opacity="0" result="BackgroundImageFix"/>
<feBlend mode="normal" in="SourceGraphic" in2="BackgroundImageFix" result="shape"/>
<feGaussianBlur stdDeviation="150" result="effect1_foregroundBlur_2050_6993"/>
</filter>
<linearGradient id="paint0_linear_2050_6993" x1="469.936" y1="1013.78" x2="954.596" y2="1013.78" gradientUnits="userSpaceOnUse">
<stop stop-color="#F23E94"/>
<stop offset="0.35" stop-color="#6927DA"/>
<stop offset="0.67" stop-color="#1570EF"/>
<stop offset="1" stop-color="#22CCEE"/>
</linearGradient>
<clipPath id="clip0_2050_6993">
<rect width="1440" height="1320" fill="white"/>
</clipPath>
</defs>
</svg>
