<svg width="1408" height="1140" viewBox="0 0 1408 1140" fill="none" xmlns="http://www.w3.org/2000/svg">
<g filter="url(#filter0_f_2050_2130)">
<mask id="path-2-outside-1_2050_2130" maskUnits="userSpaceOnUse" x="326.492" y="367.201" width="741.766" height="736.074" fill="black">
<rect fill="white" x="326.492" y="367.201" width="741.766" height="736.074"/>
<path d="M466.365 714.777C466.478 714.905 466.591 715.033 466.704 715.16C467.568 716.138 466.942 715.318 466.365 714.777Z"/>
</mask>
<path d="M968.332 765.677L970.64 754.922L970.64 754.922L968.332 765.677ZM887.813 720.921L895.932 713.5L895.932 713.5L887.813 720.921ZM854.694 675.007L845.095 680.379L845.095 680.379L854.694 675.007ZM825.665 612.019L835.556 607.204L835.556 607.204L825.665 612.019ZM728.428 465.744L735.611 457.413L735.611 457.413L728.428 465.744ZM674.068 454.996L671.181 444.382L671.181 444.382L674.068 454.996ZM635.245 487.32L645.828 490.321L645.828 490.321L635.245 487.32ZM627.214 603.583L616.219 603.277L616.219 603.277L627.214 603.583ZM614.023 709.048L624.746 711.5L624.746 711.5L614.023 709.048ZM590.297 760.259L597.501 768.572L597.501 768.572L590.297 760.259ZM576.502 764.379L572.152 774.482L572.152 774.482L576.502 764.379ZM566.894 757.51L574.23 749.314L574.23 749.314L566.894 757.51ZM538.923 734.427L530.645 741.671L530.645 741.671L538.923 734.427ZM496.673 673.298L487.156 678.814L487.156 678.814L496.673 673.298ZM473.164 639.9L477.653 629.858L477.653 629.858L473.164 639.9ZM439.161 673.436L428.231 674.676L428.231 674.676L439.161 673.436ZM466.365 714.777L474.585 707.468L458.842 722.802L466.365 714.777ZM465.821 714.397L464.25 725.284L464.249 725.284L465.821 714.397ZM1068.26 735.221L1035.33 764.307L1020.76 747.817L1053.69 718.732L1068.26 735.221ZM1035.33 764.307C1014.02 783.119 988.437 781.243 966.023 776.432L970.64 754.922C991.65 759.431 1007.79 759.274 1020.76 747.817L1035.33 764.307ZM966.023 776.432C932.571 769.253 902.967 753.805 879.693 728.343L895.932 713.5C915.727 735.157 941.057 748.573 970.64 754.922L966.023 776.432ZM879.693 728.343C866.245 713.629 854.82 697.756 845.095 680.379L864.293 669.635C873.203 685.555 883.638 700.05 895.932 713.5L879.693 728.343ZM845.095 680.379C839.138 669.735 834.227 658.75 829.63 648.082C824.969 637.268 820.695 626.94 815.775 616.833L835.556 607.204C840.766 617.908 845.344 628.957 849.834 639.375C854.387 649.94 858.925 660.044 864.293 669.635L845.095 680.379ZM815.775 616.833C790.614 565.148 763.335 510.367 721.245 474.074L735.611 457.413C781.716 497.167 810.777 556.304 835.556 607.204L815.775 616.833ZM721.245 474.074C713.536 467.428 707.082 464.403 700.791 463.309C694.33 462.184 686.929 462.897 676.956 465.61L671.181 444.382C682.672 441.256 693.624 439.731 704.563 441.635C715.672 443.568 725.665 448.837 735.611 457.413L721.245 474.074ZM676.956 465.61C667.932 468.065 661.217 470.771 656.243 474.495C651.584 477.983 647.985 482.713 645.828 490.321L624.662 484.319C628.102 472.189 634.442 463.335 643.058 456.884C651.36 450.668 661.258 447.081 671.181 444.382L676.956 465.61ZM645.828 490.321C640.836 507.923 639.141 526.267 638.617 545.376C638.355 554.932 638.386 564.546 638.419 574.343C638.452 584.081 638.485 594.004 638.21 603.889L616.219 603.277C616.483 593.792 616.452 584.213 616.419 574.416C616.387 564.678 616.352 554.724 616.625 544.773C617.171 524.87 618.953 504.453 624.662 484.319L645.828 490.321ZM638.21 603.889C637.199 640.229 632.859 676.021 624.746 711.5L603.3 706.596C611.072 672.606 615.245 638.255 616.219 603.277L638.21 603.889ZM624.746 711.5C620.319 730.861 616.876 751.78 597.501 768.572L583.093 751.947C596.042 740.724 598.468 727.726 603.3 706.596L624.746 711.5ZM597.501 768.572C593.787 771.791 583.918 779.549 572.152 774.482L580.853 754.276C580.631 754.18 580.32 754.117 580.027 754.124C579.778 754.129 579.739 754.181 579.967 754.094C580.207 754.001 580.614 753.804 581.192 753.42C581.764 753.041 582.397 752.55 583.093 751.947L597.501 768.572ZM572.152 774.482C566.678 772.125 562.239 768.107 559.557 765.707L574.23 749.314C577.27 752.035 579.177 753.555 580.853 754.276L572.152 774.482ZM559.557 765.707C555.575 762.142 551.197 759.086 545.942 755.169C540.971 751.464 535.405 747.111 530.645 741.671L547.201 727.183C550.325 730.753 554.28 733.945 559.09 737.53C563.617 740.904 569.281 744.884 574.23 749.314L559.557 765.707ZM530.645 741.671C513.416 721.982 499.836 700.691 487.156 678.814L506.19 667.782C518.596 689.186 531.347 709.066 547.201 727.183L530.645 741.671ZM487.156 678.814C485.377 675.744 483.694 672.269 482.177 669.158C480.589 665.899 479.103 662.868 477.493 660.047C474.094 654.087 471.223 651.082 468.674 649.942L477.653 629.858C486.948 634.013 492.749 642.389 496.603 649.147C498.621 652.684 500.406 656.345 501.953 659.518C503.572 662.838 504.888 665.535 506.19 667.782L487.156 678.814ZM468.674 649.942C466.089 648.786 462.058 649.152 457.008 654.961C451.931 660.803 449.644 668.257 450.091 672.197L428.231 674.676C426.897 662.914 432.56 649.554 440.404 640.529C448.275 631.472 462.135 622.921 477.653 629.858L468.674 649.942ZM450.091 672.197C450.687 677.447 453.479 682.923 458.244 689.102C463.228 695.563 468.654 700.798 474.585 707.468L458.144 722.086C453.612 716.989 446.363 709.72 440.823 702.537C435.066 695.071 429.488 685.761 428.231 674.676L450.091 672.197ZM458.842 722.802C458.899 722.856 459.174 723.115 459.612 723.432C459.833 723.591 460.256 723.884 460.84 724.188C461.317 724.437 462.538 725.037 464.25 725.284L467.393 703.509C470.368 703.939 472.372 705.509 472.504 705.605C473.13 706.057 473.616 706.497 473.888 706.752L458.842 722.802ZM464.249 725.284C466.677 725.634 468.387 724.945 468.754 724.792C469.267 724.578 469.453 724.418 469.246 724.562C468.838 724.847 468.085 725.477 467.005 726.522C465.981 727.513 464.946 728.597 463.94 729.658C463.464 730.16 462.954 730.7 462.509 731.158C462.112 731.567 461.526 732.165 460.932 732.689L446.369 716.2C446.262 716.294 446.328 716.242 446.714 715.845C447.05 715.497 447.45 715.075 447.976 714.52C448.972 713.47 450.304 712.069 451.71 710.709C453.059 709.404 454.8 707.817 456.647 706.527C457.568 705.884 458.821 705.096 460.305 704.479C461.643 703.922 464.227 703.052 467.393 703.51L464.249 725.284ZM460.932 732.689C436.42 754.338 411.53 778.894 379.807 795.037L369.829 775.429C398.368 760.907 420.543 739.008 446.369 716.2L460.932 732.689ZM466.365 714.777L449.925 729.396L481.411 698.727L466.365 714.777ZM482.805 700.158C482.936 700.305 483.065 700.451 483.193 700.597L450.214 729.723C450.117 729.614 450.021 729.505 449.925 729.396L482.805 700.158ZM483.193 700.597C483.489 700.931 483.071 700.435 482.425 699.808C482.292 699.679 482.046 699.443 481.723 699.156C481.533 698.987 480.737 698.277 479.614 697.502C479.16 697.19 477.719 696.205 475.67 695.342C474.66 694.916 472.592 694.125 469.836 693.783C467.218 693.458 461.762 693.276 456.04 696.615C449.628 700.357 446.678 706.252 445.658 710.823C444.768 714.808 445.215 718.042 445.471 719.476C445.994 722.407 447.007 724.526 447.248 725.033C447.938 726.49 448.643 727.542 448.778 727.745C449.042 728.144 449.264 728.451 449.384 728.613C449.63 728.948 449.829 729.199 449.917 729.308C450.361 729.862 450.758 730.302 451.318 730.827L481.411 698.727C482.549 699.794 483.547 700.914 484.233 701.769C484.35 701.915 484.574 702.197 484.839 702.557C484.967 702.732 485.197 703.05 485.467 703.457C485.607 703.669 486.316 704.728 487.009 706.19C487.25 706.7 488.265 708.82 488.788 711.753C489.044 713.187 489.491 716.422 488.601 720.407C487.581 724.979 484.63 730.874 478.218 734.617C472.496 737.956 467.039 737.773 464.42 737.449C461.664 737.107 459.596 736.315 458.585 735.889C456.534 735.025 455.091 734.04 454.635 733.725C453.507 732.947 452.704 732.231 452.504 732.053C452.172 731.759 451.914 731.512 451.768 731.37C451.015 730.638 450.35 729.877 450.214 729.723L483.193 700.597Z" fill="url(#paint0_linear_2050_2130)" fill-opacity="0.3" mask="url(#path-2-outside-1_2050_2130)"/>
</g>
<defs>
<filter id="filter0_f_2050_2130" x="69.8291" y="140.798" width="1298.43" height="954.239" filterUnits="userSpaceOnUse" color-interpolation-filters="sRGB">
<feFlood flood-opacity="0" result="BackgroundImageFix"/>
<feBlend mode="normal" in="SourceGraphic" in2="BackgroundImageFix" result="shape"/>
<feGaussianBlur stdDeviation="150" result="effect1_foregroundBlur_2050_2130"/>
</filter>
<linearGradient id="paint0_linear_2050_2130" x1="938" y1="811" x2="408.11" y2="730.132" gradientUnits="userSpaceOnUse">
<stop stop-color="#F23E94"/>
<stop offset="1" stop-color="#6927DA"/>
</linearGradient>
</defs>
</svg>
