<svg width="368" height="340" viewBox="0 0 368 340" fill="none" xmlns="http://www.w3.org/2000/svg">
<g clip-path="url(#clip0_468_29747)">
<mask id="mask0_468_29747" style="mask-type:alpha" maskUnits="userSpaceOnUse" x="3" y="0" width="365" height="347">
<rect x="3.00256" width="364" height="347" fill="url(#paint0_linear_468_29747)"/>
</mask>
<g mask="url(#mask0_468_29747)">
<rect x="4.00256" width="11.4394" height="11.4394" rx="3.04698" fill="#3EBE5E"/>
<rect x="17.8796" width="11.4394" height="11.4394" rx="3.04698" fill="#E8EAEE"/>
<rect x="31.7566" width="11.4394" height="11.4394" rx="3.04698" fill="#E8EAEE"/>
<rect x="45.6337" width="11.4394" height="11.4394" rx="3.04698" fill="#E8EAEE"/>
<rect x="59.5107" width="11.4394" height="11.4394" rx="3.04698" fill="#E8EAEE"/>
<rect x="73.3877" width="11.4394" height="11.4394" rx="3.04698" fill="#93E7A2"/>
<rect x="87.2647" width="11.4394" height="11.4394" rx="3.04698" fill="#3EBE5E"/>
<rect x="101.142" width="11.4394" height="11.4394" rx="3.04698" fill="#93E7A2"/>
<rect x="115.019" width="11.4394" height="11.4394" rx="3.04698" fill="#3EBE5E"/>
<rect x="128.896" width="11.4394" height="11.4394" rx="3.04698" fill="#3EBE5E"/>
<rect x="142.773" width="11.4394" height="11.4394" rx="3.04698" fill="#3EBE5E"/>
<rect x="156.65" width="11.4394" height="11.4394" rx="3.04698" fill="#93E7A2"/>
<rect x="170.527" width="11.4394" height="11.4394" rx="3.04698" fill="#93E7A2"/>
<rect x="184.404" width="11.4394" height="11.4394" rx="3.04698" fill="#93E7A2"/>
<rect x="198.281" width="11.4394" height="11.4394" rx="3.04698" fill="#93E7A2"/>
<rect x="212.158" width="11.4394" height="11.4394" rx="3.04698" fill="#93E7A2"/>
<rect x="226.035" width="11.4394" height="11.4394" rx="3.04698" fill="#93E7A2"/>
<rect x="239.912" width="11.4394" height="11.4394" rx="3.04698" fill="#216435"/>
<rect x="253.789" width="11.4394" height="11.4394" rx="3.04698" fill="#216435"/>
<rect x="267.666" width="11.4394" height="11.4394" rx="3.04698" fill="#216435"/>
<rect x="281.543" width="11.4394" height="11.4394" rx="3.04698" fill="#93E7A2"/>
<rect x="295.42" width="11.4394" height="11.4394" rx="3.04698" fill="#93E7A2"/>
<rect x="309.297" width="11.4394" height="11.4394" rx="3.04698" fill="#93E7A2"/>
<rect x="323.174" width="11.4394" height="11.4394" rx="3.04698" fill="#93E7A2"/>
<rect x="337.051" width="11.4394" height="11.4394" rx="3.04698" fill="#93E7A2"/>
<rect x="350.928" width="11.4394" height="11.4394" rx="3.04698" fill="#93E7A2"/>
<rect x="4.00256" y="13.877" width="11.4394" height="11.4394" rx="3.04698" fill="#216435"/>
<rect x="17.8796" y="13.877" width="11.4394" height="11.4394" rx="3.04698" fill="#216435"/>
<rect x="31.7566" y="13.877" width="11.4394" height="11.4394" rx="3.04698" fill="#216435"/>
<rect x="45.6337" y="13.877" width="11.4394" height="11.4394" rx="3.04698" fill="#93E7A2"/>
<rect x="59.5107" y="13.877" width="11.4394" height="11.4394" rx="3.04698" fill="#93E7A2"/>
<rect x="73.3877" y="13.877" width="11.4394" height="11.4394" rx="3.04698" fill="#93E7A2"/>
<rect x="87.2647" y="13.877" width="11.4394" height="11.4394" rx="3.04698" fill="#216435"/>
<rect x="101.142" y="13.877" width="11.4394" height="11.4394" rx="3.04698" fill="#216435"/>
<rect x="115.019" y="13.877" width="11.4394" height="11.4394" rx="3.04698" fill="#216435"/>
<rect x="128.896" y="13.877" width="11.4394" height="11.4394" rx="3.04698" fill="#93E7A2"/>
<rect x="142.773" y="13.877" width="11.4394" height="11.4394" rx="3.04698" fill="#93E7A2"/>
<rect x="156.65" y="13.877" width="11.4394" height="11.4394" rx="3.04698" fill="#E8EAEE"/>
<rect x="170.527" y="13.877" width="11.4394" height="11.4394" rx="3.04698" fill="#E8EAEE"/>
<rect x="184.404" y="13.877" width="11.4394" height="11.4394" rx="3.04698" fill="#E8EAEE"/>
<rect x="198.281" y="13.877" width="11.4394" height="11.4394" rx="3.04698" fill="#93E7A2"/>
<rect x="212.158" y="13.877" width="11.4394" height="11.4394" rx="3.04698" fill="#93E7A2"/>
<rect x="226.035" y="13.877" width="11.4394" height="11.4394" rx="3.04698" fill="#93E7A2"/>
<rect x="239.912" y="13.877" width="11.4394" height="11.4394" rx="3.04698" fill="#93E7A2"/>
<rect x="253.789" y="13.877" width="11.4394" height="11.4394" rx="3.04698" fill="#93E7A2"/>
<rect x="267.666" y="13.877" width="11.4394" height="11.4394" rx="3.04698" fill="#93E7A2"/>
<rect x="281.543" y="13.877" width="11.4394" height="11.4394" rx="3.04698" fill="#93E7A2"/>
<rect x="295.42" y="13.877" width="11.4394" height="11.4394" rx="3.04698" fill="#93E7A2"/>
<rect x="309.297" y="13.877" width="11.4394" height="11.4394" rx="3.04698" fill="#93E7A2"/>
<rect x="323.174" y="13.877" width="11.4394" height="11.4394" rx="3.04698" fill="#93E7A2"/>
<rect x="337.051" y="13.877" width="11.4394" height="11.4394" rx="3.04698" fill="#93E7A2"/>
<rect x="350.928" y="13.877" width="11.4394" height="11.4394" rx="3.04698" fill="#93E7A2"/>
<rect x="4.00256" y="27.7539" width="11.4394" height="11.4394" rx="3.04698" fill="#3EBE5E"/>
<rect x="17.8796" y="27.7539" width="11.4394" height="11.4394" rx="3.04698" fill="#3EBE5E"/>
<rect x="31.7566" y="27.7539" width="11.4394" height="11.4394" rx="3.04698" fill="#3EBE5E"/>
<rect x="45.6337" y="27.7539" width="11.4394" height="11.4394" rx="3.04698" fill="#3EBE5E"/>
<rect x="59.5107" y="27.7539" width="11.4394" height="11.4394" rx="3.04698" fill="#3EBE5E"/>
<rect x="73.3877" y="27.7539" width="11.4394" height="11.4394" rx="3.04698" fill="#3EBE5E"/>
<rect x="87.2647" y="27.7539" width="11.4394" height="11.4394" rx="3.04698" fill="#93E7A2"/>
<rect x="101.142" y="27.7539" width="11.4394" height="11.4394" rx="3.04698" fill="#93E7A2"/>
<rect x="115.019" y="27.7539" width="11.4394" height="11.4394" rx="3.04698" fill="#93E7A2"/>
<rect x="128.896" y="27.7539" width="11.4394" height="11.4394" rx="3.04698" fill="#93E7A2"/>
<rect x="142.773" y="27.7539" width="11.4394" height="11.4394" rx="3.04698" fill="#93E7A2"/>
<rect x="156.65" y="27.7539" width="11.4394" height="11.4394" rx="3.04698" fill="#93E7A2"/>
<rect x="170.527" y="27.7539" width="11.4394" height="11.4394" rx="3.04698" fill="#93E7A2"/>
<rect x="184.404" y="27.7539" width="11.4394" height="11.4394" rx="3.04698" fill="#93E7A2"/>
<rect x="198.281" y="27.7539" width="11.4394" height="11.4394" rx="3.04698" fill="#93E7A2"/>
<rect x="212.158" y="27.7539" width="11.4394" height="11.4394" rx="3.04698" fill="#93E7A2"/>
<rect x="226.035" y="27.7539" width="11.4394" height="11.4394" rx="3.04698" fill="#93E7A2"/>
<rect x="239.912" y="27.7539" width="11.4394" height="11.4394" rx="3.04698" fill="#93E7A2"/>
<rect x="253.789" y="27.7539" width="11.4394" height="11.4394" rx="3.04698" fill="#93E7A2"/>
<rect x="267.666" y="27.7539" width="11.4394" height="11.4394" rx="3.04698" fill="#93E7A2"/>
<rect x="281.543" y="27.7539" width="11.4394" height="11.4394" rx="3.04698" fill="#93E7A2"/>
<rect x="295.42" y="27.7539" width="11.4394" height="11.4394" rx="3.04698" fill="#93E7A2"/>
<rect x="309.297" y="27.7539" width="11.4394" height="11.4394" rx="3.04698" fill="#93E7A2"/>
<rect x="323.174" y="27.7539" width="11.4394" height="11.4394" rx="3.04698" fill="#93E7A2"/>
<rect x="337.051" y="27.7539" width="11.4394" height="11.4394" rx="3.04698" fill="#93E7A2"/>
<rect x="350.928" y="27.7539" width="11.4394" height="11.4394" rx="3.04698" fill="#E8EAEE"/>
<rect x="4.00256" y="41.6309" width="11.4394" height="11.4394" rx="3.04698" fill="#E8EAEE"/>
<rect x="17.8796" y="41.6309" width="11.4394" height="11.4394" rx="3.04698" fill="#E8EAEE"/>
<rect x="31.7566" y="41.6309" width="11.4394" height="11.4394" rx="3.04698" fill="#E8EAEE"/>
<rect x="45.6337" y="41.6309" width="11.4394" height="11.4394" rx="3.04698" fill="#E8EAEE"/>
<rect x="59.5107" y="41.6309" width="11.4394" height="11.4394" rx="3.04698" fill="#E8EAEE"/>
<rect x="73.3877" y="41.6309" width="11.4394" height="11.4394" rx="3.04698" fill="#E8EAEE"/>
<rect x="87.2647" y="41.6309" width="11.4394" height="11.4394" rx="3.04698" fill="#E8EAEE"/>
<rect x="101.142" y="41.6309" width="11.4394" height="11.4394" rx="3.04698" fill="#E8EAEE"/>
<rect x="115.019" y="41.6309" width="11.4394" height="11.4394" rx="3.04698" fill="#E8EAEE"/>
<rect x="128.896" y="41.6309" width="11.4394" height="11.4394" rx="3.04698" fill="#E8EAEE"/>
<rect x="142.773" y="41.6309" width="11.4394" height="11.4394" rx="3.04698" fill="#E8EAEE"/>
<rect x="156.65" y="41.6309" width="11.4394" height="11.4394" rx="3.04698" fill="#E8EAEE"/>
<rect x="170.527" y="41.6309" width="11.4394" height="11.4394" rx="3.04698" fill="#E8EAEE"/>
<rect x="184.404" y="41.6309" width="11.4394" height="11.4394" rx="3.04698" fill="#93E7A2"/>
<rect x="198.281" y="41.6309" width="11.4394" height="11.4394" rx="3.04698" fill="#93E7A2"/>
<rect x="212.158" y="41.6309" width="11.4394" height="11.4394" rx="3.04698" fill="#93E7A2"/>
<rect x="226.035" y="41.6309" width="11.4394" height="11.4394" rx="3.04698" fill="#93E7A2"/>
<rect x="239.912" y="41.6309" width="11.4394" height="11.4394" rx="3.04698" fill="#93E7A2"/>
<rect x="253.789" y="41.6309" width="11.4394" height="11.4394" rx="3.04698" fill="#93E7A2"/>
<rect x="267.666" y="41.6309" width="11.4394" height="11.4394" rx="3.04698" fill="#93E7A2"/>
<rect x="281.543" y="41.6309" width="11.4394" height="11.4394" rx="3.04698" fill="#93E7A2"/>
<rect x="295.42" y="41.6309" width="11.4394" height="11.4394" rx="3.04698" fill="#93E7A2"/>
<rect x="309.297" y="41.6309" width="11.4394" height="11.4394" rx="3.04698" fill="#93E7A2"/>
<rect x="323.174" y="41.6309" width="11.4394" height="11.4394" rx="3.04698" fill="#93E7A2"/>
<rect x="337.051" y="41.6309" width="11.4394" height="11.4394" rx="3.04698" fill="#93E7A2"/>
<rect x="350.928" y="41.6309" width="11.4394" height="11.4394" rx="3.04698" fill="#93E7A2"/>
<rect x="4.00256" y="55.5083" width="11.4394" height="11.4394" rx="3.04698" fill="#93E7A2"/>
<rect x="17.8796" y="55.5083" width="11.4394" height="11.4394" rx="3.04698" fill="#93E7A2"/>
<rect x="31.7566" y="55.5083" width="11.4394" height="11.4394" rx="3.04698" fill="#93E7A2"/>
<rect x="45.6337" y="55.5083" width="11.4394" height="11.4394" rx="3.04698" fill="#93E7A2"/>
<rect x="59.5107" y="55.5083" width="11.4394" height="11.4394" rx="3.04698" fill="#93E7A2"/>
<rect x="73.3877" y="55.5083" width="11.4394" height="11.4394" rx="3.04698" fill="#93E7A2"/>
<rect x="87.2647" y="55.5083" width="11.4394" height="11.4394" rx="3.04698" fill="#93E7A2"/>
<rect x="101.142" y="55.5083" width="11.4394" height="11.4394" rx="3.04698" fill="#93E7A2"/>
<rect x="115.019" y="55.5083" width="11.4394" height="11.4394" rx="3.04698" fill="#E8EAEE"/>
<rect x="128.896" y="55.5083" width="11.4394" height="11.4394" rx="3.04698" fill="#E8EAEE"/>
<rect x="142.773" y="55.5083" width="11.4394" height="11.4394" rx="3.04698" fill="#E8EAEE"/>
<rect x="156.65" y="55.5083" width="11.4394" height="11.4394" rx="3.04698" fill="#E8EAEE"/>
<rect x="170.527" y="55.5083" width="11.4394" height="11.4394" rx="3.04698" fill="#E8EAEE"/>
<rect x="184.404" y="55.5083" width="11.4394" height="11.4394" rx="3.04698" fill="#216435"/>
<rect x="198.281" y="55.5083" width="11.4394" height="11.4394" rx="3.04698" fill="#E8EAEE"/>
<rect x="212.158" y="55.5083" width="11.4394" height="11.4394" rx="3.04698" fill="#E8EAEE"/>
<rect x="226.035" y="55.5083" width="11.4394" height="11.4394" rx="3.04698" fill="#216435"/>
<rect x="239.912" y="55.5083" width="11.4394" height="11.4394" rx="3.04698" fill="#E8EAEE"/>
<rect x="253.789" y="55.5083" width="11.4394" height="11.4394" rx="3.04698" fill="#216435"/>
<rect x="267.666" y="55.5083" width="11.4394" height="11.4394" rx="3.04698" fill="#E8EAEE"/>
<rect x="281.543" y="55.5083" width="11.4394" height="11.4394" rx="3.04698" fill="#E8EAEE"/>
<rect x="295.42" y="55.5083" width="11.4394" height="11.4394" rx="3.04698" fill="#E8EAEE"/>
<rect x="309.297" y="55.5083" width="11.4394" height="11.4394" rx="3.04698" fill="#93E7A2"/>
<rect x="323.174" y="55.5083" width="11.4394" height="11.4394" rx="3.04698" fill="#93E7A2"/>
<rect x="337.051" y="55.5083" width="11.4394" height="11.4394" rx="3.04698" fill="#93E7A2"/>
<rect x="350.928" y="55.5083" width="11.4394" height="11.4394" rx="3.04698" fill="#93E7A2"/>
<rect x="4.00256" y="69.3853" width="11.4394" height="11.4394" rx="3.04698" fill="#93E7A2"/>
<rect x="17.8796" y="69.3853" width="11.4394" height="11.4394" rx="3.04698" fill="#93E7A2"/>
<rect x="31.7566" y="69.3853" width="11.4394" height="11.4394" rx="3.04698" fill="#93E7A2"/>
<rect x="45.6337" y="69.3853" width="11.4394" height="11.4394" rx="3.04698" fill="#93E7A2"/>
<rect x="59.5107" y="69.3853" width="11.4394" height="11.4394" rx="3.04698" fill="#93E7A2"/>
<rect x="73.3877" y="69.3853" width="11.4394" height="11.4394" rx="3.04698" fill="#93E7A2"/>
<rect x="87.2647" y="69.3853" width="11.4394" height="11.4394" rx="3.04698" fill="#93E7A2"/>
<rect x="101.142" y="69.3853" width="11.4394" height="11.4394" rx="3.04698" fill="#93E7A2"/>
<rect x="115.019" y="69.3853" width="11.4394" height="11.4394" rx="3.04698" fill="#93E7A2"/>
<rect x="128.896" y="69.3853" width="11.4394" height="11.4394" rx="3.04698" fill="#93E7A2"/>
<rect x="142.773" y="69.3853" width="11.4394" height="11.4394" rx="3.04698" fill="#3EBE5E"/>
<rect x="156.65" y="69.3853" width="11.4394" height="11.4394" rx="3.04698" fill="#3EBE5E"/>
<rect x="170.527" y="69.3853" width="11.4394" height="11.4394" rx="3.04698" fill="#3EBE5E"/>
<rect x="184.404" y="69.3853" width="11.4394" height="11.4394" rx="3.04698" fill="#3EBE5E"/>
<rect x="198.281" y="69.3853" width="11.4394" height="11.4394" rx="3.04698" fill="#3EBE5E"/>
<rect x="212.158" y="69.3853" width="11.4394" height="11.4394" rx="3.04698" fill="#3EBE5E"/>
<rect x="226.035" y="69.3853" width="11.4394" height="11.4394" rx="3.04698" fill="#3EBE5E"/>
<rect x="239.912" y="69.3853" width="11.4394" height="11.4394" rx="3.04698" fill="#93E7A2"/>
<rect x="253.789" y="69.3853" width="11.4394" height="11.4394" rx="3.04698" fill="#93E7A2"/>
<rect x="267.666" y="69.3853" width="11.4394" height="11.4394" rx="3.04698" fill="#93E7A2"/>
<rect x="281.543" y="69.3853" width="11.4394" height="11.4394" rx="3.04698" fill="#93E7A2"/>
<rect x="295.42" y="69.3853" width="11.4394" height="11.4394" rx="3.04698" fill="#93E7A2"/>
<rect x="309.297" y="69.3853" width="11.4394" height="11.4394" rx="3.04698" fill="#93E7A2"/>
<rect x="323.174" y="69.3853" width="11.4394" height="11.4394" rx="3.04698" fill="#93E7A2"/>
<rect x="337.051" y="69.3853" width="11.4394" height="11.4394" rx="3.04698" fill="#93E7A2"/>
<rect x="350.928" y="69.3853" width="11.4394" height="11.4394" rx="3.04698" fill="#93E7A2"/>
<rect x="4.00256" y="83.2622" width="11.4394" height="11.4394" rx="3.04698" fill="#93E7A2"/>
<rect x="17.8796" y="83.2622" width="11.4394" height="11.4394" rx="3.04698" fill="#93E7A2"/>
<rect x="31.7566" y="83.2622" width="11.4394" height="11.4394" rx="3.04698" fill="#E8EAEE"/>
<rect x="45.6337" y="83.2622" width="11.4394" height="11.4394" rx="3.04698" fill="#E8EAEE"/>
<rect x="59.5107" y="83.2622" width="11.4394" height="11.4394" rx="3.04698" fill="#E8EAEE"/>
<rect x="73.3877" y="83.2622" width="11.4394" height="11.4394" rx="3.04698" fill="#E8EAEE"/>
<rect x="87.2647" y="83.2622" width="11.4394" height="11.4394" rx="3.04698" fill="#E8EAEE"/>
<rect x="101.142" y="83.2622" width="11.4394" height="11.4394" rx="3.04698" fill="#E8EAEE"/>
<rect x="115.019" y="83.2622" width="11.4394" height="11.4394" rx="3.04698" fill="#E8EAEE"/>
<rect x="128.896" y="83.2622" width="11.4394" height="11.4394" rx="3.04698" fill="#3EBE5E"/>
<rect x="142.773" y="83.2622" width="11.4394" height="11.4394" rx="3.04698" fill="#3EBE5E"/>
<rect x="156.65" y="83.2622" width="11.4394" height="11.4394" rx="3.04698" fill="#3EBE5E"/>
<rect x="170.527" y="83.2622" width="11.4394" height="11.4394" rx="3.04698" fill="#93E7A2"/>
<rect x="184.404" y="83.2622" width="11.4394" height="11.4394" rx="3.04698" fill="#93E7A2"/>
<rect x="198.281" y="83.2622" width="11.4394" height="11.4394" rx="3.04698" fill="#93E7A2"/>
<rect x="212.158" y="83.2622" width="11.4394" height="11.4394" rx="3.04698" fill="#93E7A2"/>
<rect x="226.035" y="83.2622" width="11.4394" height="11.4394" rx="3.04698" fill="#E8EAEE"/>
<rect x="239.912" y="83.2622" width="11.4394" height="11.4394" rx="3.04698" fill="#E8EAEE"/>
<rect x="253.789" y="83.2622" width="11.4394" height="11.4394" rx="3.04698" fill="#E8EAEE"/>
<rect x="267.666" y="83.2622" width="11.4394" height="11.4394" rx="3.04698" fill="#E8EAEE"/>
<rect x="281.543" y="83.2622" width="11.4394" height="11.4394" rx="3.04698" fill="#E8EAEE"/>
<rect x="295.42" y="83.2622" width="11.4394" height="11.4394" rx="3.04698" fill="#E8EAEE"/>
<rect x="309.297" y="83.2622" width="11.4394" height="11.4394" rx="3.04698" fill="#E8EAEE"/>
<rect x="323.174" y="83.2622" width="11.4394" height="11.4394" rx="3.04698" fill="#93E7A2"/>
<rect x="337.051" y="83.2622" width="11.4394" height="11.4394" rx="3.04698" fill="#93E7A2"/>
<rect x="350.928" y="83.2622" width="11.4394" height="11.4394" rx="3.04698" fill="#93E7A2"/>
<rect x="4.00256" y="97.1392" width="11.4394" height="11.4394" rx="3.04698" fill="#93E7A2"/>
<rect x="17.8796" y="97.1392" width="11.4394" height="11.4394" rx="3.04698" fill="#93E7A2"/>
<rect x="31.7566" y="97.1392" width="11.4394" height="11.4394" rx="3.04698" fill="#93E7A2"/>
<rect x="45.6337" y="97.1392" width="11.4394" height="11.4394" rx="3.04698" fill="#93E7A2"/>
<rect x="59.5107" y="97.1392" width="11.4394" height="11.4394" rx="3.04698" fill="#3EBE5E"/>
<rect x="73.3877" y="97.1392" width="11.4394" height="11.4394" rx="3.04698" fill="#3EBE5E"/>
<rect x="87.2647" y="97.1392" width="11.4394" height="11.4394" rx="3.04698" fill="#3EBE5E"/>
<rect x="101.142" y="97.1392" width="11.4394" height="11.4394" rx="3.04698" fill="#3EBE5E"/>
<rect x="115.019" y="97.1392" width="11.4394" height="11.4394" rx="3.04698" fill="#3EBE5E"/>
<rect x="128.896" y="97.1392" width="11.4394" height="11.4394" rx="3.04698" fill="#3EBE5E"/>
<rect x="142.773" y="97.1392" width="11.4394" height="11.4394" rx="3.04698" fill="#3EBE5E"/>
<rect x="156.65" y="97.1392" width="11.4394" height="11.4394" rx="3.04698" fill="#E8EAEE"/>
<rect x="170.527" y="97.1392" width="11.4394" height="11.4394" rx="3.04698" fill="#E8EAEE"/>
<rect x="184.404" y="97.1392" width="11.4394" height="11.4394" rx="3.04698" fill="#E8EAEE"/>
<rect x="198.281" y="97.1392" width="11.4394" height="11.4394" rx="3.04698" fill="#E8EAEE"/>
<rect x="212.158" y="97.1392" width="11.4394" height="11.4394" rx="3.04698" fill="#E8EAEE"/>
<rect x="226.035" y="97.1392" width="11.4394" height="11.4394" rx="3.04698" fill="#E8EAEE"/>
<rect x="239.912" y="97.1392" width="11.4394" height="11.4394" rx="3.04698" fill="#E8EAEE"/>
<rect x="253.789" y="97.1392" width="11.4394" height="11.4394" rx="3.04698" fill="#E8EAEE"/>
<rect x="267.666" y="97.1392" width="11.4394" height="11.4394" rx="3.04698" fill="#93E7A2"/>
<rect x="281.543" y="97.1392" width="11.4394" height="11.4394" rx="3.04698" fill="#2F984A"/>
<rect x="295.42" y="97.1392" width="11.4394" height="11.4394" rx="3.04698" fill="#93E7A2"/>
<rect x="309.297" y="97.1392" width="11.4394" height="11.4394" rx="3.04698" fill="#E8EAEE"/>
<rect x="323.174" y="97.1392" width="11.4394" height="11.4394" rx="3.04698" fill="#E8EAEE"/>
<rect x="337.051" y="97.1392" width="11.4394" height="11.4394" rx="3.04698" fill="#E8EAEE"/>
<rect x="350.928" y="97.1392" width="11.4394" height="11.4394" rx="3.04698" fill="#216435"/>
<rect x="4.00256" y="111.016" width="11.4394" height="11.4394" rx="3.04698" fill="#216435"/>
<rect x="17.8796" y="111.016" width="11.4394" height="11.4394" rx="3.04698" fill="#216435"/>
<rect x="31.7566" y="111.016" width="11.4394" height="11.4394" rx="3.04698" fill="#3EBE5E"/>
<rect x="45.6337" y="111.016" width="11.4394" height="11.4394" rx="3.04698" fill="#3EBE5E"/>
<rect x="59.5107" y="111.016" width="11.4394" height="11.4394" rx="3.04698" fill="#3EBE5E"/>
<rect x="73.3877" y="111.016" width="11.4394" height="11.4394" rx="3.04698" fill="#216435"/>
<rect x="87.2647" y="111.016" width="11.4394" height="11.4394" rx="3.04698" fill="#216435"/>
<rect x="101.142" y="111.016" width="11.4394" height="11.4394" rx="3.04698" fill="#216435"/>
<rect x="115.019" y="111.016" width="11.4394" height="11.4394" rx="3.04698" fill="#93E7A2"/>
<rect x="128.896" y="111.016" width="11.4394" height="11.4394" rx="3.04698" fill="#93E7A2"/>
<rect x="142.773" y="111.016" width="11.4394" height="11.4394" rx="3.04698" fill="#93E7A2"/>
<rect x="156.65" y="111.016" width="11.4394" height="11.4394" rx="3.04698" fill="#3EBE5E"/>
<rect x="170.527" y="111.016" width="11.4394" height="11.4394" rx="3.04698" fill="#3EBE5E"/>
<rect x="184.404" y="111.016" width="11.4394" height="11.4394" rx="3.04698" fill="#3EBE5E"/>
<rect x="198.281" y="111.016" width="11.4394" height="11.4394" rx="3.04698" fill="#93E7A2"/>
<rect x="212.158" y="111.016" width="11.4394" height="11.4394" rx="3.04698" fill="#93E7A2"/>
<rect x="226.035" y="111.016" width="11.4394" height="11.4394" rx="3.04698" fill="#93E7A2"/>
<rect x="239.912" y="111.016" width="11.4394" height="11.4394" rx="3.04698" fill="#3EBE5E"/>
<rect x="253.789" y="111.016" width="11.4394" height="11.4394" rx="3.04698" fill="#3EBE5E"/>
<rect x="267.666" y="111.016" width="11.4394" height="11.4394" rx="3.04698" fill="#3EBE5E"/>
<rect x="281.543" y="111.016" width="11.4394" height="11.4394" rx="3.04698" fill="#93E7A2"/>
<rect x="295.42" y="111.016" width="11.4394" height="11.4394" rx="3.04698" fill="#93E7A2"/>
<rect x="309.297" y="111.016" width="11.4394" height="11.4394" rx="3.04698" fill="#93E7A2"/>
<rect x="323.174" y="111.016" width="11.4394" height="11.4394" rx="3.04698" fill="#E8EAEE"/>
<rect x="337.051" y="111.016" width="11.4394" height="11.4394" rx="3.04698" fill="#E8EAEE"/>
<rect x="350.928" y="111.016" width="11.4394" height="11.4394" rx="3.04698" fill="#E8EAEE"/>
<rect x="4.00256" y="124.893" width="11.4394" height="11.4394" rx="3.04698" fill="#93E7A2"/>
<rect x="17.8796" y="124.893" width="11.4394" height="11.4394" rx="3.04698" fill="#93E7A2"/>
<rect x="31.7566" y="124.893" width="11.4394" height="11.4394" rx="3.04698" fill="#93E7A2"/>
<rect x="45.6337" y="124.893" width="11.4394" height="11.4394" rx="3.04698" fill="#3EBE5E"/>
<rect x="59.5107" y="124.893" width="11.4394" height="11.4394" rx="3.04698" fill="#3EBE5E"/>
<rect x="73.3877" y="124.893" width="11.4394" height="11.4394" rx="3.04698" fill="#3EBE5E"/>
<rect x="87.2647" y="124.893" width="11.4394" height="11.4394" rx="3.04698" fill="#93E7A2"/>
<rect x="101.142" y="124.893" width="11.4394" height="11.4394" rx="3.04698" fill="#93E7A2"/>
<rect x="115.019" y="124.893" width="11.4394" height="11.4394" rx="3.04698" fill="#93E7A2"/>
<rect x="128.896" y="124.893" width="11.4394" height="11.4394" rx="3.04698" fill="#E8EAEE"/>
<rect x="142.773" y="124.893" width="11.4394" height="11.4394" rx="3.04698" fill="#E8EAEE"/>
<rect x="156.65" y="124.893" width="11.4394" height="11.4394" rx="3.04698" fill="#E8EAEE"/>
<rect x="170.527" y="124.893" width="11.4394" height="11.4394" rx="3.04698" fill="#2F984A"/>
<rect x="184.404" y="124.893" width="11.4394" height="11.4394" rx="3.04698" fill="#2F984A"/>
<rect x="198.281" y="124.893" width="11.4394" height="11.4394" rx="3.04698" fill="#2F984A"/>
<rect x="212.158" y="124.893" width="11.4394" height="11.4394" rx="3.04698" fill="#3EBE5E"/>
<rect x="226.035" y="124.893" width="11.4394" height="11.4394" rx="3.04698" fill="#3EBE5E"/>
<rect x="239.912" y="124.893" width="11.4394" height="11.4394" rx="3.04698" fill="#3EBE5E"/>
<rect x="253.789" y="124.893" width="11.4394" height="11.4394" rx="3.04698" fill="#3EBE5E"/>
<rect x="267.666" y="124.893" width="11.4394" height="11.4394" rx="3.04698" fill="#3EBE5E"/>
<rect x="281.543" y="124.893" width="11.4394" height="11.4394" rx="3.04698" fill="#3EBE5E"/>
<rect x="295.42" y="124.893" width="11.4394" height="11.4394" rx="3.04698" fill="#3EBE5E"/>
<rect x="309.297" y="124.893" width="11.4394" height="11.4394" rx="3.04698" fill="#3EBE5E"/>
<rect x="323.174" y="124.893" width="11.4394" height="11.4394" rx="3.04698" fill="#3EBE5E"/>
<rect x="337.051" y="124.893" width="11.4394" height="11.4394" rx="3.04698" fill="#3EBE5E"/>
<rect x="350.928" y="124.893" width="11.4394" height="11.4394" rx="3.04698" fill="#3EBE5E"/>
<rect x="4.00256" y="138.771" width="11.4394" height="11.4394" rx="3.04698" fill="#3EBE5E"/>
<rect x="17.8796" y="138.771" width="11.4394" height="11.4394" rx="3.04698" fill="#3EBE5E"/>
<rect x="31.7566" y="138.771" width="11.4394" height="11.4394" rx="3.04698" fill="#3EBE5E"/>
<rect x="45.6337" y="138.771" width="11.4394" height="11.4394" rx="3.04698" fill="#3EBE5E"/>
<rect x="59.5107" y="138.771" width="11.4394" height="11.4394" rx="3.04698" fill="#93E7A2"/>
<rect x="73.3877" y="138.771" width="11.4394" height="11.4394" rx="3.04698" fill="#93E7A2"/>
<rect x="87.2647" y="138.771" width="11.4394" height="11.4394" rx="3.04698" fill="#93E7A2"/>
<rect x="101.142" y="138.771" width="11.4394" height="11.4394" rx="3.04698" fill="#2F984A"/>
<rect x="115.019" y="138.771" width="11.4394" height="11.4394" rx="3.04698" fill="#2F984A"/>
<rect x="128.896" y="138.771" width="11.4394" height="11.4394" rx="3.04698" fill="#2F984A"/>
<rect x="142.773" y="138.771" width="11.4394" height="11.4394" rx="3.04698" fill="#E8EAEE"/>
<rect x="156.65" y="138.771" width="11.4394" height="11.4394" rx="3.04698" fill="#E8EAEE"/>
<rect x="170.527" y="138.771" width="11.4394" height="11.4394" rx="3.04698" fill="#E8EAEE"/>
<rect x="184.404" y="138.771" width="11.4394" height="11.4394" rx="3.04698" fill="#3EBE5E"/>
<rect x="198.281" y="138.771" width="11.4394" height="11.4394" rx="3.04698" fill="#3EBE5E"/>
<rect x="212.158" y="138.771" width="11.4394" height="11.4394" rx="3.04698" fill="#3EBE5E"/>
<rect x="226.035" y="138.771" width="11.4394" height="11.4394" rx="3.04698" fill="#3EBE5E"/>
<rect x="239.912" y="138.771" width="11.4394" height="11.4394" rx="3.04698" fill="#3EBE5E"/>
<rect x="253.789" y="138.771" width="11.4394" height="11.4394" rx="3.04698" fill="#3EBE5E"/>
<rect x="267.666" y="138.771" width="11.4394" height="11.4394" rx="3.04698" fill="#3EBE5E"/>
<rect x="281.543" y="138.771" width="11.4394" height="11.4394" rx="3.04698" fill="#3EBE5E"/>
<rect x="295.42" y="138.771" width="11.4394" height="11.4394" rx="3.04698" fill="#3EBE5E"/>
<rect x="309.297" y="138.771" width="11.4394" height="11.4394" rx="3.04698" fill="#3EBE5E"/>
<rect x="323.174" y="138.771" width="11.4394" height="11.4394" rx="3.04698" fill="#3EBE5E"/>
<rect x="337.051" y="138.771" width="11.4394" height="11.4394" rx="3.04698" fill="#93E7A2"/>
<rect x="350.928" y="138.771" width="11.4394" height="11.4394" rx="3.04698" fill="#93E7A2"/>
<rect x="4.00256" y="152.647" width="11.4394" height="11.4394" rx="3.04698" fill="#93E7A2"/>
<rect x="17.8796" y="152.647" width="11.4394" height="11.4394" rx="3.04698" fill="#93E7A2"/>
<rect x="31.7566" y="152.647" width="11.4394" height="11.4394" rx="3.04698" fill="#93E7A2"/>
<rect x="45.6337" y="152.647" width="11.4394" height="11.4394" rx="3.04698" fill="#93E7A2"/>
<rect x="59.5107" y="152.647" width="11.4394" height="11.4394" rx="3.04698" fill="#93E7A2"/>
<rect x="73.3877" y="152.647" width="11.4394" height="11.4394" rx="3.04698" fill="#93E7A2"/>
<rect x="87.2647" y="152.647" width="11.4394" height="11.4394" rx="3.04698" fill="#93E7A2"/>
<rect x="101.142" y="152.647" width="11.4394" height="11.4394" rx="3.04698" fill="#93E7A2"/>
<rect x="115.019" y="152.647" width="11.4394" height="11.4394" rx="3.04698" fill="#93E7A2"/>
<rect x="128.896" y="152.647" width="11.4394" height="11.4394" rx="3.04698" fill="#93E7A2"/>
<rect x="142.773" y="152.647" width="11.4394" height="11.4394" rx="3.04698" fill="#93E7A2"/>
<rect x="156.65" y="152.647" width="11.4394" height="11.4394" rx="3.04698" fill="#93E7A2"/>
<rect x="170.527" y="152.647" width="11.4394" height="11.4394" rx="3.04698" fill="#E8EAEE"/>
<rect x="184.404" y="152.647" width="11.4394" height="11.4394" rx="3.04698" fill="#E8EAEE"/>
<rect x="198.281" y="152.647" width="11.4394" height="11.4394" rx="3.04698" fill="#E8EAEE"/>
<rect x="212.158" y="152.647" width="11.4394" height="11.4394" rx="3.04698" fill="#E8EAEE"/>
<rect x="226.035" y="152.647" width="11.4394" height="11.4394" rx="3.04698" fill="#E8EAEE"/>
<rect x="239.912" y="152.647" width="11.4394" height="11.4394" rx="3.04698" fill="#E8EAEE"/>
<rect x="253.789" y="152.647" width="11.4394" height="11.4394" rx="3.04698" fill="#E8EAEE"/>
<rect x="267.666" y="152.647" width="11.4394" height="11.4394" rx="3.04698" fill="#93E7A2"/>
<rect x="281.543" y="152.647" width="11.4394" height="11.4394" rx="3.04698" fill="#93E7A2"/>
<rect x="295.42" y="152.647" width="11.4394" height="11.4394" rx="3.04698" fill="#93E7A2"/>
<rect x="309.297" y="152.647" width="11.4394" height="11.4394" rx="3.04698" fill="#93E7A2"/>
<rect x="323.174" y="152.647" width="11.4394" height="11.4394" rx="3.04698" fill="#93E7A2"/>
<rect x="337.051" y="152.647" width="11.4394" height="11.4394" rx="3.04698" fill="#93E7A2"/>
<rect x="350.928" y="152.647" width="11.4394" height="11.4394" rx="3.04698" fill="#93E7A2"/>
<rect x="4.00256" y="166.524" width="11.4394" height="11.4394" rx="3.04698" fill="#93E7A2"/>
<rect x="17.8796" y="166.524" width="11.4394" height="11.4394" rx="3.04698" fill="#93E7A2"/>
<rect x="31.7566" y="166.524" width="11.4394" height="11.4394" rx="3.04698" fill="#93E7A2"/>
<rect x="45.6337" y="166.524" width="11.4394" height="11.4394" rx="3.04698" fill="#2F984A"/>
<rect x="59.5107" y="166.524" width="11.4394" height="11.4394" rx="3.04698" fill="#2F984A"/>
<rect x="73.3877" y="166.524" width="11.4394" height="11.4394" rx="3.04698" fill="#2F984A"/>
<rect x="87.2647" y="166.524" width="11.4394" height="11.4394" rx="3.04698" fill="#E8EAEE"/>
<rect x="101.142" y="166.524" width="11.4394" height="11.4394" rx="3.04698" fill="#E8EAEE"/>
<rect x="115.019" y="166.524" width="11.4394" height="11.4394" rx="3.04698" fill="#E8EAEE"/>
<rect x="128.896" y="166.524" width="11.4394" height="11.4394" rx="3.04698" fill="#E8EAEE"/>
<rect x="142.773" y="166.524" width="11.4394" height="11.4394" rx="3.04698" fill="#E8EAEE"/>
<rect x="156.65" y="166.524" width="11.4394" height="11.4394" rx="3.04698" fill="#E8EAEE"/>
<rect x="170.527" y="166.524" width="11.4394" height="11.4394" rx="3.04698" fill="#93E7A2"/>
<rect x="184.404" y="166.524" width="11.4394" height="11.4394" rx="3.04698" fill="#93E7A2"/>
<rect x="198.281" y="166.524" width="11.4394" height="11.4394" rx="3.04698" fill="#93E7A2"/>
<rect x="212.158" y="166.524" width="11.4394" height="11.4394" rx="3.04698" fill="#93E7A2"/>
<rect x="226.035" y="166.524" width="11.4394" height="11.4394" rx="3.04698" fill="#93E7A2"/>
<rect x="239.912" y="166.524" width="11.4394" height="11.4394" rx="3.04698" fill="#93E7A2"/>
<rect x="253.789" y="166.524" width="11.4394" height="11.4394" rx="3.04698" fill="#93E7A2"/>
<rect x="267.666" y="166.524" width="11.4394" height="11.4394" rx="3.04698" fill="#93E7A2"/>
<rect x="281.543" y="166.524" width="11.4394" height="11.4394" rx="3.04698" fill="#93E7A2"/>
<rect x="295.42" y="166.524" width="11.4394" height="11.4394" rx="3.04698" fill="#E8EAEE"/>
<rect x="309.297" y="166.524" width="11.4394" height="11.4394" rx="3.04698" fill="#E8EAEE"/>
<rect x="323.174" y="166.524" width="11.4394" height="11.4394" rx="3.04698" fill="#E8EAEE"/>
<rect x="337.051" y="166.524" width="11.4394" height="11.4394" rx="3.04698" fill="#93E7A2"/>
<rect x="350.928" y="166.524" width="11.4394" height="11.4394" rx="3.04698" fill="#93E7A2"/>
<rect x="4.00256" y="180.401" width="11.4394" height="11.4394" rx="3.04698" fill="#93E7A2"/>
<rect x="17.8796" y="180.401" width="11.4394" height="11.4394" rx="3.04698" fill="#E8EAEE"/>
<rect x="31.7566" y="180.401" width="11.4394" height="11.4394" rx="3.04698" fill="#E8EAEE"/>
<rect x="45.6337" y="180.401" width="11.4394" height="11.4394" rx="3.04698" fill="#E8EAEE"/>
<rect x="59.5107" y="180.401" width="11.4394" height="11.4394" rx="3.04698" fill="#E8EAEE"/>
<rect x="73.3877" y="180.401" width="11.4394" height="11.4394" rx="3.04698" fill="#E8EAEE"/>
<rect x="87.2647" y="180.401" width="11.4394" height="11.4394" rx="3.04698" fill="#E8EAEE"/>
<rect x="101.142" y="180.401" width="11.4394" height="11.4394" rx="3.04698" fill="#93E7A2"/>
<rect x="115.019" y="180.401" width="11.4394" height="11.4394" rx="3.04698" fill="#93E7A2"/>
<rect x="128.896" y="180.401" width="11.4394" height="11.4394" rx="3.04698" fill="#93E7A2"/>
<rect x="142.773" y="180.401" width="11.4394" height="11.4394" rx="3.04698" fill="#3EBE5E"/>
<rect x="156.65" y="180.401" width="11.4394" height="11.4394" rx="3.04698" fill="#3EBE5E"/>
<rect x="170.527" y="180.401" width="11.4394" height="11.4394" rx="3.04698" fill="#3EBE5E"/>
<rect x="184.404" y="180.401" width="11.4394" height="11.4394" rx="3.04698" fill="#E8EAEE"/>
<rect x="198.281" y="180.401" width="11.4394" height="11.4394" rx="3.04698" fill="#E8EAEE"/>
<rect x="212.158" y="180.401" width="11.4394" height="11.4394" rx="3.04698" fill="#E8EAEE"/>
<rect x="226.035" y="180.401" width="11.4394" height="11.4394" rx="3.04698" fill="#93E7A2"/>
<rect x="239.912" y="180.401" width="11.4394" height="11.4394" rx="3.04698" fill="#93E7A2"/>
<rect x="253.789" y="180.401" width="11.4394" height="11.4394" rx="3.04698" fill="#93E7A2"/>
<rect x="267.666" y="180.401" width="11.4394" height="11.4394" rx="3.04698" fill="#93E7A2"/>
<rect x="281.543" y="180.401" width="11.4394" height="11.4394" rx="3.04698" fill="#93E7A2"/>
<rect x="295.42" y="180.401" width="11.4394" height="11.4394" rx="3.04698" fill="#93E7A2"/>
<rect x="309.297" y="180.401" width="11.4394" height="11.4394" rx="3.04698" fill="#E8EAEE"/>
<rect x="323.174" y="180.401" width="11.4394" height="11.4394" rx="3.04698" fill="#E8EAEE"/>
<rect x="337.051" y="180.401" width="11.4394" height="11.4394" rx="3.04698" fill="#E8EAEE"/>
<rect x="350.928" y="180.401" width="11.4394" height="11.4394" rx="3.04698" fill="#E8EAEE"/>
<rect x="4.00256" y="194.278" width="11.4394" height="11.4394" rx="3.04698" fill="#E8EAEE"/>
<rect x="17.8796" y="194.278" width="11.4394" height="11.4394" rx="3.04698" fill="#E8EAEE"/>
<rect x="31.7566" y="194.278" width="11.4394" height="11.4394" rx="3.04698" fill="#E8EAEE"/>
<rect x="45.6337" y="194.278" width="11.4394" height="11.4394" rx="3.04698" fill="#E8EAEE"/>
<rect x="59.5107" y="194.278" width="11.4394" height="11.4394" rx="3.04698" fill="#E8EAEE"/>
<rect x="73.3877" y="194.278" width="11.4394" height="11.4394" rx="3.04698" fill="#3EBE5E"/>
<rect x="87.2647" y="194.278" width="11.4394" height="11.4394" rx="3.04698" fill="#3EBE5E"/>
<rect x="101.142" y="194.278" width="11.4394" height="11.4394" rx="3.04698" fill="#3EBE5E"/>
<rect x="115.019" y="194.278" width="11.4394" height="11.4394" rx="3.04698" fill="#E8EAEE"/>
<rect x="128.896" y="194.278" width="11.4394" height="11.4394" rx="3.04698" fill="#E8EAEE"/>
<rect x="142.773" y="194.278" width="11.4394" height="11.4394" rx="3.04698" fill="#E8EAEE"/>
<rect x="156.65" y="194.278" width="11.4394" height="11.4394" rx="3.04698" fill="#2F984A"/>
<rect x="170.527" y="194.278" width="11.4394" height="11.4394" rx="3.04698" fill="#2F984A"/>
<rect x="184.404" y="194.278" width="11.4394" height="11.4394" rx="3.04698" fill="#2F984A"/>
<rect x="198.281" y="194.278" width="11.4394" height="11.4394" rx="3.04698" fill="#E8EAEE"/>
<rect x="212.158" y="194.278" width="11.4394" height="11.4394" rx="3.04698" fill="#E8EAEE"/>
<rect x="226.035" y="194.278" width="11.4394" height="11.4394" rx="3.04698" fill="#E8EAEE"/>
<rect x="239.912" y="194.278" width="11.4394" height="11.4394" rx="3.04698" fill="#E8EAEE"/>
<rect x="253.789" y="194.278" width="11.4394" height="11.4394" rx="3.04698" fill="#E8EAEE"/>
<rect x="267.666" y="194.278" width="11.4394" height="11.4394" rx="3.04698" fill="#E8EAEE"/>
<rect x="281.543" y="194.278" width="11.4394" height="11.4394" rx="3.04698" fill="#3EBE5E"/>
<rect x="295.42" y="194.278" width="11.4394" height="11.4394" rx="3.04698" fill="#3EBE5E"/>
<rect x="309.297" y="194.278" width="11.4394" height="11.4394" rx="3.04698" fill="#3EBE5E"/>
<rect x="323.174" y="194.278" width="11.4394" height="11.4394" rx="3.04698" fill="#E8EAEE"/>
<rect x="337.051" y="194.278" width="11.4394" height="11.4394" rx="3.04698" fill="#E8EAEE"/>
<rect x="350.928" y="194.278" width="11.4394" height="11.4394" rx="3.04698" fill="#E8EAEE"/>
<rect x="4.00256" y="208.155" width="11.4394" height="11.4394" rx="3.04698" fill="#2F984A"/>
<rect x="17.8796" y="208.155" width="11.4394" height="11.4394" rx="3.04698" fill="#2F984A"/>
<rect x="31.7566" y="208.155" width="11.4394" height="11.4394" rx="3.04698" fill="#2F984A"/>
<rect x="45.6337" y="208.155" width="11.4394" height="11.4394" rx="3.04698" fill="#E8EAEE"/>
<rect x="59.5107" y="208.155" width="11.4394" height="11.4394" rx="3.04698" fill="#E8EAEE"/>
<rect x="73.3877" y="208.155" width="11.4394" height="11.4394" rx="3.04698" fill="#E8EAEE"/>
<rect x="87.2647" y="208.155" width="11.4394" height="11.4394" rx="3.04698" fill="#93E7A2"/>
<rect x="101.142" y="208.155" width="11.4394" height="11.4394" rx="3.04698" fill="#93E7A2"/>
<rect x="115.019" y="208.155" width="11.4394" height="11.4394" rx="3.04698" fill="#93E7A2"/>
<rect x="128.896" y="208.155" width="11.4394" height="11.4394" rx="3.04698" fill="#E8EAEE"/>
<rect x="142.773" y="208.155" width="11.4394" height="11.4394" rx="3.04698" fill="#E8EAEE"/>
<rect x="156.65" y="208.155" width="11.4394" height="11.4394" rx="3.04698" fill="#E8EAEE"/>
<rect x="170.527" y="208.155" width="11.4394" height="11.4394" rx="3.04698" fill="#93E7A2"/>
<rect x="184.404" y="208.155" width="11.4394" height="11.4394" rx="3.04698" fill="#93E7A2"/>
<rect x="198.281" y="208.155" width="11.4394" height="11.4394" rx="3.04698" fill="#93E7A2"/>
<rect x="212.158" y="208.155" width="11.4394" height="11.4394" rx="3.04698" fill="#93E7A2"/>
<rect x="226.035" y="208.155" width="11.4394" height="11.4394" rx="3.04698" fill="#93E7A2"/>
<rect x="239.912" y="208.155" width="11.4394" height="11.4394" rx="3.04698" fill="#93E7A2"/>
<rect x="253.789" y="208.155" width="11.4394" height="11.4394" rx="3.04698" fill="#93E7A2"/>
<rect x="267.666" y="208.155" width="11.4394" height="11.4394" rx="3.04698" fill="#93E7A2"/>
<rect x="281.543" y="208.155" width="11.4394" height="11.4394" rx="3.04698" fill="#93E7A2"/>
<rect x="295.42" y="208.155" width="11.4394" height="11.4394" rx="3.04698" fill="#3EBE5E"/>
<rect x="309.297" y="208.155" width="11.4394" height="11.4394" rx="3.04698" fill="#3EBE5E"/>
<rect x="323.174" y="208.155" width="11.4394" height="11.4394" rx="3.04698" fill="#3EBE5E"/>
<rect x="337.051" y="208.155" width="11.4394" height="11.4394" rx="3.04698" fill="#93E7A2"/>
<rect x="350.928" y="208.155" width="11.4394" height="11.4394" rx="3.04698" fill="#93E7A2"/>
<rect x="4.00256" y="222.032" width="11.4394" height="11.4394" rx="3.04698" fill="#93E7A2"/>
<rect x="17.8796" y="222.032" width="11.4394" height="11.4394" rx="3.04698" fill="#93E7A2"/>
<rect x="31.7566" y="222.032" width="11.4394" height="11.4394" rx="3.04698" fill="#93E7A2"/>
<rect x="45.6337" y="222.032" width="11.4394" height="11.4394" rx="3.04698" fill="#93E7A2"/>
<rect x="59.5107" y="222.032" width="11.4394" height="11.4394" rx="3.04698" fill="#2F984A"/>
<rect x="73.3877" y="222.032" width="11.4394" height="11.4394" rx="3.04698" fill="#2F984A"/>
<rect x="87.2647" y="222.032" width="11.4394" height="11.4394" rx="3.04698" fill="#2F984A"/>
<rect x="101.142" y="222.032" width="11.4394" height="11.4394" rx="3.04698" fill="#93E7A2"/>
<rect x="115.019" y="222.032" width="11.4394" height="11.4394" rx="3.04698" fill="#93E7A2"/>
<rect x="128.896" y="222.032" width="11.4394" height="11.4394" rx="3.04698" fill="#93E7A2"/>
<rect x="142.773" y="222.032" width="11.4394" height="11.4394" rx="3.04698" fill="#93E7A2"/>
<rect x="156.65" y="222.032" width="11.4394" height="11.4394" rx="3.04698" fill="#93E7A2"/>
<rect x="170.527" y="222.032" width="11.4394" height="11.4394" rx="3.04698" fill="#93E7A2"/>
<rect x="184.404" y="222.032" width="11.4394" height="11.4394" rx="3.04698" fill="#E8EAEE"/>
<rect x="198.281" y="222.032" width="11.4394" height="11.4394" rx="3.04698" fill="#E8EAEE"/>
<rect x="212.158" y="222.032" width="11.4394" height="11.4394" rx="3.04698" fill="#E8EAEE"/>
<rect x="226.035" y="222.032" width="11.4394" height="11.4394" rx="3.04698" fill="#3EBE5E"/>
<rect x="239.912" y="222.032" width="11.4394" height="11.4394" rx="3.04698" fill="#3EBE5E"/>
<rect x="253.789" y="222.032" width="11.4394" height="11.4394" rx="3.04698" fill="#3EBE5E"/>
<rect x="267.666" y="222.032" width="11.4394" height="11.4394" rx="3.04698" fill="#93E7A2"/>
<rect x="281.543" y="222.032" width="11.4394" height="11.4394" rx="3.04698" fill="#93E7A2"/>
<rect x="295.42" y="222.032" width="11.4394" height="11.4394" rx="3.04698" fill="#93E7A2"/>
<rect x="309.297" y="222.032" width="11.4394" height="11.4394" rx="3.04698" fill="#93E7A2"/>
<rect x="323.174" y="222.032" width="11.4394" height="11.4394" rx="3.04698" fill="#93E7A2"/>
<rect x="337.051" y="222.032" width="11.4394" height="11.4394" rx="3.04698" fill="#93E7A2"/>
<rect x="350.928" y="222.032" width="11.4394" height="11.4394" rx="3.04698" fill="#93E7A2"/>
<rect x="4.00256" y="235.91" width="11.4394" height="11.4394" rx="3.04698" fill="#93E7A2"/>
<rect x="17.8796" y="235.91" width="11.4394" height="11.4394" rx="3.04698" fill="#93E7A2"/>
<rect x="31.7566" y="235.91" width="11.4394" height="11.4394" rx="3.04698" fill="#E8EAEE"/>
<rect x="45.6337" y="235.91" width="11.4394" height="11.4394" rx="3.04698" fill="#E8EAEE"/>
<rect x="59.5107" y="235.91" width="11.4394" height="11.4394" rx="3.04698" fill="#E8EAEE"/>
<rect x="73.3877" y="235.91" width="11.4394" height="11.4394" rx="3.04698" fill="#3EBE5E"/>
<rect x="87.2647" y="235.91" width="11.4394" height="11.4394" rx="3.04698" fill="#3EBE5E"/>
<rect x="101.142" y="235.91" width="11.4394" height="11.4394" rx="3.04698" fill="#3EBE5E"/>
<rect x="115.019" y="235.91" width="11.4394" height="11.4394" rx="3.04698" fill="#E8EAEE"/>
<rect x="128.896" y="235.91" width="11.4394" height="11.4394" rx="3.04698" fill="#E8EAEE"/>
<rect x="142.773" y="235.91" width="11.4394" height="11.4394" rx="3.04698" fill="#E8EAEE"/>
<rect x="156.65" y="235.91" width="11.4394" height="11.4394" rx="3.04698" fill="#3EBE5E"/>
<rect x="170.527" y="235.91" width="11.4394" height="11.4394" rx="3.04698" fill="#3EBE5E"/>
<rect x="184.404" y="235.91" width="11.4394" height="11.4394" rx="3.04698" fill="#E8EAEE"/>
<rect x="198.281" y="235.91" width="11.4394" height="11.4394" rx="3.04698" fill="#3EBE5E"/>
<rect x="212.158" y="235.91" width="11.4394" height="11.4394" rx="3.04698" fill="#3EBE5E"/>
<rect x="226.035" y="235.91" width="11.4394" height="11.4394" rx="3.04698" fill="#3EBE5E"/>
<rect x="239.912" y="235.91" width="11.4394" height="11.4394" rx="3.04698" fill="#93E7A2"/>
<rect x="253.789" y="235.91" width="11.4394" height="11.4394" rx="3.04698" fill="#E8EAEE"/>
<rect x="267.666" y="235.91" width="11.4394" height="11.4394" rx="3.04698" fill="#E8EAEE"/>
<rect x="281.543" y="235.91" width="11.4394" height="11.4394" rx="3.04698" fill="#E8EAEE"/>
<rect x="295.42" y="235.91" width="11.4394" height="11.4394" rx="3.04698" fill="#93E7A2"/>
<rect x="309.297" y="235.91" width="11.4394" height="11.4394" rx="3.04698" fill="#93E7A2"/>
<rect x="323.174" y="235.91" width="11.4394" height="11.4394" rx="3.04698" fill="#93E7A2"/>
<rect x="337.051" y="235.91" width="11.4394" height="11.4394" rx="3.04698" fill="#93E7A2"/>
<rect x="350.928" y="235.91" width="11.4394" height="11.4394" rx="3.04698" fill="#93E7A2"/>
<rect x="4.00256" y="249.787" width="11.4394" height="11.4394" rx="3.04698" fill="#E8EAEE"/>
<rect x="17.8796" y="249.787" width="11.4394" height="11.4394" rx="3.04698" fill="#93E7A2"/>
<rect x="31.7566" y="249.787" width="11.4394" height="11.4394" rx="3.04698" fill="#93E7A2"/>
<rect x="45.6337" y="249.787" width="11.4394" height="11.4394" rx="3.04698" fill="#93E7A2"/>
<rect x="59.5107" y="249.787" width="11.4394" height="11.4394" rx="3.04698" fill="#3EBE5E"/>
<rect x="73.3877" y="249.787" width="11.4394" height="11.4394" rx="3.04698" fill="#93E7A2"/>
<rect x="87.2647" y="249.787" width="11.4394" height="11.4394" rx="3.04698" fill="#E8EAEE"/>
<rect x="101.142" y="249.787" width="11.4394" height="11.4394" rx="3.04698" fill="#93E7A2"/>
<rect x="115.019" y="249.787" width="11.4394" height="11.4394" rx="3.04698" fill="#E8EAEE"/>
<rect x="128.896" y="249.787" width="11.4394" height="11.4394" rx="3.04698" fill="#2F984A"/>
<rect x="142.773" y="249.787" width="11.4394" height="11.4394" rx="3.04698" fill="#93E7A2"/>
<rect x="156.65" y="249.787" width="11.4394" height="11.4394" rx="3.04698" fill="#93E7A2"/>
<rect x="170.527" y="249.787" width="11.4394" height="11.4394" rx="3.04698" fill="#93E7A2"/>
<rect x="184.404" y="249.787" width="11.4394" height="11.4394" rx="3.04698" fill="#E8EAEE"/>
<rect x="198.281" y="249.787" width="11.4394" height="11.4394" rx="3.04698" fill="#3EBE5E"/>
<rect x="212.158" y="249.787" width="11.4394" height="11.4394" rx="3.04698" fill="#E8EAEE"/>
<rect x="226.035" y="249.787" width="11.4394" height="11.4394" rx="3.04698" fill="#216435"/>
<rect x="239.912" y="249.787" width="11.4394" height="11.4394" rx="3.04698" fill="#216435"/>
<rect x="253.789" y="249.787" width="11.4394" height="11.4394" rx="3.04698" fill="#E8EAEE"/>
<rect x="267.666" y="249.787" width="11.4394" height="11.4394" rx="3.04698" fill="#3EBE5E"/>
<rect x="281.543" y="249.787" width="11.4394" height="11.4394" rx="3.04698" fill="#E8EAEE"/>
<rect x="295.42" y="249.787" width="11.4394" height="11.4394" rx="3.04698" fill="#93E7A2"/>
<rect x="309.297" y="249.787" width="11.4394" height="11.4394" rx="3.04698" fill="#93E7A2"/>
<rect x="323.174" y="249.787" width="11.4394" height="11.4394" rx="3.04698" fill="#93E7A2"/>
<rect x="337.051" y="249.787" width="11.4394" height="11.4394" rx="3.04698" fill="#216435"/>
<rect x="350.928" y="249.787" width="11.4394" height="11.4394" rx="3.04698" fill="#E8EAEE"/>
<rect x="4.00256" y="263.664" width="11.4394" height="11.4394" rx="3.04698" fill="#E8EAEE"/>
<rect x="17.8796" y="263.664" width="11.4394" height="11.4394" rx="3.04698" fill="#3EBE5E"/>
<rect x="31.7566" y="263.664" width="11.4394" height="11.4394" rx="3.04698" fill="#93E7A2"/>
<rect x="45.6337" y="263.664" width="11.4394" height="11.4394" rx="3.04698" fill="#3EBE5E"/>
<rect x="59.5107" y="263.664" width="11.4394" height="11.4394" rx="3.04698" fill="#3EBE5E"/>
<rect x="73.3877" y="263.664" width="11.4394" height="11.4394" rx="3.04698" fill="#93E7A2"/>
<rect x="87.2647" y="263.664" width="11.4394" height="11.4394" rx="3.04698" fill="#3EBE5E"/>
<rect x="101.142" y="263.664" width="11.4394" height="11.4394" rx="3.04698" fill="#3EBE5E"/>
<rect x="115.019" y="263.664" width="11.4394" height="11.4394" rx="3.04698" fill="#93E7A2"/>
<rect x="128.896" y="263.664" width="11.4394" height="11.4394" rx="3.04698" fill="#E8EAEE"/>
<rect x="142.773" y="263.664" width="11.4394" height="11.4394" rx="3.04698" fill="#2F984A"/>
<rect x="156.65" y="263.664" width="11.4394" height="11.4394" rx="3.04698" fill="#E8EAEE"/>
<rect x="170.527" y="263.664" width="11.4394" height="11.4394" rx="3.04698" fill="#3EBE5E"/>
<rect x="184.404" y="263.664" width="11.4394" height="11.4394" rx="3.04698" fill="#93E7A2"/>
<rect x="198.281" y="263.664" width="11.4394" height="11.4394" rx="3.04698" fill="#93E7A2"/>
<rect x="212.158" y="263.664" width="11.4394" height="11.4394" rx="3.04698" fill="#3EBE5E"/>
<rect x="226.035" y="263.664" width="11.4394" height="11.4394" rx="3.04698" fill="#93E7A2"/>
<rect x="239.912" y="263.664" width="11.4394" height="11.4394" rx="3.04698" fill="#2F984A"/>
<rect x="253.789" y="263.664" width="11.4394" height="11.4394" rx="3.04698" fill="#E8EAEE"/>
<rect x="267.666" y="263.664" width="11.4394" height="11.4394" rx="3.04698" fill="#93E7A2"/>
<rect x="281.543" y="263.664" width="11.4394" height="11.4394" rx="3.04698" fill="#93E7A2"/>
<rect x="295.42" y="263.664" width="11.4394" height="11.4394" rx="3.04698" fill="#93E7A2"/>
<rect x="309.297" y="263.664" width="11.4394" height="11.4394" rx="3.04698" fill="#93E7A2"/>
<rect x="323.174" y="263.664" width="11.4394" height="11.4394" rx="3.04698" fill="#3EBE5E"/>
<rect x="337.051" y="263.664" width="11.4394" height="11.4394" rx="3.04698" fill="#E8EAEE"/>
<rect x="350.928" y="263.664" width="11.4394" height="11.4394" rx="3.04698" fill="#E8EAEE"/>
<rect x="4.00256" y="277.541" width="11.4394" height="11.4394" rx="3.04698" fill="#E8EAEE"/>
<rect x="17.8796" y="277.541" width="11.4394" height="11.4394" rx="3.04698" fill="#93E7A2"/>
<rect x="31.7566" y="277.541" width="11.4394" height="11.4394" rx="3.04698" fill="#93E7A2"/>
<rect x="45.6337" y="277.541" width="11.4394" height="11.4394" rx="3.04698" fill="#3EBE5E"/>
<rect x="59.5107" y="277.541" width="11.4394" height="11.4394" rx="3.04698" fill="#93E7A2"/>
<rect x="73.3877" y="277.541" width="11.4394" height="11.4394" rx="3.04698" fill="#93E7A2"/>
<rect x="87.2647" y="277.541" width="11.4394" height="11.4394" rx="3.04698" fill="#3EBE5E"/>
<rect x="101.142" y="277.541" width="11.4394" height="11.4394" rx="3.04698" fill="#93E7A2"/>
<rect x="115.019" y="277.541" width="11.4394" height="11.4394" rx="3.04698" fill="#E8EAEE"/>
<rect x="128.896" y="277.541" width="11.4394" height="11.4394" rx="3.04698" fill="#93E7A2"/>
<rect x="142.773" y="277.541" width="11.4394" height="11.4394" rx="3.04698" fill="#3EBE5E"/>
<rect x="156.65" y="277.541" width="11.4394" height="11.4394" rx="3.04698" fill="#E8EAEE"/>
<rect x="170.527" y="277.541" width="11.4394" height="11.4394" rx="3.04698" fill="#3EBE5E"/>
<rect x="184.404" y="277.541" width="11.4394" height="11.4394" rx="3.04698" fill="#93E7A2"/>
<rect x="198.281" y="277.541" width="11.4394" height="11.4394" rx="3.04698" fill="#93E7A2"/>
<rect x="212.158" y="277.541" width="11.4394" height="11.4394" rx="3.04698" fill="#216435"/>
<rect x="226.035" y="277.541" width="11.4394" height="11.4394" rx="3.04698" fill="#93E7A2"/>
<rect x="239.912" y="277.541" width="11.4394" height="11.4394" rx="3.04698" fill="#216435"/>
<rect x="253.789" y="277.541" width="11.4394" height="11.4394" rx="3.04698" fill="#2F984A"/>
<rect x="267.666" y="277.541" width="11.4394" height="11.4394" rx="3.04698" fill="#93E7A2"/>
<rect x="281.543" y="277.541" width="11.4394" height="11.4394" rx="3.04698" fill="#2F984A"/>
<rect x="295.42" y="277.541" width="11.4394" height="11.4394" rx="3.04698" fill="#E8EAEE"/>
<rect x="309.297" y="277.541" width="11.4394" height="11.4394" rx="3.04698" fill="#3EBE5E"/>
<rect x="323.174" y="277.541" width="11.4394" height="11.4394" rx="3.04698" fill="#2F984A"/>
<rect x="337.051" y="277.541" width="11.4394" height="11.4394" rx="3.04698" fill="#E8EAEE"/>
<rect x="350.928" y="277.541" width="11.4394" height="11.4394" rx="3.04698" fill="#3EBE5E"/>
<rect x="4.00256" y="291.417" width="11.4394" height="11.4394" rx="3.04698" fill="#E8EAEE"/>
<rect x="17.8796" y="291.417" width="11.4394" height="11.4394" rx="3.04698" fill="#93E7A2"/>
<rect x="31.7566" y="291.417" width="11.4394" height="11.4394" rx="3.04698" fill="#3EBE5E"/>
<rect x="45.6337" y="291.417" width="11.4394" height="11.4394" rx="3.04698" fill="#93E7A2"/>
<rect x="59.5107" y="291.417" width="11.4394" height="11.4394" rx="3.04698" fill="#3EBE5E"/>
<rect x="73.3877" y="291.417" width="11.4394" height="11.4394" rx="3.04698" fill="#93E7A2"/>
<rect x="87.2647" y="291.417" width="11.4394" height="11.4394" rx="3.04698" fill="#3EBE5E"/>
<rect x="101.142" y="291.417" width="11.4394" height="11.4394" rx="3.04698" fill="#3EBE5E"/>
<rect x="115.019" y="291.417" width="11.4394" height="11.4394" rx="3.04698" fill="#93E7A2"/>
<rect x="128.896" y="291.417" width="11.4394" height="11.4394" rx="3.04698" fill="#216435"/>
<rect x="142.773" y="291.417" width="11.4394" height="11.4394" rx="3.04698" fill="#E8EAEE"/>
<rect x="156.65" y="291.417" width="11.4394" height="11.4394" rx="3.04698" fill="#216435"/>
<rect x="170.527" y="291.417" width="11.4394" height="11.4394" rx="3.04698" fill="#E8EAEE"/>
<rect x="184.404" y="291.417" width="11.4394" height="11.4394" rx="3.04698" fill="#93E7A2"/>
<rect x="198.281" y="291.417" width="11.4394" height="11.4394" rx="3.04698" fill="#3EBE5E"/>
<rect x="212.158" y="291.417" width="11.4394" height="11.4394" rx="3.04698" fill="#E8EAEE"/>
<rect x="226.035" y="291.417" width="11.4394" height="11.4394" rx="3.04698" fill="#216435"/>
<rect x="239.912" y="291.417" width="11.4394" height="11.4394" rx="3.04698" fill="#93E7A2"/>
<rect x="253.789" y="291.417" width="11.4394" height="11.4394" rx="3.04698" fill="#3EBE5E"/>
<rect x="267.666" y="291.417" width="11.4394" height="11.4394" rx="3.04698" fill="#E8EAEE"/>
<rect x="281.543" y="291.417" width="11.4394" height="11.4394" rx="3.04698" fill="#93E7A2"/>
<rect x="295.42" y="291.417" width="11.4394" height="11.4394" rx="3.04698" fill="#3EBE5E"/>
<rect x="309.297" y="291.417" width="11.4394" height="11.4394" rx="3.04698" fill="#E8EAEE"/>
<rect x="323.174" y="291.417" width="11.4394" height="11.4394" rx="3.04698" fill="#93E7A2"/>
<rect x="337.051" y="291.417" width="11.4394" height="11.4394" rx="3.04698" fill="#3EBE5E"/>
<rect x="350.928" y="291.417" width="11.4394" height="11.4394" rx="3.04698" fill="#93E7A2"/>
<rect x="4.00256" y="305.294" width="11.4394" height="11.4394" rx="3.04698" fill="#93E7A2"/>
<rect x="17.8796" y="305.294" width="11.4394" height="11.4394" rx="3.04698" fill="#3EBE5E"/>
<rect x="31.7566" y="305.294" width="11.4394" height="11.4394" rx="3.04698" fill="#93E7A2"/>
<rect x="45.6337" y="305.294" width="11.4394" height="11.4394" rx="3.04698" fill="#E8EAEE"/>
<rect x="59.5107" y="305.294" width="11.4394" height="11.4394" rx="3.04698" fill="#2F984A"/>
<rect x="73.3877" y="305.294" width="11.4394" height="11.4394" rx="3.04698" fill="#E8EAEE"/>
<rect x="87.2647" y="305.294" width="11.4394" height="11.4394" rx="3.04698" fill="#3EBE5E"/>
<rect x="101.142" y="305.294" width="11.4394" height="11.4394" rx="3.04698" fill="#E8EAEE"/>
<rect x="115.019" y="305.294" width="11.4394" height="11.4394" rx="3.04698" fill="#93E7A2"/>
<rect x="128.896" y="305.294" width="11.4394" height="11.4394" rx="3.04698" fill="#93E7A2"/>
<rect x="142.773" y="305.294" width="11.4394" height="11.4394" rx="3.04698" fill="#93E7A2"/>
<rect x="156.65" y="305.294" width="11.4394" height="11.4394" rx="3.04698" fill="#3EBE5E"/>
<rect x="170.527" y="305.294" width="11.4394" height="11.4394" rx="3.04698" fill="#E8EAEE"/>
<rect x="184.404" y="305.294" width="11.4394" height="11.4394" rx="3.04698" fill="#E8EAEE"/>
<rect x="198.281" y="305.294" width="11.4394" height="11.4394" rx="3.04698" fill="#3EBE5E"/>
<rect x="212.158" y="305.294" width="11.4394" height="11.4394" rx="3.04698" fill="#93E7A2"/>
<rect x="226.035" y="305.294" width="11.4394" height="11.4394" rx="3.04698" fill="#3EBE5E"/>
<rect x="239.912" y="305.294" width="11.4394" height="11.4394" rx="3.04698" fill="#E8EAEE"/>
<rect x="253.789" y="305.294" width="11.4394" height="11.4394" rx="3.04698" fill="#3EBE5E"/>
<rect x="267.666" y="305.294" width="11.4394" height="11.4394" rx="3.04698" fill="#2F984A"/>
<rect x="281.543" y="305.294" width="11.4394" height="11.4394" rx="3.04698" fill="#93E7A2"/>
<rect x="295.42" y="305.294" width="11.4394" height="11.4394" rx="3.04698" fill="#216435"/>
<rect x="309.297" y="305.294" width="11.4394" height="11.4394" rx="3.04698" fill="#E8EAEE"/>
<rect x="323.174" y="305.294" width="11.4394" height="11.4394" rx="3.04698" fill="#93E7A2"/>
<rect x="337.051" y="305.294" width="11.4394" height="11.4394" rx="3.04698" fill="#E8EAEE"/>
<rect x="350.928" y="305.294" width="11.4394" height="11.4394" rx="3.04698" fill="#E8EAEE"/>
<rect x="4.00256" y="319.171" width="11.4394" height="11.4394" rx="3.04698" fill="#3EBE5E"/>
<rect x="17.8796" y="319.171" width="11.4394" height="11.4394" rx="3.04698" fill="#E8EAEE"/>
<rect x="31.7566" y="319.171" width="11.4394" height="11.4394" rx="3.04698" fill="#3EBE5E"/>
<rect x="45.6337" y="319.171" width="11.4394" height="11.4394" rx="3.04698" fill="#E8EAEE"/>
<rect x="59.5107" y="319.171" width="11.4394" height="11.4394" rx="3.04698" fill="#E8EAEE"/>
<rect x="73.3877" y="319.171" width="11.4394" height="11.4394" rx="3.04698" fill="#E8EAEE"/>
<rect x="87.2647" y="319.171" width="11.4394" height="11.4394" rx="3.04698" fill="#3EBE5E"/>
<rect x="101.142" y="319.171" width="11.4394" height="11.4394" rx="3.04698" fill="#93E7A2"/>
<rect x="115.019" y="319.171" width="11.4394" height="11.4394" rx="3.04698" fill="#2F984A"/>
<rect x="128.896" y="319.171" width="11.4394" height="11.4394" rx="3.04698" fill="#93E7A2"/>
<rect x="142.773" y="319.171" width="11.4394" height="11.4394" rx="3.04698" fill="#216435"/>
<rect x="156.65" y="319.171" width="11.4394" height="11.4394" rx="3.04698" fill="#E8EAEE"/>
<rect x="170.527" y="319.171" width="11.4394" height="11.4394" rx="3.04698" fill="#2F984A"/>
<rect x="184.404" y="319.171" width="11.4394" height="11.4394" rx="3.04698" fill="#E8EAEE"/>
<rect x="198.281" y="319.171" width="11.4394" height="11.4394" rx="3.04698" fill="#93E7A2"/>
<rect x="212.158" y="319.171" width="11.4394" height="11.4394" rx="3.04698" fill="#3EBE5E"/>
<rect x="226.035" y="319.171" width="11.4394" height="11.4394" rx="3.04698" fill="#3EBE5E"/>
<rect x="239.912" y="319.171" width="11.4394" height="11.4394" rx="3.04698" fill="#2F984A"/>
<rect x="253.789" y="319.171" width="11.4394" height="11.4394" rx="3.04698" fill="#3EBE5E"/>
<rect x="267.666" y="319.171" width="11.4394" height="11.4394" rx="3.04698" fill="#3EBE5E"/>
<rect x="281.543" y="319.171" width="11.4394" height="11.4394" rx="3.04698" fill="#93E7A2"/>
<rect x="295.42" y="319.171" width="11.4394" height="11.4394" rx="3.04698" fill="#E8EAEE"/>
<rect x="309.297" y="319.171" width="11.4394" height="11.4394" rx="3.04698" fill="#93E7A2"/>
<rect x="323.174" y="319.171" width="11.4394" height="11.4394" rx="3.04698" fill="#93E7A2"/>
<rect x="337.051" y="319.171" width="11.4394" height="11.4394" rx="3.04698" fill="#2F984A"/>
<rect x="350.928" y="319.171" width="11.4394" height="11.4394" rx="3.04698" fill="#3EBE5E"/>
<rect x="4.00256" y="333.049" width="11.4394" height="11.4394" rx="3.04698" fill="#E8EAEE"/>
<rect x="17.8796" y="333.049" width="11.4394" height="11.4394" rx="3.04698" fill="#E8EAEE"/>
<rect x="31.7566" y="333.049" width="11.4394" height="11.4394" rx="3.04698" fill="#E8EAEE"/>
<rect x="45.6337" y="333.049" width="11.4394" height="11.4394" rx="3.04698" fill="#93E7A2"/>
<rect x="59.5107" y="333.049" width="11.4394" height="11.4394" rx="3.04698" fill="#E8EAEE"/>
<rect x="73.3877" y="333.049" width="11.4394" height="11.4394" rx="3.04698" fill="#93E7A2"/>
<rect x="87.2647" y="333.049" width="11.4394" height="11.4394" rx="3.04698" fill="#E8EAEE"/>
<rect x="101.142" y="333.049" width="11.4394" height="11.4394" rx="3.04698" fill="#216435"/>
<rect x="115.019" y="333.049" width="11.4394" height="11.4394" rx="3.04698" fill="#E8EAEE"/>
<rect x="128.896" y="333.049" width="11.4394" height="11.4394" rx="3.04698" fill="#3EBE5E"/>
<rect x="142.773" y="333.049" width="11.4394" height="11.4394" rx="3.04698" fill="#3EBE5E"/>
<rect x="156.65" y="333.049" width="11.4394" height="11.4394" rx="3.04698" fill="#3EBE5E"/>
<rect x="170.527" y="333.049" width="11.4394" height="11.4394" rx="3.04698" fill="#93E7A2"/>
<rect x="184.404" y="333.049" width="11.4394" height="11.4394" rx="3.04698" fill="#3EBE5E"/>
<rect x="198.281" y="333.049" width="11.4394" height="11.4394" rx="3.04698" fill="#2F984A"/>
<rect x="212.158" y="333.049" width="11.4394" height="11.4394" rx="3.04698" fill="#3EBE5E"/>
<rect x="226.035" y="333.049" width="11.4394" height="11.4394" rx="3.04698" fill="#3EBE5E"/>
<rect x="239.912" y="333.049" width="11.4394" height="11.4394" rx="3.04698" fill="#2F984A"/>
<rect x="253.789" y="333.049" width="11.4394" height="11.4394" rx="3.04698" fill="#E8EAEE"/>
<rect x="267.666" y="333.049" width="11.4394" height="11.4394" rx="3.04698" fill="#2F984A"/>
<rect x="281.543" y="333.049" width="11.4394" height="11.4394" rx="3.04698" fill="#93E7A2"/>
<rect x="295.42" y="333.049" width="11.4394" height="11.4394" rx="3.04698" fill="#93E7A2"/>
<rect x="309.297" y="333.049" width="11.4394" height="11.4394" rx="3.04698" fill="#3EBE5E"/>
<rect x="323.174" y="333.049" width="11.4394" height="11.4394" rx="3.04698" fill="#93E7A2"/>
<rect x="337.051" y="333.049" width="11.4394" height="11.4394" rx="3.04698" fill="#2F984A"/>
<rect x="350.928" y="333.049" width="11.4394" height="11.4394" rx="3.04698" fill="#E8EAEE"/>
</g>
<g filter="url(#filter0_dd_468_29747)">
<path d="M107.003 164C107.003 158.477 111.48 154 117.003 154H251.003C256.525 154 261.003 158.477 261.003 164V176C261.003 181.523 256.525 186 251.003 186H117.003C111.48 186 107.003 181.523 107.003 176V164Z" fill="white"/>
<path d="M125.003 160C119.48 160 115.003 164.59 115.003 170.253C115.003 174.783 117.868 178.627 121.841 179.982C122.341 180.077 122.524 179.76 122.524 179.489C122.524 179.245 122.515 178.437 122.511 177.58C119.729 178.2 119.142 176.37 119.142 176.37C118.687 175.185 118.032 174.87 118.032 174.87C117.124 174.234 118.1 174.247 118.1 174.247C119.104 174.319 119.633 175.304 119.633 175.304C120.525 176.871 121.972 176.418 122.543 176.156C122.633 175.493 122.892 175.041 123.178 174.785C120.957 174.526 118.622 173.646 118.622 169.718C118.622 168.598 119.012 167.684 119.652 166.966C119.548 166.707 119.206 165.664 119.749 164.252C119.749 164.252 120.589 163.977 122.5 165.303C123.297 165.076 124.153 164.962 125.003 164.958C125.852 164.962 126.709 165.076 127.508 165.303C129.416 163.977 130.255 164.252 130.255 164.252C130.799 165.664 130.457 166.707 130.353 166.966C130.994 167.684 131.382 168.598 131.382 169.718C131.382 173.656 129.043 174.523 126.816 174.777C127.175 175.095 127.494 175.719 127.494 176.675C127.494 178.047 127.483 179.151 127.483 179.489C127.483 179.762 127.663 180.082 128.17 179.981C132.141 178.624 135.003 174.782 135.003 170.253C135.003 164.59 130.525 160 125.003 160Z" fill="#141414"/>
<path d="M143.998 175V167.58H145.076L145.118 169.232L144.978 169.204C145.062 168.653 145.239 168.219 145.51 167.902C145.79 167.575 146.145 167.412 146.574 167.412C147.013 167.412 147.349 167.571 147.582 167.888C147.825 168.205 147.974 168.672 148.03 169.288H147.89C147.974 168.709 148.161 168.252 148.45 167.916C148.749 167.58 149.122 167.412 149.57 167.412C150.167 167.412 150.601 167.617 150.872 168.028C151.143 168.439 151.278 169.12 151.278 170.072V175H150.102V170.24C150.102 169.577 150.032 169.115 149.892 168.854C149.752 168.583 149.533 168.448 149.234 168.448C149.038 168.448 148.865 168.513 148.716 168.644C148.567 168.765 148.445 168.961 148.352 169.232C148.268 169.503 148.226 169.848 148.226 170.268V175H147.05V170.24C147.05 169.605 146.98 169.148 146.84 168.868C146.709 168.588 146.49 168.448 146.182 168.448C145.986 168.448 145.813 168.513 145.664 168.644C145.515 168.765 145.393 168.961 145.3 169.232C145.216 169.503 145.174 169.848 145.174 170.268V175H143.998ZM155.053 175.168C154.586 175.168 154.166 175.084 153.793 174.916C153.419 174.748 153.125 174.515 152.911 174.216C152.696 173.908 152.589 173.553 152.589 173.152C152.589 172.517 152.775 172.027 153.149 171.682C153.531 171.327 154.129 171.071 154.941 170.912L157.433 170.408C157.433 169.773 157.288 169.302 156.999 168.994C156.719 168.686 156.313 168.532 155.781 168.532C155.267 168.532 154.866 168.649 154.577 168.882C154.287 169.106 154.087 169.433 153.975 169.862L152.729 169.764C152.869 169.064 153.2 168.499 153.723 168.07C154.255 167.631 154.941 167.412 155.781 167.412C156.677 167.412 157.372 167.683 157.867 168.224C158.361 168.756 158.609 169.493 158.609 170.436V173.516C158.609 173.684 158.646 173.801 158.721 173.866C158.795 173.931 158.907 173.964 159.057 173.964H159.533V175C159.477 175.009 159.388 175.014 159.267 175.014C159.145 175.023 159.029 175.028 158.917 175.028C158.599 175.028 158.329 174.977 158.105 174.874C157.89 174.771 157.727 174.608 157.615 174.384C157.503 174.151 157.442 173.852 157.433 173.488H157.657C157.591 173.805 157.433 174.095 157.181 174.356C156.938 174.608 156.63 174.809 156.257 174.958C155.883 175.098 155.482 175.168 155.053 175.168ZM155.165 174.132C155.669 174.132 156.089 174.048 156.425 173.88C156.761 173.703 157.013 173.46 157.181 173.152C157.349 172.835 157.433 172.471 157.433 172.06V171.416L155.165 171.864C154.661 171.957 154.311 172.102 154.115 172.298C153.919 172.485 153.821 172.732 153.821 173.04C153.821 173.385 153.937 173.656 154.171 173.852C154.413 174.039 154.745 174.132 155.165 174.132ZM162.159 177.1V176.064H163.013C163.275 176.064 163.466 176.022 163.587 175.938C163.718 175.863 163.816 175.737 163.881 175.56L164.147 174.86H163.741L160.983 167.58H162.271L164.525 173.768L166.639 167.58H167.927L164.917 175.938C164.777 176.339 164.567 176.633 164.287 176.82C164.007 177.007 163.62 177.1 163.125 177.1H162.159ZM173.284 175.168C172.77 175.168 172.313 175.056 171.912 174.832C171.51 174.599 171.202 174.281 170.988 173.88L170.946 175H169.882V165.06H171.058V168.616C171.244 168.308 171.534 168.033 171.926 167.79C172.318 167.538 172.77 167.412 173.284 167.412C173.937 167.412 174.502 167.571 174.978 167.888C175.454 168.205 175.818 168.653 176.07 169.232C176.331 169.811 176.462 170.497 176.462 171.29C176.462 172.083 176.331 172.769 176.07 173.348C175.818 173.927 175.454 174.375 174.978 174.692C174.502 175.009 173.937 175.168 173.284 175.168ZM173.214 174.048C173.839 174.048 174.329 173.801 174.684 173.306C175.048 172.811 175.23 172.139 175.23 171.29C175.23 170.431 175.048 169.759 174.684 169.274C174.329 168.779 173.848 168.532 173.242 168.532C172.784 168.532 172.392 168.644 172.066 168.868C171.739 169.083 171.487 169.395 171.31 169.806C171.142 170.217 171.058 170.711 171.058 171.29C171.058 171.85 171.142 172.34 171.31 172.76C171.487 173.171 171.734 173.488 172.052 173.712C172.378 173.936 172.766 174.048 173.214 174.048ZM181.342 175.168C180.642 175.168 180.036 175.009 179.522 174.692C179.018 174.375 178.626 173.927 178.346 173.348C178.076 172.76 177.94 172.074 177.94 171.29C177.94 170.506 178.076 169.825 178.346 169.246C178.626 168.667 179.014 168.219 179.508 167.902C180.012 167.575 180.605 167.412 181.286 167.412C181.93 167.412 182.5 167.566 182.994 167.874C183.489 168.173 183.876 168.611 184.156 169.19C184.436 169.769 184.576 170.473 184.576 171.304V171.654H179.172C179.219 172.447 179.429 173.045 179.802 173.446C180.185 173.847 180.698 174.048 181.342 174.048C181.828 174.048 182.224 173.936 182.532 173.712C182.85 173.479 183.069 173.175 183.19 172.802L184.45 172.9C184.254 173.563 183.881 174.109 183.33 174.538C182.789 174.958 182.126 175.168 181.342 175.168ZM179.172 170.618H183.288C183.232 169.899 183.022 169.372 182.658 169.036C182.294 168.7 181.837 168.532 181.286 168.532C180.717 168.532 180.246 168.709 179.872 169.064C179.508 169.409 179.275 169.927 179.172 170.618ZM187.371 171.472V170.366H191.851V171.472H187.371ZM196.773 175V167.104C196.773 166.441 196.941 165.937 197.277 165.592C197.623 165.237 198.145 165.06 198.845 165.06H201.225V166.096H198.845C198.556 166.096 198.332 166.189 198.173 166.376C198.024 166.553 197.949 166.796 197.949 167.104V175H196.773ZM194.785 168.616V167.58H201.085V168.616H194.785ZM206.302 175V167.58H207.478V175H206.302ZM203.32 175V173.964H210.04V175H203.32ZM203.46 168.616V167.58H207.478V168.616H203.46ZM206.19 166.418V165.046H207.422V166.418H206.19ZM211.77 175V167.58H212.848L212.89 169.47L212.75 169.344C212.844 168.905 213.012 168.546 213.254 168.266C213.506 167.977 213.805 167.762 214.15 167.622C214.496 167.482 214.86 167.412 215.242 167.412C215.812 167.412 216.283 167.538 216.656 167.79C217.039 168.042 217.328 168.383 217.524 168.812C217.72 169.232 217.818 169.703 217.818 170.226V175H216.642V170.562C216.642 169.871 216.507 169.349 216.236 168.994C215.966 168.63 215.55 168.448 214.99 168.448C214.608 168.448 214.262 168.532 213.954 168.7C213.646 168.859 213.399 169.097 213.212 169.414C213.035 169.722 212.946 170.105 212.946 170.562V175H211.77ZM222.209 175.168C221.742 175.168 221.322 175.084 220.949 174.916C220.576 174.748 220.282 174.515 220.067 174.216C219.852 173.908 219.745 173.553 219.745 173.152C219.745 172.517 219.932 172.027 220.305 171.682C220.688 171.327 221.285 171.071 222.097 170.912L224.589 170.408C224.589 169.773 224.444 169.302 224.155 168.994C223.875 168.686 223.469 168.532 222.937 168.532C222.424 168.532 222.022 168.649 221.733 168.882C221.444 169.106 221.243 169.433 221.131 169.862L219.885 169.764C220.025 169.064 220.356 168.499 220.879 168.07C221.411 167.631 222.097 167.412 222.937 167.412C223.833 167.412 224.528 167.683 225.023 168.224C225.518 168.756 225.765 169.493 225.765 170.436V173.516C225.765 173.684 225.802 173.801 225.877 173.866C225.952 173.931 226.064 173.964 226.213 173.964H226.689V175C226.633 175.009 226.544 175.014 226.423 175.014C226.302 175.023 226.185 175.028 226.073 175.028C225.756 175.028 225.485 174.977 225.261 174.874C225.046 174.771 224.883 174.608 224.771 174.384C224.659 174.151 224.598 173.852 224.589 173.488H224.813C224.748 173.805 224.589 174.095 224.337 174.356C224.094 174.608 223.786 174.809 223.413 174.958C223.04 175.098 222.638 175.168 222.209 175.168ZM222.321 174.132C222.825 174.132 223.245 174.048 223.581 173.88C223.917 173.703 224.169 173.46 224.337 173.152C224.505 172.835 224.589 172.471 224.589 172.06V171.416L222.321 171.864C221.817 171.957 221.467 172.102 221.271 172.298C221.075 172.485 220.977 172.732 220.977 173.04C220.977 173.385 221.094 173.656 221.327 173.852C221.57 174.039 221.901 174.132 222.321 174.132ZM228.559 175V167.58H229.637L229.679 169.47L229.539 169.344C229.633 168.905 229.801 168.546 230.043 168.266C230.295 167.977 230.594 167.762 230.939 167.622C231.285 167.482 231.649 167.412 232.031 167.412C232.601 167.412 233.072 167.538 233.445 167.79C233.828 168.042 234.117 168.383 234.313 168.812C234.509 169.232 234.607 169.703 234.607 170.226V175H233.431V170.562C233.431 169.871 233.296 169.349 233.025 168.994C232.755 168.63 232.339 168.448 231.779 168.448C231.397 168.448 231.051 168.532 230.743 168.7C230.435 168.859 230.188 169.097 230.001 169.414C229.824 169.722 229.735 170.105 229.735 170.562V175H228.559ZM240.174 175.168C239.483 175.168 238.881 175.009 238.368 174.692C237.855 174.375 237.458 173.927 237.178 173.348C236.898 172.76 236.758 172.074 236.758 171.29C236.758 170.506 236.898 169.825 237.178 169.246C237.458 168.667 237.855 168.219 238.368 167.902C238.881 167.575 239.483 167.412 240.174 167.412C240.725 167.412 241.215 167.515 241.644 167.72C242.073 167.916 242.428 168.205 242.708 168.588C242.988 168.971 243.179 169.437 243.282 169.988L242.05 170.072C241.938 169.577 241.714 169.199 241.378 168.938C241.051 168.667 240.65 168.532 240.174 168.532C239.493 168.532 238.956 168.779 238.564 169.274C238.181 169.759 237.99 170.431 237.99 171.29C237.99 172.149 238.181 172.825 238.564 173.32C238.956 173.805 239.493 174.048 240.174 174.048C240.65 174.048 241.061 173.908 241.406 173.628C241.761 173.348 241.994 172.928 242.106 172.368L243.338 172.452C243.235 173.003 243.039 173.483 242.75 173.894C242.461 174.295 242.097 174.608 241.658 174.832C241.219 175.056 240.725 175.168 240.174 175.168ZM248.498 175.168C247.798 175.168 247.192 175.009 246.678 174.692C246.174 174.375 245.782 173.927 245.502 173.348C245.232 172.76 245.096 172.074 245.096 171.29C245.096 170.506 245.232 169.825 245.502 169.246C245.782 168.667 246.17 168.219 246.664 167.902C247.168 167.575 247.761 167.412 248.442 167.412C249.086 167.412 249.656 167.566 250.15 167.874C250.645 168.173 251.032 168.611 251.312 169.19C251.592 169.769 251.732 170.473 251.732 171.304V171.654H246.328C246.375 172.447 246.585 173.045 246.958 173.446C247.341 173.847 247.854 174.048 248.498 174.048C248.984 174.048 249.38 173.936 249.688 173.712C250.006 173.479 250.225 173.175 250.346 172.802L251.606 172.9C251.41 173.563 251.037 174.109 250.486 174.538C249.945 174.958 249.282 175.168 248.498 175.168ZM246.328 170.618H250.444C250.388 169.899 250.178 169.372 249.814 169.036C249.45 168.7 248.993 168.532 248.442 168.532C247.873 168.532 247.402 168.709 247.028 169.064C246.664 169.409 246.431 169.927 246.328 170.618Z" fill="#171717"/>
</g>
</g>
<defs>
<filter id="filter0_dd_468_29747" x="102.003" y="150" width="164" height="42" filterUnits="userSpaceOnUse" color-interpolation-filters="sRGB">
<feFlood flood-opacity="0" result="BackgroundImageFix"/>
<feColorMatrix in="SourceAlpha" type="matrix" values="0 0 0 0 0 0 0 0 0 0 0 0 0 0 0 0 0 0 127 0" result="hardAlpha"/>
<feMorphology radius="1" operator="dilate" in="SourceAlpha" result="effect1_dropShadow_468_29747"/>
<feOffset/>
<feColorMatrix type="matrix" values="0 0 0 0 0.0431373 0 0 0 0 0.0431373 0 0 0 0 0.0431373 0 0 0 0.07 0"/>
<feBlend mode="normal" in2="BackgroundImageFix" result="effect1_dropShadow_468_29747"/>
<feColorMatrix in="SourceAlpha" type="matrix" values="0 0 0 0 0 0 0 0 0 0 0 0 0 0 0 0 0 0 127 0" result="hardAlpha"/>
<feOffset dy="1"/>
<feGaussianBlur stdDeviation="2.5"/>
<feColorMatrix type="matrix" values="0 0 0 0 0.0431373 0 0 0 0 0.0431373 0 0 0 0 0.0431373 0 0 0 0.06 0"/>
<feBlend mode="normal" in2="effect1_dropShadow_468_29747" result="effect2_dropShadow_468_29747"/>
<feBlend mode="normal" in="SourceGraphic" in2="effect2_dropShadow_468_29747" result="shape"/>
</filter>
<linearGradient id="paint0_linear_468_29747" x1="185.161" y1="66" x2="185.161" y2="310" gradientUnits="userSpaceOnUse">
<stop stop-color="#737373"/>
<stop offset="1" stop-color="#D9D9D9" stop-opacity="0"/>
</linearGradient>
<clipPath id="clip0_468_29747">
<rect width="366.667" height="340" fill="white" transform="translate(0.666626)"/>
</clipPath>
</defs>
</svg>
