<svg width="367" height="386" viewBox="0 0 367 386" fill="none" xmlns="http://www.w3.org/2000/svg">
<path d="M0 12C0 5.37257 5.37258 0 12 0H354.667C361.294 0 366.667 5.37258 366.667 12V374C366.667 380.627 361.294 386 354.667 386H12C5.37257 386 0 380.627 0 374V12Z" fill="#FAFAFA"/>
<path d="M0.5 12C0.5 5.64872 5.64873 0.5 12 0.5H354.667C361.018 0.5 366.167 5.64872 366.167 12V374C366.167 380.351 361.018 385.5 354.667 385.5H12C5.64871 385.5 0.5 380.351 0.5 374V12Z" stroke="black" stroke-opacity="0.05"/>
<g filter="url(#filter0_dd_468_28662)">
<rect x="53" y="63" width="260" height="260" rx="130" fill="white"/>
<path d="M297.3 211.575C299.59 211.947 301.152 214.107 300.7 216.382C296.549 237.28 286.901 256.724 272.718 272.692C257.604 289.707 237.962 302.074 216.086 308.349C194.209 314.624 170.999 314.548 149.163 308.131C127.328 301.713 107.768 289.219 92.7649 272.105C77.7621 254.991 67.9352 233.964 64.431 211.477C60.9267 188.989 63.8896 165.969 72.9739 145.102C82.0581 124.234 96.8892 106.381 115.737 93.6238C133.423 81.6525 153.962 74.6327 175.224 73.2522C177.539 73.1019 179.475 74.933 179.545 77.2516C179.614 79.5701 177.789 81.4976 175.475 81.654C155.806 82.9831 136.812 89.5019 120.445 100.58C102.917 112.444 89.124 129.048 80.6757 148.455C72.2273 167.861 69.4719 189.27 72.7308 210.183C75.9898 231.097 85.1287 250.652 99.0814 266.568C113.034 282.484 131.225 294.103 151.532 300.072C171.839 306.04 193.424 306.11 213.77 300.274C234.115 294.439 252.381 282.938 266.437 267.113C279.563 252.337 288.511 234.36 292.403 215.034C292.861 212.76 295.011 211.203 297.3 211.575Z" fill="#F0F0F0"/>
<path d="M287.629 143.378C289.725 142.384 292.237 143.275 293.157 145.404C300.655 162.756 303.947 181.636 302.765 200.501C302.62 202.816 300.558 204.505 298.249 204.279C295.941 204.053 294.261 201.998 294.4 199.683C295.441 182.333 292.414 164.979 285.562 149.006C284.648 146.874 285.533 144.372 287.629 143.378Z" fill="#FDB022"/>
<path d="M183 77.2C183 74.8804 184.881 72.9923 187.199 73.0735C193.694 73.3009 200.16 74.0556 206.533 75.3301C208.807 75.785 210.203 78.0555 209.669 80.3127C209.135 82.57 206.873 83.9586 204.597 83.5097C198.86 82.378 193.043 81.699 187.199 81.479C184.881 81.3917 183 79.5196 183 77.2Z" fill="#F23E94"/>
<path d="M212.95 81.1401C213.55 78.8995 215.855 77.5621 218.074 78.2401C224.68 80.2591 231.099 82.8448 237.261 85.9683C239.33 87.0172 240.064 89.5791 238.944 91.61C237.823 93.641 235.272 94.3714 233.2 93.328C227.638 90.5265 221.851 88.1956 215.9 86.3596C213.683 85.6758 212.35 83.3808 212.95 81.1401Z" fill="#1570EF"/>
<path d="M242.729 93.7928C243.926 91.8056 246.511 91.1583 248.455 92.4235C253.645 95.8014 258.567 99.576 263.174 103.713C264.9 105.263 264.945 107.928 263.336 109.599C261.727 111.269 259.073 111.313 257.343 109.767C253.194 106.062 248.774 102.671 244.119 99.6246C242.179 98.3542 241.533 95.7801 242.729 93.7928Z" fill="#06AED4"/>
<path d="M266.838 113.12C268.517 111.52 271.182 111.579 272.722 113.314C277.865 119.104 282.434 125.378 286.368 132.048C287.546 134.047 286.785 136.601 284.747 137.708C282.709 138.816 280.166 138.057 278.982 136.062C275.408 130.037 271.275 124.362 266.637 119.112C265.101 117.373 265.159 114.72 266.838 113.12Z" fill="#FF692E"/>
<path d="M154.939 151L158.523 141.06H160.147L163.731 151H162.415L161.421 148.172H157.249L156.255 151H154.939ZM157.655 146.996H161.015L159.335 142.11L157.655 146.996ZM166.187 151L163.485 143.58H164.773L166.929 149.796L169.085 143.58H170.373L167.671 151H166.187ZM173.49 151.168C172.725 151.168 172.113 150.991 171.656 150.636C171.208 150.281 170.984 149.787 170.984 149.152C170.984 148.517 171.171 148.018 171.544 147.654C171.917 147.29 172.51 147.033 173.322 146.884L175.954 146.394C175.954 145.769 175.805 145.302 175.506 144.994C175.217 144.686 174.778 144.532 174.19 144.532C173.677 144.532 173.271 144.649 172.972 144.882C172.673 145.106 172.468 145.433 172.356 145.862L171.11 145.764C171.25 145.064 171.586 144.499 172.118 144.07C172.659 143.631 173.35 143.412 174.19 143.412C175.142 143.412 175.87 143.683 176.374 144.224C176.878 144.756 177.13 145.493 177.13 146.436V149.502C177.13 149.67 177.158 149.791 177.214 149.866C177.279 149.931 177.382 149.964 177.522 149.964H177.816V151C177.779 151.009 177.718 151.014 177.634 151.014C177.55 151.023 177.461 151.028 177.368 151.028C177.032 151.028 176.757 150.977 176.542 150.874C176.337 150.762 176.187 150.594 176.094 150.37C176.001 150.137 175.954 149.833 175.954 149.46L176.094 149.488C176.029 149.805 175.87 150.095 175.618 150.356C175.366 150.608 175.053 150.809 174.68 150.958C174.307 151.098 173.91 151.168 173.49 151.168ZM173.602 150.132C174.097 150.132 174.517 150.039 174.862 149.852C175.217 149.656 175.487 149.395 175.674 149.068C175.861 148.732 175.954 148.359 175.954 147.948V147.416L173.546 147.864C173.042 147.957 172.692 148.102 172.496 148.298C172.309 148.485 172.216 148.732 172.216 149.04C172.216 149.385 172.337 149.656 172.58 149.852C172.832 150.039 173.173 150.132 173.602 150.132ZM179.09 151V143.58H180.266V151H179.09ZM179.062 142.418V141.046H180.294V142.418H179.062ZM183.827 151C183.398 151 183.048 150.888 182.777 150.664C182.506 150.44 182.371 150.085 182.371 149.6V141.06H183.547V149.502C183.547 149.651 183.584 149.768 183.659 149.852C183.743 149.927 183.86 149.964 184.009 149.964H184.653V151H183.827ZM188.105 151.168C187.34 151.168 186.729 150.991 186.271 150.636C185.823 150.281 185.599 149.787 185.599 149.152C185.599 148.517 185.786 148.018 186.159 147.654C186.533 147.29 187.125 147.033 187.937 146.884L190.569 146.394C190.569 145.769 190.42 145.302 190.121 144.994C189.832 144.686 189.393 144.532 188.805 144.532C188.292 144.532 187.886 144.649 187.587 144.882C187.289 145.106 187.083 145.433 186.971 145.862L185.725 145.764C185.865 145.064 186.201 144.499 186.733 144.07C187.275 143.631 187.965 143.412 188.805 143.412C189.757 143.412 190.485 143.683 190.989 144.224C191.493 144.756 191.745 145.493 191.745 146.436V149.502C191.745 149.67 191.773 149.791 191.829 149.866C191.895 149.931 191.997 149.964 192.137 149.964H192.431V151C192.394 151.009 192.333 151.014 192.249 151.014C192.165 151.023 192.077 151.028 191.983 151.028C191.647 151.028 191.372 150.977 191.157 150.874C190.952 150.762 190.803 150.594 190.709 150.37C190.616 150.137 190.569 149.833 190.569 149.46L190.709 149.488C190.644 149.805 190.485 150.095 190.233 150.356C189.981 150.608 189.669 150.809 189.295 150.958C188.922 151.098 188.525 151.168 188.105 151.168ZM188.217 150.132C188.712 150.132 189.132 150.039 189.477 149.852C189.832 149.656 190.103 149.395 190.289 149.068C190.476 148.732 190.569 148.359 190.569 147.948V147.416L188.161 147.864C187.657 147.957 187.307 148.102 187.111 148.298C186.925 148.485 186.831 148.732 186.831 149.04C186.831 149.385 186.953 149.656 187.195 149.852C187.447 150.039 187.788 150.132 188.217 150.132ZM197.107 151.168C196.594 151.168 196.136 151.056 195.735 150.832C195.334 150.599 195.026 150.281 194.811 149.88L194.769 151H193.705V141.06H194.881V144.616C195.068 144.308 195.357 144.033 195.749 143.79C196.141 143.538 196.594 143.412 197.107 143.412C197.76 143.412 198.325 143.571 198.801 143.888C199.277 144.205 199.646 144.653 199.907 145.232C200.168 145.811 200.299 146.497 200.299 147.29C200.299 148.083 200.168 148.769 199.907 149.348C199.646 149.927 199.277 150.375 198.801 150.692C198.325 151.009 197.76 151.168 197.107 151.168ZM197.037 150.048C197.662 150.048 198.157 149.801 198.521 149.306C198.885 148.811 199.067 148.139 199.067 147.29C199.067 146.431 198.885 145.759 198.521 145.274C198.157 144.779 197.672 144.532 197.065 144.532C196.608 144.532 196.216 144.644 195.889 144.868C195.562 145.083 195.31 145.395 195.133 145.806C194.965 146.217 194.881 146.711 194.881 147.29C194.881 147.85 194.965 148.34 195.133 148.76C195.31 149.171 195.558 149.488 195.875 149.712C196.202 149.936 196.589 150.048 197.037 150.048ZM203.419 151C202.989 151 202.639 150.888 202.369 150.664C202.098 150.44 201.963 150.085 201.963 149.6V141.06H203.139V149.502C203.139 149.651 203.176 149.768 203.251 149.852C203.335 149.927 203.451 149.964 203.601 149.964H204.245V151H203.419ZM208.511 151.168C207.811 151.168 207.204 151.009 206.691 150.692C206.187 150.375 205.795 149.927 205.515 149.348C205.244 148.76 205.109 148.074 205.109 147.29C205.109 146.506 205.244 145.825 205.515 145.246C205.795 144.667 206.182 144.219 206.677 143.902C207.181 143.575 207.774 143.412 208.455 143.412C209.099 143.412 209.668 143.566 210.163 143.874C210.658 144.173 211.04 144.611 211.311 145.19C211.591 145.769 211.731 146.473 211.731 147.304V147.654H206.341C206.388 148.447 206.598 149.045 206.971 149.446C207.354 149.847 207.867 150.048 208.511 150.048C208.996 150.048 209.393 149.936 209.701 149.712C210.018 149.479 210.238 149.175 210.359 148.802L211.619 148.9C211.423 149.563 211.05 150.109 210.499 150.538C209.958 150.958 209.295 151.168 208.511 151.168ZM206.341 146.618H210.443C210.387 145.899 210.177 145.372 209.813 145.036C209.458 144.7 209.006 144.532 208.455 144.532C207.886 144.532 207.414 144.709 207.041 145.064C206.677 145.409 206.444 145.927 206.341 146.618Z" fill="#737373"/>
<path d="M135.086 200.7V174H137.366V200.7H135.086ZM136.466 198.42C134.806 198.42 133.366 198.12 132.146 197.52C130.926 196.9 129.956 196.05 129.236 194.97C128.536 193.89 128.126 192.64 128.006 191.22L131.276 191.04C131.396 192 131.676 192.82 132.116 193.5C132.556 194.16 133.136 194.67 133.856 195.03C134.596 195.37 135.486 195.54 136.526 195.54C137.426 195.54 138.196 195.43 138.836 195.21C139.476 194.97 139.956 194.63 140.276 194.19C140.616 193.75 140.786 193.2 140.786 192.54C140.786 191.94 140.646 191.42 140.366 190.98C140.086 190.52 139.546 190.1 138.746 189.72C137.946 189.32 136.776 188.94 135.236 188.58C133.576 188.18 132.246 187.73 131.246 187.23C130.246 186.73 129.526 186.12 129.086 185.4C128.666 184.66 128.456 183.74 128.456 182.64C128.456 181.46 128.746 180.42 129.326 179.52C129.906 178.6 130.726 177.89 131.786 177.39C132.866 176.87 134.156 176.61 135.656 176.61C137.256 176.61 138.616 176.9 139.736 177.48C140.876 178.06 141.776 178.86 142.436 179.88C143.096 180.9 143.506 182.07 143.666 183.39L140.396 183.57C140.296 182.79 140.046 182.09 139.646 181.47C139.266 180.85 138.736 180.37 138.056 180.03C137.376 179.67 136.556 179.49 135.596 179.49C134.396 179.49 133.446 179.77 132.746 180.33C132.046 180.89 131.696 181.63 131.696 182.55C131.696 183.15 131.836 183.65 132.116 184.05C132.416 184.45 132.926 184.8 133.646 185.1C134.386 185.4 135.436 185.71 136.796 186.03C138.596 186.45 140.026 186.96 141.086 187.56C142.146 188.14 142.906 188.83 143.366 189.63C143.826 190.43 144.056 191.34 144.056 192.36C144.056 193.6 143.736 194.68 143.096 195.6C142.456 196.5 141.566 197.2 140.426 197.7C139.286 198.18 137.966 198.42 136.466 198.42ZM155.053 198.48C153.433 198.48 152.003 198.24 150.763 197.76C149.523 197.28 148.553 196.57 147.853 195.63C147.173 194.69 146.833 193.54 146.833 192.18C146.833 190.62 147.303 189.33 148.243 188.31C149.183 187.29 150.443 186.61 152.023 186.27L152.083 186.87C150.803 186.57 149.773 186.02 148.993 185.22C148.233 184.42 147.853 183.37 147.853 182.07C147.853 180.93 148.143 179.92 148.723 179.04C149.303 178.16 150.123 177.47 151.183 176.97C152.263 176.47 153.553 176.22 155.053 176.22C156.533 176.22 157.813 176.47 158.893 176.97C159.973 177.47 160.793 178.16 161.353 179.04C161.933 179.92 162.223 180.93 162.223 182.07C162.223 183.37 161.843 184.42 161.083 185.22C160.323 186 159.293 186.55 157.993 186.87L158.053 186.27C159.653 186.61 160.923 187.29 161.863 188.31C162.803 189.33 163.273 190.62 163.273 192.18C163.273 193.54 162.923 194.69 162.223 195.63C161.543 196.57 160.583 197.28 159.343 197.76C158.103 198.24 156.673 198.48 155.053 198.48ZM155.053 195.51C156.533 195.51 157.703 195.21 158.563 194.61C159.443 193.99 159.883 193.07 159.883 191.85C159.883 190.69 159.483 189.76 158.683 189.06C157.903 188.36 156.693 188.01 155.053 188.01C153.413 188.01 152.193 188.36 151.393 189.06C150.593 189.76 150.193 190.69 150.193 191.85C150.193 193.07 150.633 193.99 151.513 194.61C152.393 195.21 153.573 195.51 155.053 195.51ZM155.053 185.34C156.273 185.34 157.213 185.09 157.873 184.59C158.553 184.07 158.893 183.28 158.893 182.22C158.893 181.3 158.563 180.56 157.903 180C157.263 179.44 156.313 179.16 155.053 179.16C153.793 179.16 152.833 179.44 152.173 180C151.513 180.56 151.183 181.3 151.183 182.22C151.183 183.28 151.523 184.07 152.203 184.59C152.883 185.09 153.833 185.34 155.053 185.34ZM173.683 198.48C171.223 198.48 169.323 197.91 167.983 196.77C166.663 195.63 165.953 194.13 165.853 192.27L169.183 192.09C169.303 193.31 169.763 194.19 170.563 194.73C171.383 195.25 172.423 195.51 173.683 195.51C174.523 195.51 175.293 195.4 175.993 195.18C176.713 194.94 177.283 194.56 177.703 194.04C178.143 193.5 178.363 192.8 178.363 191.94C178.363 190.66 177.933 189.72 177.073 189.12C176.213 188.5 175.073 188.19 173.653 188.19H171.883V185.37H173.653C174.793 185.37 175.743 185.14 176.503 184.68C177.263 184.22 177.643 183.42 177.643 182.28C177.643 181.28 177.323 180.52 176.683 180C176.043 179.46 175.063 179.19 173.743 179.19C172.463 179.19 171.493 179.44 170.833 179.94C170.173 180.44 169.783 181.12 169.663 181.98L166.333 181.8C166.533 180.12 167.263 178.77 168.523 177.75C169.803 176.73 171.543 176.22 173.743 176.22C175.263 176.22 176.563 176.46 177.643 176.94C178.723 177.4 179.553 178.07 180.133 178.95C180.713 179.83 181.003 180.86 181.003 182.04C181.003 183.34 180.583 184.4 179.743 185.22C178.923 186.04 177.713 186.6 176.113 186.9V186.36C177.853 186.58 179.223 187.2 180.223 188.22C181.223 189.22 181.723 190.5 181.723 192.06C181.723 193.4 181.383 194.56 180.703 195.54C180.023 196.5 179.083 197.23 177.883 197.73C176.683 198.23 175.283 198.48 173.683 198.48ZM192.733 198.48C191.153 198.48 189.803 198.23 188.683 197.73C187.563 197.21 186.683 196.49 186.043 195.57C185.403 194.65 185.033 193.59 184.933 192.39L188.263 192.18C188.423 193.3 188.893 194.14 189.673 194.7C190.473 195.24 191.493 195.51 192.733 195.51C194.133 195.51 195.233 195.12 196.033 194.34C196.853 193.56 197.263 192.47 197.263 191.07C197.263 190.15 197.073 189.36 196.693 188.7C196.333 188.02 195.813 187.5 195.133 187.14C194.453 186.76 193.643 186.57 192.703 186.57C191.763 186.57 190.923 186.77 190.183 187.17C189.443 187.57 188.913 188.12 188.593 188.82H185.233L186.673 176.7H199.153V179.67H189.553L188.653 186.96L188.143 186.51C188.483 185.91 188.913 185.42 189.433 185.04C189.953 184.64 190.553 184.34 191.233 184.14C191.933 183.92 192.673 183.81 193.453 183.81C194.893 183.81 196.143 184.12 197.203 184.74C198.283 185.36 199.123 186.22 199.723 187.32C200.323 188.42 200.623 189.67 200.623 191.07C200.623 192.53 200.293 193.82 199.633 194.94C198.973 196.06 198.053 196.93 196.873 197.55C195.693 198.17 194.313 198.48 192.733 198.48ZM203.642 198V194.22H207.512V198H203.642ZM218.293 198.48C216.533 198.48 215.003 198.03 213.703 197.13C212.403 196.23 211.403 194.95 210.703 193.29C210.003 191.63 209.653 189.66 209.653 187.38C209.653 185.1 210.003 183.13 210.703 181.47C211.423 179.79 212.423 178.5 213.703 177.6C215.003 176.68 216.533 176.22 218.293 176.22C220.073 176.22 221.603 176.68 222.883 177.6C224.183 178.5 225.183 179.78 225.883 181.44C226.603 183.1 226.963 185.08 226.963 187.38C226.963 189.66 226.613 191.63 225.913 193.29C225.213 194.95 224.213 196.23 222.913 197.13C221.613 198.03 220.073 198.48 218.293 198.48ZM218.293 195.51C219.993 195.51 221.303 194.81 222.223 193.41C223.143 192.01 223.603 190 223.603 187.38C223.603 185.62 223.393 184.13 222.973 182.91C222.573 181.69 221.973 180.77 221.173 180.15C220.393 179.51 219.433 179.19 218.293 179.19C217.173 179.19 216.213 179.51 215.413 180.15C214.633 180.77 214.033 181.69 213.613 182.91C213.213 184.13 213.013 185.62 213.013 187.38C213.013 190 213.473 192.01 214.393 193.41C215.313 194.81 216.613 195.51 218.293 195.51ZM234.097 198V182.82H229.597V180.21H231.427C232.227 180.21 232.877 180.11 233.377 179.91C233.877 179.69 234.237 179.33 234.457 178.83C234.677 178.31 234.787 177.6 234.787 176.7H237.337V198H234.097Z" fill="#141414"/>
<rect x="133" y="218" width="101" height="32" rx="10" fill="#F5F5F5"/>
<path d="M145.179 239.168C144.47 239.168 143.849 239.009 143.317 238.692C142.785 238.375 142.375 237.922 142.085 237.334C141.796 236.746 141.651 236.06 141.651 235.276C141.651 234.483 141.796 233.797 142.085 233.218C142.375 232.639 142.785 232.191 143.317 231.874C143.849 231.547 144.47 231.384 145.179 231.384C145.889 231.384 146.509 231.547 147.041 231.874C147.573 232.191 147.984 232.639 148.273 233.218C148.563 233.797 148.707 234.483 148.707 235.276C148.707 236.06 148.563 236.746 148.273 237.334C147.984 237.922 147.573 238.375 147.041 238.692C146.509 239.009 145.889 239.168 145.179 239.168ZM145.179 237.88C145.814 237.88 146.304 237.651 146.649 237.194C146.995 236.727 147.167 236.088 147.167 235.276C147.167 234.464 146.995 233.829 146.649 233.372C146.304 232.905 145.814 232.672 145.179 232.672C144.554 232.672 144.064 232.905 143.709 233.372C143.364 233.829 143.191 234.464 143.191 235.276C143.191 236.088 143.364 236.727 143.709 237.194C144.064 237.651 144.554 237.88 145.179 237.88ZM150.676 239V231.076C150.676 230.46 150.849 229.97 151.194 229.606C151.539 229.242 152.081 229.06 152.818 229.06H154.134V230.278H153.014C152.725 230.278 152.51 230.357 152.37 230.516C152.23 230.665 152.16 230.88 152.16 231.16V239H150.676ZM149.64 232.854V231.65H154.022V232.854H149.64ZM162.104 240.26V227.8H163.168V240.26H162.104ZM162.748 239.196C161.973 239.196 161.301 239.056 160.732 238.776C160.163 238.487 159.71 238.09 159.374 237.586C159.047 237.082 158.856 236.499 158.8 235.836L160.326 235.752C160.382 236.2 160.513 236.583 160.718 236.9C160.923 237.208 161.194 237.446 161.53 237.614C161.875 237.773 162.291 237.852 162.776 237.852C163.196 237.852 163.555 237.801 163.854 237.698C164.153 237.586 164.377 237.427 164.526 237.222C164.685 237.017 164.764 236.76 164.764 236.452C164.764 236.172 164.699 235.929 164.568 235.724C164.437 235.509 164.185 235.313 163.812 235.136C163.439 234.949 162.893 234.772 162.174 234.604C161.399 234.417 160.779 234.207 160.312 233.974C159.845 233.741 159.509 233.456 159.304 233.12C159.108 232.775 159.01 232.345 159.01 231.832C159.01 231.281 159.145 230.796 159.416 230.376C159.687 229.947 160.069 229.615 160.564 229.382C161.068 229.139 161.67 229.018 162.37 229.018C163.117 229.018 163.751 229.153 164.274 229.424C164.806 229.695 165.226 230.068 165.534 230.544C165.842 231.02 166.033 231.566 166.108 232.182L164.582 232.266C164.535 231.902 164.419 231.575 164.232 231.286C164.055 230.997 163.807 230.773 163.49 230.614C163.173 230.446 162.79 230.362 162.342 230.362C161.782 230.362 161.339 230.493 161.012 230.754C160.685 231.015 160.522 231.361 160.522 231.79C160.522 232.07 160.587 232.303 160.718 232.49C160.858 232.677 161.096 232.84 161.432 232.98C161.777 233.12 162.267 233.265 162.902 233.414C163.742 233.61 164.409 233.848 164.904 234.128C165.399 234.399 165.753 234.721 165.968 235.094C166.183 235.467 166.29 235.892 166.29 236.368C166.29 236.947 166.141 237.451 165.842 237.88C165.543 238.3 165.128 238.627 164.596 238.86C164.064 239.084 163.448 239.196 162.748 239.196ZM171.366 239.224C170.218 239.224 169.331 238.958 168.706 238.426C168.09 237.894 167.759 237.194 167.712 236.326L169.266 236.242C169.322 236.811 169.537 237.222 169.91 237.474C170.293 237.717 170.778 237.838 171.366 237.838C171.758 237.838 172.117 237.787 172.444 237.684C172.78 237.572 173.046 237.395 173.242 237.152C173.447 236.9 173.55 236.573 173.55 236.172C173.55 235.575 173.349 235.136 172.948 234.856C172.547 234.567 172.015 234.422 171.352 234.422H170.526V233.106H171.352C171.884 233.106 172.327 232.999 172.682 232.784C173.037 232.569 173.214 232.196 173.214 231.664C173.214 231.197 173.065 230.843 172.766 230.6C172.467 230.348 172.01 230.222 171.394 230.222C170.797 230.222 170.344 230.339 170.036 230.572C169.728 230.805 169.546 231.123 169.49 231.524L167.936 231.44C168.029 230.656 168.37 230.026 168.958 229.55C169.555 229.074 170.367 228.836 171.394 228.836C172.103 228.836 172.71 228.948 173.214 229.172C173.718 229.387 174.105 229.699 174.376 230.11C174.647 230.521 174.782 231.001 174.782 231.552C174.782 232.159 174.586 232.653 174.194 233.036C173.811 233.419 173.247 233.68 172.5 233.82V233.568C173.312 233.671 173.951 233.96 174.418 234.436C174.885 234.903 175.118 235.5 175.118 236.228C175.118 236.853 174.959 237.395 174.642 237.852C174.325 238.3 173.886 238.641 173.326 238.874C172.766 239.107 172.113 239.224 171.366 239.224ZM176.448 241.198L177.148 239H176.378V237.236H178.184V238.79L177.302 241.198H176.448ZM183.153 239.224C182.397 239.224 181.729 239.112 181.151 238.888C180.572 238.664 180.119 238.333 179.793 237.894C179.475 237.455 179.317 236.919 179.317 236.284C179.317 235.556 179.536 234.954 179.975 234.478C180.413 234.002 181.001 233.685 181.739 233.526L181.767 233.806C181.169 233.666 180.689 233.409 180.325 233.036C179.97 232.663 179.793 232.173 179.793 231.566C179.793 231.034 179.928 230.563 180.199 230.152C180.469 229.741 180.852 229.419 181.347 229.186C181.851 228.953 182.453 228.836 183.153 228.836C183.843 228.836 184.441 228.953 184.945 229.186C185.449 229.419 185.831 229.741 186.093 230.152C186.363 230.563 186.499 231.034 186.499 231.566C186.499 232.173 186.321 232.663 185.967 233.036C185.612 233.4 185.131 233.657 184.525 233.806L184.553 233.526C185.299 233.685 185.892 234.002 186.331 234.478C186.769 234.954 186.989 235.556 186.989 236.284C186.989 236.919 186.825 237.455 186.499 237.894C186.181 238.333 185.733 238.664 185.155 238.888C184.576 239.112 183.909 239.224 183.153 239.224ZM183.153 237.838C183.843 237.838 184.389 237.698 184.791 237.418C185.201 237.129 185.407 236.699 185.407 236.13C185.407 235.589 185.22 235.155 184.847 234.828C184.483 234.501 183.918 234.338 183.153 234.338C182.387 234.338 181.818 234.501 181.445 234.828C181.071 235.155 180.885 235.589 180.885 236.13C180.885 236.699 181.09 237.129 181.501 237.418C181.911 237.698 182.462 237.838 183.153 237.838ZM183.153 233.092C183.722 233.092 184.161 232.975 184.469 232.742C184.786 232.499 184.945 232.131 184.945 231.636C184.945 231.207 184.791 230.861 184.483 230.6C184.184 230.339 183.741 230.208 183.153 230.208C182.565 230.208 182.117 230.339 181.809 230.6C181.501 230.861 181.347 231.207 181.347 231.636C181.347 232.131 181.505 232.499 181.823 232.742C182.14 232.975 182.583 233.092 183.153 233.092ZM191.987 239.224C191.249 239.224 190.619 239.107 190.097 238.874C189.574 238.631 189.163 238.295 188.865 237.866C188.566 237.437 188.393 236.942 188.347 236.382L189.901 236.284C189.975 236.807 190.195 237.199 190.559 237.46C190.932 237.712 191.408 237.838 191.987 237.838C192.64 237.838 193.153 237.656 193.527 237.292C193.909 236.928 194.101 236.419 194.101 235.766C194.101 235.337 194.012 234.968 193.835 234.66C193.667 234.343 193.424 234.1 193.107 233.932C192.789 233.755 192.411 233.666 191.973 233.666C191.534 233.666 191.142 233.759 190.797 233.946C190.451 234.133 190.204 234.389 190.055 234.716H188.487L189.159 229.06H194.983V230.446H190.503L190.083 233.848L189.845 233.638C190.003 233.358 190.204 233.129 190.447 232.952C190.689 232.765 190.969 232.625 191.287 232.532C191.613 232.429 191.959 232.378 192.323 232.378C192.995 232.378 193.578 232.523 194.073 232.812C194.577 233.101 194.969 233.503 195.249 234.016C195.529 234.529 195.669 235.113 195.669 235.766C195.669 236.447 195.515 237.049 195.207 237.572C194.899 238.095 194.469 238.501 193.919 238.79C193.368 239.079 192.724 239.224 191.987 239.224ZM201.207 239.224C200.386 239.224 199.672 239.014 199.065 238.594C198.459 238.174 197.992 237.577 197.665 236.802C197.339 236.027 197.175 235.108 197.175 234.044C197.175 232.98 197.339 232.061 197.665 231.286C198.001 230.502 198.468 229.9 199.065 229.48C199.672 229.051 200.386 228.836 201.207 228.836C202.038 228.836 202.752 229.051 203.349 229.48C203.956 229.9 204.423 230.497 204.749 231.272C205.085 232.047 205.253 232.971 205.253 234.044C205.253 235.108 205.09 236.027 204.763 236.802C204.437 237.577 203.97 238.174 203.363 238.594C202.757 239.014 202.038 239.224 201.207 239.224ZM201.207 237.838C202.001 237.838 202.612 237.511 203.041 236.858C203.471 236.205 203.685 235.267 203.685 234.044C203.685 233.223 203.587 232.527 203.391 231.958C203.205 231.389 202.925 230.959 202.551 230.67C202.187 230.371 201.739 230.222 201.207 230.222C200.685 230.222 200.237 230.371 199.863 230.67C199.499 230.959 199.219 231.389 199.023 231.958C198.837 232.527 198.743 233.223 198.743 234.044C198.743 235.267 198.958 236.205 199.387 236.858C199.817 237.511 200.423 237.838 201.207 237.838Z" fill="#141414"/>
<g clip-path="url(#clip0_468_28662)">
<path d="M220 229.333L222.667 232M221.333 228C221.503 227.799 221.713 227.636 221.95 227.52C222.187 227.404 222.445 227.339 222.709 227.328C222.973 227.317 223.236 227.361 223.482 227.457C223.727 227.553 223.95 227.698 224.136 227.884C224.322 228.07 224.467 228.292 224.562 228.537C224.656 228.782 224.699 229.043 224.686 229.305C224.673 229.567 224.605 229.823 224.487 230.057C224.369 230.292 224.203 230.499 224 230.666L215 239.666L211.333 240.666L212.333 237L221.333 228Z" stroke="#737373" stroke-width="1.5" stroke-linecap="round" stroke-linejoin="round"/>
</g>
</g>
<defs>
<filter id="filter0_dd_468_28662" x="51" y="62" width="264" height="265" filterUnits="userSpaceOnUse" color-interpolation-filters="sRGB">
<feFlood flood-opacity="0" result="BackgroundImageFix"/>
<feColorMatrix in="SourceAlpha" type="matrix" values="0 0 0 0 0 0 0 0 0 0 0 0 0 0 0 0 0 0 127 0" result="hardAlpha"/>
<feOffset dy="2"/>
<feGaussianBlur stdDeviation="1"/>
<feColorMatrix type="matrix" values="0 0 0 0 0.0431373 0 0 0 0 0.0431373 0 0 0 0 0.0431373 0 0 0 0.05 0"/>
<feBlend mode="normal" in2="BackgroundImageFix" result="effect1_dropShadow_468_28662"/>
<feColorMatrix in="SourceAlpha" type="matrix" values="0 0 0 0 0 0 0 0 0 0 0 0 0 0 0 0 0 0 127 0" result="hardAlpha"/>
<feMorphology radius="1" operator="dilate" in="SourceAlpha" result="effect2_dropShadow_468_28662"/>
<feOffset/>
<feComposite in2="hardAlpha" operator="out"/>
<feColorMatrix type="matrix" values="0 0 0 0 0.0431373 0 0 0 0 0.0431373 0 0 0 0 0.0431373 0 0 0 0.04 0"/>
<feBlend mode="normal" in2="effect1_dropShadow_468_28662" result="effect2_dropShadow_468_28662"/>
<feBlend mode="normal" in="SourceGraphic" in2="effect2_dropShadow_468_28662" result="shape"/>
</filter>
<clipPath id="clip0_468_28662">
<rect width="16" height="16" fill="white" transform="translate(210 226)"/>
</clipPath>
</defs>
</svg>
