<svg width="44" height="44" viewBox="0 0 44 44" fill="none" xmlns="http://www.w3.org/2000/svg">
<g filter="url(#filter0_i_468_28977)">
<rect x="2" y="2" width="40" height="40" rx="20" fill="#875BF7" fill-opacity="0.1"/>
<rect x="1" y="1" width="42" height="42" rx="21" stroke="#FFFDFE" stroke-width="2"/>
<path d="M18.2999 19.9998C18.171 20.0068 18.0427 19.9781 17.9291 19.9167C17.8155 19.8554 17.7211 19.7638 17.6563 19.6521C17.5915 19.5405 17.5589 19.413 17.562 19.284C17.5651 19.1549 17.6038 19.0292 17.6739 18.9208L21.3999 12.9998C21.4585 12.8944 21.5433 12.8059 21.6461 12.7428C21.7489 12.6798 21.8663 12.6444 21.9868 12.6401C22.1073 12.6358 22.2269 12.6627 22.334 12.7181C22.441 12.7736 22.532 12.8558 22.5979 12.9568L26.2999 18.8998C26.3729 19.0046 26.4158 19.1274 26.424 19.2548C26.4322 19.3822 26.4054 19.5095 26.3465 19.6228C26.2876 19.7361 26.1988 19.8311 26.0898 19.8975C25.9807 19.964 25.8556 19.9994 25.7279 19.9998H18.2999Z" stroke="#875BF7" stroke-width="1.875" stroke-linecap="round" stroke-linejoin="round"/>
<path d="M19 23.9998H14C13.4477 23.9998 13 24.4475 13 24.9998V29.9998C13 30.552 13.4477 30.9998 14 30.9998H19C19.5523 30.9998 20 30.552 20 29.9998V24.9998C20 24.4475 19.5523 23.9998 19 23.9998Z" stroke="#875BF7" stroke-width="1.875" stroke-linecap="round" stroke-linejoin="round"/>
<path d="M27.5 30.9998C29.433 30.9998 31 29.4328 31 27.4998C31 25.5668 29.433 23.9998 27.5 23.9998C25.567 23.9998 24 25.5668 24 27.4998C24 29.4328 25.567 30.9998 27.5 30.9998Z" stroke="#875BF7" stroke-width="1.875" stroke-linecap="round" stroke-linejoin="round"/>
</g>
<defs>
<filter id="filter0_i_468_28977" x="0" y="0" width="44" height="44" filterUnits="userSpaceOnUse" color-interpolation-filters="sRGB">
<feFlood flood-opacity="0" result="BackgroundImageFix"/>
<feBlend mode="normal" in="SourceGraphic" in2="BackgroundImageFix" result="shape"/>
<feColorMatrix in="SourceAlpha" type="matrix" values="0 0 0 0 0 0 0 0 0 0 0 0 0 0 0 0 0 0 127 0" result="hardAlpha"/>
<feMorphology radius="3" operator="erode" in="SourceAlpha" result="effect1_innerShadow_468_28977"/>
<feOffset/>
<feComposite in2="hardAlpha" operator="arithmetic" k2="-1" k3="1"/>
<feColorMatrix type="matrix" values="0 0 0 0 0 0 0 0 0 0 0 0 0 0 0 0 0 0 0.02 0"/>
<feBlend mode="normal" in2="shape" result="effect1_innerShadow_468_28977"/>
</filter>
</defs>
</svg>
