<svg width="44" height="44" viewBox="0 0 44 44" fill="none" xmlns="http://www.w3.org/2000/svg">
<g filter="url(#filter0_i_468_28981)">
<rect x="2" y="2" width="40" height="40" rx="20" fill="#FDB022" fill-opacity="0.1"/>
<rect x="1" y="1" width="42" height="42" rx="21" stroke="#FFFDFE" stroke-width="2"/>
<path d="M15 13V17M29 27V31M13 15H17M27 29H31M22 13L20.088 18.813C19.9901 19.1105 19.8238 19.3809 19.6023 19.6023C19.3809 19.8238 19.1105 19.9901 18.813 20.088L13 22L18.813 23.912C19.1105 24.0099 19.3809 24.1762 19.6023 24.3977C19.8238 24.6191 19.9901 24.8895 20.088 25.187L22 31L23.912 25.187C24.0099 24.8895 24.1762 24.6191 24.3977 24.3977C24.6191 24.1762 24.8895 24.0099 25.187 23.912L31 22L25.187 20.088C24.8895 19.9901 24.6191 19.8238 24.3977 19.6023C24.1762 19.3809 24.0099 19.1105 23.912 18.813L22 13Z" stroke="#F79009" stroke-width="1.875" stroke-linecap="round" stroke-linejoin="round"/>
</g>
<defs>
<filter id="filter0_i_468_28981" x="0" y="0" width="44" height="44" filterUnits="userSpaceOnUse" color-interpolation-filters="sRGB">
<feFlood flood-opacity="0" result="BackgroundImageFix"/>
<feBlend mode="normal" in="SourceGraphic" in2="BackgroundImageFix" result="shape"/>
<feColorMatrix in="SourceAlpha" type="matrix" values="0 0 0 0 0 0 0 0 0 0 0 0 0 0 0 0 0 0 127 0" result="hardAlpha"/>
<feMorphology radius="3" operator="erode" in="SourceAlpha" result="effect1_innerShadow_468_28981"/>
<feOffset/>
<feComposite in2="hardAlpha" operator="arithmetic" k2="-1" k3="1"/>
<feColorMatrix type="matrix" values="0 0 0 0 0 0 0 0 0 0 0 0 0 0 0 0 0 0 0.02 0"/>
<feBlend mode="normal" in2="shape" result="effect1_innerShadow_468_28981"/>
</filter>
</defs>
</svg>
