<svg width="367" height="386" viewBox="0 0 367 386" fill="none" xmlns="http://www.w3.org/2000/svg">
<g clip-path="url(#clip0_468_28574)">
<path d="M0.333374 12C0.333374 5.37257 5.70596 0 12.3334 0H355C361.628 0 367 5.37258 367 12V374C367 380.627 361.627 386 355 386H12.3334C5.70595 386 0.333374 380.627 0.333374 374V12Z" fill="#FAFAFA"/>
<g filter="url(#filter0_dd_468_28574)">
<g clip-path="url(#clip1_468_28574)">
<rect x="15.9974" y="46" width="336" height="473.6" rx="9.6" fill="white"/>
<path d="M29.8982 72.7998V63.7118H31.6518L35.8502 71.123V63.7118H37.2326V72.7998H35.415L31.2806 65.555V72.7998H29.8982ZM41.9731 72.9534C41.3075 72.9534 40.7315 72.8083 40.2451 72.5182C39.7673 72.2281 39.3961 71.8142 39.1315 71.2766C38.8755 70.739 38.7475 70.1118 38.7475 69.395C38.7475 68.6782 38.8755 68.0553 39.1315 67.5262C39.3961 66.9886 39.7673 66.5747 40.2451 66.2846C40.723 65.9859 41.2862 65.8366 41.9347 65.8366C42.5491 65.8366 43.091 65.9817 43.5603 66.2718C44.0297 66.5534 44.3923 66.963 44.6483 67.5006C44.9129 68.0382 45.0451 68.6867 45.0451 69.4462V69.7918H40.1555C40.1897 70.4574 40.3646 70.9566 40.6803 71.2894C41.0046 71.6222 41.4398 71.7886 41.9859 71.7886C42.387 71.7886 42.7198 71.6947 42.9843 71.507C43.2489 71.3193 43.4323 71.0675 43.5347 70.7518L44.9427 70.8414C44.7635 71.4729 44.4094 71.9849 43.8803 72.3774C43.3598 72.7614 42.7241 72.9534 41.9731 72.9534ZM40.1555 68.7678H43.6115C43.5689 68.1619 43.3939 67.7139 43.0867 67.4238C42.7881 67.1337 42.4041 66.9886 41.9347 66.9886C41.4483 66.9886 41.0473 67.1422 40.7315 67.4494C40.4243 67.7481 40.2323 68.1875 40.1555 68.7678ZM47.6026 72.7998L45.529 65.9902H46.9498L48.409 71.315L49.9066 65.9902H51.1866L52.6842 71.315L54.1562 65.9902H55.577L53.5034 72.7998H51.9802L50.5466 67.9358L49.113 72.7998H47.6026ZM62.5436 72.7998C61.8951 72.7998 61.4172 72.6505 61.11 72.3518C60.8028 72.0531 60.6492 71.5881 60.6492 70.9566V64.3902H62.006V70.8542C62.006 71.1699 62.0743 71.3875 62.2108 71.507C62.3474 71.6265 62.5564 71.6862 62.838 71.6862H63.8108V72.7998H62.5436ZM59.6124 67.1038V65.9902H63.8108V67.1038H59.6124ZM65.2449 72.7998V65.9902H66.4865L66.5377 67.795L66.4225 67.7566C66.5164 67.1422 66.7041 66.6942 66.9857 66.4126C67.2759 66.131 67.6641 65.9902 68.1505 65.9902H68.8033V67.2062H68.1505C67.8092 67.2062 67.5233 67.2617 67.2929 67.3726C67.0625 67.4835 66.8876 67.6542 66.7681 67.8846C66.6572 68.115 66.6017 68.4137 66.6017 68.7806V72.7998H65.2449ZM71.7021 72.9534C70.9939 72.9534 70.4264 72.7913 69.9997 72.467C69.5816 72.1427 69.3725 71.6862 69.3725 71.0974C69.3725 70.5086 69.5475 70.0521 69.8973 69.7278C70.2557 69.395 70.8061 69.1561 71.5485 69.011L73.8909 68.563C73.8909 68.0339 73.7672 67.6414 73.5197 67.3854C73.2723 67.1209 72.9053 66.9886 72.4189 66.9886C71.9837 66.9886 71.6424 67.0867 71.3949 67.283C71.1475 67.4707 70.9768 67.7523 70.8829 68.1278L69.4877 68.0382C69.6157 67.3555 69.9315 66.8179 70.4349 66.4254C70.9469 66.0329 71.6083 65.8366 72.4189 65.8366C73.3405 65.8366 74.0403 66.0841 74.5181 66.579C75.0045 67.0654 75.2477 67.7523 75.2477 68.6398V71.2894C75.2477 71.4515 75.2733 71.5667 75.3245 71.635C75.3843 71.6947 75.4781 71.7246 75.6061 71.7246H75.8493V72.7998C75.8067 72.8083 75.7384 72.8169 75.6445 72.8254C75.5507 72.8339 75.4525 72.8382 75.3501 72.8382C75.06 72.8382 74.8083 72.7913 74.5949 72.6974C74.3901 72.6035 74.2365 72.4499 74.1341 72.2366C74.0317 72.0147 73.9805 71.7203 73.9805 71.3534L74.1213 71.4174C74.0531 71.7161 73.9037 71.9806 73.6733 72.211C73.4515 72.4414 73.1656 72.6249 72.8157 72.7614C72.4744 72.8894 72.1032 72.9534 71.7021 72.9534ZM71.9197 71.8782C72.3293 71.8782 72.6792 71.8014 72.9693 71.6478C73.2595 71.4857 73.4856 71.2638 73.6477 70.9822C73.8099 70.7006 73.8909 70.3806 73.8909 70.0222V69.587L71.8941 69.971C71.4845 70.0478 71.1944 70.1715 71.0237 70.3422C70.8616 70.5043 70.7805 70.7134 70.7805 70.9694C70.7805 71.2595 70.8787 71.4857 71.0749 71.6478C71.2797 71.8014 71.5613 71.8782 71.9197 71.8782ZM76.9949 72.7998V65.9902H78.2365L78.2877 67.8078L78.1213 67.7182C78.1981 67.2745 78.3432 66.9161 78.5565 66.643C78.7699 66.3699 79.0301 66.1694 79.3373 66.0414C79.6445 65.9049 79.9773 65.8366 80.3357 65.8366C80.8477 65.8366 81.2701 65.9518 81.6029 66.1822C81.9443 66.4041 82.2003 66.7113 82.3709 67.1038C82.5501 67.4878 82.6397 67.9273 82.6397 68.4222V72.7998H81.2829V68.8318C81.2829 68.4307 81.2403 68.0937 81.1549 67.8206C81.0696 67.5475 80.9288 67.3385 80.7325 67.1934C80.5363 67.0483 80.2803 66.9758 79.9645 66.9758C79.4867 66.9758 79.0984 67.1337 78.7997 67.4494C78.5011 67.7651 78.3517 68.2259 78.3517 68.8318V72.7998H76.9949ZM87.0314 72.9534C86.3914 72.9534 85.8496 72.8553 85.4058 72.659C84.9706 72.4627 84.6336 72.1939 84.3946 71.8526C84.1557 71.5027 84.0192 71.1017 83.985 70.6494L85.3802 70.5854C85.4485 70.9609 85.6106 71.2595 85.8666 71.4814C86.1226 71.7033 86.5109 71.8142 87.0314 71.8142C87.4581 71.8142 87.7952 71.7459 88.0426 71.6094C88.2901 71.4729 88.4138 71.2553 88.4138 70.9566C88.4138 70.7945 88.3712 70.6579 88.2858 70.547C88.209 70.4275 88.0554 70.3294 87.825 70.2526C87.5946 70.1673 87.2533 70.0862 86.801 70.0094C86.1269 69.8814 85.5978 69.7321 85.2138 69.5614C84.8298 69.3907 84.5568 69.1731 84.3946 68.9086C84.2325 68.6441 84.1514 68.3241 84.1514 67.9486C84.1514 67.3257 84.3818 66.8179 84.8426 66.4254C85.312 66.0329 85.9861 65.8366 86.865 65.8366C87.4538 65.8366 87.9488 65.939 88.3498 66.1438C88.7509 66.3401 89.0624 66.6089 89.2842 66.9502C89.5146 67.283 89.6597 67.6585 89.7194 68.0766L88.3242 68.1534C88.2816 67.9145 88.1962 67.7097 88.0682 67.539C87.9488 67.3598 87.7866 67.2233 87.5818 67.1294C87.377 67.027 87.1338 66.9758 86.8522 66.9758C86.417 66.9758 86.0928 67.0611 85.8794 67.2318C85.6661 67.4025 85.5594 67.6243 85.5594 67.8974C85.5594 68.1022 85.6064 68.2686 85.7002 68.3966C85.8026 68.5246 85.9648 68.6313 86.1866 68.7166C86.4085 68.7934 86.7029 68.8617 87.0698 68.9214C87.7781 69.0409 88.3328 69.1902 88.7338 69.3694C89.1349 69.5401 89.4165 69.7534 89.5786 70.0094C89.7408 70.2654 89.8218 70.5769 89.8218 70.9438C89.8218 71.3705 89.7024 71.7331 89.4634 72.0318C89.2245 72.3305 88.896 72.5609 88.4778 72.723C88.0597 72.8766 87.5776 72.9534 87.0314 72.9534ZM93.2396 72.9534C92.5314 72.9534 91.9639 72.7913 91.5372 72.467C91.1191 72.1427 90.91 71.6862 90.91 71.0974C90.91 70.5086 91.085 70.0521 91.4348 69.7278C91.7932 69.395 92.3436 69.1561 93.086 69.011L95.4284 68.563C95.4284 68.0339 95.3047 67.6414 95.0572 67.3854C94.8098 67.1209 94.4428 66.9886 93.9564 66.9886C93.5212 66.9886 93.1799 67.0867 92.9324 67.283C92.685 67.4707 92.5143 67.7523 92.4204 68.1278L91.0252 68.0382C91.1532 67.3555 91.469 66.8179 91.9724 66.4254C92.4844 66.0329 93.1458 65.8366 93.9564 65.8366C94.878 65.8366 95.5778 66.0841 96.0556 66.579C96.542 67.0654 96.7852 67.7523 96.7852 68.6398V71.2894C96.7852 71.4515 96.8108 71.5667 96.862 71.635C96.9218 71.6947 97.0156 71.7246 97.1436 71.7246H97.3868V72.7998C97.3442 72.8083 97.2759 72.8169 97.182 72.8254C97.0882 72.8339 96.99 72.8382 96.8876 72.8382C96.5975 72.8382 96.3458 72.7913 96.1324 72.6974C95.9276 72.6035 95.774 72.4499 95.6716 72.2366C95.5692 72.0147 95.518 71.7203 95.518 71.3534L95.6588 71.4174C95.5906 71.7161 95.4412 71.9806 95.2108 72.211C94.989 72.4414 94.7031 72.6249 94.3532 72.7614C94.0119 72.8894 93.6407 72.9534 93.2396 72.9534ZM93.4572 71.8782C93.8668 71.8782 94.2167 71.8014 94.5068 71.6478C94.797 71.4857 95.0231 71.2638 95.1852 70.9822C95.3474 70.7006 95.4284 70.3806 95.4284 70.0222V69.587L93.4316 69.971C93.022 70.0478 92.7319 70.1715 92.5612 70.3422C92.3991 70.5043 92.318 70.7134 92.318 70.9694C92.318 71.2595 92.4162 71.4857 92.6124 71.6478C92.8172 71.8014 93.0988 71.8782 93.4572 71.8782ZM101.286 72.9534C100.637 72.9534 100.07 72.8083 99.5832 72.5182C99.0968 72.2281 98.7214 71.8142 98.4568 71.2766C98.1923 70.739 98.06 70.1118 98.06 69.395C98.06 68.6782 98.1923 68.0553 98.4568 67.5262C98.7214 66.9886 99.0968 66.5747 99.5832 66.2846C100.07 65.9859 100.637 65.8366 101.286 65.8366C101.84 65.8366 102.331 65.9347 102.758 66.131C103.193 66.3187 103.543 66.5961 103.807 66.963C104.08 67.3299 104.255 67.7779 104.332 68.307L102.911 68.3838C102.843 67.9401 102.664 67.603 102.374 67.3726C102.083 67.1337 101.721 67.0142 101.286 67.0142C100.714 67.0142 100.266 67.2275 99.9416 67.6542C99.6259 68.0723 99.468 68.6526 99.468 69.395C99.468 70.1374 99.6259 70.7219 99.9416 71.1486C100.266 71.5667 100.714 71.7758 101.286 71.7758C101.721 71.7758 102.083 71.6563 102.374 71.4174C102.664 71.1699 102.843 70.7987 102.911 70.3038L104.332 70.3806C104.255 70.9011 104.08 71.3534 103.807 71.7374C103.543 72.1214 103.193 72.4201 102.758 72.6334C102.331 72.8467 101.84 72.9534 101.286 72.9534ZM107.931 72.7998C107.283 72.7998 106.805 72.6505 106.498 72.3518C106.19 72.0531 106.037 71.5881 106.037 70.9566V64.3902H107.394V70.8542C107.394 71.1699 107.462 71.3875 107.598 71.507C107.735 71.6265 107.944 71.6862 108.226 71.6862H109.198V72.7998H107.931ZM105 67.1038V65.9902H109.198V67.1038H105ZM110.495 72.7998V65.9902H111.852V72.7998H110.495ZM110.469 65.0046V63.6478H111.877V65.0046H110.469ZM116.448 72.9534C115.8 72.9534 115.232 72.8083 114.746 72.5182C114.259 72.2281 113.884 71.8142 113.619 71.2766C113.355 70.739 113.223 70.1118 113.223 69.395C113.223 68.6697 113.355 68.0425 113.619 67.5134C113.884 66.9843 114.259 66.5747 114.746 66.2846C115.232 65.9859 115.8 65.8366 116.448 65.8366C117.097 65.8366 117.664 65.9859 118.151 66.2846C118.637 66.5747 119.012 66.9843 119.277 67.5134C119.541 68.0425 119.674 68.6697 119.674 69.395C119.674 70.1118 119.541 70.739 119.277 71.2766C119.012 71.8142 118.637 72.2281 118.151 72.5182C117.664 72.8083 117.097 72.9534 116.448 72.9534ZM116.448 71.7758C117.028 71.7758 117.476 71.5667 117.792 71.1486C118.108 70.7219 118.266 70.1374 118.266 69.395C118.266 68.6526 118.108 68.0723 117.792 67.6542C117.476 67.2275 117.028 67.0142 116.448 67.0142C115.876 67.0142 115.428 67.2275 115.104 67.6542C114.788 68.0723 114.631 68.6526 114.631 69.395C114.631 70.1374 114.788 70.7219 115.104 71.1486C115.428 71.5667 115.876 71.7758 116.448 71.7758ZM121.045 72.7998V65.9902H122.287L122.338 67.8078L122.171 67.7182C122.248 67.2745 122.393 66.9161 122.607 66.643C122.82 66.3699 123.08 66.1694 123.387 66.0414C123.695 65.9049 124.027 65.8366 124.386 65.8366C124.898 65.8366 125.32 65.9518 125.653 66.1822C125.994 66.4041 126.25 66.7113 126.421 67.1038C126.6 67.4878 126.69 67.9273 126.69 68.4222V72.7998H125.333V68.8318C125.333 68.4307 125.29 68.0937 125.205 67.8206C125.12 67.5475 124.979 67.3385 124.783 67.1934C124.586 67.0483 124.33 66.9758 124.015 66.9758C123.537 66.9758 123.148 67.1337 122.85 67.4494C122.551 67.7651 122.402 68.2259 122.402 68.8318V72.7998H121.045ZM131.72 72.7998V65.9902H132.962L133.013 67.795L132.898 67.7566C132.991 67.1422 133.179 66.6942 133.461 66.4126C133.751 66.131 134.139 65.9902 134.626 65.9902H135.278V67.2062H134.626C134.284 67.2062 133.998 67.2617 133.768 67.3726C133.538 67.4835 133.363 67.6542 133.243 67.8846C133.132 68.115 133.077 68.4137 133.077 68.7806V72.7998H131.72ZM138.772 72.9534C138.09 72.9534 137.544 72.7273 137.134 72.275C136.733 71.8142 136.532 71.1785 136.532 70.3678V65.9902H137.889V70.0222C137.889 70.6366 137.996 71.0889 138.209 71.379C138.423 71.6691 138.747 71.8142 139.182 71.8142C139.677 71.8142 140.061 71.6563 140.334 71.3406C140.616 71.0163 140.756 70.5641 140.756 69.9838V65.9902H142.113V72.7998H140.846L140.82 71.0206L141.012 71.0974C140.893 71.6947 140.641 72.1555 140.257 72.4798C139.873 72.7955 139.378 72.9534 138.772 72.9534ZM145.517 72.7998C145.073 72.7998 144.715 72.6846 144.442 72.4542C144.169 72.2238 144.032 71.8569 144.032 71.3534V63.7118H145.389V71.2254C145.389 71.379 145.428 71.4942 145.504 71.571C145.59 71.6478 145.709 71.6862 145.863 71.6862H146.4V72.7998H145.517ZM150.361 72.9534C149.695 72.9534 149.119 72.8083 148.633 72.5182C148.155 72.2281 147.784 71.8142 147.519 71.2766C147.263 70.739 147.135 70.1118 147.135 69.395C147.135 68.6782 147.263 68.0553 147.519 67.5262C147.784 66.9886 148.155 66.5747 148.633 66.2846C149.11 65.9859 149.674 65.8366 150.322 65.8366C150.937 65.8366 151.478 65.9817 151.948 66.2718C152.417 66.5534 152.78 66.963 153.036 67.5006C153.3 68.0382 153.433 68.6867 153.433 69.4462V69.7918H148.543C148.577 70.4574 148.752 70.9566 149.068 71.2894C149.392 71.6222 149.827 71.7886 150.373 71.7886C150.774 71.7886 151.107 71.6947 151.372 71.507C151.636 71.3193 151.82 71.0675 151.922 70.7518L153.33 70.8414C153.151 71.4729 152.797 71.9849 152.268 72.3774C151.747 72.7614 151.112 72.9534 150.361 72.9534ZM148.543 68.7678H151.999C151.956 68.1619 151.781 67.7139 151.474 67.4238C151.176 67.1337 150.792 66.9886 150.322 66.9886C149.836 66.9886 149.435 67.1422 149.119 67.4494C148.812 67.7481 148.62 68.1875 148.543 68.7678Z" fill="#141414"/>
<path d="M333.599 64.3975L325.599 72.3975" stroke="#737373" stroke-width="1.2" stroke-linecap="round" stroke-linejoin="round"/>
<path d="M325.599 64.3975L333.599 72.3975" stroke="#737373" stroke-width="1.2" stroke-linecap="round" stroke-linejoin="round"/>
<path d="M29.7606 105.6V97.6481H30.9702V105.6H29.7606ZM32.9531 105.6V99.2609C32.9531 98.7681 33.0913 98.3761 33.3675 98.0849C33.6438 97.7937 34.0769 97.6481 34.6667 97.6481H35.7195V98.6225H34.8235C34.5921 98.6225 34.4203 98.686 34.3083 98.8129C34.1963 98.9324 34.1403 99.1041 34.1403 99.3281V105.6H32.9531ZM32.1243 100.683V99.7201H35.6299V100.683H32.1243ZM41.8378 105.6C41.2703 105.6 40.8522 105.469 40.5834 105.208C40.3146 104.947 40.1802 104.54 40.1802 103.987V98.2417H41.3674V103.898C41.3674 104.174 41.4271 104.364 41.5466 104.469C41.6661 104.573 41.849 104.626 42.0954 104.626H42.9466V105.6H41.8378ZM39.273 100.616V99.6417H42.9466V100.616H39.273ZM44.1342 105.6V99.6417H45.2206L45.2654 101.221L45.1646 101.187C45.2468 100.65 45.411 100.258 45.6574 100.011C45.9113 99.7649 46.251 99.6417 46.6766 99.6417H47.2478V100.706H46.6766C46.378 100.706 46.1278 100.754 45.9262 100.851C45.7246 100.948 45.5716 101.098 45.467 101.299C45.37 101.501 45.3214 101.762 45.3214 102.083V105.6H44.1342ZM49.7171 105.734C49.0974 105.734 48.6008 105.593 48.2275 105.309C47.8616 105.025 47.6787 104.626 47.6787 104.11C47.6787 103.595 47.8318 103.196 48.1379 102.912C48.4515 102.621 48.9331 102.412 49.5827 102.285L51.6323 101.893C51.6323 101.43 51.524 101.086 51.3075 100.862C51.091 100.631 50.7699 100.515 50.3443 100.515C49.9635 100.515 49.6648 100.601 49.4483 100.773C49.2318 100.937 49.0824 101.184 49.0003 101.512L47.7795 101.434C47.8915 100.836 48.1678 100.366 48.6083 100.022C49.0563 99.679 49.635 99.5073 50.3443 99.5073C51.1507 99.5073 51.763 99.7238 52.1811 100.157C52.6067 100.582 52.8195 101.184 52.8195 101.96V104.278C52.8195 104.42 52.8419 104.521 52.8867 104.581C52.939 104.633 53.0211 104.659 53.1331 104.659H53.3459V105.6C53.3086 105.608 53.2488 105.615 53.1667 105.622C53.0846 105.63 52.9987 105.634 52.9091 105.634C52.6552 105.634 52.435 105.593 52.2483 105.51C52.0691 105.428 51.9347 105.294 51.8451 105.107C51.7555 104.913 51.7107 104.656 51.7107 104.334L51.8339 104.39C51.7742 104.652 51.6435 104.883 51.4419 105.085C51.2478 105.286 50.9976 105.447 50.6915 105.566C50.3928 105.678 50.068 105.734 49.7171 105.734ZM49.9075 104.794C50.2659 104.794 50.572 104.726 50.8259 104.592C51.0798 104.45 51.2776 104.256 51.4195 104.01C51.5614 103.763 51.6323 103.483 51.6323 103.17V102.789L49.8851 103.125C49.5267 103.192 49.2728 103.3 49.1235 103.45C48.9816 103.592 48.9107 103.774 48.9107 103.998C48.9107 104.252 48.9966 104.45 49.1683 104.592C49.3475 104.726 49.5939 104.794 49.9075 104.794ZM54.2811 105.6V99.6417H55.3675L55.4123 101.232L55.2667 101.154C55.3339 100.765 55.4608 100.452 55.6475 100.213C55.8342 99.974 56.0619 99.7985 56.3307 99.6865C56.5995 99.567 56.8907 99.5073 57.2043 99.5073C57.6523 99.5073 58.0219 99.6081 58.3131 99.8097C58.6118 100.004 58.8358 100.273 58.9851 100.616C59.1419 100.952 59.2203 101.337 59.2203 101.77V105.6H58.0331V102.128C58.0331 101.777 57.9958 101.482 57.9211 101.243C57.8464 101.004 57.7232 100.821 57.5515 100.694C57.3798 100.568 57.1558 100.504 56.8795 100.504C56.4614 100.504 56.1216 100.642 55.8603 100.918C55.599 101.195 55.4683 101.598 55.4683 102.128V105.6H54.2811ZM62.9958 105.734C62.4358 105.734 61.9617 105.649 61.5734 105.477C61.1926 105.305 60.8977 105.07 60.6886 104.771C60.4796 104.465 60.3601 104.114 60.3302 103.718L61.551 103.662C61.6108 103.991 61.7526 104.252 61.9766 104.446C62.2006 104.641 62.5404 104.738 62.9958 104.738C63.3692 104.738 63.6641 104.678 63.8806 104.558C64.0972 104.439 64.2054 104.249 64.2054 103.987C64.2054 103.845 64.1681 103.726 64.0934 103.629C64.0262 103.524 63.8918 103.438 63.6902 103.371C63.4886 103.297 63.19 103.226 62.7942 103.158C62.2044 103.046 61.7414 102.916 61.4054 102.766C61.0694 102.617 60.8305 102.427 60.6886 102.195C60.5468 101.964 60.4758 101.684 60.4758 101.355C60.4758 100.81 60.6774 100.366 61.0806 100.022C61.4913 99.679 62.0812 99.5073 62.8502 99.5073C63.3654 99.5073 63.7985 99.5969 64.1494 99.7761C64.5004 99.9478 64.7729 100.183 64.967 100.482C65.1686 100.773 65.2956 101.101 65.3478 101.467L64.127 101.534C64.0897 101.325 64.015 101.146 63.903 100.997C63.7985 100.84 63.6566 100.721 63.4774 100.638C63.2982 100.549 63.0854 100.504 62.839 100.504C62.4582 100.504 62.1745 100.579 61.9878 100.728C61.8012 100.877 61.7078 101.072 61.7078 101.31C61.7078 101.49 61.7489 101.635 61.831 101.747C61.9206 101.859 62.0625 101.953 62.2566 102.027C62.4508 102.094 62.7084 102.154 63.0294 102.206C63.6492 102.311 64.1345 102.442 64.4854 102.598C64.8364 102.748 65.0828 102.934 65.2246 103.158C65.3665 103.382 65.4374 103.655 65.4374 103.976C65.4374 104.349 65.3329 104.667 65.1238 104.928C64.9148 105.189 64.6273 105.391 64.2614 105.533C63.8956 105.667 63.4737 105.734 62.9958 105.734ZM68.3608 105.734C67.7411 105.734 67.2445 105.593 66.8712 105.309C66.5053 105.025 66.3224 104.626 66.3224 104.11C66.3224 103.595 66.4755 103.196 66.7816 102.912C67.0952 102.621 67.5768 102.412 68.2264 102.285L70.276 101.893C70.276 101.43 70.1677 101.086 69.9512 100.862C69.7347 100.631 69.4136 100.515 68.988 100.515C68.6072 100.515 68.3085 100.601 68.092 100.773C67.8755 100.937 67.7261 101.184 67.644 101.512L66.4232 101.434C66.5352 100.836 66.8115 100.366 67.252 100.022C67.7 99.679 68.2787 99.5073 68.988 99.5073C69.7944 99.5073 70.4067 99.7238 70.8248 100.157C71.2504 100.582 71.4632 101.184 71.4632 101.96V104.278C71.4632 104.42 71.4856 104.521 71.5304 104.581C71.5827 104.633 71.6648 104.659 71.7768 104.659H71.9896V105.6C71.9523 105.608 71.8925 105.615 71.8104 105.622C71.7283 105.63 71.6424 105.634 71.5528 105.634C71.2989 105.634 71.0787 105.593 70.892 105.51C70.7128 105.428 70.5784 105.294 70.4888 105.107C70.3992 104.913 70.3544 104.656 70.3544 104.334L70.4776 104.39C70.4179 104.652 70.2872 104.883 70.0856 105.085C69.8915 105.286 69.6413 105.447 69.3352 105.566C69.0365 105.678 68.7117 105.734 68.3608 105.734ZM68.5512 104.794C68.9096 104.794 69.2157 104.726 69.4696 104.592C69.7235 104.45 69.9213 104.256 70.0632 104.01C70.2051 103.763 70.276 103.483 70.276 103.17V102.789L68.5288 103.125C68.1704 103.192 67.9165 103.3 67.7672 103.45C67.6253 103.592 67.5544 103.774 67.5544 103.998C67.5544 104.252 67.6403 104.45 67.812 104.592C67.9912 104.726 68.2376 104.794 68.5512 104.794ZM75.3339 105.734C74.7664 105.734 74.2699 105.608 73.8443 105.354C73.4187 105.1 73.0901 104.738 72.8587 104.267C72.6272 103.797 72.5115 103.248 72.5115 102.621C72.5115 101.994 72.6272 101.449 72.8587 100.986C73.0901 100.515 73.4187 100.153 73.8443 99.8993C74.2699 99.638 74.7664 99.5073 75.3339 99.5073C75.8192 99.5073 76.2485 99.5932 76.6219 99.7649C77.0027 99.9292 77.3088 100.172 77.5403 100.493C77.7792 100.814 77.9323 101.206 77.9995 101.669L76.7563 101.736C76.6965 101.348 76.5397 101.053 76.2859 100.851C76.032 100.642 75.7147 100.538 75.3339 100.538C74.8336 100.538 74.4416 100.724 74.1579 101.098C73.8816 101.464 73.7435 101.971 73.7435 102.621C73.7435 103.27 73.8816 103.782 74.1579 104.155C74.4416 104.521 74.8336 104.704 75.3339 104.704C75.7147 104.704 76.032 104.6 76.2859 104.39C76.5397 104.174 76.6965 103.849 76.7563 103.416L77.9995 103.483C77.9323 103.939 77.7792 104.334 77.5403 104.67C77.3088 105.006 77.0027 105.268 76.6219 105.454C76.2485 105.641 75.8192 105.734 75.3339 105.734ZM81.0815 105.6C80.514 105.6 80.0959 105.469 79.8271 105.208C79.5583 104.947 79.4239 104.54 79.4239 103.987V98.2417H80.6111V103.898C80.6111 104.174 80.6708 104.364 80.7903 104.469C80.9097 104.573 81.0927 104.626 81.3391 104.626H82.1903V105.6H81.0815ZM78.5167 100.616V99.6417H82.1903V100.616H78.5167ZM83.2576 105.6V99.6417H84.4448V105.6H83.2576ZM83.2352 98.7793V97.5921H84.4672V98.7793H83.2352ZM88.3994 105.734C87.832 105.734 87.3354 105.608 86.9098 105.354C86.4842 105.1 86.1557 104.738 85.9242 104.267C85.6928 103.797 85.577 103.248 85.577 102.621C85.577 101.986 85.6928 101.437 85.9242 100.974C86.1557 100.512 86.4842 100.153 86.9098 99.8993C87.3354 99.638 87.832 99.5073 88.3994 99.5073C88.9669 99.5073 89.4634 99.638 89.889 99.8993C90.3146 100.153 90.6432 100.512 90.8746 100.974C91.1061 101.437 91.2218 101.986 91.2218 102.621C91.2218 103.248 91.1061 103.797 90.8746 104.267C90.6432 104.738 90.3146 105.1 89.889 105.354C89.4634 105.608 88.9669 105.734 88.3994 105.734ZM88.3994 104.704C88.9072 104.704 89.2992 104.521 89.5754 104.155C89.8517 103.782 89.9898 103.27 89.9898 102.621C89.9898 101.971 89.8517 101.464 89.5754 101.098C89.2992 100.724 88.9072 100.538 88.3994 100.538C87.8992 100.538 87.5072 100.724 87.2234 101.098C86.9472 101.464 86.809 101.971 86.809 102.621C86.809 103.27 86.9472 103.782 87.2234 104.155C87.5072 104.521 87.8992 104.704 88.3994 104.704ZM92.3545 105.6V99.6417H93.4409L93.4857 101.232L93.3401 101.154C93.4073 100.765 93.5342 100.452 93.7209 100.213C93.9075 99.974 94.1353 99.7985 94.4041 99.6865C94.6729 99.567 94.9641 99.5073 95.2777 99.5073C95.7257 99.5073 96.0953 99.6081 96.3865 99.8097C96.6851 100.004 96.9091 100.273 97.0585 100.616C97.2153 100.952 97.2937 101.337 97.2937 101.77V105.6H96.1065V102.128C96.1065 101.777 96.0691 101.482 95.9945 101.243C95.9198 101.004 95.7966 100.821 95.6249 100.694C95.4531 100.568 95.2291 100.504 94.9529 100.504C94.5347 100.504 94.195 100.642 93.9337 100.918C93.6723 101.195 93.5417 101.598 93.5417 102.128V105.6H92.3545Z" fill="#141414"/>
<g filter="url(#filter1_d_468_28574)">
<g clip-path="url(#clip2_468_28574)">
<rect x="28.7974" y="118" width="180.8" height="28.8" rx="6.4" fill="white"/>
<path d="M49.7307 128.466H40.3974M52.3974 132.466H40.3974M48.4641 136.4H40.3974" stroke="#737373" stroke-width="1.2" stroke-linecap="round" stroke-linejoin="round"/>
<path d="M60.2278 136.4V128.448H62.6918C63.9163 128.448 64.8571 128.795 65.5142 129.49C66.1787 130.176 66.511 131.158 66.511 132.435C66.511 133.704 66.1862 134.683 65.5366 135.37C64.887 136.056 63.9611 136.4 62.759 136.4H60.2278ZM61.191 135.459H62.6918C63.6251 135.459 64.327 135.209 64.7974 134.709C65.2678 134.201 65.503 133.443 65.503 132.435C65.503 131.412 65.2678 130.651 64.7974 130.15C64.327 129.643 63.6251 129.389 62.6918 129.389H61.191V135.459ZM70.3852 136.534C69.8252 136.534 69.3399 136.407 68.9292 136.154C68.526 135.9 68.2124 135.541 67.9884 135.078C67.7719 134.608 67.6636 134.059 67.6636 133.432C67.6636 132.805 67.7719 132.26 67.9884 131.797C68.2124 131.334 68.5223 130.975 68.918 130.722C69.3212 130.46 69.7954 130.33 70.3404 130.33C70.8556 130.33 71.3111 130.453 71.7068 130.699C72.1026 130.938 72.4087 131.289 72.6252 131.752C72.8492 132.215 72.9612 132.779 72.9612 133.443V133.723H68.6492C68.6866 134.358 68.8546 134.836 69.1532 135.157C69.4594 135.478 69.87 135.638 70.3852 135.638C70.7735 135.638 71.0908 135.549 71.3372 135.37C71.5911 135.183 71.7666 134.94 71.8636 134.642L72.8716 134.72C72.7148 135.25 72.4162 135.687 71.9756 136.03C71.5426 136.366 71.0124 136.534 70.3852 136.534ZM68.6492 132.894H71.9308C71.886 132.319 71.718 131.898 71.4268 131.629C71.1431 131.36 70.781 131.226 70.3404 131.226C69.885 131.226 69.5079 131.367 69.2092 131.651C68.918 131.927 68.7314 132.342 68.6492 132.894ZM76.3972 136.534C75.867 136.534 75.4153 136.448 75.042 136.277C74.6761 136.105 74.3886 135.87 74.1796 135.571C73.978 135.265 73.8622 134.918 73.8324 134.53L74.818 134.462C74.8777 134.821 75.0308 135.108 75.2772 135.325C75.5236 135.534 75.8969 135.638 76.3972 135.638C76.8004 135.638 77.1214 135.575 77.3604 135.448C77.6068 135.314 77.73 135.101 77.73 134.81C77.73 134.653 77.6926 134.522 77.618 134.418C77.5433 134.313 77.3977 134.223 77.1812 134.149C76.9646 134.067 76.6436 133.988 76.218 133.914C75.6505 133.809 75.2025 133.682 74.874 133.533C74.5529 133.376 74.3214 133.186 74.1796 132.962C74.0452 132.73 73.978 132.458 73.978 132.144C73.978 131.614 74.1721 131.181 74.5604 130.845C74.9486 130.501 75.5012 130.33 76.218 130.33C76.7033 130.33 77.1102 130.419 77.4388 130.598C77.7748 130.77 78.0361 131.002 78.2228 131.293C78.4169 131.576 78.5438 131.89 78.6036 132.234L77.618 132.301C77.5732 132.092 77.491 131.909 77.3716 131.752C77.2521 131.588 77.0953 131.461 76.9012 131.371C76.707 131.274 76.4756 131.226 76.2068 131.226C75.7812 131.226 75.4676 131.308 75.266 131.472C75.0644 131.636 74.9636 131.845 74.9636 132.099C74.9636 132.293 75.0084 132.454 75.098 132.581C75.195 132.7 75.3481 132.801 75.5572 132.883C75.7662 132.958 76.0462 133.025 76.3972 133.085C77.002 133.189 77.4724 133.316 77.8084 133.466C78.1444 133.615 78.3796 133.798 78.514 134.014C78.6484 134.231 78.7156 134.496 78.7156 134.81C78.7156 135.175 78.611 135.489 78.402 135.75C78.2004 136.004 77.9241 136.198 77.5732 136.333C77.2297 136.467 76.8377 136.534 76.3972 136.534ZM82.318 136.534C81.7655 136.534 81.2839 136.407 80.8732 136.154C80.47 135.9 80.1564 135.541 79.9324 135.078C79.7084 134.608 79.5964 134.059 79.5964 133.432C79.5964 132.805 79.7084 132.26 79.9324 131.797C80.1564 131.334 80.47 130.975 80.8732 130.722C81.2839 130.46 81.7655 130.33 82.318 130.33C82.7735 130.33 83.1767 130.412 83.5276 130.576C83.886 130.733 84.1772 130.964 84.4012 131.27C84.6252 131.576 84.7708 131.95 84.838 132.39L83.8524 132.458C83.7852 132.062 83.6135 131.759 83.3372 131.55C83.061 131.334 82.7212 131.226 82.318 131.226C81.773 131.226 81.3474 131.423 81.0412 131.819C80.7351 132.207 80.582 132.745 80.582 133.432C80.582 134.119 80.7351 134.66 81.0412 135.056C81.3474 135.444 81.773 135.638 82.318 135.638C82.7212 135.638 83.061 135.526 83.3372 135.302C83.6135 135.078 83.7852 134.742 83.8524 134.294L84.838 134.362C84.7708 134.802 84.6252 135.187 84.4012 135.515C84.1772 135.836 83.886 136.086 83.5276 136.266C83.1767 136.445 82.7735 136.534 82.318 136.534ZM86.0043 136.4V130.464H86.8331L86.8779 131.965L86.7883 131.931C86.863 131.423 87.0235 131.054 87.2699 130.822C87.5238 130.583 87.8598 130.464 88.2779 130.464H88.8603V131.36H88.2891C87.9905 131.36 87.7403 131.416 87.5387 131.528C87.3446 131.632 87.1953 131.793 87.0907 132.01C86.9937 132.219 86.9451 132.487 86.9451 132.816V136.4H86.0043ZM89.909 136.4V130.464H90.8498V136.4H89.909ZM89.8866 129.534V128.437H90.8722V129.534H89.8866ZM92.7528 138.08V130.464H93.6264L93.6488 131.741L93.5144 131.674C93.6637 131.233 93.9101 130.901 94.2536 130.677C94.6045 130.445 95.0077 130.33 95.4632 130.33C96.053 130.33 96.5346 130.475 96.908 130.766C97.2888 131.058 97.5688 131.438 97.748 131.909C97.9346 132.379 98.028 132.887 98.028 133.432C98.028 133.977 97.9346 134.485 97.748 134.955C97.5688 135.426 97.2888 135.806 96.908 136.098C96.5346 136.389 96.053 136.534 95.4632 136.534C95.157 136.534 94.8696 136.482 94.6008 136.378C94.3394 136.273 94.1154 136.127 93.9288 135.941C93.7496 135.754 93.6264 135.534 93.5592 135.28L93.6936 135.123V138.08H92.7528ZM95.3736 135.638C95.8888 135.638 96.2957 135.444 96.5944 135.056C96.893 134.668 97.0424 134.126 97.0424 133.432C97.0424 132.738 96.893 132.196 96.5944 131.808C96.2957 131.42 95.8888 131.226 95.3736 131.226C95.0301 131.226 94.7314 131.308 94.4776 131.472C94.2312 131.636 94.037 131.883 93.8952 132.211C93.7608 132.54 93.6936 132.947 93.6936 133.432C93.6936 133.917 93.7608 134.324 93.8952 134.653C94.0296 134.981 94.2237 135.228 94.4776 135.392C94.7314 135.556 95.0301 135.638 95.3736 135.638ZM101.247 136.4C100.71 136.4 100.31 136.277 100.049 136.03C99.7952 135.784 99.6682 135.399 99.6682 134.877V129.075H100.609V134.854C100.609 135.123 100.669 135.31 100.788 135.414C100.908 135.519 101.091 135.571 101.337 135.571H102.188V136.4H101.247ZM98.7946 131.293V130.464H102.188V131.293H98.7946ZM103.395 136.4V130.464H104.336V136.4H103.395ZM103.373 129.534V128.437H104.358V129.534H103.373ZM108.338 136.534C107.793 136.534 107.315 136.407 106.905 136.154C106.494 135.9 106.177 135.541 105.953 135.078C105.729 134.608 105.617 134.059 105.617 133.432C105.617 132.797 105.729 132.248 105.953 131.786C106.177 131.323 106.494 130.964 106.905 130.71C107.315 130.456 107.793 130.33 108.338 130.33C108.883 130.33 109.358 130.456 109.761 130.71C110.171 130.964 110.489 131.323 110.713 131.786C110.937 132.248 111.049 132.797 111.049 133.432C111.049 134.059 110.937 134.608 110.713 135.078C110.489 135.541 110.171 135.9 109.761 136.154C109.358 136.407 108.883 136.534 108.338 136.534ZM108.338 135.638C108.883 135.638 109.305 135.444 109.604 135.056C109.91 134.66 110.063 134.119 110.063 133.432C110.063 132.745 109.91 132.207 109.604 131.819C109.305 131.423 108.883 131.226 108.338 131.226C107.793 131.226 107.368 131.423 107.062 131.819C106.755 132.207 106.602 132.745 106.602 133.432C106.602 134.119 106.755 134.66 107.062 135.056C107.368 135.444 107.793 135.638 108.338 135.638ZM112.331 136.4V130.464H113.193L113.227 131.976L113.115 131.875C113.19 131.524 113.32 131.237 113.507 131.013C113.694 130.781 113.918 130.61 114.179 130.498C114.448 130.386 114.735 130.33 115.041 130.33C115.497 130.33 115.87 130.43 116.161 130.632C116.46 130.834 116.68 131.106 116.822 131.45C116.971 131.786 117.046 132.163 117.046 132.581V136.4H116.105V132.85C116.105 132.484 116.06 132.178 115.971 131.931C115.889 131.677 115.754 131.487 115.568 131.36C115.381 131.226 115.138 131.158 114.84 131.158C114.384 131.158 114.007 131.304 113.708 131.595C113.417 131.879 113.272 132.297 113.272 132.85V136.4H112.331Z" fill="#141414"/>
<path d="M187.997 130.4L191.997 134.4L195.997 130.4" stroke="#737373" stroke-width="1.2" stroke-linecap="round" stroke-linejoin="round"/>
</g>
<rect x="28.3974" y="117.6" width="181.6" height="29.6" rx="6.8" stroke="#0B0B0B" stroke-opacity="0.08" stroke-width="0.8"/>
</g>
<g filter="url(#filter2_d_468_28574)">
<g clip-path="url(#clip3_468_28574)">
<rect x="215.997" y="118" width="123.2" height="28.8" rx="6.4" fill="white"/>
<path d="M229.674 136.579C228.965 136.579 228.341 136.415 227.804 136.086C227.266 135.75 226.848 135.272 226.549 134.653C226.251 134.033 226.101 133.294 226.101 132.435C226.101 131.576 226.251 130.837 226.549 130.218C226.848 129.59 227.266 129.109 227.804 128.773C228.341 128.437 228.965 128.269 229.674 128.269C230.637 128.269 231.384 128.511 231.914 128.997C232.444 129.482 232.792 130.143 232.956 130.979L231.937 131.046C231.825 130.479 231.586 130.031 231.22 129.702C230.854 129.374 230.339 129.21 229.674 129.21C229.166 129.21 228.718 129.34 228.33 129.602C227.949 129.855 227.651 130.225 227.434 130.71C227.218 131.188 227.109 131.763 227.109 132.435C227.109 133.107 227.218 133.682 227.434 134.16C227.651 134.638 227.949 135.004 228.33 135.258C228.718 135.511 229.166 135.638 229.674 135.638C230.369 135.638 230.906 135.459 231.287 135.101C231.668 134.735 231.907 134.242 232.004 133.622L233.023 133.69C232.926 134.264 232.736 134.768 232.452 135.202C232.168 135.635 231.791 135.974 231.321 136.221C230.858 136.46 230.309 136.579 229.674 136.579ZM236.599 136.534C236.054 136.534 235.576 136.407 235.166 136.154C234.755 135.9 234.438 135.541 234.214 135.078C233.99 134.608 233.878 134.059 233.878 133.432C233.878 132.797 233.99 132.248 234.214 131.786C234.438 131.323 234.755 130.964 235.166 130.71C235.576 130.456 236.054 130.33 236.599 130.33C237.144 130.33 237.619 130.456 238.022 130.71C238.432 130.964 238.75 131.323 238.974 131.786C239.198 132.248 239.31 132.797 239.31 133.432C239.31 134.059 239.198 134.608 238.974 135.078C238.75 135.541 238.432 135.9 238.022 136.154C237.619 136.407 237.144 136.534 236.599 136.534ZM236.599 135.638C237.144 135.638 237.566 135.444 237.865 135.056C238.171 134.66 238.324 134.119 238.324 133.432C238.324 132.745 238.171 132.207 237.865 131.819C237.566 131.423 237.144 131.226 236.599 131.226C236.054 131.226 235.629 131.423 235.323 131.819C235.016 132.207 234.863 132.745 234.863 133.432C234.863 134.119 235.016 134.66 235.323 135.056C235.629 135.444 236.054 135.638 236.599 135.638ZM240.592 136.4V130.464H241.454L241.488 131.976L241.376 131.875C241.451 131.524 241.581 131.237 241.768 131.013C241.955 130.781 242.179 130.61 242.44 130.498C242.709 130.386 242.996 130.33 243.302 130.33C243.758 130.33 244.131 130.43 244.422 130.632C244.721 130.834 244.941 131.106 245.083 131.45C245.232 131.786 245.307 132.163 245.307 132.581V136.4H244.366V132.85C244.366 132.484 244.321 132.178 244.232 131.931C244.15 131.677 244.015 131.487 243.829 131.36C243.642 131.226 243.399 131.158 243.101 131.158C242.645 131.158 242.268 131.304 241.969 131.595C241.678 131.879 241.533 132.297 241.533 132.85V136.4H240.592ZM248.824 136.4C248.286 136.4 247.887 136.277 247.626 136.03C247.372 135.784 247.245 135.399 247.245 134.877V129.075H248.186V134.854C248.186 135.123 248.245 135.31 248.365 135.414C248.484 135.519 248.667 135.571 248.914 135.571H249.765V136.4H248.824ZM246.371 131.293V130.464H249.765V131.293H246.371ZM252.529 136.534C251.917 136.534 251.428 136.392 251.062 136.109C250.704 135.825 250.525 135.429 250.525 134.922C250.525 134.414 250.674 134.014 250.973 133.723C251.271 133.432 251.745 133.227 252.395 133.107L254.501 132.715C254.501 132.215 254.381 131.842 254.142 131.595C253.911 131.349 253.56 131.226 253.089 131.226C252.679 131.226 252.354 131.319 252.115 131.506C251.876 131.685 251.712 131.946 251.622 132.29L250.625 132.211C250.737 131.651 251.006 131.199 251.432 130.856C251.865 130.505 252.417 130.33 253.089 130.33C253.851 130.33 254.433 130.546 254.837 130.979C255.24 131.405 255.441 131.995 255.441 132.749V135.202C255.441 135.336 255.464 135.433 255.509 135.493C255.561 135.545 255.643 135.571 255.755 135.571H255.99V136.4C255.96 136.407 255.912 136.411 255.845 136.411C255.777 136.419 255.706 136.422 255.632 136.422C255.363 136.422 255.143 136.381 254.971 136.299C254.807 136.21 254.687 136.075 254.613 135.896C254.538 135.709 254.501 135.467 254.501 135.168L254.613 135.19C254.56 135.444 254.433 135.676 254.232 135.885C254.03 136.086 253.78 136.247 253.481 136.366C253.183 136.478 252.865 136.534 252.529 136.534ZM252.619 135.706C253.015 135.706 253.351 135.631 253.627 135.482C253.911 135.325 254.127 135.116 254.277 134.854C254.426 134.586 254.501 134.287 254.501 133.958V133.533L252.574 133.891C252.171 133.966 251.891 134.082 251.734 134.238C251.585 134.388 251.51 134.586 251.51 134.832C251.51 135.108 251.607 135.325 251.801 135.482C252.003 135.631 252.276 135.706 252.619 135.706ZM257.009 136.4V130.464H257.95V136.4H257.009ZM256.987 129.534V128.437H257.972V129.534H256.987ZM259.853 136.4V130.464H260.715L260.749 131.976L260.637 131.875C260.711 131.524 260.842 131.237 261.029 131.013C261.215 130.781 261.439 130.61 261.701 130.498C261.97 130.386 262.257 130.33 262.563 130.33C263.019 130.33 263.392 130.43 263.683 130.632C263.982 130.834 264.202 131.106 264.344 131.45C264.493 131.786 264.568 132.163 264.568 132.581V136.4H263.627V132.85C263.627 132.484 263.582 132.178 263.493 131.931C263.411 131.677 263.276 131.487 263.09 131.36C262.903 131.226 262.66 131.158 262.362 131.158C261.906 131.158 261.529 131.304 261.23 131.595C260.939 131.879 260.794 132.297 260.794 132.85V136.4H259.853ZM268.391 136.534C267.861 136.534 267.409 136.448 267.036 136.277C266.67 136.105 266.382 135.87 266.173 135.571C265.972 135.265 265.856 134.918 265.826 134.53L266.812 134.462C266.871 134.821 267.025 135.108 267.271 135.325C267.517 135.534 267.891 135.638 268.391 135.638C268.794 135.638 269.115 135.575 269.354 135.448C269.601 135.314 269.724 135.101 269.724 134.81C269.724 134.653 269.686 134.522 269.612 134.418C269.537 134.313 269.391 134.223 269.175 134.149C268.958 134.067 268.637 133.988 268.212 133.914C267.644 133.809 267.196 133.682 266.868 133.533C266.547 133.376 266.315 133.186 266.173 132.962C266.039 132.73 265.972 132.458 265.972 132.144C265.972 131.614 266.166 131.181 266.554 130.845C266.942 130.501 267.495 130.33 268.212 130.33C268.697 130.33 269.104 130.419 269.433 130.598C269.769 130.77 270.03 131.002 270.217 131.293C270.411 131.576 270.538 131.89 270.597 132.234L269.612 132.301C269.567 132.092 269.485 131.909 269.365 131.752C269.246 131.588 269.089 131.461 268.895 131.371C268.701 131.274 268.469 131.226 268.201 131.226C267.775 131.226 267.461 131.308 267.26 131.472C267.058 131.636 266.957 131.845 266.957 132.099C266.957 132.293 267.002 132.454 267.092 132.581C267.189 132.7 267.342 132.801 267.551 132.883C267.76 132.958 268.04 133.025 268.391 133.085C268.996 133.189 269.466 133.316 269.802 133.466C270.138 133.615 270.373 133.798 270.508 134.014C270.642 134.231 270.709 134.496 270.709 134.81C270.709 135.175 270.605 135.489 270.396 135.75C270.194 136.004 269.918 136.198 269.567 136.333C269.223 136.467 268.831 136.534 268.391 136.534Z" fill="#141414"/>
<path d="M317.597 130.4L321.597 134.4L325.597 130.4" stroke="#737373" stroke-width="1.2" stroke-linecap="round" stroke-linejoin="round"/>
</g>
<rect x="215.597" y="117.6" width="124" height="29.6" rx="6.8" stroke="#0B0B0B" stroke-opacity="0.08" stroke-width="0.8"/>
</g>
<g filter="url(#filter3_d_468_28574)">
<g clip-path="url(#clip4_468_28574)">
<rect x="28.7974" y="153.2" width="310.4" height="28.8" rx="6.4" fill="white"/>
<path d="M42.1606 171.779C41.5483 171.779 41.0145 171.664 40.559 171.432C40.1035 171.201 39.7414 170.883 39.4726 170.48C39.2113 170.069 39.0582 169.595 39.0134 169.058L40.0214 168.99C40.0737 169.386 40.1894 169.722 40.3686 169.998C40.5478 170.275 40.7867 170.484 41.0854 170.626C41.3915 170.768 41.7574 170.838 42.183 170.838C42.5563 170.838 42.8737 170.79 43.135 170.693C43.3963 170.596 43.5942 170.454 43.7286 170.267C43.8705 170.081 43.9414 169.853 43.9414 169.584C43.9414 169.338 43.8817 169.121 43.7622 168.934C43.6502 168.74 43.4299 168.565 43.1014 168.408C42.7803 168.244 42.3025 168.083 41.6678 167.926C41.0555 167.77 40.5665 167.598 40.2006 167.411C39.8422 167.225 39.5809 166.997 39.4166 166.728C39.2598 166.459 39.1814 166.127 39.1814 165.731C39.1814 165.283 39.2859 164.891 39.495 164.555C39.7115 164.212 40.0177 163.947 40.4134 163.76C40.8091 163.566 41.2795 163.469 41.8246 163.469C42.407 163.469 42.9073 163.581 43.3254 163.805C43.7435 164.021 44.0758 164.32 44.3222 164.701C44.5686 165.082 44.7217 165.515 44.7814 166L43.7734 166.067C43.7286 165.746 43.6241 165.462 43.4598 165.216C43.303 164.962 43.0865 164.764 42.8102 164.622C42.5339 164.481 42.1979 164.41 41.8022 164.41C41.3094 164.41 40.9174 164.529 40.6262 164.768C40.335 165 40.1894 165.306 40.1894 165.686C40.1894 165.933 40.2454 166.138 40.3574 166.302C40.4769 166.459 40.6859 166.601 40.9846 166.728C41.2833 166.848 41.7126 166.978 42.2726 167.12C42.9371 167.284 43.4635 167.482 43.8518 167.714C44.2475 167.938 44.5275 168.199 44.6918 168.498C44.8635 168.796 44.9494 169.136 44.9494 169.517C44.9494 169.98 44.8299 170.383 44.591 170.726C44.3521 171.062 44.0235 171.324 43.6054 171.51C43.1873 171.69 42.7057 171.779 42.1606 171.779ZM46.4575 173.28V165.664H47.3311L47.3535 166.941L47.2191 166.874C47.3684 166.433 47.6148 166.101 47.9583 165.877C48.3092 165.645 48.7124 165.53 49.1679 165.53C49.7577 165.53 50.2393 165.675 50.6127 165.966C50.9935 166.258 51.2735 166.638 51.4527 167.109C51.6393 167.579 51.7327 168.087 51.7327 168.632C51.7327 169.177 51.6393 169.685 51.4527 170.155C51.2735 170.626 50.9935 171.006 50.6127 171.298C50.2393 171.589 49.7577 171.734 49.1679 171.734C48.8617 171.734 48.5743 171.682 48.3055 171.578C48.0441 171.473 47.8201 171.328 47.6335 171.141C47.4543 170.954 47.3311 170.734 47.2639 170.48L47.3983 170.323V173.28H46.4575ZM49.0783 170.838C49.5935 170.838 50.0004 170.644 50.2991 170.256C50.5977 169.868 50.7471 169.326 50.7471 168.632C50.7471 167.938 50.5977 167.396 50.2991 167.008C50.0004 166.62 49.5935 166.426 49.0783 166.426C48.7348 166.426 48.4361 166.508 48.1823 166.672C47.9359 166.836 47.7417 167.083 47.5999 167.411C47.4655 167.74 47.3983 168.147 47.3983 168.632C47.3983 169.117 47.4655 169.524 47.5999 169.853C47.7343 170.181 47.9284 170.428 48.1823 170.592C48.4361 170.756 48.7348 170.838 49.0783 170.838ZM55.3274 171.734C54.7824 171.734 54.3045 171.608 53.8938 171.354C53.4832 171.1 53.1658 170.741 52.9418 170.278C52.7178 169.808 52.6058 169.259 52.6058 168.632C52.6058 167.997 52.7178 167.449 52.9418 166.986C53.1658 166.523 53.4832 166.164 53.8938 165.91C54.3045 165.657 54.7824 165.53 55.3274 165.53C55.8725 165.53 56.3466 165.657 56.7498 165.91C57.1605 166.164 57.4778 166.523 57.7018 166.986C57.9258 167.449 58.0378 167.997 58.0378 168.632C58.0378 169.259 57.9258 169.808 57.7018 170.278C57.4778 170.741 57.1605 171.1 56.7498 171.354C56.3466 171.608 55.8725 171.734 55.3274 171.734ZM55.3274 170.838C55.8725 170.838 56.2944 170.644 56.593 170.256C56.8992 169.86 57.0522 169.319 57.0522 168.632C57.0522 167.945 56.8992 167.408 56.593 167.019C56.2944 166.624 55.8725 166.426 55.3274 166.426C54.7824 166.426 54.3568 166.624 54.0506 167.019C53.7445 167.408 53.5914 167.945 53.5914 168.632C53.5914 169.319 53.7445 169.86 54.0506 170.256C54.3568 170.644 54.7824 170.838 55.3274 170.838ZM61.2631 171.6C60.7255 171.6 60.326 171.477 60.0647 171.23C59.8108 170.984 59.6839 170.6 59.6839 170.077V164.275H60.6247V170.054C60.6247 170.323 60.6844 170.51 60.8039 170.614C60.9233 170.719 61.1063 170.771 61.3527 170.771H62.2039V171.6H61.2631ZM58.8103 166.493V165.664H62.2039V166.493H58.8103ZM63.4106 171.6V165.664H64.3514V171.6H63.4106ZM63.3882 164.734V163.637H64.3738V164.734H63.3882ZM66.3445 171.6V165.126C66.3445 164.686 66.4715 164.331 66.7253 164.062C66.9792 163.786 67.3749 163.648 67.9126 163.648H68.8533V164.477H67.9798C67.7483 164.477 67.5728 164.54 67.4533 164.667C67.3413 164.794 67.2853 164.97 67.2853 165.194V171.6H66.3445ZM65.5381 166.493V165.664H68.7749V166.493H65.5381ZM70.4385 173.28V172.451H71.1217C71.3308 172.451 71.4838 172.418 71.5809 172.35C71.6854 172.291 71.7638 172.19 71.8161 172.048L72.0289 171.488H71.7041L69.5313 165.664H70.5617L72.3313 170.614L74.0225 165.664H75.0529L72.6449 172.35C72.5329 172.672 72.3649 172.907 72.1409 173.056C71.9169 173.205 71.607 173.28 71.2113 173.28H70.4385Z" fill="#141414"/>
</g>
<rect x="28.3974" y="152.8" width="311.2" height="29.6" rx="6.8" stroke="#0B0B0B" stroke-opacity="0.08" stroke-width="0.8"/>
</g>
<path d="M147.731 202.799H157.064M152.397 198.133V207.466" stroke="#737373" stroke-width="1.2" stroke-linecap="round" stroke-linejoin="round"/>
<path d="M164.132 206.8L166.999 198.848H168.533L171.4 206.8H170.112L169.384 204.728H166.136L165.42 206.8H164.132ZM166.517 203.63H169.015L167.76 200.001L166.517 203.63ZM174.367 206.934C173.86 206.934 173.415 206.807 173.035 206.553C172.661 206.3 172.374 205.941 172.172 205.478C171.978 205.008 171.881 204.455 171.881 203.821C171.881 203.186 171.982 202.637 172.183 202.174C172.385 201.704 172.673 201.342 173.046 201.088C173.419 200.834 173.86 200.707 174.367 200.707C174.778 200.707 175.144 200.793 175.465 200.965C175.786 201.136 176.029 201.375 176.193 201.681V198.848H177.38V206.8H176.271L176.238 205.904C176.074 206.225 175.823 206.479 175.487 206.665C175.159 206.845 174.786 206.934 174.367 206.934ZM174.681 205.904C175.002 205.904 175.275 205.822 175.499 205.657C175.723 205.493 175.894 205.254 176.014 204.941C176.133 204.627 176.193 204.254 176.193 203.821C176.193 203.373 176.133 202.996 176.014 202.689C175.894 202.376 175.723 202.141 175.499 201.984C175.275 201.82 175.002 201.737 174.681 201.737C174.203 201.737 173.822 201.924 173.539 202.297C173.255 202.663 173.113 203.171 173.113 203.821C173.113 204.463 173.255 204.97 173.539 205.344C173.822 205.717 174.203 205.904 174.681 205.904ZM181.072 206.934C180.564 206.934 180.12 206.807 179.739 206.553C179.366 206.3 179.079 205.941 178.877 205.478C178.683 205.008 178.586 204.455 178.586 203.821C178.586 203.186 178.687 202.637 178.888 202.174C179.09 201.704 179.377 201.342 179.751 201.088C180.124 200.834 180.564 200.707 181.072 200.707C181.483 200.707 181.849 200.793 182.17 200.965C182.491 201.136 182.734 201.375 182.898 201.681V198.848H184.085V206.8H182.976L182.943 205.904C182.778 206.225 182.528 206.479 182.192 206.665C181.864 206.845 181.49 206.934 181.072 206.934ZM181.386 205.904C181.707 205.904 181.979 205.822 182.203 205.657C182.427 205.493 182.599 205.254 182.719 204.941C182.838 204.627 182.898 204.254 182.898 203.821C182.898 203.373 182.838 202.996 182.719 202.689C182.599 202.376 182.427 202.141 182.203 201.984C181.979 201.82 181.707 201.737 181.386 201.737C180.908 201.737 180.527 201.924 180.243 202.297C179.96 202.663 179.818 203.171 179.818 203.821C179.818 204.463 179.96 204.97 180.243 205.344C180.527 205.717 180.908 205.904 181.386 205.904ZM190.778 206.8C190.21 206.8 189.792 206.669 189.523 206.408C189.254 206.146 189.12 205.74 189.12 205.187V199.441H190.307V205.097C190.307 205.374 190.367 205.564 190.486 205.669C190.606 205.773 190.789 205.825 191.035 205.825H191.886V206.8H190.778ZM188.213 201.816V200.841H191.886V201.816H188.213ZM193.141 206.8V200.841H194.228L194.273 202.421L194.172 202.387C194.254 201.849 194.418 201.457 194.665 201.211C194.918 200.965 195.258 200.841 195.684 200.841H196.255V201.905H195.684C195.385 201.905 195.135 201.954 194.933 202.051C194.732 202.148 194.579 202.297 194.474 202.499C194.377 202.701 194.329 202.962 194.329 203.283V206.8H193.141ZM197.232 206.8V200.841H198.419V206.8H197.232ZM197.21 199.979V198.792H198.442V199.979H197.21ZM202.385 208.614C201.915 208.614 201.5 208.543 201.142 208.401C200.783 208.26 200.488 208.058 200.257 207.797C200.026 207.543 199.869 207.244 199.787 206.901L201.019 206.822C201.101 207.069 201.243 207.263 201.444 207.405C201.653 207.554 201.967 207.629 202.385 207.629C202.878 207.629 203.255 207.524 203.516 207.315C203.785 207.106 203.919 206.789 203.919 206.363V205.501C203.778 205.807 203.55 206.049 203.236 206.229C202.923 206.408 202.572 206.497 202.183 206.497C201.683 206.497 201.239 206.374 200.851 206.128C200.462 205.881 200.16 205.542 199.943 205.109C199.727 204.676 199.619 204.175 199.619 203.608C199.619 203.033 199.723 202.529 199.932 202.096C200.149 201.663 200.447 201.323 200.828 201.077C201.216 200.83 201.653 200.707 202.139 200.707C202.564 200.707 202.938 200.804 203.259 200.998C203.587 201.192 203.822 201.454 203.964 201.782V200.841H205.107V206.329C205.107 206.822 204.995 207.237 204.771 207.573C204.554 207.916 204.24 208.174 203.83 208.345C203.427 208.525 202.945 208.614 202.385 208.614ZM202.374 205.489C202.837 205.489 203.206 205.321 203.483 204.985C203.766 204.649 203.912 204.186 203.919 203.597C203.927 203.208 203.867 202.876 203.74 202.6C203.613 202.316 203.43 202.1 203.191 201.95C202.96 201.793 202.687 201.715 202.374 201.715C201.888 201.715 201.511 201.887 201.243 202.23C200.981 202.566 200.851 203.022 200.851 203.597C200.851 204.179 200.985 204.642 201.254 204.985C201.53 205.321 201.903 205.489 202.374 205.489ZM209.079 208.614C208.608 208.614 208.194 208.543 207.836 208.401C207.477 208.26 207.182 208.058 206.951 207.797C206.719 207.543 206.562 207.244 206.48 206.901L207.712 206.822C207.794 207.069 207.936 207.263 208.138 207.405C208.347 207.554 208.661 207.629 209.079 207.629C209.572 207.629 209.949 207.524 210.21 207.315C210.479 207.106 210.613 206.789 210.613 206.363V205.501C210.471 205.807 210.244 206.049 209.93 206.229C209.616 206.408 209.265 206.497 208.877 206.497C208.377 206.497 207.933 206.374 207.544 206.128C207.156 205.881 206.854 205.542 206.637 205.109C206.421 204.676 206.312 204.175 206.312 203.608C206.312 203.033 206.417 202.529 206.626 202.096C206.842 201.663 207.141 201.323 207.522 201.077C207.91 200.83 208.347 200.707 208.832 200.707C209.258 200.707 209.631 200.804 209.952 200.998C210.281 201.192 210.516 201.454 210.658 201.782V200.841H211.8V206.329C211.8 206.822 211.688 207.237 211.464 207.573C211.248 207.916 210.934 208.174 210.524 208.345C210.12 208.525 209.639 208.614 209.079 208.614ZM209.068 205.489C209.53 205.489 209.9 205.321 210.176 204.985C210.46 204.649 210.606 204.186 210.613 203.597C210.621 203.208 210.561 202.876 210.434 202.6C210.307 202.316 210.124 202.1 209.885 201.95C209.654 201.793 209.381 201.715 209.068 201.715C208.582 201.715 208.205 201.887 207.936 202.23C207.675 202.566 207.544 203.022 207.544 203.597C207.544 204.179 207.679 204.642 207.948 204.985C208.224 205.321 208.597 205.489 209.068 205.489ZM215.828 206.934C215.246 206.934 214.742 206.807 214.316 206.553C213.898 206.3 213.574 205.937 213.342 205.467C213.118 204.997 213.006 204.448 213.006 203.821C213.006 203.193 213.118 202.648 213.342 202.185C213.574 201.715 213.898 201.353 214.316 201.099C214.735 200.838 215.227 200.707 215.795 200.707C216.332 200.707 216.807 200.834 217.217 201.088C217.628 201.334 217.945 201.693 218.169 202.163C218.401 202.633 218.516 203.201 218.516 203.865V204.168H214.238C214.268 204.75 214.421 205.187 214.697 205.478C214.981 205.769 215.362 205.915 215.84 205.915C216.191 205.915 216.482 205.833 216.713 205.669C216.945 205.504 217.105 205.284 217.195 205.008L218.427 205.086C218.27 205.639 217.96 206.087 217.497 206.43C217.042 206.766 216.486 206.934 215.828 206.934ZM214.238 203.272H217.262C217.225 202.742 217.072 202.35 216.803 202.096C216.542 201.842 216.206 201.715 215.795 201.715C215.369 201.715 215.018 201.849 214.742 202.118C214.473 202.38 214.305 202.764 214.238 203.272ZM219.719 206.8V200.841H220.806L220.851 202.421L220.75 202.387C220.832 201.849 220.996 201.457 221.243 201.211C221.497 200.965 221.836 200.841 222.262 200.841H222.833V201.905H222.262C221.963 201.905 221.713 201.954 221.511 202.051C221.31 202.148 221.157 202.297 221.052 202.499C220.955 202.701 220.907 202.962 220.907 203.283V206.8H219.719Z" fill="#737373"/>
<path d="M31.3734 244V237.157H28.9318V236.048H35.0246V237.157H32.583V244H31.3734ZM35.6405 244V236.048H36.8277V239.386L36.6821 239.363C36.7493 239.027 36.8725 238.755 37.0517 238.546C37.2309 238.329 37.4512 238.169 37.7125 238.064C37.9739 237.959 38.2613 237.907 38.5749 237.907C39.008 237.907 39.3739 238.004 39.6725 238.198C39.9712 238.385 40.1952 238.65 40.3445 238.994C40.5013 239.337 40.5797 239.729 40.5797 240.17V244H39.3925V240.483C39.3925 239.946 39.2992 239.55 39.1125 239.296C38.9333 239.035 38.6496 238.904 38.2613 238.904C37.8283 238.904 37.4811 239.042 37.2197 239.318C36.9584 239.587 36.8277 239.983 36.8277 240.506V244H35.6405ZM44.5121 244.134C43.9297 244.134 43.4257 244.007 43.0001 243.754C42.5819 243.5 42.2571 243.138 42.0257 242.667C41.8017 242.197 41.6897 241.648 41.6897 241.021C41.6897 240.394 41.8017 239.849 42.0257 239.386C42.2571 238.915 42.5819 238.553 43.0001 238.299C43.4182 238.038 43.911 237.907 44.4785 237.907C45.0161 237.907 45.4902 238.034 45.9009 238.288C46.3115 238.534 46.6289 238.893 46.8529 239.363C47.0843 239.834 47.2001 240.401 47.2001 241.066V241.368H42.9217C42.9515 241.95 43.1046 242.387 43.3809 242.678C43.6646 242.97 44.0454 243.115 44.5233 243.115C44.8742 243.115 45.1654 243.033 45.3969 242.869C45.6283 242.705 45.7889 242.484 45.8785 242.208L47.1105 242.286C46.9537 242.839 46.6438 243.287 46.1809 243.63C45.7254 243.966 45.1691 244.134 44.5121 244.134ZM42.9217 240.472H45.9457C45.9083 239.942 45.7553 239.55 45.4865 239.296C45.2251 239.042 44.8891 238.915 44.4785 238.915C44.0529 238.915 43.7019 239.05 43.4257 239.318C43.1569 239.58 42.9889 239.964 42.9217 240.472ZM48.3358 244V238.042H49.4222L49.467 239.632L49.3214 239.554C49.3886 239.165 49.5156 238.852 49.7022 238.613C49.8889 238.374 50.1166 238.198 50.3854 238.086C50.6542 237.967 50.9454 237.907 51.259 237.907C51.707 237.907 52.0766 238.008 52.3678 238.21C52.6665 238.404 52.8905 238.673 53.0398 239.016C53.1966 239.352 53.275 239.737 53.275 240.17V244H52.0878V240.528C52.0878 240.177 52.0505 239.882 51.9758 239.643C51.9012 239.404 51.778 239.221 51.6062 239.094C51.4345 238.967 51.2105 238.904 50.9342 238.904C50.5161 238.904 50.1764 239.042 49.915 239.318C49.6537 239.595 49.523 239.998 49.523 240.528V244H48.3358Z" fill="#141414"/>
<g filter="url(#filter4_d_468_28574)">
<g clip-path="url(#clip5_468_28574)">
<rect x="28.7974" y="256.4" width="310.4" height="28.8" rx="6.4" fill="white"/>
<path d="M43.9307 269.466C43.8447 269.471 43.7592 269.452 43.6834 269.411C43.6077 269.37 43.5448 269.309 43.5016 269.235C43.4584 269.16 43.4366 269.075 43.4387 268.989C43.4408 268.903 43.4666 268.819 43.5133 268.747L45.9973 264.8C46.0364 264.729 46.0929 264.67 46.1615 264.628C46.23 264.586 46.3082 264.563 46.3886 264.56C46.4689 264.557 46.5487 264.575 46.62 264.612C46.6914 264.649 46.752 264.704 46.796 264.771L49.264 268.733C49.3127 268.803 49.3413 268.885 49.3467 268.97C49.3522 269.055 49.3344 269.139 49.2951 269.215C49.2558 269.291 49.1966 269.354 49.1239 269.398C49.0512 269.442 48.9678 269.466 48.8827 269.466H43.9307Z" stroke="#737373" stroke-width="1.2" stroke-linecap="round" stroke-linejoin="round"/>
<path d="M44.3974 272.133H41.0641C40.6959 272.133 40.3974 272.431 40.3974 272.8V276.133C40.3974 276.501 40.6959 276.8 41.0641 276.8H44.3974C44.7656 276.8 45.0641 276.501 45.0641 276.133V272.8C45.0641 272.431 44.7656 272.133 44.3974 272.133Z" stroke="#737373" stroke-width="1.2" stroke-linecap="round" stroke-linejoin="round"/>
<path d="M50.0641 276.8C51.3527 276.8 52.3974 275.755 52.3974 274.466C52.3974 273.178 51.3527 272.133 50.0641 272.133C48.7754 272.133 47.7307 273.178 47.7307 274.466C47.7307 275.755 48.7754 276.8 50.0641 276.8Z" stroke="#737373" stroke-width="1.2" stroke-linecap="round" stroke-linejoin="round"/>
<path d="M62.9606 274.979C62.3483 274.979 61.8145 274.863 61.359 274.632C60.9035 274.4 60.5414 274.083 60.2726 273.68C60.0113 273.269 59.8582 272.795 59.8134 272.257L60.8214 272.19C60.8737 272.586 60.9894 272.922 61.1686 273.198C61.3478 273.474 61.5867 273.684 61.8854 273.825C62.1915 273.967 62.5574 274.038 62.983 274.038C63.3563 274.038 63.6737 273.99 63.935 273.893C64.1963 273.796 64.3942 273.654 64.5286 273.467C64.6705 273.28 64.7414 273.053 64.7414 272.784C64.7414 272.537 64.6817 272.321 64.5622 272.134C64.4502 271.94 64.2299 271.765 63.9014 271.608C63.5803 271.444 63.1025 271.283 62.4678 271.126C61.8555 270.969 61.3665 270.798 61.0006 270.611C60.6422 270.424 60.3809 270.197 60.2166 269.928C60.0598 269.659 59.9814 269.327 59.9814 268.931C59.9814 268.483 60.0859 268.091 60.295 267.755C60.5115 267.412 60.8177 267.146 61.2134 266.96C61.6091 266.766 62.0795 266.669 62.6246 266.669C63.207 266.669 63.7073 266.781 64.1254 267.005C64.5435 267.221 64.8758 267.52 65.1222 267.901C65.3686 268.281 65.5217 268.714 65.5814 269.2L64.5734 269.267C64.5286 268.946 64.4241 268.662 64.2598 268.416C64.103 268.162 63.8865 267.964 63.6102 267.822C63.3339 267.68 62.9979 267.609 62.6022 267.609C62.1094 267.609 61.7174 267.729 61.4262 267.968C61.135 268.199 60.9894 268.505 60.9894 268.886C60.9894 269.133 61.0454 269.338 61.1574 269.502C61.2769 269.659 61.4859 269.801 61.7846 269.928C62.0833 270.047 62.5126 270.178 63.0726 270.32C63.7371 270.484 64.2635 270.682 64.6518 270.913C65.0475 271.137 65.3275 271.399 65.4918 271.697C65.6635 271.996 65.7494 272.336 65.7494 272.717C65.7494 273.18 65.6299 273.583 65.391 273.926C65.1521 274.262 64.8235 274.524 64.4054 274.71C63.9873 274.889 63.5057 274.979 62.9606 274.979ZM69.729 274.934C69.169 274.934 68.6836 274.807 68.273 274.553C67.8698 274.3 67.5562 273.941 67.3322 273.478C67.1156 273.008 67.0074 272.459 67.0074 271.832C67.0074 271.205 67.1156 270.66 67.3322 270.197C67.5562 269.734 67.866 269.375 68.2618 269.121C68.665 268.86 69.1391 268.729 69.6842 268.729C70.1994 268.729 70.6548 268.853 71.0506 269.099C71.4463 269.338 71.7524 269.689 71.969 270.152C72.193 270.615 72.305 271.178 72.305 271.843V272.123H67.993C68.0303 272.758 68.1983 273.236 68.497 273.557C68.8031 273.878 69.2138 274.038 69.729 274.038C70.1172 274.038 70.4346 273.949 70.681 273.769C70.9348 273.583 71.1103 273.34 71.2074 273.041L72.2154 273.12C72.0586 273.65 71.7599 274.087 71.3194 274.43C70.8863 274.766 70.3562 274.934 69.729 274.934ZM67.993 271.294H71.2746C71.2298 270.719 71.0618 270.297 70.7706 270.029C70.4868 269.76 70.1247 269.625 69.6842 269.625C69.2287 269.625 68.8516 269.767 68.553 270.051C68.2618 270.327 68.0751 270.742 67.993 271.294ZM75.5224 274.8C74.9848 274.8 74.5854 274.677 74.324 274.43C74.0702 274.184 73.9432 273.799 73.9432 273.277V267.475H74.884V273.254C74.884 273.523 74.9438 273.71 75.0632 273.814C75.1827 273.919 75.3656 273.971 75.612 273.971H76.4632V274.8H75.5224ZM73.0696 269.693V268.864H76.4632V269.693H73.0696ZM82.854 274.934C82.3014 274.934 81.8198 274.807 81.4092 274.553C81.006 274.3 80.6924 273.941 80.4684 273.478C80.2444 273.008 80.1324 272.459 80.1324 271.832C80.1324 271.205 80.2444 270.66 80.4684 270.197C80.6924 269.734 81.006 269.375 81.4092 269.121C81.8198 268.86 82.3014 268.729 82.854 268.729C83.3094 268.729 83.7126 268.812 84.0636 268.976C84.422 269.133 84.7132 269.364 84.9372 269.67C85.1612 269.976 85.3068 270.35 85.374 270.79L84.3884 270.857C84.3212 270.462 84.1494 270.159 83.8732 269.95C83.5969 269.734 83.2572 269.625 82.854 269.625C82.3089 269.625 81.8833 269.823 81.5772 270.219C81.271 270.607 81.118 271.145 81.118 271.832C81.118 272.519 81.271 273.06 81.5772 273.456C81.8833 273.844 82.3089 274.038 82.854 274.038C83.2572 274.038 83.5969 273.926 83.8732 273.702C84.1494 273.478 84.3212 273.142 84.3884 272.694L85.374 272.761C85.3068 273.202 85.1612 273.586 84.9372 273.915C84.7132 274.236 84.422 274.486 84.0636 274.665C83.7126 274.845 83.3094 274.934 82.854 274.934ZM88.295 274.934C87.6827 274.934 87.1937 274.792 86.8278 274.509C86.4694 274.225 86.2902 273.829 86.2902 273.321C86.2902 272.814 86.4395 272.414 86.7382 272.123C87.0369 271.832 87.511 271.626 88.1606 271.507L90.2662 271.115C90.2662 270.615 90.1467 270.241 89.9078 269.995C89.6763 269.749 89.3254 269.625 88.855 269.625C88.4443 269.625 88.1195 269.719 87.8806 269.905C87.6417 270.085 87.4774 270.346 87.3878 270.689L86.391 270.611C86.503 270.051 86.7718 269.599 87.1974 269.256C87.6305 268.905 88.183 268.729 88.855 268.729C89.6166 268.729 90.199 268.946 90.6022 269.379C91.0054 269.805 91.207 270.394 91.207 271.149V273.601C91.207 273.736 91.2294 273.833 91.2742 273.893C91.3265 273.945 91.4086 273.971 91.5206 273.971H91.7558V274.8C91.7259 274.807 91.6774 274.811 91.6102 274.811C91.543 274.818 91.4721 274.822 91.3974 274.822C91.1286 274.822 90.9083 274.781 90.7366 274.699C90.5723 274.609 90.4529 274.475 90.3782 274.296C90.3035 274.109 90.2662 273.866 90.2662 273.568L90.3782 273.59C90.3259 273.844 90.199 274.076 89.9974 274.285C89.7958 274.486 89.5457 274.647 89.247 274.766C88.9483 274.878 88.631 274.934 88.295 274.934ZM88.3846 274.105C88.7803 274.105 89.1163 274.031 89.3926 273.881C89.6763 273.725 89.8929 273.516 90.0422 273.254C90.1915 272.985 90.2662 272.687 90.2662 272.358V271.933L88.3398 272.291C87.9366 272.366 87.6566 272.481 87.4998 272.638C87.3505 272.788 87.2758 272.985 87.2758 273.232C87.2758 273.508 87.3729 273.725 87.567 273.881C87.7686 274.031 88.0411 274.105 88.3846 274.105ZM94.6959 274.8C94.1583 274.8 93.7588 274.677 93.4975 274.43C93.2436 274.184 93.1167 273.799 93.1167 273.277V267.475H94.0575V273.254C94.0575 273.523 94.1172 273.71 94.2367 273.814C94.3561 273.919 94.5391 273.971 94.7855 273.971H95.6367V274.8H94.6959ZM92.2431 269.693V268.864H95.6367V269.693H92.2431ZM99.0524 274.934C98.4924 274.934 98.0071 274.807 97.5964 274.553C97.1932 274.3 96.8796 273.941 96.6556 273.478C96.4391 273.008 96.3308 272.459 96.3308 271.832C96.3308 271.205 96.4391 270.66 96.6556 270.197C96.8796 269.734 97.1895 269.375 97.5852 269.121C97.9884 268.86 98.4625 268.729 99.0076 268.729C99.5228 268.729 99.9783 268.853 100.374 269.099C100.77 269.338 101.076 269.689 101.292 270.152C101.516 270.615 101.628 271.178 101.628 271.843V272.123H97.3164C97.3537 272.758 97.5217 273.236 97.8204 273.557C98.1265 273.878 98.5372 274.038 99.0524 274.038C99.4407 274.038 99.758 273.949 100.004 273.769C100.258 273.583 100.434 273.34 100.531 273.041L101.539 273.12C101.382 273.65 101.083 274.087 100.643 274.43C100.21 274.766 99.6796 274.934 99.0524 274.934ZM97.3164 271.294H100.598C100.553 270.719 100.385 270.297 100.094 270.029C99.8103 269.76 99.4481 269.625 99.0076 269.625C98.5521 269.625 98.1751 269.767 97.8764 270.051C97.5852 270.327 97.3985 270.742 97.3164 271.294ZM105.154 276.614C104.728 276.614 104.344 276.543 104 276.401C103.657 276.26 103.369 276.058 103.138 275.797C102.906 275.535 102.75 275.233 102.668 274.889L103.653 274.822C103.743 275.098 103.9 275.315 104.124 275.472C104.355 275.636 104.698 275.718 105.154 275.718C105.692 275.718 106.102 275.61 106.386 275.393C106.677 275.177 106.823 274.852 106.823 274.419V273.456C106.681 273.769 106.453 274.02 106.14 274.206C105.826 274.393 105.475 274.486 105.087 274.486C104.586 274.486 104.138 274.363 103.743 274.117C103.354 273.87 103.048 273.53 102.824 273.097C102.608 272.664 102.5 272.168 102.5 271.608C102.5 271.04 102.608 270.544 102.824 270.118C103.041 269.685 103.34 269.345 103.72 269.099C104.109 268.853 104.549 268.729 105.042 268.729C105.46 268.729 105.833 268.826 106.162 269.021C106.498 269.215 106.733 269.476 106.868 269.805V268.864H107.764V274.397C107.764 274.86 107.659 275.255 107.45 275.584C107.241 275.92 106.942 276.174 106.554 276.345C106.166 276.525 105.699 276.614 105.154 276.614ZM105.132 273.59C105.639 273.59 106.046 273.415 106.352 273.064C106.658 272.705 106.815 272.22 106.823 271.608C106.83 271.197 106.763 270.846 106.621 270.555C106.487 270.256 106.289 270.029 106.028 269.872C105.774 269.708 105.475 269.625 105.132 269.625C104.609 269.625 104.202 269.805 103.911 270.163C103.627 270.514 103.485 270.996 103.485 271.608C103.485 272.22 103.631 272.705 103.922 273.064C104.221 273.415 104.624 273.59 105.132 273.59ZM111.762 274.934C111.217 274.934 110.739 274.807 110.328 274.553C109.918 274.3 109.6 273.941 109.376 273.478C109.152 273.008 109.04 272.459 109.04 271.832C109.04 271.197 109.152 270.648 109.376 270.185C109.6 269.722 109.918 269.364 110.328 269.11C110.739 268.856 111.217 268.729 111.762 268.729C112.307 268.729 112.781 268.856 113.184 269.11C113.595 269.364 113.912 269.722 114.136 270.185C114.36 270.648 114.472 271.197 114.472 271.832C114.472 272.459 114.36 273.008 114.136 273.478C113.912 273.941 113.595 274.3 113.184 274.553C112.781 274.807 112.307 274.934 111.762 274.934ZM111.762 274.038C112.307 274.038 112.729 273.844 113.027 273.456C113.334 273.06 113.487 272.519 113.487 271.832C113.487 271.145 113.334 270.607 113.027 270.219C112.729 269.823 112.307 269.625 111.762 269.625C111.217 269.625 110.791 269.823 110.485 270.219C110.179 270.607 110.026 271.145 110.026 271.832C110.026 272.519 110.179 273.06 110.485 273.456C110.791 273.844 111.217 274.038 111.762 274.038ZM115.754 274.8V268.864H116.583L116.628 270.365L116.538 270.331C116.613 269.823 116.774 269.454 117.02 269.222C117.274 268.983 117.61 268.864 118.028 268.864H118.61V269.76H118.039C117.74 269.76 117.49 269.816 117.289 269.928C117.095 270.032 116.945 270.193 116.841 270.409C116.744 270.618 116.695 270.887 116.695 271.216V274.8H115.754ZM119.971 276.48V275.651H120.654C120.864 275.651 121.017 275.617 121.114 275.55C121.218 275.49 121.297 275.39 121.349 275.248L121.562 274.688H121.237L119.064 268.864H120.094L121.864 273.814L123.555 268.864H124.586L122.178 275.55C122.066 275.871 121.898 276.106 121.674 276.256C121.45 276.405 121.14 276.48 120.744 276.48H119.971ZM130.702 274.8C130.165 274.8 129.765 274.677 129.504 274.43C129.25 274.184 129.123 273.799 129.123 273.277V267.475H130.064V273.254C130.064 273.523 130.123 273.71 130.243 273.814C130.362 273.919 130.545 273.971 130.792 273.971H131.643V274.8H130.702ZM128.249 269.693V268.864H131.643V269.693H128.249ZM135.059 274.934C134.514 274.934 134.036 274.807 133.625 274.553C133.214 274.3 132.897 273.941 132.673 273.478C132.449 273.008 132.337 272.459 132.337 271.832C132.337 271.197 132.449 270.648 132.673 270.185C132.897 269.722 133.214 269.364 133.625 269.11C134.036 268.856 134.514 268.729 135.059 268.729C135.604 268.729 136.078 268.856 136.481 269.11C136.892 269.364 137.209 269.722 137.433 270.185C137.657 270.648 137.769 271.197 137.769 271.832C137.769 272.459 137.657 273.008 137.433 273.478C137.209 273.941 136.892 274.3 136.481 274.553C136.078 274.807 135.604 274.934 135.059 274.934ZM135.059 274.038C135.604 274.038 136.026 273.844 136.324 273.456C136.63 273.06 136.783 272.519 136.783 271.832C136.783 271.145 136.63 270.607 136.324 270.219C136.026 269.823 135.604 269.625 135.059 269.625C134.514 269.625 134.088 269.823 133.782 270.219C133.476 270.607 133.323 271.145 133.323 271.832C133.323 272.519 133.476 273.06 133.782 273.456C134.088 273.844 134.514 274.038 135.059 274.038Z" fill="#141414"/>
<path d="M317.597 268.8L321.597 272.8L325.597 268.8" stroke="#737373" stroke-width="1.2" stroke-linecap="round" stroke-linejoin="round"/>
</g>
<rect x="28.3974" y="256" width="311.2" height="29.6" rx="6.8" stroke="#0B0B0B" stroke-opacity="0.08" stroke-width="0.8"/>
</g>
<g filter="url(#filter5_d_468_28574)">
<rect x="28.7974" y="291.6" width="310.4" height="28.8" rx="6.4" fill="white"/>
<rect x="28.3974" y="291.2" width="311.2" height="29.6" rx="6.8" stroke="#0B0B0B" stroke-opacity="0.08" stroke-width="0.8"/>
<path d="M38.3974 306C38.3974 300.698 42.6955 296.4 47.9974 296.4H116.597C121.899 296.4 126.197 300.698 126.197 306C126.197 311.302 121.899 315.6 116.597 315.6H47.9974C42.6955 315.6 38.3974 311.302 38.3974 306Z" fill="#2E90FA" fill-opacity="0.05"/>
<path d="M38.7974 306C38.7974 300.919 42.9164 296.8 47.9974 296.8H116.597C121.678 296.8 125.797 300.919 125.797 306C125.797 311.081 121.678 315.2 116.597 315.2H47.9974C42.9164 315.2 38.7974 311.081 38.7974 306Z" stroke="#0B0B0B" stroke-opacity="0.03" stroke-width="0.8"/>
<path d="M45.7606 310V302.048H50.935V303.157H46.9702V305.475H50.8006V306.55H46.9702V308.891H51.0246V310H45.7606ZM52.4624 310V304.042H53.5488L53.5936 305.632L53.448 305.554C53.5152 305.165 53.6422 304.852 53.8288 304.613C54.0155 304.374 54.2432 304.198 54.512 304.086C54.7808 303.967 55.072 303.907 55.3856 303.907C55.8336 303.907 56.2032 304.008 56.4944 304.21C56.7931 304.404 57.0171 304.673 57.1664 305.016C57.3232 305.352 57.4016 305.737 57.4016 306.17V310H56.2144V306.528C56.2144 306.177 56.1771 305.882 56.1024 305.643C56.0278 305.404 55.9046 305.221 55.7328 305.094C55.5611 304.967 55.3371 304.904 55.0608 304.904C54.6427 304.904 54.303 305.042 54.0416 305.318C53.7803 305.595 53.6496 305.998 53.6496 306.528V310H52.4624ZM60.9378 310C60.3704 310 59.9522 309.869 59.6834 309.608C59.4146 309.347 59.2802 308.94 59.2802 308.387V302.642H60.4674V308.298C60.4674 308.574 60.5272 308.764 60.6466 308.869C60.7661 308.973 60.949 309.026 61.1954 309.026H62.0466V310H60.9378ZM58.373 305.016V304.042H62.0466V305.016H58.373ZM65.5355 310.134C64.9531 310.134 64.4491 310.007 64.0235 309.754C63.6054 309.5 63.2806 309.138 63.0491 308.667C62.8251 308.197 62.7131 307.648 62.7131 307.021C62.7131 306.394 62.8251 305.849 63.0491 305.386C63.2806 304.915 63.6054 304.553 64.0235 304.299C64.4417 304.038 64.9345 303.907 65.5019 303.907C66.0395 303.907 66.5137 304.034 66.9243 304.288C67.335 304.534 67.6523 304.893 67.8763 305.363C68.1078 305.834 68.2235 306.401 68.2235 307.066V307.368H63.9451C63.975 307.95 64.1281 308.387 64.4043 308.678C64.6881 308.97 65.0689 309.115 65.5467 309.115C65.8977 309.115 66.1889 309.033 66.4203 308.869C66.6518 308.705 66.8123 308.484 66.9019 308.208L68.1339 308.286C67.9771 308.839 67.6673 309.287 67.2043 309.63C66.7489 309.966 66.1926 310.134 65.5355 310.134ZM63.9451 306.472H66.9691C66.9318 305.942 66.7787 305.55 66.5099 305.296C66.2486 305.042 65.9126 304.915 65.5019 304.915C65.0763 304.915 64.7254 305.05 64.4491 305.318C64.1803 305.58 64.0123 305.964 63.9451 306.472ZM69.4265 310V304.042H70.5129L70.5577 305.621L70.4569 305.587C70.539 305.05 70.7033 304.658 70.9497 304.411C71.2036 304.165 71.5433 304.042 71.9689 304.042H72.5401V305.106H71.9689C71.6702 305.106 71.4201 305.154 71.2185 305.251C71.0169 305.348 70.8638 305.498 70.7593 305.699C70.6622 305.901 70.6137 306.162 70.6137 306.483V310H69.4265ZM75.6269 310C75.0594 310 74.6413 309.869 74.3725 309.608C74.1037 309.347 73.9693 308.94 73.9693 308.387V302.642H75.1565V308.298C75.1565 308.574 75.2162 308.764 75.3357 308.869C75.4552 308.973 75.6381 309.026 75.8845 309.026H76.7357V310H75.6269ZM73.0621 305.016V304.042H76.7357V305.016H73.0621ZM79.5062 310.134C78.8865 310.134 78.39 309.993 78.0166 309.709C77.6508 309.425 77.4678 309.026 77.4678 308.51C77.4678 307.995 77.6209 307.596 77.927 307.312C78.2406 307.021 78.7222 306.812 79.3718 306.685L81.4214 306.293C81.4214 305.83 81.3132 305.486 81.0966 305.262C80.8801 305.031 80.559 304.915 80.1334 304.915C79.7526 304.915 79.454 305.001 79.2374 305.173C79.0209 305.337 78.8716 305.583 78.7894 305.912L77.5686 305.834C77.6806 305.236 77.9569 304.766 78.3974 304.422C78.8454 304.079 79.4241 303.907 80.1334 303.907C80.9398 303.907 81.5521 304.124 81.9702 304.557C82.3958 304.982 82.6086 305.583 82.6086 306.36V308.678C82.6086 308.82 82.631 308.921 82.6758 308.981C82.7281 309.033 82.8102 309.059 82.9222 309.059H83.135V310C83.0977 310.007 83.038 310.015 82.9558 310.022C82.8737 310.03 82.7878 310.034 82.6982 310.034C82.4444 310.034 82.2241 309.993 82.0374 309.91C81.8582 309.828 81.7238 309.694 81.6342 309.507C81.5446 309.313 81.4998 309.055 81.4998 308.734L81.623 308.79C81.5633 309.052 81.4326 309.283 81.231 309.485C81.0369 309.686 80.7868 309.847 80.4806 309.966C80.182 310.078 79.8572 310.134 79.5062 310.134ZM79.6966 309.194C80.055 309.194 80.3612 309.126 80.615 308.992C80.8689 308.85 81.0668 308.656 81.2086 308.41C81.3505 308.163 81.4214 307.883 81.4214 307.57V307.189L79.6742 307.525C79.3158 307.592 79.062 307.7 78.9126 307.85C78.7708 307.991 78.6998 308.174 78.6998 308.398C78.6998 308.652 78.7857 308.85 78.9574 308.992C79.1366 309.126 79.383 309.194 79.6966 309.194ZM84.0827 310V304.042H85.2699V310H84.0827ZM84.0603 303.179V301.992H85.2923V303.179H84.0603ZM87.0468 310V304.042H88.1332L88.178 305.632L88.0324 305.554C88.0996 305.165 88.2265 304.852 88.4132 304.613C88.5999 304.374 88.8276 304.198 89.0964 304.086C89.3652 303.967 89.6564 303.907 89.97 303.907C90.418 303.907 90.7876 304.008 91.0788 304.21C91.3775 304.404 91.6015 304.673 91.7508 305.016C91.9076 305.352 91.986 305.737 91.986 306.17V310H90.7988V306.528C90.7988 306.177 90.7615 305.882 90.6868 305.643C90.6121 305.404 90.4889 305.221 90.3172 305.094C90.1455 304.967 89.9215 304.904 89.6452 304.904C89.2271 304.904 88.8873 305.042 88.626 305.318C88.3647 305.595 88.234 305.998 88.234 306.528V310H87.0468ZM93.4562 310V304.042H94.5426L94.5762 305.52L94.4418 305.475C94.509 305.147 94.6247 304.867 94.789 304.635C94.9607 304.404 95.1698 304.225 95.4162 304.098C95.6626 303.971 95.9314 303.907 96.2226 303.907C96.7303 303.907 97.1447 304.053 97.4658 304.344C97.7868 304.628 97.9884 305.02 98.0706 305.52H97.8802C97.9474 305.169 98.0594 304.878 98.2162 304.646C98.3804 304.407 98.5895 304.225 98.8434 304.098C99.0972 303.971 99.3847 303.907 99.7058 303.907C100.124 303.907 100.479 303.997 100.77 304.176C101.068 304.348 101.292 304.602 101.442 304.938C101.599 305.274 101.677 305.684 101.677 306.17V310H100.49V306.461C100.49 305.946 100.396 305.557 100.21 305.296C100.023 305.035 99.7394 304.904 99.3586 304.904C99.1122 304.904 98.8956 304.967 98.709 305.094C98.5223 305.221 98.3767 305.404 98.2722 305.643C98.1751 305.882 98.1266 306.17 98.1266 306.506V310H96.9954V306.506C96.9954 305.998 96.9095 305.606 96.7378 305.33C96.5735 305.046 96.2898 304.904 95.8866 304.904C95.6327 304.904 95.4124 304.967 95.2258 305.094C95.0466 305.221 94.9047 305.408 94.8002 305.654C94.6956 305.893 94.6434 306.177 94.6434 306.506V310H93.4562ZM105.687 310.134C105.105 310.134 104.601 310.007 104.175 309.754C103.757 309.5 103.432 309.138 103.201 308.667C102.977 308.197 102.865 307.648 102.865 307.021C102.865 306.394 102.977 305.849 103.201 305.386C103.432 304.915 103.757 304.553 104.175 304.299C104.593 304.038 105.086 303.907 105.653 303.907C106.191 303.907 106.665 304.034 107.076 304.288C107.487 304.534 107.804 304.893 108.028 305.363C108.259 305.834 108.375 306.401 108.375 307.066V307.368H104.097C104.127 307.95 104.28 308.387 104.556 308.678C104.84 308.97 105.22 309.115 105.698 309.115C106.049 309.115 106.34 309.033 106.572 308.869C106.803 308.705 106.964 308.484 107.053 308.208L108.285 308.286C108.129 308.839 107.819 309.287 107.356 309.63C106.9 309.966 106.344 310.134 105.687 310.134ZM104.097 306.472H107.121C107.083 305.942 106.93 305.55 106.661 305.296C106.4 305.042 106.064 304.915 105.653 304.915C105.228 304.915 104.877 305.05 104.601 305.318C104.332 305.58 104.164 305.964 104.097 306.472ZM109.578 310V304.042H110.664L110.709 305.632L110.564 305.554C110.631 305.165 110.758 304.852 110.944 304.613C111.131 304.374 111.359 304.198 111.628 304.086C111.896 303.967 112.188 303.907 112.501 303.907C112.949 303.907 113.319 304.008 113.61 304.21C113.909 304.404 114.133 304.673 114.282 305.016C114.439 305.352 114.517 305.737 114.517 306.17V310H113.33V306.528C113.33 306.177 113.293 305.882 113.218 305.643C113.143 305.404 113.02 305.221 112.848 305.094C112.677 304.967 112.453 304.904 112.176 304.904C111.758 304.904 111.419 305.042 111.157 305.318C110.896 305.595 110.765 305.998 110.765 306.528V310H109.578ZM118.053 310C117.486 310 117.068 309.869 116.799 309.608C116.53 309.347 116.396 308.94 116.396 308.387V302.642H117.583V308.298C117.583 308.574 117.643 308.764 117.762 308.869C117.882 308.973 118.065 309.026 118.311 309.026H119.162V310H118.053ZM115.489 305.016V304.042H119.162V305.016H115.489Z" fill="#2E90FA"/>
<path d="M317.597 304L321.597 308L325.597 304" stroke="#737373" stroke-width="1.2" stroke-linecap="round" stroke-linejoin="round"/>
</g>
<path d="M149.231 341.199H158.564M153.897 336.533V345.866" stroke="#737373" stroke-width="1.2" stroke-linecap="round" stroke-linejoin="round"/>
<path d="M165.641 345.2L168.508 337.248H170.043L172.91 345.2H171.622L170.894 343.128H167.646L166.929 345.2H165.641ZM168.027 342.03H170.524L169.27 338.401L168.027 342.03ZM175.877 345.334C175.369 345.334 174.925 345.207 174.544 344.953C174.171 344.699 173.883 344.341 173.682 343.878C173.488 343.408 173.39 342.855 173.39 342.221C173.39 341.586 173.491 341.037 173.693 340.574C173.894 340.104 174.182 339.742 174.555 339.488C174.929 339.234 175.369 339.107 175.877 339.107C176.288 339.107 176.653 339.193 176.974 339.365C177.296 339.536 177.538 339.775 177.702 340.081V337.248H178.89V345.2H177.781L177.747 344.304C177.583 344.625 177.333 344.879 176.997 345.065C176.668 345.245 176.295 345.334 175.877 345.334ZM176.19 344.304C176.512 344.304 176.784 344.222 177.008 344.057C177.232 343.893 177.404 343.654 177.523 343.341C177.643 343.027 177.702 342.654 177.702 342.221C177.702 341.773 177.643 341.395 177.523 341.089C177.404 340.776 177.232 340.541 177.008 340.384C176.784 340.219 176.512 340.137 176.19 340.137C175.713 340.137 175.332 340.324 175.048 340.697C174.764 341.063 174.622 341.571 174.622 342.221C174.622 342.863 174.764 343.37 175.048 343.744C175.332 344.117 175.713 344.304 176.19 344.304ZM182.582 345.334C182.074 345.334 181.63 345.207 181.249 344.953C180.875 344.699 180.588 344.341 180.386 343.878C180.192 343.408 180.095 342.855 180.095 342.221C180.095 341.586 180.196 341.037 180.398 340.574C180.599 340.104 180.887 339.742 181.26 339.488C181.633 339.234 182.074 339.107 182.582 339.107C182.992 339.107 183.358 339.193 183.679 339.365C184 339.536 184.243 339.775 184.407 340.081V337.248H185.594V345.2H184.486L184.452 344.304C184.288 344.625 184.038 344.879 183.702 345.065C183.373 345.245 183 345.334 182.582 345.334ZM182.895 344.304C183.216 344.304 183.489 344.222 183.713 344.057C183.937 343.893 184.108 343.654 184.228 343.341C184.347 343.027 184.407 342.654 184.407 342.221C184.407 341.773 184.347 341.395 184.228 341.089C184.108 340.776 183.937 340.541 183.713 340.384C183.489 340.219 183.216 340.137 182.895 340.137C182.417 340.137 182.036 340.324 181.753 340.697C181.469 341.063 181.327 341.571 181.327 342.221C181.327 342.863 181.469 343.37 181.753 343.744C182.036 344.117 182.417 344.304 182.895 344.304ZM191.671 345.334C191.051 345.334 190.555 345.192 190.181 344.909C189.816 344.625 189.633 344.225 189.633 343.71C189.633 343.195 189.786 342.795 190.092 342.512C190.405 342.221 190.887 342.011 191.537 341.885L193.586 341.493C193.586 341.03 193.478 340.686 193.261 340.462C193.045 340.231 192.724 340.115 192.298 340.115C191.917 340.115 191.619 340.201 191.402 340.373C191.186 340.537 191.036 340.783 190.954 341.112L189.733 341.033C189.845 340.436 190.122 339.966 190.562 339.622C191.01 339.279 191.589 339.107 192.298 339.107C193.105 339.107 193.717 339.323 194.135 339.757C194.561 340.182 194.773 340.783 194.773 341.56V343.878C194.773 344.02 194.796 344.121 194.841 344.181C194.893 344.233 194.975 344.259 195.087 344.259H195.3V345.2C195.263 345.207 195.203 345.215 195.121 345.222C195.039 345.23 194.953 345.233 194.863 345.233C194.609 345.233 194.389 345.192 194.202 345.11C194.023 345.028 193.889 344.894 193.799 344.707C193.709 344.513 193.665 344.255 193.665 343.934L193.788 343.99C193.728 344.251 193.597 344.483 193.396 344.685C193.202 344.886 192.952 345.047 192.645 345.166C192.347 345.278 192.022 345.334 191.671 345.334ZM191.861 344.393C192.22 344.393 192.526 344.326 192.78 344.192C193.034 344.05 193.232 343.856 193.373 343.609C193.515 343.363 193.586 343.083 193.586 342.769V342.389L191.839 342.725C191.481 342.792 191.227 342.9 191.077 343.049C190.936 343.191 190.865 343.374 190.865 343.598C190.865 343.852 190.951 344.05 191.122 344.192C191.301 344.326 191.548 344.393 191.861 344.393ZM198.711 345.334C198.144 345.334 197.647 345.207 197.222 344.953C196.796 344.699 196.468 344.337 196.236 343.867C196.005 343.397 195.889 342.848 195.889 342.221C195.889 341.593 196.005 341.048 196.236 340.585C196.468 340.115 196.796 339.753 197.222 339.499C197.647 339.238 198.144 339.107 198.711 339.107C199.197 339.107 199.626 339.193 199.999 339.365C200.38 339.529 200.686 339.771 200.918 340.093C201.157 340.414 201.31 340.806 201.377 341.269L200.134 341.336C200.074 340.947 199.917 340.653 199.663 340.451C199.409 340.242 199.092 340.137 198.711 340.137C198.211 340.137 197.819 340.324 197.535 340.697C197.259 341.063 197.121 341.571 197.121 342.221C197.121 342.87 197.259 343.382 197.535 343.755C197.819 344.121 198.211 344.304 198.711 344.304C199.092 344.304 199.409 344.199 199.663 343.99C199.917 343.774 200.074 343.449 200.134 343.016L201.377 343.083C201.31 343.538 201.157 343.934 200.918 344.27C200.686 344.606 200.38 344.867 199.999 345.054C199.626 345.241 199.197 345.334 198.711 345.334ZM204.526 345.2C203.959 345.2 203.541 345.069 203.272 344.808C203.003 344.546 202.869 344.139 202.869 343.587V337.841H204.056V343.497C204.056 343.774 204.115 343.964 204.235 344.069C204.354 344.173 204.537 344.225 204.784 344.225H205.635V345.2H204.526ZM201.961 340.216V339.241H205.635V340.216H201.961ZM206.769 345.2V339.241H207.957V345.2H206.769ZM206.747 338.379V337.192H207.979V338.379H206.747ZM211.978 345.334C211.411 345.334 210.914 345.207 210.489 344.953C210.063 344.699 209.735 344.337 209.503 343.867C209.272 343.397 209.156 342.848 209.156 342.221C209.156 341.586 209.272 341.037 209.503 340.574C209.735 340.111 210.063 339.753 210.489 339.499C210.914 339.238 211.411 339.107 211.978 339.107C212.546 339.107 213.042 339.238 213.468 339.499C213.894 339.753 214.222 340.111 214.454 340.574C214.685 341.037 214.801 341.586 214.801 342.221C214.801 342.848 214.685 343.397 214.454 343.867C214.222 344.337 213.894 344.699 213.468 344.953C213.042 345.207 212.546 345.334 211.978 345.334ZM211.978 344.304C212.486 344.304 212.878 344.121 213.154 343.755C213.431 343.382 213.569 342.87 213.569 342.221C213.569 341.571 213.431 341.063 213.154 340.697C212.878 340.324 212.486 340.137 211.978 340.137C211.478 340.137 211.086 340.324 210.802 340.697C210.526 341.063 210.388 341.571 210.388 342.221C210.388 342.87 210.526 343.382 210.802 343.755C211.086 344.121 211.478 344.304 211.978 344.304ZM216.001 345.2V339.241H217.087L217.132 340.832L216.986 340.753C217.053 340.365 217.18 340.051 217.367 339.813C217.554 339.574 217.781 339.398 218.05 339.286C218.319 339.167 218.61 339.107 218.924 339.107C219.372 339.107 219.741 339.208 220.033 339.409C220.331 339.603 220.555 339.872 220.705 340.216C220.861 340.552 220.94 340.936 220.94 341.369V345.2H219.753V341.728C219.753 341.377 219.715 341.082 219.641 340.843C219.566 340.604 219.443 340.421 219.271 340.294C219.099 340.167 218.875 340.104 218.599 340.104C218.181 340.104 217.841 340.242 217.58 340.518C217.319 340.794 217.188 341.198 217.188 341.728V345.2H216.001Z" fill="#737373"/>
<path d="M29.0214 382.4L31.8886 374.448H33.423L36.2902 382.4H35.0022L34.2742 380.328H31.0262L30.3094 382.4H29.0214ZM31.407 379.23H33.9046L32.6502 375.602L31.407 379.23ZM37.0733 384.08V376.442H38.1933L38.2269 377.718L38.0925 377.651C38.2419 377.211 38.4883 376.878 38.8317 376.654C39.1752 376.423 39.5709 376.307 40.0189 376.307C40.6013 376.307 41.0792 376.453 41.4525 376.744C41.8333 377.028 42.1133 377.405 42.2925 377.875C42.4792 378.346 42.5725 378.861 42.5725 379.421C42.5725 379.981 42.4792 380.496 42.2925 380.966C42.1133 381.437 41.8333 381.818 41.4525 382.109C41.0792 382.392 40.6013 382.534 40.0189 382.534C39.7203 382.534 39.4403 382.482 39.1789 382.378C38.9176 382.273 38.6936 382.127 38.5069 381.941C38.3277 381.747 38.2008 381.519 38.1261 381.258L38.2605 381.123V384.08H37.0733ZM39.8061 381.504C40.284 381.504 40.6573 381.321 40.9261 380.955C41.2024 380.589 41.3405 380.078 41.3405 379.421C41.3405 378.764 41.2024 378.252 40.9261 377.886C40.6573 377.52 40.284 377.338 39.8061 377.338C39.4925 377.338 39.22 377.416 38.9885 377.573C38.7571 377.722 38.5779 377.954 38.4509 378.267C38.324 378.581 38.2605 378.965 38.2605 379.421C38.2605 379.876 38.3203 380.261 38.4397 380.574C38.5667 380.888 38.7459 381.123 38.9773 381.28C39.2163 381.429 39.4925 381.504 39.8061 381.504ZM43.7108 384.08V376.442H44.8308L44.8644 377.718L44.73 377.651C44.8794 377.211 45.1258 376.878 45.4692 376.654C45.8127 376.423 46.2084 376.307 46.6564 376.307C47.2388 376.307 47.7167 376.453 48.09 376.744C48.4708 377.028 48.7508 377.405 48.93 377.875C49.1167 378.346 49.21 378.861 49.21 379.421C49.21 379.981 49.1167 380.496 48.93 380.966C48.7508 381.437 48.4708 381.818 48.09 382.109C47.7167 382.392 47.2388 382.534 46.6564 382.534C46.3578 382.534 46.0778 382.482 45.8164 382.378C45.5551 382.273 45.3311 382.127 45.1444 381.941C44.9652 381.747 44.8383 381.519 44.7636 381.258L44.898 381.123V384.08H43.7108ZM46.4436 381.504C46.9215 381.504 47.2948 381.321 47.5636 380.955C47.8399 380.589 47.978 380.078 47.978 379.421C47.978 378.764 47.8399 378.252 47.5636 377.886C47.2948 377.52 46.9215 377.338 46.4436 377.338C46.13 377.338 45.8575 377.416 45.626 377.573C45.3946 377.722 45.2154 377.954 45.0884 378.267C44.9615 378.581 44.898 378.965 44.898 379.421C44.898 379.876 44.9578 380.261 45.0772 380.574C45.2042 380.888 45.3834 381.123 45.6148 381.28C45.8538 381.429 46.13 381.504 46.4436 381.504ZM51.7022 382.4C51.3139 382.4 51.0003 382.299 50.7614 382.098C50.5225 381.896 50.403 381.575 50.403 381.134V374.448H51.5902V381.022C51.5902 381.157 51.6238 381.258 51.691 381.325C51.7657 381.392 51.8702 381.426 52.0046 381.426H52.475V382.4H51.7022ZM53.5265 384.08V383.106H54.2545C54.4561 383.106 54.6054 383.076 54.7025 383.016C54.7996 382.956 54.8742 382.855 54.9265 382.714L55.1169 382.221H54.7473L52.5969 376.442H53.8513L55.4865 381.123L57.0433 376.442H58.3089L55.9345 383.094C55.815 383.438 55.6358 383.688 55.3969 383.845C55.1654 384.002 54.8406 384.08 54.4225 384.08H53.5265ZM64.255 382.4C63.6875 382.4 63.2694 382.269 63.0006 382.008C62.7318 381.747 62.5974 381.34 62.5974 380.787V375.042H63.7846V380.698C63.7846 380.974 63.8443 381.164 63.9638 381.269C64.0832 381.373 64.2662 381.426 64.5126 381.426H65.3638V382.4H64.255ZM61.6902 377.416V376.442H65.3638V377.416H61.6902ZM66.4311 382.4V374.448H67.6183V377.786L67.4727 377.763C67.5399 377.427 67.6631 377.155 67.8423 376.946C68.0215 376.729 68.2418 376.568 68.5031 376.464C68.7644 376.359 69.0519 376.307 69.3655 376.307C69.7986 376.307 70.1644 376.404 70.4631 376.598C70.7618 376.785 70.9858 377.05 71.1351 377.394C71.2919 377.737 71.3703 378.129 71.3703 378.57V382.4H70.1831V378.883C70.1831 378.346 70.0898 377.95 69.9031 377.696C69.7239 377.435 69.4402 377.304 69.0519 377.304C68.6188 377.304 68.2716 377.442 68.0103 377.718C67.749 377.987 67.6183 378.383 67.6183 378.906V382.4H66.4311ZM72.8717 382.4V376.442H74.0589V382.4H72.8717ZM72.8493 375.579V374.392H74.0813V375.579H72.8493ZM77.8567 382.534C77.2967 382.534 76.8226 382.448 76.4343 382.277C76.0535 382.105 75.7586 381.87 75.5495 381.571C75.3405 381.265 75.221 380.914 75.1911 380.518L76.4119 380.462C76.4717 380.791 76.6135 381.052 76.8375 381.246C77.0615 381.44 77.4013 381.538 77.8567 381.538C78.2301 381.538 78.525 381.478 78.7415 381.358C78.9581 381.239 79.0663 381.048 79.0663 380.787C79.0663 380.645 79.029 380.526 78.9543 380.429C78.8871 380.324 78.7527 380.238 78.5511 380.171C78.3495 380.096 78.0509 380.026 77.6551 379.958C77.0653 379.846 76.6023 379.716 76.2663 379.566C75.9303 379.417 75.6914 379.227 75.5495 378.995C75.4077 378.764 75.3367 378.484 75.3367 378.155C75.3367 377.61 75.5383 377.166 75.9415 376.822C76.3522 376.479 76.9421 376.307 77.7111 376.307C78.2263 376.307 78.6594 376.397 79.0103 376.576C79.3613 376.748 79.6338 376.983 79.8279 377.282C80.0295 377.573 80.1565 377.901 80.2087 378.267L78.9879 378.334C78.9506 378.125 78.8759 377.946 78.7639 377.797C78.6594 377.64 78.5175 377.52 78.3383 377.438C78.1591 377.349 77.9463 377.304 77.6999 377.304C77.3191 377.304 77.0354 377.379 76.8487 377.528C76.6621 377.677 76.5687 377.871 76.5687 378.11C76.5687 378.29 76.6098 378.435 76.6919 378.547C76.7815 378.659 76.9234 378.752 77.1175 378.827C77.3117 378.894 77.5693 378.954 77.8903 379.006C78.5101 379.111 78.9954 379.242 79.3463 379.398C79.6973 379.548 79.9437 379.734 80.0855 379.958C80.2274 380.182 80.2983 380.455 80.2983 380.776C80.2983 381.149 80.1938 381.467 79.9847 381.728C79.7757 381.989 79.4882 382.191 79.1223 382.333C78.7565 382.467 78.3346 382.534 77.8567 382.534Z" fill="#141414"/>
</g>
</g>
</g>
<path d="M0.833374 12C0.833374 5.64872 5.9821 0.5 12.3334 0.5H355C361.351 0.5 366.5 5.64872 366.5 12V374C366.5 380.351 361.351 385.5 355 385.5H12.3334C5.98209 385.5 0.833374 380.351 0.833374 374V12Z" stroke="black" stroke-opacity="0.05"/>
<defs>
<filter id="filter0_dd_468_28574" x="9.99744" y="41" width="348" height="485.6" filterUnits="userSpaceOnUse" color-interpolation-filters="sRGB">
<feFlood flood-opacity="0" result="BackgroundImageFix"/>
<feColorMatrix in="SourceAlpha" type="matrix" values="0 0 0 0 0 0 0 0 0 0 0 0 0 0 0 0 0 0 127 0" result="hardAlpha"/>
<feMorphology radius="1" operator="dilate" in="SourceAlpha" result="effect1_dropShadow_468_28574"/>
<feOffset/>
<feColorMatrix type="matrix" values="0 0 0 0 0.0431373 0 0 0 0 0.0431373 0 0 0 0 0.0431373 0 0 0 0.05 0"/>
<feBlend mode="normal" in2="BackgroundImageFix" result="effect1_dropShadow_468_28574"/>
<feColorMatrix in="SourceAlpha" type="matrix" values="0 0 0 0 0 0 0 0 0 0 0 0 0 0 0 0 0 0 127 0" result="hardAlpha"/>
<feOffset dy="1"/>
<feGaussianBlur stdDeviation="3"/>
<feColorMatrix type="matrix" values="0 0 0 0 0.0431373 0 0 0 0 0.0431373 0 0 0 0 0.0431373 0 0 0 0.06 0"/>
<feBlend mode="normal" in2="effect1_dropShadow_468_28574" result="effect2_dropShadow_468_28574"/>
<feBlend mode="normal" in="SourceGraphic" in2="effect2_dropShadow_468_28574" result="shape"/>
</filter>
<filter id="filter1_d_468_28574" x="26.3974" y="116.4" width="185.6" height="33.5999" filterUnits="userSpaceOnUse" color-interpolation-filters="sRGB">
<feFlood flood-opacity="0" result="BackgroundImageFix"/>
<feColorMatrix in="SourceAlpha" type="matrix" values="0 0 0 0 0 0 0 0 0 0 0 0 0 0 0 0 0 0 127 0" result="hardAlpha"/>
<feOffset dy="0.8"/>
<feGaussianBlur stdDeviation="0.8"/>
<feColorMatrix type="matrix" values="0 0 0 0 0.0431373 0 0 0 0 0.0431373 0 0 0 0 0.0431373 0 0 0 0.05 0"/>
<feBlend mode="normal" in2="BackgroundImageFix" result="effect1_dropShadow_468_28574"/>
<feBlend mode="normal" in="SourceGraphic" in2="effect1_dropShadow_468_28574" result="shape"/>
</filter>
<filter id="filter2_d_468_28574" x="213.597" y="116.4" width="128" height="33.5999" filterUnits="userSpaceOnUse" color-interpolation-filters="sRGB">
<feFlood flood-opacity="0" result="BackgroundImageFix"/>
<feColorMatrix in="SourceAlpha" type="matrix" values="0 0 0 0 0 0 0 0 0 0 0 0 0 0 0 0 0 0 127 0" result="hardAlpha"/>
<feOffset dy="0.8"/>
<feGaussianBlur stdDeviation="0.8"/>
<feColorMatrix type="matrix" values="0 0 0 0 0.0431373 0 0 0 0 0.0431373 0 0 0 0 0.0431373 0 0 0 0.05 0"/>
<feBlend mode="normal" in2="BackgroundImageFix" result="effect1_dropShadow_468_28574"/>
<feBlend mode="normal" in="SourceGraphic" in2="effect1_dropShadow_468_28574" result="shape"/>
</filter>
<filter id="filter3_d_468_28574" x="26.3974" y="151.6" width="315.2" height="33.5999" filterUnits="userSpaceOnUse" color-interpolation-filters="sRGB">
<feFlood flood-opacity="0" result="BackgroundImageFix"/>
<feColorMatrix in="SourceAlpha" type="matrix" values="0 0 0 0 0 0 0 0 0 0 0 0 0 0 0 0 0 0 127 0" result="hardAlpha"/>
<feOffset dy="0.8"/>
<feGaussianBlur stdDeviation="0.8"/>
<feColorMatrix type="matrix" values="0 0 0 0 0.0431373 0 0 0 0 0.0431373 0 0 0 0 0.0431373 0 0 0 0.05 0"/>
<feBlend mode="normal" in2="BackgroundImageFix" result="effect1_dropShadow_468_28574"/>
<feBlend mode="normal" in="SourceGraphic" in2="effect1_dropShadow_468_28574" result="shape"/>
</filter>
<filter id="filter4_d_468_28574" x="26.3974" y="254.8" width="315.2" height="33.5999" filterUnits="userSpaceOnUse" color-interpolation-filters="sRGB">
<feFlood flood-opacity="0" result="BackgroundImageFix"/>
<feColorMatrix in="SourceAlpha" type="matrix" values="0 0 0 0 0 0 0 0 0 0 0 0 0 0 0 0 0 0 127 0" result="hardAlpha"/>
<feOffset dy="0.8"/>
<feGaussianBlur stdDeviation="0.8"/>
<feColorMatrix type="matrix" values="0 0 0 0 0.0431373 0 0 0 0 0.0431373 0 0 0 0 0.0431373 0 0 0 0.05 0"/>
<feBlend mode="normal" in2="BackgroundImageFix" result="effect1_dropShadow_468_28574"/>
<feBlend mode="normal" in="SourceGraphic" in2="effect1_dropShadow_468_28574" result="shape"/>
</filter>
<filter id="filter5_d_468_28574" x="26.3974" y="290" width="315.2" height="33.5999" filterUnits="userSpaceOnUse" color-interpolation-filters="sRGB">
<feFlood flood-opacity="0" result="BackgroundImageFix"/>
<feColorMatrix in="SourceAlpha" type="matrix" values="0 0 0 0 0 0 0 0 0 0 0 0 0 0 0 0 0 0 127 0" result="hardAlpha"/>
<feOffset dy="0.8"/>
<feGaussianBlur stdDeviation="0.8"/>
<feColorMatrix type="matrix" values="0 0 0 0 0.0431373 0 0 0 0 0.0431373 0 0 0 0 0.0431373 0 0 0 0.05 0"/>
<feBlend mode="normal" in2="BackgroundImageFix" result="effect1_dropShadow_468_28574"/>
<feBlend mode="normal" in="SourceGraphic" in2="effect1_dropShadow_468_28574" result="shape"/>
</filter>
<clipPath id="clip0_468_28574">
<path d="M0.333374 12C0.333374 5.37257 5.70596 0 12.3334 0H355C361.628 0 367 5.37258 367 12V374C367 380.627 361.627 386 355 386H12.3334C5.70595 386 0.333374 380.627 0.333374 374V12Z" fill="white"/>
</clipPath>
<clipPath id="clip1_468_28574">
<rect x="15.9974" y="46" width="336" height="473.6" rx="9.6" fill="white"/>
</clipPath>
<clipPath id="clip2_468_28574">
<rect x="28.7974" y="118" width="180.8" height="28.8" rx="6.4" fill="white"/>
</clipPath>
<clipPath id="clip3_468_28574">
<rect x="215.997" y="118" width="123.2" height="28.8" rx="6.4" fill="white"/>
</clipPath>
<clipPath id="clip4_468_28574">
<rect x="28.7974" y="153.2" width="310.4" height="28.8" rx="6.4" fill="white"/>
</clipPath>
<clipPath id="clip5_468_28574">
<rect x="28.7974" y="256.4" width="310.4" height="28.8" rx="6.4" fill="white"/>
</clipPath>
</defs>
</svg>
