<svg width="367" height="386" viewBox="0 0 367 386" fill="none" xmlns="http://www.w3.org/2000/svg">
<path d="M0.333374 12C0.333374 5.37257 5.70596 0 12.3334 0H355C361.628 0 367 5.37258 367 12V374C367 380.627 361.627 386 355 386H12.3334C5.70595 386 0.333374 380.627 0.333374 374V12Z" fill="#FAFAFA"/>
<path d="M0.833374 12C0.833374 5.64872 5.9821 0.5 12.3334 0.5H355C361.351 0.5 366.5 5.64872 366.5 12V374C366.5 380.351 361.351 385.5 355 385.5H12.3334C5.98209 385.5 0.833374 380.351 0.833374 374V12Z" stroke="black" stroke-opacity="0.05"/>
<g filter="url(#filter0_dd_468_28769)">
<g clip-path="url(#clip0_468_28769)">
<path d="M33.9974 68C33.9974 61.3726 39.37 56 45.9974 56H321.997C328.625 56 333.997 61.3726 333.997 68V308C333.997 314.627 328.625 320 321.997 320H45.9974C39.37 320 33.9974 314.627 33.9974 308V68Z" fill="white"/>
<path d="M51.5784 87V77.06H57.8224V78.236H52.7824V81.442H57.6544V82.59H52.7824V85.824H57.9344V87H51.5784ZM58.9601 87L61.6901 83.192L59.1001 79.58H60.4721L62.4181 82.38L64.3081 79.58H65.7081L63.1461 83.22L65.8341 87H64.4621L62.4181 84.004L60.3601 87H58.9601ZM67.0237 89.1V79.58H68.1157L68.1437 81.176L67.9757 81.092C68.1624 80.5413 68.4704 80.126 68.8997 79.846C69.3384 79.5567 69.8424 79.412 70.4117 79.412C71.149 79.412 71.751 79.594 72.2177 79.958C72.6937 80.322 73.0437 80.798 73.2677 81.386C73.501 81.974 73.6177 82.6087 73.6177 83.29C73.6177 83.9713 73.501 84.606 73.2677 85.194C73.0437 85.782 72.6937 86.258 72.2177 86.622C71.751 86.986 71.149 87.168 70.4117 87.168C70.029 87.168 69.6697 87.1027 69.3337 86.972C69.007 86.8413 68.727 86.6593 68.4937 86.426C68.2697 86.1927 68.1157 85.9173 68.0317 85.6L68.1997 85.404V89.1H67.0237ZM70.2997 86.048C70.9437 86.048 71.4524 85.8053 71.8257 85.32C72.199 84.8347 72.3857 84.158 72.3857 83.29C72.3857 82.422 72.199 81.7453 71.8257 81.26C71.4524 80.7747 70.9437 80.532 70.2997 80.532C69.8704 80.532 69.497 80.6347 69.1797 80.84C68.8717 81.0453 68.629 81.3533 68.4517 81.764C68.2837 82.1747 68.1997 82.6833 68.1997 83.29C68.1997 83.8967 68.2837 84.4053 68.4517 84.816C68.6197 85.2267 68.8624 85.5347 69.1797 85.74C69.497 85.9453 69.8704 86.048 70.2997 86.048ZM78.1111 87.168C77.4111 87.168 76.8045 87.0093 76.2911 86.692C75.7871 86.3747 75.3951 85.9267 75.1151 85.348C74.8445 84.76 74.7091 84.074 74.7091 83.29C74.7091 82.506 74.8445 81.8247 75.1151 81.246C75.3951 80.6673 75.7825 80.2193 76.2771 79.902C76.7811 79.5753 77.3738 79.412 78.0551 79.412C78.6991 79.412 79.2685 79.566 79.7631 79.874C80.2578 80.1727 80.6405 80.6113 80.9111 81.19C81.1911 81.7687 81.3311 82.4733 81.3311 83.304V83.654H75.9411C75.9878 84.4473 76.1978 85.0447 76.5711 85.446C76.9538 85.8473 77.4671 86.048 78.1111 86.048C78.5965 86.048 78.9931 85.936 79.3011 85.712C79.6185 85.4787 79.8378 85.1753 79.9591 84.802L81.2191 84.9C81.0231 85.5627 80.6498 86.1087 80.0991 86.538C79.5578 86.958 78.8951 87.168 78.1111 87.168ZM75.9411 82.618H80.0431C79.9871 81.8993 79.7771 81.372 79.4131 81.036C79.0585 80.7 78.6058 80.532 78.0551 80.532C77.4858 80.532 77.0145 80.7093 76.6411 81.064C76.2771 81.4093 76.0438 81.9273 75.9411 82.618ZM85.8221 87.168C85.1314 87.168 84.5294 87.0093 84.0161 86.692C83.5121 86.3747 83.1201 85.9267 82.8401 85.348C82.5601 84.76 82.4201 84.074 82.4201 83.29C82.4201 82.506 82.5601 81.8247 82.8401 81.246C83.1201 80.6673 83.5121 80.2193 84.0161 79.902C84.5294 79.5753 85.1314 79.412 85.8221 79.412C86.3914 79.412 86.8954 79.5147 87.3341 79.72C87.7821 79.916 88.1461 80.2053 88.4261 80.588C88.7061 80.9707 88.8881 81.4373 88.9721 81.988L87.7401 82.072C87.6561 81.5773 87.4414 81.1993 87.0961 80.938C86.7507 80.6673 86.3261 80.532 85.8221 80.532C85.1407 80.532 84.6087 80.7793 84.2261 81.274C83.8434 81.7593 83.6521 82.4313 83.6521 83.29C83.6521 84.1487 83.8434 84.8253 84.2261 85.32C84.6087 85.8053 85.1407 86.048 85.8221 86.048C86.3261 86.048 86.7507 85.908 87.0961 85.628C87.4414 85.348 87.6561 84.928 87.7401 84.368L88.9721 84.452C88.8881 85.0027 88.7061 85.4833 88.4261 85.894C88.1461 86.2953 87.7821 86.608 87.3341 86.832C86.8954 87.056 86.3914 87.168 85.8221 87.168ZM92.8588 87C92.1868 87 91.6875 86.846 91.3608 86.538C91.0435 86.23 90.8848 85.7493 90.8848 85.096V77.844H92.0608V85.068C92.0608 85.404 92.1355 85.6373 92.2848 85.768C92.4342 85.8987 92.6628 85.964 92.9708 85.964H94.0348V87H92.8588ZM89.7928 80.616V79.58H94.0348V80.616H89.7928ZM98.3045 87.168C97.6045 87.168 96.9978 87.0093 96.4845 86.692C95.9805 86.3747 95.5885 85.9267 95.3085 85.348C95.0378 84.76 94.9025 84.074 94.9025 83.29C94.9025 82.506 95.0378 81.8247 95.3085 81.246C95.5885 80.6673 95.9758 80.2193 96.4705 79.902C96.9745 79.5753 97.5672 79.412 98.2485 79.412C98.8925 79.412 99.4618 79.566 99.9565 79.874C100.451 80.1727 100.834 80.6113 101.104 81.19C101.384 81.7687 101.524 82.4733 101.524 83.304V83.654H96.1345C96.1812 84.4473 96.3912 85.0447 96.7645 85.446C97.1472 85.8473 97.6605 86.048 98.3045 86.048C98.7898 86.048 99.1865 85.936 99.4945 85.712C99.8118 85.4787 100.031 85.1753 100.152 84.802L101.412 84.9C101.216 85.5627 100.843 86.1087 100.292 86.538C99.7512 86.958 99.0885 87.168 98.3045 87.168ZM96.1345 82.618H100.236C100.18 81.8993 99.9705 81.372 99.6065 81.036C99.2518 80.7 98.7992 80.532 98.2485 80.532C97.6792 80.532 97.2078 80.7093 96.8345 81.064C96.4705 81.4093 96.2372 81.9273 96.1345 82.618ZM105.749 87.168C105.105 87.168 104.545 87.0093 104.069 86.692C103.603 86.3747 103.243 85.9267 102.991 85.348C102.739 84.7693 102.613 84.0833 102.613 83.29C102.613 82.4967 102.739 81.8107 102.991 81.232C103.243 80.6533 103.603 80.2053 104.069 79.888C104.545 79.5707 105.105 79.412 105.749 79.412C106.244 79.412 106.697 79.5193 107.107 79.734C107.518 79.9393 107.826 80.2333 108.031 80.616V77.06H109.207V87H108.143L108.101 85.88C107.896 86.2813 107.583 86.5987 107.163 86.832C106.743 87.056 106.272 87.168 105.749 87.168ZM105.987 86.048C106.426 86.048 106.795 85.936 107.093 85.712C107.401 85.488 107.635 85.1707 107.793 84.76C107.952 84.34 108.031 83.85 108.031 83.29C108.031 82.7113 107.952 82.2167 107.793 81.806C107.635 81.3953 107.401 81.0827 107.093 80.868C106.795 80.644 106.426 80.532 105.987 80.532C105.334 80.532 104.811 80.7793 104.419 81.274C104.037 81.7593 103.845 82.4313 103.845 83.29C103.845 84.1393 104.037 84.8113 104.419 85.306C104.811 85.8007 105.334 86.048 105.987 86.048ZM114.944 87V79.58H116.12V87H114.944ZM114.916 78.418V77.046H116.148V78.418H114.916ZM118.498 87V79.58H119.576L119.618 81.47L119.478 81.344C119.572 80.9053 119.735 80.546 119.968 80.266C120.202 79.9767 120.482 79.762 120.808 79.622C121.144 79.482 121.504 79.412 121.886 79.412C122.456 79.412 122.922 79.538 123.286 79.79C123.66 80.042 123.935 80.3827 124.112 80.812C124.299 81.232 124.392 81.7033 124.392 82.226V87H123.216V82.562C123.216 82.1047 123.16 81.722 123.048 81.414C122.946 81.0967 122.778 80.8587 122.544 80.7C122.311 80.532 122.008 80.448 121.634 80.448C121.065 80.448 120.594 80.63 120.22 80.994C119.856 81.3487 119.674 81.8713 119.674 82.562V87H118.498ZM129.367 87.168C128.676 87.168 128.074 87.0093 127.561 86.692C127.057 86.3747 126.665 85.9267 126.385 85.348C126.105 84.76 125.965 84.074 125.965 83.29C125.965 82.506 126.105 81.8247 126.385 81.246C126.665 80.6673 127.057 80.2193 127.561 79.902C128.074 79.5753 128.676 79.412 129.367 79.412C129.936 79.412 130.44 79.5147 130.879 79.72C131.327 79.916 131.691 80.2053 131.971 80.588C132.251 80.9707 132.433 81.4373 132.517 81.988L131.285 82.072C131.201 81.5773 130.986 81.1993 130.641 80.938C130.296 80.6673 129.871 80.532 129.367 80.532C128.686 80.532 128.154 80.7793 127.771 81.274C127.388 81.7593 127.197 82.4313 127.197 83.29C127.197 84.1487 127.388 84.8253 127.771 85.32C128.154 85.8053 128.686 86.048 129.367 86.048C129.871 86.048 130.296 85.908 130.641 85.628C130.986 85.348 131.201 84.928 131.285 84.368L132.517 84.452C132.433 85.0027 132.251 85.4833 131.971 85.894C131.691 86.2953 131.327 86.608 130.879 86.832C130.44 87.056 129.936 87.168 129.367 87.168ZM136.873 87.168C136.192 87.168 135.594 87.0093 135.081 86.692C134.568 86.3747 134.171 85.9267 133.891 85.348C133.611 84.76 133.471 84.074 133.471 83.29C133.471 82.4967 133.611 81.8107 133.891 81.232C134.171 80.6533 134.568 80.2053 135.081 79.888C135.594 79.5707 136.192 79.412 136.873 79.412C137.554 79.412 138.147 79.5707 138.651 79.888C139.164 80.2053 139.561 80.6533 139.841 81.232C140.121 81.8107 140.261 82.4967 140.261 83.29C140.261 84.074 140.121 84.76 139.841 85.348C139.561 85.9267 139.164 86.3747 138.651 86.692C138.147 87.0093 137.554 87.168 136.873 87.168ZM136.873 86.048C137.554 86.048 138.082 85.8053 138.455 85.32C138.838 84.8253 139.029 84.1487 139.029 83.29C139.029 82.4313 138.838 81.7593 138.455 81.274C138.082 80.7793 137.554 80.532 136.873 80.532C136.192 80.532 135.66 80.7793 135.277 81.274C134.894 81.7593 134.703 82.4313 134.703 83.29C134.703 84.1487 134.894 84.8253 135.277 85.32C135.66 85.8053 136.192 86.048 136.873 86.048ZM141.864 87V79.58H142.942L142.984 81.456L142.816 81.4C142.9 80.9893 143.044 80.6393 143.25 80.35C143.464 80.0513 143.726 79.8227 144.034 79.664C144.342 79.496 144.682 79.412 145.056 79.412C145.7 79.412 146.222 79.5893 146.624 79.944C147.034 80.2987 147.291 80.7933 147.394 81.428L147.17 81.414C147.244 80.9847 147.38 80.6253 147.576 80.336C147.781 80.0373 148.042 79.8087 148.36 79.65C148.677 79.4913 149.041 79.412 149.452 79.412C149.984 79.412 150.432 79.524 150.796 79.748C151.16 79.9627 151.435 80.28 151.622 80.7C151.808 81.12 151.902 81.6287 151.902 82.226V87H150.726V82.478C150.726 81.806 150.595 81.302 150.334 80.966C150.072 80.6207 149.685 80.448 149.172 80.448C148.826 80.448 148.523 80.532 148.262 80.7C148.01 80.868 147.814 81.1107 147.674 81.428C147.534 81.736 147.464 82.114 147.464 82.562V87H146.288V82.562C146.288 81.8993 146.171 81.3813 145.938 81.008C145.704 80.6347 145.312 80.448 144.762 80.448C144.416 80.448 144.113 80.532 143.852 80.7C143.6 80.868 143.399 81.1107 143.25 81.428C143.11 81.7453 143.04 82.1233 143.04 82.562V87H141.864ZM156.875 87.168C156.175 87.168 155.568 87.0093 155.055 86.692C154.551 86.3747 154.159 85.9267 153.879 85.348C153.608 84.76 153.473 84.074 153.473 83.29C153.473 82.506 153.608 81.8247 153.879 81.246C154.159 80.6673 154.546 80.2193 155.041 79.902C155.545 79.5753 156.137 79.412 156.819 79.412C157.463 79.412 158.032 79.566 158.527 79.874C159.021 80.1727 159.404 80.6113 159.675 81.19C159.955 81.7687 160.095 82.4733 160.095 83.304V83.654H154.705C154.751 84.4473 154.961 85.0447 155.335 85.446C155.717 85.8473 156.231 86.048 156.875 86.048C157.36 86.048 157.757 85.936 158.065 85.712C158.382 85.4787 158.601 85.1753 158.723 84.802L159.983 84.9C159.787 85.5627 159.413 86.1087 158.863 86.538C158.321 86.958 157.659 87.168 156.875 87.168ZM154.705 82.618H158.807C158.751 81.8993 158.541 81.372 158.177 81.036C157.822 80.7 157.369 80.532 156.819 80.532C156.249 80.532 155.778 80.7093 155.405 81.064C155.041 81.4093 154.807 81.9273 154.705 82.618Z" fill="#737373"/>
<path d="M55.7974 123.8V106H57.3174V123.8H55.7974ZM56.7174 122.28C55.6108 122.28 54.6508 122.08 53.8374 121.68C53.0241 121.267 52.3774 120.7 51.8974 119.98C51.4308 119.26 51.1574 118.427 51.0774 117.48L53.2574 117.36C53.3374 118 53.5241 118.547 53.8174 119C54.1108 119.44 54.4974 119.78 54.9774 120.02C55.4708 120.247 56.0641 120.36 56.7574 120.36C57.3574 120.36 57.8708 120.287 58.2974 120.14C58.7241 119.98 59.0441 119.753 59.2574 119.46C59.4841 119.167 59.5974 118.8 59.5974 118.36C59.5974 117.96 59.5041 117.613 59.3174 117.32C59.1308 117.013 58.7708 116.733 58.2374 116.48C57.7041 116.213 56.9241 115.96 55.8974 115.72C54.7908 115.453 53.9041 115.153 53.2374 114.82C52.5708 114.487 52.0908 114.08 51.7974 113.6C51.5174 113.107 51.3774 112.493 51.3774 111.76C51.3774 110.973 51.5708 110.28 51.9574 109.68C52.3441 109.067 52.8908 108.593 53.5974 108.26C54.3174 107.913 55.1774 107.74 56.1774 107.74C57.2441 107.74 58.1508 107.933 58.8974 108.32C59.6574 108.707 60.2574 109.24 60.6974 109.92C61.1374 110.6 61.4108 111.38 61.5174 112.26L59.3374 112.38C59.2708 111.86 59.1041 111.393 58.8374 110.98C58.5841 110.567 58.2308 110.247 57.7774 110.02C57.3241 109.78 56.7774 109.66 56.1374 109.66C55.3374 109.66 54.7041 109.847 54.2374 110.22C53.7708 110.593 53.5374 111.087 53.5374 111.7C53.5374 112.1 53.6308 112.433 53.8174 112.7C54.0174 112.967 54.3574 113.2 54.8374 113.4C55.3308 113.6 56.0308 113.807 56.9374 114.02C58.1374 114.3 59.0908 114.64 59.7974 115.04C60.5041 115.427 61.0108 115.887 61.3174 116.42C61.6241 116.953 61.7774 117.56 61.7774 118.24C61.7774 119.067 61.5641 119.787 61.1374 120.4C60.7108 121 60.1174 121.467 59.3574 121.8C58.5974 122.12 57.7174 122.28 56.7174 122.28ZM66.309 122C66.309 120.533 66.5023 119.087 66.889 117.66C67.289 116.22 67.849 114.84 68.569 113.52C69.3023 112.187 70.1757 110.94 71.189 109.78H63.249V107.8H73.469V109.64C72.349 110.92 71.4157 112.2 70.669 113.48C69.9357 114.747 69.389 116.08 69.029 117.48C68.6823 118.867 68.509 120.373 68.509 122H66.309ZM72.4999 125.14L73.4999 122H72.3999V119.48H74.9799V121.7L73.7199 125.14H72.4999ZM76.9977 122C76.9977 120.933 77.1577 119.98 77.4777 119.14C77.7977 118.3 78.3444 117.52 79.1177 116.8C79.8911 116.08 80.9577 115.36 82.3177 114.64C82.9711 114.307 83.4911 114 83.8777 113.72C84.2777 113.427 84.5644 113.127 84.7377 112.82C84.9111 112.513 84.9977 112.14 84.9977 111.7C84.9977 111.247 84.8977 110.86 84.6977 110.54C84.5111 110.207 84.2311 109.947 83.8577 109.76C83.4844 109.56 83.0111 109.46 82.4377 109.46C81.5311 109.46 80.8111 109.707 80.2777 110.2C79.7577 110.68 79.4311 111.373 79.2977 112.28L77.0577 112.14C77.2177 110.713 77.7577 109.58 78.6777 108.74C79.6111 107.9 80.8644 107.48 82.4377 107.48C83.4511 107.48 84.3111 107.66 85.0177 108.02C85.7377 108.367 86.2844 108.853 86.6578 109.48C87.0444 110.107 87.2377 110.833 87.2377 111.66C87.2377 112.38 87.1177 113 86.8777 113.52C86.6377 114.04 86.2377 114.527 85.6777 114.98C85.1177 115.42 84.3577 115.893 83.3977 116.4C82.1711 117.053 81.2444 117.7 80.6177 118.34C79.9911 118.967 79.6577 119.527 79.6177 120.02H87.2377V122H76.9977ZM94.7954 122.32C93.7421 122.32 92.8421 122.153 92.0954 121.82C91.3487 121.473 90.7621 120.993 90.3354 120.38C89.9087 119.767 89.6621 119.06 89.5954 118.26L91.8154 118.12C91.9221 118.867 92.2354 119.427 92.7554 119.8C93.2887 120.16 93.9687 120.34 94.7954 120.34C95.7287 120.34 96.4621 120.08 96.9954 119.56C97.5421 119.04 97.8154 118.313 97.8154 117.38C97.8154 116.767 97.6887 116.24 97.4354 115.8C97.1954 115.347 96.8487 115 96.3954 114.76C95.9421 114.507 95.4021 114.38 94.7754 114.38C94.1487 114.38 93.5887 114.513 93.0954 114.78C92.6021 115.047 92.2487 115.413 92.0354 115.88H89.7954L90.7554 107.8H99.0754V109.78H92.6754L92.0754 114.64L91.7354 114.34C91.9621 113.94 92.2487 113.613 92.5954 113.36C92.9421 113.093 93.3421 112.893 93.7954 112.76C94.2621 112.613 94.7554 112.54 95.2754 112.54C96.2354 112.54 97.0687 112.747 97.7754 113.16C98.4954 113.573 99.0554 114.147 99.4554 114.88C99.8554 115.613 100.055 116.447 100.055 117.38C100.055 118.353 99.8354 119.213 99.3954 119.96C98.9554 120.707 98.3421 121.287 97.5554 121.7C96.7687 122.113 95.8487 122.32 94.7954 122.32ZM107.968 122.32C106.795 122.32 105.775 122.02 104.908 121.42C104.041 120.82 103.375 119.967 102.908 118.86C102.441 117.753 102.208 116.44 102.208 114.92C102.208 113.4 102.441 112.087 102.908 110.98C103.388 109.86 104.055 109 104.908 108.4C105.775 107.787 106.795 107.48 107.968 107.48C109.155 107.48 110.175 107.787 111.028 108.4C111.895 109 112.561 109.853 113.028 110.96C113.508 112.067 113.748 113.387 113.748 114.92C113.748 116.44 113.515 117.753 113.048 118.86C112.581 119.967 111.915 120.82 111.048 121.42C110.181 122.02 109.155 122.32 107.968 122.32ZM107.968 120.34C109.101 120.34 109.975 119.873 110.588 118.94C111.201 118.007 111.508 116.667 111.508 114.92C111.508 113.747 111.368 112.753 111.088 111.94C110.821 111.127 110.421 110.513 109.888 110.1C109.368 109.673 108.728 109.46 107.968 109.46C107.221 109.46 106.581 109.673 106.048 110.1C105.528 110.513 105.128 111.127 104.848 111.94C104.581 112.753 104.448 113.747 104.448 114.92C104.448 116.667 104.755 118.007 105.368 118.94C105.981 119.873 106.848 120.34 107.968 120.34Z" fill="#141414"/>
<g clip-path="url(#clip1_468_28769)">
<rect x="49.9974" y="138" width="210" height="6" rx="3" fill="#10A861"/>
<rect x="263.997" y="138" width="54" height="6" rx="3" fill="#10A861"/>
</g>
<path d="M53.9874 168.26V155.8H55.0234V168.26H53.9874ZM54.6174 167.224C53.8708 167.224 53.2174 167.084 52.6574 166.804C52.1068 166.515 51.6681 166.123 51.3414 165.628C51.0148 165.124 50.8234 164.545 50.7674 163.892L51.9994 163.808C52.0648 164.293 52.2048 164.704 52.4194 165.04C52.6434 165.376 52.9374 165.633 53.3014 165.81C53.6748 165.978 54.1228 166.062 54.6454 166.062C55.1028 166.062 55.4901 166.006 55.8074 165.894C56.1341 165.773 56.3814 165.6 56.5494 165.376C56.7174 165.143 56.8014 164.863 56.8014 164.536C56.8014 164.228 56.7314 163.957 56.5914 163.724C56.4514 163.491 56.1808 163.276 55.7794 163.08C55.3781 162.884 54.7901 162.693 54.0154 162.506C53.2688 162.31 52.6714 162.1 52.2234 161.876C51.7754 161.643 51.4534 161.363 51.2574 161.036C51.0708 160.7 50.9774 160.289 50.9774 159.804C50.9774 159.263 51.1081 158.787 51.3694 158.376C51.6308 157.956 51.9994 157.629 52.4754 157.396C52.9608 157.163 53.5394 157.046 54.2114 157.046C54.9208 157.046 55.5321 157.181 56.0454 157.452C56.5588 157.713 56.9648 158.077 57.2634 158.544C57.5714 159.011 57.7628 159.543 57.8374 160.14L56.5914 160.224C56.5448 159.832 56.4234 159.482 56.2274 159.174C56.0314 158.866 55.7608 158.628 55.4154 158.46C55.0794 158.283 54.6688 158.194 54.1834 158.194C53.5768 158.194 53.0961 158.339 52.7414 158.628C52.3868 158.917 52.2094 159.295 52.2094 159.762C52.2094 160.061 52.2794 160.313 52.4194 160.518C52.5594 160.714 52.8114 160.887 53.1754 161.036C53.5488 161.185 54.0761 161.344 54.7574 161.512C55.5694 161.717 56.2134 161.96 56.6894 162.24C57.1748 162.511 57.5201 162.833 57.7254 163.206C57.9308 163.57 58.0334 163.985 58.0334 164.452C58.0334 165.012 57.8841 165.502 57.5854 165.922C57.2961 166.333 56.8948 166.655 56.3814 166.888C55.8681 167.112 55.2801 167.224 54.6174 167.224ZM63.0301 167.224C62.3208 167.224 61.6861 167.112 61.1261 166.888C60.5755 166.664 60.1415 166.333 59.8241 165.894C59.5161 165.455 59.3621 164.914 59.3621 164.27C59.3621 163.551 59.5768 162.959 60.0061 162.492C60.4355 162.016 61.0048 161.694 61.7141 161.526L61.7421 161.806C61.1728 161.647 60.7108 161.391 60.3561 161.036C60.0108 160.672 59.8381 160.182 59.8381 159.566C59.8381 159.043 59.9688 158.577 60.2301 158.166C60.5008 157.755 60.8741 157.433 61.3501 157.2C61.8261 156.957 62.3861 156.836 63.0301 156.836C63.6741 156.836 64.2341 156.957 64.7101 157.2C65.1955 157.433 65.5688 157.755 65.8301 158.166C66.0915 158.577 66.2221 159.043 66.2221 159.566C66.2221 160.182 66.0495 160.672 65.7041 161.036C65.3588 161.391 64.8968 161.647 64.3181 161.806L64.3461 161.526C65.0648 161.694 65.6341 162.016 66.0541 162.492C66.4835 162.959 66.6981 163.551 66.6981 164.27C66.6981 164.914 66.5395 165.455 66.2221 165.894C65.9141 166.333 65.4848 166.664 64.9341 166.888C64.3835 167.112 63.7488 167.224 63.0301 167.224ZM63.0301 166.048C63.7675 166.048 64.3508 165.899 64.7801 165.6C65.2188 165.292 65.4381 164.825 65.4381 164.2C65.4381 163.621 65.2421 163.159 64.8501 162.814C64.4675 162.459 63.8608 162.282 63.0301 162.282C62.2088 162.282 61.6021 162.459 61.2101 162.814C60.8181 163.159 60.6221 163.621 60.6221 164.2C60.6221 164.825 60.8368 165.292 61.2661 165.6C61.7048 165.899 62.2928 166.048 63.0301 166.048ZM63.0301 161.162C63.6461 161.162 64.1221 161.031 64.4581 160.77C64.7941 160.499 64.9621 160.098 64.9621 159.566C64.9621 159.09 64.7988 158.712 64.4721 158.432C64.1455 158.152 63.6648 158.012 63.0301 158.012C62.4048 158.012 61.9241 158.152 61.5881 158.432C61.2615 158.712 61.0981 159.09 61.0981 159.566C61.0981 160.098 61.2661 160.499 61.6021 160.77C61.9381 161.031 62.4141 161.162 63.0301 161.162ZM67.9093 169.184L68.5813 167H67.8673V165.418H69.4493V166.804L68.6093 169.184H67.9093ZM74.2957 167.224C73.5864 167.224 72.9517 167.112 72.3917 166.888C71.8411 166.664 71.4071 166.333 71.0897 165.894C70.7817 165.455 70.6277 164.914 70.6277 164.27C70.6277 163.551 70.8424 162.959 71.2717 162.492C71.7011 162.016 72.2704 161.694 72.9797 161.526L73.0077 161.806C72.4384 161.647 71.9764 161.391 71.6217 161.036C71.2764 160.672 71.1037 160.182 71.1037 159.566C71.1037 159.043 71.2344 158.577 71.4957 158.166C71.7664 157.755 72.1397 157.433 72.6157 157.2C73.0917 156.957 73.6517 156.836 74.2957 156.836C74.9397 156.836 75.4997 156.957 75.9757 157.2C76.4611 157.433 76.8344 157.755 77.0957 158.166C77.3571 158.577 77.4877 159.043 77.4877 159.566C77.4877 160.182 77.3151 160.672 76.9697 161.036C76.6244 161.391 76.1624 161.647 75.5837 161.806L75.6117 161.526C76.3304 161.694 76.8997 162.016 77.3197 162.492C77.7491 162.959 77.9637 163.551 77.9637 164.27C77.9637 164.914 77.8051 165.455 77.4877 165.894C77.1797 166.333 76.7504 166.664 76.1997 166.888C75.6491 167.112 75.0144 167.224 74.2957 167.224ZM74.2957 166.048C75.0331 166.048 75.6164 165.899 76.0457 165.6C76.4844 165.292 76.7037 164.825 76.7037 164.2C76.7037 163.621 76.5077 163.159 76.1157 162.814C75.7331 162.459 75.1264 162.282 74.2957 162.282C73.4744 162.282 72.8677 162.459 72.4757 162.814C72.0837 163.159 71.8877 163.621 71.8877 164.2C71.8877 164.825 72.1024 165.292 72.5317 165.6C72.9704 165.899 73.5584 166.048 74.2957 166.048ZM74.2957 161.162C74.9117 161.162 75.3877 161.031 75.7237 160.77C76.0597 160.499 76.2277 160.098 76.2277 159.566C76.2277 159.09 76.0644 158.712 75.7377 158.432C75.4111 158.152 74.9304 158.012 74.2957 158.012C73.6704 158.012 73.1897 158.152 72.8537 158.432C72.5271 158.712 72.3637 159.09 72.3637 159.566C72.3637 160.098 72.5317 160.499 72.8677 160.77C73.2037 161.031 73.6797 161.162 74.2957 161.162ZM82.885 167.224C82.185 167.224 81.5783 167.107 81.065 166.874C80.561 166.641 80.1596 166.314 79.861 165.894C79.5716 165.474 79.4036 164.989 79.357 164.438L80.617 164.354C80.6916 164.914 80.9296 165.339 81.331 165.628C81.7416 165.908 82.2596 166.048 82.885 166.048C83.585 166.048 84.1403 165.852 84.551 165.46C84.9616 165.059 85.167 164.508 85.167 163.808C85.167 163.341 85.0736 162.94 84.887 162.604C84.7096 162.259 84.4483 161.993 84.103 161.806C83.7576 161.619 83.3423 161.526 82.857 161.526C82.3996 161.526 81.9843 161.624 81.611 161.82C81.2376 162.016 80.9716 162.291 80.813 162.646H79.525L80.183 157.06H85.755V158.236H81.289L80.841 161.904L80.617 161.68C80.7663 161.391 80.9623 161.153 81.205 160.966C81.457 160.77 81.7416 160.625 82.059 160.532C82.3856 160.429 82.7263 160.378 83.081 160.378C83.7436 160.378 84.327 160.527 84.831 160.826C85.335 161.115 85.727 161.521 86.007 162.044C86.287 162.557 86.427 163.145 86.427 163.808C86.427 164.471 86.2776 165.063 85.979 165.586C85.6803 166.099 85.265 166.501 84.733 166.79C84.201 167.079 83.585 167.224 82.885 167.224ZM91.6486 167.224C90.9486 167.224 90.342 167.107 89.8286 166.874C89.3246 166.641 88.9233 166.314 88.6246 165.894C88.3353 165.474 88.1673 164.989 88.1206 164.438L89.3806 164.354C89.4553 164.914 89.6933 165.339 90.0946 165.628C90.5053 165.908 91.0233 166.048 91.6486 166.048C92.3486 166.048 92.904 165.852 93.3146 165.46C93.7253 165.059 93.9306 164.508 93.9306 163.808C93.9306 163.341 93.8373 162.94 93.6506 162.604C93.4733 162.259 93.212 161.993 92.8666 161.806C92.5213 161.619 92.106 161.526 91.6206 161.526C91.1633 161.526 90.748 161.624 90.3746 161.82C90.0013 162.016 89.7353 162.291 89.5766 162.646H88.2886L88.9466 157.06H94.5186V158.236H90.0526L89.6046 161.904L89.3806 161.68C89.53 161.391 89.726 161.153 89.9686 160.966C90.2206 160.77 90.5053 160.625 90.8226 160.532C91.1493 160.429 91.49 160.378 91.8446 160.378C92.5073 160.378 93.0906 160.527 93.5946 160.826C94.0986 161.115 94.4906 161.521 94.7706 162.044C95.0506 162.557 95.1906 163.145 95.1906 163.808C95.1906 164.471 95.0413 165.063 94.7426 165.586C94.444 166.099 94.0286 166.501 93.4966 166.79C92.9646 167.079 92.3486 167.224 91.6486 167.224ZM96.6603 167V165.418H98.2423V167H96.6603ZM103.229 167.224C102.529 167.224 101.922 167.107 101.409 166.874C100.905 166.641 100.503 166.314 100.205 165.894C99.9154 165.474 99.7474 164.989 99.7007 164.438L100.961 164.354C101.035 164.914 101.273 165.339 101.675 165.628C102.085 165.908 102.603 166.048 103.229 166.048C103.929 166.048 104.484 165.852 104.895 165.46C105.305 165.059 105.511 164.508 105.511 163.808C105.511 163.341 105.417 162.94 105.231 162.604C105.053 162.259 104.792 161.993 104.447 161.806C104.101 161.619 103.686 161.526 103.201 161.526C102.743 161.526 102.328 161.624 101.955 161.82C101.581 162.016 101.315 162.291 101.157 162.646H99.8687L100.527 157.06H106.099V158.236H101.633L101.185 161.904L100.961 161.68C101.11 161.391 101.306 161.153 101.549 160.966C101.801 160.77 102.085 160.625 102.403 160.532C102.729 160.429 103.07 160.378 103.425 160.378C104.087 160.378 104.671 160.527 105.175 160.826C105.679 161.115 106.071 161.521 106.351 162.044C106.631 162.557 106.771 163.145 106.771 163.808C106.771 164.471 106.621 165.063 106.323 165.586C106.024 166.099 105.609 166.501 105.077 166.79C104.545 167.079 103.929 167.224 103.229 167.224ZM111.992 167.224C111.292 167.224 110.686 167.107 110.172 166.874C109.668 166.641 109.267 166.314 108.968 165.894C108.679 165.474 108.511 164.989 108.464 164.438L109.724 164.354C109.799 164.914 110.037 165.339 110.438 165.628C110.849 165.908 111.367 166.048 111.992 166.048C112.692 166.048 113.248 165.852 113.658 165.46C114.069 165.059 114.274 164.508 114.274 163.808C114.274 163.341 114.181 162.94 113.994 162.604C113.817 162.259 113.556 161.993 113.21 161.806C112.865 161.619 112.45 161.526 111.964 161.526C111.507 161.526 111.092 161.624 110.718 161.82C110.345 162.016 110.079 162.291 109.92 162.646H108.632L109.29 157.06H114.862V158.236H110.396L109.948 161.904L109.724 161.68C109.874 161.391 110.07 161.153 110.312 160.966C110.564 160.77 110.849 160.625 111.166 160.532C111.493 160.429 111.834 160.378 112.188 160.378C112.851 160.378 113.434 160.527 113.938 160.826C114.442 161.115 114.834 161.521 115.114 162.044C115.394 162.557 115.534 163.145 115.534 163.808C115.534 164.471 115.385 165.063 115.086 165.586C114.788 166.099 114.372 166.501 113.84 166.79C113.308 167.079 112.692 167.224 111.992 167.224ZM123.906 167.168C123.206 167.168 122.599 167.009 122.086 166.692C121.582 166.375 121.19 165.927 120.91 165.348C120.639 164.76 120.504 164.074 120.504 163.29C120.504 162.506 120.639 161.825 120.91 161.246C121.19 160.667 121.577 160.219 122.072 159.902C122.576 159.575 123.169 159.412 123.85 159.412C124.494 159.412 125.063 159.566 125.558 159.874C126.053 160.173 126.435 160.611 126.706 161.19C126.986 161.769 127.126 162.473 127.126 163.304V163.654H121.736C121.783 164.447 121.993 165.045 122.366 165.446C122.749 165.847 123.262 166.048 123.906 166.048C124.391 166.048 124.788 165.936 125.096 165.712C125.413 165.479 125.633 165.175 125.754 164.802L127.014 164.9C126.818 165.563 126.445 166.109 125.894 166.538C125.353 166.958 124.69 167.168 123.906 167.168ZM121.736 162.618H125.838C125.782 161.899 125.572 161.372 125.208 161.036C124.853 160.7 124.401 160.532 123.85 160.532C123.281 160.532 122.809 160.709 122.436 161.064C122.072 161.409 121.839 161.927 121.736 162.618ZM130.912 167.168C130.147 167.168 129.536 166.991 129.078 166.636C128.63 166.281 128.406 165.787 128.406 165.152C128.406 164.517 128.593 164.018 128.966 163.654C129.34 163.29 129.932 163.033 130.744 162.884L133.376 162.394C133.376 161.769 133.227 161.302 132.928 160.994C132.639 160.686 132.2 160.532 131.612 160.532C131.099 160.532 130.693 160.649 130.394 160.882C130.096 161.106 129.89 161.433 129.778 161.862L128.532 161.764C128.672 161.064 129.008 160.499 129.54 160.07C130.082 159.631 130.772 159.412 131.612 159.412C132.564 159.412 133.292 159.683 133.796 160.224C134.3 160.756 134.552 161.493 134.552 162.436V165.502C134.552 165.67 134.58 165.791 134.636 165.866C134.702 165.931 134.804 165.964 134.944 165.964H135.238V167C135.201 167.009 135.14 167.014 135.056 167.014C134.972 167.023 134.884 167.028 134.79 167.028C134.454 167.028 134.179 166.977 133.964 166.874C133.759 166.762 133.61 166.594 133.516 166.37C133.423 166.137 133.376 165.833 133.376 165.46L133.516 165.488C133.451 165.805 133.292 166.095 133.04 166.356C132.788 166.608 132.476 166.809 132.102 166.958C131.729 167.098 131.332 167.168 130.912 167.168ZM131.024 166.132C131.519 166.132 131.939 166.039 132.284 165.852C132.639 165.656 132.91 165.395 133.096 165.068C133.283 164.732 133.376 164.359 133.376 163.948V163.416L130.968 163.864C130.464 163.957 130.114 164.102 129.918 164.298C129.732 164.485 129.638 164.732 129.638 165.04C129.638 165.385 129.76 165.656 130.002 165.852C130.254 166.039 130.595 166.132 131.024 166.132ZM136.567 167V159.58H137.603L137.659 161.456L137.547 161.414C137.64 160.779 137.841 160.317 138.149 160.028C138.466 159.729 138.886 159.58 139.409 159.58H140.137V160.7H139.423C139.049 160.7 138.737 160.77 138.485 160.91C138.242 161.041 138.055 161.241 137.925 161.512C137.803 161.773 137.743 162.109 137.743 162.52V167H136.567ZM141.311 167V159.58H142.389L142.431 161.47L142.291 161.344C142.384 160.905 142.547 160.546 142.781 160.266C143.014 159.977 143.294 159.762 143.621 159.622C143.957 159.482 144.316 159.412 144.699 159.412C145.268 159.412 145.735 159.538 146.099 159.79C146.472 160.042 146.747 160.383 146.925 160.812C147.111 161.232 147.205 161.703 147.205 162.226V167H146.029V162.562C146.029 162.105 145.973 161.722 145.861 161.414C145.758 161.097 145.59 160.859 145.357 160.7C145.123 160.532 144.82 160.448 144.447 160.448C143.877 160.448 143.406 160.63 143.033 160.994C142.669 161.349 142.487 161.871 142.487 162.562V167H141.311ZM152.179 167.168C151.479 167.168 150.873 167.009 150.359 166.692C149.855 166.375 149.463 165.927 149.183 165.348C148.913 164.76 148.777 164.074 148.777 163.29C148.777 162.506 148.913 161.825 149.183 161.246C149.463 160.667 149.851 160.219 150.345 159.902C150.849 159.575 151.442 159.412 152.123 159.412C152.767 159.412 153.337 159.566 153.831 159.874C154.326 160.173 154.709 160.611 154.979 161.19C155.259 161.769 155.399 162.473 155.399 163.304V163.654H150.009C150.056 164.447 150.266 165.045 150.639 165.446C151.022 165.847 151.535 166.048 152.179 166.048C152.665 166.048 153.061 165.936 153.369 165.712C153.687 165.479 153.906 165.175 154.027 164.802L155.287 164.9C155.091 165.563 154.718 166.109 154.167 166.538C153.626 166.958 152.963 167.168 152.179 167.168ZM150.009 162.618H154.111C154.055 161.899 153.845 161.372 153.481 161.036C153.127 160.7 152.674 160.532 152.123 160.532C151.554 160.532 151.083 160.709 150.709 161.064C150.345 161.409 150.112 161.927 150.009 162.618ZM159.624 167.168C158.98 167.168 158.42 167.009 157.944 166.692C157.478 166.375 157.118 165.927 156.866 165.348C156.614 164.769 156.488 164.083 156.488 163.29C156.488 162.497 156.614 161.811 156.866 161.232C157.118 160.653 157.478 160.205 157.944 159.888C158.42 159.571 158.98 159.412 159.624 159.412C160.119 159.412 160.572 159.519 160.982 159.734C161.393 159.939 161.701 160.233 161.906 160.616V157.06H163.082V167H162.018L161.976 165.88C161.771 166.281 161.458 166.599 161.038 166.832C160.618 167.056 160.147 167.168 159.624 167.168ZM159.862 166.048C160.301 166.048 160.67 165.936 160.968 165.712C161.276 165.488 161.51 165.171 161.668 164.76C161.827 164.34 161.906 163.85 161.906 163.29C161.906 162.711 161.827 162.217 161.668 161.806C161.51 161.395 161.276 161.083 160.968 160.868C160.67 160.644 160.301 160.532 159.862 160.532C159.209 160.532 158.686 160.779 158.294 161.274C157.912 161.759 157.72 162.431 157.72 163.29C157.72 164.139 157.912 164.811 158.294 165.306C158.686 165.801 159.209 166.048 159.862 166.048Z" fill="#737373"/>
<path d="M224.057 168.26V155.8H225.121V168.26H224.057ZM224.701 167.196C223.927 167.196 223.255 167.056 222.685 166.776C222.116 166.487 221.663 166.09 221.327 165.586C221.001 165.082 220.809 164.499 220.753 163.836L222.279 163.752C222.335 164.2 222.466 164.583 222.671 164.9C222.877 165.208 223.147 165.446 223.483 165.614C223.829 165.773 224.244 165.852 224.729 165.852C225.149 165.852 225.509 165.801 225.807 165.698C226.106 165.586 226.33 165.427 226.479 165.222C226.638 165.017 226.717 164.76 226.717 164.452C226.717 164.172 226.652 163.929 226.521 163.724C226.391 163.509 226.139 163.313 225.765 163.136C225.392 162.949 224.846 162.772 224.127 162.604C223.353 162.417 222.732 162.207 222.265 161.974C221.799 161.741 221.463 161.456 221.257 161.12C221.061 160.775 220.963 160.345 220.963 159.832C220.963 159.281 221.099 158.796 221.369 158.376C221.64 157.947 222.023 157.615 222.517 157.382C223.021 157.139 223.623 157.018 224.323 157.018C225.07 157.018 225.705 157.153 226.227 157.424C226.759 157.695 227.179 158.068 227.487 158.544C227.795 159.02 227.987 159.566 228.061 160.182L226.535 160.266C226.489 159.902 226.372 159.575 226.185 159.286C226.008 158.997 225.761 158.773 225.443 158.614C225.126 158.446 224.743 158.362 224.295 158.362C223.735 158.362 223.292 158.493 222.965 158.754C222.639 159.015 222.475 159.361 222.475 159.79C222.475 160.07 222.541 160.303 222.671 160.49C222.811 160.677 223.049 160.84 223.385 160.98C223.731 161.12 224.221 161.265 224.855 161.414C225.695 161.61 226.363 161.848 226.857 162.128C227.352 162.399 227.707 162.721 227.921 163.094C228.136 163.467 228.243 163.892 228.243 164.368C228.243 164.947 228.094 165.451 227.795 165.88C227.497 166.3 227.081 166.627 226.549 166.86C226.017 167.084 225.401 167.196 224.701 167.196ZM231.64 167V159.916H229.54V158.698H230.394C230.767 158.698 231.07 158.651 231.304 158.558C231.537 158.455 231.705 158.287 231.808 158.054C231.91 157.811 231.962 157.48 231.962 157.06H233.152V167H231.64ZM235.339 169.198L236.039 167H235.269V165.236H237.075V166.79L236.193 169.198H235.339ZM241.854 167.224C241.07 167.224 240.407 167.051 239.866 166.706C239.325 166.351 238.914 165.843 238.634 165.18C238.354 164.508 238.214 163.696 238.214 162.744C238.214 161.913 238.284 161.143 238.424 160.434C238.573 159.715 238.807 159.09 239.124 158.558C239.441 158.017 239.852 157.597 240.356 157.298C240.869 156.99 241.49 156.836 242.218 156.836C243.133 156.836 243.847 157.06 244.36 157.508C244.873 157.947 245.228 158.535 245.424 159.272L243.926 159.398C243.814 159.034 243.627 158.745 243.366 158.53C243.114 158.315 242.731 158.208 242.218 158.208C241.453 158.208 240.851 158.535 240.412 159.188C239.973 159.841 239.74 160.84 239.712 162.184L239.446 162.128C239.549 161.811 239.721 161.521 239.964 161.26C240.207 160.989 240.51 160.775 240.874 160.616C241.247 160.448 241.672 160.364 242.148 160.364C242.811 160.364 243.389 160.504 243.884 160.784C244.388 161.055 244.775 161.442 245.046 161.946C245.326 162.45 245.466 163.038 245.466 163.71C245.466 164.438 245.312 165.068 245.004 165.6C244.696 166.123 244.271 166.524 243.73 166.804C243.189 167.084 242.563 167.224 241.854 167.224ZM241.868 165.88C242.475 165.88 242.965 165.689 243.338 165.306C243.721 164.914 243.912 164.382 243.912 163.71C243.912 163.29 243.828 162.926 243.66 162.618C243.501 162.301 243.273 162.058 242.974 161.89C242.685 161.722 242.349 161.638 241.966 161.638C241.546 161.638 241.173 161.722 240.846 161.89C240.519 162.058 240.263 162.301 240.076 162.618C239.889 162.926 239.796 163.29 239.796 163.71C239.796 164.13 239.88 164.503 240.048 164.83C240.216 165.157 240.454 165.413 240.762 165.6C241.079 165.787 241.448 165.88 241.868 165.88ZM251.006 167.224C250.185 167.224 249.471 167.014 248.864 166.594C248.258 166.174 247.791 165.577 247.464 164.802C247.138 164.027 246.974 163.108 246.974 162.044C246.974 160.98 247.138 160.061 247.464 159.286C247.8 158.502 248.267 157.9 248.864 157.48C249.471 157.051 250.185 156.836 251.006 156.836C251.837 156.836 252.551 157.051 253.148 157.48C253.755 157.9 254.222 158.497 254.548 159.272C254.884 160.047 255.052 160.971 255.052 162.044C255.052 163.108 254.889 164.027 254.562 164.802C254.236 165.577 253.769 166.174 253.162 166.594C252.556 167.014 251.837 167.224 251.006 167.224ZM251.006 165.838C251.8 165.838 252.411 165.511 252.84 164.858C253.27 164.205 253.484 163.267 253.484 162.044C253.484 161.223 253.386 160.527 253.19 159.958C253.004 159.389 252.724 158.959 252.35 158.67C251.986 158.371 251.538 158.222 251.006 158.222C250.484 158.222 250.036 158.371 249.662 158.67C249.298 158.959 249.018 159.389 248.822 159.958C248.636 160.527 248.542 161.223 248.542 162.044C248.542 163.267 248.757 164.205 249.186 164.858C249.616 165.511 250.222 165.838 251.006 165.838ZM260.202 167.224C259.464 167.224 258.834 167.107 258.312 166.874C257.789 166.631 257.378 166.295 257.08 165.866C256.781 165.437 256.608 164.942 256.562 164.382L258.116 164.284C258.19 164.807 258.41 165.199 258.774 165.46C259.147 165.712 259.623 165.838 260.202 165.838C260.855 165.838 261.368 165.656 261.742 165.292C262.124 164.928 262.316 164.419 262.316 163.766C262.316 163.337 262.227 162.968 262.05 162.66C261.882 162.343 261.639 162.1 261.322 161.932C261.004 161.755 260.626 161.666 260.188 161.666C259.749 161.666 259.357 161.759 259.012 161.946C258.666 162.133 258.419 162.389 258.27 162.716H256.702L257.374 157.06H263.198V158.446H258.718L258.298 161.848L258.06 161.638C258.218 161.358 258.419 161.129 258.662 160.952C258.904 160.765 259.184 160.625 259.502 160.532C259.828 160.429 260.174 160.378 260.538 160.378C261.21 160.378 261.793 160.523 262.288 160.812C262.792 161.101 263.184 161.503 263.464 162.016C263.744 162.529 263.884 163.113 263.884 163.766C263.884 164.447 263.73 165.049 263.422 165.572C263.114 166.095 262.684 166.501 262.134 166.79C261.583 167.079 260.939 167.224 260.202 167.224ZM265.292 167V165.236H267.098V167H265.292ZM272.067 167.224C271.311 167.224 270.644 167.112 270.065 166.888C269.486 166.664 269.034 166.333 268.707 165.894C268.39 165.455 268.231 164.919 268.231 164.284C268.231 163.556 268.45 162.954 268.889 162.478C269.328 162.002 269.916 161.685 270.653 161.526L270.681 161.806C270.084 161.666 269.603 161.409 269.239 161.036C268.884 160.663 268.707 160.173 268.707 159.566C268.707 159.034 268.842 158.563 269.113 158.152C269.384 157.741 269.766 157.419 270.261 157.186C270.765 156.953 271.367 156.836 272.067 156.836C272.758 156.836 273.355 156.953 273.859 157.186C274.363 157.419 274.746 157.741 275.007 158.152C275.278 158.563 275.413 159.034 275.413 159.566C275.413 160.173 275.236 160.663 274.881 161.036C274.526 161.4 274.046 161.657 273.439 161.806L273.467 161.526C274.214 161.685 274.806 162.002 275.245 162.478C275.684 162.954 275.903 163.556 275.903 164.284C275.903 164.919 275.74 165.455 275.413 165.894C275.096 166.333 274.648 166.664 274.069 166.888C273.49 167.112 272.823 167.224 272.067 167.224ZM272.067 165.838C272.758 165.838 273.304 165.698 273.705 165.418C274.116 165.129 274.321 164.699 274.321 164.13C274.321 163.589 274.134 163.155 273.761 162.828C273.397 162.501 272.832 162.338 272.067 162.338C271.302 162.338 270.732 162.501 270.359 162.828C269.986 163.155 269.799 163.589 269.799 164.13C269.799 164.699 270.004 165.129 270.415 165.418C270.826 165.698 271.376 165.838 272.067 165.838ZM272.067 161.092C272.636 161.092 273.075 160.975 273.383 160.742C273.7 160.499 273.859 160.131 273.859 159.636C273.859 159.207 273.705 158.861 273.397 158.6C273.098 158.339 272.655 158.208 272.067 158.208C271.479 158.208 271.031 158.339 270.723 158.6C270.415 158.861 270.261 159.207 270.261 159.636C270.261 160.131 270.42 160.499 270.737 160.742C271.054 160.975 271.498 161.092 272.067 161.092ZM280.901 167.224C280.164 167.224 279.534 167.107 279.011 166.874C278.488 166.631 278.078 166.295 277.779 165.866C277.48 165.437 277.308 164.942 277.261 164.382L278.815 164.284C278.89 164.807 279.109 165.199 279.473 165.46C279.846 165.712 280.322 165.838 280.901 165.838C281.554 165.838 282.068 165.656 282.441 165.292C282.824 164.928 283.015 164.419 283.015 163.766C283.015 163.337 282.926 162.968 282.749 162.66C282.581 162.343 282.338 162.1 282.021 161.932C281.704 161.755 281.326 161.666 280.887 161.666C280.448 161.666 280.056 161.759 279.711 161.946C279.366 162.133 279.118 162.389 278.969 162.716H277.401L278.073 157.06H283.897V158.446H279.417L278.997 161.848L278.759 161.638C278.918 161.358 279.118 161.129 279.361 160.952C279.604 160.765 279.884 160.625 280.201 160.532C280.528 160.429 280.873 160.378 281.237 160.378C281.909 160.378 282.492 160.523 282.987 160.812C283.491 161.101 283.883 161.503 284.163 162.016C284.443 162.529 284.583 163.113 284.583 163.766C284.583 164.447 284.429 165.049 284.121 165.572C283.813 166.095 283.384 166.501 282.833 166.79C282.282 167.079 281.638 167.224 280.901 167.224ZM292.924 167.168C292.215 167.168 291.594 167.009 291.062 166.692C290.53 166.375 290.119 165.922 289.83 165.334C289.541 164.746 289.396 164.06 289.396 163.276C289.396 162.483 289.541 161.797 289.83 161.218C290.119 160.639 290.53 160.191 291.062 159.874C291.594 159.547 292.215 159.384 292.924 159.384C293.633 159.384 294.254 159.547 294.786 159.874C295.318 160.191 295.729 160.639 296.018 161.218C296.307 161.797 296.452 162.483 296.452 163.276C296.452 164.06 296.307 164.746 296.018 165.334C295.729 165.922 295.318 166.375 294.786 166.692C294.254 167.009 293.633 167.168 292.924 167.168ZM292.924 165.88C293.559 165.88 294.049 165.651 294.394 165.194C294.739 164.727 294.912 164.088 294.912 163.276C294.912 162.464 294.739 161.829 294.394 161.372C294.049 160.905 293.559 160.672 292.924 160.672C292.299 160.672 291.809 160.905 291.454 161.372C291.109 161.829 290.936 162.464 290.936 163.276C290.936 164.088 291.109 164.727 291.454 165.194C291.809 165.651 292.299 165.88 292.924 165.88ZM299.693 167L296.977 159.552H298.559L300.589 165.488L302.619 159.552H304.215L301.485 167H299.693ZM308.236 167.168C307.508 167.168 306.878 167.009 306.346 166.692C305.824 166.375 305.418 165.922 305.128 165.334C304.848 164.746 304.708 164.06 304.708 163.276C304.708 162.492 304.848 161.811 305.128 161.232C305.418 160.644 305.824 160.191 306.346 159.874C306.869 159.547 307.485 159.384 308.194 159.384C308.866 159.384 309.459 159.543 309.972 159.86C310.486 160.168 310.882 160.616 311.162 161.204C311.452 161.792 311.596 162.501 311.596 163.332V163.71H306.248C306.286 164.438 306.477 164.984 306.822 165.348C307.177 165.712 307.653 165.894 308.25 165.894C308.689 165.894 309.053 165.791 309.342 165.586C309.632 165.381 309.832 165.105 309.944 164.76L311.484 164.858C311.288 165.549 310.901 166.109 310.322 166.538C309.753 166.958 309.058 167.168 308.236 167.168ZM306.248 162.59H310.028C309.982 161.927 309.79 161.437 309.454 161.12C309.128 160.803 308.708 160.644 308.194 160.644C307.662 160.644 307.224 160.812 306.878 161.148C306.542 161.475 306.332 161.955 306.248 162.59ZM313.1 167V159.552H314.458L314.514 161.526L314.388 161.484C314.491 160.812 314.696 160.322 315.004 160.014C315.322 159.706 315.746 159.552 316.278 159.552H316.992V160.882H316.278C315.905 160.882 315.592 160.943 315.34 161.064C315.088 161.185 314.897 161.372 314.766 161.624C314.645 161.876 314.584 162.203 314.584 162.604V167H313.1Z" fill="#10A861"/>
<path d="M333.997 188H33.9974" stroke="#0B0B0B" stroke-opacity="0.08"/>
<path d="M51.6067 219V209.06H55.0227C56.1987 209.06 57.0807 209.275 57.6687 209.704C58.2567 210.133 58.5507 210.81 58.5507 211.734C58.5507 212.163 58.4574 212.541 58.2707 212.868C58.0841 213.195 57.8181 213.451 57.4727 213.638C57.1274 213.815 56.7167 213.904 56.2407 213.904L56.2267 213.82C57.0761 213.82 57.7434 214.049 58.2287 214.506C58.7234 214.954 58.9707 215.542 58.9707 216.27C58.9707 217.175 58.6767 217.857 58.0887 218.314C57.5007 218.771 56.6654 219 55.5827 219H51.6067ZM52.8107 217.824H55.5827C56.2641 217.824 56.7867 217.684 57.1507 217.404C57.5241 217.124 57.7107 216.723 57.7107 216.2C57.7107 215.677 57.5241 215.271 57.1507 214.982C56.7867 214.683 56.2641 214.534 55.5827 214.534H52.8107V217.824ZM52.8107 213.358H55.0227C55.7507 213.358 56.3107 213.223 56.7027 212.952C57.0947 212.672 57.2907 212.285 57.2907 211.79C57.2907 211.267 57.0994 210.88 56.7167 210.628C56.3434 210.367 55.7787 210.236 55.0227 210.236H52.8107V213.358ZM63.2263 219.168C62.489 219.168 61.8963 218.921 61.4483 218.426C61.0096 217.922 60.7903 217.231 60.7903 216.354V211.58H61.9663V216.032C61.9663 216.751 62.0923 217.283 62.3443 217.628C62.6056 217.964 63.0023 218.132 63.5343 218.132C64.1223 218.132 64.5843 217.945 64.9203 217.572C65.2563 217.189 65.4243 216.667 65.4243 216.004V211.58H66.6003V219H65.4803V217.166L65.6623 217.264C65.513 217.871 65.2283 218.342 64.8083 218.678C64.3883 219.005 63.861 219.168 63.2263 219.168ZM71.3383 219.168C70.6943 219.168 70.1343 219.009 69.6583 218.692C69.1916 218.375 68.8323 217.927 68.5803 217.348C68.3283 216.769 68.2023 216.083 68.2023 215.29C68.2023 214.497 68.3283 213.811 68.5803 213.232C68.8323 212.653 69.1916 212.205 69.6583 211.888C70.1343 211.571 70.6943 211.412 71.3383 211.412C71.833 211.412 72.2856 211.519 72.6963 211.734C73.107 211.939 73.415 212.233 73.6203 212.616V209.06H74.7963V219H73.7323L73.6903 217.88C73.485 218.281 73.1723 218.599 72.7523 218.832C72.3323 219.056 71.861 219.168 71.3383 219.168ZM71.5763 218.048C72.015 218.048 72.3836 217.936 72.6823 217.712C72.9903 217.488 73.2236 217.171 73.3823 216.76C73.541 216.34 73.6203 215.85 73.6203 215.29C73.6203 214.711 73.541 214.217 73.3823 213.806C73.2236 213.395 72.9903 213.083 72.6823 212.868C72.3836 212.644 72.015 212.532 71.5763 212.532C70.923 212.532 70.4003 212.779 70.0083 213.274C69.6256 213.759 69.4343 214.431 69.4343 215.29C69.4343 216.139 69.6256 216.811 70.0083 217.306C70.4003 217.801 70.923 218.048 71.5763 218.048ZM79.7098 221.268C79.1778 221.268 78.6971 221.179 78.2678 221.002C77.8384 220.825 77.4791 220.573 77.1898 220.246C76.9004 219.919 76.7044 219.541 76.6018 219.112L77.8338 219.028C77.9458 219.373 78.1418 219.644 78.4218 219.84C78.7111 220.045 79.1404 220.148 79.7098 220.148C80.3818 220.148 80.8951 220.013 81.2498 219.742C81.6138 219.471 81.7958 219.065 81.7958 218.524V217.32C81.6184 217.712 81.3338 218.025 80.9418 218.258C80.5498 218.491 80.1111 218.608 79.6258 218.608C79.0004 218.608 78.4404 218.454 77.9458 218.146C77.4604 217.838 77.0778 217.413 76.7978 216.872C76.5271 216.331 76.3918 215.71 76.3918 215.01C76.3918 214.301 76.5271 213.68 76.7978 213.148C77.0684 212.607 77.4418 212.182 77.9178 211.874C78.4031 211.566 78.9538 211.412 79.5698 211.412C80.0924 211.412 80.5591 211.533 80.9698 211.776C81.3898 212.019 81.6838 212.345 81.8518 212.756V211.58H82.9718V218.496C82.9718 219.075 82.8411 219.569 82.5798 219.98C82.3184 220.4 81.9451 220.717 81.4598 220.932C80.9744 221.156 80.3911 221.268 79.7098 221.268ZM79.6818 217.488C80.3164 217.488 80.8251 217.269 81.2078 216.83C81.5904 216.382 81.7864 215.775 81.7958 215.01C81.8051 214.497 81.7211 214.058 81.5438 213.694C81.3758 213.321 81.1284 213.036 80.8018 212.84C80.4844 212.635 80.1111 212.532 79.6818 212.532C79.0284 212.532 78.5198 212.756 78.1558 213.204C77.8011 213.643 77.6238 214.245 77.6238 215.01C77.6238 215.775 77.8058 216.382 78.1698 216.83C78.5431 217.269 79.0471 217.488 79.6818 217.488ZM87.9695 219.168C87.2695 219.168 86.6629 219.009 86.1495 218.692C85.6455 218.375 85.2535 217.927 84.9735 217.348C84.7029 216.76 84.5675 216.074 84.5675 215.29C84.5675 214.506 84.7029 213.825 84.9735 213.246C85.2535 212.667 85.6409 212.219 86.1355 211.902C86.6395 211.575 87.2322 211.412 87.9135 211.412C88.5575 211.412 89.1269 211.566 89.6215 211.874C90.1162 212.173 90.4989 212.611 90.7695 213.19C91.0495 213.769 91.1895 214.473 91.1895 215.304V215.654H85.7995C85.8462 216.447 86.0562 217.045 86.4295 217.446C86.8122 217.847 87.3255 218.048 87.9695 218.048C88.4549 218.048 88.8515 217.936 89.1595 217.712C89.4769 217.479 89.6962 217.175 89.8175 216.802L91.0775 216.9C90.8815 217.563 90.5082 218.109 89.9575 218.538C89.4162 218.958 88.7535 219.168 87.9695 219.168ZM85.7995 214.618H89.9015C89.8455 213.899 89.6355 213.372 89.2715 213.036C88.9169 212.7 88.4642 212.532 87.9135 212.532C87.3442 212.532 86.8729 212.709 86.4995 213.064C86.1355 213.409 85.9022 213.927 85.7995 214.618ZM95.2114 219C94.5394 219 94.04 218.846 93.7134 218.538C93.396 218.23 93.2374 217.749 93.2374 217.096V209.844H94.4134V217.068C94.4134 217.404 94.488 217.637 94.6374 217.768C94.7867 217.899 95.0154 217.964 95.3234 217.964H96.3874V219H95.2114ZM92.1454 212.616V211.58H96.3874V212.616H92.1454ZM100.657 219.168C99.957 219.168 99.3504 219.009 98.837 218.692C98.333 218.375 97.941 217.927 97.661 217.348C97.3904 216.76 97.255 216.074 97.255 215.29C97.255 214.506 97.3904 213.825 97.661 213.246C97.941 212.667 98.3284 212.219 98.823 211.902C99.327 211.575 99.9197 211.412 100.601 211.412C101.245 211.412 101.814 211.566 102.309 211.874C102.804 212.173 103.186 212.611 103.457 213.19C103.737 213.769 103.877 214.473 103.877 215.304V215.654H98.487C98.5337 216.447 98.7437 217.045 99.117 217.446C99.4997 217.847 100.013 218.048 100.657 218.048C101.142 218.048 101.539 217.936 101.847 217.712C102.164 217.479 102.384 217.175 102.505 216.802L103.765 216.9C103.569 217.563 103.196 218.109 102.645 218.538C102.104 218.958 101.441 219.168 100.657 219.168ZM98.487 214.618H102.589C102.533 213.899 102.323 213.372 101.959 213.036C101.604 212.7 101.152 212.532 100.601 212.532C100.032 212.532 99.5604 212.709 99.187 213.064C98.823 213.409 98.5897 213.927 98.487 214.618ZM108.102 219.168C107.458 219.168 106.898 219.009 106.422 218.692C105.955 218.375 105.596 217.927 105.344 217.348C105.092 216.769 104.966 216.083 104.966 215.29C104.966 214.497 105.092 213.811 105.344 213.232C105.596 212.653 105.955 212.205 106.422 211.888C106.898 211.571 107.458 211.412 108.102 211.412C108.597 211.412 109.049 211.519 109.46 211.734C109.871 211.939 110.179 212.233 110.384 212.616V209.06H111.56V219H110.496L110.454 217.88C110.249 218.281 109.936 218.599 109.516 218.832C109.096 219.056 108.625 219.168 108.102 219.168ZM108.34 218.048C108.779 218.048 109.147 217.936 109.446 217.712C109.754 217.488 109.987 217.171 110.146 216.76C110.305 216.34 110.384 215.85 110.384 215.29C110.384 214.711 110.305 214.217 110.146 213.806C109.987 213.395 109.754 213.083 109.446 212.868C109.147 212.644 108.779 212.532 108.34 212.532C107.687 212.532 107.164 212.779 106.772 213.274C106.389 213.759 106.198 214.431 106.198 215.29C106.198 216.139 106.389 216.811 106.772 217.306C107.164 217.801 107.687 218.048 108.34 218.048Z" fill="#737373"/>
<path d="M55.7974 255.8V238H57.3174V255.8H55.7974ZM56.7174 254.28C55.6108 254.28 54.6508 254.08 53.8374 253.68C53.0241 253.267 52.3774 252.7 51.8974 251.98C51.4308 251.26 51.1574 250.427 51.0774 249.48L53.2574 249.36C53.3374 250 53.5241 250.547 53.8174 251C54.1108 251.44 54.4974 251.78 54.9774 252.02C55.4708 252.247 56.0641 252.36 56.7574 252.36C57.3574 252.36 57.8708 252.287 58.2974 252.14C58.7241 251.98 59.0441 251.753 59.2574 251.46C59.4841 251.167 59.5974 250.8 59.5974 250.36C59.5974 249.96 59.5041 249.613 59.3174 249.32C59.1308 249.013 58.7708 248.733 58.2374 248.48C57.7041 248.213 56.9241 247.96 55.8974 247.72C54.7908 247.453 53.9041 247.153 53.2374 246.82C52.5708 246.487 52.0908 246.08 51.7974 245.6C51.5174 245.107 51.3774 244.493 51.3774 243.76C51.3774 242.973 51.5708 242.28 51.9574 241.68C52.3441 241.067 52.8908 240.593 53.5974 240.26C54.3174 239.913 55.1774 239.74 56.1774 239.74C57.2441 239.74 58.1508 239.933 58.8974 240.32C59.6574 240.707 60.2574 241.24 60.6974 241.92C61.1374 242.6 61.4108 243.38 61.5174 244.26L59.3374 244.38C59.2708 243.86 59.1041 243.393 58.8374 242.98C58.5841 242.567 58.2308 242.247 57.7774 242.02C57.3241 241.78 56.7774 241.66 56.1374 241.66C55.3374 241.66 54.7041 241.847 54.2374 242.22C53.7708 242.593 53.5374 243.087 53.5374 243.7C53.5374 244.1 53.6308 244.433 53.8174 244.7C54.0174 244.967 54.3574 245.2 54.8374 245.4C55.3308 245.6 56.0308 245.807 56.9374 246.02C58.1374 246.3 59.0908 246.64 59.7974 247.04C60.5041 247.427 61.0108 247.887 61.3174 248.42C61.6241 248.953 61.7774 249.56 61.7774 250.24C61.7774 251.067 61.5641 251.787 61.1374 252.4C60.7108 253 60.1174 253.467 59.3574 253.8C58.5974 254.12 57.7174 254.28 56.7174 254.28ZM69.029 254.32C67.389 254.32 66.1223 253.94 65.229 253.18C64.349 252.42 63.8757 251.42 63.809 250.18L66.029 250.06C66.109 250.873 66.4157 251.46 66.949 251.82C67.4957 252.167 68.189 252.34 69.029 252.34C69.589 252.34 70.1023 252.267 70.569 252.12C71.049 251.96 71.429 251.707 71.709 251.36C72.0023 251 72.149 250.533 72.149 249.96C72.149 249.107 71.8623 248.48 71.289 248.08C70.7157 247.667 69.9557 247.46 69.009 247.46H67.829V245.58H69.009C69.769 245.58 70.4023 245.427 70.909 245.12C71.4157 244.813 71.669 244.28 71.669 243.52C71.669 242.853 71.4557 242.347 71.029 242C70.6023 241.64 69.949 241.46 69.069 241.46C68.2157 241.46 67.569 241.627 67.129 241.96C66.689 242.293 66.429 242.747 66.349 243.32L64.129 243.2C64.2623 242.08 64.749 241.18 65.589 240.5C66.4423 239.82 67.6023 239.48 69.069 239.48C70.0823 239.48 70.949 239.64 71.669 239.96C72.389 240.267 72.9423 240.713 73.329 241.3C73.7157 241.887 73.909 242.573 73.909 243.36C73.909 244.227 73.629 244.933 73.069 245.48C72.5223 246.027 71.7157 246.4 70.649 246.6V246.24C71.809 246.387 72.7223 246.8 73.389 247.48C74.0557 248.147 74.389 249 74.389 250.04C74.389 250.933 74.1623 251.707 73.709 252.36C73.2557 253 72.629 253.487 71.829 253.82C71.029 254.153 70.0957 254.32 69.029 254.32ZM76.289 257.14L77.289 254H76.189V251.48H78.769V253.7L77.509 257.14H76.289ZM85.8668 254.32C84.7868 254.32 83.8335 254.16 83.0068 253.84C82.1801 253.52 81.5335 253.047 81.0668 252.42C80.6135 251.793 80.3868 251.027 80.3868 250.12C80.3868 249.08 80.7001 248.22 81.3268 247.54C81.9535 246.86 82.7935 246.407 83.8468 246.18L83.8868 246.58C83.0335 246.38 82.3468 246.013 81.8268 245.48C81.3201 244.947 81.0668 244.247 81.0668 243.38C81.0668 242.62 81.2601 241.947 81.6468 241.36C82.0335 240.773 82.5801 240.313 83.2868 239.98C84.0068 239.647 84.8668 239.48 85.8668 239.48C86.8535 239.48 87.7068 239.647 88.4268 239.98C89.1468 240.313 89.6935 240.773 90.0668 241.36C90.4535 241.947 90.6468 242.62 90.6468 243.38C90.6468 244.247 90.3935 244.947 89.8868 245.48C89.3801 246 88.6935 246.367 87.8268 246.58L87.8668 246.18C88.9335 246.407 89.7801 246.86 90.4068 247.54C91.0335 248.22 91.3468 249.08 91.3468 250.12C91.3468 251.027 91.1135 251.793 90.6468 252.42C90.1935 253.047 89.5535 253.52 88.7268 253.84C87.9001 254.16 86.9468 254.32 85.8668 254.32ZM85.8668 252.34C86.8535 252.34 87.6335 252.14 88.2068 251.74C88.7935 251.327 89.0868 250.713 89.0868 249.9C89.0868 249.127 88.8201 248.507 88.2868 248.04C87.7668 247.573 86.9601 247.34 85.8668 247.34C84.7735 247.34 83.9601 247.573 83.4268 248.04C82.8935 248.507 82.6268 249.127 82.6268 249.9C82.6268 250.713 82.9201 251.327 83.5068 251.74C84.0935 252.14 84.8801 252.34 85.8668 252.34ZM85.8668 245.56C86.6801 245.56 87.3068 245.393 87.7468 245.06C88.2001 244.713 88.4268 244.187 88.4268 243.48C88.4268 242.867 88.2068 242.373 87.7668 242C87.3401 241.627 86.7068 241.44 85.8668 241.44C85.0268 241.44 84.3868 241.627 83.9468 242C83.5068 242.373 83.2868 242.867 83.2868 243.48C83.2868 244.187 83.5135 244.713 83.9668 245.06C84.4201 245.393 85.0535 245.56 85.8668 245.56ZM98.4868 254.32C97.4335 254.32 96.5335 254.153 95.7868 253.82C95.0401 253.473 94.4535 252.993 94.0268 252.38C93.6001 251.767 93.3535 251.06 93.2868 250.26L95.5068 250.12C95.6135 250.867 95.9268 251.427 96.4468 251.8C96.9801 252.16 97.6601 252.34 98.4868 252.34C99.4201 252.34 100.153 252.08 100.687 251.56C101.233 251.04 101.507 250.313 101.507 249.38C101.507 248.767 101.38 248.24 101.127 247.8C100.887 247.347 100.54 247 100.087 246.76C99.6335 246.507 99.0935 246.38 98.4668 246.38C97.8401 246.38 97.2801 246.513 96.7868 246.78C96.2935 247.047 95.9401 247.413 95.7268 247.88H93.4868L94.4468 239.8H102.767V241.78H96.3668L95.7668 246.64L95.4268 246.34C95.6535 245.94 95.9401 245.613 96.2868 245.36C96.6335 245.093 97.0335 244.893 97.4868 244.76C97.9535 244.613 98.4468 244.54 98.9668 244.54C99.9268 244.54 100.76 244.747 101.467 245.16C102.187 245.573 102.747 246.147 103.147 246.88C103.547 247.613 103.747 248.447 103.747 249.38C103.747 250.353 103.527 251.213 103.087 251.96C102.647 252.707 102.033 253.287 101.247 253.7C100.46 254.113 99.5401 254.32 98.4868 254.32ZM111.659 254.32C110.486 254.32 109.466 254.02 108.599 253.42C107.733 252.82 107.066 251.967 106.599 250.86C106.133 249.753 105.899 248.44 105.899 246.92C105.899 245.4 106.133 244.087 106.599 242.98C107.079 241.86 107.746 241 108.599 240.4C109.466 239.787 110.486 239.48 111.659 239.48C112.846 239.48 113.866 239.787 114.719 240.4C115.586 241 116.253 241.853 116.719 242.96C117.199 244.067 117.439 245.387 117.439 246.92C117.439 248.44 117.206 249.753 116.739 250.86C116.273 251.967 115.606 252.82 114.739 253.42C113.873 254.02 112.846 254.32 111.659 254.32ZM111.659 252.34C112.793 252.34 113.666 251.873 114.279 250.94C114.893 250.007 115.199 248.667 115.199 246.92C115.199 245.747 115.059 244.753 114.779 243.94C114.513 243.127 114.113 242.513 113.579 242.1C113.059 241.673 112.419 241.46 111.659 241.46C110.913 241.46 110.273 241.673 109.739 242.1C109.219 242.513 108.819 243.127 108.539 243.94C108.273 244.753 108.139 245.747 108.139 246.92C108.139 248.667 108.446 250.007 109.059 250.94C109.673 251.873 110.539 252.34 111.659 252.34Z" fill="#141414"/>
<g clip-path="url(#clip2_468_28769)">
<rect x="49.9974" y="270" width="216" height="6" rx="3" fill="#141414"/>
<rect x="269.997" y="270" width="48" height="6" rx="3" fill="#F0F0F0"/>
</g>
<path d="M53.9874 300.26V287.8H55.0234V300.26H53.9874ZM54.6174 299.224C53.8708 299.224 53.2174 299.084 52.6574 298.804C52.1068 298.515 51.6681 298.123 51.3414 297.628C51.0148 297.124 50.8234 296.545 50.7674 295.892L51.9994 295.808C52.0648 296.293 52.2048 296.704 52.4194 297.04C52.6434 297.376 52.9374 297.633 53.3014 297.81C53.6748 297.978 54.1228 298.062 54.6454 298.062C55.1028 298.062 55.4901 298.006 55.8074 297.894C56.1341 297.773 56.3814 297.6 56.5494 297.376C56.7174 297.143 56.8014 296.863 56.8014 296.536C56.8014 296.228 56.7314 295.957 56.5914 295.724C56.4514 295.491 56.1808 295.276 55.7794 295.08C55.3781 294.884 54.7901 294.693 54.0154 294.506C53.2688 294.31 52.6714 294.1 52.2234 293.876C51.7754 293.643 51.4534 293.363 51.2574 293.036C51.0708 292.7 50.9774 292.289 50.9774 291.804C50.9774 291.263 51.1081 290.787 51.3694 290.376C51.6308 289.956 51.9994 289.629 52.4754 289.396C52.9608 289.163 53.5394 289.046 54.2114 289.046C54.9208 289.046 55.5321 289.181 56.0454 289.452C56.5588 289.713 56.9648 290.077 57.2634 290.544C57.5714 291.011 57.7628 291.543 57.8374 292.14L56.5914 292.224C56.5448 291.832 56.4234 291.482 56.2274 291.174C56.0314 290.866 55.7608 290.628 55.4154 290.46C55.0794 290.283 54.6688 290.194 54.1834 290.194C53.5768 290.194 53.0961 290.339 52.7414 290.628C52.3868 290.917 52.2094 291.295 52.2094 291.762C52.2094 292.061 52.2794 292.313 52.4194 292.518C52.5594 292.714 52.8114 292.887 53.1754 293.036C53.5488 293.185 54.0761 293.344 54.7574 293.512C55.5694 293.717 56.2134 293.96 56.6894 294.24C57.1748 294.511 57.5201 294.833 57.7254 295.206C57.9308 295.57 58.0334 295.985 58.0334 296.452C58.0334 297.012 57.8841 297.502 57.5854 297.922C57.2961 298.333 56.8948 298.655 56.3814 298.888C55.8681 299.112 55.2801 299.224 54.6174 299.224ZM63.0161 299.224C61.9148 299.224 61.0655 298.967 60.4681 298.454C59.8708 297.931 59.5488 297.259 59.5021 296.438L60.7481 296.354C60.8041 296.961 61.0375 297.395 61.4481 297.656C61.8681 297.917 62.3908 298.048 63.0161 298.048C63.4455 298.048 63.8421 297.992 64.2061 297.88C64.5701 297.759 64.8641 297.567 65.0881 297.306C65.3121 297.035 65.4241 296.676 65.4241 296.228C65.4241 295.565 65.2048 295.08 64.7661 294.772C64.3275 294.464 63.7488 294.31 63.0301 294.31H62.2461V293.134H63.0301C63.6181 293.134 64.1035 293.017 64.4861 292.784C64.8781 292.551 65.0741 292.149 65.0741 291.58C65.0741 291.067 64.9061 290.679 64.5701 290.418C64.2435 290.147 63.7488 290.012 63.0861 290.012C62.4328 290.012 61.9381 290.138 61.6021 290.39C61.2755 290.642 61.0795 290.987 61.0141 291.426L59.7541 291.342C59.8475 290.595 60.1788 289.993 60.7481 289.536C61.3175 289.069 62.0968 288.836 63.0861 288.836C63.7581 288.836 64.3368 288.948 64.8221 289.172C65.3075 289.387 65.6808 289.695 65.9421 290.096C66.2035 290.497 66.3341 290.973 66.3341 291.524C66.3341 292.14 66.1381 292.639 65.7461 293.022C65.3635 293.395 64.7941 293.652 64.0381 293.792V293.54C64.8501 293.633 65.4941 293.923 65.9701 294.408C66.4461 294.893 66.6841 295.5 66.6841 296.228C66.6841 296.863 66.5255 297.404 66.2081 297.852C65.9001 298.3 65.4708 298.641 64.9201 298.874C64.3695 299.107 63.7348 299.224 63.0161 299.224ZM68.0461 301.184L68.7181 299H68.0041V297.418H69.5861V298.804L68.7461 301.184H68.0461ZM74.565 299.224C73.7624 299.224 73.067 299.014 72.479 298.594C71.891 298.174 71.4337 297.577 71.107 296.802C70.7897 296.027 70.631 295.108 70.631 294.044C70.631 292.98 70.7897 292.061 71.107 291.286C71.4337 290.502 71.891 289.9 72.479 289.48C73.067 289.051 73.7624 288.836 74.565 288.836C75.377 288.836 76.077 289.051 76.665 289.48C77.253 289.9 77.7057 290.497 78.023 291.272C78.3497 292.047 78.513 292.971 78.513 294.044C78.513 295.108 78.3497 296.027 78.023 296.802C77.7057 297.577 77.253 298.174 76.665 298.594C76.077 299.014 75.377 299.224 74.565 299.224ZM74.565 298.048C75.4237 298.048 76.0864 297.703 76.553 297.012C77.0197 296.312 77.253 295.323 77.253 294.044C77.253 293.185 77.1457 292.457 76.931 291.86C76.7257 291.253 76.4224 290.796 76.021 290.488C75.629 290.171 75.1437 290.012 74.565 290.012C73.9957 290.012 73.5104 290.171 73.109 290.488C72.717 290.796 72.4137 291.253 72.199 291.86C71.9937 292.457 71.891 293.185 71.891 294.044C71.891 295.323 72.1244 296.312 72.591 297.012C73.0577 297.703 73.7157 298.048 74.565 298.048ZM81.8462 299V291.636H79.7742V290.6H80.6142C80.9782 290.6 81.2676 290.553 81.4822 290.46C81.7062 290.367 81.8649 290.208 81.9582 289.984C82.0516 289.76 82.0982 289.452 82.0982 289.06H83.0502V299H81.8462ZM89.7878 299V296.844H84.7338V295.752L89.7038 289.06H90.9918V295.668H92.2238V296.844H90.9918V299H89.7878ZM86.1898 295.668H89.7878V290.908L86.1898 295.668ZM93.5431 299V297.418H95.1251V299H93.5431ZM99.7755 299.224C98.9542 299.224 98.2822 299.023 97.7595 298.622C97.2462 298.211 96.8962 297.698 96.7095 297.082L97.9835 296.984C98.0955 297.32 98.3009 297.581 98.5995 297.768C98.8982 297.955 99.2902 298.048 99.7755 298.048C100.606 298.048 101.241 297.717 101.68 297.054C102.128 296.382 102.356 295.304 102.366 293.82L102.66 293.876C102.426 294.501 102.067 294.987 101.582 295.332C101.096 295.668 100.532 295.836 99.8875 295.836C99.2435 295.836 98.6742 295.691 98.1795 295.402C97.6849 295.113 97.2929 294.707 97.0035 294.184C96.7235 293.661 96.5835 293.055 96.5835 292.364C96.5835 291.636 96.7329 291.011 97.0315 290.488C97.3302 289.956 97.7362 289.55 98.2495 289.27C98.7722 288.981 99.3695 288.836 100.042 288.836C100.872 288.836 101.549 289.027 102.072 289.41C102.604 289.793 102.996 290.329 103.248 291.02C103.5 291.701 103.626 292.509 103.626 293.442C103.626 294.273 103.56 295.043 103.43 295.752C103.299 296.452 103.084 297.063 102.786 297.586C102.487 298.099 102.09 298.501 101.596 298.79C101.11 299.079 100.504 299.224 99.7755 299.224ZM99.9715 294.646C100.429 294.646 100.83 294.557 101.176 294.38C101.521 294.203 101.792 293.946 101.988 293.61C102.193 293.274 102.296 292.868 102.296 292.392C102.296 291.935 102.202 291.529 102.016 291.174C101.838 290.81 101.582 290.525 101.246 290.32C100.91 290.115 100.508 290.012 100.042 290.012C99.5842 290.012 99.1922 290.115 98.8655 290.32C98.5389 290.516 98.2869 290.791 98.1095 291.146C97.9322 291.501 97.8435 291.907 97.8435 292.364C97.8435 292.831 97.9322 293.237 98.1095 293.582C98.2962 293.918 98.5482 294.179 98.8655 294.366C99.1829 294.553 99.5515 294.646 99.9715 294.646ZM108.512 299.224C107.691 299.224 107.019 299.023 106.496 298.622C105.983 298.211 105.633 297.698 105.446 297.082L106.72 296.984C106.832 297.32 107.037 297.581 107.336 297.768C107.635 297.955 108.027 298.048 108.512 298.048C109.343 298.048 109.977 297.717 110.416 297.054C110.864 296.382 111.093 295.304 111.102 293.82L111.396 293.876C111.163 294.501 110.803 294.987 110.318 295.332C109.833 295.668 109.268 295.836 108.624 295.836C107.98 295.836 107.411 295.691 106.916 295.402C106.421 295.113 106.029 294.707 105.74 294.184C105.46 293.661 105.32 293.055 105.32 292.364C105.32 291.636 105.469 291.011 105.768 290.488C106.067 289.956 106.473 289.55 106.986 289.27C107.509 288.981 108.106 288.836 108.778 288.836C109.609 288.836 110.285 289.027 110.808 289.41C111.34 289.793 111.732 290.329 111.984 291.02C112.236 291.701 112.362 292.509 112.362 293.442C112.362 294.273 112.297 295.043 112.166 295.752C112.035 296.452 111.821 297.063 111.522 297.586C111.223 298.099 110.827 298.501 110.332 298.79C109.847 299.079 109.24 299.224 108.512 299.224ZM108.708 294.646C109.165 294.646 109.567 294.557 109.912 294.38C110.257 294.203 110.528 293.946 110.724 293.61C110.929 293.274 111.032 292.868 111.032 292.392C111.032 291.935 110.939 291.529 110.752 291.174C110.575 290.81 110.318 290.525 109.982 290.32C109.646 290.115 109.245 290.012 108.778 290.012C108.321 290.012 107.929 290.115 107.602 290.32C107.275 290.516 107.023 290.791 106.846 291.146C106.669 291.501 106.58 291.907 106.58 292.364C106.58 292.831 106.669 293.237 106.846 293.582C107.033 293.918 107.285 294.179 107.602 294.366C107.919 294.553 108.288 294.646 108.708 294.646ZM120.538 299.168C119.876 299.168 119.311 299.061 118.844 298.846C118.387 298.631 118.028 298.337 117.766 297.964C117.514 297.581 117.37 297.147 117.332 296.662L118.564 296.578C118.639 297.026 118.83 297.385 119.138 297.656C119.446 297.917 119.913 298.048 120.538 298.048C121.042 298.048 121.444 297.969 121.742 297.81C122.05 297.642 122.204 297.376 122.204 297.012C122.204 296.816 122.158 296.653 122.064 296.522C121.971 296.391 121.789 296.279 121.518 296.186C121.248 296.083 120.846 295.985 120.314 295.892C119.605 295.761 119.045 295.603 118.634 295.416C118.233 295.22 117.944 294.982 117.766 294.702C117.598 294.413 117.514 294.072 117.514 293.68C117.514 293.017 117.757 292.476 118.242 292.056C118.728 291.627 119.418 291.412 120.314 291.412C120.921 291.412 121.43 291.524 121.84 291.748C122.26 291.963 122.587 292.252 122.82 292.616C123.063 292.971 123.222 293.363 123.296 293.792L122.064 293.876C122.008 293.615 121.906 293.386 121.756 293.19C121.607 292.985 121.411 292.826 121.168 292.714C120.926 292.593 120.636 292.532 120.3 292.532C119.768 292.532 119.376 292.635 119.124 292.84C118.872 293.045 118.746 293.307 118.746 293.624C118.746 293.867 118.802 294.067 118.914 294.226C119.036 294.375 119.227 294.501 119.488 294.604C119.75 294.697 120.1 294.781 120.538 294.856C121.294 294.987 121.882 295.145 122.302 295.332C122.722 295.519 123.016 295.747 123.184 296.018C123.352 296.289 123.436 296.62 123.436 297.012C123.436 297.469 123.306 297.861 123.044 298.188C122.792 298.505 122.447 298.748 122.008 298.916C121.579 299.084 121.089 299.168 120.538 299.168ZM125.041 301.1V291.58H126.133L126.161 293.176L125.993 293.092C126.18 292.541 126.488 292.126 126.917 291.846C127.356 291.557 127.86 291.412 128.429 291.412C129.167 291.412 129.769 291.594 130.235 291.958C130.711 292.322 131.061 292.798 131.285 293.386C131.519 293.974 131.635 294.609 131.635 295.29C131.635 295.971 131.519 296.606 131.285 297.194C131.061 297.782 130.711 298.258 130.235 298.622C129.769 298.986 129.167 299.168 128.429 299.168C128.047 299.168 127.687 299.103 127.351 298.972C127.025 298.841 126.745 298.659 126.511 298.426C126.287 298.193 126.133 297.917 126.049 297.6L126.217 297.404V301.1H125.041ZM128.317 298.048C128.961 298.048 129.47 297.805 129.843 297.32C130.217 296.835 130.403 296.158 130.403 295.29C130.403 294.422 130.217 293.745 129.843 293.26C129.47 292.775 128.961 292.532 128.317 292.532C127.888 292.532 127.515 292.635 127.197 292.84C126.889 293.045 126.647 293.353 126.469 293.764C126.301 294.175 126.217 294.683 126.217 295.29C126.217 295.897 126.301 296.405 126.469 296.816C126.637 297.227 126.88 297.535 127.197 297.74C127.515 297.945 127.888 298.048 128.317 298.048ZM136.129 299.168C135.429 299.168 134.822 299.009 134.309 298.692C133.805 298.375 133.413 297.927 133.133 297.348C132.862 296.76 132.727 296.074 132.727 295.29C132.727 294.506 132.862 293.825 133.133 293.246C133.413 292.667 133.8 292.219 134.295 291.902C134.799 291.575 135.391 291.412 136.073 291.412C136.717 291.412 137.286 291.566 137.781 291.874C138.275 292.173 138.658 292.611 138.929 293.19C139.209 293.769 139.349 294.473 139.349 295.304V295.654H133.959C134.005 296.447 134.215 297.045 134.589 297.446C134.971 297.847 135.485 298.048 136.129 298.048C136.614 298.048 137.011 297.936 137.319 297.712C137.636 297.479 137.855 297.175 137.977 296.802L139.237 296.9C139.041 297.563 138.667 298.109 138.117 298.538C137.575 298.958 136.913 299.168 136.129 299.168ZM133.959 294.618H138.061C138.005 293.899 137.795 293.372 137.431 293.036C137.076 292.7 136.623 292.532 136.073 292.532C135.503 292.532 135.032 292.709 134.659 293.064C134.295 293.409 134.061 293.927 133.959 294.618ZM140.942 299V291.58H142.02L142.062 293.47L141.922 293.344C142.015 292.905 142.178 292.546 142.412 292.266C142.645 291.977 142.925 291.762 143.252 291.622C143.588 291.482 143.947 291.412 144.33 291.412C144.899 291.412 145.366 291.538 145.73 291.79C146.103 292.042 146.378 292.383 146.556 292.812C146.742 293.232 146.836 293.703 146.836 294.226V299H145.66V294.562C145.66 294.105 145.604 293.722 145.492 293.414C145.389 293.097 145.221 292.859 144.988 292.7C144.754 292.532 144.451 292.448 144.078 292.448C143.508 292.448 143.037 292.63 142.664 292.994C142.3 293.349 142.118 293.871 142.118 294.562V299H140.942ZM151.232 299C150.56 299 150.061 298.846 149.734 298.538C149.417 298.23 149.258 297.749 149.258 297.096V289.844H150.434V297.068C150.434 297.404 150.509 297.637 150.658 297.768C150.807 297.899 151.036 297.964 151.344 297.964H152.408V299H151.232ZM148.166 292.616V291.58H152.408V292.616H148.166Z" fill="#737373"/>
<path d="M242.057 300.26V287.8H243.121V300.26H242.057ZM242.701 299.196C241.927 299.196 241.255 299.056 240.685 298.776C240.116 298.487 239.663 298.09 239.327 297.586C239.001 297.082 238.809 296.499 238.753 295.836L240.279 295.752C240.335 296.2 240.466 296.583 240.671 296.9C240.877 297.208 241.147 297.446 241.483 297.614C241.829 297.773 242.244 297.852 242.729 297.852C243.149 297.852 243.509 297.801 243.807 297.698C244.106 297.586 244.33 297.427 244.479 297.222C244.638 297.017 244.717 296.76 244.717 296.452C244.717 296.172 244.652 295.929 244.521 295.724C244.391 295.509 244.139 295.313 243.765 295.136C243.392 294.949 242.846 294.772 242.127 294.604C241.353 294.417 240.732 294.207 240.265 293.974C239.799 293.741 239.463 293.456 239.257 293.12C239.061 292.775 238.963 292.345 238.963 291.832C238.963 291.281 239.099 290.796 239.369 290.376C239.64 289.947 240.023 289.615 240.517 289.382C241.021 289.139 241.623 289.018 242.323 289.018C243.07 289.018 243.705 289.153 244.227 289.424C244.759 289.695 245.179 290.068 245.487 290.544C245.795 291.02 245.987 291.566 246.061 292.182L244.535 292.266C244.489 291.902 244.372 291.575 244.185 291.286C244.008 290.997 243.761 290.773 243.443 290.614C243.126 290.446 242.743 290.362 242.295 290.362C241.735 290.362 241.292 290.493 240.965 290.754C240.639 291.015 240.475 291.361 240.475 291.79C240.475 292.07 240.541 292.303 240.671 292.49C240.811 292.677 241.049 292.84 241.385 292.98C241.731 293.12 242.221 293.265 242.855 293.414C243.695 293.61 244.363 293.848 244.857 294.128C245.352 294.399 245.707 294.721 245.921 295.094C246.136 295.467 246.243 295.892 246.243 296.368C246.243 296.947 246.094 297.451 245.795 297.88C245.497 298.3 245.081 298.627 244.549 298.86C244.017 299.084 243.401 299.196 242.701 299.196ZM251.376 299.224C250.62 299.224 249.952 299.112 249.374 298.888C248.795 298.664 248.342 298.333 248.016 297.894C247.698 297.455 247.54 296.919 247.54 296.284C247.54 295.556 247.759 294.954 248.198 294.478C248.636 294.002 249.224 293.685 249.962 293.526L249.99 293.806C249.392 293.666 248.912 293.409 248.548 293.036C248.193 292.663 248.016 292.173 248.016 291.566C248.016 291.034 248.151 290.563 248.422 290.152C248.692 289.741 249.075 289.419 249.57 289.186C250.074 288.953 250.676 288.836 251.376 288.836C252.066 288.836 252.664 288.953 253.168 289.186C253.672 289.419 254.054 289.741 254.316 290.152C254.586 290.563 254.722 291.034 254.722 291.566C254.722 292.173 254.544 292.663 254.19 293.036C253.835 293.4 253.354 293.657 252.748 293.806L252.776 293.526C253.522 293.685 254.115 294.002 254.554 294.478C254.992 294.954 255.212 295.556 255.212 296.284C255.212 296.919 255.048 297.455 254.722 297.894C254.404 298.333 253.956 298.664 253.378 298.888C252.799 299.112 252.132 299.224 251.376 299.224ZM251.376 297.838C252.066 297.838 252.612 297.698 253.014 297.418C253.424 297.129 253.63 296.699 253.63 296.13C253.63 295.589 253.443 295.155 253.07 294.828C252.706 294.501 252.141 294.338 251.376 294.338C250.61 294.338 250.041 294.501 249.668 294.828C249.294 295.155 249.108 295.589 249.108 296.13C249.108 296.699 249.313 297.129 249.724 297.418C250.134 297.698 250.685 297.838 251.376 297.838ZM251.376 293.092C251.945 293.092 252.384 292.975 252.692 292.742C253.009 292.499 253.168 292.131 253.168 291.636C253.168 291.207 253.014 290.861 252.706 290.6C252.407 290.339 251.964 290.208 251.376 290.208C250.788 290.208 250.34 290.339 250.032 290.6C249.724 290.861 249.57 291.207 249.57 291.636C249.57 292.131 249.728 292.499 250.046 292.742C250.363 292.975 250.806 293.092 251.376 293.092ZM260.07 299.224C258.922 299.224 258.035 298.958 257.41 298.426C256.794 297.894 256.462 297.194 256.416 296.326L257.97 296.242C258.026 296.811 258.24 297.222 258.614 297.474C258.996 297.717 259.482 297.838 260.07 297.838C260.462 297.838 260.821 297.787 261.148 297.684C261.484 297.572 261.75 297.395 261.946 297.152C262.151 296.9 262.254 296.573 262.254 296.172C262.254 295.575 262.053 295.136 261.652 294.856C261.25 294.567 260.718 294.422 260.056 294.422H259.23V293.106H260.056C260.588 293.106 261.031 292.999 261.386 292.784C261.74 292.569 261.918 292.196 261.918 291.664C261.918 291.197 261.768 290.843 261.47 290.6C261.171 290.348 260.714 290.222 260.098 290.222C259.5 290.222 259.048 290.339 258.74 290.572C258.432 290.805 258.25 291.123 258.194 291.524L256.64 291.44C256.733 290.656 257.074 290.026 257.662 289.55C258.259 289.074 259.071 288.836 260.098 288.836C260.807 288.836 261.414 288.948 261.918 289.172C262.422 289.387 262.809 289.699 263.08 290.11C263.35 290.521 263.486 291.001 263.486 291.552C263.486 292.159 263.29 292.653 262.898 293.036C262.515 293.419 261.95 293.68 261.204 293.82V293.568C262.016 293.671 262.655 293.96 263.122 294.436C263.588 294.903 263.822 295.5 263.822 296.228C263.822 296.853 263.663 297.395 263.346 297.852C263.028 298.3 262.59 298.641 262.03 298.874C261.47 299.107 260.816 299.224 260.07 299.224ZM268.96 299.224C268.222 299.224 267.592 299.107 267.07 298.874C266.547 298.631 266.136 298.295 265.838 297.866C265.539 297.437 265.366 296.942 265.32 296.382L266.874 296.284C266.948 296.807 267.168 297.199 267.532 297.46C267.905 297.712 268.381 297.838 268.96 297.838C269.613 297.838 270.126 297.656 270.5 297.292C270.882 296.928 271.074 296.419 271.074 295.766C271.074 295.337 270.985 294.968 270.808 294.66C270.64 294.343 270.397 294.1 270.08 293.932C269.762 293.755 269.384 293.666 268.946 293.666C268.507 293.666 268.115 293.759 267.77 293.946C267.424 294.133 267.177 294.389 267.028 294.716H265.46L266.132 289.06H271.956V290.446H267.476L267.056 293.848L266.818 293.638C266.976 293.358 267.177 293.129 267.42 292.952C267.662 292.765 267.942 292.625 268.26 292.532C268.586 292.429 268.932 292.378 269.296 292.378C269.968 292.378 270.551 292.523 271.046 292.812C271.55 293.101 271.942 293.503 272.222 294.016C272.502 294.529 272.642 295.113 272.642 295.766C272.642 296.447 272.488 297.049 272.18 297.572C271.872 298.095 271.442 298.501 270.892 298.79C270.341 299.079 269.697 299.224 268.96 299.224ZM274.05 299V297.236H275.856V299H274.05ZM280.887 299.224C280.066 299.224 279.352 299.014 278.745 298.594C278.139 298.174 277.672 297.577 277.345 296.802C277.019 296.027 276.855 295.108 276.855 294.044C276.855 292.98 277.019 292.061 277.345 291.286C277.681 290.502 278.148 289.9 278.745 289.48C279.352 289.051 280.066 288.836 280.887 288.836C281.718 288.836 282.432 289.051 283.029 289.48C283.636 289.9 284.103 290.497 284.429 291.272C284.765 292.047 284.933 292.971 284.933 294.044C284.933 295.108 284.77 296.027 284.443 296.802C284.117 297.577 283.65 298.174 283.043 298.594C282.437 299.014 281.718 299.224 280.887 299.224ZM280.887 297.838C281.681 297.838 282.292 297.511 282.721 296.858C283.151 296.205 283.365 295.267 283.365 294.044C283.365 293.223 283.267 292.527 283.071 291.958C282.885 291.389 282.605 290.959 282.231 290.67C281.867 290.371 281.419 290.222 280.887 290.222C280.365 290.222 279.917 290.371 279.543 290.67C279.179 290.959 278.899 291.389 278.703 291.958C278.517 292.527 278.423 293.223 278.423 294.044C278.423 295.267 278.638 296.205 279.067 296.858C279.497 297.511 280.103 297.838 280.887 297.838ZM288.263 299V291.916H286.163V290.698H287.017C287.39 290.698 287.693 290.651 287.927 290.558C288.16 290.455 288.328 290.287 288.431 290.054C288.533 289.811 288.585 289.48 288.585 289.06H289.775V299H288.263ZM297.382 299C296.897 299 296.505 298.874 296.206 298.622C295.908 298.37 295.758 297.969 295.758 297.418V289.06H297.242V297.278C297.242 297.446 297.284 297.572 297.368 297.656C297.462 297.74 297.592 297.782 297.76 297.782H298.348V299H297.382ZM302.68 299.168C301.952 299.168 301.322 299.009 300.79 298.692C300.267 298.375 299.861 297.922 299.572 297.334C299.292 296.746 299.152 296.06 299.152 295.276C299.152 294.492 299.292 293.811 299.572 293.232C299.861 292.644 300.267 292.191 300.79 291.874C301.313 291.547 301.929 291.384 302.638 291.384C303.31 291.384 303.903 291.543 304.416 291.86C304.929 292.168 305.326 292.616 305.606 293.204C305.895 293.792 306.04 294.501 306.04 295.332V295.71H300.692C300.729 296.438 300.921 296.984 301.266 297.348C301.621 297.712 302.097 297.894 302.694 297.894C303.133 297.894 303.497 297.791 303.786 297.586C304.075 297.381 304.276 297.105 304.388 296.76L305.928 296.858C305.732 297.549 305.345 298.109 304.766 298.538C304.197 298.958 303.501 299.168 302.68 299.168ZM300.692 294.59H304.472C304.425 293.927 304.234 293.437 303.898 293.12C303.571 292.803 303.151 292.644 302.638 292.644C302.106 292.644 301.667 292.812 301.322 293.148C300.986 293.475 300.776 293.955 300.692 294.59ZM308.012 299V291.076C308.012 290.46 308.185 289.97 308.53 289.606C308.876 289.242 309.417 289.06 310.154 289.06H311.47V290.278H310.35C310.061 290.278 309.846 290.357 309.706 290.516C309.566 290.665 309.496 290.88 309.496 291.16V299H308.012ZM306.976 292.854V291.65H311.358V292.854H306.976ZM315.376 299C314.667 299 314.144 298.837 313.808 298.51C313.472 298.183 313.304 297.675 313.304 296.984V289.802H314.788V296.872C314.788 297.217 314.863 297.455 315.012 297.586C315.161 297.717 315.39 297.782 315.698 297.782H316.762V299H315.376ZM312.17 292.77V291.552H316.762V292.77H312.17Z" fill="#141414"/>
</g>
</g>
<defs>
<filter id="filter0_dd_468_28769" x="27.9974" y="51" width="312" height="276" filterUnits="userSpaceOnUse" color-interpolation-filters="sRGB">
<feFlood flood-opacity="0" result="BackgroundImageFix"/>
<feColorMatrix in="SourceAlpha" type="matrix" values="0 0 0 0 0 0 0 0 0 0 0 0 0 0 0 0 0 0 127 0" result="hardAlpha"/>
<feMorphology radius="1" operator="dilate" in="SourceAlpha" result="effect1_dropShadow_468_28769"/>
<feOffset/>
<feColorMatrix type="matrix" values="0 0 0 0 0.0431373 0 0 0 0 0.0431373 0 0 0 0 0.0431373 0 0 0 0.05 0"/>
<feBlend mode="normal" in2="BackgroundImageFix" result="effect1_dropShadow_468_28769"/>
<feColorMatrix in="SourceAlpha" type="matrix" values="0 0 0 0 0 0 0 0 0 0 0 0 0 0 0 0 0 0 127 0" result="hardAlpha"/>
<feOffset dy="1"/>
<feGaussianBlur stdDeviation="3"/>
<feColorMatrix type="matrix" values="0 0 0 0 0.0431373 0 0 0 0 0.0431373 0 0 0 0 0.0431373 0 0 0 0.06 0"/>
<feBlend mode="normal" in2="effect1_dropShadow_468_28769" result="effect2_dropShadow_468_28769"/>
<feBlend mode="normal" in="SourceGraphic" in2="effect2_dropShadow_468_28769" result="shape"/>
</filter>
<clipPath id="clip0_468_28769">
<path d="M33.9974 68C33.9974 61.3726 39.37 56 45.9974 56H321.997C328.625 56 333.997 61.3726 333.997 68V308C333.997 314.627 328.625 320 321.997 320H45.9974C39.37 320 33.9974 314.627 33.9974 308V68Z" fill="white"/>
</clipPath>
<clipPath id="clip1_468_28769">
<rect width="268" height="6" fill="white" transform="translate(49.9974 138)"/>
</clipPath>
<clipPath id="clip2_468_28769">
<rect width="268" height="6" fill="white" transform="translate(49.9974 270)"/>
</clipPath>
</defs>
</svg>
