<svg width="45" height="45" fill="none" xmlns="http://www.w3.org/2000/svg"><g filter="url(#filter0_d_11_12443)"><path d="M4.364 19.54C3.48 6.874 6.004 3.97 18.668 3.084l4.775-.334c12.664-.885 15.569 1.64 16.454 14.304l.334 4.775c.886 12.664-1.639 15.568-14.303 16.454l-4.776.334c-12.664.886-15.568-1.639-16.454-14.303l-.334-4.776z" fill="#5865F2" filter="url(#filter1_iii_11_12443)"/><path d="M30.478 12.81a20.238 20.238 0 0 0-5.03-1.16.075.075 0 0 0-.077.043c-.187.387-.388.89-.527 1.282a18.76 18.76 0 0 0-5.532.387c-.192-.378-.47-.838-.709-1.196a.078.078 0 0 0-.082-.031 20.186 20.186 0 0 0-4.82 1.847.071.071 0 0 0-.03.03c-2.815 4.83-3.36 9.39-2.628 13.802a.082.082 0 0 0 .036.053 20.245 20.245 0 0 0 6.252 2.583.08.08 0 0 0 .083-.033 14.11 14.11 0 0 0 1.098-2.065.075.075 0 0 0-.05-.102c-.675-.2-1.322-.455-1.949-.753a.076.076 0 0 1-.016-.126c.12-.102.24-.209.354-.315a.076.076 0 0 1 .078-.016c4.084 1.502 8.371 1.202 12.16-.85a.075.075 0 0 1 .08.003c.128.09.262.18.396.264.046.03.048.096.002.127-.578.389-1.184.726-1.826 1.017a.076.076 0 0 0-.034.108 15.84 15.84 0 0 0 1.374 1.891c.02.025.056.034.086.023a20.178 20.178 0 0 0 5.842-3.429.076.076 0 0 0 .028-.057c.145-5.171-1.517-9.538-4.526-13.302a.061.061 0 0 0-.033-.026zM18.84 24.55c-1.192.084-2.25-.924-2.342-2.247-.093-1.323.795-2.467 2.007-2.552 1.22-.085 2.27.933 2.342 2.248.092 1.323-.796 2.467-2.007 2.552zm8.04-.562c-1.192.084-2.25-.925-2.342-2.247-.092-1.323.796-2.467 2.007-2.552 1.22-.085 2.27.933 2.342 2.248.093 1.322-.786 2.466-2.006 2.551z" fill="#FAFAFA" filter="url(#filter2_d_11_12443)"/></g><defs><filter id="filter0_d_11_12443" x="-.711" y="-.085" width="46.424" height="46.423" filterUnits="userSpaceOnUse" color-interpolation-filters="sRGB"><feFlood flood-opacity="0" result="BackgroundImageFix"/><feColorMatrix in="SourceAlpha" values="0 0 0 0 0 0 0 0 0 0 0 0 0 0 0 0 0 0 127 0" result="hardAlpha"/><feOffset dy="2"/><feGaussianBlur stdDeviation="2"/><feComposite in2="hardAlpha" operator="out"/><feColorMatrix values="0 0 0 0 0 0 0 0 0 0 0 0 0 0 0 0 0 0 0.05 0"/><feBlend in2="BackgroundImageFix" result="effect1_dropShadow_11_12443"/><feBlend in="SourceGraphic" in2="effect1_dropShadow_11_12443" result="shape"/></filter><filter id="filter1_iii_11_12443" x="4.205" y=".591" width="36.185" height="40.187" filterUnits="userSpaceOnUse" color-interpolation-filters="sRGB"><feFlood flood-opacity="0" result="BackgroundImageFix"/><feBlend in="SourceGraphic" in2="BackgroundImageFix" result="shape"/><feColorMatrix in="SourceAlpha" values="0 0 0 0 0 0 0 0 0 0 0 0 0 0 0 0 0 0 127 0" result="hardAlpha"/><feOffset dy="-2"/><feGaussianBlur stdDeviation="1"/><feComposite in2="hardAlpha" operator="arithmetic" k2="-1" k3="1"/><feColorMatrix values="0 0 0 0 1 0 0 0 0 1 0 0 0 0 1 0 0 0 0.2 0"/><feBlend in2="shape" result="effect1_innerShadow_11_12443"/><feColorMatrix in="SourceAlpha" values="0 0 0 0 0 0 0 0 0 0 0 0 0 0 0 0 0 0 127 0" result="hardAlpha"/><feOffset dy="-2"/><feGaussianBlur stdDeviation="1"/><feComposite in2="hardAlpha" operator="arithmetic" k2="-1" k3="1"/><feColorMatrix values="0 0 0 0 0.301237 0 0 0 0 0.351275 0 0 0 0 0.886296 0 0 0 1 0"/><feBlend in2="effect1_innerShadow_11_12443" result="effect2_innerShadow_11_12443"/><feColorMatrix in="SourceAlpha" values="0 0 0 0 0 0 0 0 0 0 0 0 0 0 0 0 0 0 127 0" result="hardAlpha"/><feOffset dy="2"/><feGaussianBlur stdDeviation="1"/><feComposite in2="hardAlpha" operator="arithmetic" k2="-1" k3="1"/><feColorMatrix values="0 0 0 0 0 0 0 0 0 0 0 0 0 0 0 0 0 0 0.05 0"/><feBlend in2="effect2_innerShadow_11_12443" result="effect3_innerShadow_11_12443"/></filter><filter id="filter2_d_11_12443" x="3.748" y="6.65" width="38.297" height="32.802" filterUnits="userSpaceOnUse" color-interpolation-filters="sRGB"><feFlood flood-opacity="0" result="BackgroundImageFix"/><feColorMatrix in="SourceAlpha" values="0 0 0 0 0 0 0 0 0 0 0 0 0 0 0 0 0 0 127 0" result="hardAlpha"/><feOffset dy="2"/><feGaussianBlur stdDeviation="3.5"/><feComposite in2="hardAlpha" operator="out"/><feColorMatrix values="0 0 0 0 0 0 0 0 0 0 0 0 0 0 0 0 0 0 0.25 0"/><feBlend in2="BackgroundImageFix" result="effect1_dropShadow_11_12443"/><feBlend in="SourceGraphic" in2="effect1_dropShadow_11_12443" result="shape"/></filter></defs></svg>