<svg fill="none" height="42" width="42" xmlns="http://www.w3.org/2000/svg" xmlns:xlink="http://www.w3.org/1999/xlink"><filter id="a" color-interpolation-filters="sRGB" filterUnits="userSpaceOnUse" height="40.573" width="40.573" x=".925" y=".925"><feFlood flood-opacity="0" result="BackgroundImageFix"/><feColorMatrix in="SourceAlpha" result="hardAlpha" values="0 0 0 0 0 0 0 0 0 0 0 0 0 0 0 0 0 0 127 0"/><feOffset dy="1"/><feGaussianBlur stdDeviation="1"/><feComposite in2="hardAlpha" operator="out"/><feColorMatrix values="0 0 0 0 0 0 0 0 0 0 0 0 0 0 0 0 0 0 0.1 0"/><feBlend in2="BackgroundImageFix" result="effect1_dropShadow_44_15964"/><feBlend in="SourceGraphic" in2="effect1_dropShadow_44_15964" result="shape"/><feColorMatrix in="SourceAlpha" result="hardAlpha" values="0 0 0 0 0 0 0 0 0 0 0 0 0 0 0 0 0 0 127 0"/><feOffset/><feGaussianBlur stdDeviation=".5"/><feComposite in2="hardAlpha" k2="-1" k3="1" operator="arithmetic"/><feColorMatrix values="0 0 0 0 0 0 0 0 0 0 0 0 0 0 0 0 0 0 0.15 0"/><feBlend in2="shape" result="effect2_innerShadow_44_15964"/></filter><filter id="b" color-interpolation-filters="sRGB" filterUnits="userSpaceOnUse" height="38.573" width="36.573" x="2.925" y="1.925"><feFlood flood-opacity="0" result="BackgroundImageFix"/><feBlend in="SourceGraphic" in2="BackgroundImageFix" result="shape"/><feColorMatrix in="SourceAlpha" result="hardAlpha" values="0 0 0 0 0 0 0 0 0 0 0 0 0 0 0 0 0 0 127 0"/><feOffset dy="-2"/><feComposite in2="hardAlpha" k2="-1" k3="1" operator="arithmetic"/><feColorMatrix values="0 0 0 0 0 0 0 0 0 0 0 0 0 0 0 0 0 0 0.05 0"/><feBlend in2="shape" result="effect1_innerShadow_44_15964"/><feColorMatrix in="SourceAlpha" result="hardAlpha" values="0 0 0 0 0 0 0 0 0 0 0 0 0 0 0 0 0 0 127 0"/><feOffset dy="2"/><feGaussianBlur stdDeviation="1.5"/><feComposite in2="hardAlpha" k2="-1" k3="1" operator="arithmetic"/><feColorMatrix values="0 0 0 0 1 0 0 0 0 1 0 0 0 0 1 0 0 0 0.05 0"/><feBlend in2="effect1_innerShadow_44_15964" result="effect2_innerShadow_44_15964"/></filter><filter id="c" color-interpolation-filters="sRGB" filterUnits="userSpaceOnUse" height="13.541" width="14.469" x="7.441" y="8.539"><feFlood flood-opacity="0" result="BackgroundImageFix"/><feColorMatrix in="SourceAlpha" result="hardAlpha" values="0 0 0 0 0 0 0 0 0 0 0 0 0 0 0 0 0 0 127 0"/><feOffset dy="1"/><feGaussianBlur stdDeviation="1"/><feComposite in2="hardAlpha" operator="out"/><feColorMatrix values="0 0 0 0 0 0 0 0 0 0 0 0 0 0 0 0 0 0 0.03 0"/><feBlend in2="BackgroundImageFix" result="effect1_dropShadow_44_15964"/><feBlend in="SourceGraphic" in2="effect1_dropShadow_44_15964" result="shape"/><feColorMatrix in="SourceAlpha" result="hardAlpha" values="0 0 0 0 0 0 0 0 0 0 0 0 0 0 0 0 0 0 127 0"/><feOffset dy="-1"/><feGaussianBlur stdDeviation=".5"/><feComposite in2="hardAlpha" k2="-1" k3="1" operator="arithmetic"/><feColorMatrix values="0 0 0 0 0 0 0 0 0 0 0 0 0 0 0 0 0 0 0.02 0"/><feBlend in2="shape" result="effect2_innerShadow_44_15964"/></filter><filter id="d" color-interpolation-filters="sRGB" filterUnits="userSpaceOnUse" height="7" width="26.948" x="7.18" y="19.496"><feFlood flood-opacity="0" result="BackgroundImageFix"/><feColorMatrix in="SourceAlpha" result="hardAlpha" values="0 0 0 0 0 0 0 0 0 0 0 0 0 0 0 0 0 0 127 0"/><feOffset dy="1"/><feGaussianBlur stdDeviation="1"/><feComposite in2="hardAlpha" operator="out"/><feColorMatrix values="0 0 0 0 0 0 0 0 0 0 0 0 0 0 0 0 0 0 0.03 0"/><feBlend in2="BackgroundImageFix" result="effect1_dropShadow_44_15964"/><feBlend in="SourceGraphic" in2="effect1_dropShadow_44_15964" result="shape"/><feColorMatrix in="SourceAlpha" result="hardAlpha" values="0 0 0 0 0 0 0 0 0 0 0 0 0 0 0 0 0 0 127 0"/><feOffset dy="-1"/><feGaussianBlur stdDeviation=".5"/><feComposite in2="hardAlpha" k2="-1" k3="1" operator="arithmetic"/><feColorMatrix values="0 0 0 0 0 0 0 0 0 0 0 0 0 0 0 0 0 0 0.02 0"/><feBlend in2="shape" result="effect2_innerShadow_44_15964"/></filter><filter id="e" color-interpolation-filters="sRGB" filterUnits="userSpaceOnUse" height="7" width="26.948" x="6.936" y="22.987"><feFlood flood-opacity="0" result="BackgroundImageFix"/><feColorMatrix in="SourceAlpha" result="hardAlpha" values="0 0 0 0 0 0 0 0 0 0 0 0 0 0 0 0 0 0 127 0"/><feOffset dy="1"/><feGaussianBlur stdDeviation="1"/><feComposite in2="hardAlpha" operator="out"/><feColorMatrix values="0 0 0 0 0 0 0 0 0 0 0 0 0 0 0 0 0 0 0.03 0"/><feBlend in2="BackgroundImageFix" result="effect1_dropShadow_44_15964"/><feBlend in="SourceGraphic" in2="effect1_dropShadow_44_15964" result="shape"/><feColorMatrix in="SourceAlpha" result="hardAlpha" values="0 0 0 0 0 0 0 0 0 0 0 0 0 0 0 0 0 0 127 0"/><feOffset dy="-1"/><feGaussianBlur stdDeviation=".5"/><feComposite in2="hardAlpha" k2="-1" k3="1" operator="arithmetic"/><feColorMatrix values="0 0 0 0 0 0 0 0 0 0 0 0 0 0 0 0 0 0 0.02 0"/><feBlend in2="shape" result="effect2_innerShadow_44_15964"/></filter><filter id="f" color-interpolation-filters="sRGB" filterUnits="userSpaceOnUse" height="6.512" width="19.965" x="6.692" y="26.479"><feFlood flood-opacity="0" result="BackgroundImageFix"/><feColorMatrix in="SourceAlpha" result="hardAlpha" values="0 0 0 0 0 0 0 0 0 0 0 0 0 0 0 0 0 0 127 0"/><feOffset dy="1"/><feGaussianBlur stdDeviation="1"/><feComposite in2="hardAlpha" operator="out"/><feColorMatrix values="0 0 0 0 0 0 0 0 0 0 0 0 0 0 0 0 0 0 0.03 0"/><feBlend in2="BackgroundImageFix" result="effect1_dropShadow_44_15964"/><feBlend in="SourceGraphic" in2="effect1_dropShadow_44_15964" result="shape"/><feColorMatrix in="SourceAlpha" result="hardAlpha" values="0 0 0 0 0 0 0 0 0 0 0 0 0 0 0 0 0 0 127 0"/><feOffset dy="-1"/><feGaussianBlur stdDeviation=".5"/><feComposite in2="hardAlpha" k2="-1" k3="1" operator="arithmetic"/><feColorMatrix values="0 0 0 0 0 0 0 0 0 0 0 0 0 0 0 0 0 0 0.02 0"/><feBlend in2="shape" result="effect2_innerShadow_44_15964"/></filter><filter id="g" color-interpolation-filters="sRGB" filterUnits="userSpaceOnUse" height="6.163" width="14.977" x="19.919" y="9.36"><feFlood flood-opacity="0" result="BackgroundImageFix"/><feColorMatrix in="SourceAlpha" result="hardAlpha" values="0 0 0 0 0 0 0 0 0 0 0 0 0 0 0 0 0 0 127 0"/><feOffset dy="1"/><feGaussianBlur stdDeviation="1"/><feComposite in2="hardAlpha" operator="out"/><feColorMatrix values="0 0 0 0 0 0 0 0 0 0 0 0 0 0 0 0 0 0 0.03 0"/><feBlend in2="BackgroundImageFix" result="effect1_dropShadow_44_15964"/><feBlend in="SourceGraphic" in2="effect1_dropShadow_44_15964" result="shape"/><feColorMatrix in="SourceAlpha" result="hardAlpha" values="0 0 0 0 0 0 0 0 0 0 0 0 0 0 0 0 0 0 127 0"/><feOffset dy="-1"/><feGaussianBlur stdDeviation=".5"/><feComposite in2="hardAlpha" k2="-1" k3="1" operator="arithmetic"/><feColorMatrix values="0 0 0 0 0 0 0 0 0 0 0 0 0 0 0 0 0 0 0.02 0"/><feBlend in2="shape" result="effect2_innerShadow_44_15964"/></filter><filter id="h" color-interpolation-filters="sRGB" filterUnits="userSpaceOnUse" height="6.163" width="14.977" x="19.64" y="13.35"><feFlood flood-opacity="0" result="BackgroundImageFix"/><feColorMatrix in="SourceAlpha" result="hardAlpha" values="0 0 0 0 0 0 0 0 0 0 0 0 0 0 0 0 0 0 127 0"/><feOffset dy="1"/><feGaussianBlur stdDeviation="1"/><feComposite in2="hardAlpha" operator="out"/><feColorMatrix values="0 0 0 0 0 0 0 0 0 0 0 0 0 0 0 0 0 0 0.03 0"/><feBlend in2="BackgroundImageFix" result="effect1_dropShadow_44_15964"/><feBlend in="SourceGraphic" in2="effect1_dropShadow_44_15964" result="shape"/><feColorMatrix in="SourceAlpha" result="hardAlpha" values="0 0 0 0 0 0 0 0 0 0 0 0 0 0 0 0 0 0 127 0"/><feOffset dy="-1"/><feGaussianBlur stdDeviation=".5"/><feComposite in2="hardAlpha" k2="-1" k3="1" operator="arithmetic"/><feColorMatrix values="0 0 0 0 0 0 0 0 0 0 0 0 0 0 0 0 0 0 0.02 0"/><feBlend in2="shape" result="effect2_innerShadow_44_15964"/></filter><filter id="i" color-interpolation-filters="sRGB" filterUnits="userSpaceOnUse" height="6.163" width="14.977" x="19.395" y="16.841"><feFlood flood-opacity="0" result="BackgroundImageFix"/><feColorMatrix in="SourceAlpha" result="hardAlpha" values="0 0 0 0 0 0 0 0 0 0 0 0 0 0 0 0 0 0 127 0"/><feOffset dy="1"/><feGaussianBlur stdDeviation="1"/><feComposite in2="hardAlpha" operator="out"/><feColorMatrix values="0 0 0 0 0 0 0 0 0 0 0 0 0 0 0 0 0 0 0.03 0"/><feBlend in2="BackgroundImageFix" result="effect1_dropShadow_44_15964"/><feBlend in="SourceGraphic" in2="effect1_dropShadow_44_15964" result="shape"/><feColorMatrix in="SourceAlpha" result="hardAlpha" values="0 0 0 0 0 0 0 0 0 0 0 0 0 0 0 0 0 0 127 0"/><feOffset dy="-1"/><feGaussianBlur stdDeviation=".5"/><feComposite in2="hardAlpha" k2="-1" k3="1" operator="arithmetic"/><feColorMatrix values="0 0 0 0 0 0 0 0 0 0 0 0 0 0 0 0 0 0 0.02 0"/><feBlend in2="shape" result="effect2_innerShadow_44_15964"/></filter><mask id="j" height="38" maskUnits="userSpaceOnUse" width="38" x="2" y="1"><path d="m3.424 16.543c.895-12.8 3.83-15.351 16.63-14.456l4.827.337c12.8.895 15.35 3.83 14.456 16.63l-.338 4.827c-.895 12.8-3.83 15.35-16.63 14.456l-4.826-.338c-12.8-.895-15.351-3.83-14.456-16.63l.337-4.826z" fill="#fff"/></mask><g filter="url(#a)"><g mask="url(#j)"><path d="m3.424 16.543c.895-12.8 3.83-15.351 16.63-14.456l4.827.337c12.8.895 15.35 3.83 14.456 16.63l-.338 4.827c-.895 12.8-3.83 15.35-16.63 14.456l-4.826-.338c-12.8-.895-15.351-3.83-14.456-16.63l.337-4.826z" fill="#fff" filter="url(#b)"/><path d="m3.674 16.56c.223-3.194.573-5.732 1.166-7.73.592-1.996 1.423-3.44 2.599-4.462s2.72-1.644 4.78-1.953c2.062-.309 4.623-.302 7.818-.079l4.826.338c3.194.223 5.732.573 7.731 1.166 1.996.592 3.44 1.423 4.462 2.599s1.643 2.72 1.952 4.78c.31 2.062.303 4.623.08 7.818l-.338 4.826c-.224 3.194-.573 5.732-1.167 7.731-.592 1.996-1.423 3.44-2.599 4.462-1.175 1.022-2.72 1.643-4.78 1.952-2.061.31-4.623.303-7.817.08l-4.827-.338c-3.194-.224-5.732-.573-7.73-1.166-1.996-.593-3.44-1.424-4.462-2.6-1.022-1.175-1.644-2.72-1.953-4.78-.309-2.061-.302-4.623-.079-7.817l.338-4.827z" stroke="#0b0b0b" stroke-opacity=".05" stroke-width=".5"/></g></g><g fill="#d9d9d9"><rect filter="url(#c)" height="9" rx="1" transform="matrix(.99756405 .06975647 -.06975647 .99756405 .685098 -.674631)" width="10" x="10.002" y="9.472"/><rect filter="url(#d)" height="1.5" rx=".75" transform="matrix(.99756405 .06975647 -.06975647 .99756405 1.448667 -.594398)" width="23" x="9.235" y="20.445"/><rect filter="url(#e)" height="1.5" rx=".75" transform="matrix(.99756405 .06975647 -.06975647 .99756405 1.69166 -.568801)" width="23" x="8.991" y="23.937"/><rect filter="url(#f)" height="1.5" rx=".75" transform="matrix(.99756405 .06975647 -.06975647 .99756405 1.934585 -.543277)" width="16" x="8.746" y="27.428"/><rect filter="url(#g)" height="1.5" rx=".75" transform="matrix(.99756405 .06975647 -.06975647 .99756405 .772714 -1.507644)" width="11" x="21.973" y="10.309"/><rect filter="url(#h)" height="1.5" rx=".75" transform="matrix(.99756405 .06975647 -.06975647 .99756405 1.050363 -1.478463)" width="11" x="21.694" y="14.299"/><rect filter="url(#i)" height="1.5" rx=".75" transform="matrix(.99756405 .06975647 -.06975647 .99756405 1.293219 -1.452941)" width="11" x="21.45" y="17.791"/></g></svg>