<svg width="42" height="42" fill="none" xmlns="http://www.w3.org/2000/svg"><g filter="url(#filter0_di_11_12426)"><mask id="a" style="mask-type:alpha" maskUnits="userSpaceOnUse" x="2" y="1" width="38" height="38"><path d="M3.154 16.542C3.836 3.73 6.729 1.13 19.54 1.812l4.832.257c12.812.683 15.412 3.575 14.73 16.387l-.257 4.832c-.683 12.813-3.575 15.413-16.388 14.73l-4.831-.257c-12.813-.682-15.413-3.575-14.73-16.387l.257-4.832z" fill="#fff"/></mask><g mask="url(#a)"><path d="M3.154 16.542C3.836 3.73 6.729 1.13 19.54 1.812l4.832.257c12.812.683 15.412 3.575 14.73 16.387l-.257 4.832c-.683 12.813-3.575 15.413-16.388 14.73l-4.831-.257c-12.813-.682-15.413-3.575-14.73-16.387l.257-4.832z" fill="#fff" filter="url(#filter1_ii_11_12426)"/><path fill-rule="evenodd" clip-rule="evenodd" d="M3.269 15.213l-1.289.816-2.209 41.486 23.58 1.256 1.99-37.362-1.252.143-1.29.862-1.257.23-1.256.217-1.183-1.154-1.144-1.89-1.354 2.05-1.205-.742-1.095-2.807-1.252.132-1.324 1.497-1.005-4.512-1.07-3.271-1.248.06-1.289.828-1.363 2.232-1.223-.397-1.262.326z" fill="url(#paint0_radial_11_12426)" fill-opacity=".2"/><path d="M1.98 16.03l1.289-.817 1.261-.326 1.224.397 1.363-2.232 1.29-.828 1.247-.06 1.07 3.27 1.005 4.513 1.324-1.497 1.252-.132 1.095 2.807 1.205.741 1.354-2.049 1.144 1.89 1.183 1.154 1.256-.217 1.257-.23 1.29-.862 1.253-.143 1.299-1.03 1.448-3.815 1.248-.076 1.277-.598 1.25-.119 1.26-.29 1.202.816 1.259-.267L37 12.823l1.267-.428 1.156 1.667 1.241.066 1.177 1.28 1.294-.925 1.192.976 1.167 1.462 1.135 2.07 1.312-1.27 1.3-1.044 1.12 2.35 1.334-1.686 1.234.2 1.24.066 1.203.796 1.196.916 1.254-.177 1.218.491.883.735 1.025-.633 1.678 1.698 1.363-1.249 1.332-1.633 1.173 1.34 1.461-4.06 1.342-1.832 1.367-2.301 1.193.976 1.354-2.058 1.225.37 1.296-.966 1.144 1.887 1.322-1.452 1.257-.237 1.29-.844 1.105 2.615 1.447.26" stroke="#0B0B0B" stroke-opacity=".08" stroke-miterlimit="16"/><path d="M1.98 16.03l1.291-.817 1.265-.325 1.227.396 1.367-2.232 1.292-.827 1.25-.06 1.074 3.271 1.008 4.513 1.327-1.498 1.255-.132 1.098 2.808 1.209.741L18 19.82l1.147 1.889 1.186 1.155 1.26-.218 1.26-.23 1.293-.86 1.256-.144" stroke="url(#paint1_linear_11_12426)" stroke-miterlimit="16"/><rect x="23.213" y="17.927" width="4" height="4" rx="2" transform="rotate(3.048 23.213 17.927)" fill="#14B96C" filter="url(#filter2_d_11_12426)"/><path d="M3.404 16.555c.17-3.197.477-5.74 1.037-7.749.56-2.005 1.366-3.462 2.525-4.504 1.159-1.041 2.693-1.689 4.747-2.031 2.056-.344 4.617-.38 7.815-.21l4.831.258c3.198.17 5.741.478 7.75 1.038 2.005.559 3.462 1.365 4.503 2.524 1.042 1.159 1.69 2.693 2.032 4.747.344 2.056.38 4.618.21 7.815l-.258 4.832c-.17 3.197-.478 5.74-1.038 7.749-.559 2.005-1.365 3.462-2.524 4.504-1.159 1.041-2.693 1.689-4.747 2.032-2.056.343-4.618.379-7.815.209l-4.832-.258c-3.197-.17-5.74-.478-7.749-1.037-2.005-.56-3.462-1.366-4.504-2.525-1.042-1.159-1.689-2.693-2.032-4.747-.343-2.056-.379-4.618-.209-7.815l.258-4.832z" stroke="#0B0B0B" stroke-opacity=".05" stroke-width=".5"/></g></g><defs><filter id="filter0_di_11_12426" x=".797" y=".712" width="40.406" height="40.406" filterUnits="userSpaceOnUse" color-interpolation-filters="sRGB"><feFlood flood-opacity="0" result="BackgroundImageFix"/><feColorMatrix in="SourceAlpha" values="0 0 0 0 0 0 0 0 0 0 0 0 0 0 0 0 0 0 127 0" result="hardAlpha"/><feOffset dy="1"/><feGaussianBlur stdDeviation="1"/><feComposite in2="hardAlpha" operator="out"/><feColorMatrix values="0 0 0 0 0 0 0 0 0 0 0 0 0 0 0 0 0 0 0.1 0"/><feBlend in2="BackgroundImageFix" result="effect1_dropShadow_11_12426"/><feBlend in="SourceGraphic" in2="effect1_dropShadow_11_12426" result="shape"/><feColorMatrix in="SourceAlpha" values="0 0 0 0 0 0 0 0 0 0 0 0 0 0 0 0 0 0 127 0" result="hardAlpha"/><feOffset/><feGaussianBlur stdDeviation=".5"/><feComposite in2="hardAlpha" operator="arithmetic" k2="-1" k3="1"/><feColorMatrix values="0 0 0 0 0 0 0 0 0 0 0 0 0 0 0 0 0 0 0.15 0"/><feBlend in2="shape" result="effect2_innerShadow_11_12426"/></filter><filter id="filter1_ii_11_12426" x="2.797" y="1.712" width="36.406" height="38.406" filterUnits="userSpaceOnUse" color-interpolation-filters="sRGB"><feFlood flood-opacity="0" result="BackgroundImageFix"/><feBlend in="SourceGraphic" in2="BackgroundImageFix" result="shape"/><feColorMatrix in="SourceAlpha" values="0 0 0 0 0 0 0 0 0 0 0 0 0 0 0 0 0 0 127 0" result="hardAlpha"/><feOffset dy="-2"/><feComposite in2="hardAlpha" operator="arithmetic" k2="-1" k3="1"/><feColorMatrix values="0 0 0 0 0 0 0 0 0 0 0 0 0 0 0 0 0 0 0.05 0"/><feBlend in2="shape" result="effect1_innerShadow_11_12426"/><feColorMatrix in="SourceAlpha" values="0 0 0 0 0 0 0 0 0 0 0 0 0 0 0 0 0 0 127 0" result="hardAlpha"/><feOffset dy="2"/><feGaussianBlur stdDeviation="1.5"/><feComposite in2="hardAlpha" operator="arithmetic" k2="-1" k3="1"/><feColorMatrix values="0 0 0 0 1 0 0 0 0 1 0 0 0 0 1 0 0 0 0.05 0"/><feBlend in2="effect1_innerShadow_11_12426" result="effect2_innerShadow_11_12426"/></filter><filter id="filter2_d_11_12426" x="19.104" y="14.031" width="12" height="12" filterUnits="userSpaceOnUse" color-interpolation-filters="sRGB"><feFlood flood-opacity="0" result="BackgroundImageFix"/><feColorMatrix in="SourceAlpha" values="0 0 0 0 0 0 0 0 0 0 0 0 0 0 0 0 0 0 127 0" result="hardAlpha"/><feMorphology radius="4" operator="dilate" in="SourceAlpha" result="effect1_dropShadow_11_12426"/><feOffset/><feComposite in2="hardAlpha" operator="out"/><feColorMatrix values="0 0 0 0 0.0705882 0 0 0 0 0.717647 0 0 0 0 0.415686 0 0 0 0.1 0"/><feBlend in2="BackgroundImageFix" result="effect1_dropShadow_11_12426"/><feBlend in="SourceGraphic" in2="effect1_dropShadow_11_12426" result="shape"/></filter><radialGradient id="paint0_radial_11_12426" cx="0" cy="0" r="1" gradientUnits="userSpaceOnUse" gradientTransform="matrix(4 -22.50001 102.69085 18.25616 10 38.427)"><stop offset=".122" stop-color="#12B76A" stop-opacity="0"/><stop offset="1" stop-color="#12B76A"/></radialGradient><linearGradient id="paint1_linear_11_12426" x1="23" y1="22.427" x2="6" y2="14.927" gradientUnits="userSpaceOnUse"><stop stop-color="#12B76A"/><stop offset="1" stop-color="#32D583"/></linearGradient></defs></svg>