<svg width="30" height="37" fill="none" xmlns="http://www.w3.org/2000/svg"><g filter="url(#filter0_di_45_21380)"><path d="M23.126 2.888L5.136 6.593c-.292.06-.438.09-.54.171a.55.55 0 0 0-.179.252c-.042.123-.023.27.016.566l3.24 24.54c.039.29.058.436.13.542a.55.55 0 0 0 .232.197c.117.052.263.046.556.035l18.385-.708c.346-.013.519-.02.642-.096a.55.55 0 0 0 .22-.261c.055-.135.032-.306-.013-.65L24.189 3.644c-.045-.336-.067-.505-.152-.62a.55.55 0 0 0-.275-.195c-.137-.043-.303-.009-.636.06z" fill="#8459D1"/><path d="M23.93 2.908s.112.082.16.19c.039.09.041.118.042.117l3.747 28.377s.001.084-.009.137c-.018.1-.104.24-.104.24L23.93 2.908z" fill="url(#paint0_linear_45_21380)"/><path d="M23.93 2.908s.112.082.16.19c.039.09.041.118.042.117l3.747 28.377s.001.084-.009.137c-.018.1-.104.24-.104.24L23.93 2.908z" fill="url(#paint1_linear_45_21380)"/><g filter="url(#filter1_d_45_21380)"><path d="M23.66 3.379L4.714 7.28l3.316 25.113 19.361-.746-3.733-28.27z" fill="#fff"/><path d="M23.66 3.379L4.714 7.28l3.316 25.113 19.361-.746-3.733-28.27z" stroke="#CBCBCB" stroke-width=".056"/></g><g filter="url(#filter2_d_45_21380)"><path d="M23.547 3.322L4.639 7.225l3.328 25.206 19.326-.734-3.746-28.375z" fill="#fff"/><path d="M23.547 3.322L4.639 7.225l3.328 25.206 19.326-.734-3.746-28.375z" stroke="#CBCBCB" stroke-width=".056"/></g><g filter="url(#filter3_d_45_21380)"><path d="M23.436 3.301L4.528 7.21l3.34 25.299 19.328-.728-3.76-28.479z" fill="#fff"/><path d="M23.436 3.301L4.528 7.21l3.34 25.299 19.328-.728-3.76-28.479z" stroke="#CBCBCB" stroke-width=".056"/></g><g filter="url(#filter4_d_45_21380)"><path d="M23.322 3.245L4.415 7.158 7.768 32.55l19.328-.721-3.774-28.584z" fill="#fff"/><path d="M23.322 3.245L4.415 7.158 7.768 32.55l19.328-.721-3.774-28.584z" stroke="#CBCBCB" stroke-width=".056"/></g><g filter="url(#filter5_d_45_21380)"><path d="M23.213 3.224L4.307 7.142l3.365 25.485 19.33-.715-3.789-28.688z" fill="#fff"/><path d="M23.213 3.224L4.307 7.142l3.365 25.485 19.33-.715-3.789-28.688z" stroke="#CBCBCB" stroke-width=".056"/></g><g filter="url(#filter6_d_45_21380)"><path d="M23.1 3.168L4.298 7.081l3.385 25.64 19.226-.69L23.1 3.168z" fill="#fff"/><path d="M23.1 3.168L4.298 7.081l3.385 25.64 19.226-.69L23.1 3.168z" stroke="#CBCBCB" stroke-width=".056"/></g><g filter="url(#filter7_d_45_21380)"><path d="M22.99 3.147l-18.8 3.92L7.594 32.83l19.227-.68-3.83-29.003z" fill="#fff"/><path d="M22.99 3.147l-18.8 3.92L7.594 32.83l19.227-.68-3.83-29.003z" stroke="#CBCBCB" stroke-width=".056"/></g><g filter="url(#filter8_d_45_21380)"><path d="M22.872 3.056L4.074 6.986 7.5 32.936l19.229-.668-3.857-29.212z" fill="#fff"/><path d="M22.872 3.056L4.074 6.986 7.5 32.936l19.229-.668-3.857-29.212z" stroke="#CBCBCB" stroke-width=".056"/></g><g filter="url(#filter9_d_45_21380)"><path d="M22.758 3L3.96 6.94l3.447 26.105 19.23-.657-3.88-29.386z" fill="#fff"/><path d="M22.758 3L3.96 6.94l3.447 26.105 19.23-.657-3.88-29.386z" stroke="#CBCBCB" stroke-width=".056"/></g><g filter="url(#filter10_d_45_21380)"><path d="M22.64 2.91L3.843 6.86l3.48 26.353 19.232-.639L22.64 2.91z" fill="#fff"/><path d="M22.64 2.91L3.843 6.86l3.48 26.353 19.232-.639L22.64 2.91z" stroke="#CBCBCB" stroke-width=".056"/></g><g filter="url(#filter11_d_45_21380)"><path d="M22.52 2.819L3.728 6.78 7.23 33.319l19.234-.625-3.944-29.875z" fill="#fff"/><path d="M22.52 2.819L3.728 6.78 7.23 33.319l19.234-.625-3.944-29.875z" stroke="#CBCBCB" stroke-width=".056"/></g><g filter="url(#filter12_d_45_21380)"><path d="M22.402 2.727L3.61 6.701l3.533 26.756 19.236-.61-3.977-30.12z" fill="#fff"/><path d="M22.402 2.727L3.61 6.701l3.533 26.756 19.236-.61-3.977-30.12z" stroke="#CBCBCB" stroke-width=".056"/></g><g filter="url(#filter13_d_45_21380)"><path d="M22.283 2.637L3.493 6.62 7.05 33.562l19.238-.596-4.005-30.33z" fill="#fff"/><path d="M22.283 2.637L3.493 6.62 7.05 33.562l19.238-.596-4.005-30.33z" stroke="#CBCBCB" stroke-width=".056"/></g><path d="M21.066 2.18L3.5 5.9c-.472.1-.709.15-.833.326-.124.176-.093.415-.03.894l3.458 26.186c.062.47.093.704.255.84.161.138.397.13.87.116l17.982-.565c.568-.017.852-.026 1.01-.212.158-.186.12-.468.046-1.031L22.384 3.113c-.073-.552-.11-.827-.305-.966-.197-.139-.469-.081-1.013.034z" fill="#6927DA"/><path d="M21.066 2.18L3.5 5.9c-.472.1-.709.15-.833.326-.124.176-.093.415-.03.894l3.458 26.186c.062.47.093.704.255.84.161.138.397.13.87.116l17.982-.565c.568-.017.852-.026 1.01-.212.158-.186.12-.468.046-1.031L22.384 3.113c-.073-.552-.11-.827-.305-.966-.197-.139-.469-.081-1.013.034z" fill="url(#paint2_linear_45_21380)"/><path d="M21.869 2.05s.234.06.33.172c.077.091.118.28.12.28l4.037 30.577s-.016.242-.067.334c-.066.117-.25.223-.25.223L21.87 2.05z" fill="url(#paint3_linear_45_21380)"/><path d="M21.869 2.05s.234.06.33.172c.077.091.118.28.12.28l4.037 30.577s-.016.242-.067.334c-.066.117-.25.223-.25.223L21.87 2.05z" fill="url(#paint4_linear_45_21380)"/></g><defs><filter id="filter0_di_45_21380" x=".3" y="-.291" width="29.823" height="38.581" filterUnits="userSpaceOnUse" color-interpolation-filters="sRGB"><feFlood flood-opacity="0" result="BackgroundImageFix"/><feColorMatrix in="SourceAlpha" values="0 0 0 0 0 0 0 0 0 0 0 0 0 0 0 0 0 0 127 0" result="hardAlpha"/><feOffset/><feGaussianBlur stdDeviation="1"/><feComposite in2="hardAlpha" operator="out"/><feColorMatrix values="0 0 0 0 0 0 0 0 0 0 0 0 0 0 0 0 0 0 0.06 0"/><feBlend in2="BackgroundImageFix" result="effect1_dropShadow_45_21380"/><feBlend in="SourceGraphic" in2="effect1_dropShadow_45_21380" result="shape"/><feColorMatrix in="SourceAlpha" values="0 0 0 0 0 0 0 0 0 0 0 0 0 0 0 0 0 0 127 0" result="hardAlpha"/><feOffset/><feGaussianBlur stdDeviation="1"/><feComposite in2="hardAlpha" operator="arithmetic" k2="-1" k3="1"/><feColorMatrix values="0 0 0 0 0 0 0 0 0 0 0 0 0 0 0 0 0 0 0.05 0"/><feBlend in2="shape" result="effect2_innerShadow_45_21380"/></filter><filter id="filter1_d_45_21380" x="4.628" y="3.233" width="22.964" height="29.301" filterUnits="userSpaceOnUse" color-interpolation-filters="sRGB"><feFlood flood-opacity="0" result="BackgroundImageFix"/><feColorMatrix in="SourceAlpha" values="0 0 0 0 0 0 0 0 0 0 0 0 0 0 0 0 0 0 127 0" result="hardAlpha"/><feOffset dx=".056"/><feGaussianBlur stdDeviation=".056"/><feComposite in2="hardAlpha" operator="out"/><feColorMatrix values="0 0 0 0 0 0 0 0 0 0 0 0 0 0 0 0 0 0 0.1 0"/><feBlend in2="BackgroundImageFix" result="effect1_dropShadow_45_21380"/><feBlend in="SourceGraphic" in2="effect1_dropShadow_45_21380" result="shape"/></filter><filter id="filter2_d_45_21380" x="4.551" y="3.177" width="22.942" height="29.395" filterUnits="userSpaceOnUse" color-interpolation-filters="sRGB"><feFlood flood-opacity="0" result="BackgroundImageFix"/><feColorMatrix in="SourceAlpha" values="0 0 0 0 0 0 0 0 0 0 0 0 0 0 0 0 0 0 127 0" result="hardAlpha"/><feOffset dx=".056"/><feGaussianBlur stdDeviation=".056"/><feComposite in2="hardAlpha" operator="out"/><feColorMatrix values="0 0 0 0 0 0 0 0 0 0 0 0 0 0 0 0 0 0 0.1 0"/><feBlend in2="BackgroundImageFix" result="effect1_dropShadow_45_21380"/><feBlend in="SourceGraphic" in2="effect1_dropShadow_45_21380" result="shape"/></filter><filter id="filter3_d_45_21380" x="4.441" y="3.156" width="22.955" height="29.493" filterUnits="userSpaceOnUse" color-interpolation-filters="sRGB"><feFlood flood-opacity="0" result="BackgroundImageFix"/><feColorMatrix in="SourceAlpha" values="0 0 0 0 0 0 0 0 0 0 0 0 0 0 0 0 0 0 127 0" result="hardAlpha"/><feOffset dx=".056"/><feGaussianBlur stdDeviation=".056"/><feComposite in2="hardAlpha" operator="out"/><feColorMatrix values="0 0 0 0 0 0 0 0 0 0 0 0 0 0 0 0 0 0 0.1 0"/><feBlend in2="BackgroundImageFix" result="effect1_dropShadow_45_21380"/><feBlend in="SourceGraphic" in2="effect1_dropShadow_45_21380" result="shape"/></filter><filter id="filter4_d_45_21380" x="4.328" y="3.1" width="22.968" height="29.591" filterUnits="userSpaceOnUse" color-interpolation-filters="sRGB"><feFlood flood-opacity="0" result="BackgroundImageFix"/><feColorMatrix in="SourceAlpha" values="0 0 0 0 0 0 0 0 0 0 0 0 0 0 0 0 0 0 127 0" result="hardAlpha"/><feOffset dx=".056"/><feGaussianBlur stdDeviation=".056"/><feComposite in2="hardAlpha" operator="out"/><feColorMatrix values="0 0 0 0 0 0 0 0 0 0 0 0 0 0 0 0 0 0 0.1 0"/><feBlend in2="BackgroundImageFix" result="effect1_dropShadow_45_21380"/><feBlend in="SourceGraphic" in2="effect1_dropShadow_45_21380" result="shape"/></filter><filter id="filter5_d_45_21380" x="4.22" y="3.079" width="22.981" height="29.689" filterUnits="userSpaceOnUse" color-interpolation-filters="sRGB"><feFlood flood-opacity="0" result="BackgroundImageFix"/><feColorMatrix in="SourceAlpha" values="0 0 0 0 0 0 0 0 0 0 0 0 0 0 0 0 0 0 127 0" result="hardAlpha"/><feOffset dx=".056"/><feGaussianBlur stdDeviation=".056"/><feComposite in2="hardAlpha" operator="out"/><feColorMatrix values="0 0 0 0 0 0 0 0 0 0 0 0 0 0 0 0 0 0 0.1 0"/><feBlend in2="BackgroundImageFix" result="effect1_dropShadow_45_21380"/><feBlend in="SourceGraphic" in2="effect1_dropShadow_45_21380" result="shape"/></filter><filter id="filter6_d_45_21380" x="4.212" y="3.023" width="22.898" height="29.838" filterUnits="userSpaceOnUse" color-interpolation-filters="sRGB"><feFlood flood-opacity="0" result="BackgroundImageFix"/><feColorMatrix in="SourceAlpha" values="0 0 0 0 0 0 0 0 0 0 0 0 0 0 0 0 0 0 127 0" result="hardAlpha"/><feOffset dx=".056"/><feGaussianBlur stdDeviation=".056"/><feComposite in2="hardAlpha" operator="out"/><feColorMatrix values="0 0 0 0 0 0 0 0 0 0 0 0 0 0 0 0 0 0 0.1 0"/><feBlend in2="BackgroundImageFix" result="effect1_dropShadow_45_21380"/><feBlend in="SourceGraphic" in2="effect1_dropShadow_45_21380" result="shape"/></filter><filter id="filter7_d_45_21380" x="4.104" y="3.002" width="22.916" height="29.969" filterUnits="userSpaceOnUse" color-interpolation-filters="sRGB"><feFlood flood-opacity="0" result="BackgroundImageFix"/><feColorMatrix in="SourceAlpha" values="0 0 0 0 0 0 0 0 0 0 0 0 0 0 0 0 0 0 127 0" result="hardAlpha"/><feOffset dx=".056"/><feGaussianBlur stdDeviation=".056"/><feComposite in2="hardAlpha" operator="out"/><feColorMatrix values="0 0 0 0 0 0 0 0 0 0 0 0 0 0 0 0 0 0 0.1 0"/><feBlend in2="BackgroundImageFix" result="effect1_dropShadow_45_21380"/><feBlend in="SourceGraphic" in2="effect1_dropShadow_45_21380" result="shape"/></filter><filter id="filter8_d_45_21380" x="3.987" y="2.911" width="22.942" height="30.166" filterUnits="userSpaceOnUse" color-interpolation-filters="sRGB"><feFlood flood-opacity="0" result="BackgroundImageFix"/><feColorMatrix in="SourceAlpha" values="0 0 0 0 0 0 0 0 0 0 0 0 0 0 0 0 0 0 127 0" result="hardAlpha"/><feOffset dx=".056"/><feGaussianBlur stdDeviation=".056"/><feComposite in2="hardAlpha" operator="out"/><feColorMatrix values="0 0 0 0 0 0 0 0 0 0 0 0 0 0 0 0 0 0 0.1 0"/><feBlend in2="BackgroundImageFix" result="effect1_dropShadow_45_21380"/><feBlend in="SourceGraphic" in2="effect1_dropShadow_45_21380" result="shape"/></filter><filter id="filter9_d_45_21380" x="3.874" y="2.855" width="22.964" height="30.329" filterUnits="userSpaceOnUse" color-interpolation-filters="sRGB"><feFlood flood-opacity="0" result="BackgroundImageFix"/><feColorMatrix in="SourceAlpha" values="0 0 0 0 0 0 0 0 0 0 0 0 0 0 0 0 0 0 127 0" result="hardAlpha"/><feOffset dx=".056"/><feGaussianBlur stdDeviation=".056"/><feComposite in2="hardAlpha" operator="out"/><feColorMatrix values="0 0 0 0 0 0 0 0 0 0 0 0 0 0 0 0 0 0 0.1 0"/><feBlend in2="BackgroundImageFix" result="effect1_dropShadow_45_21380"/><feBlend in="SourceGraphic" in2="effect1_dropShadow_45_21380" result="shape"/></filter><filter id="filter10_d_45_21380" x="3.757" y="2.764" width="22.999" height="30.591" filterUnits="userSpaceOnUse" color-interpolation-filters="sRGB"><feFlood flood-opacity="0" result="BackgroundImageFix"/><feColorMatrix in="SourceAlpha" values="0 0 0 0 0 0 0 0 0 0 0 0 0 0 0 0 0 0 127 0" result="hardAlpha"/><feOffset dx=".056"/><feGaussianBlur stdDeviation=".056"/><feComposite in2="hardAlpha" operator="out"/><feColorMatrix values="0 0 0 0 0 0 0 0 0 0 0 0 0 0 0 0 0 0 0.1 0"/><feBlend in2="BackgroundImageFix" result="effect1_dropShadow_45_21380"/><feBlend in="SourceGraphic" in2="effect1_dropShadow_45_21380" result="shape"/></filter><filter id="filter11_d_45_21380" x="3.64" y="2.673" width="23.025" height="30.787" filterUnits="userSpaceOnUse" color-interpolation-filters="sRGB"><feFlood flood-opacity="0" result="BackgroundImageFix"/><feColorMatrix in="SourceAlpha" values="0 0 0 0 0 0 0 0 0 0 0 0 0 0 0 0 0 0 127 0" result="hardAlpha"/><feOffset dx=".056"/><feGaussianBlur stdDeviation=".056"/><feComposite in2="hardAlpha" operator="out"/><feColorMatrix values="0 0 0 0 0 0 0 0 0 0 0 0 0 0 0 0 0 0 0.1 0"/><feBlend in2="BackgroundImageFix" result="effect1_dropShadow_45_21380"/><feBlend in="SourceGraphic" in2="effect1_dropShadow_45_21380" result="shape"/></filter><filter id="filter12_d_45_21380" x="3.523" y="2.582" width="23.056" height="31.016" filterUnits="userSpaceOnUse" color-interpolation-filters="sRGB"><feFlood flood-opacity="0" result="BackgroundImageFix"/><feColorMatrix in="SourceAlpha" values="0 0 0 0 0 0 0 0 0 0 0 0 0 0 0 0 0 0 127 0" result="hardAlpha"/><feOffset dx=".056"/><feGaussianBlur stdDeviation=".056"/><feComposite in2="hardAlpha" operator="out"/><feColorMatrix values="0 0 0 0 0 0 0 0 0 0 0 0 0 0 0 0 0 0 0.1 0"/><feBlend in2="BackgroundImageFix" result="effect1_dropShadow_45_21380"/><feBlend in="SourceGraphic" in2="effect1_dropShadow_45_21380" result="shape"/></filter><filter id="filter13_d_45_21380" x="3.405" y="2.491" width="23.082" height="31.212" filterUnits="userSpaceOnUse" color-interpolation-filters="sRGB"><feFlood flood-opacity="0" result="BackgroundImageFix"/><feColorMatrix in="SourceAlpha" values="0 0 0 0 0 0 0 0 0 0 0 0 0 0 0 0 0 0 127 0" result="hardAlpha"/><feOffset dx=".056"/><feGaussianBlur stdDeviation=".056"/><feComposite in2="hardAlpha" operator="out"/><feColorMatrix values="0 0 0 0 0 0 0 0 0 0 0 0 0 0 0 0 0 0 0.1 0"/><feBlend in2="BackgroundImageFix" result="effect1_dropShadow_45_21380"/><feBlend in="SourceGraphic" in2="effect1_dropShadow_45_21380" result="shape"/></filter><linearGradient id="paint0_linear_45_21380" x1="25.89" y1="17.758" x2="26.042" y2="17.738" gradientUnits="userSpaceOnUse"><stop stop-color="#7044BF"/><stop offset="1" stop-color="#A97EF5"/></linearGradient><linearGradient id="paint1_linear_45_21380" x1="23.997" y1="2.719" x2="24.503" y2="2.661" gradientUnits="userSpaceOnUse"><stop stop-color="#AC7DFF" stop-opacity="0"/><stop offset="1" stop-color="#562D9D" stop-opacity=".65"/></linearGradient><linearGradient id="paint2_linear_45_21380" x1="14.048" y1="1.709" x2="16.009" y2="33.406" gradientUnits="userSpaceOnUse"><stop stop-color="#B388FF" stop-opacity=".5"/><stop offset="1" stop-color="#673AB7"/><stop offset="1" stop-color="#5C00FF"/></linearGradient><linearGradient id="paint3_linear_45_21380" x1="23.998" y1="18.18" x2="24.364" y2="18.132" gradientUnits="userSpaceOnUse"><stop stop-color="#A97EF5"/><stop offset="1" stop-color="#7044BF"/></linearGradient><linearGradient id="paint4_linear_45_21380" x1="22.083" y1="1.98" x2="23.3" y2="1.866" gradientUnits="userSpaceOnUse"><stop stop-color="#AC7DFF" stop-opacity="0"/><stop offset="1" stop-color="#562D9D" stop-opacity=".65"/></linearGradient></defs></svg>