<svg width="20" height="20" fill="none" xmlns="http://www.w3.org/2000/svg"><path d="M10 0C4.478 0 0 4.59 0 10.253c0 4.53 2.865 8.374 6.839 9.73.5.094.683-.223.683-.494 0-.244-.01-1.052-.014-1.909-2.782.62-3.369-1.21-3.369-1.21-.455-1.185-1.11-1.5-1.11-1.5-.907-.636.068-.623.068-.623 1.005.072 1.533 1.056 1.533 1.056.892 1.568 2.34 1.115 2.91.853.09-.663.35-1.115.635-1.371-2.221-.26-4.556-1.139-4.556-5.067 0-1.12.39-2.034 1.03-2.752-.103-.259-.446-1.302.097-2.714 0 0 .84-.275 2.751 1.051A9.363 9.363 0 0 1 10 4.958c.85.004 1.706.118 2.505.345 1.909-1.326 2.747-1.05 2.747-1.05.545 1.411.202 2.454.098 2.713.642.718 1.03 1.632 1.03 2.752 0 3.938-2.34 4.805-4.566 5.059.358.318.678.942.678 1.898 0 1.372-.012 2.476-.012 2.814 0 .273.18.593.687.492 3.971-1.357 6.833-5.2 6.833-9.728C20 4.59 15.523 0 10 0z" fill="#141414"/></svg>