<svg width="41" height="28" fill="none" xmlns="http://www.w3.org/2000/svg"><g filter="url(#filter0_di_33_11914)"><path d="M8.422 20.464H3.228C1.998 20.464 1 21.514 1 22.81s.998 2.347 2.228 2.347h5.194c1.231 0 2.229-1.05 2.229-2.347 0-1.296-.998-2.346-2.229-2.346zm23.23 4.692h5.194c1.231 0 2.229-1.051 2.229-2.347s-.998-2.346-2.229-2.346h-5.194c-1.23 0-2.228 1.05-2.228 2.346s.998 2.346 2.228 2.346zm-9.514-4.708H17.91c-1.23 0-2.228 1.05-2.228 2.346s.998 2.347 2.228 2.347h4.228c1.231 0 2.229-1.05 2.229-2.347 0-1.296-.998-2.346-2.229-2.346zm7.496-2.045h5.002c1.23 0 2.228-1.05 2.228-2.346s-.997-2.347-2.228-2.347h-5.002c-1.23 0-2.228 1.05-2.228 2.347 0 1.296.998 2.346 2.228 2.346zM10.356 13.71H5.355c-1.231 0-2.229 1.05-2.229 2.346s.998 2.347 2.229 2.347h5.001c1.23 0 2.229-1.05 2.229-2.347 0-1.296-.998-2.346-2.229-2.346zm13.388-.015h-7.442c-1.231 0-2.229 1.05-2.229 2.346s.998 2.347 2.229 2.347h7.442c1.23 0 2.229-1.05 2.229-2.347 0-1.295-.998-2.346-2.229-2.346zm-6.68-6.941H7.568c-1.231 0-2.229 1.05-2.229 2.346s.998 2.347 2.229 2.347h9.496c1.231 0 2.229-1.05 2.229-2.347 0-1.296-.998-2.346-2.229-2.346zm6.464 4.692h8.89c1.231 0 2.229-1.05 2.229-2.347 0-1.296-.998-2.346-2.229-2.346h-8.89c-1.23 0-2.228 1.05-2.228 2.346s.997 2.347 2.228 2.347zM30.28 0h-5.012c-1.231 0-2.229 1.05-2.229 2.346s.998 2.347 2.229 2.347h5.012c1.231 0 2.229-1.05 2.229-2.347C32.509 1.051 31.51 0 30.28 0zM14.711 0H9.698C8.468 0 7.47 1.05 7.47 2.346s.998 2.347 2.228 2.347h5.013c1.23 0 2.228-1.05 2.228-2.347C16.94 1.051 15.942 0 14.711 0z" fill="#949494"/></g><defs><filter id="filter0_di_33_11914" x="0" y="0" width="40.075" height="27.157" filterUnits="userSpaceOnUse" color-interpolation-filters="sRGB"><feFlood flood-opacity="0" result="BackgroundImageFix"/><feColorMatrix in="SourceAlpha" values="0 0 0 0 0 0 0 0 0 0 0 0 0 0 0 0 0 0 127 0" result="hardAlpha"/><feOffset dy="1"/><feGaussianBlur stdDeviation=".5"/><feComposite in2="hardAlpha" operator="out"/><feColorMatrix values="0 0 0 0 1 0 0 0 0 1 0 0 0 0 1 0 0 0 0.8 0"/><feBlend in2="BackgroundImageFix" result="effect1_dropShadow_33_11914"/><feBlend in="SourceGraphic" in2="effect1_dropShadow_33_11914" result="shape"/><feColorMatrix in="SourceAlpha" values="0 0 0 0 0 0 0 0 0 0 0 0 0 0 0 0 0 0 127 0" result="hardAlpha"/><feOffset dy="1"/><feGaussianBlur stdDeviation="1"/><feComposite in2="hardAlpha" operator="arithmetic" k2="-1" k3="1"/><feColorMatrix values="0 0 0 0 0 0 0 0 0 0 0 0 0 0 0 0 0 0 0.2 0"/><feBlend in2="shape" result="effect2_innerShadow_33_11914"/></filter></defs></svg>