<svg width="20" height="20" viewBox="0 0 20 20" fill="none" xmlns="http://www.w3.org/2000/svg">
<path d="M7.50033 14.9167C7.91454 14.9167 8.25033 14.5809 8.25033 14.1667C8.25033 13.7525 7.91454 13.4167 7.50033 13.4167V14.9167ZM5.83366 14.1667V13.4167V14.1667ZM5.83366 5.83337V5.08337V5.83337ZM7.50033 6.58337C7.91454 6.58337 8.25033 6.24759 8.25033 5.83337C8.25033 5.41916 7.91454 5.08337 7.50033 5.08337V6.58337ZM12.5003 5.08337C12.0861 5.08337 11.7503 5.41916 11.7503 5.83337C11.7503 6.24759 12.0861 6.58337 12.5003 6.58337V5.08337ZM14.167 5.83337V5.08337V5.83337ZM14.167 14.1667V13.4167V14.1667ZM12.5003 13.4167C12.0861 13.4167 11.7503 13.7525 11.7503 14.1667C11.7503 14.5809 12.0861 14.9167 12.5003 14.9167V13.4167ZM6.66699 9.25004C6.25278 9.25004 5.91699 9.58583 5.91699 10C5.91699 10.4143 6.25278 10.75 6.66699 10.75V9.25004ZM13.3337 10.75C13.7479 10.75 14.0837 10.4143 14.0837 10C14.0837 9.58583 13.7479 9.25004 13.3337 9.25004V10.75ZM7.50033 13.4167H5.83366V14.9167H7.50033V13.4167ZM5.83366 13.4167C4.9275 13.4167 4.05846 13.0567 3.41771 12.416L2.35705 13.4766C3.2791 14.3987 4.52968 14.9167 5.83366 14.9167V13.4167ZM3.41771 12.416C2.77696 11.7752 2.41699 10.9062 2.41699 10H0.916992C0.916992 11.304 1.435 12.5546 2.35705 13.4766L3.41771 12.416ZM2.41699 10C2.41699 9.09388 2.77696 8.22484 3.41771 7.58409L2.35705 6.52343C1.435 7.44549 0.916992 8.69606 0.916992 10H2.41699ZM3.41771 7.58409C4.05846 6.94334 4.9275 6.58337 5.83366 6.58337V5.08337C4.52968 5.08337 3.2791 5.60138 2.35705 6.52343L3.41771 7.58409ZM5.83366 6.58337H7.50033V5.08337H5.83366V6.58337ZM12.5003 6.58337H14.167V5.08337H12.5003V6.58337ZM14.167 6.58337C15.0731 6.58337 15.9422 6.94334 16.5829 7.58409L17.6436 6.52343C16.7215 5.60138 15.471 5.08337 14.167 5.08337V6.58337ZM16.5829 7.58409C17.2237 8.22484 17.5837 9.09388 17.5837 10H19.0837C19.0837 8.69606 18.5657 7.44549 17.6436 6.52343L16.5829 7.58409ZM17.5837 10C17.5837 10.9062 17.2237 11.7752 16.5829 12.416L17.6436 13.4766C18.5657 12.5546 19.0837 11.304 19.0837 10H17.5837ZM16.5829 12.416C15.9422 13.0567 15.0731 13.4167 14.167 13.4167V14.9167C15.471 14.9167 16.7215 14.3987 17.6436 13.4766L16.5829 12.416ZM14.167 13.4167H12.5003V14.9167H14.167V13.4167ZM6.66699 10.75H13.3337V9.25004H6.66699V10.75Z" fill="#737373"/>
</svg>
