<svg fill="none" height="1202" viewBox="0 0 1442 1202" width="1442" xmlns="http://www.w3.org/2000/svg" xmlns:xlink="http://www.w3.org/1999/xlink"><filter id="a" color-interpolation-filters="sRGB" filterUnits="userSpaceOnUse" height="1202" width="1442" x="0" y="0"><feFlood flood-opacity="0" result="BackgroundImageFix"/><feColorMatrix in="SourceAlpha" result="hardAlpha" type="matrix" values="0 0 0 0 0 0 0 0 0 0 0 0 0 0 0 0 0 0 127 0"/><feMorphology in="SourceAlpha" operator="dilate" radius="1" result="effect1_dropShadow_2002_1397"/><feOffset/><feComposite in2="hardAlpha" operator="out"/><feColorMatrix type="matrix" values="0 0 0 0 0 0 0 0 0 0 0 0 0 0 0 0 0 0 0.25 0"/><feBlend in2="BackgroundImageFix" mode="normal" result="effect1_dropShadow_2002_1397"/><feBlend in="SourceGraphic" in2="effect1_dropShadow_2002_1397" mode="normal" result="shape"/></filter><filter id="b" color-interpolation-filters="sRGB" filterUnits="userSpaceOnUse" height="1033.93" width="1013" x="307" y="275"><feFlood flood-opacity="0" result="BackgroundImageFix"/><feBlend in="SourceGraphic" in2="BackgroundImageFix" mode="normal" result="shape"/><feGaussianBlur result="effect1_foregroundBlur_2002_1397" stdDeviation="150"/></filter><filter id="c" color-interpolation-filters="sRGB" filterUnits="userSpaceOnUse" height="845.156" width="1065.7" x="-133.814" y="473.674"><feFlood flood-opacity="0" result="BackgroundImageFix"/><feBlend in="SourceGraphic" in2="BackgroundImageFix" mode="normal" result="shape"/><feGaussianBlur result="effect1_foregroundBlur_2002_1397" stdDeviation="150"/></filter><filter id="d" color-interpolation-filters="sRGB" filterUnits="userSpaceOnUse" height="18" width="12" x="1207" y="191"><feFlood flood-opacity="0" result="BackgroundImageFix"/><feColorMatrix in="SourceAlpha" result="hardAlpha" type="matrix" values="0 0 0 0 0 0 0 0 0 0 0 0 0 0 0 0 0 0 127 0"/><feMorphology in="SourceAlpha" operator="dilate" radius="1" result="effect1_dropShadow_2002_1397"/><feOffset/><feComposite in2="hardAlpha" operator="out"/><feColorMatrix type="matrix" values="0 0 0 0 0 0 0 0 0 0 0 0 0 0 0 0 0 0 0.1 0"/><feBlend in2="BackgroundImageFix" mode="normal" result="effect1_dropShadow_2002_1397"/><feColorMatrix in="SourceAlpha" result="hardAlpha" type="matrix" values="0 0 0 0 0 0 0 0 0 0 0 0 0 0 0 0 0 0 127 0"/><feMorphology in="SourceAlpha" operator="erode" radius="5" result="effect2_dropShadow_2002_1397"/><feOffset dy="-6"/><feGaussianBlur stdDeviation="3"/><feComposite in2="hardAlpha" operator="out"/><feColorMatrix type="matrix" values="0 0 0 0 0.119271 0 0 0 0 0.119271 0 0 0 0 0.119271 0 0 0 0.08 0"/><feBlend in2="effect1_dropShadow_2002_1397" mode="normal" result="effect2_dropShadow_2002_1397"/><feBlend in="SourceGraphic" in2="effect2_dropShadow_2002_1397" mode="normal" result="shape"/></filter><filter id="e" color-interpolation-filters="sRGB" filterUnits="userSpaceOnUse" height="84" width="249" x="1088" y="100"><feFlood flood-opacity="0" result="BackgroundImageFix"/><feColorMatrix in="SourceAlpha" result="hardAlpha" type="matrix" values="0 0 0 0 0 0 0 0 0 0 0 0 0 0 0 0 0 0 127 0"/><feMorphology in="SourceAlpha" operator="dilate" radius="1" result="effect1_dropShadow_2002_1397"/><feOffset/><feComposite in2="hardAlpha" operator="out"/><feColorMatrix type="matrix" values="0 0 0 0 0.0431373 0 0 0 0 0.0431373 0 0 0 0 0.0431373 0 0 0 0.05 0"/><feBlend in2="BackgroundImageFix" mode="normal" result="effect1_dropShadow_2002_1397"/><feColorMatrix in="SourceAlpha" result="hardAlpha" type="matrix" values="0 0 0 0 0 0 0 0 0 0 0 0 0 0 0 0 0 0 127 0"/><feOffset dy="1"/><feGaussianBlur stdDeviation="3"/><feComposite in2="hardAlpha" operator="out"/><feColorMatrix type="matrix" values="0 0 0 0 0.0431373 0 0 0 0 0.0431373 0 0 0 0 0.0431373 0 0 0 0.06 0"/><feBlend in2="effect1_dropShadow_2002_1397" mode="normal" result="effect2_dropShadow_2002_1397"/><feBlend in="SourceGraphic" in2="effect2_dropShadow_2002_1397" mode="normal" result="shape"/></filter><filter id="f" color-interpolation-filters="sRGB" filterUnits="userSpaceOnUse" height="18" width="12" x="239" y="466"><feFlood flood-opacity="0" result="BackgroundImageFix"/><feColorMatrix in="SourceAlpha" result="hardAlpha" type="matrix" values="0 0 0 0 0 0 0 0 0 0 0 0 0 0 0 0 0 0 127 0"/><feMorphology in="SourceAlpha" operator="dilate" radius="1" result="effect1_dropShadow_2002_1397"/><feOffset/><feComposite in2="hardAlpha" operator="out"/><feColorMatrix type="matrix" values="0 0 0 0 0 0 0 0 0 0 0 0 0 0 0 0 0 0 0.1 0"/><feBlend in2="BackgroundImageFix" mode="normal" result="effect1_dropShadow_2002_1397"/><feColorMatrix in="SourceAlpha" result="hardAlpha" type="matrix" values="0 0 0 0 0 0 0 0 0 0 0 0 0 0 0 0 0 0 127 0"/><feMorphology in="SourceAlpha" operator="erode" radius="5" result="effect2_dropShadow_2002_1397"/><feOffset dy="-6"/><feGaussianBlur stdDeviation="3"/><feComposite in2="hardAlpha" operator="out"/><feColorMatrix type="matrix" values="0 0 0 0 0.119271 0 0 0 0 0.119271 0 0 0 0 0.119271 0 0 0 0.08 0"/><feBlend in2="effect1_dropShadow_2002_1397" mode="normal" result="effect2_dropShadow_2002_1397"/><feBlend in="SourceGraphic" in2="effect2_dropShadow_2002_1397" mode="normal" result="shape"/></filter><linearGradient id="g" gradientUnits="userSpaceOnUse" x1="728" x2="728" y1="422.461" y2="932.813"><stop offset="0" stop-color="#fafafa"/><stop offset="1" stop-color="#f5f5f5"/></linearGradient><radialGradient id="h" cx="0" cy="0" gradientTransform="matrix(-329.00025381 559.0000064 -1286.50038243 -757.17164131 1143.5 318)" gradientUnits="userSpaceOnUse" r="1"><stop offset="0" stop-color="#e7e7e7"/><stop offset=".0666667" stop-color="#e7e7e7"/><stop offset=".133333" stop-color="#e8e8e8"/><stop offset=".2" stop-color="#e9e9e9"/><stop offset=".266667" stop-color="#eaeaea"/><stop offset=".333333" stop-color="#ebebeb"/><stop offset=".4" stop-color="#ededed"/><stop offset=".466667" stop-color="#efefef"/><stop offset=".533333" stop-color="#f2f2f2"/><stop offset=".6" stop-color="#f4f4f4"/><stop offset=".666667" stop-color="#f6f6f6"/><stop offset=".733333" stop-color="#f7f7f7"/><stop offset=".8" stop-color="#f8f8f8"/><stop offset=".866667" stop-color="#f9f9f9"/><stop offset=".933333" stop-color="#fafafa"/><stop offset="1" stop-color="#fafafa"/></radialGradient><linearGradient id="i" gradientUnits="userSpaceOnUse" x1="639.523" x2="976.716" y1="958.111" y2="958.111"><stop offset="0" stop-color="#f23e94"/><stop offset=".35" stop-color="#6927da"/><stop offset=".67" stop-color="#1570ef"/><stop offset="1" stop-color="#2ce"/></linearGradient><linearGradient id="j" gradientUnits="userSpaceOnUse" x1="541.904" x2="198.126" y1="1014.78" y2="951.775"><stop offset="0" stop-color="#f23e94"/><stop offset="1" stop-color="#6927da"/></linearGradient><linearGradient id="k" gradientUnits="userSpaceOnUse" x1="1213.5" x2="1213.5" y1="-0" y2="637"><stop offset="0" stop-color="#e7e7e7" stop-opacity="0"/><stop offset=".16" stop-color="#e7e7e7"/><stop offset=".785" stop-color="#e7e7e7"/><stop offset="1" stop-color="#e7e7e7" stop-opacity="0"/></linearGradient><linearGradient id="l" gradientUnits="userSpaceOnUse" x1="245.5" x2="245.5" y1="96" y2="600.5"><stop offset="0" stop-color="#e7e7e7" stop-opacity="0"/><stop offset=".17061" stop-color="#e7e7e7"/><stop offset=".85" stop-color="#e7e7e7"/><stop offset="1" stop-color="#e7e7e7" stop-opacity="0"/></linearGradient><clipPath id="m"><path d="m1 1h1440v1200h-1440z"/></clipPath><mask id="n" fill="#000" height="434" maskUnits="userSpaceOnUse" width="413" x="607" y="575"><path d="m607 575h413v434h-413z" fill="#fff"/><path d="m954.136 916.148c-.142 0-.284-.001-.426-.001-1.089 0-.231-.057.426.001z" fill="#000"/></mask><g clip-path="url(#m)" filter="url(#a)"><path d="m0 0h1440v1200h-1440z" fill="url(#g)" transform="translate(1 1)"/><path d="m0 0h1440v1200h-1440z" fill="#000" fill-opacity=".01" transform="translate(1 1)"/><path d="m35.9737 702.162-37.9737 18.838h1443v-627l-37.97 29.006-37.98 36.037-37.97 44.106-37.97 6.478-37.98 32.393-37.97-38.871-37.98 22.027-37.97-6.479-37.97 45.35-37.98 67.456-37.97 50.532-37.974 49.097-37.974 5.518-37.974-5.518-37.973 29.677-37.974 24.182-37.974-6.599-37.973 14.646-37.974-14.646-37.974 15.6-37.973 30.501-37.974-2.341-37.974-15.58-37.973 22.123-37.974 29.008-37.974-14.463-37.973-8.444-37.974-4.747-37.974 17.946-37.974 24.713-37.973 52.384-37.974.574-37.974-10.362-37.973 11.779-37.974 21.433-37.9736 45.291z" fill="url(#h)" fill-opacity=".1"/><path d="m-2 721 37.9737-18.838 37.9737-8.355 37.9736-45.291 37.974-21.433 37.973-11.779 37.974 10.362 37.974-.574 37.973-52.384 37.974-24.713 37.974-17.946 37.974 4.747 37.973 8.444 37.974 14.463 37.974-29.008 37.973-22.123 37.974 15.58 37.974 2.341 37.973-30.501 37.974-15.6 37.974 14.646 37.973-14.646 37.974 6.599 37.974-24.182 37.973-29.677 37.974 5.518 37.974-5.518 37.974-49.097 37.97-50.532 37.98-67.456 37.97-45.35 37.97 6.479 37.98-22.027 37.97 38.871 37.98-32.393 37.97-6.478 37.97-44.106 37.98-36.037 37.97-29.006" stroke="#e7e7e7" stroke-miterlimit="16" stroke-width="2"/><path d="m46.018 108.26v-12.46h1.064v12.46zm.644-1.05c-.756 0-1.4187-.14-1.988-.42-.56-.289-1.008-.681-1.344-1.176-.3267-.504-.518-1.087-.574-1.75l1.386-.084c.0653.467.2007.863.406 1.19.2147.327.4993.574.854.742.3547.159.784.238 1.288.238.4387 0 .812-.051 1.12-.154.308-.112.5413-.275.7-.49.168-.224.252-.495.252-.812 0-.289-.07-.546-.21-.77-.1307-.224-.392-.429-.784-.616-.3827-.187-.9473-.369-1.694-.546-.756-.196-1.3627-.406-1.82-.63-.4573-.233-.7887-.518-.994-.854-.196-.345-.294-.765-.294-1.26 0-.5413.1307-1.022.392-1.442.2707-.42.6533-.7467 1.148-.98.4947-.2427 1.0827-.364 1.764-.364.728 0 1.3533.1353 1.876.406s.9333.644 1.232 1.12c.308.4667.4993 1.0033.574 1.61l-1.386.084c-.0467-.3827-.168-.7233-.364-1.022-.1867-.2987-.4433-.532-.77-.7s-.7233-.252-1.19-.252c-.5787 0-1.0407.14-1.386.42-.336.2707-.504.63-.504 1.078 0 .289.0653.532.196.728.14.187.3873.355.742.504.3547.14.8587.289 1.512.448.8307.205 1.4887.448 1.974.728.4947.271.8447.593 1.05.966.2053.364.308.784.308 1.26 0 .569-.1493 1.064-.448 1.484-.2893.42-.6953.747-1.218.98-.5227.224-1.1247.336-1.806.336zm6.8844-.21v-7.224h-2.086v-1.12h.84c.3733 0 .672-.0467.896-.14.224-.1027.3827-.2707.476-.504.1027-.2333.154-.5507.154-.952h1.078v9.94zm7.5534.224c-.812 0-1.5166-.21-2.114-.63-.5973-.42-1.0593-1.017-1.386-1.792-.3266-.775-.49-1.694-.49-2.758s.1634-1.983.49-2.758c.3267-.784.7887-1.386 1.386-1.806.5974-.4293 1.302-.644 2.114-.644.8214 0 1.5307.2147 2.128.644.5974.42 1.0594 1.0173 1.386 1.792.3267.775.49 1.699.49 2.772 0 1.064-.1633 1.983-.49 2.758-.3266.775-.7886 1.372-1.386 1.792-.5973.42-1.3066.63-2.128.63zm0-1.274c.8214 0 1.456-.336 1.904-1.008.448-.681.672-1.647.672-2.898 0-.84-.1026-1.554-.308-2.142-.196-.588-.4853-1.0313-.868-1.33-.3733-.308-.84-.462-1.4-.462-.5506 0-1.0173.154-1.4.462-.3733.2987-.6626.742-.868 1.33-.196.588-.294 1.302-.294 2.142 0 1.251.224 2.217.672 2.898.448.672 1.078 1.008 1.89 1.008zm9.3653 1.274c-.812 0-1.5167-.21-2.114-.63-.5974-.42-1.0594-1.017-1.386-1.792-.3267-.775-.49-1.694-.49-2.758s.1633-1.983.49-2.758c.3266-.784.7886-1.386 1.386-1.806.5973-.4293 1.302-.644 2.114-.644.8213 0 1.5306.2147 2.128.644.5973.42 1.0593 1.0173 1.386 1.792.3266.775.49 1.699.49 2.772 0 1.064-.1634 1.983-.49 2.758-.3267.775-.7887 1.372-1.386 1.792-.5974.42-1.3067.63-2.128.63zm0-1.274c.8213 0 1.456-.336 1.904-1.008.448-.681.672-1.647.672-2.898 0-.84-.1027-1.554-.308-2.142-.196-.588-.4854-1.0313-.868-1.33-.3734-.308-.84-.462-1.4-.462-.5507 0-1.0174.154-1.4.462-.3734.2987-.6627.742-.868 1.33-.196.588-.294 1.302-.294 2.142 0 1.251.224 2.217.672 2.898.448.672 1.078 1.008 1.89 1.008zm5.7812 1.05v-9.94h1.33v6.342l3.472-3.836h1.722l-2.926 3.136 3.052 4.298h-1.582l-2.352-3.43-1.386 1.47v1.96z" fill="#d4d4d4"/><path d="m46.018 232.26v-12.46h1.064v12.46zm.644-1.05c-.756 0-1.4187-.14-1.988-.42-.56-.289-1.008-.681-1.344-1.176-.3267-.504-.518-1.087-.574-1.75l1.386-.084c.0653.467.2007.863.406 1.19.2147.327.4993.574.854.742.3547.159.784.238 1.288.238.4387 0 .812-.051 1.12-.154.308-.112.5413-.275.7-.49.168-.224.252-.495.252-.812 0-.289-.07-.546-.21-.77-.1307-.224-.392-.429-.784-.616-.3827-.187-.9473-.369-1.694-.546-.756-.196-1.3627-.406-1.82-.63-.4573-.233-.7887-.518-.994-.854-.196-.345-.294-.765-.294-1.26 0-.541.1307-1.022.392-1.442.2707-.42.6533-.747 1.148-.98.4947-.243 1.0827-.364 1.764-.364.728 0 1.3533.135 1.876.406s.9333.644 1.232 1.12c.308.467.4993 1.003.574 1.61l-1.386.084c-.0467-.383-.168-.723-.364-1.022-.1867-.299-.4433-.532-.77-.7s-.7233-.252-1.19-.252c-.5787 0-1.0407.14-1.386.42-.336.271-.504.63-.504 1.078 0 .289.0653.532.196.728.14.187.3873.355.742.504.3547.14.8587.289 1.512.448.8307.205 1.4887.448 1.974.728.4947.271.8447.593 1.05.966.2053.364.308.784.308 1.26 0 .569-.1493 1.064-.448 1.484-.2893.42-.6953.747-1.218.98-.5227.224-1.1247.336-1.806.336zm8.5364.014c-.728 0-1.3767-.112-1.946-.336s-1.0127-.555-1.33-.994-.476-.98-.476-1.624c0-.719.2193-1.316.658-1.792s1.0173-.793 1.736-.952l.028.28c-.5787-.149-1.05-.406-1.414-.77-.3547-.364-.532-.854-.532-1.47 0-.523.1353-.989.406-1.4s.6487-.733 1.134-.966c.4947-.243 1.0733-.364 1.736-.364.672 0 1.2507.121 1.736.364.4947.233.8727.555 1.134.966.2707.411.406.877.406 1.4 0 .616-.1773 1.106-.532 1.47-.3453.364-.812.621-1.4.77l.028-.28c.728.168 1.3067.49 1.736.966.4293.467.644 1.059.644 1.778 0 .644-.1587 1.185-.476 1.624s-.756.77-1.316.994-1.2133.336-1.96.336zm0-1.274c.7187 0 1.288-.149 1.708-.448s.63-.747.63-1.344c0-.56-.1913-1.008-.574-1.344-.3733-.336-.9613-.504-1.764-.504-.784 0-1.372.168-1.764.504-.3827.336-.574.784-.574 1.344 0 .597.21 1.045.63 1.344.4293.299.9987.448 1.708.448zm0-4.816c.5973 0 1.0547-.126 1.372-.378.3267-.261.49-.644.49-1.148 0-.457-.1587-.821-.476-1.092-.308-.271-.77-.406-1.386-.406-.5973 0-1.0593.135-1.386.406-.3173.271-.476.635-.476 1.092 0 .504.1633.887.49 1.148.3267.252.784.378 1.372.378zm8.9913 6.09c-.812 0-1.5167-.21-2.114-.63-.5974-.42-1.0594-1.017-1.386-1.792-.3267-.775-.49-1.694-.49-2.758s.1633-1.983.49-2.758c.3266-.784.7886-1.386 1.386-1.806.5973-.429 1.302-.644 2.114-.644.8213 0 1.5306.215 2.128.644.5973.42 1.0593 1.017 1.386 1.792.3266.775.49 1.699.49 2.772 0 1.064-.1634 1.983-.49 2.758-.3267.775-.7887 1.372-1.386 1.792-.5974.42-1.3067.63-2.128.63zm0-1.274c.8213 0 1.456-.336 1.904-1.008.448-.681.672-1.647.672-2.898 0-.84-.1027-1.554-.308-2.142-.196-.588-.4854-1.031-.868-1.33-.3734-.308-.84-.462-1.4-.462-.5507 0-1.0174.154-1.4.462-.3734.299-.6627.742-.868 1.33-.196.588-.294 1.302-.294 2.142 0 1.251.224 2.217.672 2.898.448.672 1.078 1.008 1.89 1.008zm5.7812 1.05v-9.94h1.33v6.342l3.472-3.836h1.722l-2.926 3.136 3.052 4.298h-1.582l-2.352-3.43-1.386 1.47v1.96z" fill="#d4d4d4"/><path d="m46.018 356.26v-12.46h1.064v12.46zm.644-1.05c-.756 0-1.4187-.14-1.988-.42-.56-.289-1.008-.681-1.344-1.176-.3267-.504-.518-1.087-.574-1.75l1.386-.084c.0653.467.2007.863.406 1.19.2147.327.4993.574.854.742.3547.159.784.238 1.288.238.4387 0 .812-.051 1.12-.154.308-.112.5413-.275.7-.49.168-.224.252-.495.252-.812 0-.289-.07-.546-.21-.77-.1307-.224-.392-.429-.784-.616-.3827-.187-.9473-.369-1.694-.546-.756-.196-1.3627-.406-1.82-.63-.4573-.233-.7887-.518-.994-.854-.196-.345-.294-.765-.294-1.26 0-.541.1307-1.022.392-1.442.2707-.42.6533-.747 1.148-.98.4947-.243 1.0827-.364 1.764-.364.728 0 1.3533.135 1.876.406s.9333.644 1.232 1.12c.308.467.4993 1.003.574 1.61l-1.386.084c-.0467-.383-.168-.723-.364-1.022-.1867-.299-.4433-.532-.77-.7s-.7233-.252-1.19-.252c-.5787 0-1.0407.14-1.386.42-.336.271-.504.63-.504 1.078 0 .289.0653.532.196.728.14.187.3873.355.742.504.3547.14.8587.289 1.512.448.8307.205 1.4887.448 1.974.728.4947.271.8447.593 1.05.966.2053.364.308.784.308 1.26 0 .569-.1493 1.064-.448 1.484-.2893.42-.6953.747-1.218.98-.5227.224-1.1247.336-1.806.336zm8.6484.014c-.756 0-1.4047-.173-1.946-.518-.532-.345-.938-.849-1.218-1.512-.28-.672-.42-1.479-.42-2.422 0-.821.07-1.591.21-2.31.1493-.719.378-1.349.686-1.89s.714-.966 1.218-1.274 1.1247-.462 1.862-.462c.896 0 1.5913.219 2.086.658.504.439.854 1.017 1.05 1.736l-1.386.112c-.112-.373-.2987-.672-.56-.896s-.658-.336-1.19-.336c-.7933 0-1.4187.341-1.876 1.022-.4573.672-.7 1.699-.728 3.08l-.266-.056c.1027-.327.28-.625.532-.896.252-.28.5647-.504.938-.672s.798-.252 1.274-.252c.6533 0 1.2273.14 1.722.42.504.28.8913.672 1.162 1.176.28.504.42 1.092.42 1.764 0 .737-.154 1.367-.462 1.89-.2987.523-.714.929-1.246 1.218-.532.28-1.1527.42-1.862.42zm.028-1.26c.6253 0 1.1387-.201 1.54-.602s.602-.952.602-1.652c0-.439-.0887-.821-.266-1.148-.168-.327-.406-.579-.714-.756-.2987-.177-.6533-.266-1.064-.266-.4293 0-.8167.089-1.162.266-.336.177-.602.429-.798.756s-.294.709-.294 1.148.0887.831.266 1.176c.1773.336.4247.602.742.798.3267.187.7093.28 1.148.28zm9.0564 1.26c-.812 0-1.5167-.21-2.114-.63-.5974-.42-1.0594-1.017-1.386-1.792-.3267-.775-.49-1.694-.49-2.758s.1633-1.983.49-2.758c.3266-.784.7886-1.386 1.386-1.806.5973-.429 1.302-.644 2.114-.644.8213 0 1.5306.215 2.128.644.5973.42 1.0593 1.017 1.386 1.792.3266.775.49 1.699.49 2.772 0 1.064-.1634 1.983-.49 2.758-.3267.775-.7887 1.372-1.386 1.792-.5974.42-1.3067.63-2.128.63zm0-1.274c.8213 0 1.456-.336 1.904-1.008.448-.681.672-1.647.672-2.898 0-.84-.1027-1.554-.308-2.142-.196-.588-.4854-1.031-.868-1.33-.3734-.308-.84-.462-1.4-.462-.5507 0-1.0174.154-1.4.462-.3734.299-.6627.742-.868 1.33-.196.588-.294 1.302-.294 2.142 0 1.251.224 2.217.672 2.898.448.672 1.078 1.008 1.89 1.008zm5.7812 1.05v-9.94h1.33v6.342l3.472-3.836h1.722l-2.926 3.136 3.052 4.298h-1.582l-2.352-3.43-1.386 1.47v1.96z" fill="#d4d4d4"/><path d="m46.018 480.26v-12.46h1.064v12.46zm.644-1.05c-.756 0-1.4187-.14-1.988-.42-.56-.289-1.008-.681-1.344-1.176-.3267-.504-.518-1.087-.574-1.75l1.386-.084c.0653.467.2007.863.406 1.19.2147.327.4993.574.854.742.3547.159.784.238 1.288.238.4387 0 .812-.051 1.12-.154.308-.112.5413-.275.7-.49.168-.224.252-.495.252-.812 0-.289-.07-.546-.21-.77-.1307-.224-.392-.429-.784-.616-.3827-.187-.9473-.369-1.694-.546-.756-.196-1.3627-.406-1.82-.63-.4573-.233-.7887-.518-.994-.854-.196-.345-.294-.765-.294-1.26 0-.541.1307-1.022.392-1.442.2707-.42.6533-.747 1.148-.98.4947-.243 1.0827-.364 1.764-.364.728 0 1.3533.135 1.876.406s.9333.644 1.232 1.12c.308.467.4993 1.003.574 1.61l-1.386.084c-.0467-.383-.168-.723-.364-1.022-.1867-.299-.4433-.532-.77-.7s-.7233-.252-1.19-.252c-.5787 0-1.0407.14-1.386.42-.336.271-.504.63-.504 1.078 0 .289.0653.532.196.728.14.187.3873.355.742.504.3547.14.8587.289 1.512.448.8307.205 1.4887.448 1.974.728.4947.271.8447.593 1.05.966.2053.364.308.784.308 1.26 0 .569-.1493 1.064-.448 1.484-.2893.42-.6953.747-1.218.98-.5227.224-1.1247.336-1.806.336zm9.6844-.21v-2.114h-5.04v-1.19l4.9-6.636h1.498v6.552h1.218v1.274h-1.218v2.114zm-3.444-3.388h3.444v-4.578zm11.383 3.612c-.812 0-1.5167-.21-2.114-.63-.5974-.42-1.0594-1.017-1.386-1.792-.3267-.775-.49-1.694-.49-2.758s.1633-1.983.49-2.758c.3266-.784.7886-1.386 1.386-1.806.5973-.429 1.302-.644 2.114-.644.8213 0 1.5306.215 2.128.644.5973.42 1.0593 1.017 1.386 1.792.3266.775.49 1.699.49 2.772 0 1.064-.1634 1.983-.49 2.758-.3267.775-.7887 1.372-1.386 1.792-.5974.42-1.3067.63-2.128.63zm0-1.274c.8213 0 1.456-.336 1.904-1.008.448-.681.672-1.647.672-2.898 0-.84-.1027-1.554-.308-2.142-.196-.588-.4854-1.031-.868-1.33-.3734-.308-.84-.462-1.4-.462-.5507 0-1.0174.154-1.4.462-.3734.299-.6627.742-.868 1.33-.196.588-.294 1.302-.294 2.142 0 1.251.224 2.217.672 2.898.448.672 1.078 1.008 1.89 1.008zm5.7812 1.05v-9.94h1.33v6.342l3.472-3.836h1.722l-2.926 3.136 3.052 4.298h-1.582l-2.352-3.43-1.386 1.47v1.96z" fill="#d4d4d4"/><path d="m46.018 604.26v-12.46h1.064v12.46zm.644-1.05c-.756 0-1.4187-.14-1.988-.42-.56-.289-1.008-.681-1.344-1.176-.3267-.504-.518-1.087-.574-1.75l1.386-.084c.0653.467.2007.863.406 1.19.2147.327.4993.574.854.742.3547.159.784.238 1.288.238.4387 0 .812-.051 1.12-.154.308-.112.5413-.275.7-.49.168-.224.252-.495.252-.812 0-.289-.07-.546-.21-.77-.1307-.224-.392-.429-.784-.616-.3827-.187-.9473-.369-1.694-.546-.756-.196-1.3627-.406-1.82-.63-.4573-.233-.7887-.518-.994-.854-.196-.345-.294-.765-.294-1.26 0-.541.1307-1.022.392-1.442.2707-.42.6533-.747 1.148-.98.4947-.243 1.0827-.364 1.764-.364.728 0 1.3533.135 1.876.406s.9333.644 1.232 1.12c.308.467.4993 1.003.574 1.61l-1.386.084c-.0467-.383-.168-.723-.364-1.022-.1867-.299-.4433-.532-.77-.7s-.7233-.252-1.19-.252c-.5787 0-1.0407.14-1.386.42-.336.271-.504.63-.504 1.078 0 .289.0653.532.196.728.14.187.3873.355.742.504.3547.14.8587.289 1.512.448.8307.205 1.4887.448 1.974.728.4947.271.8447.593 1.05.966.2053.364.308.784.308 1.26 0 .569-.1493 1.064-.448 1.484-.2893.42-.6953.747-1.218.98-.5227.224-1.1247.336-1.806.336zm5.0784-.21c0-.728.1073-1.377.322-1.946.224-.579.6113-1.12 1.162-1.624.5507-.513 1.3067-1.027 2.268-1.54.4573-.243.826-.462 1.106-.658.28-.205.4807-.42.602-.644.1307-.224.196-.499.196-.826s-.07-.611-.21-.854-.35-.434-.63-.574c-.28-.149-.63-.224-1.05-.224-.6627 0-1.19.177-1.582.532-.3827.355-.6253.859-.728 1.512l-1.414-.098c.112-.98.4853-1.759 1.12-2.338.644-.588 1.512-.882 2.604-.882.6907 0 1.2833.121 1.778.364s.8727.583 1.134 1.022.392.943.392 1.512c0 .513-.084.952-.252 1.316s-.448.705-.84 1.022-.9287.653-1.61 1.008c-.8867.467-1.554.933-2.002 1.4s-.686.882-.714 1.246h5.418v1.274zm12.586.224c-.812 0-1.5167-.21-2.114-.63s-1.0593-1.017-1.386-1.792-.49-1.694-.49-2.758.1633-1.983.49-2.758c.3267-.784.7887-1.386 1.386-1.806.5973-.429 1.302-.644 2.114-.644.8213 0 1.5307.215 2.128.644.5973.42 1.0593 1.017 1.386 1.792s.49 1.699.49 2.772c0 1.064-.1633 1.983-.49 2.758s-.7887 1.372-1.386 1.792-1.3067.63-2.128.63zm0-1.274c.8213 0 1.456-.336 1.904-1.008.448-.681.672-1.647.672-2.898 0-.84-.1027-1.554-.308-2.142-.196-.588-.4853-1.031-.868-1.33-.3733-.308-.84-.462-1.4-.462-.5507 0-1.0173.154-1.4.462-.3733.299-.6627.742-.868 1.33-.196.588-.294 1.302-.294 2.142 0 1.251.224 2.217.672 2.898.448.672 1.078 1.008 1.89 1.008zm5.7812 1.05v-9.94h1.33v6.342l3.472-3.836h1.722l-2.926 3.136 3.052 4.298h-1.582l-2.352-3.43-1.386 1.47v1.96z" fill="#d4d4d4"/><path d="m46.018 728.26v-12.46h1.064v12.46zm.644-1.05c-.756 0-1.4187-.14-1.988-.42-.56-.289-1.008-.681-1.344-1.176-.3267-.504-.518-1.087-.574-1.75l1.386-.084c.0653.467.2007.863.406 1.19.2147.327.4993.574.854.742.3547.159.784.238 1.288.238.4387 0 .812-.051 1.12-.154.308-.112.5413-.275.7-.49.168-.224.252-.495.252-.812 0-.289-.07-.546-.21-.77-.1307-.224-.392-.429-.784-.616-.3827-.187-.9473-.369-1.694-.546-.756-.196-1.3627-.406-1.82-.63-.4573-.233-.7887-.518-.994-.854-.196-.345-.294-.765-.294-1.26 0-.541.1307-1.022.392-1.442.2707-.42.6533-.747 1.148-.98.4947-.243 1.0827-.364 1.764-.364.728 0 1.3533.135 1.876.406s.9333.644 1.232 1.12c.308.467.4993 1.003.574 1.61l-1.386.084c-.0467-.383-.168-.723-.364-1.022-.1867-.299-.4433-.532-.77-.7s-.7233-.252-1.19-.252c-.5787 0-1.0407.14-1.386.42-.336.271-.504.63-.504 1.078 0 .289.0653.532.196.728.14.187.3873.355.742.504.3547.14.8587.289 1.512.448.8307.205 1.4887.448 1.974.728.4947.271.8447.593 1.05.966.2053.364.308.784.308 1.26 0 .569-.1493 1.064-.448 1.484-.2893.42-.6953.747-1.218.98-.5227.224-1.1247.336-1.806.336zm8.9144.014c-.812 0-1.5167-.21-2.114-.63s-1.0593-1.017-1.386-1.792-.49-1.694-.49-2.758.1633-1.983.49-2.758c.3267-.784.7887-1.386 1.386-1.806.5973-.429 1.302-.644 2.114-.644.8213 0 1.5307.215 2.128.644.5973.42 1.0593 1.017 1.386 1.792s.49 1.699.49 2.772c0 1.064-.1633 1.983-.49 2.758s-.7887 1.372-1.386 1.792-1.3067.63-2.128.63zm0-1.274c.8213 0 1.456-.336 1.904-1.008.448-.681.672-1.647.672-2.898 0-.84-.1027-1.554-.308-2.142-.196-.588-.4853-1.031-.868-1.33-.3733-.308-.84-.462-1.4-.462-.5507 0-1.0173.154-1.4.462-.3733.299-.6627.742-.868 1.33-.196.588-.294 1.302-.294 2.142 0 1.251.224 2.217.672 2.898.448.672 1.078 1.008 1.89 1.008z" fill="#d4d4d4"/><path d="m45.4078 773v-8.666h-3.066v-1.274h7.504v1.274h-3.066v8.666zm8.674.168c-.7 0-1.3113-.159-1.834-.476s-.9287-.765-1.218-1.344c-.28-.588-.42-1.279-.42-2.072s.14-1.479.42-2.058c.2893-.579.6953-1.027 1.218-1.344s1.134-.476 1.834-.476c.6907 0 1.2927.159 1.806.476.5227.317.9287.765 1.218 1.344s.434 1.265.434 2.058-.1447 1.484-.434 2.072c-.2893.579-.6953 1.027-1.218 1.344-.5133.317-1.1153.476-1.806.476zm0-1.204c.6533 0 1.162-.238 1.526-.714s.546-1.134.546-1.974c0-.831-.182-1.484-.546-1.96s-.8727-.714-1.526-.714-1.1667.238-1.54.714c-.364.476-.546 1.129-.546 1.96 0 .84.182 1.498.546 1.974.3733.476.8867.714 1.54.714zm7.7848 1.204c-.644 0-1.1994-.159-1.666-.476-.4667-.317-.826-.765-1.078-1.344s-.378-1.269-.378-2.072c0-.793.126-1.479.378-2.058s.6113-1.027 1.078-1.344c.4666-.317 1.022-.476 1.666-.476.504 0 .9566.107 1.358.322.4106.205.7186.499.924.882v-3.542h1.33v9.94h-1.218l-.042-1.12c-.2054.401-.518.719-.938.952-.42.224-.8914.336-1.414.336zm.322-1.204c.42 0 .7746-.107 1.064-.322.2893-.215.5086-.523.658-.924.1586-.411.238-.891.238-1.442 0-.56-.0794-1.041-.238-1.442-.1494-.401-.3687-.705-.658-.91-.2894-.215-.644-.322-1.064-.322-.6347 0-1.1387.238-1.512.714-.364.476-.546 1.129-.546 1.96s.1866 1.489.56 1.974c.3733.476.8726.714 1.498.714zm7.4979 1.204c-.7654 0-1.3767-.177-1.834-.532-.4574-.355-.686-.849-.686-1.484 0-.644.1866-1.148.56-1.512.3826-.364.98-.621 1.792-.77l2.604-.49c0-.597-.14-1.045-.42-1.344s-.7-.448-1.26-.448c-.4947 0-.8867.112-1.176.336-.2894.215-.4854.532-.588.952l-1.386-.098c.14-.719.4806-1.293 1.022-1.722.5506-.439 1.26-.658 2.128-.658.98 0 1.7266.271 2.24.812.5133.532.77 1.274.77 2.226v2.982c0 .177.028.303.084.378.0653.065.168.098.308.098h.28v1.106c-.0374.009-.1027.019-.196.028-.0934.009-.1914.014-.294.014-.336 0-.6114-.051-.826-.154-.2147-.112-.378-.285-.49-.518-.1027-.233-.154-.541-.154-.924l.154.042c-.0747.317-.238.607-.49.868-.2427.252-.5507.453-.924.602-.3734.14-.7794.21-1.218.21zm.182-1.106c.4666 0 .868-.089 1.204-.266.336-.187.5926-.439.77-.756.1866-.317.28-.677.28-1.078v-.504l-2.296.434c-.476.084-.8074.219-.994.406-.1867.187-.28.429-.28.728 0 .327.1166.583.35.77.2333.177.5553.266.966.266zm5.9586 3.038v-1.12h.882c.2613 0 .4527-.042.574-.126.1213-.075.2147-.201.28-.378l.252-.658h-.434l-2.702-7.252h1.428l2.128 6.02 2.03-6.02h1.428l-2.982 8.33c-.1493.42-.3687.723-.658.91-.28.196-.672.294-1.176.294z" fill="#d4d4d4"/><path d="m1353.3 773v-8.666h-3.07v-1.274h7.5v1.274h-3.06v8.666zm8.67.168c-.7 0-1.31-.159-1.83-.476-.53-.317-.93-.765-1.22-1.344-.28-.588-.42-1.279-.42-2.072s.14-1.479.42-2.058c.29-.579.69-1.027 1.22-1.344.52-.317 1.13-.476 1.83-.476.69 0 1.29.159 1.81.476s.93.765 1.21 1.344c.29.579.44 1.265.44 2.058s-.15 1.484-.44 2.072c-.28.579-.69 1.027-1.21 1.344s-1.12.476-1.81.476zm0-1.204c.65 0 1.16-.238 1.53-.714.36-.476.54-1.134.54-1.974 0-.831-.18-1.484-.54-1.96-.37-.476-.88-.714-1.53-.714s-1.17.238-1.54.714c-.36.476-.55 1.129-.55 1.96 0 .84.19 1.498.55 1.974.37.476.89.714 1.54.714zm5.15 1.036v-7.434h1.21l.05 1.862-.18-.056c.09-.411.24-.761.45-1.05.21-.299.47-.527.77-.686.31-.159.65-.238 1.02-.238.65 0 1.17.177 1.57.532s.65.849.76 1.484l-.23-.014c.08-.429.21-.789.41-1.078.2-.299.46-.527.78-.686s.68-.238 1.08-.238c.53 0 .98.112 1.34.336.38.215.66.532.84.952.19.42.28.929.28 1.526v4.788h-1.33v-4.48c0-.653-.12-1.143-.37-1.47-.25-.336-.62-.504-1.11-.504-.33 0-.61.084-.85.252-.25.159-.44.392-.58.7-.13.299-.19.667-.19 1.106v4.396h-1.29v-4.396c0-.653-.11-1.157-.34-1.512-.22-.364-.6-.546-1.12-.546-.33 0-.62.084-.87.252-.24.159-.43.392-.57.7-.13.308-.2.677-.2 1.106v4.396zm15.32.168c-.7 0-1.31-.159-1.84-.476-.52-.317-.93-.765-1.21-1.344-.28-.588-.42-1.279-.42-2.072s.14-1.479.42-2.058.69-1.027 1.21-1.344c.53-.317 1.14-.476 1.84-.476.69 0 1.29.159 1.8.476.53.317.93.765 1.22 1.344s.44 1.265.44 2.058-.15 1.484-.44 2.072c-.29.579-.69 1.027-1.22 1.344-.51.317-1.11.476-1.8.476zm0-1.204c.65 0 1.16-.238 1.52-.714.37-.476.55-1.134.55-1.974 0-.831-.18-1.484-.55-1.96-.36-.476-.87-.714-1.52-.714-.66 0-1.17.238-1.54.714s-.55 1.129-.55 1.96c0 .84.18 1.498.55 1.974s.88.714 1.54.714zm5.15 1.036v-7.434h1.19l.06 1.932-.12-.042c.1-.653.3-1.129.61-1.428.31-.308.73-.462 1.26-.462h.72v1.218h-.71c-.37 0-.69.065-.94.196-.24.131-.43.327-.56.588-.12.261-.18.593-.18.994v4.438zm5.41 0v-7.434h1.19l.06 1.932-.11-.042c.09-.653.29-1.129.6-1.428.32-.308.74-.462 1.26-.462h.73v1.218h-.72c-.37 0-.68.065-.93.196s-.43.327-.56.588-.19.593-.19.994v4.438zm8.4.168c-.7 0-1.31-.159-1.83-.476-.53-.317-.93-.765-1.22-1.344-.28-.588-.42-1.279-.42-2.072s.14-1.479.42-2.058c.29-.579.69-1.027 1.22-1.344.52-.317 1.13-.476 1.83-.476.69 0 1.29.159 1.81.476s.92.765 1.21 1.344.44 1.265.44 2.058-.15 1.484-.44 2.072c-.29.579-.69 1.027-1.21 1.344s-1.12.476-1.81.476zm0-1.204c.65 0 1.16-.238 1.53-.714.36-.476.54-1.134.54-1.974 0-.831-.18-1.484-.54-1.96-.37-.476-.88-.714-1.53-.714s-1.17.238-1.54.714c-.36.476-.55 1.129-.55 1.96 0 .84.19 1.498.55 1.974.37.476.89.714 1.54.714zm6.65 1.036-2.28-7.434h1.43l1.65 6.006 1.71-6.006h1.33l1.7 6.006 1.67-6.006h1.43l-2.28 7.434h-1.59l-1.59-5.488-1.61 5.488z" fill="#d4d4d4"/><g filter="url(#b)"><path d="m644.974 649.106 6.245-9.056zm72.678 20.82-.176 10.998zm47.018-4.343 2.181 10.782zm55.44-15.544 2.757 10.649zm145.223-18.668-1.393 10.911zm36.757 26.217-9.731 5.132zm1.23 39.366 9.06 6.234zm-68.295 64.691 7.232 8.289zm-58.685 62.134 8.722 6.702zm-19.124 43.424-10.999.11zm5.044 10.187-4.435 10.066zm9.606 2.07 1.203-10.934zm30.088 1.298-.047-11zm61.581-6.858 2.028 10.811zm.407-.077 2.029 10.812zm33.278-.289-4.302 10.124zm-2.193 37.175-6.018-9.208zm-40.891 5.439.034-11-1 21.958zm.539.121 6.835-8.618-.001-.001zm-347.675-341.269v34.253h22v-34.253zm0 34.253c0 23.723 16.42 38.351 31.73 48.909l12.489-18.112c-14.51-10.006-22.219-18.873-22.219-30.797zm31.73 48.909c23.96 16.523 50.688 22.315 78.746 22.762l.351-21.997c-25.211-.402-47.28-5.548-66.608-18.877zm78.746 22.762c16.718.267 33.045-1.257 49.375-4.559l-4.361-21.564c-14.794 2.992-29.542 4.367-44.663 4.126zm49.375-4.559c10.014-2.025 19.649-4.841 28.87-7.662 9.363-2.865 18.142-5.683 27.146-8.015l-5.514-21.297c-9.611 2.488-19.095 5.529-28.069 8.275-9.116 2.789-17.893 5.335-26.794 7.135zm56.016-15.677c46.266-11.979 95.381-24.237 141.073-18.406l2.786-21.823c-50.604-6.458-103.877 7.151-149.373 18.932zm141.073-18.406c8.29 1.058 13.483 3.216 17.335 6.096 3.939 2.946 7.378 7.318 11.084 14.342l19.461-10.264c-4.5-8.532-9.8-16.038-17.371-21.697-7.655-5.724-16.737-8.897-27.723-10.3zm28.419 20.438c3.404 6.453 5.204 11.368 5.571 15.604.328 3.781-.425 7.669-3.677 12.397l18.127 12.467c6-8.729 8.26-17.659 7.47-26.764-.75-8.651-4.19-16.691-8.03-23.968zm1.894 28.001c-8.087 11.759-18.463 22.073-30.081 32.201-5.805 5.061-11.813 9.984-17.964 15.024-6.105 5.003-12.355 10.124-18.414 15.41l14.463 16.578c5.76-5.025 11.745-9.931 17.895-14.971 6.106-5.003 12.376-10.139 18.476-15.458 12.195-10.63 24.142-22.35 33.752-36.317zm-66.459 62.635c-22.267 19.426-42.363 40.538-60.177 63.72l17.445 13.405c16.866-21.949 35.946-42.009 57.195-60.547zm-60.177 63.72c-10.044 13.072-21.609 29.395-21.4 50.237l21.999-.22c-.125-12.501 6.676-23.377 16.846-36.612zm-21.4 50.237c.041 4.122.749 15.358 11.608 20.143l8.871-20.132c.376.166.81.461 1.18.872.346.384.487.7.518.779.025.061-.028-.052-.082-.417-.053-.36-.09-.841-.096-1.465zm11.608 20.143c4.727 2.083 9.892 2.614 12.837 2.938l2.407-21.868c-3.42-.377-5.225-.696-6.373-1.202zm12.837 2.938c10.532 1.159 21.165 1.408 31.339 1.364l-.094-22c-9.81.042-19.501-.205-28.838-1.232zm31.339 1.364c21.939-.093 42.842-3.161 63.562-7.047l-4.056-21.623c-20.213 3.791-39.612 6.585-59.6 6.67zm63.562-7.047.408-.076-4.057-21.623-.408.076zm.408-.076c5.109-.959 10.331-1.925 15.385-2.231 5.149-.311 8.981.158 11.562 1.254l8.602-20.247c-7.141-3.036-14.937-3.363-21.491-2.967-6.649.402-13.205 1.646-18.116 2.568zm26.947-.977c.998.424 1.386.917 1.677 1.616.395.951.681 2.642.338 5.054-.751 5.291-3.794 9.781-5.924 11.173l12.031 18.416c8.68-5.67 14.27-16.567 15.68-26.497 1.44-10.184-1.2-24.063-15.2-30.009zm-3.909 17.843c-3.268 2.136-7.95 3.319-14.398 3.72-6.75.42-12.886-.049-20.441-.073l-.068 22c5.588.017 14.276.503 21.875.03 7.901-.491 17.093-2.049 25.063-7.261zm-35.839 25.605c-.088-.008-.455-.041-.963-.147-.255-.054-.735-.165-1.327-.377-.47-.169-1.713-.642-3.039-1.694l13.668-17.238c-2.267-1.798-4.686-2.202-4.78-2.222-.698-.146-1.295-.208-1.627-.237zm-5.33-2.218c-1.988-1.576-2.721-3.388-2.931-3.962-.138-.375-.207-.66-.239-.808-.033-.154-.044-.241-.044-.242 0-.004.005.04.011.139.005.098.01.231.012.4.004.344-.005.769-.029 1.275-.051 1.033-.15 2.134-.259 3.272-.05.526-.108 1.127-.151 1.646-.037.444-.097 1.205-.097 1.958h22c0 .167.008-.025.15-1.524.106-1.121.253-2.685.331-4.285.073-1.517.114-3.553-.13-5.55-.122-.998-.359-2.375-.894-3.839-.494-1.35-1.597-3.764-4.06-5.717zm-3.727 3.678c0 25.244-1.639 53.008 5.925 80.364l21.204-5.86c-6.547-23.681-5.129-47.392-5.129-74.504zm10.023-12.418-.071 22 2.004-43.915zm.071-22c-.168 0-.333-.001-.497-.001v44c.119 0 .238.001.355.001zm-.497-.001c-.385 0 .238-.012 1.084.048.172.013.491.038.891.083.236.027 1.228.137 2.472.425.495.115 2.1.492 4.02 1.351.933.417 2.867 1.351 4.956 3.063 1.896 1.553 6.043 5.487 7.541 12.281 1.725 7.828-1.107 14.327-4.043 18.145-2.527 3.287-5.344 5.017-6.528 5.693-2.495 1.425-4.686 2.004-5.177 2.136-1.469.397-2.656.545-2.878.574-.445.058-.799.09-.988.106-.389.032-.691.047-.823.053-.682.03-1.28.024-2.034-.042l3.866-43.83c-1.411-.124-2.767-.13-3.769-.086-.173.008-.508.024-.923.059-.201.017-.566.05-1.02.109-.231.031-1.424.18-2.898.578-.492.133-2.686.712-5.181 2.137-1.185.677-4.002 2.408-6.529 5.694-2.936 3.819-5.769 10.318-4.043 18.146 1.497 6.794 5.645 10.728 7.541 12.282 2.09 1.712 4.024 2.646 4.957 3.064 1.921.86 3.529 1.238 4.027 1.353 1.248.289 2.248.4 2.494.428.41.047.742.073.931.086.97.07 1.894.064 2.054.064z" fill="url(#i)" mask="url(#n)"/></g><g fill="#0b0b0b" fill-opacity=".1"><path d="m17 101h9v1h-9z"/><path d="m17 163h9v1h-9z"/><path d="m17 225h9v1h-9z"/><path d="m17 287h9v1h-9z"/><path d="m17 349h9v1h-9z"/><path d="m17 411h9v1h-9z"/><path d="m17 473h9v1h-9z"/><path d="m17 535h9v1h-9z"/><path d="m17 597h9v1h-9z"/><path d="m17 659h9v1h-9z"/><path d="m17 721h9v1h-9z"/></g><g filter="url(#c)"><path d="m241.011 953.621c.43.436.803.865 1.077 1.208.064.08.184.232.324.425.068.094.189.264.331.482.075.115.444.677.797 1.455l.002.005c.131.287.632 1.391.859 2.908.087.579 1.082 7.295-5.228 11.073-1.435.859-2.842 1.268-4.052 1.444-.375.381-.756.777-1.145 1.183l-.117.122c-.287.299-.6.626-.878.911-.271.277-.739.751-1.233 1.188-2.45 2.163-4.918 4.381-7.418 6.626-14.237 12.789-29.47 26.469-47.886 36.179l-10.258-19.462c15.799-8.328 28.745-19.928 43.048-32.744 2.495-2.236 5.032-4.509 7.633-6.808-1.148-1.319-2.27-2.668-3.284-3.994-3.876-5.07-7.909-11.834-8.613-20.191-.762-9.041 3.844-18.771 9.514-25.194 5.586-6.328 16.34-13.692 28.771-8.48 7.453 3.124 11.723 9.63 14.227 14.15 1.334 2.409 2.492 4.885 3.436 6.903l.018.038c1.021 2.184 1.762 3.758 2.478 5.028 7.694 13.654 15.529 26.1 25.323 37.299 1.64 1.874 3.836 3.641 6.903 5.867.511.372 1.063.766 1.644 1.182 2.553 1.827 5.67 4.056 8.422 6.484.45.396.832.729 1.175 1.017 7.326-6.498 9.165-13.622 12.486-26.487.141-.546.285-1.101.431-1.667 5.736-22.15 9.131-44.46 10.453-67.118.358-6.139.526-12.343.699-18.759l.003-.109c.171-6.325.347-12.856.726-19.4.764-13.175 2.369-26.898 6.655-40.575 2.72-8.68 7.471-15.144 13.784-19.917 6.038-4.566 13.061-7.241 19.798-9.247 7.828-2.33 15.651-3.704 23.6-2.564 8.179 1.172 15.378 4.835 22.257 10.666 30.453 25.815 48.79 64.851 64.024 97.47 2.664 5.703 5.049 11.58 7.307 17.146.522 1.286 1.037 2.555 1.547 3.801 2.782 6.799 5.499 13.133 8.726 19.078 5.388 9.927 11.769 18.906 19.355 27.188 11.862 12.949 27.389 20.849 46.049 24.284 13.332 2.454 22.612 1.858 30.264-4.9l22.278-19.675 14.563 16.49-22.277 19.675c-15.533 13.718-33.714 12.825-48.811 10.046-22.608-4.161-42.706-14.049-58.288-31.06-8.818-9.626-16.239-20.075-22.469-31.553-3.834-7.064-6.925-14.335-9.751-21.24-.565-1.38-1.116-2.739-1.661-4.08-2.243-5.525-4.364-10.751-6.765-15.891-15.637-33.48-32.163-67.827-58.317-89.997-4.451-3.774-7.926-5.208-11.153-5.671-3.456-.495-7.77-.042-14.202 1.873-5.85 1.741-9.898 3.511-12.805 5.709-2.633 1.99-4.7 4.608-6.06 8.948-3.514 11.214-4.968 22.908-5.684 35.269-.359 6.185-.527 12.413-.701 18.829l-.001.059c-.171 6.34-.347 12.868-.728 19.388-1.401 24.022-5.007 47.754-11.117 71.352-.245.944-.487 1.902-.732 2.87-3.015 11.907-6.441 25.436-19.358 36.644-1.625 1.409-4.158 3.39-7.362 4.69-3.398 1.38-8.109 2.19-13.126.17-4.192-1.684-7.482-4.59-9.191-6.101-.06-.052-.117-.103-.173-.152-1.832-1.616-3.789-3.019-6.242-4.779-.69-.495-1.419-1.018-2.196-1.582-3.235-2.348-7.161-5.327-10.539-9.188-11.255-12.869-19.953-26.827-27.929-40.981-1.155-2.049-2.223-4.332-3.115-6.241l-.125-.267c-.991-2.119-1.85-3.939-2.771-5.602-2.023-3.653-3.242-4.418-3.488-4.521-.008-.004-.014-.006-.02-.008-.053.007-.186.032-.409.119-.726.284-1.95 1.062-3.343 2.64-1.357 1.537-2.511 3.429-3.257 5.281-.788 1.953-.855 3.182-.828 3.507.193 2.29 1.381 5.03 4.168 8.675 1.945 2.543 3.909 4.64 6.139 7.021 1.183 1.263 2.442 2.607 3.812 4.14zm-6.255-31.386c.003 0 .002 0-.003 0z" stroke="url(#j)" stroke-opacity=".3" stroke-width="22"/></g><path d="m1213 637v-637" stroke="url(#k)" stroke-dasharray="4 4" stroke-width="1.5"/><g filter="url(#d)"><path d="m1208 203c0-2.761 2.24-5 5-5 2.76 0 5 2.239 5 5 0 2.761-2.24 5-5 5-2.76 0-5-2.239-5-5z" fill="#fff"/></g><g filter="url(#e)"><path d="m1100 122c0-5.523 4.48-10 10-10h205c5.52 0 10 4.477 10 10v40c0 5.523-4.48 10-10 10h-205c-5.52 0-10-4.477-10-10z" fill="#fff"/><path d="m1108.95 135c0-.7.1-1.33.32-1.89.22-.569.61-1.111 1.16-1.624.56-.513 1.34-1.031 2.33-1.554.45-.243.82-.467 1.1-.672s.49-.425.62-.658.19-.518.19-.854c0-.345-.07-.644-.22-.896-.15-.261-.37-.467-.67-.616-.29-.149-.66-.224-1.09-.224-.7 0-1.26.182-1.67.546-.4.364-.65.882-.76 1.554l-1.26-.084c.12-.971.49-1.745 1.12-2.324.64-.579 1.49-.868 2.57-.868.68 0 1.26.121 1.75.364.48.243.85.583 1.1 1.022.26.429.39.929.39 1.498 0 .504-.08.943-.25 1.316-.17.364-.45.705-.85 1.022-.39.317-.94.658-1.63 1.022-.89.476-1.57.957-2.04 1.442-.46.485-.7.919-.73 1.302h5.5v1.176zm10.11 0c0-1.027.14-2.049.42-3.066.28-1.027.68-2.021 1.21-2.982s1.16-1.867 1.9-2.716h-5.74v-1.176h7.06v1.092c-.83.952-1.52 1.895-2.06 2.828-.53.924-.93 1.881-1.18 2.87-.25.98-.38 2.03-.38 3.15zm9.64 0v-9.94h6.24v1.176h-5.64l.6-.616v4.564l-.6-.616h5.39v1.148h-5.39l.6-.616v4.9zm10.56.168c-.7 0-1.3-.159-1.82-.476-.5-.317-.89-.765-1.17-1.344-.27-.588-.41-1.274-.41-2.058s.14-1.465.41-2.044c.28-.579.67-1.027 1.16-1.344.5-.327 1.1-.49 1.78-.49.64 0 1.21.154 1.71.462.49.299.87.737 1.14 1.316.28.579.42 1.283.42 2.114v.35h-5.39c.05.793.26 1.391.63 1.792.39.401.9.602 1.54.602.49 0 .89-.112 1.19-.336.32-.233.54-.537.66-.91l1.26.098c-.19.663-.57 1.209-1.12 1.638-.54.42-1.2.63-1.99.63zm-2.17-4.55h4.11c-.06-.719-.27-1.246-.63-1.582s-.81-.504-1.36-.504c-.57 0-1.04.177-1.42.532-.36.345-.59.863-.7 1.554zm10.39 4.55c-.51 0-.97-.112-1.37-.336-.4-.233-.71-.551-.93-.952l-.04 1.12h-1.06v-9.94h1.17v3.556c.19-.308.48-.583.87-.826.39-.252.85-.378 1.36-.378.65 0 1.22.159 1.69.476.48.317.85.765 1.11 1.344s.39 1.265.39 2.058-.13 1.479-.39 2.058-.63 1.027-1.11 1.344c-.47.317-1.04.476-1.69.476zm-.07-1.12c.62 0 1.12-.247 1.48-.742.37-.495.55-1.167.55-2.016 0-.859-.18-1.531-.55-2.016-.36-.495-.85-.742-1.45-.742-.46 0-.85.112-1.18.336-.33.215-.58.527-.75.938s-.26.905-.26 1.484c0 .56.09 1.05.26 1.47.17.411.42.728.74.952s.71.336 1.16.336zm8.21.952c0-.7.11-1.33.33-1.89.22-.569.61-1.111 1.16-1.624.56-.513 1.33-1.031 2.32-1.554.46-.243.83-.467 1.11-.672s.48-.425.61-.658.2-.518.2-.854c0-.345-.08-.644-.22-.896-.15-.261-.38-.467-.68-.616-.29-.149-.65-.224-1.09-.224-.7 0-1.25.182-1.66.546s-.66.882-.76 1.554l-1.26-.084c.11-.971.48-1.745 1.12-2.324.63-.579 1.49-.868 2.56-.868.68 0 1.27.121 1.75.364.49.243.86.583 1.11 1.022.26.429.39.929.39 1.498 0 .504-.08.943-.25 1.316-.17.364-.46.705-.86 1.022-.39.317-.93.658-1.62 1.022-.9.476-1.58.957-2.04 1.442s-.7.919-.73 1.302h5.5v1.176zm12.33.224c-.8 0-1.5-.21-2.09-.63s-1.04-1.017-1.37-1.792c-.32-.775-.48-1.694-.48-2.758s.16-1.983.48-2.758c.33-.784.78-1.386 1.37-1.806.59-.429 1.29-.644 2.09-.644.81 0 1.51.215 2.1.644.59.42 1.04 1.017 1.36 1.792s.49 1.699.49 2.772c0 1.064-.17 1.983-.49 2.758s-.77 1.372-1.36 1.792-1.29.63-2.1.63zm0-1.176c.86 0 1.52-.345 1.99-1.036.46-.7.7-1.689.7-2.968 0-.859-.11-1.587-.33-2.184-.2-.607-.5-1.064-.91-1.372-.39-.317-.87-.476-1.45-.476-.57 0-1.06.159-1.46.476-.39.308-.69.765-.91 1.372-.2.597-.31 1.325-.31 2.184 0 1.279.24 2.268.7 2.968.47.691 1.13 1.036 1.98 1.036zm5.35.952c0-.7.11-1.33.32-1.89.23-.569.61-1.111 1.16-1.624.56-.513 1.34-1.031 2.33-1.554.46-.243.82-.467 1.1-.672s.49-.425.62-.658.2-.518.2-.854c0-.345-.08-.644-.23-.896-.15-.261-.37-.467-.67-.616-.29-.149-.65-.224-1.09-.224-.7 0-1.26.182-1.67.546-.4.364-.65.882-.75 1.554l-1.26-.084c.11-.971.48-1.745 1.12-2.324.63-.579 1.49-.868 2.56-.868.68 0 1.26.121 1.75.364.48.243.85.583 1.1 1.022.27.429.4.929.4 1.498 0 .504-.09.943-.26 1.316-.16.364-.45.705-.85 1.022-.39.317-.93.658-1.62 1.022-.9.476-1.58.957-2.05 1.442-.45.485-.7.919-.73 1.302h5.51v1.176zm12.2.224c-.7 0-1.31-.117-1.82-.35s-.91-.56-1.21-.98c-.29-.42-.45-.905-.5-1.456l1.26-.084c.07.56.31.985.71 1.274.41.28.93.42 1.56.42.7 0 1.25-.196 1.66-.588.41-.401.62-.952.62-1.652 0-.467-.09-.868-.28-1.204-.18-.345-.44-.611-.79-.798-.34-.187-.76-.28-1.24-.28-.46 0-.87.098-1.25.294-.37.196-.64.471-.8.826h-1.28l.65-5.586h5.58v1.176h-4.47l-.45 3.668-.22-.224c.15-.289.34-.527.59-.714.25-.196.53-.341.85-.434.33-.103.67-.154 1.02-.154.67 0 1.25.149 1.75.448.51.289.9.695 1.18 1.218.28.513.42 1.101.42 1.764s-.15 1.255-.45 1.778c-.3.513-.71.915-1.25 1.204-.53.289-1.14.434-1.84.434z" fill="#9e9e9e" opacity=".5"/><g fill="#2e2e2e" fill-opacity=".8" opacity=".5"><path d="m1112.38 160.26v-12.46h1.07v12.46zm.65-1.064c-.78 0-1.45-.14-2.02-.42-.57-.289-1.02-.686-1.36-1.19-.32-.504-.51-1.087-.57-1.75l1.53-.084c.05.448.18.831.39 1.148.2.308.47.546.81.714.35.159.76.238 1.25.238.42 0 .78-.051 1.07-.154.3-.112.53-.271.68-.476s.23-.462.23-.77c0-.28-.06-.523-.19-.728-.13-.215-.38-.411-.76-.588-.37-.187-.92-.364-1.64-.532-.77-.187-1.39-.397-1.86-.63-.46-.233-.8-.518-1.01-.854-.19-.345-.29-.775-.29-1.288 0-.551.14-1.036.41-1.456.27-.429.65-.761 1.14-.994.51-.243 1.11-.364 1.81-.364.75 0 1.38.135 1.9.406.54.271.96.644 1.26 1.12.31.476.5 1.022.58 1.638l-1.53.084c-.04-.364-.16-.691-.35-.98-.18-.289-.42-.513-.74-.672-.32-.168-.7-.252-1.15-.252-.56 0-1 .131-1.33.392-.32.261-.49.607-.49 1.036 0 .28.07.513.2.7.14.187.38.35.71.49.35.14.84.285 1.47.434.84.196 1.51.434 2 .714.5.271.85.593 1.07.966.21.373.32.798.32 1.274 0 .579-.15 1.083-.45 1.512-.3.42-.71.747-1.24.98-.54.224-1.15.336-1.85.336zm8.67.028c-.75 0-1.42-.112-2-.336s-1.03-.555-1.36-.994c-.32-.439-.47-.975-.47-1.61 0-.728.22-1.33.65-1.806.44-.476 1.03-.793 1.77-.952l.03.28c-.6-.14-1.08-.397-1.45-.77-.35-.373-.53-.863-.53-1.47 0-.532.14-1.003.41-1.414s.65-.733 1.15-.966 1.1-.35 1.8-.35c.69 0 1.29.117 1.79.35.51.233.89.555 1.15.966.27.411.41.882.41 1.414 0 .607-.18 1.097-.53 1.47-.36.364-.84.621-1.45.77l.03-.28c.75.159 1.34.476 1.78.952s.66 1.078.66 1.806c0 .635-.17 1.171-.49 1.61s-.77.77-1.35.994c-.57.224-1.24.336-2 .336zm0-1.386c.69 0 1.24-.14 1.64-.42.41-.289.62-.719.62-1.288 0-.541-.19-.975-.56-1.302s-.93-.49-1.7-.49c-.76 0-1.33.163-1.71.49-.37.327-.56.761-.56 1.302 0 .569.21.999.62 1.288.41.28.96.42 1.65.42zm0-4.746c.57 0 1.01-.117 1.32-.35.32-.243.47-.611.47-1.106 0-.429-.15-.775-.46-1.036-.3-.261-.74-.392-1.33-.392s-1.03.131-1.34.392-.46.607-.46 1.036c0 .495.15.863.47 1.106.32.233.76.35 1.33.35zm9.77 5.908v-2.072h-5.01v-1.288l4.83-6.58h1.7v6.496h1.21v1.372h-1.21v2.072zm-3.29-3.444h3.29v-4.396zm7.35 5.642.7-2.198h-.77v-1.764h1.81v1.554l-.88 2.408zm6.79-1.974c-.74 0-1.37-.117-1.89-.35-.52-.243-.93-.579-1.23-1.008s-.47-.924-.52-1.484l1.56-.098c.07.523.29.915.65 1.176.38.252.85.378 1.43.378.65 0 1.17-.182 1.54-.546.38-.364.58-.873.58-1.526 0-.429-.09-.798-.27-1.106-.17-.317-.41-.56-.73-.728-.32-.177-.69-.266-1.13-.266s-.83.093-1.18.28c-.34.187-.59.443-.74.77h-1.57l.67-5.656h5.83v1.386h-4.48l-.42 3.402-.24-.21c.16-.28.36-.509.6-.686.24-.187.52-.327.84-.42.33-.103.67-.154 1.04-.154.67 0 1.25.145 1.75.434s.89.691 1.17 1.204.42 1.097.42 1.75c0 .681-.15 1.283-.46 1.806s-.74.929-1.29 1.218-1.19.434-1.93.434zm7.15-.224v-7.084h-2.1v-1.218h.85c.38 0 .68-.047.91-.14.24-.103.41-.271.51-.504.1-.243.15-.574.15-.994h1.19v9.94zm5.46 0c0-1.027.14-2.039.41-3.038.28-1.008.67-1.974 1.18-2.898.51-.933 1.12-1.806 1.83-2.618h-5.56v-1.386h7.16v1.288c-.79.896-1.44 1.792-1.96 2.688-.52.887-.9 1.82-1.15 2.8-.24.971-.37 2.025-.37 3.164zm5.61 0v-1.764h1.8v1.764zm6.55.224c-.86 0-1.56-.205-2.09-.616s-.9-.957-1.1-1.638l1.52-.098c.11.308.31.551.58.728.28.168.64.252 1.09.252.78 0 1.37-.308 1.78-.924s.62-1.615.63-2.996l.28.07c-.24.588-.59 1.036-1.07 1.344-.46.308-1.02.462-1.65.462-.65 0-1.23-.14-1.72-.42-.5-.289-.88-.691-1.16-1.204s-.42-1.111-.42-1.792c0-.737.15-1.367.44-1.89.3-.532.72-.943 1.25-1.232s1.15-.434 1.85-.434c.86 0 1.56.191 2.1.574.55.383.95.924 1.22 1.624.27.691.4 1.521.4 2.492 0 .84-.07 1.61-.21 2.31s-.37 1.302-.68 1.806-.72.896-1.22 1.176c-.5.271-1.1.406-1.82.406zm.18-4.718c.42 0 .79-.084 1.11-.252.31-.168.56-.406.74-.714.18-.317.26-.7.26-1.148 0-.429-.08-.807-.25-1.134-.16-.336-.39-.597-.7-.784-.31-.196-.67-.294-1.1-.294-.42 0-.79.093-1.1.28-.29.187-.53.448-.7.784-.15.327-.23.705-.23 1.134 0 .439.08.817.25 1.134s.39.565.68.742c.3.168.65.252 1.04.252zm5.41 4.494c0-.747.12-1.414.34-2.002s.61-1.134 1.15-1.638 1.29-1.008 2.24-1.512c.45-.233.82-.448 1.09-.644.28-.205.48-.415.6-.63s.18-.476.18-.784c0-.317-.07-.588-.21-.812-.13-.233-.32-.415-.58-.546-.27-.14-.6-.21-1-.21-.63 0-1.14.173-1.51.518-.36.336-.59.821-.69 1.456l-1.56-.098c.11-.999.49-1.792 1.13-2.38.65-.588 1.53-.882 2.63-.882.71 0 1.31.126 1.81.378.5.243.88.583 1.15 1.022s.4.947.4 1.526c0 .504-.08.938-.25 1.302s-.45.705-.84 1.022c-.39.308-.92.639-1.6.994-.86.457-1.5.91-1.94 1.358-.44.439-.67.831-.7 1.176h5.33v1.386z"/><path d="m1214.06 155.556v-1.288h6.75v1.288zm2.73 2.73v-6.748h1.29v6.748zm8.51 1.974v-12.474h1.08v12.474zm.66-1.064c-.72 0-1.35-.14-1.89-.42-.54-.289-.96-.691-1.28-1.204s-.5-1.115-.56-1.806l1.49-.098c.06.476.19.877.39 1.204.19.327.45.574.77.742.32.159.69.238 1.12.238.44 0 .8-.051 1.09-.154.29-.112.51-.271.66-.476s.22-.453.22-.742c0-.299-.07-.551-.21-.756-.13-.215-.38-.406-.75-.574-.38-.168-.93-.345-1.66-.532-.66-.177-1.2-.387-1.63-.63-.43-.252-.75-.555-.96-.91-.19-.355-.29-.77-.29-1.246 0-.569.13-1.059.39-1.47.27-.42.66-.742 1.15-.966.49-.233 1.09-.35 1.79-.35.69 0 1.28.131 1.77.392.49.252.88.611 1.16 1.078.29.467.46 1.017.53 1.652l-1.48.084c-.05-.383-.15-.714-.31-.994s-.38-.495-.66-.644-.63-.224-1.05-.224c-.58 0-1.03.121-1.36.364-.32.243-.49.579-.49 1.008 0 .289.07.527.2.714s.36.355.68.504c.33.14.8.294 1.4.462.81.215 1.44.457 1.91.728.47.261.81.579 1.02.952.21.364.31.817.31 1.358s-.15 1.017-.44 1.428-.69.728-1.21.952-1.12.336-1.82.336zm4.74-.196c0-.737.1-1.395.32-1.974.21-.579.59-1.12 1.13-1.624.55-.513 1.31-1.027 2.28-1.54.42-.215.77-.42 1.03-.616s.45-.406.57-.63.18-.495.18-.812c0-.327-.06-.607-.19-.84s-.33-.415-.59-.546c-.26-.14-.59-.21-.98-.21-.64 0-1.14.168-1.5.504-.35.336-.58.817-.67 1.442l-1.53-.098c.11-.98.47-1.759 1.11-2.338.63-.588 1.5-.882 2.59-.882.71 0 1.31.121 1.79.364.5.243.87.583 1.12 1.022s.38.947.38 1.526c0 .513-.09.957-.25 1.33-.17.373-.45.719-.84 1.036-.4.317-.93.658-1.61 1.022-.57.308-1.05.611-1.43.91-.37.289-.66.569-.86.84-.18.261-.28.504-.3.728h5.3v1.386zm11.89.224c-.66 0-1.24-.117-1.73-.35-.49-.243-.88-.574-1.17-.994-.28-.429-.44-.919-.49-1.47l1.53-.098c.06.513.26.901.59 1.162.32.252.75.378 1.27.378.59 0 1.06-.177 1.4-.532.35-.364.52-.877.52-1.54 0-.429-.08-.803-.24-1.12-.15-.317-.36-.555-.64-.714-.28-.168-.62-.252-1.01-.252-.36 0-.71.093-1.04.28-.31.177-.54.425-.67.742l-1.55-.028.64-5.628h5.48v1.386h-4.2l-.41 3.43-.29-.21c.14-.28.34-.513.57-.7.24-.187.51-.327.8-.42.3-.103.59-.154.89-.154.65 0 1.21.145 1.68.434.49.289.86.691 1.12 1.204s.4 1.101.4 1.764-.15 1.255-.44 1.778-.69.929-1.22 1.218c-.51.289-1.11.434-1.79.434zm8.45 0c-.76 0-1.42-.173-1.96-.518-.53-.345-.94-.849-1.22-1.512-.27-.672-.4-1.479-.4-2.422 0-.821.07-1.591.21-2.31s.36-1.349.67-1.89.71-.966 1.22-1.274c.5-.308 1.12-.462 1.86-.462.62 0 1.13.103 1.54.308.42.196.76.476 1.01.84.26.364.46.779.59 1.246l-1.52.126c-.09-.345-.26-.621-.51-.826-.25-.215-.62-.322-1.11-.322-.5 0-.94.145-1.3.434s-.64.728-.84 1.316c-.21.588-.32 1.339-.34 2.254l-.36-.056c.1-.327.27-.63.52-.91s.56-.504.93-.672c.38-.177.81-.266 1.29-.266.66 0 1.23.14 1.71.42.49.271.86.663 1.13 1.176.27.504.41 1.092.41 1.764 0 .737-.15 1.372-.45 1.904-.3.523-.71.929-1.23 1.218s-1.14.434-1.85.434zm0-1.386c.62 0 1.1-.187 1.46-.56s.54-.901.54-1.582c0-.635-.16-1.134-.5-1.498-.34-.373-.8-.56-1.39-.56-.42 0-.79.084-1.12.252-.31.168-.57.406-.75.714s-.27.672-.27 1.092c0 .411.08.779.24 1.106.17.327.41.583.71.77.31.177.67.266 1.08.266zm11.47 2.702c-.64-.98-1.13-1.974-1.46-2.982-.31-1.008-.47-2.021-.47-3.038 0-2.063.64-4.069 1.93-6.02h1.32c-1.17 2.016-1.75 4.023-1.75 6.02 0 .999.14 2.002.43 3.01.3.999.74 2.002 1.32 3.01zm4.71-4.984v-1.288h6.75v1.288zm2.73 2.73v-6.748h1.29v6.748zm6.58-.77 3.81-7.042 1.12.07-3.81 7.042zm2.46 1.708c-.73 0-1.36-.21-1.89-.63s-.94-1.017-1.22-1.792-.42-1.694-.42-2.758c0-1.073.14-1.997.42-2.772s.69-1.372 1.22-1.792c.53-.429 1.16-.644 1.89-.644.74 0 1.37.215 1.89.644.53.42.94 1.017 1.22 1.792s.42 1.699.42 2.772c0 1.064-.14 1.983-.42 2.758s-.69 1.372-1.22 1.792c-.52.42-1.15.63-1.89.63zm0-1.372c.42 0 .78-.149 1.07-.448.29-.308.52-.747.68-1.316.17-.569.25-1.251.25-2.044 0-.812-.08-1.503-.25-2.072-.16-.569-.39-1.003-.68-1.302-.29-.308-.65-.462-1.07-.462-.41 0-.76.154-1.06.462-.3.299-.53.733-.7 1.302-.16.569-.24 1.26-.24 2.072 0 .793.08 1.475.24 2.044.17.569.4 1.008.7 1.316.3.299.65.448 1.06.448zm7.44 1.148v-1.848h1.91v1.848zm10.39 0v-2.1h-4.74v-1.274l4.58-6.566h1.63v6.482h1.19v1.358h-1.19v2.1zm-3.29-3.458h3.29v-4.522zm8.59-1.666c-.57 0-1.05-.21-1.44-.63-.4-.42-.59-1.031-.59-1.834 0-.812.19-1.423.59-1.834.39-.42.87-.63 1.44-.63.58 0 1.06.21 1.44.63.39.411.59 1.022.59 1.834 0 .803-.2 1.414-.59 1.834-.38.42-.86.63-1.44.63zm0-.938c.28 0 .5-.131.66-.392s.25-.639.25-1.134-.09-.873-.25-1.134-.38-.392-.66-.392-.51.131-.67.392-.24.639-.24 1.134.08.873.24 1.134.39.392.67.392zm-1.46 6.062 5.9-9.94h1.13l-5.89 9.94zm5.57.112c-.58 0-1.06-.21-1.45-.63s-.58-1.031-.58-1.834c0-.812.19-1.423.58-1.834.39-.42.87-.63 1.45-.63.57 0 1.05.21 1.45.63.39.411.58 1.022.58 1.834 0 .803-.19 1.414-.58 1.834-.4.42-.88.63-1.45.63zm0-.938c.28 0 .5-.131.66-.392.17-.261.25-.639.25-1.134s-.08-.873-.25-1.134c-.16-.261-.38-.392-.66-.392s-.5.131-.67.392c-.16.261-.24.639-.24 1.134s.08.873.24 1.134c.17.261.39.392.67.392zm6.03 2.366h-1.31c.57-1.008 1.01-2.011 1.3-3.01.3-1.008.45-2.011.45-3.01 0-1.997-.59-4.004-1.75-6.02h1.31c1.29 1.951 1.93 3.957 1.93 6.02 0 1.017-.16 2.03-.49 3.038-.31 1.008-.79 2.002-1.44 2.982z"/></g></g><path d="m245 733v-637" stroke="url(#l)" stroke-dasharray="4 4" stroke-width="1.5"/><g filter="url(#f)"><path d="m240 478c0-2.761 2.239-5 5-5 2.761 0 5 2.239 5 5 0 2.761-2.239 5-5 5-2.761 0-5-2.239-5-5z" fill="#fff"/></g></g></svg>