<svg width="1440" height="1440" viewBox="0 0 1440 1440" fill="none" xmlns="http://www.w3.org/2000/svg">
<g clip-path="url(#clip0_2002_1397)">
<path d="M34.9737 701.162L-3 720H1440V93L1402.03 122.006L1364.05 158.043L1326.08 202.149L1288.11 208.627L1250.13 241.02L1212.16 202.149L1174.18 224.176L1136.21 217.697L1098.24 263.047L1060.26 330.503L1022.29 381.035L984.316 430.132L946.342 435.65L908.368 430.132L870.395 459.809L832.421 483.991L794.447 477.392L756.474 492.038L718.5 477.392L680.526 492.992L642.553 523.493L604.579 521.152L566.605 505.572L528.632 527.695L490.658 556.703L452.684 542.24L414.711 533.796L376.737 529.049L338.763 546.995L300.789 571.708L262.816 624.092L224.842 624.666L186.868 614.304L148.895 626.083L110.921 647.516L72.9474 692.807L34.9737 701.162Z" fill="url(#paint0_radial_2002_1397)" fill-opacity="0.1"/>
<path d="M-3 720L34.9737 701.162L72.9474 692.807L110.921 647.516L148.895 626.083L186.868 614.304L224.842 624.666L262.816 624.092L300.789 571.708L338.763 546.995L376.737 529.049L414.711 533.796L452.684 542.24L490.658 556.703L528.632 527.695L566.605 505.572L604.579 521.152L642.553 523.493L680.526 492.992L718.5 477.392L756.474 492.038L794.447 477.392L832.421 483.991L870.395 459.809L908.368 430.132L946.342 435.65L984.316 430.132L1022.29 381.035L1060.26 330.503L1098.24 263.047L1136.21 217.697L1174.18 224.176L1212.16 202.149L1250.13 241.02L1288.11 208.627L1326.08 202.149L1364.05 158.043L1402.03 122.006L1440 93" stroke="#E7E7E7" stroke-width="2" stroke-miterlimit="16"/>
<path d="M45.018 107.26V94.8H46.082V107.26H45.018ZM45.662 106.21C44.906 106.21 44.2433 106.07 43.674 105.79C43.114 105.501 42.666 105.109 42.33 104.614C42.0033 104.11 41.812 103.527 41.756 102.864L43.142 102.78C43.2073 103.247 43.3427 103.643 43.548 103.97C43.7627 104.297 44.0473 104.544 44.402 104.712C44.7567 104.871 45.186 104.95 45.69 104.95C46.1287 104.95 46.502 104.899 46.81 104.796C47.118 104.684 47.3513 104.521 47.51 104.306C47.678 104.082 47.762 103.811 47.762 103.494C47.762 103.205 47.692 102.948 47.552 102.724C47.4213 102.5 47.16 102.295 46.768 102.108C46.3853 101.921 45.8207 101.739 45.074 101.562C44.318 101.366 43.7113 101.156 43.254 100.932C42.7967 100.699 42.4653 100.414 42.26 100.078C42.064 99.7327 41.966 99.3127 41.966 98.818C41.966 98.2767 42.0967 97.796 42.358 97.376C42.6287 96.956 43.0113 96.6293 43.506 96.396C44.0007 96.1533 44.5887 96.032 45.27 96.032C45.998 96.032 46.6233 96.1673 47.146 96.438C47.6687 96.7087 48.0793 97.082 48.378 97.558C48.686 98.0247 48.8773 98.5613 48.952 99.168L47.566 99.252C47.5193 98.8693 47.398 98.5287 47.202 98.23C47.0153 97.9313 46.7587 97.698 46.432 97.53C46.1053 97.362 45.7087 97.278 45.242 97.278C44.6633 97.278 44.2013 97.418 43.856 97.698C43.52 97.9687 43.352 98.328 43.352 98.776C43.352 99.0653 43.4173 99.308 43.548 99.504C43.688 99.6907 43.9353 99.8587 44.29 100.008C44.6447 100.148 45.1487 100.297 45.802 100.456C46.6327 100.661 47.2907 100.904 47.776 101.184C48.2707 101.455 48.6207 101.777 48.826 102.15C49.0313 102.514 49.134 102.934 49.134 103.41C49.134 103.979 48.9847 104.474 48.686 104.894C48.3967 105.314 47.9907 105.641 47.468 105.874C46.9453 106.098 46.3433 106.21 45.662 106.21ZM52.5464 106V98.776H50.4604V97.656H51.3004C51.6737 97.656 51.9724 97.6093 52.1964 97.516C52.4204 97.4133 52.5791 97.2453 52.6724 97.012C52.7751 96.7787 52.8264 96.4613 52.8264 96.06H53.9044V106H52.5464ZM60.0998 106.224C59.2878 106.224 58.5832 106.014 57.9858 105.594C57.3885 105.174 56.9265 104.577 56.5998 103.802C56.2732 103.027 56.1098 102.108 56.1098 101.044C56.1098 99.98 56.2732 99.0607 56.5998 98.286C56.9265 97.502 57.3885 96.9 57.9858 96.48C58.5832 96.0507 59.2878 95.836 60.0998 95.836C60.9212 95.836 61.6305 96.0507 62.2278 96.48C62.8252 96.9 63.2872 97.4973 63.6138 98.272C63.9405 99.0467 64.1038 99.9707 64.1038 101.044C64.1038 102.108 63.9405 103.027 63.6138 103.802C63.2872 104.577 62.8252 105.174 62.2278 105.594C61.6305 106.014 60.9212 106.224 60.0998 106.224ZM60.0998 104.95C60.9212 104.95 61.5558 104.614 62.0038 103.942C62.4518 103.261 62.6758 102.295 62.6758 101.044C62.6758 100.204 62.5732 99.49 62.3678 98.902C62.1718 98.314 61.8825 97.8707 61.4998 97.572C61.1265 97.264 60.6598 97.11 60.0998 97.11C59.5492 97.11 59.0825 97.264 58.6998 97.572C58.3265 97.8707 58.0372 98.314 57.8318 98.902C57.6358 99.49 57.5378 100.204 57.5378 101.044C57.5378 102.295 57.7618 103.261 58.2098 103.942C58.6578 104.614 59.2878 104.95 60.0998 104.95ZM69.4651 106.224C68.6531 106.224 67.9484 106.014 67.3511 105.594C66.7537 105.174 66.2917 104.577 65.9651 103.802C65.6384 103.027 65.4751 102.108 65.4751 101.044C65.4751 99.98 65.6384 99.0607 65.9651 98.286C66.2917 97.502 66.7537 96.9 67.3511 96.48C67.9484 96.0507 68.6531 95.836 69.4651 95.836C70.2864 95.836 70.9957 96.0507 71.5931 96.48C72.1904 96.9 72.6524 97.4973 72.9791 98.272C73.3057 99.0467 73.4691 99.9707 73.4691 101.044C73.4691 102.108 73.3057 103.027 72.9791 103.802C72.6524 104.577 72.1904 105.174 71.5931 105.594C70.9957 106.014 70.2864 106.224 69.4651 106.224ZM69.4651 104.95C70.2864 104.95 70.9211 104.614 71.3691 103.942C71.8171 103.261 72.0411 102.295 72.0411 101.044C72.0411 100.204 71.9384 99.49 71.7331 98.902C71.5371 98.314 71.2477 97.8707 70.8651 97.572C70.4917 97.264 70.0251 97.11 69.4651 97.11C68.9144 97.11 68.4477 97.264 68.0651 97.572C67.6917 97.8707 67.4024 98.314 67.1971 98.902C67.0011 99.49 66.9031 100.204 66.9031 101.044C66.9031 102.295 67.1271 103.261 67.5751 103.942C68.0231 104.614 68.6531 104.95 69.4651 104.95ZM75.2463 106V96.06H76.5763V102.402L80.0483 98.566H81.7703L78.8443 101.702L81.8963 106H80.3143L77.9623 102.57L76.5763 104.04V106H75.2463Z" fill="#D4D4D4"/>
<path d="M45.018 231.26V218.8H46.082V231.26H45.018ZM45.662 230.21C44.906 230.21 44.2433 230.07 43.674 229.79C43.114 229.501 42.666 229.109 42.33 228.614C42.0033 228.11 41.812 227.527 41.756 226.864L43.142 226.78C43.2073 227.247 43.3427 227.643 43.548 227.97C43.7627 228.297 44.0473 228.544 44.402 228.712C44.7567 228.871 45.186 228.95 45.69 228.95C46.1287 228.95 46.502 228.899 46.81 228.796C47.118 228.684 47.3513 228.521 47.51 228.306C47.678 228.082 47.762 227.811 47.762 227.494C47.762 227.205 47.692 226.948 47.552 226.724C47.4213 226.5 47.16 226.295 46.768 226.108C46.3853 225.921 45.8207 225.739 45.074 225.562C44.318 225.366 43.7113 225.156 43.254 224.932C42.7967 224.699 42.4653 224.414 42.26 224.078C42.064 223.733 41.966 223.313 41.966 222.818C41.966 222.277 42.0967 221.796 42.358 221.376C42.6287 220.956 43.0113 220.629 43.506 220.396C44.0007 220.153 44.5887 220.032 45.27 220.032C45.998 220.032 46.6233 220.167 47.146 220.438C47.6687 220.709 48.0793 221.082 48.378 221.558C48.686 222.025 48.8773 222.561 48.952 223.168L47.566 223.252C47.5193 222.869 47.398 222.529 47.202 222.23C47.0153 221.931 46.7587 221.698 46.432 221.53C46.1053 221.362 45.7087 221.278 45.242 221.278C44.6633 221.278 44.2013 221.418 43.856 221.698C43.52 221.969 43.352 222.328 43.352 222.776C43.352 223.065 43.4173 223.308 43.548 223.504C43.688 223.691 43.9353 223.859 44.29 224.008C44.6447 224.148 45.1487 224.297 45.802 224.456C46.6327 224.661 47.2907 224.904 47.776 225.184C48.2707 225.455 48.6207 225.777 48.826 226.15C49.0313 226.514 49.134 226.934 49.134 227.41C49.134 227.979 48.9847 228.474 48.686 228.894C48.3967 229.314 47.9907 229.641 47.468 229.874C46.9453 230.098 46.3433 230.21 45.662 230.21ZM54.1984 230.224C53.4704 230.224 52.8217 230.112 52.2524 229.888C51.6831 229.664 51.2397 229.333 50.9224 228.894C50.6051 228.455 50.4464 227.914 50.4464 227.27C50.4464 226.551 50.6657 225.954 51.1044 225.478C51.5431 225.002 52.1217 224.685 52.8404 224.526L52.8684 224.806C52.2897 224.657 51.8184 224.4 51.4544 224.036C51.0997 223.672 50.9224 223.182 50.9224 222.566C50.9224 222.043 51.0577 221.577 51.3284 221.166C51.5991 220.755 51.9771 220.433 52.4624 220.2C52.9571 219.957 53.5357 219.836 54.1984 219.836C54.8704 219.836 55.4491 219.957 55.9344 220.2C56.4291 220.433 56.8071 220.755 57.0684 221.166C57.3391 221.577 57.4744 222.043 57.4744 222.566C57.4744 223.182 57.2971 223.672 56.9424 224.036C56.5971 224.4 56.1304 224.657 55.5424 224.806L55.5704 224.526C56.2984 224.694 56.8771 225.016 57.3064 225.492C57.7357 225.959 57.9504 226.551 57.9504 227.27C57.9504 227.914 57.7917 228.455 57.4744 228.894C57.1571 229.333 56.7184 229.664 56.1584 229.888C55.5984 230.112 54.9451 230.224 54.1984 230.224ZM54.1984 228.95C54.9171 228.95 55.4864 228.801 55.9064 228.502C56.3264 228.203 56.5364 227.755 56.5364 227.158C56.5364 226.598 56.3451 226.15 55.9624 225.814C55.5891 225.478 55.0011 225.31 54.1984 225.31C53.4144 225.31 52.8264 225.478 52.4344 225.814C52.0517 226.15 51.8604 226.598 51.8604 227.158C51.8604 227.755 52.0704 228.203 52.4904 228.502C52.9197 228.801 53.4891 228.95 54.1984 228.95ZM54.1984 224.134C54.7957 224.134 55.2531 224.008 55.5704 223.756C55.8971 223.495 56.0604 223.112 56.0604 222.608C56.0604 222.151 55.9017 221.787 55.5844 221.516C55.2764 221.245 54.8144 221.11 54.1984 221.11C53.6011 221.11 53.1391 221.245 52.8124 221.516C52.4951 221.787 52.3364 222.151 52.3364 222.608C52.3364 223.112 52.4997 223.495 52.8264 223.756C53.1531 224.008 53.6104 224.134 54.1984 224.134ZM63.1897 230.224C62.3777 230.224 61.673 230.014 61.0757 229.594C60.4783 229.174 60.0163 228.577 59.6897 227.802C59.363 227.027 59.1997 226.108 59.1997 225.044C59.1997 223.98 59.363 223.061 59.6897 222.286C60.0163 221.502 60.4783 220.9 61.0757 220.48C61.673 220.051 62.3777 219.836 63.1897 219.836C64.011 219.836 64.7203 220.051 65.3177 220.48C65.915 220.9 66.377 221.497 66.7037 222.272C67.0303 223.047 67.1937 223.971 67.1937 225.044C67.1937 226.108 67.0303 227.027 66.7037 227.802C66.377 228.577 65.915 229.174 65.3177 229.594C64.7203 230.014 64.011 230.224 63.1897 230.224ZM63.1897 228.95C64.011 228.95 64.6457 228.614 65.0937 227.942C65.5417 227.261 65.7657 226.295 65.7657 225.044C65.7657 224.204 65.663 223.49 65.4577 222.902C65.2617 222.314 64.9723 221.871 64.5897 221.572C64.2163 221.264 63.7497 221.11 63.1897 221.11C62.639 221.11 62.1723 221.264 61.7897 221.572C61.4163 221.871 61.127 222.314 60.9217 222.902C60.7257 223.49 60.6277 224.204 60.6277 225.044C60.6277 226.295 60.8517 227.261 61.2997 227.942C61.7477 228.614 62.3777 228.95 63.1897 228.95ZM68.9709 230V220.06H70.3009V226.402L73.7729 222.566H75.4949L72.5689 225.702L75.6209 230H74.0389L71.6869 226.57L70.3009 228.04V230H68.9709Z" fill="#D4D4D4"/>
<path d="M45.018 355.26V342.8H46.082V355.26H45.018ZM45.662 354.21C44.906 354.21 44.2433 354.07 43.674 353.79C43.114 353.501 42.666 353.109 42.33 352.614C42.0033 352.11 41.812 351.527 41.756 350.864L43.142 350.78C43.2073 351.247 43.3427 351.643 43.548 351.97C43.7627 352.297 44.0473 352.544 44.402 352.712C44.7567 352.871 45.186 352.95 45.69 352.95C46.1287 352.95 46.502 352.899 46.81 352.796C47.118 352.684 47.3513 352.521 47.51 352.306C47.678 352.082 47.762 351.811 47.762 351.494C47.762 351.205 47.692 350.948 47.552 350.724C47.4213 350.5 47.16 350.295 46.768 350.108C46.3853 349.921 45.8207 349.739 45.074 349.562C44.318 349.366 43.7113 349.156 43.254 348.932C42.7967 348.699 42.4653 348.414 42.26 348.078C42.064 347.733 41.966 347.313 41.966 346.818C41.966 346.277 42.0967 345.796 42.358 345.376C42.6287 344.956 43.0113 344.629 43.506 344.396C44.0007 344.153 44.5887 344.032 45.27 344.032C45.998 344.032 46.6233 344.167 47.146 344.438C47.6687 344.709 48.0793 345.082 48.378 345.558C48.686 346.025 48.8773 346.561 48.952 347.168L47.566 347.252C47.5193 346.869 47.398 346.529 47.202 346.23C47.0153 345.931 46.7587 345.698 46.432 345.53C46.1053 345.362 45.7087 345.278 45.242 345.278C44.6633 345.278 44.2013 345.418 43.856 345.698C43.52 345.969 43.352 346.328 43.352 346.776C43.352 347.065 43.4173 347.308 43.548 347.504C43.688 347.691 43.9353 347.859 44.29 348.008C44.6447 348.148 45.1487 348.297 45.802 348.456C46.6327 348.661 47.2907 348.904 47.776 349.184C48.2707 349.455 48.6207 349.777 48.826 350.15C49.0313 350.514 49.134 350.934 49.134 351.41C49.134 351.979 48.9847 352.474 48.686 352.894C48.3967 353.314 47.9907 353.641 47.468 353.874C46.9453 354.098 46.3433 354.21 45.662 354.21ZM54.3104 354.224C53.5544 354.224 52.9057 354.051 52.3644 353.706C51.8324 353.361 51.4264 352.857 51.1464 352.194C50.8664 351.522 50.7264 350.715 50.7264 349.772C50.7264 348.951 50.7964 348.181 50.9364 347.462C51.0857 346.743 51.3144 346.113 51.6224 345.572C51.9304 345.031 52.3364 344.606 52.8404 344.298C53.3444 343.99 53.9651 343.836 54.7024 343.836C55.5984 343.836 56.2937 344.055 56.7884 344.494C57.2924 344.933 57.6424 345.511 57.8384 346.23L56.4524 346.342C56.3404 345.969 56.1537 345.67 55.8924 345.446C55.6311 345.222 55.2344 345.11 54.7024 345.11C53.9091 345.11 53.2837 345.451 52.8264 346.132C52.3691 346.804 52.1264 347.831 52.0984 349.212L51.8324 349.156C51.9351 348.829 52.1124 348.531 52.3644 348.26C52.6164 347.98 52.9291 347.756 53.3024 347.588C53.6757 347.42 54.1004 347.336 54.5764 347.336C55.2297 347.336 55.8037 347.476 56.2984 347.756C56.8024 348.036 57.1897 348.428 57.4604 348.932C57.7404 349.436 57.8804 350.024 57.8804 350.696C57.8804 351.433 57.7264 352.063 57.4184 352.586C57.1197 353.109 56.7044 353.515 56.1724 353.804C55.6404 354.084 55.0197 354.224 54.3104 354.224ZM54.3384 352.964C54.9637 352.964 55.4771 352.763 55.8784 352.362C56.2797 351.961 56.4804 351.41 56.4804 350.71C56.4804 350.271 56.3917 349.889 56.2144 349.562C56.0464 349.235 55.8084 348.983 55.5004 348.806C55.2017 348.629 54.8471 348.54 54.4364 348.54C54.0071 348.54 53.6197 348.629 53.2744 348.806C52.9384 348.983 52.6724 349.235 52.4764 349.562C52.2804 349.889 52.1824 350.271 52.1824 350.71C52.1824 351.149 52.2711 351.541 52.4484 351.886C52.6257 352.222 52.8731 352.488 53.1904 352.684C53.5171 352.871 53.8997 352.964 54.3384 352.964ZM63.3948 354.224C62.5828 354.224 61.8781 354.014 61.2808 353.594C60.6834 353.174 60.2214 352.577 59.8948 351.802C59.5681 351.027 59.4048 350.108 59.4048 349.044C59.4048 347.98 59.5681 347.061 59.8948 346.286C60.2214 345.502 60.6834 344.9 61.2808 344.48C61.8781 344.051 62.5828 343.836 63.3948 343.836C64.2161 343.836 64.9254 344.051 65.5228 344.48C66.1201 344.9 66.5821 345.497 66.9088 346.272C67.2354 347.047 67.3988 347.971 67.3988 349.044C67.3988 350.108 67.2354 351.027 66.9088 351.802C66.5821 352.577 66.1201 353.174 65.5228 353.594C64.9254 354.014 64.2161 354.224 63.3948 354.224ZM63.3948 352.95C64.2161 352.95 64.8508 352.614 65.2988 351.942C65.7468 351.261 65.9708 350.295 65.9708 349.044C65.9708 348.204 65.8681 347.49 65.6628 346.902C65.4668 346.314 65.1774 345.871 64.7948 345.572C64.4214 345.264 63.9548 345.11 63.3948 345.11C62.8441 345.11 62.3774 345.264 61.9948 345.572C61.6214 345.871 61.3321 346.314 61.1268 346.902C60.9308 347.49 60.8328 348.204 60.8328 349.044C60.8328 350.295 61.0568 351.261 61.5048 351.942C61.9528 352.614 62.5828 352.95 63.3948 352.95ZM69.176 354V344.06H70.506V350.402L73.978 346.566H75.7L72.774 349.702L75.826 354H74.244L71.892 350.57L70.506 352.04V354H69.176Z" fill="#D4D4D4"/>
<path d="M45.018 479.26V466.8H46.082V479.26H45.018ZM45.662 478.21C44.906 478.21 44.2433 478.07 43.674 477.79C43.114 477.501 42.666 477.109 42.33 476.614C42.0033 476.11 41.812 475.527 41.756 474.864L43.142 474.78C43.2073 475.247 43.3427 475.643 43.548 475.97C43.7627 476.297 44.0473 476.544 44.402 476.712C44.7567 476.871 45.186 476.95 45.69 476.95C46.1287 476.95 46.502 476.899 46.81 476.796C47.118 476.684 47.3513 476.521 47.51 476.306C47.678 476.082 47.762 475.811 47.762 475.494C47.762 475.205 47.692 474.948 47.552 474.724C47.4213 474.5 47.16 474.295 46.768 474.108C46.3853 473.921 45.8207 473.739 45.074 473.562C44.318 473.366 43.7113 473.156 43.254 472.932C42.7967 472.699 42.4653 472.414 42.26 472.078C42.064 471.733 41.966 471.313 41.966 470.818C41.966 470.277 42.0967 469.796 42.358 469.376C42.6287 468.956 43.0113 468.629 43.506 468.396C44.0007 468.153 44.5887 468.032 45.27 468.032C45.998 468.032 46.6233 468.167 47.146 468.438C47.6687 468.709 48.0793 469.082 48.378 469.558C48.686 470.025 48.8773 470.561 48.952 471.168L47.566 471.252C47.5193 470.869 47.398 470.529 47.202 470.23C47.0153 469.931 46.7587 469.698 46.432 469.53C46.1053 469.362 45.7087 469.278 45.242 469.278C44.6633 469.278 44.2013 469.418 43.856 469.698C43.52 469.969 43.352 470.328 43.352 470.776C43.352 471.065 43.4173 471.308 43.548 471.504C43.688 471.691 43.9353 471.859 44.29 472.008C44.6447 472.148 45.1487 472.297 45.802 472.456C46.6327 472.661 47.2907 472.904 47.776 473.184C48.2707 473.455 48.6207 473.777 48.826 474.15C49.0313 474.514 49.134 474.934 49.134 475.41C49.134 475.979 48.9847 476.474 48.686 476.894C48.3967 477.314 47.9907 477.641 47.468 477.874C46.9453 478.098 46.3433 478.21 45.662 478.21ZM55.3464 478V475.886H50.3064V474.696L55.2064 468.06H56.7044V474.612H57.9224V475.886H56.7044V478H55.3464ZM51.9024 474.612H55.3464V470.034L51.9024 474.612ZM63.2854 478.224C62.4734 478.224 61.7687 478.014 61.1714 477.594C60.574 477.174 60.112 476.577 59.7854 475.802C59.4587 475.027 59.2954 474.108 59.2954 473.044C59.2954 471.98 59.4587 471.061 59.7854 470.286C60.112 469.502 60.574 468.9 61.1714 468.48C61.7687 468.051 62.4734 467.836 63.2854 467.836C64.1067 467.836 64.816 468.051 65.4134 468.48C66.0107 468.9 66.4727 469.497 66.7994 470.272C67.126 471.047 67.2894 471.971 67.2894 473.044C67.2894 474.108 67.126 475.027 66.7994 475.802C66.4727 476.577 66.0107 477.174 65.4134 477.594C64.816 478.014 64.1067 478.224 63.2854 478.224ZM63.2854 476.95C64.1067 476.95 64.7414 476.614 65.1894 475.942C65.6374 475.261 65.8614 474.295 65.8614 473.044C65.8614 472.204 65.7587 471.49 65.5534 470.902C65.3574 470.314 65.068 469.871 64.6854 469.572C64.312 469.264 63.8454 469.11 63.2854 469.11C62.7347 469.11 62.268 469.264 61.8854 469.572C61.512 469.871 61.2227 470.314 61.0174 470.902C60.8214 471.49 60.7234 472.204 60.7234 473.044C60.7234 474.295 60.9474 475.261 61.3954 475.942C61.8434 476.614 62.4734 476.95 63.2854 476.95ZM69.0666 478V468.06H70.3966V474.402L73.8686 470.566H75.5906L72.6646 473.702L75.7166 478H74.1346L71.7826 474.57L70.3966 476.04V478H69.0666Z" fill="#D4D4D4"/>
<path d="M45.018 603.26V590.8H46.082V603.26H45.018ZM45.662 602.21C44.906 602.21 44.2433 602.07 43.674 601.79C43.114 601.501 42.666 601.109 42.33 600.614C42.0033 600.11 41.812 599.527 41.756 598.864L43.142 598.78C43.2073 599.247 43.3427 599.643 43.548 599.97C43.7627 600.297 44.0473 600.544 44.402 600.712C44.7567 600.871 45.186 600.95 45.69 600.95C46.1287 600.95 46.502 600.899 46.81 600.796C47.118 600.684 47.3513 600.521 47.51 600.306C47.678 600.082 47.762 599.811 47.762 599.494C47.762 599.205 47.692 598.948 47.552 598.724C47.4213 598.5 47.16 598.295 46.768 598.108C46.3853 597.921 45.8207 597.739 45.074 597.562C44.318 597.366 43.7113 597.156 43.254 596.932C42.7967 596.699 42.4653 596.414 42.26 596.078C42.064 595.733 41.966 595.313 41.966 594.818C41.966 594.277 42.0967 593.796 42.358 593.376C42.6287 592.956 43.0113 592.629 43.506 592.396C44.0007 592.153 44.5887 592.032 45.27 592.032C45.998 592.032 46.6233 592.167 47.146 592.438C47.6687 592.709 48.0793 593.082 48.378 593.558C48.686 594.025 48.8773 594.561 48.952 595.168L47.566 595.252C47.5193 594.869 47.398 594.529 47.202 594.23C47.0153 593.931 46.7587 593.698 46.432 593.53C46.1053 593.362 45.7087 593.278 45.242 593.278C44.6633 593.278 44.2013 593.418 43.856 593.698C43.52 593.969 43.352 594.328 43.352 594.776C43.352 595.065 43.4173 595.308 43.548 595.504C43.688 595.691 43.9353 595.859 44.29 596.008C44.6447 596.148 45.1487 596.297 45.802 596.456C46.6327 596.661 47.2907 596.904 47.776 597.184C48.2707 597.455 48.6207 597.777 48.826 598.15C49.0313 598.514 49.134 598.934 49.134 599.41C49.134 599.979 48.9847 600.474 48.686 600.894C48.3967 601.314 47.9907 601.641 47.468 601.874C46.9453 602.098 46.3433 602.21 45.662 602.21ZM50.7404 602C50.7404 601.272 50.8477 600.623 51.0624 600.054C51.2864 599.475 51.6737 598.934 52.2244 598.43C52.7751 597.917 53.5311 597.403 54.4924 596.89C54.9497 596.647 55.3184 596.428 55.5984 596.232C55.8784 596.027 56.0791 595.812 56.2004 595.588C56.3311 595.364 56.3964 595.089 56.3964 594.762C56.3964 594.435 56.3264 594.151 56.1864 593.908C56.0464 593.665 55.8364 593.474 55.5564 593.334C55.2764 593.185 54.9264 593.11 54.5064 593.11C53.8437 593.11 53.3164 593.287 52.9244 593.642C52.5417 593.997 52.2991 594.501 52.1964 595.154L50.7824 595.056C50.8944 594.076 51.2677 593.297 51.9024 592.718C52.5464 592.13 53.4144 591.836 54.5064 591.836C55.1971 591.836 55.7897 591.957 56.2844 592.2C56.7791 592.443 57.1571 592.783 57.4184 593.222C57.6797 593.661 57.8104 594.165 57.8104 594.734C57.8104 595.247 57.7264 595.686 57.5584 596.05C57.3904 596.414 57.1104 596.755 56.7184 597.072C56.3264 597.389 55.7897 597.725 55.1084 598.08C54.2217 598.547 53.5544 599.013 53.1064 599.48C52.6584 599.947 52.4204 600.362 52.3924 600.726H57.8104V602H50.7404ZM63.3264 602.224C62.5144 602.224 61.8097 602.014 61.2124 601.594C60.6151 601.174 60.1531 600.577 59.8264 599.802C59.4997 599.027 59.3364 598.108 59.3364 597.044C59.3364 595.98 59.4997 595.061 59.8264 594.286C60.1531 593.502 60.6151 592.9 61.2124 592.48C61.8097 592.051 62.5144 591.836 63.3264 591.836C64.1477 591.836 64.8571 592.051 65.4544 592.48C66.0517 592.9 66.5137 593.497 66.8404 594.272C67.1671 595.047 67.3304 595.971 67.3304 597.044C67.3304 598.108 67.1671 599.027 66.8404 599.802C66.5137 600.577 66.0517 601.174 65.4544 601.594C64.8571 602.014 64.1477 602.224 63.3264 602.224ZM63.3264 600.95C64.1477 600.95 64.7824 600.614 65.2304 599.942C65.6784 599.261 65.9024 598.295 65.9024 597.044C65.9024 596.204 65.7997 595.49 65.5944 594.902C65.3984 594.314 65.1091 593.871 64.7264 593.572C64.3531 593.264 63.8864 593.11 63.3264 593.11C62.7757 593.11 62.3091 593.264 61.9264 593.572C61.5531 593.871 61.2637 594.314 61.0584 594.902C60.8624 595.49 60.7644 596.204 60.7644 597.044C60.7644 598.295 60.9884 599.261 61.4364 599.942C61.8844 600.614 62.5144 600.95 63.3264 600.95ZM69.1076 602V592.06H70.4376V598.402L73.9096 594.566H75.6316L72.7056 597.702L75.7576 602H74.1756L71.8236 598.57L70.4376 600.04V602H69.1076Z" fill="#D4D4D4"/>
<path d="M45.018 727.26V714.8H46.082V727.26H45.018ZM45.662 726.21C44.906 726.21 44.2433 726.07 43.674 725.79C43.114 725.501 42.666 725.109 42.33 724.614C42.0033 724.11 41.812 723.527 41.756 722.864L43.142 722.78C43.2073 723.247 43.3427 723.643 43.548 723.97C43.7627 724.297 44.0473 724.544 44.402 724.712C44.7567 724.871 45.186 724.95 45.69 724.95C46.1287 724.95 46.502 724.899 46.81 724.796C47.118 724.684 47.3513 724.521 47.51 724.306C47.678 724.082 47.762 723.811 47.762 723.494C47.762 723.205 47.692 722.948 47.552 722.724C47.4213 722.5 47.16 722.295 46.768 722.108C46.3853 721.921 45.8207 721.739 45.074 721.562C44.318 721.366 43.7113 721.156 43.254 720.932C42.7967 720.699 42.4653 720.414 42.26 720.078C42.064 719.733 41.966 719.313 41.966 718.818C41.966 718.277 42.0967 717.796 42.358 717.376C42.6287 716.956 43.0113 716.629 43.506 716.396C44.0007 716.153 44.5887 716.032 45.27 716.032C45.998 716.032 46.6233 716.167 47.146 716.438C47.6687 716.709 48.0793 717.082 48.378 717.558C48.686 718.025 48.8773 718.561 48.952 719.168L47.566 719.252C47.5193 718.869 47.398 718.529 47.202 718.23C47.0153 717.931 46.7587 717.698 46.432 717.53C46.1053 717.362 45.7087 717.278 45.242 717.278C44.6633 717.278 44.2013 717.418 43.856 717.698C43.52 717.969 43.352 718.328 43.352 718.776C43.352 719.065 43.4173 719.308 43.548 719.504C43.688 719.691 43.9353 719.859 44.29 720.008C44.6447 720.148 45.1487 720.297 45.802 720.456C46.6327 720.661 47.2907 720.904 47.776 721.184C48.2707 721.455 48.6207 721.777 48.826 722.15C49.0313 722.514 49.134 722.934 49.134 723.41C49.134 723.979 48.9847 724.474 48.686 724.894C48.3967 725.314 47.9907 725.641 47.468 725.874C46.9453 726.098 46.3433 726.21 45.662 726.21ZM54.5764 726.224C53.7644 726.224 53.0597 726.014 52.4624 725.594C51.8651 725.174 51.4031 724.577 51.0764 723.802C50.7497 723.027 50.5864 722.108 50.5864 721.044C50.5864 719.98 50.7497 719.061 51.0764 718.286C51.4031 717.502 51.8651 716.9 52.4624 716.48C53.0597 716.051 53.7644 715.836 54.5764 715.836C55.3977 715.836 56.1071 716.051 56.7044 716.48C57.3017 716.9 57.7637 717.497 58.0904 718.272C58.4171 719.047 58.5804 719.971 58.5804 721.044C58.5804 722.108 58.4171 723.027 58.0904 723.802C57.7637 724.577 57.3017 725.174 56.7044 725.594C56.1071 726.014 55.3977 726.224 54.5764 726.224ZM54.5764 724.95C55.3977 724.95 56.0324 724.614 56.4804 723.942C56.9284 723.261 57.1524 722.295 57.1524 721.044C57.1524 720.204 57.0497 719.49 56.8444 718.902C56.6484 718.314 56.3591 717.871 55.9764 717.572C55.6031 717.264 55.1364 717.11 54.5764 717.11C54.0257 717.11 53.5591 717.264 53.1764 717.572C52.8031 717.871 52.5137 718.314 52.3084 718.902C52.1124 719.49 52.0144 720.204 52.0144 721.044C52.0144 722.295 52.2384 723.261 52.6864 723.942C53.1344 724.614 53.7644 724.95 54.5764 724.95Z" fill="#D4D4D4"/>
<path d="M44.4078 772V763.334H41.3418V762.06H48.8458V763.334H45.7798V772H44.4078ZM53.0818 772.168C52.3818 772.168 51.7705 772.009 51.2478 771.692C50.7251 771.375 50.3191 770.927 50.0298 770.348C49.7498 769.76 49.6098 769.069 49.6098 768.276C49.6098 767.483 49.7498 766.797 50.0298 766.218C50.3191 765.639 50.7251 765.191 51.2478 764.874C51.7705 764.557 52.3818 764.398 53.0818 764.398C53.7725 764.398 54.3745 764.557 54.8878 764.874C55.4105 765.191 55.8165 765.639 56.1058 766.218C56.3951 766.797 56.5398 767.483 56.5398 768.276C56.5398 769.069 56.3951 769.76 56.1058 770.348C55.8165 770.927 55.4105 771.375 54.8878 771.692C54.3745 772.009 53.7725 772.168 53.0818 772.168ZM53.0818 770.964C53.7351 770.964 54.2438 770.726 54.6078 770.25C54.9718 769.774 55.1538 769.116 55.1538 768.276C55.1538 767.445 54.9718 766.792 54.6078 766.316C54.2438 765.84 53.7351 765.602 53.0818 765.602C52.4285 765.602 51.9151 765.84 51.5418 766.316C51.1778 766.792 50.9958 767.445 50.9958 768.276C50.9958 769.116 51.1778 769.774 51.5418 770.25C51.9151 770.726 52.4285 770.964 53.0818 770.964ZM60.8666 772.168C60.2226 772.168 59.6672 772.009 59.2006 771.692C58.7339 771.375 58.3746 770.927 58.1226 770.348C57.8706 769.769 57.7446 769.079 57.7446 768.276C57.7446 767.483 57.8706 766.797 58.1226 766.218C58.3746 765.639 58.7339 765.191 59.2006 764.874C59.6672 764.557 60.2226 764.398 60.8666 764.398C61.3706 764.398 61.8232 764.505 62.2246 764.72C62.6352 764.925 62.9432 765.219 63.1486 765.602V762.06H64.4786V772H63.2606L63.2186 770.88C63.0132 771.281 62.7006 771.599 62.2806 771.832C61.8606 772.056 61.3892 772.168 60.8666 772.168ZM61.1886 770.964C61.6086 770.964 61.9632 770.857 62.2526 770.642C62.5419 770.427 62.7612 770.119 62.9106 769.718C63.0692 769.307 63.1486 768.827 63.1486 768.276C63.1486 767.716 63.0692 767.235 62.9106 766.834C62.7612 766.433 62.5419 766.129 62.2526 765.924C61.9632 765.709 61.6086 765.602 61.1886 765.602C60.5539 765.602 60.0499 765.84 59.6766 766.316C59.3126 766.792 59.1306 767.445 59.1306 768.276C59.1306 769.107 59.3172 769.765 59.6906 770.25C60.0639 770.726 60.5632 770.964 61.1886 770.964ZM68.6865 772.168C67.9211 772.168 67.3098 771.991 66.8525 771.636C66.3951 771.281 66.1665 770.787 66.1665 770.152C66.1665 769.508 66.3531 769.004 66.7265 768.64C67.1091 768.276 67.7065 768.019 68.5185 767.87L71.1225 767.38C71.1225 766.783 70.9825 766.335 70.7025 766.036C70.4225 765.737 70.0025 765.588 69.4425 765.588C68.9478 765.588 68.5558 765.7 68.2665 765.924C67.9771 766.139 67.7811 766.456 67.6785 766.876L66.2925 766.778C66.4325 766.059 66.7731 765.485 67.3145 765.056C67.8651 764.617 68.5745 764.398 69.4425 764.398C70.4225 764.398 71.1691 764.669 71.6825 765.21C72.1958 765.742 72.4525 766.484 72.4525 767.436V770.418C72.4525 770.595 72.4805 770.721 72.5365 770.796C72.6018 770.861 72.7045 770.894 72.8445 770.894H73.1245V772C73.0871 772.009 73.0218 772.019 72.9285 772.028C72.8351 772.037 72.7371 772.042 72.6345 772.042C72.2985 772.042 72.0231 771.991 71.8085 771.888C71.5938 771.776 71.4305 771.603 71.3185 771.37C71.2158 771.137 71.1645 770.829 71.1645 770.446L71.3185 770.488C71.2438 770.805 71.0805 771.095 70.8285 771.356C70.5858 771.608 70.2778 771.809 69.9045 771.958C69.5311 772.098 69.1251 772.168 68.6865 772.168ZM68.8685 771.062C69.3351 771.062 69.7365 770.973 70.0725 770.796C70.4085 770.609 70.6651 770.357 70.8425 770.04C71.0291 769.723 71.1225 769.363 71.1225 768.962V768.458L68.8265 768.892C68.3505 768.976 68.0191 769.111 67.8325 769.298C67.6458 769.485 67.5525 769.727 67.5525 770.026C67.5525 770.353 67.6691 770.609 67.9025 770.796C68.1358 770.973 68.4578 771.062 68.8685 771.062ZM74.8271 774.1V772.98H75.7091C75.9704 772.98 76.1618 772.938 76.2831 772.854C76.4044 772.779 76.4978 772.653 76.5631 772.476L76.8151 771.818H76.3811L73.6791 764.566H75.1071L77.2351 770.586L79.2651 764.566H80.6931L77.7111 772.896C77.5618 773.316 77.3424 773.619 77.0531 773.806C76.7731 774.002 76.3811 774.1 75.8771 774.1H74.8271Z" fill="#D4D4D4"/>
<path d="M1352.3 772V763.334H1349.23V762.06H1356.73V763.334H1353.67V772H1352.3ZM1360.97 772.168C1360.27 772.168 1359.66 772.009 1359.14 771.692C1358.61 771.375 1358.21 770.927 1357.92 770.348C1357.64 769.76 1357.5 769.069 1357.5 768.276C1357.5 767.483 1357.64 766.797 1357.92 766.218C1358.21 765.639 1358.61 765.191 1359.14 764.874C1359.66 764.557 1360.27 764.398 1360.97 764.398C1361.66 764.398 1362.26 764.557 1362.78 764.874C1363.3 765.191 1363.71 765.639 1363.99 766.218C1364.28 766.797 1364.43 767.483 1364.43 768.276C1364.43 769.069 1364.28 769.76 1363.99 770.348C1363.71 770.927 1363.3 771.375 1362.78 771.692C1362.26 772.009 1361.66 772.168 1360.97 772.168ZM1360.97 770.964C1361.62 770.964 1362.13 770.726 1362.5 770.25C1362.86 769.774 1363.04 769.116 1363.04 768.276C1363.04 767.445 1362.86 766.792 1362.5 766.316C1362.13 765.84 1361.62 765.602 1360.97 765.602C1360.32 765.602 1359.8 765.84 1359.43 766.316C1359.07 766.792 1358.88 767.445 1358.88 768.276C1358.88 769.116 1359.07 769.774 1359.43 770.25C1359.8 770.726 1360.32 770.964 1360.97 770.964ZM1366.12 772V764.566H1367.33L1367.38 766.428L1367.2 766.372C1367.29 765.961 1367.44 765.611 1367.65 765.322C1367.86 765.023 1368.12 764.795 1368.42 764.636C1368.73 764.477 1369.07 764.398 1369.44 764.398C1370.09 764.398 1370.61 764.575 1371.01 764.93C1371.41 765.285 1371.66 765.779 1371.77 766.414L1371.54 766.4C1371.62 765.971 1371.75 765.611 1371.95 765.322C1372.15 765.023 1372.41 764.795 1372.73 764.636C1373.05 764.477 1373.41 764.398 1373.81 764.398C1374.34 764.398 1374.79 764.51 1375.15 764.734C1375.53 764.949 1375.81 765.266 1375.99 765.686C1376.18 766.106 1376.27 766.615 1376.27 767.212V772H1374.94V767.52C1374.94 766.867 1374.82 766.377 1374.57 766.05C1374.32 765.714 1373.95 765.546 1373.46 765.546C1373.13 765.546 1372.85 765.63 1372.61 765.798C1372.36 765.957 1372.17 766.19 1372.03 766.498C1371.9 766.797 1371.84 767.165 1371.84 767.604V772H1370.55V767.604C1370.55 766.951 1370.44 766.447 1370.21 766.092C1369.99 765.728 1369.61 765.546 1369.09 765.546C1368.76 765.546 1368.47 765.63 1368.22 765.798C1367.98 765.957 1367.79 766.19 1367.65 766.498C1367.52 766.806 1367.45 767.175 1367.45 767.604V772H1366.12ZM1381.44 772.168C1380.74 772.168 1380.13 772.009 1379.6 771.692C1379.08 771.375 1378.67 770.927 1378.39 770.348C1378.11 769.76 1377.97 769.069 1377.97 768.276C1377.97 767.483 1378.11 766.797 1378.39 766.218C1378.67 765.639 1379.08 765.191 1379.6 764.874C1380.13 764.557 1380.74 764.398 1381.44 764.398C1382.13 764.398 1382.73 764.557 1383.24 764.874C1383.77 765.191 1384.17 765.639 1384.46 766.218C1384.75 766.797 1384.9 767.483 1384.9 768.276C1384.9 769.069 1384.75 769.76 1384.46 770.348C1384.17 770.927 1383.77 771.375 1383.24 771.692C1382.73 772.009 1382.13 772.168 1381.44 772.168ZM1381.44 770.964C1382.09 770.964 1382.6 770.726 1382.96 770.25C1383.33 769.774 1383.51 769.116 1383.51 768.276C1383.51 767.445 1383.33 766.792 1382.96 766.316C1382.6 765.84 1382.09 765.602 1381.44 765.602C1380.78 765.602 1380.27 765.84 1379.9 766.316C1379.53 766.792 1379.35 767.445 1379.35 768.276C1379.35 769.116 1379.53 769.774 1379.9 770.25C1380.27 770.726 1380.78 770.964 1381.44 770.964ZM1386.59 772V764.566H1387.78L1387.84 766.498L1387.72 766.456C1387.82 765.803 1388.02 765.327 1388.33 765.028C1388.64 764.72 1389.06 764.566 1389.59 764.566H1390.31V765.784H1389.6C1389.23 765.784 1388.91 765.849 1388.66 765.98C1388.42 766.111 1388.23 766.307 1388.1 766.568C1387.98 766.829 1387.92 767.161 1387.92 767.562V772H1386.59ZM1392 772V764.566H1393.19L1393.25 766.498L1393.14 766.456C1393.23 765.803 1393.43 765.327 1393.74 765.028C1394.06 764.72 1394.48 764.566 1395 764.566H1395.73V765.784H1395.01C1394.64 765.784 1394.33 765.849 1394.08 765.98C1393.83 766.111 1393.65 766.307 1393.52 766.568C1393.39 766.829 1393.33 767.161 1393.33 767.562V772H1392ZM1400.4 772.168C1399.7 772.168 1399.09 772.009 1398.57 771.692C1398.04 771.375 1397.64 770.927 1397.35 770.348C1397.07 769.76 1396.93 769.069 1396.93 768.276C1396.93 767.483 1397.07 766.797 1397.35 766.218C1397.64 765.639 1398.04 765.191 1398.57 764.874C1399.09 764.557 1399.7 764.398 1400.4 764.398C1401.09 764.398 1401.69 764.557 1402.21 764.874C1402.73 765.191 1403.13 765.639 1403.42 766.218C1403.71 766.797 1403.86 767.483 1403.86 768.276C1403.86 769.069 1403.71 769.76 1403.42 770.348C1403.13 770.927 1402.73 771.375 1402.21 771.692C1401.69 772.009 1401.09 772.168 1400.4 772.168ZM1400.4 770.964C1401.05 770.964 1401.56 770.726 1401.93 770.25C1402.29 769.774 1402.47 769.116 1402.47 768.276C1402.47 767.445 1402.29 766.792 1401.93 766.316C1401.56 765.84 1401.05 765.602 1400.4 765.602C1399.75 765.602 1399.23 765.84 1398.86 766.316C1398.5 766.792 1398.31 767.445 1398.31 768.276C1398.31 769.116 1398.5 769.774 1398.86 770.25C1399.23 770.726 1399.75 770.964 1400.4 770.964ZM1407.05 772L1404.77 764.566H1406.2L1407.85 770.572L1409.56 764.566H1410.89L1412.59 770.572L1414.26 764.566H1415.69L1413.41 772H1411.82L1410.23 766.512L1408.62 772H1407.05Z" fill="#D4D4D4"/>
<g filter="url(#filter0_f_2002_1397)">
<path d="M953.103 926.093L953.101 926.148C952.971 926.148 952.841 926.147 952.71 926.147H952.696C952.471 926.147 951.945 926.147 951.44 926.111C951.342 926.104 951.173 926.091 950.965 926.068L950.961 926.067C950.828 926.052 950.33 925.996 949.712 925.852C949.463 925.795 948.658 925.605 947.698 925.175C947.231 924.967 946.263 924.499 945.218 923.643C944.27 922.866 942.196 920.899 941.448 917.502C940.585 913.588 942.001 910.338 943.469 908.429C944.733 906.786 946.142 905.92 946.734 905.582C947.963 904.88 949.045 904.588 949.314 904.516L949.326 904.512C950.064 904.313 950.662 904.238 950.78 904.223C950.84 904.215 950.897 904.208 950.95 904.202C951.1 904.185 951.221 904.174 951.298 904.168C951.512 904.15 951.687 904.141 951.784 904.137C952.366 904.111 953.233 904.114 954.103 904.191L954.097 904.302M953.103 926.093C953.103 926.093 953.102 926.093 953.101 926.094C952.932 926.107 952.805 926.113 952.752 926.115C952.738 926.116 952.724 926.117 952.71 926.117C952.479 926.127 952.37 926.123 952.17 926.106L952.71 919.981L953.136 915.148L953.171 904.18C953.248 904.187 953.341 904.196 953.445 904.208L953.45 904.208C953.531 904.218 953.768 904.244 954.093 904.301C954.094 904.302 954.096 904.302 954.097 904.302M953.103 926.093L954.097 904.302M953.103 926.093C953.115 926.092 953.127 926.091 953.139 926.09C953.23 926.083 953.405 926.067 953.625 926.038L953.635 926.037C953.768 926.02 954.347 925.945 955.06 925.752L955.072 925.749C955.339 925.677 956.419 925.386 957.646 924.685C958.239 924.346 959.647 923.482 960.91 921.838C962.378 919.929 963.795 916.68 962.932 912.766C962.183 909.369 960.109 907.402 959.162 906.626C958.117 905.77 957.15 905.303 956.684 905.095C955.724 904.665 954.922 904.477 954.675 904.419C954.465 904.371 954.269 904.332 954.097 904.302" stroke="url(#paint1_linear_2002_1397)" stroke-width="22"/>
</g>
<path d="M16 100H25V101H16V100Z" fill="#0B0B0B" fill-opacity="0.1"/>
<path d="M16 162H25V163H16V162Z" fill="#0B0B0B" fill-opacity="0.1"/>
<path d="M16 224H25V225H16V224Z" fill="#0B0B0B" fill-opacity="0.1"/>
<path d="M16 286H25V287H16V286Z" fill="#0B0B0B" fill-opacity="0.1"/>
<path d="M16 348H25V349H16V348Z" fill="#0B0B0B" fill-opacity="0.1"/>
<path d="M16 410H25V411H16V410Z" fill="#0B0B0B" fill-opacity="0.1"/>
<path d="M16 472H25V473H16V472Z" fill="#0B0B0B" fill-opacity="0.1"/>
<path d="M16 534H25V535H16V534Z" fill="#0B0B0B" fill-opacity="0.1"/>
<path d="M16 596H25V597H16V596Z" fill="#0B0B0B" fill-opacity="0.1"/>
<path d="M16 658H25V659H16V658Z" fill="#0B0B0B" fill-opacity="0.1"/>
<path d="M16 720H25V721H16V720Z" fill="#0B0B0B" fill-opacity="0.1"/>
<g filter="url(#filter1_f_2002_1397)">
<path d="M223.844 967.491L223.818 967.517C223.881 967.587 223.944 967.659 224.007 967.73C224.102 967.838 224.468 968.256 224.876 968.648C224.954 968.724 225.093 968.855 225.27 969.01L225.273 969.013C225.386 969.112 225.812 969.484 226.408 969.883C226.656 970.048 227.417 970.551 228.497 970.975C229.036 971.187 230.098 971.56 231.499 971.691C232.867 971.819 235.471 971.794 238.173 970.177C244.483 966.399 243.488 959.683 243.401 959.104C243.174 957.587 242.673 956.483 242.542 956.196L242.54 956.191C242.187 955.413 241.818 954.851 241.743 954.736C241.601 954.518 241.48 954.348 241.412 954.254C241.272 954.061 241.152 953.909 241.088 953.829C240.712 953.358 240.15 952.727 239.512 952.136L239.451 952.196M223.844 967.491C223.845 967.492 223.845 967.492 223.845 967.493C223.863 967.516 223.878 967.534 223.89 967.548C223.936 967.607 223.981 967.662 224.025 967.714C224.191 967.913 224.348 968.078 224.56 968.274L229.823 962.594L232.036 960.205L240.242 952.905C240.206 952.87 240.168 952.833 240.129 952.795C240.059 952.727 239.928 952.603 239.756 952.453C239.712 952.414 239.607 952.322 239.455 952.198C239.454 952.198 239.452 952.197 239.451 952.196M223.844 967.491L239.451 952.196M223.844 967.491C223.79 967.422 223.708 967.315 223.612 967.183C223.549 967.097 223.433 966.934 223.295 966.722C223.224 966.613 222.857 966.055 222.506 965.28L222.503 965.275C222.373 964.988 221.873 963.886 221.645 962.371C221.559 961.793 220.563 955.077 226.873 951.3C229.575 949.683 232.179 949.658 233.547 949.786C234.947 949.917 236.009 950.29 236.547 950.501C237.626 950.926 238.386 951.427 238.632 951.591C238.97 951.817 239.252 952.034 239.451 952.196" stroke="url(#paint2_linear_2002_1397)" stroke-opacity="0.3" stroke-width="22"/>
</g>
<path d="M1212 636L1212 -1" stroke="url(#paint3_linear_2002_1397)" stroke-width="1.5" stroke-dasharray="4 4"/>
<g filter="url(#filter2_dd_2002_1397)">
<path d="M1207 202C1207 199.239 1209.24 197 1212 197C1214.76 197 1217 199.239 1217 202C1217 204.761 1214.76 207 1212 207C1209.24 207 1207 204.761 1207 202Z" fill="white"/>
</g>
<g filter="url(#filter3_dd_2002_1397)">
<path d="M1099 121C1099 115.477 1103.48 111 1109 111H1314C1319.52 111 1324 115.477 1324 121V161C1324 166.523 1319.52 171 1314 171H1109C1103.48 171 1099 166.523 1099 161V121Z" fill="white"/>
<path opacity="0.5" d="M1107.95 134C1107.95 133.3 1108.05 132.67 1108.27 132.11C1108.49 131.541 1108.88 130.999 1109.43 130.486C1109.99 129.973 1110.77 129.455 1111.76 128.932C1112.21 128.689 1112.58 128.465 1112.86 128.26C1113.14 128.055 1113.35 127.835 1113.48 127.602C1113.61 127.369 1113.67 127.084 1113.67 126.748C1113.67 126.403 1113.6 126.104 1113.45 125.852C1113.3 125.591 1113.08 125.385 1112.78 125.236C1112.49 125.087 1112.12 125.012 1111.69 125.012C1110.99 125.012 1110.43 125.194 1110.02 125.558C1109.62 125.922 1109.37 126.44 1109.26 127.112L1108 127.028C1108.12 126.057 1108.49 125.283 1109.12 124.704C1109.76 124.125 1110.61 123.836 1111.69 123.836C1112.37 123.836 1112.95 123.957 1113.44 124.2C1113.92 124.443 1114.29 124.783 1114.54 125.222C1114.8 125.651 1114.93 126.151 1114.93 126.72C1114.93 127.224 1114.85 127.663 1114.68 128.036C1114.51 128.4 1114.23 128.741 1113.83 129.058C1113.44 129.375 1112.89 129.716 1112.2 130.08C1111.31 130.556 1110.63 131.037 1110.16 131.522C1109.7 132.007 1109.46 132.441 1109.43 132.824H1114.93V134H1107.95ZM1118.06 134C1118.06 132.973 1118.2 131.951 1118.48 130.934C1118.76 129.907 1119.16 128.913 1119.69 127.952C1120.22 126.991 1120.85 126.085 1121.59 125.236H1115.85V124.06H1122.91V125.152C1122.08 126.104 1121.39 127.047 1120.85 127.98C1120.32 128.904 1119.92 129.861 1119.67 130.85C1119.42 131.83 1119.29 132.88 1119.29 134H1118.06ZM1127.7 134V124.06H1133.94V125.236H1128.3L1128.9 124.62V129.184L1128.3 128.568H1133.69V129.716H1128.3L1128.9 129.1V134H1127.7ZM1138.26 134.168C1137.56 134.168 1136.96 134.009 1136.44 133.692C1135.94 133.375 1135.55 132.927 1135.27 132.348C1135 131.76 1134.86 131.074 1134.86 130.29C1134.86 129.506 1135 128.825 1135.27 128.246C1135.55 127.667 1135.94 127.219 1136.43 126.902C1136.93 126.575 1137.53 126.412 1138.21 126.412C1138.85 126.412 1139.42 126.566 1139.92 126.874C1140.41 127.173 1140.79 127.611 1141.06 128.19C1141.34 128.769 1141.48 129.473 1141.48 130.304V130.654H1136.09C1136.14 131.447 1136.35 132.045 1136.72 132.446C1137.11 132.847 1137.62 133.048 1138.26 133.048C1138.75 133.048 1139.15 132.936 1139.45 132.712C1139.77 132.479 1139.99 132.175 1140.11 131.802L1141.37 131.9C1141.18 132.563 1140.8 133.109 1140.25 133.538C1139.71 133.958 1139.05 134.168 1138.26 134.168ZM1136.09 129.618H1140.2C1140.14 128.899 1139.93 128.372 1139.57 128.036C1139.21 127.7 1138.76 127.532 1138.21 127.532C1137.64 127.532 1137.17 127.709 1136.79 128.064C1136.43 128.409 1136.2 128.927 1136.09 129.618ZM1146.48 134.168C1145.97 134.168 1145.51 134.056 1145.11 133.832C1144.71 133.599 1144.4 133.281 1144.18 132.88L1144.14 134H1143.08V124.06H1144.25V127.616C1144.44 127.308 1144.73 127.033 1145.12 126.79C1145.51 126.538 1145.97 126.412 1146.48 126.412C1147.13 126.412 1147.7 126.571 1148.17 126.888C1148.65 127.205 1149.02 127.653 1149.28 128.232C1149.54 128.811 1149.67 129.497 1149.67 130.29C1149.67 131.083 1149.54 131.769 1149.28 132.348C1149.02 132.927 1148.65 133.375 1148.17 133.692C1147.7 134.009 1147.13 134.168 1146.48 134.168ZM1146.41 133.048C1147.03 133.048 1147.53 132.801 1147.89 132.306C1148.26 131.811 1148.44 131.139 1148.44 130.29C1148.44 129.431 1148.26 128.759 1147.89 128.274C1147.53 127.779 1147.04 127.532 1146.44 127.532C1145.98 127.532 1145.59 127.644 1145.26 127.868C1144.93 128.083 1144.68 128.395 1144.51 128.806C1144.34 129.217 1144.25 129.711 1144.25 130.29C1144.25 130.85 1144.34 131.34 1144.51 131.76C1144.68 132.171 1144.93 132.488 1145.25 132.712C1145.57 132.936 1145.96 133.048 1146.41 133.048ZM1154.62 134C1154.62 133.3 1154.73 132.67 1154.95 132.11C1155.17 131.541 1155.56 130.999 1156.11 130.486C1156.67 129.973 1157.44 129.455 1158.43 128.932C1158.89 128.689 1159.26 128.465 1159.54 128.26C1159.82 128.055 1160.02 127.835 1160.15 127.602C1160.28 127.369 1160.35 127.084 1160.35 126.748C1160.35 126.403 1160.27 126.104 1160.13 125.852C1159.98 125.591 1159.75 125.385 1159.45 125.236C1159.16 125.087 1158.8 125.012 1158.36 125.012C1157.66 125.012 1157.11 125.194 1156.7 125.558C1156.29 125.922 1156.04 126.44 1155.94 127.112L1154.68 127.028C1154.79 126.057 1155.16 125.283 1155.8 124.704C1156.43 124.125 1157.29 123.836 1158.36 123.836C1159.04 123.836 1159.63 123.957 1160.11 124.2C1160.6 124.443 1160.97 124.783 1161.22 125.222C1161.48 125.651 1161.61 126.151 1161.61 126.72C1161.61 127.224 1161.53 127.663 1161.36 128.036C1161.19 128.4 1160.9 128.741 1160.5 129.058C1160.11 129.375 1159.57 129.716 1158.88 130.08C1157.98 130.556 1157.3 131.037 1156.84 131.522C1156.38 132.007 1156.14 132.441 1156.11 132.824H1161.61V134H1154.62ZM1166.95 134.224C1166.15 134.224 1165.45 134.014 1164.86 133.594C1164.27 133.174 1163.82 132.577 1163.49 131.802C1163.17 131.027 1163.01 130.108 1163.01 129.044C1163.01 127.98 1163.17 127.061 1163.49 126.286C1163.82 125.502 1164.27 124.9 1164.86 124.48C1165.45 124.051 1166.15 123.836 1166.95 123.836C1167.76 123.836 1168.46 124.051 1169.05 124.48C1169.64 124.9 1170.09 125.497 1170.41 126.272C1170.73 127.047 1170.9 127.971 1170.9 129.044C1170.9 130.108 1170.73 131.027 1170.41 131.802C1170.09 132.577 1169.64 133.174 1169.05 133.594C1168.46 134.014 1167.76 134.224 1166.95 134.224ZM1166.95 133.048C1167.81 133.048 1168.47 132.703 1168.94 132.012C1169.4 131.312 1169.64 130.323 1169.64 129.044C1169.64 128.185 1169.53 127.457 1169.31 126.86C1169.11 126.253 1168.81 125.796 1168.4 125.488C1168.01 125.171 1167.53 125.012 1166.95 125.012C1166.38 125.012 1165.89 125.171 1165.49 125.488C1165.1 125.796 1164.8 126.253 1164.58 126.86C1164.38 127.457 1164.27 128.185 1164.27 129.044C1164.27 130.323 1164.51 131.312 1164.97 132.012C1165.44 132.703 1166.1 133.048 1166.95 133.048ZM1172.3 134C1172.3 133.3 1172.41 132.67 1172.62 132.11C1172.85 131.541 1173.23 130.999 1173.78 130.486C1174.34 129.973 1175.12 129.455 1176.11 128.932C1176.57 128.689 1176.93 128.465 1177.21 128.26C1177.49 128.055 1177.7 127.835 1177.83 127.602C1177.96 127.369 1178.03 127.084 1178.03 126.748C1178.03 126.403 1177.95 126.104 1177.8 125.852C1177.65 125.591 1177.43 125.385 1177.13 125.236C1176.84 125.087 1176.48 125.012 1176.04 125.012C1175.34 125.012 1174.78 125.194 1174.37 125.558C1173.97 125.922 1173.72 126.44 1173.62 127.112L1172.36 127.028C1172.47 126.057 1172.84 125.283 1173.48 124.704C1174.11 124.125 1174.97 123.836 1176.04 123.836C1176.72 123.836 1177.3 123.957 1177.79 124.2C1178.27 124.443 1178.64 124.783 1178.89 125.222C1179.16 125.651 1179.29 126.151 1179.29 126.72C1179.29 127.224 1179.2 127.663 1179.03 128.036C1178.87 128.4 1178.58 128.741 1178.18 129.058C1177.79 129.375 1177.25 129.716 1176.56 130.08C1175.66 130.556 1174.98 131.037 1174.51 131.522C1174.06 132.007 1173.81 132.441 1173.78 132.824H1179.29V134H1172.3ZM1184.5 134.224C1183.8 134.224 1183.19 134.107 1182.68 133.874C1182.17 133.641 1181.77 133.314 1181.47 132.894C1181.18 132.474 1181.02 131.989 1180.97 131.438L1182.23 131.354C1182.3 131.914 1182.54 132.339 1182.94 132.628C1183.35 132.908 1183.87 133.048 1184.5 133.048C1185.2 133.048 1185.75 132.852 1186.16 132.46C1186.57 132.059 1186.78 131.508 1186.78 130.808C1186.78 130.341 1186.69 129.94 1186.5 129.604C1186.32 129.259 1186.06 128.993 1185.71 128.806C1185.37 128.619 1184.95 128.526 1184.47 128.526C1184.01 128.526 1183.6 128.624 1183.22 128.82C1182.85 129.016 1182.58 129.291 1182.42 129.646H1181.14L1181.79 124.06H1187.37V125.236H1182.9L1182.45 128.904L1182.23 128.68C1182.38 128.391 1182.57 128.153 1182.82 127.966C1183.07 127.77 1183.35 127.625 1183.67 127.532C1184 127.429 1184.34 127.378 1184.69 127.378C1185.36 127.378 1185.94 127.527 1186.44 127.826C1186.95 128.115 1187.34 128.521 1187.62 129.044C1187.9 129.557 1188.04 130.145 1188.04 130.808C1188.04 131.471 1187.89 132.063 1187.59 132.586C1187.29 133.099 1186.88 133.501 1186.34 133.79C1185.81 134.079 1185.2 134.224 1184.5 134.224Z" fill="#9E9E9E"/>
<g opacity="0.5">
<path d="M1111.38 159.26V146.8H1112.45V159.26H1111.38ZM1112.03 158.196C1111.25 158.196 1110.58 158.056 1110.01 157.776C1109.44 157.487 1108.99 157.09 1108.65 156.586C1108.33 156.082 1108.14 155.499 1108.08 154.836L1109.61 154.752C1109.66 155.2 1109.79 155.583 1110 155.9C1110.2 156.208 1110.47 156.446 1110.81 156.614C1111.16 156.773 1111.57 156.852 1112.06 156.852C1112.48 156.852 1112.84 156.801 1113.13 156.698C1113.43 156.586 1113.66 156.427 1113.81 156.222C1113.96 156.017 1114.04 155.76 1114.04 155.452C1114.04 155.172 1113.98 154.929 1113.85 154.724C1113.72 154.509 1113.47 154.313 1113.09 154.136C1112.72 153.949 1112.17 153.772 1111.45 153.604C1110.68 153.417 1110.06 153.207 1109.59 152.974C1109.13 152.741 1108.79 152.456 1108.58 152.12C1108.39 151.775 1108.29 151.345 1108.29 150.832C1108.29 150.281 1108.43 149.796 1108.7 149.376C1108.97 148.947 1109.35 148.615 1109.84 148.382C1110.35 148.139 1110.95 148.018 1111.65 148.018C1112.4 148.018 1113.03 148.153 1113.55 148.424C1114.09 148.695 1114.51 149.068 1114.81 149.544C1115.12 150.02 1115.31 150.566 1115.39 151.182L1113.86 151.266C1113.82 150.902 1113.7 150.575 1113.51 150.286C1113.33 149.997 1113.09 149.773 1112.77 149.614C1112.45 149.446 1112.07 149.362 1111.62 149.362C1111.06 149.362 1110.62 149.493 1110.29 149.754C1109.97 150.015 1109.8 150.361 1109.8 150.79C1109.8 151.07 1109.87 151.303 1110 151.49C1110.14 151.677 1110.38 151.84 1110.71 151.98C1111.06 152.12 1111.55 152.265 1112.18 152.414C1113.02 152.61 1113.69 152.848 1114.18 153.128C1114.68 153.399 1115.03 153.721 1115.25 154.094C1115.46 154.467 1115.57 154.892 1115.57 155.368C1115.57 155.947 1115.42 156.451 1115.12 156.88C1114.82 157.3 1114.41 157.627 1113.88 157.86C1113.34 158.084 1112.73 158.196 1112.03 158.196ZM1120.7 158.224C1119.95 158.224 1119.28 158.112 1118.7 157.888C1118.12 157.664 1117.67 157.333 1117.34 156.894C1117.02 156.455 1116.87 155.919 1116.87 155.284C1116.87 154.556 1117.09 153.954 1117.52 153.478C1117.96 153.002 1118.55 152.685 1119.29 152.526L1119.32 152.806C1118.72 152.666 1118.24 152.409 1117.87 152.036C1117.52 151.663 1117.34 151.173 1117.34 150.566C1117.34 150.034 1117.48 149.563 1117.75 149.152C1118.02 148.741 1118.4 148.419 1118.9 148.186C1119.4 147.953 1120 147.836 1120.7 147.836C1121.39 147.836 1121.99 147.953 1122.49 148.186C1123 148.419 1123.38 148.741 1123.64 149.152C1123.91 149.563 1124.05 150.034 1124.05 150.566C1124.05 151.173 1123.87 151.663 1123.52 152.036C1123.16 152.4 1122.68 152.657 1122.07 152.806L1122.1 152.526C1122.85 152.685 1123.44 153.002 1123.88 153.478C1124.32 153.954 1124.54 154.556 1124.54 155.284C1124.54 155.919 1124.37 156.455 1124.05 156.894C1123.73 157.333 1123.28 157.664 1122.7 157.888C1122.13 158.112 1121.46 158.224 1120.7 158.224ZM1120.7 156.838C1121.39 156.838 1121.94 156.698 1122.34 156.418C1122.75 156.129 1122.96 155.699 1122.96 155.13C1122.96 154.589 1122.77 154.155 1122.4 153.828C1122.03 153.501 1121.47 153.338 1120.7 153.338C1119.94 153.338 1119.37 153.501 1118.99 153.828C1118.62 154.155 1118.43 154.589 1118.43 155.13C1118.43 155.699 1118.64 156.129 1119.05 156.418C1119.46 156.698 1120.01 156.838 1120.7 156.838ZM1120.7 152.092C1121.27 152.092 1121.71 151.975 1122.02 151.742C1122.34 151.499 1122.49 151.131 1122.49 150.636C1122.49 150.207 1122.34 149.861 1122.03 149.6C1121.73 149.339 1121.29 149.208 1120.7 149.208C1120.11 149.208 1119.67 149.339 1119.36 149.6C1119.05 149.861 1118.9 150.207 1118.9 150.636C1118.9 151.131 1119.05 151.499 1119.37 151.742C1119.69 151.975 1120.13 152.092 1120.7 152.092ZM1130.47 158V155.928H1125.46V154.64L1130.29 148.06H1131.99V154.556H1133.2V155.928H1131.99V158H1130.47ZM1127.18 154.556H1130.47V150.16L1127.18 154.556ZM1134.53 160.198L1135.23 158H1134.46V156.236H1136.27V157.79L1135.39 160.198H1134.53ZM1141.32 158.224C1140.58 158.224 1139.95 158.107 1139.43 157.874C1138.91 157.631 1138.5 157.295 1138.2 156.866C1137.9 156.437 1137.73 155.942 1137.68 155.382L1139.24 155.284C1139.31 155.807 1139.53 156.199 1139.89 156.46C1140.27 156.712 1140.74 156.838 1141.32 156.838C1141.97 156.838 1142.49 156.656 1142.86 156.292C1143.24 155.928 1143.44 155.419 1143.44 154.766C1143.44 154.337 1143.35 153.968 1143.17 153.66C1143 153.343 1142.76 153.1 1142.44 152.932C1142.12 152.755 1141.75 152.666 1141.31 152.666C1140.87 152.666 1140.48 152.759 1140.13 152.946C1139.79 153.133 1139.54 153.389 1139.39 153.716H1137.82L1138.49 148.06H1144.32V149.446H1139.84L1139.42 152.848L1139.18 152.638C1139.34 152.358 1139.54 152.129 1139.78 151.952C1140.02 151.765 1140.3 151.625 1140.62 151.532C1140.95 151.429 1141.29 151.378 1141.66 151.378C1142.33 151.378 1142.91 151.523 1143.41 151.812C1143.91 152.101 1144.3 152.503 1144.58 153.016C1144.86 153.529 1145 154.113 1145 154.766C1145 155.447 1144.85 156.049 1144.54 156.572C1144.23 157.095 1143.8 157.501 1143.25 157.79C1142.7 158.079 1142.06 158.224 1141.32 158.224ZM1148.47 158V150.916H1146.37V149.698H1147.22C1147.6 149.698 1147.9 149.651 1148.13 149.558C1148.37 149.455 1148.54 149.287 1148.64 149.054C1148.74 148.811 1148.79 148.48 1148.79 148.06H1149.98V158H1148.47ZM1153.93 158C1153.93 156.973 1154.07 155.961 1154.34 154.962C1154.62 153.954 1155.01 152.988 1155.52 152.064C1156.03 151.131 1156.64 150.258 1157.35 149.446H1151.79V148.06H1158.95V149.348C1158.16 150.244 1157.51 151.14 1156.99 152.036C1156.47 152.923 1156.09 153.856 1155.84 154.836C1155.6 155.807 1155.47 156.861 1155.47 158H1153.93ZM1159.54 158V156.236H1161.34V158H1159.54ZM1166.09 158.224C1165.23 158.224 1164.53 158.019 1164 157.608C1163.47 157.197 1163.1 156.651 1162.9 155.97L1164.42 155.872C1164.53 156.18 1164.73 156.423 1165 156.6C1165.28 156.768 1165.64 156.852 1166.09 156.852C1166.87 156.852 1167.46 156.544 1167.87 155.928C1168.28 155.312 1168.49 154.313 1168.5 152.932L1168.78 153.002C1168.54 153.59 1168.19 154.038 1167.71 154.346C1167.25 154.654 1166.69 154.808 1166.06 154.808C1165.41 154.808 1164.83 154.668 1164.34 154.388C1163.84 154.099 1163.46 153.697 1163.18 153.184C1162.9 152.671 1162.76 152.073 1162.76 151.392C1162.76 150.655 1162.91 150.025 1163.2 149.502C1163.5 148.97 1163.92 148.559 1164.45 148.27C1164.98 147.981 1165.6 147.836 1166.3 147.836C1167.16 147.836 1167.86 148.027 1168.4 148.41C1168.95 148.793 1169.35 149.334 1169.62 150.034C1169.89 150.725 1170.02 151.555 1170.02 152.526C1170.02 153.366 1169.95 154.136 1169.81 154.836C1169.67 155.536 1169.44 156.138 1169.13 156.642C1168.82 157.146 1168.41 157.538 1167.91 157.818C1167.41 158.089 1166.81 158.224 1166.09 158.224ZM1166.27 153.506C1166.69 153.506 1167.06 153.422 1167.38 153.254C1167.69 153.086 1167.94 152.848 1168.12 152.54C1168.3 152.223 1168.38 151.84 1168.38 151.392C1168.38 150.963 1168.3 150.585 1168.13 150.258C1167.97 149.922 1167.74 149.661 1167.43 149.474C1167.12 149.278 1166.76 149.18 1166.33 149.18C1165.91 149.18 1165.54 149.273 1165.23 149.46C1164.94 149.647 1164.7 149.908 1164.53 150.244C1164.38 150.571 1164.3 150.949 1164.3 151.378C1164.3 151.817 1164.38 152.195 1164.55 152.512C1164.72 152.829 1164.94 153.077 1165.23 153.254C1165.53 153.422 1165.88 153.506 1166.27 153.506ZM1171.68 158C1171.68 157.253 1171.8 156.586 1172.02 155.998C1172.24 155.41 1172.63 154.864 1173.17 154.36C1173.71 153.856 1174.46 153.352 1175.41 152.848C1175.86 152.615 1176.23 152.4 1176.5 152.204C1176.78 151.999 1176.98 151.789 1177.1 151.574C1177.22 151.359 1177.28 151.098 1177.28 150.79C1177.28 150.473 1177.21 150.202 1177.07 149.978C1176.94 149.745 1176.75 149.563 1176.49 149.432C1176.22 149.292 1175.89 149.222 1175.49 149.222C1174.86 149.222 1174.35 149.395 1173.98 149.74C1173.62 150.076 1173.39 150.561 1173.29 151.196L1171.73 151.098C1171.84 150.099 1172.22 149.306 1172.86 148.718C1173.51 148.13 1174.39 147.836 1175.49 147.836C1176.2 147.836 1176.8 147.962 1177.3 148.214C1177.8 148.457 1178.18 148.797 1178.45 149.236C1178.72 149.675 1178.85 150.183 1178.85 150.762C1178.85 151.266 1178.77 151.7 1178.6 152.064C1178.43 152.428 1178.15 152.769 1177.76 153.086C1177.37 153.394 1176.84 153.725 1176.16 154.08C1175.3 154.537 1174.66 154.99 1174.22 155.438C1173.78 155.877 1173.55 156.269 1173.52 156.614H1178.85V158H1171.68Z" fill="#2E2E2E" fill-opacity="0.8"/>
<path d="M1213.06 154.556V153.268H1219.81V154.556H1213.06ZM1215.79 157.286V150.538H1217.08V157.286H1215.79ZM1224.3 159.26V146.786H1225.38V159.26H1224.3ZM1224.96 158.196C1224.24 158.196 1223.61 158.056 1223.07 157.776C1222.53 157.487 1222.11 157.085 1221.79 156.572C1221.47 156.059 1221.29 155.457 1221.23 154.766L1222.72 154.668C1222.78 155.144 1222.91 155.545 1223.11 155.872C1223.3 156.199 1223.56 156.446 1223.88 156.614C1224.2 156.773 1224.57 156.852 1225 156.852C1225.44 156.852 1225.8 156.801 1226.09 156.698C1226.38 156.586 1226.6 156.427 1226.75 156.222C1226.9 156.017 1226.97 155.769 1226.97 155.48C1226.97 155.181 1226.9 154.929 1226.76 154.724C1226.63 154.509 1226.38 154.318 1226.01 154.15C1225.63 153.982 1225.08 153.805 1224.35 153.618C1223.69 153.441 1223.15 153.231 1222.72 152.988C1222.29 152.736 1221.97 152.433 1221.76 152.078C1221.57 151.723 1221.47 151.308 1221.47 150.832C1221.47 150.263 1221.6 149.773 1221.86 149.362C1222.13 148.942 1222.52 148.62 1223.01 148.396C1223.5 148.163 1224.1 148.046 1224.8 148.046C1225.49 148.046 1226.08 148.177 1226.57 148.438C1227.06 148.69 1227.45 149.049 1227.73 149.516C1228.02 149.983 1228.19 150.533 1228.26 151.168L1226.78 151.252C1226.73 150.869 1226.63 150.538 1226.47 150.258C1226.31 149.978 1226.09 149.763 1225.81 149.614C1225.53 149.465 1225.18 149.39 1224.76 149.39C1224.18 149.39 1223.73 149.511 1223.4 149.754C1223.08 149.997 1222.91 150.333 1222.91 150.762C1222.91 151.051 1222.98 151.289 1223.11 151.476C1223.24 151.663 1223.47 151.831 1223.79 151.98C1224.12 152.12 1224.59 152.274 1225.19 152.442C1226 152.657 1226.63 152.899 1227.1 153.17C1227.57 153.431 1227.91 153.749 1228.12 154.122C1228.33 154.486 1228.43 154.939 1228.43 155.48C1228.43 156.021 1228.28 156.497 1227.99 156.908C1227.7 157.319 1227.3 157.636 1226.78 157.86C1226.26 158.084 1225.66 158.196 1224.96 158.196ZM1229.7 158C1229.7 157.263 1229.8 156.605 1230.02 156.026C1230.23 155.447 1230.61 154.906 1231.15 154.402C1231.7 153.889 1232.46 153.375 1233.43 152.862C1233.85 152.647 1234.2 152.442 1234.46 152.246C1234.72 152.05 1234.91 151.84 1235.03 151.616C1235.15 151.392 1235.21 151.121 1235.21 150.804C1235.21 150.477 1235.15 150.197 1235.02 149.964C1234.89 149.731 1234.69 149.549 1234.43 149.418C1234.17 149.278 1233.84 149.208 1233.45 149.208C1232.81 149.208 1232.31 149.376 1231.95 149.712C1231.6 150.048 1231.37 150.529 1231.28 151.154L1229.75 151.056C1229.86 150.076 1230.22 149.297 1230.86 148.718C1231.49 148.13 1232.36 147.836 1233.45 147.836C1234.16 147.836 1234.76 147.957 1235.24 148.2C1235.74 148.443 1236.11 148.783 1236.36 149.222C1236.61 149.661 1236.74 150.169 1236.74 150.748C1236.74 151.261 1236.65 151.705 1236.49 152.078C1236.32 152.451 1236.04 152.797 1235.65 153.114C1235.25 153.431 1234.72 153.772 1234.04 154.136C1233.47 154.444 1232.99 154.747 1232.61 155.046C1232.24 155.335 1231.95 155.615 1231.75 155.886C1231.57 156.147 1231.47 156.39 1231.45 156.614H1236.75V158H1229.7ZM1241.59 158.224C1240.93 158.224 1240.35 158.107 1239.86 157.874C1239.37 157.631 1238.98 157.3 1238.69 156.88C1238.41 156.451 1238.25 155.961 1238.2 155.41L1239.73 155.312C1239.79 155.825 1239.99 156.213 1240.32 156.474C1240.64 156.726 1241.07 156.852 1241.59 156.852C1242.18 156.852 1242.65 156.675 1242.99 156.32C1243.34 155.956 1243.51 155.443 1243.51 154.78C1243.51 154.351 1243.43 153.977 1243.27 153.66C1243.12 153.343 1242.91 153.105 1242.63 152.946C1242.35 152.778 1242.01 152.694 1241.62 152.694C1241.26 152.694 1240.91 152.787 1240.58 152.974C1240.27 153.151 1240.04 153.399 1239.91 153.716L1238.36 153.688L1239 148.06H1244.48V149.446H1240.28L1239.87 152.876L1239.58 152.666C1239.72 152.386 1239.92 152.153 1240.15 151.966C1240.39 151.779 1240.66 151.639 1240.95 151.546C1241.25 151.443 1241.54 151.392 1241.84 151.392C1242.49 151.392 1243.05 151.537 1243.52 151.826C1244.01 152.115 1244.38 152.517 1244.64 153.03C1244.9 153.543 1245.04 154.131 1245.04 154.794C1245.04 155.457 1244.89 156.049 1244.6 156.572C1244.31 157.095 1243.91 157.501 1243.38 157.79C1242.87 158.079 1242.27 158.224 1241.59 158.224ZM1250.04 158.224C1249.28 158.224 1248.62 158.051 1248.08 157.706C1247.55 157.361 1247.14 156.857 1246.86 156.194C1246.59 155.522 1246.46 154.715 1246.46 153.772C1246.46 152.951 1246.53 152.181 1246.67 151.462C1246.81 150.743 1247.03 150.113 1247.34 149.572C1247.65 149.031 1248.05 148.606 1248.56 148.298C1249.06 147.99 1249.68 147.836 1250.42 147.836C1251.04 147.836 1251.55 147.939 1251.96 148.144C1252.38 148.34 1252.72 148.62 1252.97 148.984C1253.23 149.348 1253.43 149.763 1253.56 150.23L1252.04 150.356C1251.95 150.011 1251.78 149.735 1251.53 149.53C1251.28 149.315 1250.91 149.208 1250.42 149.208C1249.92 149.208 1249.48 149.353 1249.12 149.642C1248.76 149.931 1248.48 150.37 1248.28 150.958C1248.07 151.546 1247.96 152.297 1247.94 153.212L1247.58 153.156C1247.68 152.829 1247.85 152.526 1248.1 152.246C1248.35 151.966 1248.66 151.742 1249.03 151.574C1249.41 151.397 1249.84 151.308 1250.32 151.308C1250.98 151.308 1251.55 151.448 1252.03 151.728C1252.52 151.999 1252.89 152.391 1253.16 152.904C1253.43 153.408 1253.57 153.996 1253.57 154.668C1253.57 155.405 1253.42 156.04 1253.12 156.572C1252.82 157.095 1252.41 157.501 1251.89 157.79C1251.37 158.079 1250.75 158.224 1250.04 158.224ZM1250.04 156.838C1250.66 156.838 1251.14 156.651 1251.5 156.278C1251.86 155.905 1252.04 155.377 1252.04 154.696C1252.04 154.061 1251.88 153.562 1251.54 153.198C1251.2 152.825 1250.74 152.638 1250.15 152.638C1249.73 152.638 1249.36 152.722 1249.03 152.89C1248.72 153.058 1248.46 153.296 1248.28 153.604C1248.1 153.912 1248.01 154.276 1248.01 154.696C1248.01 155.107 1248.09 155.475 1248.25 155.802C1248.42 156.129 1248.66 156.385 1248.96 156.572C1249.27 156.749 1249.63 156.838 1250.04 156.838ZM1261.51 159.54C1260.87 158.56 1260.38 157.566 1260.05 156.558C1259.74 155.55 1259.58 154.537 1259.58 153.52C1259.58 151.457 1260.22 149.451 1261.51 147.5H1262.83C1261.66 149.516 1261.08 151.523 1261.08 153.52C1261.08 154.519 1261.22 155.522 1261.51 156.53C1261.81 157.529 1262.25 158.532 1262.83 159.54H1261.51ZM1266.22 154.556V153.268H1272.97V154.556H1266.22ZM1268.95 157.286V150.538H1270.24V157.286H1268.95ZM1275.53 156.516L1279.34 149.474L1280.46 149.544L1276.65 156.586L1275.53 156.516ZM1277.99 158.224C1277.26 158.224 1276.63 158.014 1276.1 157.594C1275.57 157.174 1275.16 156.577 1274.88 155.802C1274.6 155.027 1274.46 154.108 1274.46 153.044C1274.46 151.971 1274.6 151.047 1274.88 150.272C1275.16 149.497 1275.57 148.9 1276.1 148.48C1276.63 148.051 1277.26 147.836 1277.99 147.836C1278.73 147.836 1279.36 148.051 1279.88 148.48C1280.41 148.9 1280.82 149.497 1281.1 150.272C1281.38 151.047 1281.52 151.971 1281.52 153.044C1281.52 154.108 1281.38 155.027 1281.1 155.802C1280.82 156.577 1280.41 157.174 1279.88 157.594C1279.36 158.014 1278.73 158.224 1277.99 158.224ZM1277.99 156.852C1278.41 156.852 1278.77 156.703 1279.06 156.404C1279.35 156.096 1279.58 155.657 1279.74 155.088C1279.91 154.519 1279.99 153.837 1279.99 153.044C1279.99 152.232 1279.91 151.541 1279.74 150.972C1279.58 150.403 1279.35 149.969 1279.06 149.67C1278.77 149.362 1278.41 149.208 1277.99 149.208C1277.58 149.208 1277.23 149.362 1276.93 149.67C1276.63 149.969 1276.4 150.403 1276.23 150.972C1276.07 151.541 1275.99 152.232 1275.99 153.044C1275.99 153.837 1276.07 154.519 1276.23 155.088C1276.4 155.657 1276.63 156.096 1276.93 156.404C1277.23 156.703 1277.58 156.852 1277.99 156.852ZM1285.43 158V156.152H1287.34V158H1285.43ZM1295.82 158V155.9H1291.08V154.626L1295.66 148.06H1297.29V154.542H1298.48V155.9H1297.29V158H1295.82ZM1292.53 154.542H1295.82V150.02L1292.53 154.542ZM1301.12 152.876C1300.55 152.876 1300.07 152.666 1299.68 152.246C1299.28 151.826 1299.09 151.215 1299.09 150.412C1299.09 149.6 1299.28 148.989 1299.68 148.578C1300.07 148.158 1300.55 147.948 1301.12 147.948C1301.7 147.948 1302.18 148.158 1302.56 148.578C1302.95 148.989 1303.15 149.6 1303.15 150.412C1303.15 151.215 1302.95 151.826 1302.56 152.246C1302.18 152.666 1301.7 152.876 1301.12 152.876ZM1301.12 151.938C1301.4 151.938 1301.62 151.807 1301.78 151.546C1301.94 151.285 1302.03 150.907 1302.03 150.412C1302.03 149.917 1301.94 149.539 1301.78 149.278C1301.62 149.017 1301.4 148.886 1301.12 148.886C1300.84 148.886 1300.61 149.017 1300.45 149.278C1300.29 149.539 1300.21 149.917 1300.21 150.412C1300.21 150.907 1300.29 151.285 1300.45 151.546C1300.61 151.807 1300.84 151.938 1301.12 151.938ZM1299.66 158L1305.56 148.06H1306.69L1300.8 158H1299.66ZM1305.23 158.112C1304.65 158.112 1304.17 157.902 1303.78 157.482C1303.39 157.062 1303.2 156.451 1303.2 155.648C1303.2 154.836 1303.39 154.225 1303.78 153.814C1304.17 153.394 1304.65 153.184 1305.23 153.184C1305.8 153.184 1306.28 153.394 1306.68 153.814C1307.07 154.225 1307.26 154.836 1307.26 155.648C1307.26 156.451 1307.07 157.062 1306.68 157.482C1306.28 157.902 1305.8 158.112 1305.23 158.112ZM1305.23 157.174C1305.51 157.174 1305.73 157.043 1305.89 156.782C1306.06 156.521 1306.14 156.143 1306.14 155.648C1306.14 155.153 1306.06 154.775 1305.89 154.514C1305.73 154.253 1305.51 154.122 1305.23 154.122C1304.95 154.122 1304.73 154.253 1304.56 154.514C1304.4 154.775 1304.32 155.153 1304.32 155.648C1304.32 156.143 1304.4 156.521 1304.56 156.782C1304.73 157.043 1304.95 157.174 1305.23 157.174ZM1311.26 159.54H1309.95C1310.52 158.532 1310.96 157.529 1311.25 156.53C1311.55 155.522 1311.7 154.519 1311.7 153.52C1311.7 151.523 1311.11 149.516 1309.95 147.5H1311.26C1312.55 149.451 1313.19 151.457 1313.19 153.52C1313.19 154.537 1313.03 155.55 1312.7 156.558C1312.39 157.566 1311.91 158.56 1311.26 159.54Z" fill="#2E2E2E" fill-opacity="0.8"/>
</g>
</g>
<path d="M244 972L244 335" stroke="url(#paint4_linear_2002_1397)" stroke-width="1.5" stroke-dasharray="4 4"/>
<g filter="url(#filter4_dd_2002_1397)">
<path d="M239 717C239 714.239 241.239 712 244 712C246.761 712 249 714.239 249 717C249 719.761 246.761 722 244 722C241.239 722 239 719.761 239 717Z" fill="white"/>
</g>
</g>
<defs>
<filter id="filter0_f_2002_1397" x="306" y="274" width="1013" height="1033.93" filterUnits="userSpaceOnUse" color-interpolation-filters="sRGB">
<feFlood flood-opacity="0" result="BackgroundImageFix"/>
<feBlend mode="normal" in="SourceGraphic" in2="BackgroundImageFix" result="shape"/>
<feGaussianBlur stdDeviation="150" result="effect1_foregroundBlur_2002_1397"/>
</filter>
<filter id="filter1_f_2002_1397" x="-134.814" y="472.674" width="1065.7" height="845.156" filterUnits="userSpaceOnUse" color-interpolation-filters="sRGB">
<feFlood flood-opacity="0" result="BackgroundImageFix"/>
<feBlend mode="normal" in="SourceGraphic" in2="BackgroundImageFix" result="shape"/>
<feGaussianBlur stdDeviation="150" result="effect1_foregroundBlur_2002_1397"/>
</filter>
<filter id="filter2_dd_2002_1397" x="1206" y="190" width="12" height="18" filterUnits="userSpaceOnUse" color-interpolation-filters="sRGB">
<feFlood flood-opacity="0" result="BackgroundImageFix"/>
<feColorMatrix in="SourceAlpha" type="matrix" values="0 0 0 0 0 0 0 0 0 0 0 0 0 0 0 0 0 0 127 0" result="hardAlpha"/>
<feMorphology radius="1" operator="dilate" in="SourceAlpha" result="effect1_dropShadow_2002_1397"/>
<feOffset/>
<feComposite in2="hardAlpha" operator="out"/>
<feColorMatrix type="matrix" values="0 0 0 0 0 0 0 0 0 0 0 0 0 0 0 0 0 0 0.1 0"/>
<feBlend mode="normal" in2="BackgroundImageFix" result="effect1_dropShadow_2002_1397"/>
<feColorMatrix in="SourceAlpha" type="matrix" values="0 0 0 0 0 0 0 0 0 0 0 0 0 0 0 0 0 0 127 0" result="hardAlpha"/>
<feMorphology radius="5" operator="erode" in="SourceAlpha" result="effect2_dropShadow_2002_1397"/>
<feOffset dy="-6"/>
<feGaussianBlur stdDeviation="3"/>
<feComposite in2="hardAlpha" operator="out"/>
<feColorMatrix type="matrix" values="0 0 0 0 0.119271 0 0 0 0 0.119271 0 0 0 0 0.119271 0 0 0 0.08 0"/>
<feBlend mode="normal" in2="effect1_dropShadow_2002_1397" result="effect2_dropShadow_2002_1397"/>
<feBlend mode="normal" in="SourceGraphic" in2="effect2_dropShadow_2002_1397" result="shape"/>
</filter>
<filter id="filter3_dd_2002_1397" x="1087" y="99" width="249" height="84" filterUnits="userSpaceOnUse" color-interpolation-filters="sRGB">
<feFlood flood-opacity="0" result="BackgroundImageFix"/>
<feColorMatrix in="SourceAlpha" type="matrix" values="0 0 0 0 0 0 0 0 0 0 0 0 0 0 0 0 0 0 127 0" result="hardAlpha"/>
<feMorphology radius="1" operator="dilate" in="SourceAlpha" result="effect1_dropShadow_2002_1397"/>
<feOffset/>
<feComposite in2="hardAlpha" operator="out"/>
<feColorMatrix type="matrix" values="0 0 0 0 0.0431373 0 0 0 0 0.0431373 0 0 0 0 0.0431373 0 0 0 0.05 0"/>
<feBlend mode="normal" in2="BackgroundImageFix" result="effect1_dropShadow_2002_1397"/>
<feColorMatrix in="SourceAlpha" type="matrix" values="0 0 0 0 0 0 0 0 0 0 0 0 0 0 0 0 0 0 127 0" result="hardAlpha"/>
<feOffset dy="1"/>
<feGaussianBlur stdDeviation="3"/>
<feComposite in2="hardAlpha" operator="out"/>
<feColorMatrix type="matrix" values="0 0 0 0 0.0431373 0 0 0 0 0.0431373 0 0 0 0 0.0431373 0 0 0 0.06 0"/>
<feBlend mode="normal" in2="effect1_dropShadow_2002_1397" result="effect2_dropShadow_2002_1397"/>
<feBlend mode="normal" in="SourceGraphic" in2="effect2_dropShadow_2002_1397" result="shape"/>
</filter>
<filter id="filter4_dd_2002_1397" x="238" y="705" width="12" height="18" filterUnits="userSpaceOnUse" color-interpolation-filters="sRGB">
<feFlood flood-opacity="0" result="BackgroundImageFix"/>
<feColorMatrix in="SourceAlpha" type="matrix" values="0 0 0 0 0 0 0 0 0 0 0 0 0 0 0 0 0 0 127 0" result="hardAlpha"/>
<feMorphology radius="1" operator="dilate" in="SourceAlpha" result="effect1_dropShadow_2002_1397"/>
<feOffset/>
<feComposite in2="hardAlpha" operator="out"/>
<feColorMatrix type="matrix" values="0 0 0 0 0 0 0 0 0 0 0 0 0 0 0 0 0 0 0.1 0"/>
<feBlend mode="normal" in2="BackgroundImageFix" result="effect1_dropShadow_2002_1397"/>
<feColorMatrix in="SourceAlpha" type="matrix" values="0 0 0 0 0 0 0 0 0 0 0 0 0 0 0 0 0 0 127 0" result="hardAlpha"/>
<feMorphology radius="5" operator="erode" in="SourceAlpha" result="effect2_dropShadow_2002_1397"/>
<feOffset dy="-6"/>
<feGaussianBlur stdDeviation="3"/>
<feComposite in2="hardAlpha" operator="out"/>
<feColorMatrix type="matrix" values="0 0 0 0 0.119271 0 0 0 0 0.119271 0 0 0 0 0.119271 0 0 0 0.08 0"/>
<feBlend mode="normal" in2="effect1_dropShadow_2002_1397" result="effect2_dropShadow_2002_1397"/>
<feBlend mode="normal" in="SourceGraphic" in2="effect2_dropShadow_2002_1397" result="shape"/>
</filter>
<radialGradient id="paint0_radial_2002_1397" cx="0" cy="0" r="1" gradientUnits="userSpaceOnUse" gradientTransform="translate(1142.5 317) rotate(120.479) scale(648.631 1492.78)">
<stop stop-color="#E7E7E7"/>
<stop offset="0.0666667" stop-color="#E7E7E7"/>
<stop offset="0.133333" stop-color="#E8E8E8"/>
<stop offset="0.2" stop-color="#E9E9E9"/>
<stop offset="0.266667" stop-color="#EAEAEA"/>
<stop offset="0.333333" stop-color="#EBEBEB"/>
<stop offset="0.4" stop-color="#EDEDED"/>
<stop offset="0.466667" stop-color="#EFEFEF"/>
<stop offset="0.533333" stop-color="#F2F2F2"/>
<stop offset="0.6" stop-color="#F4F4F4"/>
<stop offset="0.666667" stop-color="#F6F6F6"/>
<stop offset="0.733333" stop-color="#F7F7F7"/>
<stop offset="0.8" stop-color="#F8F8F8"/>
<stop offset="0.866667" stop-color="#F9F9F9"/>
<stop offset="0.933333" stop-color="#FAFAFA"/>
<stop offset="1" stop-color="#FAFAFA"/>
</radialGradient>
<linearGradient id="paint1_linear_2002_1397" x1="638.523" y1="957.111" x2="975.716" y2="957.111" gradientUnits="userSpaceOnUse">
<stop stop-color="#F23E94"/>
<stop offset="0.35" stop-color="#6927DA"/>
<stop offset="0.67" stop-color="#1570EF"/>
<stop offset="1" stop-color="#22CCEE"/>
</linearGradient>
<linearGradient id="paint2_linear_2002_1397" x1="540.904" y1="1013.78" x2="197.126" y2="950.775" gradientUnits="userSpaceOnUse">
<stop stop-color="#F23E94"/>
<stop offset="1" stop-color="#6927DA"/>
</linearGradient>
<linearGradient id="paint3_linear_2002_1397" x1="1212.5" y1="-1" x2="1212.5" y2="636" gradientUnits="userSpaceOnUse">
<stop stop-color="#E7E7E7" stop-opacity="0"/>
<stop offset="0.16" stop-color="#E7E7E7"/>
<stop offset="0.785" stop-color="#E7E7E7"/>
<stop offset="1" stop-color="#E7E7E7" stop-opacity="0"/>
</linearGradient>
<linearGradient id="paint4_linear_2002_1397" x1="244.5" y1="335" x2="244.5" y2="839.5" gradientUnits="userSpaceOnUse">
<stop stop-color="#E7E7E7" stop-opacity="0"/>
<stop offset="0.17061" stop-color="#E7E7E7"/>
<stop offset="0.85" stop-color="#E7E7E7"/>
<stop offset="1" stop-color="#E7E7E7" stop-opacity="0"/>
</linearGradient>
<clipPath id="clip0_2002_1397">
<rect width="1440" height="1440" fill="white"/>
</clipPath>
</defs>
</svg>
