<svg width="1442" height="1442" viewBox="0 0 1442 1442" fill="none" xmlns="http://www.w3.org/2000/svg">
<g clip-path="url(#clip0_2002_1397)" filter="url(#filter0_d_2002_1397)">
<rect width="1440" height="1440" transform="translate(1 1)" fill="url(#paint0_linear_2002_1397)"/>
<rect width="1440" height="1440" transform="translate(1 1)" fill="black" fill-opacity="0.01"/>
<path d="M35.9737 702.162L-2 721H1441V94L1403.03 123.006L1365.05 159.043L1327.08 203.149L1289.11 209.627L1251.13 242.02L1213.16 203.149L1175.18 225.176L1137.21 218.697L1099.24 264.047L1061.26 331.503L1023.29 382.035L985.316 431.132L947.342 436.65L909.368 431.132L871.395 460.809L833.421 484.991L795.447 478.392L757.474 493.038L719.5 478.392L681.526 493.992L643.553 524.493L605.579 522.152L567.605 506.572L529.632 528.695L491.658 557.703L453.684 543.24L415.711 534.796L377.737 530.049L339.763 547.995L301.789 572.708L263.816 625.092L225.842 625.666L187.868 615.304L149.895 627.083L111.921 648.516L73.9474 693.807L35.9737 702.162Z" fill="url(#paint1_radial_2002_1397)" fill-opacity="0.1"/>
<path d="M-2 721L35.9737 702.162L73.9474 693.807L111.921 648.516L149.895 627.083L187.868 615.304L225.842 625.666L263.816 625.092L301.789 572.708L339.763 547.995L377.737 530.049L415.711 534.796L453.684 543.24L491.658 557.703L529.632 528.695L567.605 506.572L605.579 522.152L643.553 524.493L681.526 493.992L719.5 478.392L757.474 493.038L795.447 478.392L833.421 484.991L871.395 460.809L909.368 431.132L947.342 436.65L985.316 431.132L1023.29 382.035L1061.26 331.503L1099.24 264.047L1137.21 218.697L1175.18 225.176L1213.16 203.149L1251.13 242.02L1289.11 209.627L1327.08 203.149L1365.05 159.043L1403.03 123.006L1441 94" stroke="#E7E7E7" stroke-width="2" stroke-miterlimit="16"/>
<path d="M46.018 108.26V95.8H47.082V108.26H46.018ZM46.662 107.21C45.906 107.21 45.2433 107.07 44.674 106.79C44.114 106.501 43.666 106.109 43.33 105.614C43.0033 105.11 42.812 104.527 42.756 103.864L44.142 103.78C44.2073 104.247 44.3427 104.643 44.548 104.97C44.7627 105.297 45.0473 105.544 45.402 105.712C45.7567 105.871 46.186 105.95 46.69 105.95C47.1287 105.95 47.502 105.899 47.81 105.796C48.118 105.684 48.3513 105.521 48.51 105.306C48.678 105.082 48.762 104.811 48.762 104.494C48.762 104.205 48.692 103.948 48.552 103.724C48.4213 103.5 48.16 103.295 47.768 103.108C47.3853 102.921 46.8207 102.739 46.074 102.562C45.318 102.366 44.7113 102.156 44.254 101.932C43.7967 101.699 43.4653 101.414 43.26 101.078C43.064 100.733 42.966 100.313 42.966 99.818C42.966 99.2767 43.0967 98.796 43.358 98.376C43.6287 97.956 44.0113 97.6293 44.506 97.396C45.0007 97.1533 45.5887 97.032 46.27 97.032C46.998 97.032 47.6233 97.1673 48.146 97.438C48.6687 97.7087 49.0793 98.082 49.378 98.558C49.686 99.0247 49.8773 99.5613 49.952 100.168L48.566 100.252C48.5193 99.8693 48.398 99.5287 48.202 99.23C48.0153 98.9313 47.7587 98.698 47.432 98.53C47.1053 98.362 46.7087 98.278 46.242 98.278C45.6633 98.278 45.2013 98.418 44.856 98.698C44.52 98.9687 44.352 99.328 44.352 99.776C44.352 100.065 44.4173 100.308 44.548 100.504C44.688 100.691 44.9353 100.859 45.29 101.008C45.6447 101.148 46.1487 101.297 46.802 101.456C47.6327 101.661 48.2907 101.904 48.776 102.184C49.2707 102.455 49.6207 102.777 49.826 103.15C50.0313 103.514 50.134 103.934 50.134 104.41C50.134 104.979 49.9847 105.474 49.686 105.894C49.3967 106.314 48.9907 106.641 48.468 106.874C47.9453 107.098 47.3433 107.21 46.662 107.21ZM53.5464 107V99.776H51.4604V98.656H52.3004C52.6737 98.656 52.9724 98.6093 53.1964 98.516C53.4204 98.4133 53.5791 98.2453 53.6724 98.012C53.7751 97.7787 53.8264 97.4613 53.8264 97.06H54.9044V107H53.5464ZM61.0998 107.224C60.2878 107.224 59.5832 107.014 58.9858 106.594C58.3885 106.174 57.9265 105.577 57.5998 104.802C57.2732 104.027 57.1098 103.108 57.1098 102.044C57.1098 100.98 57.2732 100.061 57.5998 99.286C57.9265 98.502 58.3885 97.9 58.9858 97.48C59.5832 97.0507 60.2878 96.836 61.0998 96.836C61.9212 96.836 62.6305 97.0507 63.2278 97.48C63.8252 97.9 64.2872 98.4973 64.6138 99.272C64.9405 100.047 65.1038 100.971 65.1038 102.044C65.1038 103.108 64.9405 104.027 64.6138 104.802C64.2872 105.577 63.8252 106.174 63.2278 106.594C62.6305 107.014 61.9212 107.224 61.0998 107.224ZM61.0998 105.95C61.9212 105.95 62.5558 105.614 63.0038 104.942C63.4518 104.261 63.6758 103.295 63.6758 102.044C63.6758 101.204 63.5732 100.49 63.3678 99.902C63.1718 99.314 62.8825 98.8707 62.4998 98.572C62.1265 98.264 61.6598 98.11 61.0998 98.11C60.5492 98.11 60.0825 98.264 59.6998 98.572C59.3265 98.8707 59.0372 99.314 58.8318 99.902C58.6358 100.49 58.5378 101.204 58.5378 102.044C58.5378 103.295 58.7618 104.261 59.2098 104.942C59.6578 105.614 60.2878 105.95 61.0998 105.95ZM70.4651 107.224C69.6531 107.224 68.9484 107.014 68.3511 106.594C67.7537 106.174 67.2917 105.577 66.9651 104.802C66.6384 104.027 66.4751 103.108 66.4751 102.044C66.4751 100.98 66.6384 100.061 66.9651 99.286C67.2917 98.502 67.7537 97.9 68.3511 97.48C68.9484 97.0507 69.6531 96.836 70.4651 96.836C71.2864 96.836 71.9957 97.0507 72.5931 97.48C73.1904 97.9 73.6524 98.4973 73.9791 99.272C74.3057 100.047 74.4691 100.971 74.4691 102.044C74.4691 103.108 74.3057 104.027 73.9791 104.802C73.6524 105.577 73.1904 106.174 72.5931 106.594C71.9957 107.014 71.2864 107.224 70.4651 107.224ZM70.4651 105.95C71.2864 105.95 71.9211 105.614 72.3691 104.942C72.8171 104.261 73.0411 103.295 73.0411 102.044C73.0411 101.204 72.9384 100.49 72.7331 99.902C72.5371 99.314 72.2477 98.8707 71.8651 98.572C71.4917 98.264 71.0251 98.11 70.4651 98.11C69.9144 98.11 69.4477 98.264 69.0651 98.572C68.6917 98.8707 68.4024 99.314 68.1971 99.902C68.0011 100.49 67.9031 101.204 67.9031 102.044C67.9031 103.295 68.1271 104.261 68.5751 104.942C69.0231 105.614 69.6531 105.95 70.4651 105.95ZM76.2463 107V97.06H77.5763V103.402L81.0483 99.566H82.7703L79.8443 102.702L82.8963 107H81.3143L78.9623 103.57L77.5763 105.04V107H76.2463Z" fill="#D4D4D4"/>
<path d="M46.018 232.26V219.8H47.082V232.26H46.018ZM46.662 231.21C45.906 231.21 45.2433 231.07 44.674 230.79C44.114 230.501 43.666 230.109 43.33 229.614C43.0033 229.11 42.812 228.527 42.756 227.864L44.142 227.78C44.2073 228.247 44.3427 228.643 44.548 228.97C44.7627 229.297 45.0473 229.544 45.402 229.712C45.7567 229.871 46.186 229.95 46.69 229.95C47.1287 229.95 47.502 229.899 47.81 229.796C48.118 229.684 48.3513 229.521 48.51 229.306C48.678 229.082 48.762 228.811 48.762 228.494C48.762 228.205 48.692 227.948 48.552 227.724C48.4213 227.5 48.16 227.295 47.768 227.108C47.3853 226.921 46.8207 226.739 46.074 226.562C45.318 226.366 44.7113 226.156 44.254 225.932C43.7967 225.699 43.4653 225.414 43.26 225.078C43.064 224.733 42.966 224.313 42.966 223.818C42.966 223.277 43.0967 222.796 43.358 222.376C43.6287 221.956 44.0113 221.629 44.506 221.396C45.0007 221.153 45.5887 221.032 46.27 221.032C46.998 221.032 47.6233 221.167 48.146 221.438C48.6687 221.709 49.0793 222.082 49.378 222.558C49.686 223.025 49.8773 223.561 49.952 224.168L48.566 224.252C48.5193 223.869 48.398 223.529 48.202 223.23C48.0153 222.931 47.7587 222.698 47.432 222.53C47.1053 222.362 46.7087 222.278 46.242 222.278C45.6633 222.278 45.2013 222.418 44.856 222.698C44.52 222.969 44.352 223.328 44.352 223.776C44.352 224.065 44.4173 224.308 44.548 224.504C44.688 224.691 44.9353 224.859 45.29 225.008C45.6447 225.148 46.1487 225.297 46.802 225.456C47.6327 225.661 48.2907 225.904 48.776 226.184C49.2707 226.455 49.6207 226.777 49.826 227.15C50.0313 227.514 50.134 227.934 50.134 228.41C50.134 228.979 49.9847 229.474 49.686 229.894C49.3967 230.314 48.9907 230.641 48.468 230.874C47.9453 231.098 47.3433 231.21 46.662 231.21ZM55.1984 231.224C54.4704 231.224 53.8217 231.112 53.2524 230.888C52.6831 230.664 52.2397 230.333 51.9224 229.894C51.6051 229.455 51.4464 228.914 51.4464 228.27C51.4464 227.551 51.6657 226.954 52.1044 226.478C52.5431 226.002 53.1217 225.685 53.8404 225.526L53.8684 225.806C53.2897 225.657 52.8184 225.4 52.4544 225.036C52.0997 224.672 51.9224 224.182 51.9224 223.566C51.9224 223.043 52.0577 222.577 52.3284 222.166C52.5991 221.755 52.9771 221.433 53.4624 221.2C53.9571 220.957 54.5357 220.836 55.1984 220.836C55.8704 220.836 56.4491 220.957 56.9344 221.2C57.4291 221.433 57.8071 221.755 58.0684 222.166C58.3391 222.577 58.4744 223.043 58.4744 223.566C58.4744 224.182 58.2971 224.672 57.9424 225.036C57.5971 225.4 57.1304 225.657 56.5424 225.806L56.5704 225.526C57.2984 225.694 57.8771 226.016 58.3064 226.492C58.7357 226.959 58.9504 227.551 58.9504 228.27C58.9504 228.914 58.7917 229.455 58.4744 229.894C58.1571 230.333 57.7184 230.664 57.1584 230.888C56.5984 231.112 55.9451 231.224 55.1984 231.224ZM55.1984 229.95C55.9171 229.95 56.4864 229.801 56.9064 229.502C57.3264 229.203 57.5364 228.755 57.5364 228.158C57.5364 227.598 57.3451 227.15 56.9624 226.814C56.5891 226.478 56.0011 226.31 55.1984 226.31C54.4144 226.31 53.8264 226.478 53.4344 226.814C53.0517 227.15 52.8604 227.598 52.8604 228.158C52.8604 228.755 53.0704 229.203 53.4904 229.502C53.9197 229.801 54.4891 229.95 55.1984 229.95ZM55.1984 225.134C55.7957 225.134 56.2531 225.008 56.5704 224.756C56.8971 224.495 57.0604 224.112 57.0604 223.608C57.0604 223.151 56.9017 222.787 56.5844 222.516C56.2764 222.245 55.8144 222.11 55.1984 222.11C54.6011 222.11 54.1391 222.245 53.8124 222.516C53.4951 222.787 53.3364 223.151 53.3364 223.608C53.3364 224.112 53.4997 224.495 53.8264 224.756C54.1531 225.008 54.6104 225.134 55.1984 225.134ZM64.1897 231.224C63.3777 231.224 62.673 231.014 62.0757 230.594C61.4783 230.174 61.0163 229.577 60.6897 228.802C60.363 228.027 60.1997 227.108 60.1997 226.044C60.1997 224.98 60.363 224.061 60.6897 223.286C61.0163 222.502 61.4783 221.9 62.0757 221.48C62.673 221.051 63.3777 220.836 64.1897 220.836C65.011 220.836 65.7203 221.051 66.3177 221.48C66.915 221.9 67.377 222.497 67.7037 223.272C68.0303 224.047 68.1937 224.971 68.1937 226.044C68.1937 227.108 68.0303 228.027 67.7037 228.802C67.377 229.577 66.915 230.174 66.3177 230.594C65.7203 231.014 65.011 231.224 64.1897 231.224ZM64.1897 229.95C65.011 229.95 65.6457 229.614 66.0937 228.942C66.5417 228.261 66.7657 227.295 66.7657 226.044C66.7657 225.204 66.663 224.49 66.4577 223.902C66.2617 223.314 65.9723 222.871 65.5897 222.572C65.2163 222.264 64.7497 222.11 64.1897 222.11C63.639 222.11 63.1723 222.264 62.7897 222.572C62.4163 222.871 62.127 223.314 61.9217 223.902C61.7257 224.49 61.6277 225.204 61.6277 226.044C61.6277 227.295 61.8517 228.261 62.2997 228.942C62.7477 229.614 63.3777 229.95 64.1897 229.95ZM69.9709 231V221.06H71.3009V227.402L74.7729 223.566H76.4949L73.5689 226.702L76.6209 231H75.0389L72.6869 227.57L71.3009 229.04V231H69.9709Z" fill="#D4D4D4"/>
<path d="M46.018 356.26V343.8H47.082V356.26H46.018ZM46.662 355.21C45.906 355.21 45.2433 355.07 44.674 354.79C44.114 354.501 43.666 354.109 43.33 353.614C43.0033 353.11 42.812 352.527 42.756 351.864L44.142 351.78C44.2073 352.247 44.3427 352.643 44.548 352.97C44.7627 353.297 45.0473 353.544 45.402 353.712C45.7567 353.871 46.186 353.95 46.69 353.95C47.1287 353.95 47.502 353.899 47.81 353.796C48.118 353.684 48.3513 353.521 48.51 353.306C48.678 353.082 48.762 352.811 48.762 352.494C48.762 352.205 48.692 351.948 48.552 351.724C48.4213 351.5 48.16 351.295 47.768 351.108C47.3853 350.921 46.8207 350.739 46.074 350.562C45.318 350.366 44.7113 350.156 44.254 349.932C43.7967 349.699 43.4653 349.414 43.26 349.078C43.064 348.733 42.966 348.313 42.966 347.818C42.966 347.277 43.0967 346.796 43.358 346.376C43.6287 345.956 44.0113 345.629 44.506 345.396C45.0007 345.153 45.5887 345.032 46.27 345.032C46.998 345.032 47.6233 345.167 48.146 345.438C48.6687 345.709 49.0793 346.082 49.378 346.558C49.686 347.025 49.8773 347.561 49.952 348.168L48.566 348.252C48.5193 347.869 48.398 347.529 48.202 347.23C48.0153 346.931 47.7587 346.698 47.432 346.53C47.1053 346.362 46.7087 346.278 46.242 346.278C45.6633 346.278 45.2013 346.418 44.856 346.698C44.52 346.969 44.352 347.328 44.352 347.776C44.352 348.065 44.4173 348.308 44.548 348.504C44.688 348.691 44.9353 348.859 45.29 349.008C45.6447 349.148 46.1487 349.297 46.802 349.456C47.6327 349.661 48.2907 349.904 48.776 350.184C49.2707 350.455 49.6207 350.777 49.826 351.15C50.0313 351.514 50.134 351.934 50.134 352.41C50.134 352.979 49.9847 353.474 49.686 353.894C49.3967 354.314 48.9907 354.641 48.468 354.874C47.9453 355.098 47.3433 355.21 46.662 355.21ZM55.3104 355.224C54.5544 355.224 53.9057 355.051 53.3644 354.706C52.8324 354.361 52.4264 353.857 52.1464 353.194C51.8664 352.522 51.7264 351.715 51.7264 350.772C51.7264 349.951 51.7964 349.181 51.9364 348.462C52.0857 347.743 52.3144 347.113 52.6224 346.572C52.9304 346.031 53.3364 345.606 53.8404 345.298C54.3444 344.99 54.9651 344.836 55.7024 344.836C56.5984 344.836 57.2937 345.055 57.7884 345.494C58.2924 345.933 58.6424 346.511 58.8384 347.23L57.4524 347.342C57.3404 346.969 57.1537 346.67 56.8924 346.446C56.6311 346.222 56.2344 346.11 55.7024 346.11C54.9091 346.11 54.2837 346.451 53.8264 347.132C53.3691 347.804 53.1264 348.831 53.0984 350.212L52.8324 350.156C52.9351 349.829 53.1124 349.531 53.3644 349.26C53.6164 348.98 53.9291 348.756 54.3024 348.588C54.6757 348.42 55.1004 348.336 55.5764 348.336C56.2297 348.336 56.8037 348.476 57.2984 348.756C57.8024 349.036 58.1897 349.428 58.4604 349.932C58.7404 350.436 58.8804 351.024 58.8804 351.696C58.8804 352.433 58.7264 353.063 58.4184 353.586C58.1197 354.109 57.7044 354.515 57.1724 354.804C56.6404 355.084 56.0197 355.224 55.3104 355.224ZM55.3384 353.964C55.9637 353.964 56.4771 353.763 56.8784 353.362C57.2797 352.961 57.4804 352.41 57.4804 351.71C57.4804 351.271 57.3917 350.889 57.2144 350.562C57.0464 350.235 56.8084 349.983 56.5004 349.806C56.2017 349.629 55.8471 349.54 55.4364 349.54C55.0071 349.54 54.6197 349.629 54.2744 349.806C53.9384 349.983 53.6724 350.235 53.4764 350.562C53.2804 350.889 53.1824 351.271 53.1824 351.71C53.1824 352.149 53.2711 352.541 53.4484 352.886C53.6257 353.222 53.8731 353.488 54.1904 353.684C54.5171 353.871 54.8997 353.964 55.3384 353.964ZM64.3948 355.224C63.5828 355.224 62.8781 355.014 62.2808 354.594C61.6834 354.174 61.2214 353.577 60.8948 352.802C60.5681 352.027 60.4048 351.108 60.4048 350.044C60.4048 348.98 60.5681 348.061 60.8948 347.286C61.2214 346.502 61.6834 345.9 62.2808 345.48C62.8781 345.051 63.5828 344.836 64.3948 344.836C65.2161 344.836 65.9254 345.051 66.5228 345.48C67.1201 345.9 67.5821 346.497 67.9088 347.272C68.2354 348.047 68.3988 348.971 68.3988 350.044C68.3988 351.108 68.2354 352.027 67.9088 352.802C67.5821 353.577 67.1201 354.174 66.5228 354.594C65.9254 355.014 65.2161 355.224 64.3948 355.224ZM64.3948 353.95C65.2161 353.95 65.8508 353.614 66.2988 352.942C66.7468 352.261 66.9708 351.295 66.9708 350.044C66.9708 349.204 66.8681 348.49 66.6628 347.902C66.4668 347.314 66.1774 346.871 65.7948 346.572C65.4214 346.264 64.9548 346.11 64.3948 346.11C63.8441 346.11 63.3774 346.264 62.9948 346.572C62.6214 346.871 62.3321 347.314 62.1268 347.902C61.9308 348.49 61.8328 349.204 61.8328 350.044C61.8328 351.295 62.0568 352.261 62.5048 352.942C62.9528 353.614 63.5828 353.95 64.3948 353.95ZM70.176 355V345.06H71.506V351.402L74.978 347.566H76.7L73.774 350.702L76.826 355H75.244L72.892 351.57L71.506 353.04V355H70.176Z" fill="#D4D4D4"/>
<path d="M46.018 480.26V467.8H47.082V480.26H46.018ZM46.662 479.21C45.906 479.21 45.2433 479.07 44.674 478.79C44.114 478.501 43.666 478.109 43.33 477.614C43.0033 477.11 42.812 476.527 42.756 475.864L44.142 475.78C44.2073 476.247 44.3427 476.643 44.548 476.97C44.7627 477.297 45.0473 477.544 45.402 477.712C45.7567 477.871 46.186 477.95 46.69 477.95C47.1287 477.95 47.502 477.899 47.81 477.796C48.118 477.684 48.3513 477.521 48.51 477.306C48.678 477.082 48.762 476.811 48.762 476.494C48.762 476.205 48.692 475.948 48.552 475.724C48.4213 475.5 48.16 475.295 47.768 475.108C47.3853 474.921 46.8207 474.739 46.074 474.562C45.318 474.366 44.7113 474.156 44.254 473.932C43.7967 473.699 43.4653 473.414 43.26 473.078C43.064 472.733 42.966 472.313 42.966 471.818C42.966 471.277 43.0967 470.796 43.358 470.376C43.6287 469.956 44.0113 469.629 44.506 469.396C45.0007 469.153 45.5887 469.032 46.27 469.032C46.998 469.032 47.6233 469.167 48.146 469.438C48.6687 469.709 49.0793 470.082 49.378 470.558C49.686 471.025 49.8773 471.561 49.952 472.168L48.566 472.252C48.5193 471.869 48.398 471.529 48.202 471.23C48.0153 470.931 47.7587 470.698 47.432 470.53C47.1053 470.362 46.7087 470.278 46.242 470.278C45.6633 470.278 45.2013 470.418 44.856 470.698C44.52 470.969 44.352 471.328 44.352 471.776C44.352 472.065 44.4173 472.308 44.548 472.504C44.688 472.691 44.9353 472.859 45.29 473.008C45.6447 473.148 46.1487 473.297 46.802 473.456C47.6327 473.661 48.2907 473.904 48.776 474.184C49.2707 474.455 49.6207 474.777 49.826 475.15C50.0313 475.514 50.134 475.934 50.134 476.41C50.134 476.979 49.9847 477.474 49.686 477.894C49.3967 478.314 48.9907 478.641 48.468 478.874C47.9453 479.098 47.3433 479.21 46.662 479.21ZM56.3464 479V476.886H51.3064V475.696L56.2064 469.06H57.7044V475.612H58.9224V476.886H57.7044V479H56.3464ZM52.9024 475.612H56.3464V471.034L52.9024 475.612ZM64.2854 479.224C63.4734 479.224 62.7687 479.014 62.1714 478.594C61.574 478.174 61.112 477.577 60.7854 476.802C60.4587 476.027 60.2954 475.108 60.2954 474.044C60.2954 472.98 60.4587 472.061 60.7854 471.286C61.112 470.502 61.574 469.9 62.1714 469.48C62.7687 469.051 63.4734 468.836 64.2854 468.836C65.1067 468.836 65.816 469.051 66.4134 469.48C67.0107 469.9 67.4727 470.497 67.7994 471.272C68.126 472.047 68.2894 472.971 68.2894 474.044C68.2894 475.108 68.126 476.027 67.7994 476.802C67.4727 477.577 67.0107 478.174 66.4134 478.594C65.816 479.014 65.1067 479.224 64.2854 479.224ZM64.2854 477.95C65.1067 477.95 65.7414 477.614 66.1894 476.942C66.6374 476.261 66.8614 475.295 66.8614 474.044C66.8614 473.204 66.7587 472.49 66.5534 471.902C66.3574 471.314 66.068 470.871 65.6854 470.572C65.312 470.264 64.8454 470.11 64.2854 470.11C63.7347 470.11 63.268 470.264 62.8854 470.572C62.512 470.871 62.2227 471.314 62.0174 471.902C61.8214 472.49 61.7234 473.204 61.7234 474.044C61.7234 475.295 61.9474 476.261 62.3954 476.942C62.8434 477.614 63.4734 477.95 64.2854 477.95ZM70.0666 479V469.06H71.3966V475.402L74.8686 471.566H76.5906L73.6646 474.702L76.7166 479H75.1346L72.7826 475.57L71.3966 477.04V479H70.0666Z" fill="#D4D4D4"/>
<path d="M46.018 604.26V591.8H47.082V604.26H46.018ZM46.662 603.21C45.906 603.21 45.2433 603.07 44.674 602.79C44.114 602.501 43.666 602.109 43.33 601.614C43.0033 601.11 42.812 600.527 42.756 599.864L44.142 599.78C44.2073 600.247 44.3427 600.643 44.548 600.97C44.7627 601.297 45.0473 601.544 45.402 601.712C45.7567 601.871 46.186 601.95 46.69 601.95C47.1287 601.95 47.502 601.899 47.81 601.796C48.118 601.684 48.3513 601.521 48.51 601.306C48.678 601.082 48.762 600.811 48.762 600.494C48.762 600.205 48.692 599.948 48.552 599.724C48.4213 599.5 48.16 599.295 47.768 599.108C47.3853 598.921 46.8207 598.739 46.074 598.562C45.318 598.366 44.7113 598.156 44.254 597.932C43.7967 597.699 43.4653 597.414 43.26 597.078C43.064 596.733 42.966 596.313 42.966 595.818C42.966 595.277 43.0967 594.796 43.358 594.376C43.6287 593.956 44.0113 593.629 44.506 593.396C45.0007 593.153 45.5887 593.032 46.27 593.032C46.998 593.032 47.6233 593.167 48.146 593.438C48.6687 593.709 49.0793 594.082 49.378 594.558C49.686 595.025 49.8773 595.561 49.952 596.168L48.566 596.252C48.5193 595.869 48.398 595.529 48.202 595.23C48.0153 594.931 47.7587 594.698 47.432 594.53C47.1053 594.362 46.7087 594.278 46.242 594.278C45.6633 594.278 45.2013 594.418 44.856 594.698C44.52 594.969 44.352 595.328 44.352 595.776C44.352 596.065 44.4173 596.308 44.548 596.504C44.688 596.691 44.9353 596.859 45.29 597.008C45.6447 597.148 46.1487 597.297 46.802 597.456C47.6327 597.661 48.2907 597.904 48.776 598.184C49.2707 598.455 49.6207 598.777 49.826 599.15C50.0313 599.514 50.134 599.934 50.134 600.41C50.134 600.979 49.9847 601.474 49.686 601.894C49.3967 602.314 48.9907 602.641 48.468 602.874C47.9453 603.098 47.3433 603.21 46.662 603.21ZM51.7404 603C51.7404 602.272 51.8477 601.623 52.0624 601.054C52.2864 600.475 52.6737 599.934 53.2244 599.43C53.7751 598.917 54.5311 598.403 55.4924 597.89C55.9497 597.647 56.3184 597.428 56.5984 597.232C56.8784 597.027 57.0791 596.812 57.2004 596.588C57.3311 596.364 57.3964 596.089 57.3964 595.762C57.3964 595.435 57.3264 595.151 57.1864 594.908C57.0464 594.665 56.8364 594.474 56.5564 594.334C56.2764 594.185 55.9264 594.11 55.5064 594.11C54.8437 594.11 54.3164 594.287 53.9244 594.642C53.5417 594.997 53.2991 595.501 53.1964 596.154L51.7824 596.056C51.8944 595.076 52.2677 594.297 52.9024 593.718C53.5464 593.13 54.4144 592.836 55.5064 592.836C56.1971 592.836 56.7897 592.957 57.2844 593.2C57.7791 593.443 58.1571 593.783 58.4184 594.222C58.6797 594.661 58.8104 595.165 58.8104 595.734C58.8104 596.247 58.7264 596.686 58.5584 597.05C58.3904 597.414 58.1104 597.755 57.7184 598.072C57.3264 598.389 56.7897 598.725 56.1084 599.08C55.2217 599.547 54.5544 600.013 54.1064 600.48C53.6584 600.947 53.4204 601.362 53.3924 601.726H58.8104V603H51.7404ZM64.3264 603.224C63.5144 603.224 62.8097 603.014 62.2124 602.594C61.6151 602.174 61.1531 601.577 60.8264 600.802C60.4997 600.027 60.3364 599.108 60.3364 598.044C60.3364 596.98 60.4997 596.061 60.8264 595.286C61.1531 594.502 61.6151 593.9 62.2124 593.48C62.8097 593.051 63.5144 592.836 64.3264 592.836C65.1477 592.836 65.8571 593.051 66.4544 593.48C67.0517 593.9 67.5137 594.497 67.8404 595.272C68.1671 596.047 68.3304 596.971 68.3304 598.044C68.3304 599.108 68.1671 600.027 67.8404 600.802C67.5137 601.577 67.0517 602.174 66.4544 602.594C65.8571 603.014 65.1477 603.224 64.3264 603.224ZM64.3264 601.95C65.1477 601.95 65.7824 601.614 66.2304 600.942C66.6784 600.261 66.9024 599.295 66.9024 598.044C66.9024 597.204 66.7997 596.49 66.5944 595.902C66.3984 595.314 66.1091 594.871 65.7264 594.572C65.3531 594.264 64.8864 594.11 64.3264 594.11C63.7757 594.11 63.3091 594.264 62.9264 594.572C62.5531 594.871 62.2637 595.314 62.0584 595.902C61.8624 596.49 61.7644 597.204 61.7644 598.044C61.7644 599.295 61.9884 600.261 62.4364 600.942C62.8844 601.614 63.5144 601.95 64.3264 601.95ZM70.1076 603V593.06H71.4376V599.402L74.9096 595.566H76.6316L73.7056 598.702L76.7576 603H75.1756L72.8236 599.57L71.4376 601.04V603H70.1076Z" fill="#D4D4D4"/>
<path d="M46.018 728.26V715.8H47.082V728.26H46.018ZM46.662 727.21C45.906 727.21 45.2433 727.07 44.674 726.79C44.114 726.501 43.666 726.109 43.33 725.614C43.0033 725.11 42.812 724.527 42.756 723.864L44.142 723.78C44.2073 724.247 44.3427 724.643 44.548 724.97C44.7627 725.297 45.0473 725.544 45.402 725.712C45.7567 725.871 46.186 725.95 46.69 725.95C47.1287 725.95 47.502 725.899 47.81 725.796C48.118 725.684 48.3513 725.521 48.51 725.306C48.678 725.082 48.762 724.811 48.762 724.494C48.762 724.205 48.692 723.948 48.552 723.724C48.4213 723.5 48.16 723.295 47.768 723.108C47.3853 722.921 46.8207 722.739 46.074 722.562C45.318 722.366 44.7113 722.156 44.254 721.932C43.7967 721.699 43.4653 721.414 43.26 721.078C43.064 720.733 42.966 720.313 42.966 719.818C42.966 719.277 43.0967 718.796 43.358 718.376C43.6287 717.956 44.0113 717.629 44.506 717.396C45.0007 717.153 45.5887 717.032 46.27 717.032C46.998 717.032 47.6233 717.167 48.146 717.438C48.6687 717.709 49.0793 718.082 49.378 718.558C49.686 719.025 49.8773 719.561 49.952 720.168L48.566 720.252C48.5193 719.869 48.398 719.529 48.202 719.23C48.0153 718.931 47.7587 718.698 47.432 718.53C47.1053 718.362 46.7087 718.278 46.242 718.278C45.6633 718.278 45.2013 718.418 44.856 718.698C44.52 718.969 44.352 719.328 44.352 719.776C44.352 720.065 44.4173 720.308 44.548 720.504C44.688 720.691 44.9353 720.859 45.29 721.008C45.6447 721.148 46.1487 721.297 46.802 721.456C47.6327 721.661 48.2907 721.904 48.776 722.184C49.2707 722.455 49.6207 722.777 49.826 723.15C50.0313 723.514 50.134 723.934 50.134 724.41C50.134 724.979 49.9847 725.474 49.686 725.894C49.3967 726.314 48.9907 726.641 48.468 726.874C47.9453 727.098 47.3433 727.21 46.662 727.21ZM55.5764 727.224C54.7644 727.224 54.0597 727.014 53.4624 726.594C52.8651 726.174 52.4031 725.577 52.0764 724.802C51.7497 724.027 51.5864 723.108 51.5864 722.044C51.5864 720.98 51.7497 720.061 52.0764 719.286C52.4031 718.502 52.8651 717.9 53.4624 717.48C54.0597 717.051 54.7644 716.836 55.5764 716.836C56.3977 716.836 57.1071 717.051 57.7044 717.48C58.3017 717.9 58.7637 718.497 59.0904 719.272C59.4171 720.047 59.5804 720.971 59.5804 722.044C59.5804 723.108 59.4171 724.027 59.0904 724.802C58.7637 725.577 58.3017 726.174 57.7044 726.594C57.1071 727.014 56.3977 727.224 55.5764 727.224ZM55.5764 725.95C56.3977 725.95 57.0324 725.614 57.4804 724.942C57.9284 724.261 58.1524 723.295 58.1524 722.044C58.1524 721.204 58.0497 720.49 57.8444 719.902C57.6484 719.314 57.3591 718.871 56.9764 718.572C56.6031 718.264 56.1364 718.11 55.5764 718.11C55.0257 718.11 54.5591 718.264 54.1764 718.572C53.8031 718.871 53.5137 719.314 53.3084 719.902C53.1124 720.49 53.0144 721.204 53.0144 722.044C53.0144 723.295 53.2384 724.261 53.6864 724.942C54.1344 725.614 54.7644 725.95 55.5764 725.95Z" fill="#D4D4D4"/>
<path d="M45.4078 773V764.334H42.3418V763.06H49.8458V764.334H46.7798V773H45.4078ZM54.0818 773.168C53.3818 773.168 52.7705 773.009 52.2478 772.692C51.7251 772.375 51.3191 771.927 51.0298 771.348C50.7498 770.76 50.6098 770.069 50.6098 769.276C50.6098 768.483 50.7498 767.797 51.0298 767.218C51.3191 766.639 51.7251 766.191 52.2478 765.874C52.7705 765.557 53.3818 765.398 54.0818 765.398C54.7725 765.398 55.3745 765.557 55.8878 765.874C56.4105 766.191 56.8165 766.639 57.1058 767.218C57.3951 767.797 57.5398 768.483 57.5398 769.276C57.5398 770.069 57.3951 770.76 57.1058 771.348C56.8165 771.927 56.4105 772.375 55.8878 772.692C55.3745 773.009 54.7725 773.168 54.0818 773.168ZM54.0818 771.964C54.7351 771.964 55.2438 771.726 55.6078 771.25C55.9718 770.774 56.1538 770.116 56.1538 769.276C56.1538 768.445 55.9718 767.792 55.6078 767.316C55.2438 766.84 54.7351 766.602 54.0818 766.602C53.4285 766.602 52.9151 766.84 52.5418 767.316C52.1778 767.792 51.9958 768.445 51.9958 769.276C51.9958 770.116 52.1778 770.774 52.5418 771.25C52.9151 771.726 53.4285 771.964 54.0818 771.964ZM61.8666 773.168C61.2226 773.168 60.6672 773.009 60.2006 772.692C59.7339 772.375 59.3746 771.927 59.1226 771.348C58.8706 770.769 58.7446 770.079 58.7446 769.276C58.7446 768.483 58.8706 767.797 59.1226 767.218C59.3746 766.639 59.7339 766.191 60.2006 765.874C60.6672 765.557 61.2226 765.398 61.8666 765.398C62.3706 765.398 62.8232 765.505 63.2246 765.72C63.6352 765.925 63.9432 766.219 64.1486 766.602V763.06H65.4786V773H64.2606L64.2186 771.88C64.0132 772.281 63.7006 772.599 63.2806 772.832C62.8606 773.056 62.3892 773.168 61.8666 773.168ZM62.1886 771.964C62.6086 771.964 62.9632 771.857 63.2526 771.642C63.5419 771.427 63.7612 771.119 63.9106 770.718C64.0692 770.307 64.1486 769.827 64.1486 769.276C64.1486 768.716 64.0692 768.235 63.9106 767.834C63.7612 767.433 63.5419 767.129 63.2526 766.924C62.9632 766.709 62.6086 766.602 62.1886 766.602C61.5539 766.602 61.0499 766.84 60.6766 767.316C60.3126 767.792 60.1306 768.445 60.1306 769.276C60.1306 770.107 60.3172 770.765 60.6906 771.25C61.0639 771.726 61.5632 771.964 62.1886 771.964ZM69.6865 773.168C68.9211 773.168 68.3098 772.991 67.8525 772.636C67.3951 772.281 67.1665 771.787 67.1665 771.152C67.1665 770.508 67.3531 770.004 67.7265 769.64C68.1091 769.276 68.7065 769.019 69.5185 768.87L72.1225 768.38C72.1225 767.783 71.9825 767.335 71.7025 767.036C71.4225 766.737 71.0025 766.588 70.4425 766.588C69.9478 766.588 69.5558 766.7 69.2665 766.924C68.9771 767.139 68.7811 767.456 68.6785 767.876L67.2925 767.778C67.4325 767.059 67.7731 766.485 68.3145 766.056C68.8651 765.617 69.5745 765.398 70.4425 765.398C71.4225 765.398 72.1691 765.669 72.6825 766.21C73.1958 766.742 73.4525 767.484 73.4525 768.436V771.418C73.4525 771.595 73.4805 771.721 73.5365 771.796C73.6018 771.861 73.7045 771.894 73.8445 771.894H74.1245V773C74.0871 773.009 74.0218 773.019 73.9285 773.028C73.8351 773.037 73.7371 773.042 73.6345 773.042C73.2985 773.042 73.0231 772.991 72.8085 772.888C72.5938 772.776 72.4305 772.603 72.3185 772.37C72.2158 772.137 72.1645 771.829 72.1645 771.446L72.3185 771.488C72.2438 771.805 72.0805 772.095 71.8285 772.356C71.5858 772.608 71.2778 772.809 70.9045 772.958C70.5311 773.098 70.1251 773.168 69.6865 773.168ZM69.8685 772.062C70.3351 772.062 70.7365 771.973 71.0725 771.796C71.4085 771.609 71.6651 771.357 71.8425 771.04C72.0291 770.723 72.1225 770.363 72.1225 769.962V769.458L69.8265 769.892C69.3505 769.976 69.0191 770.111 68.8325 770.298C68.6458 770.485 68.5525 770.727 68.5525 771.026C68.5525 771.353 68.6691 771.609 68.9025 771.796C69.1358 771.973 69.4578 772.062 69.8685 772.062ZM75.8271 775.1V773.98H76.7091C76.9704 773.98 77.1618 773.938 77.2831 773.854C77.4044 773.779 77.4978 773.653 77.5631 773.476L77.8151 772.818H77.3811L74.6791 765.566H76.1071L78.2351 771.586L80.2651 765.566H81.6931L78.7111 773.896C78.5618 774.316 78.3424 774.619 78.0531 774.806C77.7731 775.002 77.3811 775.1 76.8771 775.1H75.8271Z" fill="#D4D4D4"/>
<path d="M1353.3 773V764.334H1350.23V763.06H1357.73V764.334H1354.67V773H1353.3ZM1361.97 773.168C1361.27 773.168 1360.66 773.009 1360.14 772.692C1359.61 772.375 1359.21 771.927 1358.92 771.348C1358.64 770.76 1358.5 770.069 1358.5 769.276C1358.5 768.483 1358.64 767.797 1358.92 767.218C1359.21 766.639 1359.61 766.191 1360.14 765.874C1360.66 765.557 1361.27 765.398 1361.97 765.398C1362.66 765.398 1363.26 765.557 1363.78 765.874C1364.3 766.191 1364.71 766.639 1364.99 767.218C1365.28 767.797 1365.43 768.483 1365.43 769.276C1365.43 770.069 1365.28 770.76 1364.99 771.348C1364.71 771.927 1364.3 772.375 1363.78 772.692C1363.26 773.009 1362.66 773.168 1361.97 773.168ZM1361.97 771.964C1362.62 771.964 1363.13 771.726 1363.5 771.25C1363.86 770.774 1364.04 770.116 1364.04 769.276C1364.04 768.445 1363.86 767.792 1363.5 767.316C1363.13 766.84 1362.62 766.602 1361.97 766.602C1361.32 766.602 1360.8 766.84 1360.43 767.316C1360.07 767.792 1359.88 768.445 1359.88 769.276C1359.88 770.116 1360.07 770.774 1360.43 771.25C1360.8 771.726 1361.32 771.964 1361.97 771.964ZM1367.12 773V765.566H1368.33L1368.38 767.428L1368.2 767.372C1368.29 766.961 1368.44 766.611 1368.65 766.322C1368.86 766.023 1369.12 765.795 1369.42 765.636C1369.73 765.477 1370.07 765.398 1370.44 765.398C1371.09 765.398 1371.61 765.575 1372.01 765.93C1372.41 766.285 1372.66 766.779 1372.77 767.414L1372.54 767.4C1372.62 766.971 1372.75 766.611 1372.95 766.322C1373.15 766.023 1373.41 765.795 1373.73 765.636C1374.05 765.477 1374.41 765.398 1374.81 765.398C1375.34 765.398 1375.79 765.51 1376.15 765.734C1376.53 765.949 1376.81 766.266 1376.99 766.686C1377.18 767.106 1377.27 767.615 1377.27 768.212V773H1375.94V768.52C1375.94 767.867 1375.82 767.377 1375.57 767.05C1375.32 766.714 1374.95 766.546 1374.46 766.546C1374.13 766.546 1373.85 766.63 1373.61 766.798C1373.36 766.957 1373.17 767.19 1373.03 767.498C1372.9 767.797 1372.84 768.165 1372.84 768.604V773H1371.55V768.604C1371.55 767.951 1371.44 767.447 1371.21 767.092C1370.99 766.728 1370.61 766.546 1370.09 766.546C1369.76 766.546 1369.47 766.63 1369.22 766.798C1368.98 766.957 1368.79 767.19 1368.65 767.498C1368.52 767.806 1368.45 768.175 1368.45 768.604V773H1367.12ZM1382.44 773.168C1381.74 773.168 1381.13 773.009 1380.6 772.692C1380.08 772.375 1379.67 771.927 1379.39 771.348C1379.11 770.76 1378.97 770.069 1378.97 769.276C1378.97 768.483 1379.11 767.797 1379.39 767.218C1379.67 766.639 1380.08 766.191 1380.6 765.874C1381.13 765.557 1381.74 765.398 1382.44 765.398C1383.13 765.398 1383.73 765.557 1384.24 765.874C1384.77 766.191 1385.17 766.639 1385.46 767.218C1385.75 767.797 1385.9 768.483 1385.9 769.276C1385.9 770.069 1385.75 770.76 1385.46 771.348C1385.17 771.927 1384.77 772.375 1384.24 772.692C1383.73 773.009 1383.13 773.168 1382.44 773.168ZM1382.44 771.964C1383.09 771.964 1383.6 771.726 1383.96 771.25C1384.33 770.774 1384.51 770.116 1384.51 769.276C1384.51 768.445 1384.33 767.792 1383.96 767.316C1383.6 766.84 1383.09 766.602 1382.44 766.602C1381.78 766.602 1381.27 766.84 1380.9 767.316C1380.53 767.792 1380.35 768.445 1380.35 769.276C1380.35 770.116 1380.53 770.774 1380.9 771.25C1381.27 771.726 1381.78 771.964 1382.44 771.964ZM1387.59 773V765.566H1388.78L1388.84 767.498L1388.72 767.456C1388.82 766.803 1389.02 766.327 1389.33 766.028C1389.64 765.72 1390.06 765.566 1390.59 765.566H1391.31V766.784H1390.6C1390.23 766.784 1389.91 766.849 1389.66 766.98C1389.42 767.111 1389.23 767.307 1389.1 767.568C1388.98 767.829 1388.92 768.161 1388.92 768.562V773H1387.59ZM1393 773V765.566H1394.19L1394.25 767.498L1394.14 767.456C1394.23 766.803 1394.43 766.327 1394.74 766.028C1395.06 765.72 1395.48 765.566 1396 765.566H1396.73V766.784H1396.01C1395.64 766.784 1395.33 766.849 1395.08 766.98C1394.83 767.111 1394.65 767.307 1394.52 767.568C1394.39 767.829 1394.33 768.161 1394.33 768.562V773H1393ZM1401.4 773.168C1400.7 773.168 1400.09 773.009 1399.57 772.692C1399.04 772.375 1398.64 771.927 1398.35 771.348C1398.07 770.76 1397.93 770.069 1397.93 769.276C1397.93 768.483 1398.07 767.797 1398.35 767.218C1398.64 766.639 1399.04 766.191 1399.57 765.874C1400.09 765.557 1400.7 765.398 1401.4 765.398C1402.09 765.398 1402.69 765.557 1403.21 765.874C1403.73 766.191 1404.13 766.639 1404.42 767.218C1404.71 767.797 1404.86 768.483 1404.86 769.276C1404.86 770.069 1404.71 770.76 1404.42 771.348C1404.13 771.927 1403.73 772.375 1403.21 772.692C1402.69 773.009 1402.09 773.168 1401.4 773.168ZM1401.4 771.964C1402.05 771.964 1402.56 771.726 1402.93 771.25C1403.29 770.774 1403.47 770.116 1403.47 769.276C1403.47 768.445 1403.29 767.792 1402.93 767.316C1402.56 766.84 1402.05 766.602 1401.4 766.602C1400.75 766.602 1400.23 766.84 1399.86 767.316C1399.5 767.792 1399.31 768.445 1399.31 769.276C1399.31 770.116 1399.5 770.774 1399.86 771.25C1400.23 771.726 1400.75 771.964 1401.4 771.964ZM1408.05 773L1405.77 765.566H1407.2L1408.85 771.572L1410.56 765.566H1411.89L1413.59 771.572L1415.26 765.566H1416.69L1414.41 773H1412.82L1411.23 767.512L1409.62 773H1408.05Z" fill="#D4D4D4"/>
<g filter="url(#filter1_f_2002_1397)">
<mask id="path-11-outside-1_2002_1397" maskUnits="userSpaceOnUse" x="607" y="575" width="413" height="434" fill="black">
<rect fill="white" x="607" y="575" width="413" height="434"/>
<path d="M954.136 916.148C953.994 916.148 953.852 916.147 953.71 916.147C952.621 916.147 953.479 916.09 954.136 916.148Z"/>
</mask>
<path d="M644.974 649.106L651.219 640.05L651.219 640.05L644.974 649.106ZM717.652 669.926L717.476 680.924L717.476 680.924L717.652 669.926ZM764.67 665.583L766.851 676.365L766.851 676.365L764.67 665.583ZM820.11 650.039L822.867 660.688L822.867 660.688L820.11 650.039ZM965.333 631.371L963.94 642.282L963.94 642.282L965.333 631.371ZM1002.09 657.588L992.359 662.72L992.359 662.72L1002.09 657.588ZM1003.32 696.954L1012.38 703.188L1012.38 703.188L1003.32 696.954ZM935.025 761.645L942.257 769.934L942.257 769.934L935.025 761.645ZM876.34 823.779L885.062 830.481L885.062 830.481L876.34 823.779ZM857.216 867.203L846.217 867.313L846.217 867.313L857.216 867.203ZM862.26 877.39L857.825 887.456L857.825 887.456L862.26 877.39ZM871.866 879.46L873.069 868.526L873.069 868.526L871.866 879.46ZM901.954 880.758L901.907 869.758L901.907 869.758L901.954 880.758ZM963.535 873.9L965.563 884.711L965.563 884.711L963.535 873.9ZM963.942 873.823L965.971 884.635L965.971 884.635L963.942 873.823ZM997.22 873.534L992.918 883.658L992.918 883.658L997.22 873.534ZM995.027 910.709L989.009 901.501L989.009 901.501L995.027 910.709ZM954.136 916.148L954.17 905.148L953.17 927.106L954.136 916.148ZM954.675 916.269L961.51 907.651L961.509 907.65L954.675 916.269ZM607 575V609.253H629V575H607ZM607 609.253C607 632.976 623.42 647.604 638.73 658.162L651.219 640.05C636.709 630.044 629 621.177 629 609.253H607ZM638.73 658.162C662.69 674.685 689.418 680.477 717.476 680.924L717.827 658.927C692.616 658.525 670.547 653.379 651.219 640.05L638.73 658.162ZM717.476 680.924C734.194 681.191 750.521 679.667 766.851 676.365L762.49 654.801C747.696 657.793 732.948 659.168 717.827 658.927L717.476 680.924ZM766.851 676.365C776.865 674.34 786.5 671.524 795.721 668.703C805.084 665.838 813.863 663.02 822.867 660.688L817.353 639.391C807.742 641.879 798.258 644.92 789.284 647.666C780.168 650.455 771.391 653.001 762.49 654.801L766.851 676.365ZM822.867 660.688C869.133 648.709 918.248 636.451 963.94 642.282L966.726 620.459C916.122 614.001 862.849 627.61 817.353 639.391L822.867 660.688ZM963.94 642.282C972.23 643.34 977.423 645.498 981.275 648.378C985.214 651.324 988.653 655.696 992.359 662.72L1011.82 652.456C1007.32 643.924 1002.02 636.418 994.449 630.759C986.794 625.035 977.712 621.862 966.726 620.459L963.94 642.282ZM992.359 662.72C995.763 669.173 997.563 674.088 997.93 678.324C998.258 682.105 997.505 685.993 994.253 690.721L1012.38 703.188C1018.38 694.459 1020.64 685.529 1019.85 676.424C1019.1 667.773 1015.66 659.733 1011.82 652.456L992.359 662.72ZM994.253 690.721C986.166 702.48 975.79 712.794 964.172 722.922C958.367 727.983 952.359 732.906 946.208 737.946C940.103 742.949 933.853 748.07 927.794 753.356L942.257 769.934C948.017 764.909 954.002 760.003 960.152 754.963C966.258 749.96 972.528 744.824 978.628 739.505C990.823 728.875 1002.77 717.155 1012.38 703.188L994.253 690.721ZM927.794 753.356C905.527 772.782 885.431 793.894 867.617 817.076L885.062 830.481C901.928 808.532 921.008 788.472 942.257 769.934L927.794 753.356ZM867.617 817.076C857.573 830.148 846.008 846.471 846.217 867.313L868.216 867.093C868.091 854.592 874.892 843.716 885.062 830.481L867.617 817.076ZM846.217 867.313C846.258 871.435 846.966 882.671 857.825 887.456L866.696 867.324C867.072 867.49 867.506 867.785 867.876 868.196C868.222 868.58 868.363 868.896 868.394 868.975C868.419 869.036 868.366 868.923 868.312 868.558C868.259 868.198 868.222 867.717 868.216 867.093L846.217 867.313ZM857.825 887.456C862.552 889.539 867.717 890.07 870.662 890.394L873.069 868.526C869.649 868.149 867.844 867.83 866.696 867.324L857.825 887.456ZM870.662 890.394C881.194 891.553 891.827 891.802 902.001 891.758L901.907 869.758C892.097 869.8 882.406 869.553 873.069 868.526L870.662 890.394ZM902.001 891.758C923.94 891.665 944.843 888.597 965.563 884.711L961.507 863.088C941.294 866.879 921.895 869.673 901.907 869.758L902.001 891.758ZM965.563 884.711L965.971 884.635L961.914 863.012L961.506 863.088L965.563 884.711ZM965.971 884.635C971.08 883.676 976.302 882.71 981.356 882.404C986.505 882.093 990.337 882.562 992.918 883.658L1001.52 863.411C994.379 860.375 986.583 860.048 980.029 860.444C973.38 860.846 966.824 862.09 961.913 863.012L965.971 884.635ZM992.918 883.658C993.916 884.082 994.304 884.575 994.595 885.274C994.99 886.225 995.276 887.916 994.933 890.328C994.182 895.619 991.139 900.109 989.009 901.501L1001.04 919.917C1009.72 914.247 1015.31 903.35 1016.72 893.42C1018.16 883.236 1015.52 869.357 1001.52 863.411L992.918 883.658ZM989.009 901.501C985.741 903.637 981.059 904.82 974.611 905.221C967.861 905.641 961.725 905.172 954.17 905.148L954.102 927.148C959.69 927.165 968.378 927.651 975.977 927.178C983.878 926.687 993.07 925.129 1001.04 919.917L989.009 901.501ZM953.17 927.106C953.082 927.098 952.715 927.065 952.207 926.959C951.952 926.905 951.472 926.794 950.88 926.582C950.41 926.413 949.167 925.94 947.841 924.888L961.509 907.65C959.242 905.852 956.823 905.448 956.729 905.428C956.031 905.282 955.434 905.22 955.102 905.191L953.17 927.106ZM947.84 924.888C945.852 923.312 945.119 921.5 944.909 920.926C944.771 920.551 944.702 920.266 944.67 920.118C944.637 919.964 944.626 919.877 944.626 919.876C944.626 919.872 944.631 919.916 944.637 920.015C944.642 920.113 944.647 920.246 944.649 920.415C944.653 920.759 944.644 921.184 944.62 921.69C944.569 922.723 944.47 923.824 944.361 924.962C944.311 925.488 944.253 926.089 944.21 926.608C944.173 927.052 944.113 927.813 944.113 928.566H966.113C966.113 928.733 966.121 928.541 966.263 927.042C966.369 925.921 966.516 924.357 966.594 922.757C966.667 921.24 966.708 919.204 966.464 917.207C966.342 916.209 966.105 914.832 965.57 913.368C965.076 912.018 963.973 909.604 961.51 907.651L947.84 924.888ZM944.113 928.566C944.113 953.81 942.474 981.574 950.038 1008.93L971.242 1003.07C964.695 979.389 966.113 955.678 966.113 928.566H944.113ZM954.136 916.148L954.065 938.148L956.069 894.233L954.136 916.148ZM954.207 894.148C954.039 894.148 953.874 894.147 953.71 894.147V938.147C953.829 938.147 953.948 938.148 954.065 938.148L954.207 894.148ZM953.71 894.147C953.325 894.147 953.948 894.135 954.794 894.195C954.966 894.208 955.285 894.233 955.685 894.278C955.921 894.305 956.913 894.415 958.157 894.703C958.652 894.818 960.257 895.195 962.177 896.054C963.11 896.471 965.044 897.405 967.133 899.117C969.029 900.67 973.176 904.604 974.674 911.398C976.399 919.226 973.567 925.725 970.631 929.543C968.104 932.83 965.287 934.56 964.103 935.236C961.608 936.661 959.417 937.24 958.926 937.372C957.457 937.769 956.27 937.917 956.048 937.946C955.603 938.004 955.249 938.036 955.06 938.052C954.671 938.084 954.369 938.099 954.237 938.105C953.555 938.135 952.957 938.129 952.203 938.063L956.069 894.233C954.658 894.109 953.302 894.103 952.3 894.147C952.127 894.155 951.792 894.171 951.377 894.206C951.176 894.223 950.811 894.256 950.357 894.315C950.126 894.346 948.933 894.495 947.459 894.893C946.967 895.026 944.773 895.605 942.278 897.03C941.093 897.707 938.276 899.438 935.749 902.724C932.813 906.543 929.98 913.042 931.706 920.87C933.203 927.664 937.351 931.598 939.247 933.152C941.337 934.864 943.271 935.798 944.204 936.216C946.125 937.076 947.733 937.454 948.231 937.569C949.479 937.858 950.479 937.969 950.725 937.997C951.135 938.044 951.467 938.07 951.656 938.083C952.626 938.153 953.55 938.147 953.71 938.147V894.147Z" fill="url(#paint2_linear_2002_1397)" mask="url(#path-11-outside-1_2002_1397)"/>
</g>
<path d="M17 101H26V102H17V101Z" fill="#0B0B0B" fill-opacity="0.1"/>
<path d="M17 163H26V164H17V163Z" fill="#0B0B0B" fill-opacity="0.1"/>
<path d="M17 225H26V226H17V225Z" fill="#0B0B0B" fill-opacity="0.1"/>
<path d="M17 287H26V288H17V287Z" fill="#0B0B0B" fill-opacity="0.1"/>
<path d="M17 349H26V350H17V349Z" fill="#0B0B0B" fill-opacity="0.1"/>
<path d="M17 411H26V412H17V411Z" fill="#0B0B0B" fill-opacity="0.1"/>
<path d="M17 473H26V474H17V473Z" fill="#0B0B0B" fill-opacity="0.1"/>
<path d="M17 535H26V536H17V535Z" fill="#0B0B0B" fill-opacity="0.1"/>
<path d="M17 597H26V598H17V597Z" fill="#0B0B0B" fill-opacity="0.1"/>
<path d="M17 659H26V660H17V659Z" fill="#0B0B0B" fill-opacity="0.1"/>
<path d="M17 721H26V722H17V721Z" fill="#0B0B0B" fill-opacity="0.1"/>
<g filter="url(#filter2_f_2002_1397)">
<path d="M241.011 953.621C241.441 954.057 241.814 954.486 242.088 954.829C242.152 954.909 242.272 955.061 242.412 955.254C242.48 955.348 242.601 955.518 242.743 955.736C242.818 955.851 243.187 956.413 243.54 957.191L243.542 957.196C243.673 957.483 244.174 958.587 244.401 960.104C244.488 960.683 245.483 967.399 239.173 971.177C237.738 972.036 236.331 972.445 235.121 972.621C234.746 973.002 234.365 973.398 233.976 973.804L233.859 973.926C233.572 974.225 233.259 974.552 232.981 974.837C232.71 975.114 232.242 975.588 231.748 976.025C229.298 978.188 226.83 980.406 224.33 982.651C210.093 995.44 194.86 1009.12 176.444 1018.83L166.186 999.368C181.985 991.04 194.931 979.44 209.234 966.624C211.729 964.388 214.266 962.115 216.867 959.816C215.719 958.497 214.597 957.148 213.583 955.822C209.707 950.752 205.674 943.988 204.97 935.631C204.208 926.59 208.814 916.86 214.484 910.437C220.07 904.109 230.824 896.745 243.255 901.957C250.708 905.081 254.978 911.587 257.482 916.107C258.816 918.516 259.974 920.992 260.918 923.01L260.936 923.048C261.957 925.232 262.698 926.806 263.414 928.076C271.108 941.73 278.943 954.176 288.737 965.375C290.377 967.249 292.573 969.016 295.64 971.242C296.151 971.614 296.703 972.008 297.284 972.424C299.837 974.251 302.954 976.48 305.706 978.908C306.156 979.304 306.538 979.637 306.881 979.925C314.207 973.427 316.046 966.303 319.367 953.438C319.508 952.892 319.652 952.337 319.798 951.771C325.534 929.621 328.929 907.311 330.251 884.653C330.609 878.514 330.777 872.31 330.95 865.894L330.953 865.785C331.124 859.46 331.3 852.929 331.679 846.385C332.443 833.21 334.048 819.487 338.334 805.81C341.054 797.13 345.805 790.666 352.118 785.893C358.156 781.327 365.179 778.652 371.916 776.646C379.744 774.316 387.567 772.942 395.516 774.082C403.695 775.254 410.894 778.917 417.773 784.748C448.226 810.563 466.563 849.599 481.797 882.218C484.461 887.921 486.846 893.798 489.104 899.364C489.626 900.65 490.141 901.919 490.651 903.165C493.433 909.964 496.15 916.298 499.377 922.243C504.765 932.17 511.146 941.149 518.732 949.431C530.594 962.38 546.121 970.28 564.781 973.715C578.113 976.169 587.393 975.573 595.045 968.815L617.323 949.14L631.886 965.63L609.609 985.305C594.076 999.023 575.895 998.13 560.798 995.351C538.19 991.19 518.092 981.302 502.51 964.291C493.692 954.665 486.271 944.216 480.041 932.738C476.207 925.674 473.116 918.403 470.29 911.498C469.725 910.118 469.174 908.759 468.629 907.418C466.386 901.893 464.265 896.667 461.864 891.527C446.227 858.047 429.701 823.7 403.547 801.53C399.096 797.756 395.621 796.322 392.394 795.859C388.938 795.364 384.624 795.817 378.192 797.732C372.342 799.473 368.294 801.243 365.387 803.441C362.754 805.431 360.687 808.049 359.327 812.389C355.813 823.603 354.359 835.297 353.643 847.658C353.284 853.843 353.116 860.071 352.942 866.487L352.941 866.546C352.77 872.886 352.594 879.414 352.213 885.934C350.812 909.956 347.206 933.688 341.096 957.286C340.851 958.23 340.609 959.188 340.364 960.156C337.349 972.063 333.923 985.592 321.006 996.8C319.381 998.209 316.848 1000.19 313.644 1001.49C310.246 1002.87 305.535 1003.68 300.518 1001.66C296.326 999.976 293.036 997.07 291.327 995.559C291.267 995.507 291.21 995.456 291.154 995.407C289.322 993.791 287.365 992.388 284.912 990.628C284.222 990.133 283.493 989.61 282.716 989.046C279.481 986.698 275.555 983.719 272.177 979.858C260.922 966.989 252.224 953.031 244.248 938.877C243.093 936.828 242.025 934.545 241.133 932.636L241.008 932.369C240.017 930.25 239.158 928.43 238.237 926.767C236.214 923.114 234.995 922.349 234.749 922.246C234.741 922.242 234.735 922.24 234.729 922.238C234.676 922.245 234.543 922.27 234.32 922.357C233.594 922.641 232.37 923.419 230.977 924.997C229.62 926.534 228.466 928.426 227.72 930.278C226.932 932.231 226.865 933.46 226.892 933.785C227.085 936.075 228.273 938.815 231.06 942.46C233.005 945.003 234.969 947.1 237.199 949.481C238.382 950.744 239.641 952.088 241.011 953.621ZM234.756 922.235C234.759 922.235 234.758 922.235 234.753 922.235C234.754 922.235 234.755 922.235 234.756 922.235Z" stroke="url(#paint3_linear_2002_1397)" stroke-opacity="0.3" stroke-width="22"/>
</g>
<path d="M1213 637L1213 0" stroke="url(#paint4_linear_2002_1397)" stroke-width="1.5" stroke-dasharray="4 4"/>
<g filter="url(#filter3_dd_2002_1397)">
<path d="M1208 203C1208 200.239 1210.24 198 1213 198V198C1215.76 198 1218 200.239 1218 203V203C1218 205.761 1215.76 208 1213 208V208C1210.24 208 1208 205.761 1208 203V203Z" fill="white"/>
</g>
<g filter="url(#filter4_dd_2002_1397)">
<path d="M1100 122C1100 116.477 1104.48 112 1110 112H1315C1320.52 112 1325 116.477 1325 122V162C1325 167.523 1320.52 172 1315 172H1110C1104.48 172 1100 167.523 1100 162V122Z" fill="white"/>
<path opacity="0.5" d="M1108.95 135C1108.95 134.3 1109.05 133.67 1109.27 133.11C1109.49 132.541 1109.88 131.999 1110.43 131.486C1110.99 130.973 1111.77 130.455 1112.76 129.932C1113.21 129.689 1113.58 129.465 1113.86 129.26C1114.14 129.055 1114.35 128.835 1114.48 128.602C1114.61 128.369 1114.67 128.084 1114.67 127.748C1114.67 127.403 1114.6 127.104 1114.45 126.852C1114.3 126.591 1114.08 126.385 1113.78 126.236C1113.49 126.087 1113.12 126.012 1112.69 126.012C1111.99 126.012 1111.43 126.194 1111.02 126.558C1110.62 126.922 1110.37 127.44 1110.26 128.112L1109 128.028C1109.12 127.057 1109.49 126.283 1110.12 125.704C1110.76 125.125 1111.61 124.836 1112.69 124.836C1113.37 124.836 1113.95 124.957 1114.44 125.2C1114.92 125.443 1115.29 125.783 1115.54 126.222C1115.8 126.651 1115.93 127.151 1115.93 127.72C1115.93 128.224 1115.85 128.663 1115.68 129.036C1115.51 129.4 1115.23 129.741 1114.83 130.058C1114.44 130.375 1113.89 130.716 1113.2 131.08C1112.31 131.556 1111.63 132.037 1111.16 132.522C1110.7 133.007 1110.46 133.441 1110.43 133.824H1115.93V135H1108.95ZM1119.06 135C1119.06 133.973 1119.2 132.951 1119.48 131.934C1119.76 130.907 1120.16 129.913 1120.69 128.952C1121.22 127.991 1121.85 127.085 1122.59 126.236H1116.85V125.06H1123.91V126.152C1123.08 127.104 1122.39 128.047 1121.85 128.98C1121.32 129.904 1120.92 130.861 1120.67 131.85C1120.42 132.83 1120.29 133.88 1120.29 135H1119.06ZM1128.7 135V125.06H1134.94V126.236H1129.3L1129.9 125.62V130.184L1129.3 129.568H1134.69V130.716H1129.3L1129.9 130.1V135H1128.7ZM1139.26 135.168C1138.56 135.168 1137.96 135.009 1137.44 134.692C1136.94 134.375 1136.55 133.927 1136.27 133.348C1136 132.76 1135.86 132.074 1135.86 131.29C1135.86 130.506 1136 129.825 1136.27 129.246C1136.55 128.667 1136.94 128.219 1137.43 127.902C1137.93 127.575 1138.53 127.412 1139.21 127.412C1139.85 127.412 1140.42 127.566 1140.92 127.874C1141.41 128.173 1141.79 128.611 1142.06 129.19C1142.34 129.769 1142.48 130.473 1142.48 131.304V131.654H1137.09C1137.14 132.447 1137.35 133.045 1137.72 133.446C1138.11 133.847 1138.62 134.048 1139.26 134.048C1139.75 134.048 1140.15 133.936 1140.45 133.712C1140.77 133.479 1140.99 133.175 1141.11 132.802L1142.37 132.9C1142.18 133.563 1141.8 134.109 1141.25 134.538C1140.71 134.958 1140.05 135.168 1139.26 135.168ZM1137.09 130.618H1141.2C1141.14 129.899 1140.93 129.372 1140.57 129.036C1140.21 128.7 1139.76 128.532 1139.21 128.532C1138.64 128.532 1138.17 128.709 1137.79 129.064C1137.43 129.409 1137.2 129.927 1137.09 130.618ZM1147.48 135.168C1146.97 135.168 1146.51 135.056 1146.11 134.832C1145.71 134.599 1145.4 134.281 1145.18 133.88L1145.14 135H1144.08V125.06H1145.25V128.616C1145.44 128.308 1145.73 128.033 1146.12 127.79C1146.51 127.538 1146.97 127.412 1147.48 127.412C1148.13 127.412 1148.7 127.571 1149.17 127.888C1149.65 128.205 1150.02 128.653 1150.28 129.232C1150.54 129.811 1150.67 130.497 1150.67 131.29C1150.67 132.083 1150.54 132.769 1150.28 133.348C1150.02 133.927 1149.65 134.375 1149.17 134.692C1148.7 135.009 1148.13 135.168 1147.48 135.168ZM1147.41 134.048C1148.03 134.048 1148.53 133.801 1148.89 133.306C1149.26 132.811 1149.44 132.139 1149.44 131.29C1149.44 130.431 1149.26 129.759 1148.89 129.274C1148.53 128.779 1148.04 128.532 1147.44 128.532C1146.98 128.532 1146.59 128.644 1146.26 128.868C1145.93 129.083 1145.68 129.395 1145.51 129.806C1145.34 130.217 1145.25 130.711 1145.25 131.29C1145.25 131.85 1145.34 132.34 1145.51 132.76C1145.68 133.171 1145.93 133.488 1146.25 133.712C1146.57 133.936 1146.96 134.048 1147.41 134.048ZM1155.62 135C1155.62 134.3 1155.73 133.67 1155.95 133.11C1156.17 132.541 1156.56 131.999 1157.11 131.486C1157.67 130.973 1158.44 130.455 1159.43 129.932C1159.89 129.689 1160.26 129.465 1160.54 129.26C1160.82 129.055 1161.02 128.835 1161.15 128.602C1161.28 128.369 1161.35 128.084 1161.35 127.748C1161.35 127.403 1161.27 127.104 1161.13 126.852C1160.98 126.591 1160.75 126.385 1160.45 126.236C1160.16 126.087 1159.8 126.012 1159.36 126.012C1158.66 126.012 1158.11 126.194 1157.7 126.558C1157.29 126.922 1157.04 127.44 1156.94 128.112L1155.68 128.028C1155.79 127.057 1156.16 126.283 1156.8 125.704C1157.43 125.125 1158.29 124.836 1159.36 124.836C1160.04 124.836 1160.63 124.957 1161.11 125.2C1161.6 125.443 1161.97 125.783 1162.22 126.222C1162.48 126.651 1162.61 127.151 1162.61 127.72C1162.61 128.224 1162.53 128.663 1162.36 129.036C1162.19 129.4 1161.9 129.741 1161.5 130.058C1161.11 130.375 1160.57 130.716 1159.88 131.08C1158.98 131.556 1158.3 132.037 1157.84 132.522C1157.38 133.007 1157.14 133.441 1157.11 133.824H1162.61V135H1155.62ZM1167.95 135.224C1167.15 135.224 1166.45 135.014 1165.86 134.594C1165.27 134.174 1164.82 133.577 1164.49 132.802C1164.17 132.027 1164.01 131.108 1164.01 130.044C1164.01 128.98 1164.17 128.061 1164.49 127.286C1164.82 126.502 1165.27 125.9 1165.86 125.48C1166.45 125.051 1167.15 124.836 1167.95 124.836C1168.76 124.836 1169.46 125.051 1170.05 125.48C1170.64 125.9 1171.09 126.497 1171.41 127.272C1171.73 128.047 1171.9 128.971 1171.9 130.044C1171.9 131.108 1171.73 132.027 1171.41 132.802C1171.09 133.577 1170.64 134.174 1170.05 134.594C1169.46 135.014 1168.76 135.224 1167.95 135.224ZM1167.95 134.048C1168.81 134.048 1169.47 133.703 1169.94 133.012C1170.4 132.312 1170.64 131.323 1170.64 130.044C1170.64 129.185 1170.53 128.457 1170.31 127.86C1170.11 127.253 1169.81 126.796 1169.4 126.488C1169.01 126.171 1168.53 126.012 1167.95 126.012C1167.38 126.012 1166.89 126.171 1166.49 126.488C1166.1 126.796 1165.8 127.253 1165.58 127.86C1165.38 128.457 1165.27 129.185 1165.27 130.044C1165.27 131.323 1165.51 132.312 1165.97 133.012C1166.44 133.703 1167.1 134.048 1167.95 134.048ZM1173.3 135C1173.3 134.3 1173.41 133.67 1173.62 133.11C1173.85 132.541 1174.23 131.999 1174.78 131.486C1175.34 130.973 1176.12 130.455 1177.11 129.932C1177.57 129.689 1177.93 129.465 1178.21 129.26C1178.49 129.055 1178.7 128.835 1178.83 128.602C1178.96 128.369 1179.03 128.084 1179.03 127.748C1179.03 127.403 1178.95 127.104 1178.8 126.852C1178.65 126.591 1178.43 126.385 1178.13 126.236C1177.84 126.087 1177.48 126.012 1177.04 126.012C1176.34 126.012 1175.78 126.194 1175.37 126.558C1174.97 126.922 1174.72 127.44 1174.62 128.112L1173.36 128.028C1173.47 127.057 1173.84 126.283 1174.48 125.704C1175.11 125.125 1175.97 124.836 1177.04 124.836C1177.72 124.836 1178.3 124.957 1178.79 125.2C1179.27 125.443 1179.64 125.783 1179.89 126.222C1180.16 126.651 1180.29 127.151 1180.29 127.72C1180.29 128.224 1180.2 128.663 1180.03 129.036C1179.87 129.4 1179.58 129.741 1179.18 130.058C1178.79 130.375 1178.25 130.716 1177.56 131.08C1176.66 131.556 1175.98 132.037 1175.51 132.522C1175.06 133.007 1174.81 133.441 1174.78 133.824H1180.29V135H1173.3ZM1185.5 135.224C1184.8 135.224 1184.19 135.107 1183.68 134.874C1183.17 134.641 1182.77 134.314 1182.47 133.894C1182.18 133.474 1182.02 132.989 1181.97 132.438L1183.23 132.354C1183.3 132.914 1183.54 133.339 1183.94 133.628C1184.35 133.908 1184.87 134.048 1185.5 134.048C1186.2 134.048 1186.75 133.852 1187.16 133.46C1187.57 133.059 1187.78 132.508 1187.78 131.808C1187.78 131.341 1187.69 130.94 1187.5 130.604C1187.32 130.259 1187.06 129.993 1186.71 129.806C1186.37 129.619 1185.95 129.526 1185.47 129.526C1185.01 129.526 1184.6 129.624 1184.22 129.82C1183.85 130.016 1183.58 130.291 1183.42 130.646H1182.14L1182.79 125.06H1188.37V126.236H1183.9L1183.45 129.904L1183.23 129.68C1183.38 129.391 1183.57 129.153 1183.82 128.966C1184.07 128.77 1184.35 128.625 1184.67 128.532C1185 128.429 1185.34 128.378 1185.69 128.378C1186.36 128.378 1186.94 128.527 1187.44 128.826C1187.95 129.115 1188.34 129.521 1188.62 130.044C1188.9 130.557 1189.04 131.145 1189.04 131.808C1189.04 132.471 1188.89 133.063 1188.59 133.586C1188.29 134.099 1187.88 134.501 1187.34 134.79C1186.81 135.079 1186.2 135.224 1185.5 135.224Z" fill="#9E9E9E"/>
<g opacity="0.5">
<path d="M1112.38 160.26V147.8H1113.45V160.26H1112.38ZM1113.03 159.196C1112.25 159.196 1111.58 159.056 1111.01 158.776C1110.44 158.487 1109.99 158.09 1109.65 157.586C1109.33 157.082 1109.14 156.499 1109.08 155.836L1110.61 155.752C1110.66 156.2 1110.79 156.583 1111 156.9C1111.2 157.208 1111.47 157.446 1111.81 157.614C1112.16 157.773 1112.57 157.852 1113.06 157.852C1113.48 157.852 1113.84 157.801 1114.13 157.698C1114.43 157.586 1114.66 157.427 1114.81 157.222C1114.96 157.017 1115.04 156.76 1115.04 156.452C1115.04 156.172 1114.98 155.929 1114.85 155.724C1114.72 155.509 1114.47 155.313 1114.09 155.136C1113.72 154.949 1113.17 154.772 1112.45 154.604C1111.68 154.417 1111.06 154.207 1110.59 153.974C1110.13 153.741 1109.79 153.456 1109.58 153.12C1109.39 152.775 1109.29 152.345 1109.29 151.832C1109.29 151.281 1109.43 150.796 1109.7 150.376C1109.97 149.947 1110.35 149.615 1110.84 149.382C1111.35 149.139 1111.95 149.018 1112.65 149.018C1113.4 149.018 1114.03 149.153 1114.55 149.424C1115.09 149.695 1115.51 150.068 1115.81 150.544C1116.12 151.02 1116.31 151.566 1116.39 152.182L1114.86 152.266C1114.82 151.902 1114.7 151.575 1114.51 151.286C1114.33 150.997 1114.09 150.773 1113.77 150.614C1113.45 150.446 1113.07 150.362 1112.62 150.362C1112.06 150.362 1111.62 150.493 1111.29 150.754C1110.97 151.015 1110.8 151.361 1110.8 151.79C1110.8 152.07 1110.87 152.303 1111 152.49C1111.14 152.677 1111.38 152.84 1111.71 152.98C1112.06 153.12 1112.55 153.265 1113.18 153.414C1114.02 153.61 1114.69 153.848 1115.18 154.128C1115.68 154.399 1116.03 154.721 1116.25 155.094C1116.46 155.467 1116.57 155.892 1116.57 156.368C1116.57 156.947 1116.42 157.451 1116.12 157.88C1115.82 158.3 1115.41 158.627 1114.88 158.86C1114.34 159.084 1113.73 159.196 1113.03 159.196ZM1121.7 159.224C1120.95 159.224 1120.28 159.112 1119.7 158.888C1119.12 158.664 1118.67 158.333 1118.34 157.894C1118.02 157.455 1117.87 156.919 1117.87 156.284C1117.87 155.556 1118.09 154.954 1118.52 154.478C1118.96 154.002 1119.55 153.685 1120.29 153.526L1120.32 153.806C1119.72 153.666 1119.24 153.409 1118.87 153.036C1118.52 152.663 1118.34 152.173 1118.34 151.566C1118.34 151.034 1118.48 150.563 1118.75 150.152C1119.02 149.741 1119.4 149.419 1119.9 149.186C1120.4 148.953 1121 148.836 1121.7 148.836C1122.39 148.836 1122.99 148.953 1123.49 149.186C1124 149.419 1124.38 149.741 1124.64 150.152C1124.91 150.563 1125.05 151.034 1125.05 151.566C1125.05 152.173 1124.87 152.663 1124.52 153.036C1124.16 153.4 1123.68 153.657 1123.07 153.806L1123.1 153.526C1123.85 153.685 1124.44 154.002 1124.88 154.478C1125.32 154.954 1125.54 155.556 1125.54 156.284C1125.54 156.919 1125.37 157.455 1125.05 157.894C1124.73 158.333 1124.28 158.664 1123.7 158.888C1123.13 159.112 1122.46 159.224 1121.7 159.224ZM1121.7 157.838C1122.39 157.838 1122.94 157.698 1123.34 157.418C1123.75 157.129 1123.96 156.699 1123.96 156.13C1123.96 155.589 1123.77 155.155 1123.4 154.828C1123.03 154.501 1122.47 154.338 1121.7 154.338C1120.94 154.338 1120.37 154.501 1119.99 154.828C1119.62 155.155 1119.43 155.589 1119.43 156.13C1119.43 156.699 1119.64 157.129 1120.05 157.418C1120.46 157.698 1121.01 157.838 1121.7 157.838ZM1121.7 153.092C1122.27 153.092 1122.71 152.975 1123.02 152.742C1123.34 152.499 1123.49 152.131 1123.49 151.636C1123.49 151.207 1123.34 150.861 1123.03 150.6C1122.73 150.339 1122.29 150.208 1121.7 150.208C1121.11 150.208 1120.67 150.339 1120.36 150.6C1120.05 150.861 1119.9 151.207 1119.9 151.636C1119.9 152.131 1120.05 152.499 1120.37 152.742C1120.69 152.975 1121.13 153.092 1121.7 153.092ZM1131.47 159V156.928H1126.46V155.64L1131.29 149.06H1132.99V155.556H1134.2V156.928H1132.99V159H1131.47ZM1128.18 155.556H1131.47V151.16L1128.18 155.556ZM1135.53 161.198L1136.23 159H1135.46V157.236H1137.27V158.79L1136.39 161.198H1135.53ZM1142.32 159.224C1141.58 159.224 1140.95 159.107 1140.43 158.874C1139.91 158.631 1139.5 158.295 1139.2 157.866C1138.9 157.437 1138.73 156.942 1138.68 156.382L1140.24 156.284C1140.31 156.807 1140.53 157.199 1140.89 157.46C1141.27 157.712 1141.74 157.838 1142.32 157.838C1142.97 157.838 1143.49 157.656 1143.86 157.292C1144.24 156.928 1144.44 156.419 1144.44 155.766C1144.44 155.337 1144.35 154.968 1144.17 154.66C1144 154.343 1143.76 154.1 1143.44 153.932C1143.12 153.755 1142.75 153.666 1142.31 153.666C1141.87 153.666 1141.48 153.759 1141.13 153.946C1140.79 154.133 1140.54 154.389 1140.39 154.716H1138.82L1139.49 149.06H1145.32V150.446H1140.84L1140.42 153.848L1140.18 153.638C1140.34 153.358 1140.54 153.129 1140.78 152.952C1141.02 152.765 1141.3 152.625 1141.62 152.532C1141.95 152.429 1142.29 152.378 1142.66 152.378C1143.33 152.378 1143.91 152.523 1144.41 152.812C1144.91 153.101 1145.3 153.503 1145.58 154.016C1145.86 154.529 1146 155.113 1146 155.766C1146 156.447 1145.85 157.049 1145.54 157.572C1145.23 158.095 1144.8 158.501 1144.25 158.79C1143.7 159.079 1143.06 159.224 1142.32 159.224ZM1149.47 159V151.916H1147.37V150.698H1148.22C1148.6 150.698 1148.9 150.651 1149.13 150.558C1149.37 150.455 1149.54 150.287 1149.64 150.054C1149.74 149.811 1149.79 149.48 1149.79 149.06H1150.98V159H1149.47ZM1154.93 159C1154.93 157.973 1155.07 156.961 1155.34 155.962C1155.62 154.954 1156.01 153.988 1156.52 153.064C1157.03 152.131 1157.64 151.258 1158.35 150.446H1152.79V149.06H1159.95V150.348C1159.16 151.244 1158.51 152.14 1157.99 153.036C1157.47 153.923 1157.09 154.856 1156.84 155.836C1156.6 156.807 1156.47 157.861 1156.47 159H1154.93ZM1160.54 159V157.236H1162.34V159H1160.54ZM1167.09 159.224C1166.23 159.224 1165.53 159.019 1165 158.608C1164.47 158.197 1164.1 157.651 1163.9 156.97L1165.42 156.872C1165.53 157.18 1165.73 157.423 1166 157.6C1166.28 157.768 1166.64 157.852 1167.09 157.852C1167.87 157.852 1168.46 157.544 1168.87 156.928C1169.28 156.312 1169.49 155.313 1169.5 153.932L1169.78 154.002C1169.54 154.59 1169.19 155.038 1168.71 155.346C1168.25 155.654 1167.69 155.808 1167.06 155.808C1166.41 155.808 1165.83 155.668 1165.34 155.388C1164.84 155.099 1164.46 154.697 1164.18 154.184C1163.9 153.671 1163.76 153.073 1163.76 152.392C1163.76 151.655 1163.91 151.025 1164.2 150.502C1164.5 149.97 1164.92 149.559 1165.45 149.27C1165.98 148.981 1166.6 148.836 1167.3 148.836C1168.16 148.836 1168.86 149.027 1169.4 149.41C1169.95 149.793 1170.35 150.334 1170.62 151.034C1170.89 151.725 1171.02 152.555 1171.02 153.526C1171.02 154.366 1170.95 155.136 1170.81 155.836C1170.67 156.536 1170.44 157.138 1170.13 157.642C1169.82 158.146 1169.41 158.538 1168.91 158.818C1168.41 159.089 1167.81 159.224 1167.09 159.224ZM1167.27 154.506C1167.69 154.506 1168.06 154.422 1168.38 154.254C1168.69 154.086 1168.94 153.848 1169.12 153.54C1169.3 153.223 1169.38 152.84 1169.38 152.392C1169.38 151.963 1169.3 151.585 1169.13 151.258C1168.97 150.922 1168.74 150.661 1168.43 150.474C1168.12 150.278 1167.76 150.18 1167.33 150.18C1166.91 150.18 1166.54 150.273 1166.23 150.46C1165.94 150.647 1165.7 150.908 1165.53 151.244C1165.38 151.571 1165.3 151.949 1165.3 152.378C1165.3 152.817 1165.38 153.195 1165.55 153.512C1165.72 153.829 1165.94 154.077 1166.23 154.254C1166.53 154.422 1166.88 154.506 1167.27 154.506ZM1172.68 159C1172.68 158.253 1172.8 157.586 1173.02 156.998C1173.24 156.41 1173.63 155.864 1174.17 155.36C1174.71 154.856 1175.46 154.352 1176.41 153.848C1176.86 153.615 1177.23 153.4 1177.5 153.204C1177.78 152.999 1177.98 152.789 1178.1 152.574C1178.22 152.359 1178.28 152.098 1178.28 151.79C1178.28 151.473 1178.21 151.202 1178.07 150.978C1177.94 150.745 1177.75 150.563 1177.49 150.432C1177.22 150.292 1176.89 150.222 1176.49 150.222C1175.86 150.222 1175.35 150.395 1174.98 150.74C1174.62 151.076 1174.39 151.561 1174.29 152.196L1172.73 152.098C1172.84 151.099 1173.22 150.306 1173.86 149.718C1174.51 149.13 1175.39 148.836 1176.49 148.836C1177.2 148.836 1177.8 148.962 1178.3 149.214C1178.8 149.457 1179.18 149.797 1179.45 150.236C1179.72 150.675 1179.85 151.183 1179.85 151.762C1179.85 152.266 1179.77 152.7 1179.6 153.064C1179.43 153.428 1179.15 153.769 1178.76 154.086C1178.37 154.394 1177.84 154.725 1177.16 155.08C1176.3 155.537 1175.66 155.99 1175.22 156.438C1174.78 156.877 1174.55 157.269 1174.52 157.614H1179.85V159H1172.68Z" fill="#2E2E2E" fill-opacity="0.8"/>
<path d="M1214.06 155.556V154.268H1220.81V155.556H1214.06ZM1216.79 158.286V151.538H1218.08V158.286H1216.79ZM1225.3 160.26V147.786H1226.38V160.26H1225.3ZM1225.96 159.196C1225.24 159.196 1224.61 159.056 1224.07 158.776C1223.53 158.487 1223.11 158.085 1222.79 157.572C1222.47 157.059 1222.29 156.457 1222.23 155.766L1223.72 155.668C1223.78 156.144 1223.91 156.545 1224.11 156.872C1224.3 157.199 1224.56 157.446 1224.88 157.614C1225.2 157.773 1225.57 157.852 1226 157.852C1226.44 157.852 1226.8 157.801 1227.09 157.698C1227.38 157.586 1227.6 157.427 1227.75 157.222C1227.9 157.017 1227.97 156.769 1227.97 156.48C1227.97 156.181 1227.9 155.929 1227.76 155.724C1227.63 155.509 1227.38 155.318 1227.01 155.15C1226.63 154.982 1226.08 154.805 1225.35 154.618C1224.69 154.441 1224.15 154.231 1223.72 153.988C1223.29 153.736 1222.97 153.433 1222.76 153.078C1222.57 152.723 1222.47 152.308 1222.47 151.832C1222.47 151.263 1222.6 150.773 1222.86 150.362C1223.13 149.942 1223.52 149.62 1224.01 149.396C1224.5 149.163 1225.1 149.046 1225.8 149.046C1226.49 149.046 1227.08 149.177 1227.57 149.438C1228.06 149.69 1228.45 150.049 1228.73 150.516C1229.02 150.983 1229.19 151.533 1229.26 152.168L1227.78 152.252C1227.73 151.869 1227.63 151.538 1227.47 151.258C1227.31 150.978 1227.09 150.763 1226.81 150.614C1226.53 150.465 1226.18 150.39 1225.76 150.39C1225.18 150.39 1224.73 150.511 1224.4 150.754C1224.08 150.997 1223.91 151.333 1223.91 151.762C1223.91 152.051 1223.98 152.289 1224.11 152.476C1224.24 152.663 1224.47 152.831 1224.79 152.98C1225.12 153.12 1225.59 153.274 1226.19 153.442C1227 153.657 1227.63 153.899 1228.1 154.17C1228.57 154.431 1228.91 154.749 1229.12 155.122C1229.33 155.486 1229.43 155.939 1229.43 156.48C1229.43 157.021 1229.28 157.497 1228.99 157.908C1228.7 158.319 1228.3 158.636 1227.78 158.86C1227.26 159.084 1226.66 159.196 1225.96 159.196ZM1230.7 159C1230.7 158.263 1230.8 157.605 1231.02 157.026C1231.23 156.447 1231.61 155.906 1232.15 155.402C1232.7 154.889 1233.46 154.375 1234.43 153.862C1234.85 153.647 1235.2 153.442 1235.46 153.246C1235.72 153.05 1235.91 152.84 1236.03 152.616C1236.15 152.392 1236.21 152.121 1236.21 151.804C1236.21 151.477 1236.15 151.197 1236.02 150.964C1235.89 150.731 1235.69 150.549 1235.43 150.418C1235.17 150.278 1234.84 150.208 1234.45 150.208C1233.81 150.208 1233.31 150.376 1232.95 150.712C1232.6 151.048 1232.37 151.529 1232.28 152.154L1230.75 152.056C1230.86 151.076 1231.22 150.297 1231.86 149.718C1232.49 149.13 1233.36 148.836 1234.45 148.836C1235.16 148.836 1235.76 148.957 1236.24 149.2C1236.74 149.443 1237.11 149.783 1237.36 150.222C1237.61 150.661 1237.74 151.169 1237.74 151.748C1237.74 152.261 1237.65 152.705 1237.49 153.078C1237.32 153.451 1237.04 153.797 1236.65 154.114C1236.25 154.431 1235.72 154.772 1235.04 155.136C1234.47 155.444 1233.99 155.747 1233.61 156.046C1233.24 156.335 1232.95 156.615 1232.75 156.886C1232.57 157.147 1232.47 157.39 1232.45 157.614H1237.75V159H1230.7ZM1242.59 159.224C1241.93 159.224 1241.35 159.107 1240.86 158.874C1240.37 158.631 1239.98 158.3 1239.69 157.88C1239.41 157.451 1239.25 156.961 1239.2 156.41L1240.73 156.312C1240.79 156.825 1240.99 157.213 1241.32 157.474C1241.64 157.726 1242.07 157.852 1242.59 157.852C1243.18 157.852 1243.65 157.675 1243.99 157.32C1244.34 156.956 1244.51 156.443 1244.51 155.78C1244.51 155.351 1244.43 154.977 1244.27 154.66C1244.12 154.343 1243.91 154.105 1243.63 153.946C1243.35 153.778 1243.01 153.694 1242.62 153.694C1242.26 153.694 1241.91 153.787 1241.58 153.974C1241.27 154.151 1241.04 154.399 1240.91 154.716L1239.36 154.688L1240 149.06H1245.48V150.446H1241.28L1240.87 153.876L1240.58 153.666C1240.72 153.386 1240.92 153.153 1241.15 152.966C1241.39 152.779 1241.66 152.639 1241.95 152.546C1242.25 152.443 1242.54 152.392 1242.84 152.392C1243.49 152.392 1244.05 152.537 1244.52 152.826C1245.01 153.115 1245.38 153.517 1245.64 154.03C1245.9 154.543 1246.04 155.131 1246.04 155.794C1246.04 156.457 1245.89 157.049 1245.6 157.572C1245.31 158.095 1244.91 158.501 1244.38 158.79C1243.87 159.079 1243.27 159.224 1242.59 159.224ZM1251.04 159.224C1250.28 159.224 1249.62 159.051 1249.08 158.706C1248.55 158.361 1248.14 157.857 1247.86 157.194C1247.59 156.522 1247.46 155.715 1247.46 154.772C1247.46 153.951 1247.53 153.181 1247.67 152.462C1247.81 151.743 1248.03 151.113 1248.34 150.572C1248.65 150.031 1249.05 149.606 1249.56 149.298C1250.06 148.99 1250.68 148.836 1251.42 148.836C1252.04 148.836 1252.55 148.939 1252.96 149.144C1253.38 149.34 1253.72 149.62 1253.97 149.984C1254.23 150.348 1254.43 150.763 1254.56 151.23L1253.04 151.356C1252.95 151.011 1252.78 150.735 1252.53 150.53C1252.28 150.315 1251.91 150.208 1251.42 150.208C1250.92 150.208 1250.48 150.353 1250.12 150.642C1249.76 150.931 1249.48 151.37 1249.28 151.958C1249.07 152.546 1248.96 153.297 1248.94 154.212L1248.58 154.156C1248.68 153.829 1248.85 153.526 1249.1 153.246C1249.35 152.966 1249.66 152.742 1250.03 152.574C1250.41 152.397 1250.84 152.308 1251.32 152.308C1251.98 152.308 1252.55 152.448 1253.03 152.728C1253.52 152.999 1253.89 153.391 1254.16 153.904C1254.43 154.408 1254.57 154.996 1254.57 155.668C1254.57 156.405 1254.42 157.04 1254.12 157.572C1253.82 158.095 1253.41 158.501 1252.89 158.79C1252.37 159.079 1251.75 159.224 1251.04 159.224ZM1251.04 157.838C1251.66 157.838 1252.14 157.651 1252.5 157.278C1252.86 156.905 1253.04 156.377 1253.04 155.696C1253.04 155.061 1252.88 154.562 1252.54 154.198C1252.2 153.825 1251.74 153.638 1251.15 153.638C1250.73 153.638 1250.36 153.722 1250.03 153.89C1249.72 154.058 1249.46 154.296 1249.28 154.604C1249.1 154.912 1249.01 155.276 1249.01 155.696C1249.01 156.107 1249.09 156.475 1249.25 156.802C1249.42 157.129 1249.66 157.385 1249.96 157.572C1250.27 157.749 1250.63 157.838 1251.04 157.838ZM1262.51 160.54C1261.87 159.56 1261.38 158.566 1261.05 157.558C1260.74 156.55 1260.58 155.537 1260.58 154.52C1260.58 152.457 1261.22 150.451 1262.51 148.5H1263.83C1262.66 150.516 1262.08 152.523 1262.08 154.52C1262.08 155.519 1262.22 156.522 1262.51 157.53C1262.81 158.529 1263.25 159.532 1263.83 160.54H1262.51ZM1267.22 155.556V154.268H1273.97V155.556H1267.22ZM1269.95 158.286V151.538H1271.24V158.286H1269.95ZM1276.53 157.516L1280.34 150.474L1281.46 150.544L1277.65 157.586L1276.53 157.516ZM1278.99 159.224C1278.26 159.224 1277.63 159.014 1277.1 158.594C1276.57 158.174 1276.16 157.577 1275.88 156.802C1275.6 156.027 1275.46 155.108 1275.46 154.044C1275.46 152.971 1275.6 152.047 1275.88 151.272C1276.16 150.497 1276.57 149.9 1277.1 149.48C1277.63 149.051 1278.26 148.836 1278.99 148.836C1279.73 148.836 1280.36 149.051 1280.88 149.48C1281.41 149.9 1281.82 150.497 1282.1 151.272C1282.38 152.047 1282.52 152.971 1282.52 154.044C1282.52 155.108 1282.38 156.027 1282.1 156.802C1281.82 157.577 1281.41 158.174 1280.88 158.594C1280.36 159.014 1279.73 159.224 1278.99 159.224ZM1278.99 157.852C1279.41 157.852 1279.77 157.703 1280.06 157.404C1280.35 157.096 1280.58 156.657 1280.74 156.088C1280.91 155.519 1280.99 154.837 1280.99 154.044C1280.99 153.232 1280.91 152.541 1280.74 151.972C1280.58 151.403 1280.35 150.969 1280.06 150.67C1279.77 150.362 1279.41 150.208 1278.99 150.208C1278.58 150.208 1278.23 150.362 1277.93 150.67C1277.63 150.969 1277.4 151.403 1277.23 151.972C1277.07 152.541 1276.99 153.232 1276.99 154.044C1276.99 154.837 1277.07 155.519 1277.23 156.088C1277.4 156.657 1277.63 157.096 1277.93 157.404C1278.23 157.703 1278.58 157.852 1278.99 157.852ZM1286.43 159V157.152H1288.34V159H1286.43ZM1296.82 159V156.9H1292.08V155.626L1296.66 149.06H1298.29V155.542H1299.48V156.9H1298.29V159H1296.82ZM1293.53 155.542H1296.82V151.02L1293.53 155.542ZM1302.12 153.876C1301.55 153.876 1301.07 153.666 1300.68 153.246C1300.28 152.826 1300.09 152.215 1300.09 151.412C1300.09 150.6 1300.28 149.989 1300.68 149.578C1301.07 149.158 1301.55 148.948 1302.12 148.948C1302.7 148.948 1303.18 149.158 1303.56 149.578C1303.95 149.989 1304.15 150.6 1304.15 151.412C1304.15 152.215 1303.95 152.826 1303.56 153.246C1303.18 153.666 1302.7 153.876 1302.12 153.876ZM1302.12 152.938C1302.4 152.938 1302.62 152.807 1302.78 152.546C1302.94 152.285 1303.03 151.907 1303.03 151.412C1303.03 150.917 1302.94 150.539 1302.78 150.278C1302.62 150.017 1302.4 149.886 1302.12 149.886C1301.84 149.886 1301.61 150.017 1301.45 150.278C1301.29 150.539 1301.21 150.917 1301.21 151.412C1301.21 151.907 1301.29 152.285 1301.45 152.546C1301.61 152.807 1301.84 152.938 1302.12 152.938ZM1300.66 159L1306.56 149.06H1307.69L1301.8 159H1300.66ZM1306.23 159.112C1305.65 159.112 1305.17 158.902 1304.78 158.482C1304.39 158.062 1304.2 157.451 1304.2 156.648C1304.2 155.836 1304.39 155.225 1304.78 154.814C1305.17 154.394 1305.65 154.184 1306.23 154.184C1306.8 154.184 1307.28 154.394 1307.68 154.814C1308.07 155.225 1308.26 155.836 1308.26 156.648C1308.26 157.451 1308.07 158.062 1307.68 158.482C1307.28 158.902 1306.8 159.112 1306.23 159.112ZM1306.23 158.174C1306.51 158.174 1306.73 158.043 1306.89 157.782C1307.06 157.521 1307.14 157.143 1307.14 156.648C1307.14 156.153 1307.06 155.775 1306.89 155.514C1306.73 155.253 1306.51 155.122 1306.23 155.122C1305.95 155.122 1305.73 155.253 1305.56 155.514C1305.4 155.775 1305.32 156.153 1305.32 156.648C1305.32 157.143 1305.4 157.521 1305.56 157.782C1305.73 158.043 1305.95 158.174 1306.23 158.174ZM1312.26 160.54H1310.95C1311.52 159.532 1311.96 158.529 1312.25 157.53C1312.55 156.522 1312.7 155.519 1312.7 154.52C1312.7 152.523 1312.11 150.516 1310.95 148.5H1312.26C1313.55 150.451 1314.19 152.457 1314.19 154.52C1314.19 155.537 1314.03 156.55 1313.7 157.558C1313.39 158.566 1312.91 159.56 1312.26 160.54Z" fill="#2E2E2E" fill-opacity="0.8"/>
</g>
</g>
<path d="M245 973L245 336" stroke="url(#paint5_linear_2002_1397)" stroke-width="1.5" stroke-dasharray="4 4"/>
<g filter="url(#filter5_dd_2002_1397)">
<path d="M240 718C240 715.239 242.239 713 245 713V713C247.761 713 250 715.239 250 718V718C250 720.761 247.761 723 245 723V723C242.239 723 240 720.761 240 718V718Z" fill="white"/>
</g>
</g>
<defs>
<filter id="filter0_d_2002_1397" x="0" y="0" width="1442" height="1442" filterUnits="userSpaceOnUse" color-interpolation-filters="sRGB">
<feFlood flood-opacity="0" result="BackgroundImageFix"/>
<feColorMatrix in="SourceAlpha" type="matrix" values="0 0 0 0 0 0 0 0 0 0 0 0 0 0 0 0 0 0 127 0" result="hardAlpha"/>
<feMorphology radius="1" operator="dilate" in="SourceAlpha" result="effect1_dropShadow_2002_1397"/>
<feOffset/>
<feComposite in2="hardAlpha" operator="out"/>
<feColorMatrix type="matrix" values="0 0 0 0 0 0 0 0 0 0 0 0 0 0 0 0 0 0 0.25 0"/>
<feBlend mode="normal" in2="BackgroundImageFix" result="effect1_dropShadow_2002_1397"/>
<feBlend mode="normal" in="SourceGraphic" in2="effect1_dropShadow_2002_1397" result="shape"/>
</filter>
<filter id="filter1_f_2002_1397" x="307" y="275" width="1013" height="1033.93" filterUnits="userSpaceOnUse" color-interpolation-filters="sRGB">
<feFlood flood-opacity="0" result="BackgroundImageFix"/>
<feBlend mode="normal" in="SourceGraphic" in2="BackgroundImageFix" result="shape"/>
<feGaussianBlur stdDeviation="150" result="effect1_foregroundBlur_2002_1397"/>
</filter>
<filter id="filter2_f_2002_1397" x="-133.814" y="473.674" width="1065.7" height="845.156" filterUnits="userSpaceOnUse" color-interpolation-filters="sRGB">
<feFlood flood-opacity="0" result="BackgroundImageFix"/>
<feBlend mode="normal" in="SourceGraphic" in2="BackgroundImageFix" result="shape"/>
<feGaussianBlur stdDeviation="150" result="effect1_foregroundBlur_2002_1397"/>
</filter>
<filter id="filter3_dd_2002_1397" x="1207" y="191" width="12" height="18" filterUnits="userSpaceOnUse" color-interpolation-filters="sRGB">
<feFlood flood-opacity="0" result="BackgroundImageFix"/>
<feColorMatrix in="SourceAlpha" type="matrix" values="0 0 0 0 0 0 0 0 0 0 0 0 0 0 0 0 0 0 127 0" result="hardAlpha"/>
<feMorphology radius="1" operator="dilate" in="SourceAlpha" result="effect1_dropShadow_2002_1397"/>
<feOffset/>
<feComposite in2="hardAlpha" operator="out"/>
<feColorMatrix type="matrix" values="0 0 0 0 0 0 0 0 0 0 0 0 0 0 0 0 0 0 0.1 0"/>
<feBlend mode="normal" in2="BackgroundImageFix" result="effect1_dropShadow_2002_1397"/>
<feColorMatrix in="SourceAlpha" type="matrix" values="0 0 0 0 0 0 0 0 0 0 0 0 0 0 0 0 0 0 127 0" result="hardAlpha"/>
<feMorphology radius="5" operator="erode" in="SourceAlpha" result="effect2_dropShadow_2002_1397"/>
<feOffset dy="-6"/>
<feGaussianBlur stdDeviation="3"/>
<feComposite in2="hardAlpha" operator="out"/>
<feColorMatrix type="matrix" values="0 0 0 0 0.119271 0 0 0 0 0.119271 0 0 0 0 0.119271 0 0 0 0.08 0"/>
<feBlend mode="normal" in2="effect1_dropShadow_2002_1397" result="effect2_dropShadow_2002_1397"/>
<feBlend mode="normal" in="SourceGraphic" in2="effect2_dropShadow_2002_1397" result="shape"/>
</filter>
<filter id="filter4_dd_2002_1397" x="1088" y="100" width="249" height="84" filterUnits="userSpaceOnUse" color-interpolation-filters="sRGB">
<feFlood flood-opacity="0" result="BackgroundImageFix"/>
<feColorMatrix in="SourceAlpha" type="matrix" values="0 0 0 0 0 0 0 0 0 0 0 0 0 0 0 0 0 0 127 0" result="hardAlpha"/>
<feMorphology radius="1" operator="dilate" in="SourceAlpha" result="effect1_dropShadow_2002_1397"/>
<feOffset/>
<feComposite in2="hardAlpha" operator="out"/>
<feColorMatrix type="matrix" values="0 0 0 0 0.0431373 0 0 0 0 0.0431373 0 0 0 0 0.0431373 0 0 0 0.05 0"/>
<feBlend mode="normal" in2="BackgroundImageFix" result="effect1_dropShadow_2002_1397"/>
<feColorMatrix in="SourceAlpha" type="matrix" values="0 0 0 0 0 0 0 0 0 0 0 0 0 0 0 0 0 0 127 0" result="hardAlpha"/>
<feOffset dy="1"/>
<feGaussianBlur stdDeviation="3"/>
<feComposite in2="hardAlpha" operator="out"/>
<feColorMatrix type="matrix" values="0 0 0 0 0.0431373 0 0 0 0 0.0431373 0 0 0 0 0.0431373 0 0 0 0.06 0"/>
<feBlend mode="normal" in2="effect1_dropShadow_2002_1397" result="effect2_dropShadow_2002_1397"/>
<feBlend mode="normal" in="SourceGraphic" in2="effect2_dropShadow_2002_1397" result="shape"/>
</filter>
<filter id="filter5_dd_2002_1397" x="239" y="706" width="12" height="18" filterUnits="userSpaceOnUse" color-interpolation-filters="sRGB">
<feFlood flood-opacity="0" result="BackgroundImageFix"/>
<feColorMatrix in="SourceAlpha" type="matrix" values="0 0 0 0 0 0 0 0 0 0 0 0 0 0 0 0 0 0 127 0" result="hardAlpha"/>
<feMorphology radius="1" operator="dilate" in="SourceAlpha" result="effect1_dropShadow_2002_1397"/>
<feOffset/>
<feComposite in2="hardAlpha" operator="out"/>
<feColorMatrix type="matrix" values="0 0 0 0 0 0 0 0 0 0 0 0 0 0 0 0 0 0 0.1 0"/>
<feBlend mode="normal" in2="BackgroundImageFix" result="effect1_dropShadow_2002_1397"/>
<feColorMatrix in="SourceAlpha" type="matrix" values="0 0 0 0 0 0 0 0 0 0 0 0 0 0 0 0 0 0 127 0" result="hardAlpha"/>
<feMorphology radius="5" operator="erode" in="SourceAlpha" result="effect2_dropShadow_2002_1397"/>
<feOffset dy="-6"/>
<feGaussianBlur stdDeviation="3"/>
<feComposite in2="hardAlpha" operator="out"/>
<feColorMatrix type="matrix" values="0 0 0 0 0.119271 0 0 0 0 0.119271 0 0 0 0 0.119271 0 0 0 0.08 0"/>
<feBlend mode="normal" in2="effect1_dropShadow_2002_1397" result="effect2_dropShadow_2002_1397"/>
<feBlend mode="normal" in="SourceGraphic" in2="effect2_dropShadow_2002_1397" result="shape"/>
</filter>
<linearGradient id="paint0_linear_2002_1397" x1="728" y1="506.953" x2="728" y2="1119.38" gradientUnits="userSpaceOnUse">
<stop stop-color="#FAFAFA"/>
<stop offset="1" stop-color="#F5F5F5"/>
</linearGradient>
<radialGradient id="paint1_radial_2002_1397" cx="0" cy="0" r="1" gradientUnits="userSpaceOnUse" gradientTransform="translate(1143.5 318) rotate(120.479) scale(648.631 1492.78)">
<stop stop-color="#E7E7E7"/>
<stop offset="0.0666667" stop-color="#E7E7E7"/>
<stop offset="0.133333" stop-color="#E8E8E8"/>
<stop offset="0.2" stop-color="#E9E9E9"/>
<stop offset="0.266667" stop-color="#EAEAEA"/>
<stop offset="0.333333" stop-color="#EBEBEB"/>
<stop offset="0.4" stop-color="#EDEDED"/>
<stop offset="0.466667" stop-color="#EFEFEF"/>
<stop offset="0.533333" stop-color="#F2F2F2"/>
<stop offset="0.6" stop-color="#F4F4F4"/>
<stop offset="0.666667" stop-color="#F6F6F6"/>
<stop offset="0.733333" stop-color="#F7F7F7"/>
<stop offset="0.8" stop-color="#F8F8F8"/>
<stop offset="0.866667" stop-color="#F9F9F9"/>
<stop offset="0.933333" stop-color="#FAFAFA"/>
<stop offset="1" stop-color="#FAFAFA"/>
</radialGradient>
<linearGradient id="paint2_linear_2002_1397" x1="639.523" y1="958.111" x2="976.716" y2="958.111" gradientUnits="userSpaceOnUse">
<stop stop-color="#F23E94"/>
<stop offset="0.35" stop-color="#6927DA"/>
<stop offset="0.67" stop-color="#1570EF"/>
<stop offset="1" stop-color="#22CCEE"/>
</linearGradient>
<linearGradient id="paint3_linear_2002_1397" x1="541.904" y1="1014.78" x2="198.126" y2="951.775" gradientUnits="userSpaceOnUse">
<stop stop-color="#F23E94"/>
<stop offset="1" stop-color="#6927DA"/>
</linearGradient>
<linearGradient id="paint4_linear_2002_1397" x1="1213.5" y1="-2.18557e-08" x2="1213.5" y2="637" gradientUnits="userSpaceOnUse">
<stop stop-color="#E7E7E7" stop-opacity="0"/>
<stop offset="0.16" stop-color="#E7E7E7"/>
<stop offset="0.785" stop-color="#E7E7E7"/>
<stop offset="1" stop-color="#E7E7E7" stop-opacity="0"/>
</linearGradient>
<linearGradient id="paint5_linear_2002_1397" x1="245.5" y1="336" x2="245.5" y2="840.5" gradientUnits="userSpaceOnUse">
<stop stop-color="#E7E7E7" stop-opacity="0"/>
<stop offset="0.17061" stop-color="#E7E7E7"/>
<stop offset="0.85" stop-color="#E7E7E7"/>
<stop offset="1" stop-color="#E7E7E7" stop-opacity="0"/>
</linearGradient>
<clipPath id="clip0_2002_1397">
<rect width="1440" height="1440" fill="white" transform="translate(1 1)"/>
</clipPath>
</defs>
</svg>
