<svg width="39" height="24" viewBox="0 0 39 24" fill="none" xmlns="http://www.w3.org/2000/svg">
<path d="M7.5099 19.5232H2.25471C1.00947 19.5232 0 20.5255 0 21.7618C0 22.9982 1.00947 24.0005 2.25471 24.0005H7.5099C8.75514 24.0005 9.76461 22.9982 9.76461 21.7618C9.76461 20.5255 8.75514 19.5232 7.5099 19.5232Z" fill="#F23E94"/>
<path d="M31.0136 23.9998H36.2687C37.514 23.9998 38.5234 22.9975 38.5234 21.7611C38.5234 20.5248 37.514 19.5225 36.2687 19.5225H31.0136C29.7683 19.5225 28.7588 20.5248 28.7588 21.7611C28.7588 22.9975 29.7683 23.9998 31.0136 23.9998Z" fill="#F23E94"/>
<path d="M21.3842 19.5076H17.1063C15.861 19.5076 14.8516 20.5098 14.8516 21.7462C14.8516 22.9826 15.861 23.9848 17.1063 23.9848H21.3842C22.6294 23.9848 23.6389 22.9826 23.6389 21.7462C23.6389 20.5098 22.6294 19.5076 21.3842 19.5076Z" fill="#F23E94"/>
<path d="M28.966 17.5544H34.0265C35.2718 17.5544 36.2812 16.5522 36.2812 15.3158C36.2812 14.0794 35.2718 13.0772 34.0265 13.0772H28.966C27.7207 13.0772 26.7113 14.0794 26.7113 15.3158C26.7113 16.5522 27.7207 17.5544 28.966 17.5544Z" fill="#6927DA"/>
<path d="M9.4637 13.0779H4.40315C3.15791 13.0779 2.14844 14.0802 2.14844 15.3165C2.14844 16.5529 3.15791 17.5552 4.40315 17.5552H9.4637C10.7089 17.5552 11.7184 16.5529 11.7184 15.3165C11.7184 14.0802 10.7089 13.0779 9.4637 13.0779Z" fill="#6927DA"/>
<path d="M23.0117 13.0662H15.4813C14.236 13.0662 13.2266 14.0684 13.2266 15.3048C13.2266 16.5412 14.236 17.5434 15.4813 17.5434H23.0117C24.2569 17.5434 25.2664 16.5412 25.2664 15.3048C25.2664 14.0684 24.2569 13.0662 23.0117 13.0662Z" fill="#6927DA"/>
<path d="M16.2542 6.44507H6.64533C5.40009 6.44507 4.39062 7.44734 4.39062 8.6837C4.39062 9.92007 5.40009 10.9223 6.64533 10.9223H16.2542C17.4995 10.9223 18.5089 9.92007 18.5089 8.6837C18.5089 7.44734 17.4995 6.44507 16.2542 6.44507Z" fill="#1570EF"/>
<path d="M22.7969 10.9177L31.7922 10.9177C33.0374 10.9177 34.0469 9.91545 34.0469 8.67909C34.0469 7.44273 33.0374 6.44046 31.7922 6.44046L22.7969 6.44046C21.5517 6.44046 20.5422 7.44273 20.5422 8.67909C20.5422 9.91545 21.5517 10.9177 22.7969 10.9177Z" fill="#1570EF"/>
<path d="M29.6234 -0.000244141H24.5516C23.3063 -0.000244141 22.2969 1.00203 22.2969 2.23839C22.2969 3.47475 23.3063 4.47702 24.5516 4.47702H29.6234C30.8686 4.47702 31.8781 3.47475 31.8781 2.23839C31.8781 1.00203 30.8686 -0.000244141 29.6234 -0.000244141Z" fill="#22CCEE"/>
<path d="M13.8734 -0.000244141H8.80159C7.55634 -0.000244141 6.54688 1.00203 6.54688 2.23839C6.54688 3.47475 7.55634 4.47702 8.80159 4.47702H13.8734C15.1186 4.47702 16.1281 3.47475 16.1281 2.23839C16.1281 1.00203 15.1186 -0.000244141 13.8734 -0.000244141Z" fill="#22CCEE"/>
</svg>
