<svg width="562" height="92" viewBox="0 0 562 92" fill="none" xmlns="http://www.w3.org/2000/svg">
<g filter="url(#filter0_dd_2024_1681)">
<rect x="39.5" y="5" width="143" height="36" rx="10" fill="white"/>
<path d="M67.3333 17.1668L55.6666 28.8335M59 18.4168C59 19.5674 58.0672 20.5002 56.9166 20.5002C55.7661 20.5002 54.8333 19.5674 54.8333 18.4168C54.8333 17.2662 55.7661 16.3335 56.9166 16.3335C58.0672 16.3335 59 17.2662 59 18.4168ZM68.1666 27.5835C68.1666 28.7341 67.2339 29.6668 66.0833 29.6668C64.9327 29.6668 64 28.7341 64 27.5835C64 26.4329 64.9327 25.5002 66.0833 25.5002C67.2339 25.5002 68.1666 26.4329 68.1666 27.5835Z" stroke="#875BF7" stroke-width="1.5" stroke-linecap="round" stroke-linejoin="round"/>
<path d="M78.788 28V18.06H82.554C83.254 18.06 83.856 18.1813 84.36 18.424C84.864 18.6667 85.2513 19.0167 85.522 19.474C85.802 19.922 85.942 20.454 85.942 21.07C85.942 21.518 85.8347 21.9193 85.62 22.274C85.4147 22.6193 85.1487 22.8947 84.822 23.1C84.4953 23.3053 84.1547 23.4173 83.8 23.436L83.716 23.31C84.3227 23.31 84.7987 23.45 85.144 23.73C85.4987 24.01 85.704 24.458 85.76 25.074L86.04 28H84.822L84.57 25.2C84.5327 24.7893 84.3833 24.486 84.122 24.29C83.87 24.094 83.4547 23.996 82.876 23.996H79.992V28H78.788ZM79.992 22.82H82.708C83.3147 22.82 83.7953 22.666 84.15 22.358C84.5047 22.05 84.682 21.6113 84.682 21.042C84.682 20.4633 84.5 20.02 84.136 19.712C83.772 19.3947 83.2447 19.236 82.554 19.236H79.992V22.82ZM91.8672 28.224C90.9245 28.224 90.1125 28.0187 89.4312 27.608C88.7592 27.188 88.2412 26.5907 87.8772 25.816C87.5132 25.0413 87.3312 24.1173 87.3312 23.044C87.3312 21.9707 87.5132 21.0467 87.8772 20.272C88.2412 19.488 88.7592 18.886 89.4312 18.466C90.1125 18.046 90.9245 17.836 91.8672 17.836C92.8192 17.836 93.6312 18.046 94.3032 18.466C94.9845 18.886 95.5072 19.488 95.8712 20.272C96.2352 21.0467 96.4172 21.9707 96.4172 23.044C96.4172 24.1173 96.2352 25.0413 95.8712 25.816C95.5072 26.5907 94.9845 27.188 94.3032 27.608C93.6312 28.0187 92.8192 28.224 91.8672 28.224ZM91.8672 27.048C92.5578 27.048 93.1458 26.8893 93.6312 26.572C94.1258 26.2547 94.5038 25.7973 94.7652 25.2C95.0265 24.6027 95.1572 23.884 95.1572 23.044C95.1572 22.204 95.0265 21.4853 94.7652 20.888C94.5038 20.2813 94.1258 19.8193 93.6312 19.502C93.1458 19.1753 92.5578 19.012 91.8672 19.012C91.1858 19.012 90.5978 19.1753 90.1032 19.502C89.6178 19.8193 89.2445 20.2813 88.9832 20.888C88.7218 21.4853 88.5912 22.204 88.5912 23.044C88.5912 23.884 88.7218 24.6027 88.9832 25.2C89.2445 25.7973 89.6178 26.2547 90.1032 26.572C90.5978 26.8893 91.1858 27.048 91.8672 27.048ZM98.1474 28V18.06H99.3514V28H98.1474ZM109.229 28.224C108.342 28.224 107.563 28.0187 106.891 27.608C106.219 27.188 105.696 26.5907 105.323 25.816C104.949 25.0413 104.763 24.1173 104.763 23.044C104.763 21.9707 104.949 21.0467 105.323 20.272C105.696 19.488 106.219 18.886 106.891 18.466C107.563 18.046 108.342 17.836 109.229 17.836C110.433 17.836 111.366 18.1393 112.029 18.746C112.691 19.3527 113.125 20.1787 113.331 21.224L112.057 21.308C111.917 20.5987 111.618 20.0387 111.161 19.628C110.703 19.2173 110.059 19.012 109.229 19.012C108.594 19.012 108.034 19.1753 107.549 19.502C107.073 19.8193 106.699 20.2813 106.429 20.888C106.158 21.4853 106.023 22.204 106.023 23.044C106.023 23.884 106.158 24.6027 106.429 25.2C106.699 25.7973 107.073 26.2547 107.549 26.572C108.034 26.8893 108.594 27.048 109.229 27.048C110.097 27.048 110.769 26.824 111.245 26.376C111.721 25.9187 112.019 25.3027 112.141 24.528L113.415 24.612C113.293 25.3307 113.055 25.9607 112.701 26.502C112.346 27.0433 111.875 27.468 111.287 27.776C110.708 28.0747 110.022 28.224 109.229 28.224ZM117.044 28.168C116.279 28.168 115.667 27.9907 115.21 27.636C114.762 27.2813 114.538 26.7867 114.538 26.152C114.538 25.5173 114.725 25.018 115.098 24.654C115.471 24.29 116.064 24.0333 116.876 23.884L119.508 23.394C119.508 22.7687 119.359 22.302 119.06 21.994C118.771 21.686 118.332 21.532 117.744 21.532C117.231 21.532 116.825 21.6487 116.526 21.882C116.227 22.106 116.022 22.4327 115.91 22.862L114.664 22.764C114.804 22.064 115.14 21.4993 115.672 21.07C116.213 20.6313 116.904 20.412 117.744 20.412C118.696 20.412 119.424 20.6827 119.928 21.224C120.432 21.756 120.684 22.4933 120.684 23.436V26.502C120.684 26.67 120.712 26.7913 120.768 26.866C120.833 26.9313 120.936 26.964 121.076 26.964H121.37V28C121.333 28.0093 121.272 28.014 121.188 28.014C121.104 28.0233 121.015 28.028 120.922 28.028C120.586 28.028 120.311 27.9767 120.096 27.874C119.891 27.762 119.741 27.594 119.648 27.37C119.555 27.1367 119.508 26.8333 119.508 26.46L119.648 26.488C119.583 26.8053 119.424 27.0947 119.172 27.356C118.92 27.608 118.607 27.8087 118.234 27.958C117.861 28.098 117.464 28.168 117.044 28.168ZM117.156 27.132C117.651 27.132 118.071 27.0387 118.416 26.852C118.771 26.656 119.041 26.3947 119.228 26.068C119.415 25.732 119.508 25.3587 119.508 24.948V24.416L117.1 24.864C116.596 24.9573 116.246 25.102 116.05 25.298C115.863 25.4847 115.77 25.732 115.77 26.04C115.77 26.3853 115.891 26.656 116.134 26.852C116.386 27.0387 116.727 27.132 117.156 27.132ZM124.072 28C123.643 28 123.293 27.888 123.022 27.664C122.751 27.44 122.616 27.0853 122.616 26.6V18.06H123.792V26.502C123.792 26.6513 123.829 26.768 123.904 26.852C123.988 26.9267 124.105 26.964 124.254 26.964H124.898V28H124.072ZM129.164 28.168C128.474 28.168 127.872 28.0093 127.358 27.692C126.854 27.3747 126.462 26.9267 126.182 26.348C125.902 25.76 125.762 25.074 125.762 24.29C125.762 23.506 125.902 22.8247 126.182 22.246C126.462 21.6673 126.854 21.2193 127.358 20.902C127.872 20.5753 128.474 20.412 129.164 20.412C129.734 20.412 130.238 20.5147 130.676 20.72C131.124 20.916 131.488 21.2053 131.768 21.588C132.048 21.9707 132.23 22.4373 132.314 22.988L131.082 23.072C130.998 22.5773 130.784 22.1993 130.438 21.938C130.093 21.6673 129.668 21.532 129.164 21.532C128.483 21.532 127.951 21.7793 127.568 22.274C127.186 22.7593 126.994 23.4313 126.994 24.29C126.994 25.1487 127.186 25.8253 127.568 26.32C127.951 26.8053 128.483 27.048 129.164 27.048C129.668 27.048 130.093 26.908 130.438 26.628C130.784 26.348 130.998 25.928 131.082 25.368L132.314 25.452C132.23 26.0027 132.048 26.4833 131.768 26.894C131.488 27.2953 131.124 27.608 130.676 27.832C130.238 28.056 129.734 28.168 129.164 28.168ZM136.208 28.168C135.471 28.168 134.878 27.9207 134.43 27.426C133.992 26.922 133.772 26.2313 133.772 25.354V20.58H134.948V25.032C134.948 25.7507 135.074 26.2827 135.326 26.628C135.588 26.964 135.984 27.132 136.516 27.132C137.104 27.132 137.566 26.9453 137.902 26.572C138.238 26.1893 138.406 25.6667 138.406 25.004V20.58H139.582V28H138.462V26.166L138.644 26.264C138.495 26.8707 138.21 27.342 137.79 27.678C137.37 28.0047 136.843 28.168 136.208 28.168ZM143.281 28C142.852 28 142.502 27.888 142.231 27.664C141.96 27.44 141.825 27.0853 141.825 26.6V18.06H143.001V26.502C143.001 26.6513 143.038 26.768 143.113 26.852C143.197 26.9267 143.314 26.964 143.463 26.964H144.107V28H143.281ZM147.56 28.168C146.794 28.168 146.183 27.9907 145.726 27.636C145.278 27.2813 145.054 26.7867 145.054 26.152C145.054 25.5173 145.24 25.018 145.614 24.654C145.987 24.29 146.58 24.0333 147.392 23.884L150.024 23.394C150.024 22.7687 149.874 22.302 149.576 21.994C149.286 21.686 148.848 21.532 148.26 21.532C147.746 21.532 147.34 21.6487 147.042 21.882C146.743 22.106 146.538 22.4327 146.426 22.862L145.18 22.764C145.32 22.064 145.656 21.4993 146.188 21.07C146.729 20.6313 147.42 20.412 148.26 20.412C149.212 20.412 149.94 20.6827 150.444 21.224C150.948 21.756 151.2 22.4933 151.2 23.436V26.502C151.2 26.67 151.228 26.7913 151.284 26.866C151.349 26.9313 151.452 26.964 151.592 26.964H151.886V28C151.848 28.0093 151.788 28.014 151.704 28.014C151.62 28.0233 151.531 28.028 151.438 28.028C151.102 28.028 150.826 27.9767 150.612 27.874C150.406 27.762 150.257 27.594 150.164 27.37C150.07 27.1367 150.024 26.8333 150.024 26.46L150.164 26.488C150.098 26.8053 149.94 27.0947 149.688 27.356C149.436 27.608 149.123 27.8087 148.75 27.958C148.376 28.098 147.98 28.168 147.56 28.168ZM147.672 27.132C148.166 27.132 148.586 27.0387 148.932 26.852C149.286 26.656 149.557 26.3947 149.744 26.068C149.93 25.732 150.024 25.3587 150.024 24.948V24.416L147.616 24.864C147.112 24.9573 146.762 25.102 146.566 25.298C146.379 25.4847 146.285 25.732 146.285 26.04C146.285 26.3853 146.407 26.656 146.65 26.852C146.902 27.0387 147.242 27.132 147.672 27.132ZM155.561 28C154.889 28 154.389 27.846 154.063 27.538C153.745 27.23 153.587 26.7493 153.587 26.096V18.844H154.763V26.068C154.763 26.404 154.837 26.6373 154.987 26.768C155.136 26.8987 155.365 26.964 155.673 26.964H156.737V28H155.561ZM152.495 21.616V20.58H156.737V21.616H152.495ZM161.006 28.168C160.325 28.168 159.728 28.0093 159.214 27.692C158.701 27.3747 158.304 26.9267 158.024 26.348C157.744 25.76 157.604 25.074 157.604 24.29C157.604 23.4967 157.744 22.8107 158.024 22.232C158.304 21.6533 158.701 21.2053 159.214 20.888C159.728 20.5707 160.325 20.412 161.006 20.412C161.688 20.412 162.28 20.5707 162.784 20.888C163.298 21.2053 163.694 21.6533 163.974 22.232C164.254 22.8107 164.394 23.4967 164.394 24.29C164.394 25.074 164.254 25.76 163.974 26.348C163.694 26.9267 163.298 27.3747 162.784 27.692C162.28 28.0093 161.688 28.168 161.006 28.168ZM161.006 27.048C161.688 27.048 162.215 26.8053 162.588 26.32C162.971 25.8253 163.162 25.1487 163.162 24.29C163.162 23.4313 162.971 22.7593 162.588 22.274C162.215 21.7793 161.688 21.532 161.006 21.532C160.325 21.532 159.793 21.7793 159.41 22.274C159.028 22.7593 158.836 23.4313 158.836 24.29C158.836 25.1487 159.028 25.8253 159.41 26.32C159.793 26.8053 160.325 27.048 161.006 27.048ZM165.997 28V20.58H167.033L167.089 22.456L166.977 22.414C167.07 21.7793 167.271 21.3173 167.579 21.028C167.896 20.7293 168.316 20.58 168.839 20.58H169.567V21.7H168.853C168.48 21.7 168.167 21.77 167.915 21.91C167.672 22.0407 167.486 22.2413 167.355 22.512C167.234 22.7733 167.173 23.1093 167.173 23.52V28H165.997Z" fill="#171717"/>
</g>
<g filter="url(#filter1_dd_2024_1681)">
<rect x="190.5" y="5" width="151" height="36" rx="10" fill="white"/>
<path d="M208.333 30.5H216.667M212.5 15.5V30.5M205 18.8333H206.667C208.333 18.8333 210.833 18 212.5 17.1667C214.167 18 216.667 18.8333 218.333 18.8333H220M215.833 26.3333L218.333 19.6667L220.833 26.3333C220.108 26.875 219.233 27.1667 218.333 27.1667C217.433 27.1667 216.558 26.875 215.833 26.3333ZM204.167 26.3333L206.667 19.6667L209.167 26.3333C208.442 26.875 207.567 27.1667 206.667 27.1667C205.767 27.1667 204.892 26.875 204.167 26.3333Z" stroke="#F23E94" stroke-width="1.5" stroke-linecap="round" stroke-linejoin="round"/>
<path d="M229.788 28V18.06H230.992V27.44L230.39 26.824H235.962V28H229.788ZM240.092 28.168C239.411 28.168 238.814 28.0093 238.3 27.692C237.787 27.3747 237.39 26.9267 237.11 26.348C236.83 25.76 236.69 25.074 236.69 24.29C236.69 23.4967 236.83 22.8107 237.11 22.232C237.39 21.6533 237.787 21.2053 238.3 20.888C238.814 20.5707 239.411 20.412 240.092 20.412C240.774 20.412 241.366 20.5707 241.87 20.888C242.384 21.2053 242.78 21.6533 243.06 22.232C243.34 22.8107 243.48 23.4967 243.48 24.29C243.48 25.074 243.34 25.76 243.06 26.348C242.78 26.9267 242.384 27.3747 241.87 27.692C241.366 28.0093 240.774 28.168 240.092 28.168ZM240.092 27.048C240.774 27.048 241.301 26.8053 241.674 26.32C242.057 25.8253 242.248 25.1487 242.248 24.29C242.248 23.4313 242.057 22.7593 241.674 22.274C241.301 21.7793 240.774 21.532 240.092 21.532C239.411 21.532 238.879 21.7793 238.496 22.274C238.114 22.7593 237.922 23.4313 237.922 24.29C237.922 25.1487 238.114 25.8253 238.496 26.32C238.879 26.8053 239.411 27.048 240.092 27.048ZM247.276 28.168C246.511 28.168 245.9 27.9907 245.442 27.636C244.994 27.2813 244.77 26.7867 244.77 26.152C244.77 25.5173 244.957 25.018 245.33 24.654C245.704 24.29 246.296 24.0333 247.108 23.884L249.74 23.394C249.74 22.7687 249.591 22.302 249.292 21.994C249.003 21.686 248.564 21.532 247.976 21.532C247.463 21.532 247.057 21.6487 246.758 21.882C246.46 22.106 246.254 22.4327 246.142 22.862L244.896 22.764C245.036 22.064 245.372 21.4993 245.904 21.07C246.446 20.6313 247.136 20.412 247.976 20.412C248.928 20.412 249.656 20.6827 250.16 21.224C250.664 21.756 250.916 22.4933 250.916 23.436V26.502C250.916 26.67 250.944 26.7913 251 26.866C251.066 26.9313 251.168 26.964 251.308 26.964H251.602V28C251.565 28.0093 251.504 28.014 251.42 28.014C251.336 28.0233 251.248 28.028 251.154 28.028C250.818 28.028 250.543 27.9767 250.328 27.874C250.123 27.762 249.974 27.594 249.88 27.37C249.787 27.1367 249.74 26.8333 249.74 26.46L249.88 26.488C249.815 26.8053 249.656 27.0947 249.404 27.356C249.152 27.608 248.84 27.8087 248.466 27.958C248.093 28.098 247.696 28.168 247.276 28.168ZM247.388 27.132C247.883 27.132 248.303 27.0387 248.648 26.852C249.003 26.656 249.274 26.3947 249.46 26.068C249.647 25.732 249.74 25.3587 249.74 24.948V24.416L247.332 24.864C246.828 24.9573 246.478 25.102 246.282 25.298C246.096 25.4847 246.002 25.732 246.002 26.04C246.002 26.3853 246.124 26.656 246.366 26.852C246.618 27.0387 246.959 27.132 247.388 27.132ZM252.931 28V20.58H254.009L254.051 22.47L253.911 22.344C254.004 21.9053 254.167 21.546 254.401 21.266C254.634 20.9767 254.914 20.762 255.241 20.622C255.577 20.482 255.936 20.412 256.319 20.412C256.888 20.412 257.355 20.538 257.719 20.79C258.092 21.042 258.367 21.3827 258.545 21.812C258.731 22.232 258.825 22.7033 258.825 23.226V28H257.649V23.562C257.649 23.1047 257.593 22.722 257.481 22.414C257.378 22.0967 257.21 21.8587 256.977 21.7C256.743 21.532 256.44 21.448 256.067 21.448C255.497 21.448 255.026 21.63 254.653 21.994C254.289 22.3487 254.107 22.8713 254.107 23.562V28H252.931ZM268.541 28.224C267.655 28.224 266.875 28.0187 266.203 27.608C265.531 27.188 265.009 26.5907 264.635 25.816C264.262 25.0413 264.075 24.1173 264.075 23.044C264.075 21.9707 264.262 21.0467 264.635 20.272C265.009 19.488 265.531 18.886 266.203 18.466C266.875 18.046 267.655 17.836 268.541 17.836C269.745 17.836 270.679 18.1393 271.341 18.746C272.004 19.3527 272.438 20.1787 272.643 21.224L271.369 21.308C271.229 20.5987 270.931 20.0387 270.473 19.628C270.016 19.2173 269.372 19.012 268.541 19.012C267.907 19.012 267.347 19.1753 266.861 19.502C266.385 19.8193 266.012 20.2813 265.741 20.888C265.471 21.4853 265.335 22.204 265.335 23.044C265.335 23.884 265.471 24.6027 265.741 25.2C266.012 25.7973 266.385 26.2547 266.861 26.572C267.347 26.8893 267.907 27.048 268.541 27.048C269.409 27.048 270.081 26.824 270.557 26.376C271.033 25.9187 271.332 25.3027 271.453 24.528L272.727 24.612C272.606 25.3307 272.368 25.9607 272.013 26.502C271.659 27.0433 271.187 27.468 270.599 27.776C270.021 28.0747 269.335 28.224 268.541 28.224ZM276.356 28.168C275.591 28.168 274.98 27.9907 274.522 27.636C274.074 27.2813 273.85 26.7867 273.85 26.152C273.85 25.5173 274.037 25.018 274.41 24.654C274.784 24.29 275.376 24.0333 276.188 23.884L278.82 23.394C278.82 22.7687 278.671 22.302 278.372 21.994C278.083 21.686 277.644 21.532 277.056 21.532C276.543 21.532 276.137 21.6487 275.838 21.882C275.54 22.106 275.334 22.4327 275.222 22.862L273.976 22.764C274.116 22.064 274.452 21.4993 274.984 21.07C275.526 20.6313 276.216 20.412 277.056 20.412C278.008 20.412 278.736 20.6827 279.24 21.224C279.744 21.756 279.996 22.4933 279.996 23.436V26.502C279.996 26.67 280.024 26.7913 280.08 26.866C280.146 26.9313 280.248 26.964 280.388 26.964H280.682V28C280.645 28.0093 280.584 28.014 280.5 28.014C280.416 28.0233 280.328 28.028 280.234 28.028C279.898 28.028 279.623 27.9767 279.408 27.874C279.203 27.762 279.054 27.594 278.96 27.37C278.867 27.1367 278.82 26.8333 278.82 26.46L278.96 26.488C278.895 26.8053 278.736 27.0947 278.484 27.356C278.232 27.608 277.92 27.8087 277.546 27.958C277.173 28.098 276.776 28.168 276.356 28.168ZM276.468 27.132C276.963 27.132 277.383 27.0387 277.728 26.852C278.083 26.656 278.354 26.3947 278.54 26.068C278.727 25.732 278.82 25.3587 278.82 24.948V24.416L276.412 24.864C275.908 24.9573 275.558 25.102 275.362 25.298C275.176 25.4847 275.082 25.732 275.082 26.04C275.082 26.3853 275.204 26.656 275.446 26.852C275.698 27.0387 276.039 27.132 276.468 27.132ZM283.385 28C282.955 28 282.605 27.888 282.335 27.664C282.064 27.44 281.929 27.0853 281.929 26.6V18.06H283.105V26.502C283.105 26.6513 283.142 26.768 283.217 26.852C283.301 26.9267 283.417 26.964 283.567 26.964H284.211V28H283.385ZM288.477 28.168C287.786 28.168 287.184 28.0093 286.671 27.692C286.167 27.3747 285.775 26.9267 285.495 26.348C285.215 25.76 285.075 25.074 285.075 24.29C285.075 23.506 285.215 22.8247 285.495 22.246C285.775 21.6673 286.167 21.2193 286.671 20.902C287.184 20.5753 287.786 20.412 288.477 20.412C289.046 20.412 289.55 20.5147 289.989 20.72C290.437 20.916 290.801 21.2053 291.081 21.588C291.361 21.9707 291.543 22.4373 291.627 22.988L290.395 23.072C290.311 22.5773 290.096 22.1993 289.751 21.938C289.406 21.6673 288.981 21.532 288.477 21.532C287.796 21.532 287.264 21.7793 286.881 22.274C286.498 22.7593 286.307 23.4313 286.307 24.29C286.307 25.1487 286.498 25.8253 286.881 26.32C287.264 26.8053 287.796 27.048 288.477 27.048C288.981 27.048 289.406 26.908 289.751 26.628C290.096 26.348 290.311 25.928 290.395 25.368L291.627 25.452C291.543 26.0027 291.361 26.4833 291.081 26.894C290.801 27.2953 290.437 27.608 289.989 27.832C289.55 28.056 289.046 28.168 288.477 28.168ZM295.521 28.168C294.784 28.168 294.191 27.9207 293.743 27.426C293.304 26.922 293.085 26.2313 293.085 25.354V20.58H294.261V25.032C294.261 25.7507 294.387 26.2827 294.639 26.628C294.9 26.964 295.297 27.132 295.829 27.132C296.417 27.132 296.879 26.9453 297.215 26.572C297.551 26.1893 297.719 25.6667 297.719 25.004V20.58H298.895V28H297.775V26.166L297.957 26.264C297.808 26.8707 297.523 27.342 297.103 27.678C296.683 28.0047 296.156 28.168 295.521 28.168ZM302.594 28C302.164 28 301.814 27.888 301.544 27.664C301.273 27.44 301.138 27.0853 301.138 26.6V18.06H302.314V26.502C302.314 26.6513 302.351 26.768 302.426 26.852C302.51 26.9267 302.626 26.964 302.776 26.964H303.42V28H302.594ZM306.872 28.168C306.107 28.168 305.495 27.9907 305.038 27.636C304.59 27.2813 304.366 26.7867 304.366 26.152C304.366 25.5173 304.553 25.018 304.926 24.654C305.299 24.29 305.892 24.0333 306.704 23.884L309.336 23.394C309.336 22.7687 309.187 22.302 308.888 21.994C308.599 21.686 308.16 21.532 307.572 21.532C307.059 21.532 306.653 21.6487 306.354 21.882C306.055 22.106 305.85 22.4327 305.738 22.862L304.492 22.764C304.632 22.064 304.968 21.4993 305.5 21.07C306.041 20.6313 306.732 20.412 307.572 20.412C308.524 20.412 309.252 20.6827 309.756 21.224C310.26 21.756 310.512 22.4933 310.512 23.436V26.502C310.512 26.67 310.54 26.7913 310.596 26.866C310.661 26.9313 310.764 26.964 310.904 26.964H311.198V28C311.161 28.0093 311.1 28.014 311.016 28.014C310.932 28.0233 310.843 28.028 310.75 28.028C310.414 28.028 310.139 27.9767 309.924 27.874C309.719 27.762 309.569 27.594 309.476 27.37C309.383 27.1367 309.336 26.8333 309.336 26.46L309.476 26.488C309.411 26.8053 309.252 27.0947 309 27.356C308.748 27.608 308.435 27.8087 308.062 27.958C307.689 28.098 307.292 28.168 306.872 28.168ZM306.984 27.132C307.479 27.132 307.899 27.0387 308.244 26.852C308.599 26.656 308.869 26.3947 309.056 26.068C309.243 25.732 309.336 25.3587 309.336 24.948V24.416L306.928 24.864C306.424 24.9573 306.074 25.102 305.878 25.298C305.691 25.4847 305.598 25.732 305.598 26.04C305.598 26.3853 305.719 26.656 305.962 26.852C306.214 27.0387 306.555 27.132 306.984 27.132ZM314.873 28C314.201 28 313.702 27.846 313.375 27.538C313.058 27.23 312.899 26.7493 312.899 26.096V18.844H314.075V26.068C314.075 26.404 314.15 26.6373 314.299 26.768C314.448 26.8987 314.677 26.964 314.985 26.964H316.049V28H314.873ZM311.807 21.616V20.58H316.049V21.616H311.807ZM320.319 28.168C319.637 28.168 319.04 28.0093 318.527 27.692C318.013 27.3747 317.617 26.9267 317.337 26.348C317.057 25.76 316.917 25.074 316.917 24.29C316.917 23.4967 317.057 22.8107 317.337 22.232C317.617 21.6533 318.013 21.2053 318.527 20.888C319.04 20.5707 319.637 20.412 320.319 20.412C321 20.412 321.593 20.5707 322.097 20.888C322.61 21.2053 323.007 21.6533 323.287 22.232C323.567 22.8107 323.707 23.4967 323.707 24.29C323.707 25.074 323.567 25.76 323.287 26.348C323.007 26.9267 322.61 27.3747 322.097 27.692C321.593 28.0093 321 28.168 320.319 28.168ZM320.319 27.048C321 27.048 321.527 26.8053 321.901 26.32C322.283 25.8253 322.475 25.1487 322.475 24.29C322.475 23.4313 322.283 22.7593 321.901 22.274C321.527 21.7793 321 21.532 320.319 21.532C319.637 21.532 319.105 21.7793 318.723 22.274C318.34 22.7593 318.149 23.4313 318.149 24.29C318.149 25.1487 318.34 25.8253 318.723 26.32C319.105 26.8053 319.637 27.048 320.319 27.048ZM325.309 28V20.58H326.345L326.401 22.456L326.289 22.414C326.383 21.7793 326.583 21.3173 326.891 21.028C327.209 20.7293 327.629 20.58 328.151 20.58H328.879V21.7H328.165C327.792 21.7 327.479 21.77 327.227 21.91C326.985 22.0407 326.798 22.2413 326.667 22.512C326.546 22.7733 326.485 23.1093 326.485 23.52V28H325.309Z" fill="#171717"/>
</g>
<g filter="url(#filter2_dd_2024_1681)">
<rect x="349.5" y="5" width="173" height="36" rx="10" fill="white"/>
<path d="M371.5 22.9998C369.833 20.7748 368.167 19.6665 366.5 19.6665C365.616 19.6665 364.768 20.0177 364.143 20.6428C363.518 21.2679 363.167 22.1158 363.167 22.9998C363.167 23.8839 363.518 24.7317 364.143 25.3569C364.768 25.982 365.616 26.3332 366.5 26.3332C368.167 26.3332 369.833 25.2248 371.5 22.9998ZM371.5 22.9998C373.167 25.2248 374.833 26.3332 376.5 26.3332C377.384 26.3332 378.232 25.982 378.857 25.3569C379.482 24.7317 379.833 23.8839 379.833 22.9998C379.833 22.1158 379.482 21.2679 378.857 20.6428C378.232 20.0177 377.384 19.6665 376.5 19.6665C374.833 19.6665 373.167 20.7748 371.5 22.9998Z" stroke="#F79009" stroke-width="1.5" stroke-linecap="round" stroke-linejoin="round"/>
<path d="M388.788 28V18.06H389.992V28H388.788ZM392.53 28V20.58H393.608L393.65 22.47L393.51 22.344C393.603 21.9053 393.767 21.546 394 21.266C394.233 20.9767 394.513 20.762 394.84 20.622C395.176 20.482 395.535 20.412 395.918 20.412C396.487 20.412 396.954 20.538 397.318 20.79C397.691 21.042 397.967 21.3827 398.144 21.812C398.331 22.232 398.424 22.7033 398.424 23.226V28H397.248V23.562C397.248 23.1047 397.192 22.722 397.08 22.414C396.977 22.0967 396.809 21.8587 396.576 21.7C396.343 21.532 396.039 21.448 395.666 21.448C395.097 21.448 394.625 21.63 394.252 21.994C393.888 22.3487 393.706 22.8713 393.706 23.562V28H392.53ZM400.914 28V19.908C400.914 19.3573 401.073 18.914 401.39 18.578C401.708 18.2327 402.202 18.06 402.874 18.06H404.05V19.096H402.958C402.669 19.096 402.45 19.1753 402.3 19.334C402.16 19.4927 402.09 19.712 402.09 19.992V28H400.914ZM399.906 21.616V20.58H403.952V21.616H399.906ZM406.892 28C406.463 28 406.113 27.888 405.842 27.664C405.572 27.44 405.436 27.0853 405.436 26.6V18.06H406.612V26.502C406.612 26.6513 406.65 26.768 406.724 26.852C406.808 26.9267 406.925 26.964 407.074 26.964H407.718V28H406.892ZM411.171 28.168C410.405 28.168 409.794 27.9907 409.337 27.636C408.889 27.2813 408.665 26.7867 408.665 26.152C408.665 25.5173 408.851 25.018 409.225 24.654C409.598 24.29 410.191 24.0333 411.003 23.884L413.635 23.394C413.635 22.7687 413.485 22.302 413.187 21.994C412.897 21.686 412.459 21.532 411.871 21.532C411.357 21.532 410.951 21.6487 410.653 21.882C410.354 22.106 410.149 22.4327 410.037 22.862L408.791 22.764C408.931 22.064 409.267 21.4993 409.799 21.07C410.34 20.6313 411.031 20.412 411.871 20.412C412.823 20.412 413.551 20.6827 414.055 21.224C414.559 21.756 414.811 22.4933 414.811 23.436V26.502C414.811 26.67 414.839 26.7913 414.895 26.866C414.96 26.9313 415.063 26.964 415.203 26.964H415.497V28C415.459 28.0093 415.399 28.014 415.315 28.014C415.231 28.0233 415.142 28.028 415.049 28.028C414.713 28.028 414.437 27.9767 414.223 27.874C414.017 27.762 413.868 27.594 413.775 27.37C413.681 27.1367 413.635 26.8333 413.635 26.46L413.775 26.488C413.709 26.8053 413.551 27.0947 413.299 27.356C413.047 27.608 412.734 27.8087 412.361 27.958C411.987 28.098 411.591 28.168 411.171 28.168ZM411.283 27.132C411.777 27.132 412.197 27.0387 412.543 26.852C412.897 26.656 413.168 26.3947 413.355 26.068C413.541 25.732 413.635 25.3587 413.635 24.948V24.416L411.227 24.864C410.723 24.9573 410.373 25.102 410.177 25.298C409.99 25.4847 409.897 25.732 409.897 26.04C409.897 26.3853 410.018 26.656 410.261 26.852C410.513 27.0387 410.853 27.132 411.283 27.132ZM419.172 28C418.5 28 418.001 27.846 417.674 27.538C417.357 27.23 417.198 26.7493 417.198 26.096V18.844H418.374V26.068C418.374 26.404 418.449 26.6373 418.598 26.768C418.747 26.8987 418.976 26.964 419.284 26.964H420.348V28H419.172ZM416.106 21.616V20.58H420.348V21.616H416.106ZM421.856 28V20.58H423.032V28H421.856ZM421.828 19.418V18.046H423.06V19.418H421.828ZM428.036 28.168C427.354 28.168 426.757 28.0093 426.244 27.692C425.73 27.3747 425.334 26.9267 425.054 26.348C424.774 25.76 424.634 25.074 424.634 24.29C424.634 23.4967 424.774 22.8107 425.054 22.232C425.334 21.6533 425.73 21.2053 426.244 20.888C426.757 20.5707 427.354 20.412 428.036 20.412C428.717 20.412 429.31 20.5707 429.814 20.888C430.327 21.2053 430.724 21.6533 431.004 22.232C431.284 22.8107 431.424 23.4967 431.424 24.29C431.424 25.074 431.284 25.76 431.004 26.348C430.724 26.9267 430.327 27.3747 429.814 27.692C429.31 28.0093 428.717 28.168 428.036 28.168ZM428.036 27.048C428.717 27.048 429.244 26.8053 429.618 26.32C430 25.8253 430.192 25.1487 430.192 24.29C430.192 23.4313 430 22.7593 429.618 22.274C429.244 21.7793 428.717 21.532 428.036 21.532C427.354 21.532 426.822 21.7793 426.44 22.274C426.057 22.7593 425.866 23.4313 425.866 24.29C425.866 25.1487 426.057 25.8253 426.44 26.32C426.822 26.8053 427.354 27.048 428.036 27.048ZM433.026 28V20.58H434.104L434.146 22.47L434.006 22.344C434.1 21.9053 434.263 21.546 434.496 21.266C434.73 20.9767 435.01 20.762 435.336 20.622C435.672 20.482 436.032 20.412 436.414 20.412C436.984 20.412 437.45 20.538 437.814 20.79C438.188 21.042 438.463 21.3827 438.64 21.812C438.827 22.232 438.92 22.7033 438.92 23.226V28H437.744V23.562C437.744 23.1047 437.688 22.722 437.576 22.414C437.474 22.0967 437.306 21.8587 437.072 21.7C436.839 21.532 436.536 21.448 436.162 21.448C435.593 21.448 435.122 21.63 434.748 21.994C434.384 22.3487 434.202 22.8713 434.202 23.562V28H433.026ZM448.637 28.224C447.75 28.224 446.971 28.0187 446.299 27.608C445.627 27.188 445.104 26.5907 444.731 25.816C444.358 25.0413 444.171 24.1173 444.171 23.044C444.171 21.9707 444.358 21.0467 444.731 20.272C445.104 19.488 445.627 18.886 446.299 18.466C446.971 18.046 447.75 17.836 448.637 17.836C449.841 17.836 450.774 18.1393 451.437 18.746C452.1 19.3527 452.534 20.1787 452.739 21.224L451.465 21.308C451.325 20.5987 451.026 20.0387 450.569 19.628C450.112 19.2173 449.468 19.012 448.637 19.012C448.002 19.012 447.442 19.1753 446.957 19.502C446.481 19.8193 446.108 20.2813 445.837 20.888C445.566 21.4853 445.431 22.204 445.431 23.044C445.431 23.884 445.566 24.6027 445.837 25.2C446.108 25.7973 446.481 26.2547 446.957 26.572C447.442 26.8893 448.002 27.048 448.637 27.048C449.505 27.048 450.177 26.824 450.653 26.376C451.129 25.9187 451.428 25.3027 451.549 24.528L452.823 24.612C452.702 25.3307 452.464 25.9607 452.109 26.502C451.754 27.0433 451.283 27.468 450.695 27.776C450.116 28.0747 449.43 28.224 448.637 28.224ZM456.452 28.168C455.687 28.168 455.075 27.9907 454.618 27.636C454.17 27.2813 453.946 26.7867 453.946 26.152C453.946 25.5173 454.133 25.018 454.506 24.654C454.879 24.29 455.472 24.0333 456.284 23.884L458.916 23.394C458.916 22.7687 458.767 22.302 458.468 21.994C458.179 21.686 457.74 21.532 457.152 21.532C456.639 21.532 456.233 21.6487 455.934 21.882C455.635 22.106 455.43 22.4327 455.318 22.862L454.072 22.764C454.212 22.064 454.548 21.4993 455.08 21.07C455.621 20.6313 456.312 20.412 457.152 20.412C458.104 20.412 458.832 20.6827 459.336 21.224C459.84 21.756 460.092 22.4933 460.092 23.436V26.502C460.092 26.67 460.12 26.7913 460.176 26.866C460.241 26.9313 460.344 26.964 460.484 26.964H460.778V28C460.741 28.0093 460.68 28.014 460.596 28.014C460.512 28.0233 460.423 28.028 460.33 28.028C459.994 28.028 459.719 27.9767 459.504 27.874C459.299 27.762 459.149 27.594 459.056 27.37C458.963 27.1367 458.916 26.8333 458.916 26.46L459.056 26.488C458.991 26.8053 458.832 27.0947 458.58 27.356C458.328 27.608 458.015 27.8087 457.642 27.958C457.269 28.098 456.872 28.168 456.452 28.168ZM456.564 27.132C457.059 27.132 457.479 27.0387 457.824 26.852C458.179 26.656 458.449 26.3947 458.636 26.068C458.823 25.732 458.916 25.3587 458.916 24.948V24.416L456.508 24.864C456.004 24.9573 455.654 25.102 455.458 25.298C455.271 25.4847 455.178 25.732 455.178 26.04C455.178 26.3853 455.299 26.656 455.542 26.852C455.794 27.0387 456.135 27.132 456.564 27.132ZM463.48 28C463.051 28 462.701 27.888 462.43 27.664C462.16 27.44 462.024 27.0853 462.024 26.6V18.06H463.2V26.502C463.2 26.6513 463.238 26.768 463.312 26.852C463.396 26.9267 463.513 26.964 463.662 26.964H464.306V28H463.48ZM468.573 28.168C467.882 28.168 467.28 28.0093 466.767 27.692C466.263 27.3747 465.871 26.9267 465.591 26.348C465.311 25.76 465.171 25.074 465.171 24.29C465.171 23.506 465.311 22.8247 465.591 22.246C465.871 21.6673 466.263 21.2193 466.767 20.902C467.28 20.5753 467.882 20.412 468.573 20.412C469.142 20.412 469.646 20.5147 470.085 20.72C470.533 20.916 470.897 21.2053 471.177 21.588C471.457 21.9707 471.639 22.4373 471.723 22.988L470.491 23.072C470.407 22.5773 470.192 22.1993 469.847 21.938C469.501 21.6673 469.077 21.532 468.573 21.532C467.891 21.532 467.359 21.7793 466.977 22.274C466.594 22.7593 466.403 23.4313 466.403 24.29C466.403 25.1487 466.594 25.8253 466.977 26.32C467.359 26.8053 467.891 27.048 468.573 27.048C469.077 27.048 469.501 26.908 469.847 26.628C470.192 26.348 470.407 25.928 470.491 25.368L471.723 25.452C471.639 26.0027 471.457 26.4833 471.177 26.894C470.897 27.2953 470.533 27.608 470.085 27.832C469.646 28.056 469.142 28.168 468.573 28.168ZM475.617 28.168C474.879 28.168 474.287 27.9207 473.839 27.426C473.4 26.922 473.181 26.2313 473.181 25.354V20.58H474.357V25.032C474.357 25.7507 474.483 26.2827 474.735 26.628C474.996 26.964 475.393 27.132 475.925 27.132C476.513 27.132 476.975 26.9453 477.311 26.572C477.647 26.1893 477.815 25.6667 477.815 25.004V20.58H478.991V28H477.871V26.166L478.053 26.264C477.903 26.8707 477.619 27.342 477.199 27.678C476.779 28.0047 476.251 28.168 475.617 28.168ZM482.689 28C482.26 28 481.91 27.888 481.639 27.664C481.369 27.44 481.233 27.0853 481.233 26.6V18.06H482.409V26.502C482.409 26.6513 482.447 26.768 482.521 26.852C482.605 26.9267 482.722 26.964 482.871 26.964H483.515V28H482.689ZM486.968 28.168C486.202 28.168 485.591 27.9907 485.134 27.636C484.686 27.2813 484.462 26.7867 484.462 26.152C484.462 25.5173 484.648 25.018 485.022 24.654C485.395 24.29 485.988 24.0333 486.8 23.884L489.432 23.394C489.432 22.7687 489.282 22.302 488.984 21.994C488.694 21.686 488.256 21.532 487.668 21.532C487.154 21.532 486.748 21.6487 486.45 21.882C486.151 22.106 485.946 22.4327 485.834 22.862L484.588 22.764C484.728 22.064 485.064 21.4993 485.596 21.07C486.137 20.6313 486.828 20.412 487.668 20.412C488.62 20.412 489.348 20.6827 489.852 21.224C490.356 21.756 490.608 22.4933 490.608 23.436V26.502C490.608 26.67 490.636 26.7913 490.692 26.866C490.757 26.9313 490.86 26.964 491 26.964H491.294V28C491.256 28.0093 491.196 28.014 491.112 28.014C491.028 28.0233 490.939 28.028 490.846 28.028C490.51 28.028 490.234 27.9767 490.02 27.874C489.814 27.762 489.665 27.594 489.572 27.37C489.478 27.1367 489.432 26.8333 489.432 26.46L489.572 26.488C489.506 26.8053 489.348 27.0947 489.096 27.356C488.844 27.608 488.531 27.8087 488.158 27.958C487.784 28.098 487.388 28.168 486.968 28.168ZM487.08 27.132C487.574 27.132 487.994 27.0387 488.34 26.852C488.694 26.656 488.965 26.3947 489.152 26.068C489.338 25.732 489.432 25.3587 489.432 24.948V24.416L487.024 24.864C486.52 24.9573 486.17 25.102 485.974 25.298C485.787 25.4847 485.694 25.732 485.694 26.04C485.694 26.3853 485.815 26.656 486.058 26.852C486.31 27.0387 486.65 27.132 487.08 27.132ZM494.969 28C494.297 28 493.797 27.846 493.471 27.538C493.153 27.23 492.995 26.7493 492.995 26.096V18.844H494.171V26.068C494.171 26.404 494.245 26.6373 494.395 26.768C494.544 26.8987 494.773 26.964 495.081 26.964H496.145V28H494.969ZM491.903 21.616V20.58H496.145V21.616H491.903ZM500.414 28.168C499.733 28.168 499.136 28.0093 498.622 27.692C498.109 27.3747 497.712 26.9267 497.432 26.348C497.152 25.76 497.012 25.074 497.012 24.29C497.012 23.4967 497.152 22.8107 497.432 22.232C497.712 21.6533 498.109 21.2053 498.622 20.888C499.136 20.5707 499.733 20.412 500.414 20.412C501.096 20.412 501.688 20.5707 502.192 20.888C502.706 21.2053 503.102 21.6533 503.382 22.232C503.662 22.8107 503.802 23.4967 503.802 24.29C503.802 25.074 503.662 25.76 503.382 26.348C503.102 26.9267 502.706 27.3747 502.192 27.692C501.688 28.0093 501.096 28.168 500.414 28.168ZM500.414 27.048C501.096 27.048 501.623 26.8053 501.996 26.32C502.379 25.8253 502.57 25.1487 502.57 24.29C502.57 23.4313 502.379 22.7593 501.996 22.274C501.623 21.7793 501.096 21.532 500.414 21.532C499.733 21.532 499.201 21.7793 498.818 22.274C498.436 22.7593 498.244 23.4313 498.244 24.29C498.244 25.1487 498.436 25.8253 498.818 26.32C499.201 26.8053 499.733 27.048 500.414 27.048ZM505.405 28V20.58H506.441L506.497 22.456L506.385 22.414C506.478 21.7793 506.679 21.3173 506.987 21.028C507.304 20.7293 507.724 20.58 508.247 20.58H508.975V21.7H508.261C507.888 21.7 507.575 21.77 507.323 21.91C507.08 22.0407 506.894 22.2413 506.763 22.512C506.642 22.7733 506.581 23.1093 506.581 23.52V28H505.405Z" fill="#171717"/>
</g>
<g filter="url(#filter3_dd_2024_1681)">
<rect x="37" y="49" width="237" height="36" rx="10" fill="white"/>
<path d="M51.5 59.5V74.5H66.5M54.8333 67V71.1667H64.8333V63.6667L60.6667 67.8333L57.3333 64.5L54.8333 67Z" stroke="#12B76A" stroke-width="1.5" stroke-linecap="round" stroke-linejoin="round"/>
<path d="M76.288 72V62.06H82.532V63.236H76.89L77.492 62.62V67.184L76.89 66.568H82.28V67.716H76.89L77.492 67.1V72H76.288ZM84.1044 72V64.58H85.2804V72H84.1044ZM84.0764 63.418V62.046H85.3084V63.418H84.0764ZM87.6591 72V64.58H88.7371L88.7791 66.47L88.6391 66.344C88.7324 65.9053 88.8957 65.546 89.1291 65.266C89.3624 64.9767 89.6424 64.762 89.9691 64.622C90.3051 64.482 90.6644 64.412 91.0471 64.412C91.6164 64.412 92.0831 64.538 92.4471 64.79C92.8204 65.042 93.0957 65.3827 93.2731 65.812C93.4597 66.232 93.5531 66.7033 93.5531 67.226V72H92.3771V67.562C92.3771 67.1047 92.3211 66.722 92.2091 66.414C92.1064 66.0967 91.9384 65.8587 91.7051 65.7C91.4717 65.532 91.1684 65.448 90.7951 65.448C90.2257 65.448 89.7544 65.63 89.3811 65.994C89.0171 66.3487 88.8351 66.8713 88.8351 67.562V72H87.6591ZM97.6591 72.168C96.8938 72.168 96.2824 71.9907 95.8251 71.636C95.3771 71.2813 95.1531 70.7867 95.1531 70.152C95.1531 69.5173 95.3398 69.018 95.7131 68.654C96.0864 68.29 96.6791 68.0333 97.4911 67.884L100.123 67.394C100.123 66.7687 99.9738 66.302 99.6751 65.994C99.3858 65.686 98.9471 65.532 98.3591 65.532C97.8458 65.532 97.4398 65.6487 97.1411 65.882C96.8424 66.106 96.6371 66.4327 96.5251 66.862L95.2791 66.764C95.4191 66.064 95.7551 65.4993 96.2871 65.07C96.8284 64.6313 97.5191 64.412 98.3591 64.412C99.3111 64.412 100.039 64.6827 100.543 65.224C101.047 65.756 101.299 66.4933 101.299 67.436V70.502C101.299 70.67 101.327 70.7913 101.383 70.866C101.448 70.9313 101.551 70.964 101.691 70.964H101.985V72C101.948 72.0093 101.887 72.014 101.803 72.014C101.719 72.0233 101.63 72.028 101.537 72.028C101.201 72.028 100.926 71.9767 100.711 71.874C100.506 71.762 100.356 71.594 100.263 71.37C100.17 71.1367 100.123 70.8333 100.123 70.46L100.263 70.488C100.198 70.8053 100.039 71.0947 99.7871 71.356C99.5351 71.608 99.2224 71.8087 98.8491 71.958C98.4758 72.098 98.0791 72.168 97.6591 72.168ZM97.7711 71.132C98.2658 71.132 98.6858 71.0387 99.0311 70.852C99.3858 70.656 99.6564 70.3947 99.8431 70.068C100.03 69.732 100.123 69.3587 100.123 68.948V68.416L97.7151 68.864C97.2111 68.9573 96.8611 69.102 96.6651 69.298C96.4784 69.4847 96.3851 69.732 96.3851 70.04C96.3851 70.3853 96.5064 70.656 96.7491 70.852C97.0011 71.0387 97.3418 71.132 97.7711 71.132ZM103.313 72V64.58H104.391L104.433 66.47L104.293 66.344C104.387 65.9053 104.55 65.546 104.783 65.266C105.017 64.9767 105.297 64.762 105.623 64.622C105.959 64.482 106.319 64.412 106.701 64.412C107.271 64.412 107.737 64.538 108.101 64.79C108.475 65.042 108.75 65.3827 108.927 65.812C109.114 66.232 109.207 66.7033 109.207 67.226V72H108.031V67.562C108.031 67.1047 107.975 66.722 107.863 66.414C107.761 66.0967 107.593 65.8587 107.359 65.7C107.126 65.532 106.823 65.448 106.449 65.448C105.88 65.448 105.409 65.63 105.035 65.994C104.671 66.3487 104.489 66.8713 104.489 67.562V72H103.313ZM114.182 72.168C113.491 72.168 112.889 72.0093 112.376 71.692C111.872 71.3747 111.48 70.9267 111.2 70.348C110.92 69.76 110.78 69.074 110.78 68.29C110.78 67.506 110.92 66.8247 111.2 66.246C111.48 65.6673 111.872 65.2193 112.376 64.902C112.889 64.5753 113.491 64.412 114.182 64.412C114.751 64.412 115.255 64.5147 115.694 64.72C116.142 64.916 116.506 65.2053 116.786 65.588C117.066 65.9707 117.248 66.4373 117.332 66.988L116.1 67.072C116.016 66.5773 115.801 66.1993 115.456 65.938C115.111 65.6673 114.686 65.532 114.182 65.532C113.501 65.532 112.969 65.7793 112.586 66.274C112.203 66.7593 112.012 67.4313 112.012 68.29C112.012 69.1487 112.203 69.8253 112.586 70.32C112.969 70.8053 113.501 71.048 114.182 71.048C114.686 71.048 115.111 70.908 115.456 70.628C115.801 70.348 116.016 69.928 116.1 69.368L117.332 69.452C117.248 70.0027 117.066 70.4833 116.786 70.894C116.506 71.2953 116.142 71.608 115.694 71.832C115.255 72.056 114.751 72.168 114.182 72.168ZM118.79 72V64.58H119.966V72H118.79ZM118.762 63.418V62.046H119.994V63.418H118.762ZM124.073 72.168C123.308 72.168 122.697 71.9907 122.239 71.636C121.791 71.2813 121.567 70.7867 121.567 70.152C121.567 69.5173 121.754 69.018 122.127 68.654C122.501 68.29 123.093 68.0333 123.905 67.884L126.537 67.394C126.537 66.7687 126.388 66.302 126.089 65.994C125.8 65.686 125.361 65.532 124.773 65.532C124.26 65.532 123.854 65.6487 123.555 65.882C123.257 66.106 123.051 66.4327 122.939 66.862L121.693 66.764C121.833 66.064 122.169 65.4993 122.701 65.07C123.243 64.6313 123.933 64.412 124.773 64.412C125.725 64.412 126.453 64.6827 126.957 65.224C127.461 65.756 127.713 66.4933 127.713 67.436V70.502C127.713 70.67 127.741 70.7913 127.797 70.866C127.863 70.9313 127.965 70.964 128.105 70.964H128.399V72C128.362 72.0093 128.301 72.014 128.217 72.014C128.133 72.0233 128.045 72.028 127.951 72.028C127.615 72.028 127.34 71.9767 127.125 71.874C126.92 71.762 126.771 71.594 126.677 71.37C126.584 71.1367 126.537 70.8333 126.537 70.46L126.677 70.488C126.612 70.8053 126.453 71.0947 126.201 71.356C125.949 71.608 125.637 71.8087 125.263 71.958C124.89 72.098 124.493 72.168 124.073 72.168ZM124.185 71.132C124.68 71.132 125.1 71.0387 125.445 70.852C125.8 70.656 126.071 70.3947 126.257 70.068C126.444 69.732 126.537 69.3587 126.537 68.948V68.416L124.129 68.864C123.625 68.9573 123.275 69.102 123.079 69.298C122.893 69.4847 122.799 69.732 122.799 70.04C122.799 70.3853 122.921 70.656 123.163 70.852C123.415 71.0387 123.756 71.132 124.185 71.132ZM131.101 72C130.672 72 130.322 71.888 130.051 71.664C129.781 71.44 129.645 71.0853 129.645 70.6V62.06H130.821V70.502C130.821 70.6513 130.859 70.768 130.933 70.852C131.017 70.9267 131.134 70.964 131.283 70.964H131.927V72H131.101ZM137.046 72V62.06H143.29V63.236H137.648L138.25 62.62V67.184L137.648 66.568H143.038V67.716H137.648L138.25 67.1V72H137.046ZM144.712 72V64.58H145.748L145.804 66.456L145.692 66.414C145.785 65.7793 145.986 65.3173 146.294 65.028C146.611 64.7293 147.031 64.58 147.554 64.58H148.282V65.7H147.568C147.194 65.7 146.882 65.77 146.63 65.91C146.387 66.0407 146.2 66.2413 146.07 66.512C145.948 66.7733 145.888 67.1093 145.888 67.52V72H144.712ZM152.354 72.168C151.654 72.168 151.047 72.0093 150.534 71.692C150.03 71.3747 149.638 70.9267 149.358 70.348C149.087 69.76 148.952 69.074 148.952 68.29C148.952 67.506 149.087 66.8247 149.358 66.246C149.638 65.6673 150.025 65.2193 150.52 64.902C151.024 64.5753 151.617 64.412 152.298 64.412C152.942 64.412 153.511 64.566 154.006 64.874C154.501 65.1727 154.883 65.6113 155.154 66.19C155.434 66.7687 155.574 67.4733 155.574 68.304V68.654H150.184C150.231 69.4473 150.441 70.0447 150.814 70.446C151.197 70.8473 151.71 71.048 152.354 71.048C152.839 71.048 153.236 70.936 153.544 70.712C153.861 70.4787 154.081 70.1753 154.202 69.802L155.462 69.9C155.266 70.5627 154.893 71.1087 154.342 71.538C153.801 71.958 153.138 72.168 152.354 72.168ZM150.184 67.618H154.286C154.23 66.8993 154.02 66.372 153.656 66.036C153.301 65.7 152.849 65.532 152.298 65.532C151.729 65.532 151.257 65.7093 150.884 66.064C150.52 66.4093 150.287 66.9273 150.184 67.618ZM160.065 72.168C159.365 72.168 158.758 72.0093 158.245 71.692C157.741 71.3747 157.349 70.9267 157.069 70.348C156.798 69.76 156.663 69.074 156.663 68.29C156.663 67.506 156.798 66.8247 157.069 66.246C157.349 65.6673 157.736 65.2193 158.231 64.902C158.735 64.5753 159.328 64.412 160.009 64.412C160.653 64.412 161.222 64.566 161.717 64.874C162.212 65.1727 162.594 65.6113 162.865 66.19C163.145 66.7687 163.285 67.4733 163.285 68.304V68.654H157.895C157.942 69.4473 158.152 70.0447 158.525 70.446C158.908 70.8473 159.421 71.048 160.065 71.048C160.55 71.048 160.947 70.936 161.255 70.712C161.572 70.4787 161.792 70.1753 161.913 69.802L163.173 69.9C162.977 70.5627 162.604 71.1087 162.053 71.538C161.512 71.958 160.849 72.168 160.065 72.168ZM157.895 67.618H161.997C161.941 66.8993 161.731 66.372 161.367 66.036C161.012 65.7 160.56 65.532 160.009 65.532C159.44 65.532 158.968 65.7093 158.595 66.064C158.231 66.4093 157.998 66.9273 157.895 67.618ZM167.51 72.168C166.866 72.168 166.306 72.0093 165.83 71.692C165.363 71.3747 165.004 70.9267 164.752 70.348C164.5 69.7693 164.374 69.0833 164.374 68.29C164.374 67.4967 164.5 66.8107 164.752 66.232C165.004 65.6533 165.363 65.2053 165.83 64.888C166.306 64.5707 166.866 64.412 167.51 64.412C168.004 64.412 168.457 64.5193 168.868 64.734C169.278 64.9393 169.586 65.2333 169.792 65.616V62.06H170.968V72H169.904L169.862 70.88C169.656 71.2813 169.344 71.5987 168.924 71.832C168.504 72.056 168.032 72.168 167.51 72.168ZM167.748 71.048C168.186 71.048 168.555 70.936 168.854 70.712C169.162 70.488 169.395 70.1707 169.554 69.76C169.712 69.34 169.792 68.85 169.792 68.29C169.792 67.7113 169.712 67.2167 169.554 66.806C169.395 66.3953 169.162 66.0827 168.854 65.868C168.555 65.644 168.186 65.532 167.748 65.532C167.094 65.532 166.572 65.7793 166.18 66.274C165.797 66.7593 165.606 67.4313 165.606 68.29C165.606 69.1393 165.797 69.8113 166.18 70.306C166.572 70.8007 167.094 71.048 167.748 71.048ZM175.965 72.168C175.284 72.168 174.687 72.0093 174.173 71.692C173.66 71.3747 173.263 70.9267 172.983 70.348C172.703 69.76 172.563 69.074 172.563 68.29C172.563 67.4967 172.703 66.8107 172.983 66.232C173.263 65.6533 173.66 65.2053 174.173 64.888C174.687 64.5707 175.284 64.412 175.965 64.412C176.647 64.412 177.239 64.5707 177.743 64.888C178.257 65.2053 178.653 65.6533 178.933 66.232C179.213 66.8107 179.353 67.4967 179.353 68.29C179.353 69.074 179.213 69.76 178.933 70.348C178.653 70.9267 178.257 71.3747 177.743 71.692C177.239 72.0093 176.647 72.168 175.965 72.168ZM175.965 71.048C176.647 71.048 177.174 70.8053 177.547 70.32C177.93 69.8253 178.121 69.1487 178.121 68.29C178.121 67.4313 177.93 66.7593 177.547 66.274C177.174 65.7793 176.647 65.532 175.965 65.532C175.284 65.532 174.752 65.7793 174.369 66.274C173.987 66.7593 173.795 67.4313 173.795 68.29C173.795 69.1487 173.987 69.8253 174.369 70.32C174.752 70.8053 175.284 71.048 175.965 71.048ZM180.956 72V64.58H182.034L182.076 66.456L181.908 66.4C181.992 65.9893 182.137 65.6393 182.342 65.35C182.557 65.0513 182.818 64.8227 183.126 64.664C183.434 64.496 183.775 64.412 184.148 64.412C184.792 64.412 185.315 64.5893 185.716 64.944C186.127 65.2987 186.383 65.7933 186.486 66.428L186.262 66.414C186.337 65.9847 186.472 65.6253 186.668 65.336C186.873 65.0373 187.135 64.8087 187.452 64.65C187.769 64.4913 188.133 64.412 188.544 64.412C189.076 64.412 189.524 64.524 189.888 64.748C190.252 64.9627 190.527 65.28 190.714 65.7C190.901 66.12 190.994 66.6287 190.994 67.226V72H189.818V67.478C189.818 66.806 189.687 66.302 189.426 65.966C189.165 65.6207 188.777 65.448 188.264 65.448C187.919 65.448 187.615 65.532 187.354 65.7C187.102 65.868 186.906 66.1107 186.766 66.428C186.626 66.736 186.556 67.114 186.556 67.562V72H185.38V67.562C185.38 66.8993 185.263 66.3813 185.03 66.008C184.797 65.6347 184.405 65.448 183.854 65.448C183.509 65.448 183.205 65.532 182.944 65.7C182.692 65.868 182.491 66.1107 182.342 66.428C182.202 66.7453 182.132 67.1233 182.132 67.562V72H180.956ZM200.709 72.224C199.823 72.224 199.043 72.0187 198.371 71.608C197.699 71.188 197.177 70.5907 196.803 69.816C196.43 69.0413 196.243 68.1173 196.243 67.044C196.243 65.9707 196.43 65.0467 196.803 64.272C197.177 63.488 197.699 62.886 198.371 62.466C199.043 62.046 199.823 61.836 200.709 61.836C201.913 61.836 202.847 62.1393 203.509 62.746C204.172 63.3527 204.606 64.1787 204.811 65.224L203.537 65.308C203.397 64.5987 203.099 64.0387 202.641 63.628C202.184 63.2173 201.54 63.012 200.709 63.012C200.075 63.012 199.515 63.1753 199.029 63.502C198.553 63.8193 198.18 64.2813 197.909 64.888C197.639 65.4853 197.503 66.204 197.503 67.044C197.503 67.884 197.639 68.6027 197.909 69.2C198.18 69.7973 198.553 70.2547 199.029 70.572C199.515 70.8893 200.075 71.048 200.709 71.048C201.577 71.048 202.249 70.824 202.725 70.376C203.201 69.9187 203.5 69.3027 203.621 68.528L204.895 68.612C204.774 69.3307 204.536 69.9607 204.181 70.502C203.827 71.0433 203.355 71.468 202.767 71.776C202.189 72.0747 201.503 72.224 200.709 72.224ZM208.524 72.168C207.759 72.168 207.148 71.9907 206.69 71.636C206.242 71.2813 206.018 70.7867 206.018 70.152C206.018 69.5173 206.205 69.018 206.578 68.654C206.952 68.29 207.544 68.0333 208.356 67.884L210.988 67.394C210.988 66.7687 210.839 66.302 210.54 65.994C210.251 65.686 209.812 65.532 209.224 65.532C208.711 65.532 208.305 65.6487 208.006 65.882C207.708 66.106 207.502 66.4327 207.39 66.862L206.144 66.764C206.284 66.064 206.62 65.4993 207.152 65.07C207.694 64.6313 208.384 64.412 209.224 64.412C210.176 64.412 210.904 64.6827 211.408 65.224C211.912 65.756 212.164 66.4933 212.164 67.436V70.502C212.164 70.67 212.192 70.7913 212.248 70.866C212.314 70.9313 212.416 70.964 212.556 70.964H212.85V72C212.813 72.0093 212.752 72.014 212.668 72.014C212.584 72.0233 212.496 72.028 212.402 72.028C212.066 72.028 211.791 71.9767 211.576 71.874C211.371 71.762 211.222 71.594 211.128 71.37C211.035 71.1367 210.988 70.8333 210.988 70.46L211.128 70.488C211.063 70.8053 210.904 71.0947 210.652 71.356C210.4 71.608 210.088 71.8087 209.714 71.958C209.341 72.098 208.944 72.168 208.524 72.168ZM208.636 71.132C209.131 71.132 209.551 71.0387 209.896 70.852C210.251 70.656 210.522 70.3947 210.708 70.068C210.895 69.732 210.988 69.3587 210.988 68.948V68.416L208.58 68.864C208.076 68.9573 207.726 69.102 207.53 69.298C207.344 69.4847 207.25 69.732 207.25 70.04C207.25 70.3853 207.372 70.656 207.614 70.852C207.866 71.0387 208.207 71.132 208.636 71.132ZM215.553 72C215.123 72 214.773 71.888 214.503 71.664C214.232 71.44 214.097 71.0853 214.097 70.6V62.06H215.273V70.502C215.273 70.6513 215.31 70.768 215.385 70.852C215.469 70.9267 215.585 70.964 215.735 70.964H216.379V72H215.553ZM220.645 72.168C219.954 72.168 219.352 72.0093 218.839 71.692C218.335 71.3747 217.943 70.9267 217.663 70.348C217.383 69.76 217.243 69.074 217.243 68.29C217.243 67.506 217.383 66.8247 217.663 66.246C217.943 65.6673 218.335 65.2193 218.839 64.902C219.352 64.5753 219.954 64.412 220.645 64.412C221.214 64.412 221.718 64.5147 222.157 64.72C222.605 64.916 222.969 65.2053 223.249 65.588C223.529 65.9707 223.711 66.4373 223.795 66.988L222.563 67.072C222.479 66.5773 222.264 66.1993 221.919 65.938C221.574 65.6673 221.149 65.532 220.645 65.532C219.964 65.532 219.432 65.7793 219.049 66.274C218.666 66.7593 218.475 67.4313 218.475 68.29C218.475 69.1487 218.666 69.8253 219.049 70.32C219.432 70.8053 219.964 71.048 220.645 71.048C221.149 71.048 221.574 70.908 221.919 70.628C222.264 70.348 222.479 69.928 222.563 69.368L223.795 69.452C223.711 70.0027 223.529 70.4833 223.249 70.894C222.969 71.2953 222.605 71.608 222.157 71.832C221.718 72.056 221.214 72.168 220.645 72.168ZM227.689 72.168C226.951 72.168 226.359 71.9207 225.911 71.426C225.472 70.922 225.253 70.2313 225.253 69.354V64.58H226.429V69.032C226.429 69.7507 226.555 70.2827 226.807 70.628C227.068 70.964 227.465 71.132 227.997 71.132C228.585 71.132 229.047 70.9453 229.383 70.572C229.719 70.1893 229.887 69.6667 229.887 69.004V64.58H231.063V72H229.943V70.166L230.125 70.264C229.975 70.8707 229.691 71.342 229.271 71.678C228.851 72.0047 228.323 72.168 227.689 72.168ZM234.762 72C234.332 72 233.982 71.888 233.712 71.664C233.441 71.44 233.306 71.0853 233.306 70.6V62.06H234.482V70.502C234.482 70.6513 234.519 70.768 234.594 70.852C234.678 70.9267 234.794 70.964 234.944 70.964H235.588V72H234.762ZM239.04 72.168C238.275 72.168 237.663 71.9907 237.206 71.636C236.758 71.2813 236.534 70.7867 236.534 70.152C236.534 69.5173 236.721 69.018 237.094 68.654C237.467 68.29 238.06 68.0333 238.872 67.884L241.504 67.394C241.504 66.7687 241.355 66.302 241.056 65.994C240.767 65.686 240.328 65.532 239.74 65.532C239.227 65.532 238.821 65.6487 238.522 65.882C238.223 66.106 238.018 66.4327 237.906 66.862L236.66 66.764C236.8 66.064 237.136 65.4993 237.668 65.07C238.209 64.6313 238.9 64.412 239.74 64.412C240.692 64.412 241.42 64.6827 241.924 65.224C242.428 65.756 242.68 66.4933 242.68 67.436V70.502C242.68 70.67 242.708 70.7913 242.764 70.866C242.829 70.9313 242.932 70.964 243.072 70.964H243.366V72C243.329 72.0093 243.268 72.014 243.184 72.014C243.1 72.0233 243.011 72.028 242.918 72.028C242.582 72.028 242.307 71.9767 242.092 71.874C241.887 71.762 241.737 71.594 241.644 71.37C241.551 71.1367 241.504 70.8333 241.504 70.46L241.644 70.488C241.579 70.8053 241.42 71.0947 241.168 71.356C240.916 71.608 240.603 71.8087 240.23 71.958C239.857 72.098 239.46 72.168 239.04 72.168ZM239.152 71.132C239.647 71.132 240.067 71.0387 240.412 70.852C240.767 70.656 241.037 70.3947 241.224 70.068C241.411 69.732 241.504 69.3587 241.504 68.948V68.416L239.096 68.864C238.592 68.9573 238.242 69.102 238.046 69.298C237.859 69.4847 237.766 69.732 237.766 70.04C237.766 70.3853 237.887 70.656 238.13 70.852C238.382 71.0387 238.723 71.132 239.152 71.132ZM247.041 72C246.369 72 245.87 71.846 245.543 71.538C245.226 71.23 245.067 70.7493 245.067 70.096V62.844H246.243V70.068C246.243 70.404 246.318 70.6373 246.467 70.768C246.616 70.8987 246.845 70.964 247.153 70.964H248.217V72H247.041ZM243.975 65.616V64.58H248.217V65.616H243.975ZM252.487 72.168C251.805 72.168 251.208 72.0093 250.695 71.692C250.181 71.3747 249.785 70.9267 249.505 70.348C249.225 69.76 249.085 69.074 249.085 68.29C249.085 67.4967 249.225 66.8107 249.505 66.232C249.785 65.6533 250.181 65.2053 250.695 64.888C251.208 64.5707 251.805 64.412 252.487 64.412C253.168 64.412 253.761 64.5707 254.265 64.888C254.778 65.2053 255.175 65.6533 255.455 66.232C255.735 66.8107 255.875 67.4967 255.875 68.29C255.875 69.074 255.735 69.76 255.455 70.348C255.175 70.9267 254.778 71.3747 254.265 71.692C253.761 72.0093 253.168 72.168 252.487 72.168ZM252.487 71.048C253.168 71.048 253.695 70.8053 254.069 70.32C254.451 69.8253 254.643 69.1487 254.643 68.29C254.643 67.4313 254.451 66.7593 254.069 66.274C253.695 65.7793 253.168 65.532 252.487 65.532C251.805 65.532 251.273 65.7793 250.891 66.274C250.508 66.7593 250.317 67.4313 250.317 68.29C250.317 69.1487 250.508 69.8253 250.891 70.32C251.273 70.8053 251.805 71.048 252.487 71.048ZM257.477 72V64.58H258.513L258.569 66.456L258.457 66.414C258.551 65.7793 258.751 65.3173 259.059 65.028C259.377 64.7293 259.797 64.58 260.319 64.58H261.047V65.7H260.333C259.96 65.7 259.647 65.77 259.395 65.91C259.153 66.0407 258.966 66.2413 258.835 66.512C258.714 66.7733 258.653 67.1093 258.653 67.52V72H257.477Z" fill="#171717"/>
</g>
<g filter="url(#filter4_dd_2024_1681)">
<rect x="282" y="49" width="243" height="36" rx="10" fill="white"/>
<path d="M296.5 59.5V74.5H311.5M309.833 64.5L305.667 68.6667L302.333 65.3333L299.833 67.8333" stroke="#06AED4" stroke-width="1.5" stroke-linecap="round" stroke-linejoin="round"/>
<path d="M325.096 72.224C324.209 72.224 323.43 72.0187 322.758 71.608C322.086 71.188 321.563 70.5907 321.19 69.816C320.817 69.0413 320.63 68.1173 320.63 67.044C320.63 65.9707 320.817 65.0467 321.19 64.272C321.563 63.488 322.086 62.886 322.758 62.466C323.43 62.046 324.209 61.836 325.096 61.836C326.3 61.836 327.233 62.1393 327.896 62.746C328.559 63.3527 328.993 64.1787 329.198 65.224L327.924 65.308C327.784 64.5987 327.485 64.0387 327.028 63.628C326.571 63.2173 325.927 63.012 325.096 63.012C324.461 63.012 323.901 63.1753 323.416 63.502C322.94 63.8193 322.567 64.2813 322.296 64.888C322.025 65.4853 321.89 66.204 321.89 67.044C321.89 67.884 322.025 68.6027 322.296 69.2C322.567 69.7973 322.94 70.2547 323.416 70.572C323.901 70.8893 324.461 71.048 325.096 71.048C325.964 71.048 326.636 70.824 327.112 70.376C327.588 69.9187 327.887 69.3027 328.008 68.528L329.282 68.612C329.161 69.3307 328.923 69.9607 328.568 70.502C328.213 71.0433 327.742 71.468 327.154 71.776C326.575 72.0747 325.889 72.224 325.096 72.224ZM333.752 72.168C333.071 72.168 332.474 72.0093 331.96 71.692C331.447 71.3747 331.05 70.9267 330.77 70.348C330.49 69.76 330.35 69.074 330.35 68.29C330.35 67.4967 330.49 66.8107 330.77 66.232C331.05 65.6533 331.447 65.2053 331.96 64.888C332.474 64.5707 333.071 64.412 333.752 64.412C334.434 64.412 335.026 64.5707 335.53 64.888C336.044 65.2053 336.44 65.6533 336.72 66.232C337 66.8107 337.14 67.4967 337.14 68.29C337.14 69.074 337 69.76 336.72 70.348C336.44 70.9267 336.044 71.3747 335.53 71.692C335.026 72.0093 334.434 72.168 333.752 72.168ZM333.752 71.048C334.434 71.048 334.961 70.8053 335.334 70.32C335.717 69.8253 335.908 69.1487 335.908 68.29C335.908 67.4313 335.717 66.7593 335.334 66.274C334.961 65.7793 334.434 65.532 333.752 65.532C333.071 65.532 332.539 65.7793 332.156 66.274C331.774 66.7593 331.582 67.4313 331.582 68.29C331.582 69.1487 331.774 69.8253 332.156 70.32C332.539 70.8053 333.071 71.048 333.752 71.048ZM338.743 72V64.58H339.821L339.863 66.456L339.695 66.4C339.779 65.9893 339.924 65.6393 340.129 65.35C340.344 65.0513 340.605 64.8227 340.913 64.664C341.221 64.496 341.562 64.412 341.935 64.412C342.579 64.412 343.102 64.5893 343.503 64.944C343.914 65.2987 344.17 65.7933 344.273 66.428L344.049 66.414C344.124 65.9847 344.259 65.6253 344.455 65.336C344.66 65.0373 344.922 64.8087 345.239 64.65C345.556 64.4913 345.92 64.412 346.331 64.412C346.863 64.412 347.311 64.524 347.675 64.748C348.039 64.9627 348.314 65.28 348.501 65.7C348.688 66.12 348.781 66.6287 348.781 67.226V72H347.605V67.478C347.605 66.806 347.474 66.302 347.213 65.966C346.952 65.6207 346.564 65.448 346.051 65.448C345.706 65.448 345.402 65.532 345.141 65.7C344.889 65.868 344.693 66.1107 344.553 66.428C344.413 66.736 344.343 67.114 344.343 67.562V72H343.167V67.562C343.167 66.8993 343.05 66.3813 342.817 66.008C342.584 65.6347 342.192 65.448 341.641 65.448C341.296 65.448 340.992 65.532 340.731 65.7C340.479 65.868 340.278 66.1107 340.129 66.428C339.989 66.7453 339.919 67.1233 339.919 67.562V72H338.743ZM350.747 74.1V64.58H351.839L351.867 66.176L351.699 66.092C351.886 65.5413 352.194 65.126 352.623 64.846C353.062 64.5567 353.566 64.412 354.135 64.412C354.872 64.412 355.474 64.594 355.941 64.958C356.417 65.322 356.767 65.798 356.991 66.386C357.224 66.974 357.341 67.6087 357.341 68.29C357.341 68.9713 357.224 69.606 356.991 70.194C356.767 70.782 356.417 71.258 355.941 71.622C355.474 71.986 354.872 72.168 354.135 72.168C353.752 72.168 353.393 72.1027 353.057 71.972C352.73 71.8413 352.45 71.6593 352.217 71.426C351.993 71.1927 351.839 70.9173 351.755 70.6L351.923 70.404V74.1H350.747ZM354.023 71.048C354.667 71.048 355.176 70.8053 355.549 70.32C355.922 69.8347 356.109 69.158 356.109 68.29C356.109 67.422 355.922 66.7453 355.549 66.26C355.176 65.7747 354.667 65.532 354.023 65.532C353.594 65.532 353.22 65.6347 352.903 65.84C352.595 66.0453 352.352 66.3533 352.175 66.764C352.007 67.1747 351.923 67.6833 351.923 68.29C351.923 68.8967 352.007 69.4053 352.175 69.816C352.343 70.2267 352.586 70.5347 352.903 70.74C353.22 70.9453 353.594 71.048 354.023 71.048ZM361.834 72.168C361.153 72.168 360.556 72.0093 360.042 71.692C359.529 71.3747 359.132 70.9267 358.852 70.348C358.572 69.76 358.432 69.074 358.432 68.29C358.432 67.4967 358.572 66.8107 358.852 66.232C359.132 65.6533 359.529 65.2053 360.042 64.888C360.556 64.5707 361.153 64.412 361.834 64.412C362.516 64.412 363.108 64.5707 363.612 64.888C364.126 65.2053 364.522 65.6533 364.802 66.232C365.082 66.8107 365.222 67.4967 365.222 68.29C365.222 69.074 365.082 69.76 364.802 70.348C364.522 70.9267 364.126 71.3747 363.612 71.692C363.108 72.0093 362.516 72.168 361.834 72.168ZM361.834 71.048C362.516 71.048 363.043 70.8053 363.416 70.32C363.799 69.8253 363.99 69.1487 363.99 68.29C363.99 67.4313 363.799 66.7593 363.416 66.274C363.043 65.7793 362.516 65.532 361.834 65.532C361.153 65.532 360.621 65.7793 360.238 66.274C359.856 66.7593 359.664 67.4313 359.664 68.29C359.664 69.1487 359.856 69.8253 360.238 70.32C360.621 70.8053 361.153 71.048 361.834 71.048ZM369.261 72.168C368.524 72.168 367.931 71.9207 367.483 71.426C367.044 70.922 366.825 70.2313 366.825 69.354V64.58H368.001V69.032C368.001 69.7507 368.127 70.2827 368.379 70.628C368.64 70.964 369.037 71.132 369.569 71.132C370.157 71.132 370.619 70.9453 370.955 70.572C371.291 70.1893 371.459 69.6667 371.459 69.004V64.58H372.635V72H371.515V70.166L371.697 70.264C371.548 70.8707 371.263 71.342 370.843 71.678C370.423 72.0047 369.896 72.168 369.261 72.168ZM374.878 72V64.58H375.956L375.998 66.47L375.858 66.344C375.951 65.9053 376.114 65.546 376.348 65.266C376.581 64.9767 376.861 64.762 377.188 64.622C377.524 64.482 377.883 64.412 378.266 64.412C378.835 64.412 379.302 64.538 379.666 64.79C380.039 65.042 380.314 65.3827 380.492 65.812C380.678 66.232 380.772 66.7033 380.772 67.226V72H379.596V67.562C379.596 67.1047 379.54 66.722 379.428 66.414C379.325 66.0967 379.157 65.8587 378.924 65.7C378.69 65.532 378.387 65.448 378.014 65.448C377.444 65.448 376.973 65.63 376.6 65.994C376.236 66.3487 376.054 66.8713 376.054 67.562V72H374.878ZM385.481 72.168C384.837 72.168 384.277 72.0093 383.801 71.692C383.334 71.3747 382.975 70.9267 382.723 70.348C382.471 69.7693 382.345 69.0833 382.345 68.29C382.345 67.4967 382.471 66.8107 382.723 66.232C382.975 65.6533 383.334 65.2053 383.801 64.888C384.277 64.5707 384.837 64.412 385.481 64.412C385.975 64.412 386.428 64.5193 386.839 64.734C387.249 64.9393 387.557 65.2333 387.763 65.616V62.06H388.939V72H387.875L387.833 70.88C387.627 71.2813 387.315 71.5987 386.895 71.832C386.475 72.056 386.003 72.168 385.481 72.168ZM385.719 71.048C386.157 71.048 386.526 70.936 386.825 70.712C387.133 70.488 387.366 70.1707 387.525 69.76C387.683 69.34 387.763 68.85 387.763 68.29C387.763 67.7113 387.683 67.2167 387.525 66.806C387.366 66.3953 387.133 66.0827 386.825 65.868C386.526 65.644 386.157 65.532 385.719 65.532C385.065 65.532 384.543 65.7793 384.151 66.274C383.768 66.7593 383.577 67.4313 383.577 68.29C383.577 69.1393 383.768 69.8113 384.151 70.306C384.543 70.8007 385.065 71.048 385.719 71.048ZM394.843 72V62.06H396.047V72H394.843ZM398.585 72V64.58H399.663L399.705 66.47L399.565 66.344C399.658 65.9053 399.822 65.546 400.055 65.266C400.288 64.9767 400.568 64.762 400.895 64.622C401.231 64.482 401.59 64.412 401.973 64.412C402.542 64.412 403.009 64.538 403.373 64.79C403.746 65.042 404.022 65.3827 404.199 65.812C404.386 66.232 404.479 66.7033 404.479 67.226V72H403.303V67.562C403.303 67.1047 403.247 66.722 403.135 66.414C403.032 66.0967 402.864 65.8587 402.631 65.7C402.398 65.532 402.094 65.448 401.721 65.448C401.152 65.448 400.68 65.63 400.307 65.994C399.943 66.3487 399.761 66.8713 399.761 67.562V72H398.585ZM408.875 72C408.203 72 407.704 71.846 407.377 71.538C407.06 71.23 406.901 70.7493 406.901 70.096V62.844H408.077V70.068C408.077 70.404 408.152 70.6373 408.301 70.768C408.45 70.8987 408.679 70.964 408.987 70.964H410.051V72H408.875ZM405.809 65.616V64.58H410.051V65.616H405.809ZM414.321 72.168C413.621 72.168 413.014 72.0093 412.501 71.692C411.997 71.3747 411.605 70.9267 411.325 70.348C411.054 69.76 410.919 69.074 410.919 68.29C410.919 67.506 411.054 66.8247 411.325 66.246C411.605 65.6673 411.992 65.2193 412.487 64.902C412.991 64.5753 413.583 64.412 414.265 64.412C414.909 64.412 415.478 64.566 415.973 64.874C416.467 65.1727 416.85 65.6113 417.121 66.19C417.401 66.7687 417.541 67.4733 417.541 68.304V68.654H412.151C412.197 69.4473 412.407 70.0447 412.781 70.446C413.163 70.8473 413.677 71.048 414.321 71.048C414.806 71.048 415.203 70.936 415.511 70.712C415.828 70.4787 416.047 70.1753 416.169 69.802L417.429 69.9C417.233 70.5627 416.859 71.1087 416.309 71.538C415.767 71.958 415.105 72.168 414.321 72.168ZM412.151 67.618H416.253C416.197 66.8993 415.987 66.372 415.623 66.036C415.268 65.7 414.815 65.532 414.265 65.532C413.695 65.532 413.224 65.7093 412.851 66.064C412.487 66.4093 412.253 66.9273 412.151 67.618ZM419.134 72V64.58H420.17L420.226 66.456L420.114 66.414C420.207 65.7793 420.408 65.3173 420.716 65.028C421.033 64.7293 421.453 64.58 421.976 64.58H422.704V65.7H421.99C421.616 65.7 421.304 65.77 421.052 65.91C420.809 66.0407 420.622 66.2413 420.492 66.512C420.37 66.7733 420.31 67.1093 420.31 67.52V72H419.134ZM426.776 72.168C426.076 72.168 425.469 72.0093 424.956 71.692C424.452 71.3747 424.06 70.9267 423.78 70.348C423.509 69.76 423.374 69.074 423.374 68.29C423.374 67.506 423.509 66.8247 423.78 66.246C424.06 65.6673 424.447 65.2193 424.942 64.902C425.446 64.5753 426.038 64.412 426.72 64.412C427.364 64.412 427.933 64.566 428.428 64.874C428.922 65.1727 429.305 65.6113 429.576 66.19C429.856 66.7687 429.996 67.4733 429.996 68.304V68.654H424.606C424.652 69.4473 424.862 70.0447 425.236 70.446C425.618 70.8473 426.132 71.048 426.776 71.048C427.261 71.048 427.658 70.936 427.966 70.712C428.283 70.4787 428.502 70.1753 428.624 69.802L429.884 69.9C429.688 70.5627 429.314 71.1087 428.764 71.538C428.222 71.958 427.56 72.168 426.776 72.168ZM424.606 67.618H428.708C428.652 66.8993 428.442 66.372 428.078 66.036C427.723 65.7 427.27 65.532 426.72 65.532C426.15 65.532 425.679 65.7093 425.306 66.064C424.942 66.4093 424.708 66.9273 424.606 67.618ZM434.291 72.168C433.628 72.168 433.063 72.0607 432.597 71.846C432.139 71.6313 431.78 71.3373 431.519 70.964C431.267 70.5813 431.122 70.1473 431.085 69.662L432.317 69.578C432.391 70.026 432.583 70.3853 432.891 70.656C433.199 70.9173 433.665 71.048 434.291 71.048C434.795 71.048 435.196 70.9687 435.495 70.81C435.803 70.642 435.957 70.376 435.957 70.012C435.957 69.816 435.91 69.6527 435.817 69.522C435.723 69.3913 435.541 69.2793 435.271 69.186C435 69.0833 434.599 68.9853 434.067 68.892C433.357 68.7613 432.797 68.6027 432.387 68.416C431.985 68.22 431.696 67.982 431.519 67.702C431.351 67.4127 431.267 67.072 431.267 66.68C431.267 66.0173 431.509 65.476 431.995 65.056C432.48 64.6267 433.171 64.412 434.067 64.412C434.673 64.412 435.182 64.524 435.593 64.748C436.013 64.9627 436.339 65.252 436.573 65.616C436.815 65.9707 436.974 66.3627 437.049 66.792L435.817 66.876C435.761 66.6147 435.658 66.386 435.509 66.19C435.359 65.9847 435.163 65.826 434.921 65.714C434.678 65.5927 434.389 65.532 434.053 65.532C433.521 65.532 433.129 65.6347 432.877 65.84C432.625 66.0453 432.499 66.3067 432.499 66.624C432.499 66.8667 432.555 67.0673 432.667 67.226C432.788 67.3753 432.979 67.5013 433.241 67.604C433.502 67.6973 433.852 67.7813 434.291 67.856C435.047 67.9867 435.635 68.1453 436.055 68.332C436.475 68.5187 436.769 68.7473 436.937 69.018C437.105 69.2887 437.189 69.62 437.189 70.012C437.189 70.4693 437.058 70.8613 436.797 71.188C436.545 71.5053 436.199 71.748 435.761 71.916C435.331 72.084 434.841 72.168 434.291 72.168ZM441.223 72C440.551 72 440.051 71.846 439.725 71.538C439.407 71.23 439.249 70.7493 439.249 70.096V62.844H440.425V70.068C440.425 70.404 440.499 70.6373 440.649 70.768C440.798 70.8987 441.027 70.964 441.335 70.964H442.399V72H441.223ZM438.157 65.616V64.58H442.399V65.616H438.157ZM451.465 72.224C450.578 72.224 449.799 72.0187 449.127 71.608C448.455 71.188 447.932 70.5907 447.559 69.816C447.186 69.0413 446.999 68.1173 446.999 67.044C446.999 65.9707 447.186 65.0467 447.559 64.272C447.932 63.488 448.455 62.886 449.127 62.466C449.799 62.046 450.578 61.836 451.465 61.836C452.669 61.836 453.602 62.1393 454.265 62.746C454.928 63.3527 455.362 64.1787 455.567 65.224L454.293 65.308C454.153 64.5987 453.854 64.0387 453.397 63.628C452.94 63.2173 452.296 63.012 451.465 63.012C450.83 63.012 450.27 63.1753 449.785 63.502C449.309 63.8193 448.936 64.2813 448.665 64.888C448.394 65.4853 448.259 66.204 448.259 67.044C448.259 67.884 448.394 68.6027 448.665 69.2C448.936 69.7973 449.309 70.2547 449.785 70.572C450.27 70.8893 450.83 71.048 451.465 71.048C452.333 71.048 453.005 70.824 453.481 70.376C453.957 69.9187 454.256 69.3027 454.377 68.528L455.651 68.612C455.53 69.3307 455.292 69.9607 454.937 70.502C454.582 71.0433 454.111 71.468 453.523 71.776C452.944 72.0747 452.258 72.224 451.465 72.224ZM459.28 72.168C458.515 72.168 457.904 71.9907 457.446 71.636C456.998 71.2813 456.774 70.7867 456.774 70.152C456.774 69.5173 456.961 69.018 457.334 68.654C457.708 68.29 458.3 68.0333 459.112 67.884L461.744 67.394C461.744 66.7687 461.595 66.302 461.296 65.994C461.007 65.686 460.568 65.532 459.98 65.532C459.467 65.532 459.061 65.6487 458.762 65.882C458.464 66.106 458.258 66.4327 458.146 66.862L456.9 66.764C457.04 66.064 457.376 65.4993 457.908 65.07C458.45 64.6313 459.14 64.412 459.98 64.412C460.932 64.412 461.66 64.6827 462.164 65.224C462.668 65.756 462.92 66.4933 462.92 67.436V70.502C462.92 70.67 462.948 70.7913 463.004 70.866C463.07 70.9313 463.172 70.964 463.312 70.964H463.606V72C463.569 72.0093 463.508 72.014 463.424 72.014C463.34 72.0233 463.252 72.028 463.158 72.028C462.822 72.028 462.547 71.9767 462.332 71.874C462.127 71.762 461.978 71.594 461.884 71.37C461.791 71.1367 461.744 70.8333 461.744 70.46L461.884 70.488C461.819 70.8053 461.66 71.0947 461.408 71.356C461.156 71.608 460.844 71.8087 460.47 71.958C460.097 72.098 459.7 72.168 459.28 72.168ZM459.392 71.132C459.887 71.132 460.307 71.0387 460.652 70.852C461.007 70.656 461.278 70.3947 461.464 70.068C461.651 69.732 461.744 69.3587 461.744 68.948V68.416L459.336 68.864C458.832 68.9573 458.482 69.102 458.286 69.298C458.1 69.4847 458.006 69.732 458.006 70.04C458.006 70.3853 458.128 70.656 458.37 70.852C458.622 71.0387 458.963 71.132 459.392 71.132ZM466.308 72C465.879 72 465.529 71.888 465.258 71.664C464.988 71.44 464.852 71.0853 464.852 70.6V62.06H466.028V70.502C466.028 70.6513 466.066 70.768 466.14 70.852C466.224 70.9267 466.341 70.964 466.49 70.964H467.134V72H466.308ZM471.401 72.168C470.71 72.168 470.108 72.0093 469.595 71.692C469.091 71.3747 468.699 70.9267 468.419 70.348C468.139 69.76 467.999 69.074 467.999 68.29C467.999 67.506 468.139 66.8247 468.419 66.246C468.699 65.6673 469.091 65.2193 469.595 64.902C470.108 64.5753 470.71 64.412 471.401 64.412C471.97 64.412 472.474 64.5147 472.913 64.72C473.361 64.916 473.725 65.2053 474.005 65.588C474.285 65.9707 474.467 66.4373 474.551 66.988L473.319 67.072C473.235 66.5773 473.02 66.1993 472.675 65.938C472.329 65.6673 471.905 65.532 471.401 65.532C470.719 65.532 470.187 65.7793 469.805 66.274C469.422 66.7593 469.231 67.4313 469.231 68.29C469.231 69.1487 469.422 69.8253 469.805 70.32C470.187 70.8053 470.719 71.048 471.401 71.048C471.905 71.048 472.329 70.908 472.675 70.628C473.02 70.348 473.235 69.928 473.319 69.368L474.551 69.452C474.467 70.0027 474.285 70.4833 474.005 70.894C473.725 71.2953 473.361 71.608 472.913 71.832C472.474 72.056 471.97 72.168 471.401 72.168ZM478.445 72.168C477.707 72.168 477.115 71.9207 476.667 71.426C476.228 70.922 476.009 70.2313 476.009 69.354V64.58H477.185V69.032C477.185 69.7507 477.311 70.2827 477.563 70.628C477.824 70.964 478.221 71.132 478.753 71.132C479.341 71.132 479.803 70.9453 480.139 70.572C480.475 70.1893 480.643 69.6667 480.643 69.004V64.58H481.819V72H480.699V70.166L480.881 70.264C480.731 70.8707 480.447 71.342 480.027 71.678C479.607 72.0047 479.079 72.168 478.445 72.168ZM485.517 72C485.088 72 484.738 71.888 484.467 71.664C484.197 71.44 484.061 71.0853 484.061 70.6V62.06H485.237V70.502C485.237 70.6513 485.275 70.768 485.349 70.852C485.433 70.9267 485.55 70.964 485.699 70.964H486.343V72H485.517ZM489.796 72.168C489.03 72.168 488.419 71.9907 487.962 71.636C487.514 71.2813 487.29 70.7867 487.29 70.152C487.29 69.5173 487.476 69.018 487.85 68.654C488.223 68.29 488.816 68.0333 489.628 67.884L492.26 67.394C492.26 66.7687 492.11 66.302 491.812 65.994C491.522 65.686 491.084 65.532 490.496 65.532C489.982 65.532 489.576 65.6487 489.278 65.882C488.979 66.106 488.774 66.4327 488.662 66.862L487.416 66.764C487.556 66.064 487.892 65.4993 488.424 65.07C488.965 64.6313 489.656 64.412 490.496 64.412C491.448 64.412 492.176 64.6827 492.68 65.224C493.184 65.756 493.436 66.4933 493.436 67.436V70.502C493.436 70.67 493.464 70.7913 493.52 70.866C493.585 70.9313 493.688 70.964 493.828 70.964H494.122V72C494.084 72.0093 494.024 72.014 493.94 72.014C493.856 72.0233 493.767 72.028 493.674 72.028C493.338 72.028 493.062 71.9767 492.848 71.874C492.642 71.762 492.493 71.594 492.4 71.37C492.306 71.1367 492.26 70.8333 492.26 70.46L492.4 70.488C492.334 70.8053 492.176 71.0947 491.924 71.356C491.672 71.608 491.359 71.8087 490.986 71.958C490.612 72.098 490.216 72.168 489.796 72.168ZM489.908 71.132C490.402 71.132 490.822 71.0387 491.168 70.852C491.522 70.656 491.793 70.3947 491.98 70.068C492.166 69.732 492.26 69.3587 492.26 68.948V68.416L489.852 68.864C489.348 68.9573 488.998 69.102 488.802 69.298C488.615 69.4847 488.522 69.732 488.522 70.04C488.522 70.3853 488.643 70.656 488.886 70.852C489.138 71.0387 489.478 71.132 489.908 71.132ZM497.797 72C497.125 72 496.626 71.846 496.299 71.538C495.982 71.23 495.823 70.7493 495.823 70.096V62.844H496.999V70.068C496.999 70.404 497.074 70.6373 497.223 70.768C497.372 70.8987 497.601 70.964 497.909 70.964H498.973V72H497.797ZM494.731 65.616V64.58H498.973V65.616H494.731ZM503.243 72.168C502.561 72.168 501.964 72.0093 501.451 71.692C500.937 71.3747 500.541 70.9267 500.261 70.348C499.981 69.76 499.841 69.074 499.841 68.29C499.841 67.4967 499.981 66.8107 500.261 66.232C500.541 65.6533 500.937 65.2053 501.451 64.888C501.964 64.5707 502.561 64.412 503.243 64.412C503.924 64.412 504.517 64.5707 505.021 64.888C505.534 65.2053 505.931 65.6533 506.211 66.232C506.491 66.8107 506.631 67.4967 506.631 68.29C506.631 69.074 506.491 69.76 506.211 70.348C505.931 70.9267 505.534 71.3747 505.021 71.692C504.517 72.0093 503.924 72.168 503.243 72.168ZM503.243 71.048C503.924 71.048 504.451 70.8053 504.825 70.32C505.207 69.8253 505.399 69.1487 505.399 68.29C505.399 67.4313 505.207 66.7593 504.825 66.274C504.451 65.7793 503.924 65.532 503.243 65.532C502.561 65.532 502.029 65.7793 501.647 66.274C501.264 66.7593 501.073 67.4313 501.073 68.29C501.073 69.1487 501.264 69.8253 501.647 70.32C502.029 70.8053 502.561 71.048 503.243 71.048ZM508.233 72V64.58H509.269L509.325 66.456L509.213 66.414C509.307 65.7793 509.507 65.3173 509.815 65.028C510.133 64.7293 510.553 64.58 511.075 64.58H511.803V65.7H511.089C510.716 65.7 510.403 65.77 510.151 65.91C509.909 66.0407 509.722 66.2413 509.591 66.512C509.47 66.7733 509.409 67.1093 509.409 67.52V72H508.233Z" fill="#171717"/>
</g>
<defs>
<filter id="filter0_dd_2024_1681" x="33.5" y="0" width="155" height="48" filterUnits="userSpaceOnUse" color-interpolation-filters="sRGB">
<feFlood flood-opacity="0" result="BackgroundImageFix"/>
<feColorMatrix in="SourceAlpha" type="matrix" values="0 0 0 0 0 0 0 0 0 0 0 0 0 0 0 0 0 0 127 0" result="hardAlpha"/>
<feMorphology radius="1" operator="dilate" in="SourceAlpha" result="effect1_dropShadow_2024_1681"/>
<feOffset/>
<feColorMatrix type="matrix" values="0 0 0 0 0.0431373 0 0 0 0 0.0431373 0 0 0 0 0.0431373 0 0 0 0.05 0"/>
<feBlend mode="normal" in2="BackgroundImageFix" result="effect1_dropShadow_2024_1681"/>
<feColorMatrix in="SourceAlpha" type="matrix" values="0 0 0 0 0 0 0 0 0 0 0 0 0 0 0 0 0 0 127 0" result="hardAlpha"/>
<feOffset dy="1"/>
<feGaussianBlur stdDeviation="3"/>
<feColorMatrix type="matrix" values="0 0 0 0 0.0431373 0 0 0 0 0.0431373 0 0 0 0 0.0431373 0 0 0 0.06 0"/>
<feBlend mode="normal" in2="effect1_dropShadow_2024_1681" result="effect2_dropShadow_2024_1681"/>
<feBlend mode="normal" in="SourceGraphic" in2="effect2_dropShadow_2024_1681" result="shape"/>
</filter>
<filter id="filter1_dd_2024_1681" x="184.5" y="0" width="163" height="48" filterUnits="userSpaceOnUse" color-interpolation-filters="sRGB">
<feFlood flood-opacity="0" result="BackgroundImageFix"/>
<feColorMatrix in="SourceAlpha" type="matrix" values="0 0 0 0 0 0 0 0 0 0 0 0 0 0 0 0 0 0 127 0" result="hardAlpha"/>
<feMorphology radius="1" operator="dilate" in="SourceAlpha" result="effect1_dropShadow_2024_1681"/>
<feOffset/>
<feColorMatrix type="matrix" values="0 0 0 0 0.0431373 0 0 0 0 0.0431373 0 0 0 0 0.0431373 0 0 0 0.05 0"/>
<feBlend mode="normal" in2="BackgroundImageFix" result="effect1_dropShadow_2024_1681"/>
<feColorMatrix in="SourceAlpha" type="matrix" values="0 0 0 0 0 0 0 0 0 0 0 0 0 0 0 0 0 0 127 0" result="hardAlpha"/>
<feOffset dy="1"/>
<feGaussianBlur stdDeviation="3"/>
<feColorMatrix type="matrix" values="0 0 0 0 0.0431373 0 0 0 0 0.0431373 0 0 0 0 0.0431373 0 0 0 0.06 0"/>
<feBlend mode="normal" in2="effect1_dropShadow_2024_1681" result="effect2_dropShadow_2024_1681"/>
<feBlend mode="normal" in="SourceGraphic" in2="effect2_dropShadow_2024_1681" result="shape"/>
</filter>
<filter id="filter2_dd_2024_1681" x="343.5" y="0" width="185" height="48" filterUnits="userSpaceOnUse" color-interpolation-filters="sRGB">
<feFlood flood-opacity="0" result="BackgroundImageFix"/>
<feColorMatrix in="SourceAlpha" type="matrix" values="0 0 0 0 0 0 0 0 0 0 0 0 0 0 0 0 0 0 127 0" result="hardAlpha"/>
<feMorphology radius="1" operator="dilate" in="SourceAlpha" result="effect1_dropShadow_2024_1681"/>
<feOffset/>
<feColorMatrix type="matrix" values="0 0 0 0 0.0431373 0 0 0 0 0.0431373 0 0 0 0 0.0431373 0 0 0 0.05 0"/>
<feBlend mode="normal" in2="BackgroundImageFix" result="effect1_dropShadow_2024_1681"/>
<feColorMatrix in="SourceAlpha" type="matrix" values="0 0 0 0 0 0 0 0 0 0 0 0 0 0 0 0 0 0 127 0" result="hardAlpha"/>
<feOffset dy="1"/>
<feGaussianBlur stdDeviation="3"/>
<feColorMatrix type="matrix" values="0 0 0 0 0.0431373 0 0 0 0 0.0431373 0 0 0 0 0.0431373 0 0 0 0.06 0"/>
<feBlend mode="normal" in2="effect1_dropShadow_2024_1681" result="effect2_dropShadow_2024_1681"/>
<feBlend mode="normal" in="SourceGraphic" in2="effect2_dropShadow_2024_1681" result="shape"/>
</filter>
<filter id="filter3_dd_2024_1681" x="31" y="44" width="249" height="48" filterUnits="userSpaceOnUse" color-interpolation-filters="sRGB">
<feFlood flood-opacity="0" result="BackgroundImageFix"/>
<feColorMatrix in="SourceAlpha" type="matrix" values="0 0 0 0 0 0 0 0 0 0 0 0 0 0 0 0 0 0 127 0" result="hardAlpha"/>
<feMorphology radius="1" operator="dilate" in="SourceAlpha" result="effect1_dropShadow_2024_1681"/>
<feOffset/>
<feColorMatrix type="matrix" values="0 0 0 0 0.0431373 0 0 0 0 0.0431373 0 0 0 0 0.0431373 0 0 0 0.05 0"/>
<feBlend mode="normal" in2="BackgroundImageFix" result="effect1_dropShadow_2024_1681"/>
<feColorMatrix in="SourceAlpha" type="matrix" values="0 0 0 0 0 0 0 0 0 0 0 0 0 0 0 0 0 0 127 0" result="hardAlpha"/>
<feOffset dy="1"/>
<feGaussianBlur stdDeviation="3"/>
<feColorMatrix type="matrix" values="0 0 0 0 0.0431373 0 0 0 0 0.0431373 0 0 0 0 0.0431373 0 0 0 0.06 0"/>
<feBlend mode="normal" in2="effect1_dropShadow_2024_1681" result="effect2_dropShadow_2024_1681"/>
<feBlend mode="normal" in="SourceGraphic" in2="effect2_dropShadow_2024_1681" result="shape"/>
</filter>
<filter id="filter4_dd_2024_1681" x="276" y="44" width="255" height="48" filterUnits="userSpaceOnUse" color-interpolation-filters="sRGB">
<feFlood flood-opacity="0" result="BackgroundImageFix"/>
<feColorMatrix in="SourceAlpha" type="matrix" values="0 0 0 0 0 0 0 0 0 0 0 0 0 0 0 0 0 0 127 0" result="hardAlpha"/>
<feMorphology radius="1" operator="dilate" in="SourceAlpha" result="effect1_dropShadow_2024_1681"/>
<feOffset/>
<feColorMatrix type="matrix" values="0 0 0 0 0.0431373 0 0 0 0 0.0431373 0 0 0 0 0.0431373 0 0 0 0.05 0"/>
<feBlend mode="normal" in2="BackgroundImageFix" result="effect1_dropShadow_2024_1681"/>
<feColorMatrix in="SourceAlpha" type="matrix" values="0 0 0 0 0 0 0 0 0 0 0 0 0 0 0 0 0 0 127 0" result="hardAlpha"/>
<feOffset dy="1"/>
<feGaussianBlur stdDeviation="3"/>
<feColorMatrix type="matrix" values="0 0 0 0 0.0431373 0 0 0 0 0.0431373 0 0 0 0 0.0431373 0 0 0 0.06 0"/>
<feBlend mode="normal" in2="effect1_dropShadow_2024_1681" result="effect2_dropShadow_2024_1681"/>
<feBlend mode="normal" in="SourceGraphic" in2="effect2_dropShadow_2024_1681" result="shape"/>
</filter>
</defs>
</svg>
