<svg width="244" height="114" viewBox="0 0 244 114" fill="none" xmlns="http://www.w3.org/2000/svg">
<g filter="url(#filter0_dd_2024_1702)">
<rect x="6" y="5" width="41" height="30" rx="15" fill="white"/>
<path d="M19.096 25.224C18.2093 25.224 17.43 25.0187 16.758 24.608C16.086 24.188 15.5633 23.5907 15.19 22.816C14.8167 22.0413 14.63 21.1173 14.63 20.044C14.63 18.9707 14.8167 18.0467 15.19 17.272C15.5633 16.488 16.086 15.886 16.758 15.466C17.43 15.046 18.2093 14.836 19.096 14.836C20.3 14.836 21.2333 15.1393 21.896 15.746C22.5587 16.3527 22.9927 17.1787 23.198 18.224L21.924 18.308C21.784 17.5987 21.4853 17.0387 21.028 16.628C20.5707 16.2173 19.9267 16.012 19.096 16.012C18.4613 16.012 17.9013 16.1753 17.416 16.502C16.94 16.8193 16.5667 17.2813 16.296 17.888C16.0253 18.4853 15.89 19.204 15.89 20.044C15.89 20.884 16.0253 21.6027 16.296 22.2C16.5667 22.7973 16.94 23.2547 17.416 23.572C17.9013 23.8893 18.4613 24.048 19.096 24.048C19.964 24.048 20.636 23.824 21.112 23.376C21.588 22.9187 21.8867 22.3027 22.008 21.528L23.282 21.612C23.1607 22.3307 22.9227 22.9607 22.568 23.502C22.2133 24.0433 21.742 24.468 21.154 24.776C20.5753 25.0747 19.8893 25.224 19.096 25.224ZM25.1591 25V15.06H31.4031V16.236H25.7611L26.3631 15.62V20.184L25.7611 19.568H31.1511V20.716H25.7611L26.3631 20.1V25H25.1591ZM31.2878 25L34.8718 15.06H36.4958L40.0798 25H38.7638L37.7698 22.172H33.5978L32.6038 25H31.2878ZM34.0038 20.996H37.3638L35.6838 16.11L34.0038 20.996Z" fill="#171717"/>
</g>
<g filter="url(#filter1_dd_2024_1702)">
<rect x="53" y="5" width="48" height="30" rx="15" fill="white"/>
<path d="M66.474 25V22.844H61.42V21.752L66.39 15.06H67.678V21.668H68.91V22.844H67.678V25H66.474ZM62.876 21.668H66.474V16.908L62.876 21.668ZM74.2473 25.224C73.4446 25.224 72.7493 25.014 72.1613 24.594C71.5733 24.174 71.1159 23.5767 70.7893 22.802C70.4719 22.0273 70.3133 21.108 70.3133 20.044C70.3133 18.98 70.4719 18.0607 70.7893 17.286C71.1159 16.502 71.5733 15.9 72.1613 15.48C72.7493 15.0507 73.4446 14.836 74.2473 14.836C75.0593 14.836 75.7593 15.0507 76.3473 15.48C76.9353 15.9 77.3879 16.4973 77.7053 17.272C78.0319 18.0467 78.1953 18.9707 78.1953 20.044C78.1953 21.108 78.0319 22.0273 77.7053 22.802C77.3879 23.5767 76.9353 24.174 76.3473 24.594C75.7593 25.014 75.0593 25.224 74.2473 25.224ZM74.2473 24.048C75.1059 24.048 75.7686 23.7027 76.2353 23.012C76.7019 22.312 76.9353 21.3227 76.9353 20.044C76.9353 19.1853 76.8279 18.4573 76.6133 17.86C76.4079 17.2533 76.1046 16.796 75.7033 16.488C75.3113 16.1707 74.8259 16.012 74.2473 16.012C73.6779 16.012 73.1926 16.1707 72.7913 16.488C72.3993 16.796 72.0959 17.2533 71.8813 17.86C71.6759 18.4573 71.5733 19.1853 71.5733 20.044C71.5733 21.3227 71.8066 22.312 72.2733 23.012C72.7399 23.7027 73.3979 24.048 74.2473 24.048ZM81.5285 25V17.636H79.4565V16.6H80.2965C80.6605 16.6 80.9498 16.5533 81.1645 16.46C81.3885 16.3667 81.5472 16.208 81.6405 15.984C81.7338 15.76 81.7805 15.452 81.7805 15.06H82.7325V25H81.5285ZM85.3895 25V15.06H86.5655V21.57L90.1775 17.58H91.7455L88.8195 20.73L91.8715 25H90.4435L88.0215 21.528L86.5655 23.068V25H85.3895Z" fill="#171717"/>
</g>
<g filter="url(#filter2_dd_2024_1702)">
<rect x="107" y="5" width="73" height="30" rx="15" fill="white"/>
<path d="M119.368 25.224C118.668 25.224 118.061 25.1073 117.548 24.874C117.044 24.6407 116.643 24.314 116.344 23.894C116.055 23.474 115.887 22.9887 115.84 22.438L117.1 22.354C117.175 22.914 117.413 23.3387 117.814 23.628C118.225 23.908 118.743 24.048 119.368 24.048C120.068 24.048 120.623 23.852 121.034 23.46C121.445 23.0587 121.65 22.508 121.65 21.808C121.65 21.3413 121.557 20.94 121.37 20.604C121.193 20.2587 120.931 19.9927 120.586 19.806C120.241 19.6193 119.825 19.526 119.34 19.526C118.883 19.526 118.467 19.624 118.094 19.82C117.721 20.016 117.455 20.2913 117.296 20.646H116.008L116.666 15.06H122.238V16.236H117.772L117.324 19.904L117.1 19.68C117.249 19.3907 117.445 19.1527 117.688 18.966C117.94 18.77 118.225 18.6253 118.542 18.532C118.869 18.4293 119.209 18.378 119.564 18.378C120.227 18.378 120.81 18.5273 121.314 18.826C121.818 19.1153 122.21 19.5213 122.49 20.044C122.77 20.5573 122.91 21.1453 122.91 21.808C122.91 22.4707 122.761 23.0633 122.462 23.586C122.163 24.0993 121.748 24.5007 121.216 24.79C120.684 25.0793 120.068 25.224 119.368 25.224ZM124.604 25C124.604 24.3 124.711 23.67 124.926 23.11C125.15 22.5407 125.537 21.9993 126.088 21.486C126.648 20.9727 127.422 20.4547 128.412 19.932C128.869 19.6893 129.238 19.4653 129.518 19.26C129.798 19.0547 130.003 18.8353 130.134 18.602C130.264 18.3687 130.33 18.084 130.33 17.748C130.33 17.4027 130.255 17.104 130.106 16.852C129.956 16.5907 129.732 16.3853 129.434 16.236C129.144 16.0867 128.78 16.012 128.342 16.012C127.642 16.012 127.086 16.194 126.676 16.558C126.274 16.922 126.022 17.44 125.92 18.112L124.66 18.028C124.772 17.0573 125.145 16.2827 125.78 15.704C126.414 15.1253 127.268 14.836 128.342 14.836C129.023 14.836 129.606 14.9573 130.092 15.2C130.577 15.4427 130.946 15.7833 131.198 16.222C131.459 16.6513 131.59 17.1507 131.59 17.72C131.59 18.224 131.506 18.6627 131.338 19.036C131.17 19.4 130.885 19.7407 130.484 20.058C130.092 20.3753 129.55 20.716 128.86 21.08C127.964 21.556 127.282 22.0367 126.816 22.522C126.358 23.0073 126.116 23.4413 126.088 23.824H131.59V25H124.604ZM136.464 25.224C135.642 25.224 134.97 25.0233 134.448 24.622C133.934 24.2113 133.584 23.698 133.398 23.082L134.672 22.984C134.784 23.32 134.989 23.5813 135.288 23.768C135.586 23.9547 135.978 24.048 136.464 24.048C137.294 24.048 137.929 23.7167 138.368 23.054C138.816 22.382 139.044 21.304 139.054 19.82L139.348 19.876C139.114 20.5013 138.755 20.9867 138.27 21.332C137.784 21.668 137.22 21.836 136.576 21.836C135.932 21.836 135.362 21.6913 134.868 21.402C134.373 21.1127 133.981 20.7067 133.692 20.184C133.412 19.6613 133.272 19.0547 133.272 18.364C133.272 17.636 133.421 17.0107 133.72 16.488C134.018 15.956 134.424 15.55 134.938 15.27C135.46 14.9807 136.058 14.836 136.73 14.836C137.56 14.836 138.237 15.0273 138.76 15.41C139.292 15.7927 139.684 16.3293 139.936 17.02C140.188 17.7013 140.314 18.5087 140.314 19.442C140.314 20.2727 140.248 21.0427 140.118 21.752C139.987 22.452 139.772 23.0633 139.474 23.586C139.175 24.0993 138.778 24.5007 138.284 24.79C137.798 25.0793 137.192 25.224 136.464 25.224ZM136.66 20.646C137.117 20.646 137.518 20.5573 137.864 20.38C138.209 20.2027 138.48 19.946 138.676 19.61C138.881 19.274 138.984 18.868 138.984 18.392C138.984 17.9347 138.89 17.5287 138.704 17.174C138.526 16.81 138.27 16.5253 137.934 16.32C137.598 16.1147 137.196 16.012 136.73 16.012C136.272 16.012 135.88 16.1147 135.554 16.32C135.227 16.516 134.975 16.7913 134.798 17.146C134.62 17.5007 134.532 17.9067 134.532 18.364C134.532 18.8307 134.62 19.2367 134.798 19.582C134.984 19.918 135.236 20.1793 135.554 20.366C135.871 20.5527 136.24 20.646 136.66 20.646ZM145.956 25V15.06H149.526C150.637 15.06 151.5 15.326 152.116 15.858C152.732 16.39 153.04 17.1273 153.04 18.07C153.04 18.7047 152.9 19.2553 152.62 19.722C152.34 20.1793 151.939 20.5293 151.416 20.772C150.893 21.0147 150.263 21.136 149.526 21.136H147.16V25H145.956ZM147.16 19.96H149.526C150.273 19.96 150.833 19.8013 151.206 19.484C151.589 19.1667 151.78 18.6953 151.78 18.07C151.78 17.4633 151.589 17.006 151.206 16.698C150.833 16.39 150.273 16.236 149.526 16.236H147.16V19.96ZM156.349 25C155.92 25 155.57 24.888 155.299 24.664C155.029 24.44 154.893 24.0853 154.893 23.6V15.06H156.069V23.502C156.069 23.6513 156.107 23.768 156.181 23.852C156.265 23.9267 156.382 23.964 156.531 23.964H157.175V25H156.349ZM160.628 25.168C159.863 25.168 159.251 24.9907 158.794 24.636C158.346 24.2813 158.122 23.7867 158.122 23.152C158.122 22.5173 158.309 22.018 158.682 21.654C159.055 21.29 159.648 21.0333 160.46 20.884L163.092 20.394C163.092 19.7687 162.943 19.302 162.644 18.994C162.355 18.686 161.916 18.532 161.328 18.532C160.815 18.532 160.409 18.6487 160.11 18.882C159.811 19.106 159.606 19.4327 159.494 19.862L158.248 19.764C158.388 19.064 158.724 18.4993 159.256 18.07C159.797 17.6313 160.488 17.412 161.328 17.412C162.28 17.412 163.008 17.6827 163.512 18.224C164.016 18.756 164.268 19.4933 164.268 20.436V23.502C164.268 23.67 164.296 23.7913 164.352 23.866C164.417 23.9313 164.52 23.964 164.66 23.964H164.954V25C164.917 25.0093 164.856 25.014 164.772 25.014C164.688 25.0233 164.599 25.028 164.506 25.028C164.17 25.028 163.895 24.9767 163.68 24.874C163.475 24.762 163.325 24.594 163.232 24.37C163.139 24.1367 163.092 23.8333 163.092 23.46L163.232 23.488C163.167 23.8053 163.008 24.0947 162.756 24.356C162.504 24.608 162.191 24.8087 161.818 24.958C161.445 25.098 161.048 25.168 160.628 25.168ZM160.74 24.132C161.235 24.132 161.655 24.0387 162 23.852C162.355 23.656 162.625 23.3947 162.812 23.068C162.999 22.732 163.092 22.3587 163.092 21.948V21.416L160.684 21.864C160.18 21.9573 159.83 22.102 159.634 22.298C159.447 22.4847 159.354 22.732 159.354 23.04C159.354 23.3853 159.475 23.656 159.718 23.852C159.97 24.0387 160.311 24.132 160.74 24.132ZM166.282 25V17.58H167.36L167.402 19.47L167.262 19.344C167.355 18.9053 167.519 18.546 167.752 18.266C167.985 17.9767 168.265 17.762 168.592 17.622C168.928 17.482 169.287 17.412 169.67 17.412C170.239 17.412 170.706 17.538 171.07 17.79C171.443 18.042 171.719 18.3827 171.896 18.812C172.083 19.232 172.176 19.7033 172.176 20.226V25H171V20.562C171 20.1047 170.944 19.722 170.832 19.414C170.729 19.0967 170.561 18.8587 170.328 18.7C170.095 18.532 169.791 18.448 169.418 18.448C168.849 18.448 168.377 18.63 168.004 18.994C167.64 19.3487 167.458 19.8713 167.458 20.562V25H166.282Z" fill="#171717"/>
</g>
<g filter="url(#filter3_dd_2024_1702)">
<rect x="186" y="5" width="52" height="30" rx="15" fill="white"/>
<path d="M199.096 25.224C198.209 25.224 197.43 25.0187 196.758 24.608C196.086 24.188 195.563 23.5907 195.19 22.816C194.817 22.0413 194.63 21.1173 194.63 20.044C194.63 18.9707 194.817 18.0467 195.19 17.272C195.563 16.488 196.086 15.886 196.758 15.466C197.43 15.046 198.209 14.836 199.096 14.836C200.3 14.836 201.233 15.1393 201.896 15.746C202.559 16.3527 202.993 17.1787 203.198 18.224L201.924 18.308C201.784 17.5987 201.485 17.0387 201.028 16.628C200.571 16.2173 199.927 16.012 199.096 16.012C198.461 16.012 197.901 16.1753 197.416 16.502C196.94 16.8193 196.567 17.2813 196.296 17.888C196.025 18.4853 195.89 19.204 195.89 20.044C195.89 20.884 196.025 21.6027 196.296 22.2C196.567 22.7973 196.94 23.2547 197.416 23.572C197.901 23.8893 198.461 24.048 199.096 24.048C199.964 24.048 200.636 23.824 201.112 23.376C201.588 22.9187 201.887 22.3027 202.008 21.528L203.282 21.612C203.161 22.3307 202.923 22.9607 202.568 23.502C202.213 24.0433 201.742 24.468 201.154 24.776C200.575 25.0747 199.889 25.224 199.096 25.224ZM203.768 25L207.352 15.06H208.976L212.56 25H211.244L210.25 22.172H206.078L205.084 25H203.768ZM206.484 20.996H209.844L208.164 16.11L206.484 20.996ZM217.484 25.224C216.551 25.224 215.753 25 215.09 24.552C214.427 24.104 213.919 23.4927 213.564 22.718C213.219 21.934 213.046 21.0427 213.046 20.044C213.046 19.0453 213.223 18.154 213.578 17.37C213.933 16.586 214.441 15.97 215.104 15.522C215.776 15.0647 216.579 14.836 217.512 14.836C218.305 14.836 218.973 14.9807 219.514 15.27C220.065 15.5593 220.499 15.9513 220.816 16.446C221.143 16.9407 221.367 17.496 221.488 18.112L220.228 18.196C220.107 17.552 219.836 17.0293 219.416 16.628C218.996 16.2173 218.361 16.012 217.512 16.012C216.756 16.012 216.14 16.1987 215.664 16.572C215.197 16.9453 214.852 17.44 214.628 18.056C214.413 18.6627 214.306 19.3253 214.306 20.044C214.306 20.8 214.418 21.4813 214.642 22.088C214.866 22.6853 215.216 23.1613 215.692 23.516C216.168 23.8707 216.775 24.048 217.512 24.048C218.1 24.048 218.609 23.9173 219.038 23.656C219.467 23.3853 219.799 23.026 220.032 22.578C220.265 22.13 220.387 21.6447 220.396 21.122H217.54V19.974H221.516V25H220.62L220.536 22.704L220.704 22.9C220.592 23.348 220.377 23.7493 220.06 24.104C219.743 24.4493 219.36 24.7247 218.912 24.93C218.473 25.126 217.997 25.224 217.484 25.224ZM223.507 25V15.06H227.273C227.973 15.06 228.575 15.1813 229.079 15.424C229.583 15.6667 229.97 16.0167 230.241 16.474C230.521 16.922 230.661 17.454 230.661 18.07C230.661 18.518 230.553 18.9193 230.339 19.274C230.133 19.6193 229.867 19.8947 229.541 20.1C229.214 20.3053 228.873 20.4173 228.519 20.436L228.435 20.31C229.041 20.31 229.517 20.45 229.863 20.73C230.217 21.01 230.423 21.458 230.479 22.074L230.759 25H229.541L229.289 22.2C229.251 21.7893 229.102 21.486 228.841 21.29C228.589 21.094 228.173 20.996 227.595 20.996H224.711V25H223.507ZM224.711 19.82H227.427C228.033 19.82 228.514 19.666 228.869 19.358C229.223 19.05 229.401 18.6113 229.401 18.042C229.401 17.4633 229.219 17.02 228.855 16.712C228.491 16.3947 227.963 16.236 227.273 16.236H224.711V19.82Z" fill="#171717"/>
</g>
<g filter="url(#filter4_dd_2024_1702)">
<rect x="11.5" y="41" width="43" height="30" rx="15" fill="white"/>
<path d="M24.568 61.224C23.6347 61.224 22.8367 61 22.174 60.552C21.5113 60.104 21.0027 59.4927 20.648 58.718C20.3027 57.934 20.13 57.0427 20.13 56.044C20.13 55.0453 20.3073 54.154 20.662 53.37C21.0167 52.586 21.5253 51.97 22.188 51.522C22.86 51.0647 23.6627 50.836 24.596 50.836C25.3893 50.836 26.0567 50.9807 26.598 51.27C27.1487 51.5593 27.5827 51.9513 27.9 52.446C28.2267 52.9407 28.4507 53.496 28.572 54.112L27.312 54.196C27.1907 53.552 26.92 53.0293 26.5 52.628C26.08 52.2173 25.4453 52.012 24.596 52.012C23.84 52.012 23.224 52.1987 22.748 52.572C22.2813 52.9453 21.936 53.44 21.712 54.056C21.4973 54.6627 21.39 55.3253 21.39 56.044C21.39 56.8 21.502 57.4813 21.726 58.088C21.95 58.6853 22.3 59.1613 22.776 59.516C23.252 59.8707 23.8587 60.048 24.596 60.048C25.184 60.048 25.6927 59.9173 26.122 59.656C26.5513 59.3853 26.8827 59.026 27.116 58.578C27.3493 58.13 27.4707 57.6447 27.48 57.122H24.624V55.974H28.6V61H27.704L27.62 58.704L27.788 58.9C27.676 59.348 27.4613 59.7493 27.144 60.104C26.8267 60.4493 26.444 60.7247 25.996 60.93C25.5573 61.126 25.0813 61.224 24.568 61.224ZM30.5907 61V51.06H33.6707C35.2014 51.06 36.3774 51.494 37.1987 52.362C38.0294 53.2207 38.4447 54.448 38.4447 56.044C38.4447 57.6307 38.0387 58.8533 37.2267 59.712C36.4147 60.5707 35.2574 61 33.7547 61H30.5907ZM31.7947 59.824H33.6707C34.8374 59.824 35.7147 59.5113 36.3027 58.886C36.8907 58.2513 37.1847 57.304 37.1847 56.044C37.1847 54.7653 36.8907 53.8133 36.3027 53.188C35.7147 52.5533 34.8374 52.236 33.6707 52.236H31.7947V59.824ZM40.1747 61V51.06H43.7447C44.8554 51.06 45.7187 51.326 46.3347 51.858C46.9507 52.39 47.2587 53.1273 47.2587 54.07C47.2587 54.7047 47.1187 55.2553 46.8387 55.722C46.5587 56.1793 46.1574 56.5293 45.6347 56.772C45.1121 57.0147 44.4821 57.136 43.7447 57.136H41.3787V61H40.1747ZM41.3787 55.96H43.7447C44.4914 55.96 45.0514 55.8013 45.4247 55.484C45.8074 55.1667 45.9987 54.6953 45.9987 54.07C45.9987 53.4633 45.8074 53.006 45.4247 52.698C45.0514 52.39 44.4914 52.236 43.7447 52.236H41.3787V55.96Z" fill="#171717"/>
</g>
<g filter="url(#filter5_dd_2024_1702)">
<rect x="60.5" y="41" width="41" height="30" rx="15" fill="white"/>
<path d="M73.666 61.224C72.7233 61.224 71.9113 61.0187 71.23 60.608C70.558 60.188 70.04 59.5907 69.676 58.816C69.312 58.0413 69.13 57.1173 69.13 56.044C69.13 54.9707 69.312 54.0467 69.676 53.272C70.04 52.488 70.558 51.886 71.23 51.466C71.9113 51.046 72.7233 50.836 73.666 50.836C74.618 50.836 75.43 51.046 76.102 51.466C76.7833 51.886 77.306 52.488 77.67 53.272C78.034 54.0467 78.216 54.9707 78.216 56.044C78.216 57.1173 78.034 58.0413 77.67 58.816C77.306 59.5907 76.7833 60.188 76.102 60.608C75.43 61.0187 74.618 61.224 73.666 61.224ZM73.666 60.048C74.3567 60.048 74.9447 59.8893 75.43 59.572C75.9247 59.2547 76.3027 58.7973 76.564 58.2C76.8253 57.6027 76.956 56.884 76.956 56.044C76.956 55.204 76.8253 54.4853 76.564 53.888C76.3027 53.2813 75.9247 52.8193 75.43 52.502C74.9447 52.1753 74.3567 52.012 73.666 52.012C72.9847 52.012 72.3967 52.1753 71.902 52.502C71.4167 52.8193 71.0433 53.2813 70.782 53.888C70.5207 54.4853 70.39 55.204 70.39 56.044C70.39 56.884 70.5207 57.6027 70.782 58.2C71.0433 58.7973 71.4167 59.2547 71.902 59.572C72.3967 59.8893 72.9847 60.048 73.666 60.048ZM81.5511 61V52.236H78.4571V51.06H85.8491V52.236H82.7551V61H81.5511ZM90.5491 61.224C89.6625 61.224 88.8831 61.0187 88.2111 60.608C87.5391 60.188 87.0165 59.5907 86.6431 58.816C86.2698 58.0413 86.0831 57.1173 86.0831 56.044C86.0831 54.9707 86.2698 54.0467 86.6431 53.272C87.0165 52.488 87.5391 51.886 88.2111 51.466C88.8831 51.046 89.6625 50.836 90.5491 50.836C91.7531 50.836 92.6865 51.1393 93.3491 51.746C94.0118 52.3527 94.4458 53.1787 94.6511 54.224L93.3771 54.308C93.2371 53.5987 92.9385 53.0387 92.4811 52.628C92.0238 52.2173 91.3798 52.012 90.5491 52.012C89.9145 52.012 89.3545 52.1753 88.8691 52.502C88.3931 52.8193 88.0198 53.2813 87.7491 53.888C87.4785 54.4853 87.3431 55.204 87.3431 56.044C87.3431 56.884 87.4785 57.6027 87.7491 58.2C88.0198 58.7973 88.3931 59.2547 88.8691 59.572C89.3545 59.8893 89.9145 60.048 90.5491 60.048C91.4171 60.048 92.0891 59.824 92.5651 59.376C93.0411 58.9187 93.3398 58.3027 93.4611 57.528L94.7351 57.612C94.6138 58.3307 94.3758 58.9607 94.0211 59.502C93.6665 60.0433 93.1951 60.468 92.6071 60.776C92.0285 61.0747 91.3425 61.224 90.5491 61.224Z" fill="#171717"/>
</g>
<g filter="url(#filter6_dd_2024_1702)">
<rect x="107.5" y="41" width="83" height="30" rx="15" fill="white"/>
<path d="M116.788 61V51.06H120.204C121.38 51.06 122.262 51.2747 122.85 51.704C123.438 52.1333 123.732 52.81 123.732 53.734C123.732 54.1633 123.639 54.5413 123.452 54.868C123.265 55.1947 122.999 55.4513 122.654 55.638C122.309 55.8153 121.898 55.904 121.422 55.904L121.408 55.82C122.257 55.82 122.925 56.0487 123.41 56.506C123.905 56.954 124.152 57.542 124.152 58.27C124.152 59.1753 123.858 59.8567 123.27 60.314C122.682 60.7713 121.847 61 120.764 61H116.788ZM117.992 59.824H120.764C121.445 59.824 121.968 59.684 122.332 59.404C122.705 59.124 122.892 58.7227 122.892 58.2C122.892 57.6773 122.705 57.2713 122.332 56.982C121.968 56.6833 121.445 56.534 120.764 56.534H117.992V59.824ZM117.992 55.358H120.204C120.932 55.358 121.492 55.2227 121.884 54.952C122.276 54.672 122.472 54.2847 122.472 53.79C122.472 53.2673 122.281 52.88 121.898 52.628C121.525 52.3667 120.96 52.236 120.204 52.236H117.992V55.358ZM129.006 61.168C128.325 61.168 127.728 61.0093 127.214 60.692C126.701 60.3747 126.304 59.9267 126.024 59.348C125.744 58.76 125.604 58.074 125.604 57.29C125.604 56.4967 125.744 55.8107 126.024 55.232C126.304 54.6533 126.701 54.2053 127.214 53.888C127.728 53.5707 128.325 53.412 129.006 53.412C129.688 53.412 130.28 53.5707 130.784 53.888C131.298 54.2053 131.694 54.6533 131.974 55.232C132.254 55.8107 132.394 56.4967 132.394 57.29C132.394 58.074 132.254 58.76 131.974 59.348C131.694 59.9267 131.298 60.3747 130.784 60.692C130.28 61.0093 129.688 61.168 129.006 61.168ZM129.006 60.048C129.688 60.048 130.215 59.8053 130.588 59.32C130.971 58.8253 131.162 58.1487 131.162 57.29C131.162 56.4313 130.971 55.7593 130.588 55.274C130.215 54.7793 129.688 54.532 129.006 54.532C128.325 54.532 127.793 54.7793 127.41 55.274C127.028 55.7593 126.836 56.4313 126.836 57.29C126.836 58.1487 127.028 58.8253 127.41 59.32C127.793 59.8053 128.325 60.048 129.006 60.048ZM136.811 63.268C136.279 63.268 135.798 63.1793 135.369 63.002C134.94 62.8247 134.58 62.5727 134.291 62.246C134.002 61.9193 133.806 61.5413 133.703 61.112L134.935 61.028C135.047 61.3733 135.243 61.644 135.523 61.84C135.812 62.0453 136.242 62.148 136.811 62.148C137.483 62.148 137.996 62.0127 138.351 61.742C138.715 61.4713 138.897 61.0653 138.897 60.524V59.32C138.72 59.712 138.435 60.0247 138.043 60.258C137.651 60.4913 137.212 60.608 136.727 60.608C136.102 60.608 135.542 60.454 135.047 60.146C134.562 59.838 134.179 59.4133 133.899 58.872C133.628 58.3307 133.493 57.71 133.493 57.01C133.493 56.3007 133.628 55.68 133.899 55.148C134.17 54.6067 134.543 54.182 135.019 53.874C135.504 53.566 136.055 53.412 136.671 53.412C137.194 53.412 137.66 53.5333 138.071 53.776C138.491 54.0187 138.785 54.3453 138.953 54.756V53.58H140.073V60.496C140.073 61.0747 139.942 61.5693 139.681 61.98C139.42 62.4 139.046 62.7173 138.561 62.932C138.076 63.156 137.492 63.268 136.811 63.268ZM136.783 59.488C137.418 59.488 137.926 59.2687 138.309 58.83C138.692 58.382 138.888 57.7753 138.897 57.01C138.906 56.4967 138.822 56.058 138.645 55.694C138.477 55.3207 138.23 55.036 137.903 54.84C137.586 54.6347 137.212 54.532 136.783 54.532C136.13 54.532 135.621 54.756 135.257 55.204C134.902 55.6427 134.725 56.2447 134.725 57.01C134.725 57.7753 134.907 58.382 135.271 58.83C135.644 59.2687 136.148 59.488 136.783 59.488ZM143.765 61C143.336 61 142.986 60.888 142.715 60.664C142.445 60.44 142.309 60.0853 142.309 59.6V51.06H143.485V59.502C143.485 59.6513 143.523 59.768 143.597 59.852C143.681 59.9267 143.798 59.964 143.947 59.964H144.591V61H143.765ZM148.858 61.168C148.158 61.168 147.551 61.0093 147.038 60.692C146.534 60.3747 146.142 59.9267 145.862 59.348C145.591 58.76 145.456 58.074 145.456 57.29C145.456 56.506 145.591 55.8247 145.862 55.246C146.142 54.6673 146.529 54.2193 147.024 53.902C147.528 53.5753 148.121 53.412 148.802 53.412C149.446 53.412 150.015 53.566 150.51 53.874C151.005 54.1727 151.387 54.6113 151.658 55.19C151.938 55.7687 152.078 56.4733 152.078 57.304V57.654H146.688C146.735 58.4473 146.945 59.0447 147.318 59.446C147.701 59.8473 148.214 60.048 148.858 60.048C149.343 60.048 149.74 59.936 150.048 59.712C150.365 59.4787 150.585 59.1753 150.706 58.802L151.966 58.9C151.77 59.5627 151.397 60.1087 150.846 60.538C150.305 60.958 149.642 61.168 148.858 61.168ZM146.688 56.618H150.79C150.734 55.8993 150.524 55.372 150.16 55.036C149.805 54.7 149.353 54.532 148.802 54.532C148.233 54.532 147.761 54.7093 147.388 55.064C147.024 55.4093 146.791 55.9273 146.688 56.618ZM153.671 61V51.06H154.847V55.218L154.707 55.19C154.8 54.7793 154.959 54.4433 155.183 54.182C155.407 53.9207 155.682 53.7293 156.009 53.608C156.335 53.4773 156.695 53.412 157.087 53.412C157.619 53.412 158.067 53.5333 158.431 53.776C158.804 54.0093 159.084 54.3407 159.271 54.77C159.467 55.19 159.565 55.6753 159.565 56.226V61H158.389V56.562C158.389 55.8433 158.258 55.3113 157.997 54.966C157.745 54.6207 157.357 54.448 156.835 54.448C156.237 54.448 155.757 54.63 155.393 54.994C155.029 55.358 154.847 55.8853 154.847 56.576V61H153.671ZM164.539 61.168C163.839 61.168 163.233 61.0093 162.719 60.692C162.215 60.3747 161.823 59.9267 161.543 59.348C161.273 58.76 161.137 58.074 161.137 57.29C161.137 56.506 161.273 55.8247 161.543 55.246C161.823 54.6673 162.211 54.2193 162.705 53.902C163.209 53.5753 163.802 53.412 164.483 53.412C165.127 53.412 165.697 53.566 166.191 53.874C166.686 54.1727 167.069 54.6113 167.339 55.19C167.619 55.7687 167.759 56.4733 167.759 57.304V57.654H162.369C162.416 58.4473 162.626 59.0447 162.999 59.446C163.382 59.8473 163.895 60.048 164.539 60.048C165.025 60.048 165.421 59.936 165.729 59.712C166.047 59.4787 166.266 59.1753 166.387 58.802L167.647 58.9C167.451 59.5627 167.078 60.1087 166.527 60.538C165.986 60.958 165.323 61.168 164.539 61.168ZM162.369 56.618H166.471C166.415 55.8993 166.205 55.372 165.841 55.036C165.487 54.7 165.034 54.532 164.483 54.532C163.914 54.532 163.443 54.7093 163.069 55.064C162.705 55.4093 162.472 55.9273 162.369 56.618ZM171.546 61.168C170.78 61.168 170.169 60.9907 169.712 60.636C169.264 60.2813 169.04 59.7867 169.04 59.152C169.04 58.5173 169.226 58.018 169.6 57.654C169.973 57.29 170.566 57.0333 171.378 56.884L174.01 56.394C174.01 55.7687 173.86 55.302 173.562 54.994C173.272 54.686 172.834 54.532 172.246 54.532C171.732 54.532 171.326 54.6487 171.028 54.882C170.729 55.106 170.524 55.4327 170.412 55.862L169.166 55.764C169.306 55.064 169.642 54.4993 170.174 54.07C170.715 53.6313 171.406 53.412 172.246 53.412C173.198 53.412 173.926 53.6827 174.43 54.224C174.934 54.756 175.186 55.4933 175.186 56.436V59.502C175.186 59.67 175.214 59.7913 175.27 59.866C175.335 59.9313 175.438 59.964 175.578 59.964H175.872V61C175.834 61.0093 175.774 61.014 175.69 61.014C175.606 61.0233 175.517 61.028 175.424 61.028C175.088 61.028 174.812 60.9767 174.598 60.874C174.392 60.762 174.243 60.594 174.15 60.37C174.056 60.1367 174.01 59.8333 174.01 59.46L174.15 59.488C174.084 59.8053 173.926 60.0947 173.674 60.356C173.422 60.608 173.109 60.8087 172.736 60.958C172.362 61.098 171.966 61.168 171.546 61.168ZM171.658 60.132C172.152 60.132 172.572 60.0387 172.918 59.852C173.272 59.656 173.543 59.3947 173.73 59.068C173.916 58.732 174.01 58.3587 174.01 57.948V57.416L171.602 57.864C171.098 57.9573 170.748 58.102 170.552 58.298C170.365 58.4847 170.272 58.732 170.272 59.04C170.272 59.3853 170.393 59.656 170.636 59.852C170.888 60.0387 171.228 60.132 171.658 60.132ZM179.805 61.168C179.161 61.168 178.601 61.0093 178.125 60.692C177.658 60.3747 177.299 59.9267 177.047 59.348C176.795 58.7693 176.669 58.0833 176.669 57.29C176.669 56.4967 176.795 55.8107 177.047 55.232C177.299 54.6533 177.658 54.2053 178.125 53.888C178.601 53.5707 179.161 53.412 179.805 53.412C180.299 53.412 180.752 53.5193 181.163 53.734C181.573 53.9393 181.881 54.2333 182.087 54.616V51.06H183.263V61H182.199L182.157 59.88C181.951 60.2813 181.639 60.5987 181.219 60.832C180.799 61.056 180.327 61.168 179.805 61.168ZM180.043 60.048C180.481 60.048 180.85 59.936 181.149 59.712C181.457 59.488 181.69 59.1707 181.849 58.76C182.007 58.34 182.087 57.85 182.087 57.29C182.087 56.7113 182.007 56.2167 181.849 55.806C181.69 55.3953 181.457 55.0827 181.149 54.868C180.85 54.644 180.481 54.532 180.043 54.532C179.389 54.532 178.867 54.7793 178.475 55.274C178.092 55.7593 177.901 56.4313 177.901 57.29C177.901 58.1393 178.092 58.8113 178.475 59.306C178.867 59.8007 179.389 60.048 180.043 60.048Z" fill="#171717"/>
</g>
<g filter="url(#filter7_dd_2024_1702)">
<rect x="196.5" y="41" width="36" height="30" rx="15" fill="white"/>
<path d="M208.378 61L204.78 51.06H206.096L209.176 59.684L212.242 51.06H213.558L209.96 61H208.378ZM214.811 61V51.06H216.015V61H214.811ZM217.37 61L220.632 56.016L217.398 51.06H218.826L221.416 55.064L223.978 51.06H225.378L222.144 55.988L225.434 61H224.006L221.388 56.94L218.77 61H217.37Z" fill="#171717"/>
</g>
<g filter="url(#filter8_dd_2024_1702)">
<rect x="41.5" y="77" width="54" height="30" rx="15" fill="white"/>
<path d="M49.892 97V95.768L55.212 88.236H50.074V87.06H56.584V88.292L51.264 95.824H56.724V97H49.892ZM57.4578 93.472V92.366H62.0918V93.472H57.4578ZM65.4085 97V88.236H62.3145V87.06H69.7065V88.236H66.6125V97H65.4085ZM72.768 97.168C72.068 97.168 71.4613 97.0093 70.948 96.692C70.444 96.3747 70.052 95.9267 69.772 95.348C69.5013 94.76 69.366 94.074 69.366 93.29C69.366 92.506 69.5013 91.8247 69.772 91.246C70.052 90.6673 70.4393 90.2193 70.934 89.902C71.438 89.5753 72.0307 89.412 72.712 89.412C73.356 89.412 73.9253 89.566 74.42 89.874C74.9147 90.1727 75.2973 90.6113 75.568 91.19C75.848 91.7687 75.988 92.4733 75.988 93.304V93.654H70.598C70.6447 94.4473 70.8547 95.0447 71.228 95.446C71.6107 95.8473 72.124 96.048 72.768 96.048C73.2533 96.048 73.65 95.936 73.958 95.712C74.2753 95.4787 74.4947 95.1753 74.616 94.802L75.876 94.9C75.68 95.5627 75.3067 96.1087 74.756 96.538C74.2147 96.958 73.552 97.168 72.768 97.168ZM70.598 92.618H74.7C74.644 91.8993 74.434 91.372 74.07 91.036C73.7153 90.7 73.2627 90.532 72.712 90.532C72.1427 90.532 71.6713 90.7093 71.298 91.064C70.934 91.4093 70.7007 91.9273 70.598 92.618ZM80.2829 97.168C79.6203 97.168 79.0556 97.0607 78.5889 96.846C78.1316 96.6313 77.7723 96.3373 77.5109 95.964C77.2589 95.5813 77.1143 95.1473 77.0769 94.662L78.3089 94.578C78.3836 95.026 78.5749 95.3853 78.8829 95.656C79.1909 95.9173 79.6576 96.048 80.2829 96.048C80.7869 96.048 81.1883 95.9687 81.4869 95.81C81.7949 95.642 81.9489 95.376 81.9489 95.012C81.9489 94.816 81.9023 94.6527 81.8089 94.522C81.7156 94.3913 81.5336 94.2793 81.2629 94.186C80.9923 94.0833 80.5909 93.9853 80.0589 93.892C79.3496 93.7613 78.7896 93.6027 78.3789 93.416C77.9776 93.22 77.6883 92.982 77.5109 92.702C77.3429 92.4127 77.2589 92.072 77.2589 91.68C77.2589 91.0173 77.5016 90.476 77.9869 90.056C78.4723 89.6267 79.1629 89.412 80.0589 89.412C80.6656 89.412 81.1743 89.524 81.5849 89.748C82.0049 89.9627 82.3316 90.252 82.5649 90.616C82.8076 90.9707 82.9663 91.3627 83.0409 91.792L81.8089 91.876C81.7529 91.6147 81.6503 91.386 81.5009 91.19C81.3516 90.9847 81.1556 90.826 80.9129 90.714C80.6703 90.5927 80.3809 90.532 80.0449 90.532C79.5129 90.532 79.1209 90.6347 78.8689 90.84C78.6169 91.0453 78.4909 91.3067 78.4909 91.624C78.4909 91.8667 78.5469 92.0673 78.6589 92.226C78.7803 92.3753 78.9716 92.5013 79.2329 92.604C79.4943 92.6973 79.8443 92.7813 80.2829 92.856C81.0389 92.9867 81.6269 93.1453 82.0469 93.332C82.4669 93.5187 82.7609 93.7473 82.9289 94.018C83.0969 94.2887 83.1809 94.62 83.1809 95.012C83.1809 95.4693 83.0503 95.8613 82.7889 96.188C82.5369 96.5053 82.1916 96.748 81.7529 96.916C81.3236 97.084 80.8336 97.168 80.2829 97.168ZM87.2149 97C86.5429 97 86.0436 96.846 85.7169 96.538C85.3996 96.23 85.2409 95.7493 85.2409 95.096V87.844H86.4169V95.068C86.4169 95.404 86.4916 95.6373 86.6409 95.768C86.7902 95.8987 87.0189 95.964 87.3269 95.964H88.3909V97H87.2149ZM84.1489 90.616V89.58H88.3909V90.616H84.1489Z" fill="#171717"/>
</g>
<g filter="url(#filter9_dd_2024_1702)">
<rect x="101.5" y="77" width="51" height="30" rx="15" fill="white"/>
<path d="M109.78 97L113.364 87.06H114.988L118.572 97H117.256L116.262 94.172H112.09L111.096 97H109.78ZM112.496 92.996H115.856L114.176 88.11L112.496 92.996ZM121.154 97C120.725 97 120.375 96.888 120.104 96.664C119.833 96.44 119.698 96.0853 119.698 95.6V87.06H120.874V95.502C120.874 95.6513 120.911 95.768 120.986 95.852C121.07 95.9267 121.187 95.964 121.336 95.964H121.98V97H121.154ZM123.376 99.1V89.58H124.468L124.496 91.176L124.328 91.092C124.515 90.5413 124.823 90.126 125.252 89.846C125.691 89.5567 126.195 89.412 126.764 89.412C127.501 89.412 128.103 89.594 128.57 89.958C129.046 90.322 129.396 90.798 129.62 91.386C129.853 91.974 129.97 92.6087 129.97 93.29C129.97 93.9713 129.853 94.606 129.62 95.194C129.396 95.782 129.046 96.258 128.57 96.622C128.103 96.986 127.501 97.168 126.764 97.168C126.381 97.168 126.022 97.1027 125.686 96.972C125.359 96.8413 125.079 96.6593 124.846 96.426C124.622 96.1927 124.468 95.9173 124.384 95.6L124.552 95.404V99.1H123.376ZM126.652 96.048C127.296 96.048 127.805 95.8053 128.178 95.32C128.551 94.8347 128.738 94.158 128.738 93.29C128.738 92.422 128.551 91.7453 128.178 91.26C127.805 90.7747 127.296 90.532 126.652 90.532C126.223 90.532 125.849 90.6347 125.532 90.84C125.224 91.0453 124.981 91.3533 124.804 91.764C124.636 92.1747 124.552 92.6833 124.552 93.29C124.552 93.8967 124.636 94.4053 124.804 94.816C124.972 95.2267 125.215 95.5347 125.532 95.74C125.849 95.9453 126.223 96.048 126.652 96.048ZM131.565 97V87.06H132.741V91.218L132.601 91.19C132.695 90.7793 132.853 90.4433 133.077 90.182C133.301 89.9207 133.577 89.7293 133.903 89.608C134.23 89.4773 134.589 89.412 134.981 89.412C135.513 89.412 135.961 89.5333 136.325 89.776C136.699 90.0093 136.979 90.3407 137.165 90.77C137.361 91.19 137.459 91.6753 137.459 92.226V97H136.283V92.562C136.283 91.8433 136.153 91.3113 135.891 90.966C135.639 90.6207 135.252 90.448 134.729 90.448C134.132 90.448 133.651 90.63 133.287 90.994C132.923 91.358 132.741 91.8853 132.741 92.576V97H131.565ZM141.565 97.168C140.8 97.168 140.189 96.9907 139.731 96.636C139.283 96.2813 139.059 95.7867 139.059 95.152C139.059 94.5173 139.246 94.018 139.619 93.654C139.993 93.29 140.585 93.0333 141.397 92.884L144.029 92.394C144.029 91.7687 143.88 91.302 143.581 90.994C143.292 90.686 142.853 90.532 142.265 90.532C141.752 90.532 141.346 90.6487 141.047 90.882C140.749 91.106 140.543 91.4327 140.431 91.862L139.185 91.764C139.325 91.064 139.661 90.4993 140.193 90.07C140.735 89.6313 141.425 89.412 142.265 89.412C143.217 89.412 143.945 89.6827 144.449 90.224C144.953 90.756 145.205 91.4933 145.205 92.436V95.502C145.205 95.67 145.233 95.7913 145.289 95.866C145.355 95.9313 145.457 95.964 145.597 95.964H145.891V97C145.854 97.0093 145.793 97.014 145.709 97.014C145.625 97.0233 145.537 97.028 145.443 97.028C145.107 97.028 144.832 96.9767 144.617 96.874C144.412 96.762 144.263 96.594 144.169 96.37C144.076 96.1367 144.029 95.8333 144.029 95.46L144.169 95.488C144.104 95.8053 143.945 96.0947 143.693 96.356C143.441 96.608 143.129 96.8087 142.755 96.958C142.382 97.098 141.985 97.168 141.565 97.168ZM141.677 96.132C142.172 96.132 142.592 96.0387 142.937 95.852C143.292 95.656 143.563 95.3947 143.749 95.068C143.936 94.732 144.029 94.3587 144.029 93.948V93.416L141.621 93.864C141.117 93.9573 140.767 94.102 140.571 94.298C140.385 94.4847 140.291 94.732 140.291 95.04C140.291 95.3853 140.413 95.656 140.655 95.852C140.907 96.0387 141.248 96.132 141.677 96.132Z" fill="#171717"/>
</g>
<g filter="url(#filter10_dd_2024_1702)">
<rect x="158.5" y="77" width="44" height="30" rx="15" fill="white"/>
<path d="M167.788 97V87.06H171.204C172.38 87.06 173.262 87.2747 173.85 87.704C174.438 88.1333 174.732 88.81 174.732 89.734C174.732 90.1633 174.639 90.5413 174.452 90.868C174.265 91.1947 173.999 91.4513 173.654 91.638C173.309 91.8153 172.898 91.904 172.422 91.904L172.408 91.82C173.257 91.82 173.925 92.0487 174.41 92.506C174.905 92.954 175.152 93.542 175.152 94.27C175.152 95.1753 174.858 95.8567 174.27 96.314C173.682 96.7713 172.847 97 171.764 97H167.788ZM168.992 95.824H171.764C172.445 95.824 172.968 95.684 173.332 95.404C173.705 95.124 173.892 94.7227 173.892 94.2C173.892 93.6773 173.705 93.2713 173.332 92.982C172.968 92.6833 172.445 92.534 171.764 92.534H168.992V95.824ZM168.992 91.358H171.204C171.932 91.358 172.492 91.2227 172.884 90.952C173.276 90.672 173.472 90.2847 173.472 89.79C173.472 89.2673 173.281 88.88 172.898 88.628C172.525 88.3667 171.96 88.236 171.204 88.236H168.992V91.358ZM180.006 97.168C179.306 97.168 178.7 97.0093 178.186 96.692C177.682 96.3747 177.29 95.9267 177.01 95.348C176.74 94.76 176.604 94.074 176.604 93.29C176.604 92.506 176.74 91.8247 177.01 91.246C177.29 90.6673 177.678 90.2193 178.172 89.902C178.676 89.5753 179.269 89.412 179.95 89.412C180.594 89.412 181.164 89.566 181.658 89.874C182.153 90.1727 182.536 90.6113 182.806 91.19C183.086 91.7687 183.226 92.4733 183.226 93.304V93.654H177.836C177.883 94.4473 178.093 95.0447 178.466 95.446C178.849 95.8473 179.362 96.048 180.006 96.048C180.492 96.048 180.888 95.936 181.196 95.712C181.514 95.4787 181.733 95.1753 181.854 94.802L183.114 94.9C182.918 95.5627 182.545 96.1087 181.994 96.538C181.453 96.958 180.79 97.168 180.006 97.168ZM177.836 92.618H181.938C181.882 91.8993 181.672 91.372 181.308 91.036C180.954 90.7 180.501 90.532 179.95 90.532C179.381 90.532 178.91 90.7093 178.536 91.064C178.172 91.4093 177.939 91.9273 177.836 92.618ZM187.248 97C186.576 97 186.077 96.846 185.75 96.538C185.433 96.23 185.274 95.7493 185.274 95.096V87.844H186.45V95.068C186.45 95.404 186.525 95.6373 186.674 95.768C186.823 95.8987 187.052 95.964 187.36 95.964H188.424V97H187.248ZM184.182 90.616V89.58H188.424V90.616H184.182ZM191.88 97.168C191.114 97.168 190.503 96.9907 190.046 96.636C189.598 96.2813 189.374 95.7867 189.374 95.152C189.374 94.5173 189.56 94.018 189.934 93.654C190.307 93.29 190.9 93.0333 191.712 92.884L194.344 92.394C194.344 91.7687 194.194 91.302 193.896 90.994C193.606 90.686 193.168 90.532 192.58 90.532C192.066 90.532 191.66 90.6487 191.362 90.882C191.063 91.106 190.858 91.4327 190.746 91.862L189.5 91.764C189.64 91.064 189.976 90.4993 190.508 90.07C191.049 89.6313 191.74 89.412 192.58 89.412C193.532 89.412 194.26 89.6827 194.764 90.224C195.268 90.756 195.52 91.4933 195.52 92.436V95.502C195.52 95.67 195.548 95.7913 195.604 95.866C195.669 95.9313 195.772 95.964 195.912 95.964H196.206V97C196.168 97.0093 196.108 97.014 196.024 97.014C195.94 97.0233 195.851 97.028 195.758 97.028C195.422 97.028 195.146 96.9767 194.932 96.874C194.726 96.762 194.577 96.594 194.484 96.37C194.39 96.1367 194.344 95.8333 194.344 95.46L194.484 95.488C194.418 95.8053 194.26 96.0947 194.008 96.356C193.756 96.608 193.443 96.8087 193.07 96.958C192.696 97.098 192.3 97.168 191.88 97.168ZM191.992 96.132C192.486 96.132 192.906 96.0387 193.252 95.852C193.606 95.656 193.877 95.3947 194.064 95.068C194.25 94.732 194.344 94.3587 194.344 93.948V93.416L191.936 93.864C191.432 93.9573 191.082 94.102 190.886 94.298C190.699 94.4847 190.606 94.732 190.606 95.04C190.606 95.3853 190.727 95.656 190.97 95.852C191.222 96.0387 191.562 96.132 191.992 96.132Z" fill="#171717"/>
</g>
<defs>
<filter id="filter0_dd_2024_1702" x="0" y="0" width="53" height="42" filterUnits="userSpaceOnUse" color-interpolation-filters="sRGB">
<feFlood flood-opacity="0" result="BackgroundImageFix"/>
<feColorMatrix in="SourceAlpha" type="matrix" values="0 0 0 0 0 0 0 0 0 0 0 0 0 0 0 0 0 0 127 0" result="hardAlpha"/>
<feMorphology radius="1" operator="dilate" in="SourceAlpha" result="effect1_dropShadow_2024_1702"/>
<feOffset/>
<feColorMatrix type="matrix" values="0 0 0 0 0.0431373 0 0 0 0 0.0431373 0 0 0 0 0.0431373 0 0 0 0.05 0"/>
<feBlend mode="normal" in2="BackgroundImageFix" result="effect1_dropShadow_2024_1702"/>
<feColorMatrix in="SourceAlpha" type="matrix" values="0 0 0 0 0 0 0 0 0 0 0 0 0 0 0 0 0 0 127 0" result="hardAlpha"/>
<feOffset dy="1"/>
<feGaussianBlur stdDeviation="3"/>
<feColorMatrix type="matrix" values="0 0 0 0 0.0431373 0 0 0 0 0.0431373 0 0 0 0 0.0431373 0 0 0 0.06 0"/>
<feBlend mode="normal" in2="effect1_dropShadow_2024_1702" result="effect2_dropShadow_2024_1702"/>
<feBlend mode="normal" in="SourceGraphic" in2="effect2_dropShadow_2024_1702" result="shape"/>
</filter>
<filter id="filter1_dd_2024_1702" x="47" y="0" width="60" height="42" filterUnits="userSpaceOnUse" color-interpolation-filters="sRGB">
<feFlood flood-opacity="0" result="BackgroundImageFix"/>
<feColorMatrix in="SourceAlpha" type="matrix" values="0 0 0 0 0 0 0 0 0 0 0 0 0 0 0 0 0 0 127 0" result="hardAlpha"/>
<feMorphology radius="1" operator="dilate" in="SourceAlpha" result="effect1_dropShadow_2024_1702"/>
<feOffset/>
<feColorMatrix type="matrix" values="0 0 0 0 0.0431373 0 0 0 0 0.0431373 0 0 0 0 0.0431373 0 0 0 0.05 0"/>
<feBlend mode="normal" in2="BackgroundImageFix" result="effect1_dropShadow_2024_1702"/>
<feColorMatrix in="SourceAlpha" type="matrix" values="0 0 0 0 0 0 0 0 0 0 0 0 0 0 0 0 0 0 127 0" result="hardAlpha"/>
<feOffset dy="1"/>
<feGaussianBlur stdDeviation="3"/>
<feColorMatrix type="matrix" values="0 0 0 0 0.0431373 0 0 0 0 0.0431373 0 0 0 0 0.0431373 0 0 0 0.06 0"/>
<feBlend mode="normal" in2="effect1_dropShadow_2024_1702" result="effect2_dropShadow_2024_1702"/>
<feBlend mode="normal" in="SourceGraphic" in2="effect2_dropShadow_2024_1702" result="shape"/>
</filter>
<filter id="filter2_dd_2024_1702" x="101" y="0" width="85" height="42" filterUnits="userSpaceOnUse" color-interpolation-filters="sRGB">
<feFlood flood-opacity="0" result="BackgroundImageFix"/>
<feColorMatrix in="SourceAlpha" type="matrix" values="0 0 0 0 0 0 0 0 0 0 0 0 0 0 0 0 0 0 127 0" result="hardAlpha"/>
<feMorphology radius="1" operator="dilate" in="SourceAlpha" result="effect1_dropShadow_2024_1702"/>
<feOffset/>
<feColorMatrix type="matrix" values="0 0 0 0 0.0431373 0 0 0 0 0.0431373 0 0 0 0 0.0431373 0 0 0 0.05 0"/>
<feBlend mode="normal" in2="BackgroundImageFix" result="effect1_dropShadow_2024_1702"/>
<feColorMatrix in="SourceAlpha" type="matrix" values="0 0 0 0 0 0 0 0 0 0 0 0 0 0 0 0 0 0 127 0" result="hardAlpha"/>
<feOffset dy="1"/>
<feGaussianBlur stdDeviation="3"/>
<feColorMatrix type="matrix" values="0 0 0 0 0.0431373 0 0 0 0 0.0431373 0 0 0 0 0.0431373 0 0 0 0.06 0"/>
<feBlend mode="normal" in2="effect1_dropShadow_2024_1702" result="effect2_dropShadow_2024_1702"/>
<feBlend mode="normal" in="SourceGraphic" in2="effect2_dropShadow_2024_1702" result="shape"/>
</filter>
<filter id="filter3_dd_2024_1702" x="180" y="0" width="64" height="42" filterUnits="userSpaceOnUse" color-interpolation-filters="sRGB">
<feFlood flood-opacity="0" result="BackgroundImageFix"/>
<feColorMatrix in="SourceAlpha" type="matrix" values="0 0 0 0 0 0 0 0 0 0 0 0 0 0 0 0 0 0 127 0" result="hardAlpha"/>
<feMorphology radius="1" operator="dilate" in="SourceAlpha" result="effect1_dropShadow_2024_1702"/>
<feOffset/>
<feColorMatrix type="matrix" values="0 0 0 0 0.0431373 0 0 0 0 0.0431373 0 0 0 0 0.0431373 0 0 0 0.05 0"/>
<feBlend mode="normal" in2="BackgroundImageFix" result="effect1_dropShadow_2024_1702"/>
<feColorMatrix in="SourceAlpha" type="matrix" values="0 0 0 0 0 0 0 0 0 0 0 0 0 0 0 0 0 0 127 0" result="hardAlpha"/>
<feOffset dy="1"/>
<feGaussianBlur stdDeviation="3"/>
<feColorMatrix type="matrix" values="0 0 0 0 0.0431373 0 0 0 0 0.0431373 0 0 0 0 0.0431373 0 0 0 0.06 0"/>
<feBlend mode="normal" in2="effect1_dropShadow_2024_1702" result="effect2_dropShadow_2024_1702"/>
<feBlend mode="normal" in="SourceGraphic" in2="effect2_dropShadow_2024_1702" result="shape"/>
</filter>
<filter id="filter4_dd_2024_1702" x="5.5" y="36" width="55" height="42" filterUnits="userSpaceOnUse" color-interpolation-filters="sRGB">
<feFlood flood-opacity="0" result="BackgroundImageFix"/>
<feColorMatrix in="SourceAlpha" type="matrix" values="0 0 0 0 0 0 0 0 0 0 0 0 0 0 0 0 0 0 127 0" result="hardAlpha"/>
<feMorphology radius="1" operator="dilate" in="SourceAlpha" result="effect1_dropShadow_2024_1702"/>
<feOffset/>
<feColorMatrix type="matrix" values="0 0 0 0 0.0431373 0 0 0 0 0.0431373 0 0 0 0 0.0431373 0 0 0 0.05 0"/>
<feBlend mode="normal" in2="BackgroundImageFix" result="effect1_dropShadow_2024_1702"/>
<feColorMatrix in="SourceAlpha" type="matrix" values="0 0 0 0 0 0 0 0 0 0 0 0 0 0 0 0 0 0 127 0" result="hardAlpha"/>
<feOffset dy="1"/>
<feGaussianBlur stdDeviation="3"/>
<feColorMatrix type="matrix" values="0 0 0 0 0.0431373 0 0 0 0 0.0431373 0 0 0 0 0.0431373 0 0 0 0.06 0"/>
<feBlend mode="normal" in2="effect1_dropShadow_2024_1702" result="effect2_dropShadow_2024_1702"/>
<feBlend mode="normal" in="SourceGraphic" in2="effect2_dropShadow_2024_1702" result="shape"/>
</filter>
<filter id="filter5_dd_2024_1702" x="54.5" y="36" width="53" height="42" filterUnits="userSpaceOnUse" color-interpolation-filters="sRGB">
<feFlood flood-opacity="0" result="BackgroundImageFix"/>
<feColorMatrix in="SourceAlpha" type="matrix" values="0 0 0 0 0 0 0 0 0 0 0 0 0 0 0 0 0 0 127 0" result="hardAlpha"/>
<feMorphology radius="1" operator="dilate" in="SourceAlpha" result="effect1_dropShadow_2024_1702"/>
<feOffset/>
<feColorMatrix type="matrix" values="0 0 0 0 0.0431373 0 0 0 0 0.0431373 0 0 0 0 0.0431373 0 0 0 0.05 0"/>
<feBlend mode="normal" in2="BackgroundImageFix" result="effect1_dropShadow_2024_1702"/>
<feColorMatrix in="SourceAlpha" type="matrix" values="0 0 0 0 0 0 0 0 0 0 0 0 0 0 0 0 0 0 127 0" result="hardAlpha"/>
<feOffset dy="1"/>
<feGaussianBlur stdDeviation="3"/>
<feColorMatrix type="matrix" values="0 0 0 0 0.0431373 0 0 0 0 0.0431373 0 0 0 0 0.0431373 0 0 0 0.06 0"/>
<feBlend mode="normal" in2="effect1_dropShadow_2024_1702" result="effect2_dropShadow_2024_1702"/>
<feBlend mode="normal" in="SourceGraphic" in2="effect2_dropShadow_2024_1702" result="shape"/>
</filter>
<filter id="filter6_dd_2024_1702" x="101.5" y="36" width="95" height="42" filterUnits="userSpaceOnUse" color-interpolation-filters="sRGB">
<feFlood flood-opacity="0" result="BackgroundImageFix"/>
<feColorMatrix in="SourceAlpha" type="matrix" values="0 0 0 0 0 0 0 0 0 0 0 0 0 0 0 0 0 0 127 0" result="hardAlpha"/>
<feMorphology radius="1" operator="dilate" in="SourceAlpha" result="effect1_dropShadow_2024_1702"/>
<feOffset/>
<feColorMatrix type="matrix" values="0 0 0 0 0.0431373 0 0 0 0 0.0431373 0 0 0 0 0.0431373 0 0 0 0.05 0"/>
<feBlend mode="normal" in2="BackgroundImageFix" result="effect1_dropShadow_2024_1702"/>
<feColorMatrix in="SourceAlpha" type="matrix" values="0 0 0 0 0 0 0 0 0 0 0 0 0 0 0 0 0 0 127 0" result="hardAlpha"/>
<feOffset dy="1"/>
<feGaussianBlur stdDeviation="3"/>
<feColorMatrix type="matrix" values="0 0 0 0 0.0431373 0 0 0 0 0.0431373 0 0 0 0 0.0431373 0 0 0 0.06 0"/>
<feBlend mode="normal" in2="effect1_dropShadow_2024_1702" result="effect2_dropShadow_2024_1702"/>
<feBlend mode="normal" in="SourceGraphic" in2="effect2_dropShadow_2024_1702" result="shape"/>
</filter>
<filter id="filter7_dd_2024_1702" x="190.5" y="36" width="48" height="42" filterUnits="userSpaceOnUse" color-interpolation-filters="sRGB">
<feFlood flood-opacity="0" result="BackgroundImageFix"/>
<feColorMatrix in="SourceAlpha" type="matrix" values="0 0 0 0 0 0 0 0 0 0 0 0 0 0 0 0 0 0 127 0" result="hardAlpha"/>
<feMorphology radius="1" operator="dilate" in="SourceAlpha" result="effect1_dropShadow_2024_1702"/>
<feOffset/>
<feColorMatrix type="matrix" values="0 0 0 0 0.0431373 0 0 0 0 0.0431373 0 0 0 0 0.0431373 0 0 0 0.05 0"/>
<feBlend mode="normal" in2="BackgroundImageFix" result="effect1_dropShadow_2024_1702"/>
<feColorMatrix in="SourceAlpha" type="matrix" values="0 0 0 0 0 0 0 0 0 0 0 0 0 0 0 0 0 0 127 0" result="hardAlpha"/>
<feOffset dy="1"/>
<feGaussianBlur stdDeviation="3"/>
<feColorMatrix type="matrix" values="0 0 0 0 0.0431373 0 0 0 0 0.0431373 0 0 0 0 0.0431373 0 0 0 0.06 0"/>
<feBlend mode="normal" in2="effect1_dropShadow_2024_1702" result="effect2_dropShadow_2024_1702"/>
<feBlend mode="normal" in="SourceGraphic" in2="effect2_dropShadow_2024_1702" result="shape"/>
</filter>
<filter id="filter8_dd_2024_1702" x="35.5" y="72" width="66" height="42" filterUnits="userSpaceOnUse" color-interpolation-filters="sRGB">
<feFlood flood-opacity="0" result="BackgroundImageFix"/>
<feColorMatrix in="SourceAlpha" type="matrix" values="0 0 0 0 0 0 0 0 0 0 0 0 0 0 0 0 0 0 127 0" result="hardAlpha"/>
<feMorphology radius="1" operator="dilate" in="SourceAlpha" result="effect1_dropShadow_2024_1702"/>
<feOffset/>
<feColorMatrix type="matrix" values="0 0 0 0 0.0431373 0 0 0 0 0.0431373 0 0 0 0 0.0431373 0 0 0 0.05 0"/>
<feBlend mode="normal" in2="BackgroundImageFix" result="effect1_dropShadow_2024_1702"/>
<feColorMatrix in="SourceAlpha" type="matrix" values="0 0 0 0 0 0 0 0 0 0 0 0 0 0 0 0 0 0 127 0" result="hardAlpha"/>
<feOffset dy="1"/>
<feGaussianBlur stdDeviation="3"/>
<feColorMatrix type="matrix" values="0 0 0 0 0.0431373 0 0 0 0 0.0431373 0 0 0 0 0.0431373 0 0 0 0.06 0"/>
<feBlend mode="normal" in2="effect1_dropShadow_2024_1702" result="effect2_dropShadow_2024_1702"/>
<feBlend mode="normal" in="SourceGraphic" in2="effect2_dropShadow_2024_1702" result="shape"/>
</filter>
<filter id="filter9_dd_2024_1702" x="95.5" y="72" width="63" height="42" filterUnits="userSpaceOnUse" color-interpolation-filters="sRGB">
<feFlood flood-opacity="0" result="BackgroundImageFix"/>
<feColorMatrix in="SourceAlpha" type="matrix" values="0 0 0 0 0 0 0 0 0 0 0 0 0 0 0 0 0 0 127 0" result="hardAlpha"/>
<feMorphology radius="1" operator="dilate" in="SourceAlpha" result="effect1_dropShadow_2024_1702"/>
<feOffset/>
<feColorMatrix type="matrix" values="0 0 0 0 0.0431373 0 0 0 0 0.0431373 0 0 0 0 0.0431373 0 0 0 0.05 0"/>
<feBlend mode="normal" in2="BackgroundImageFix" result="effect1_dropShadow_2024_1702"/>
<feColorMatrix in="SourceAlpha" type="matrix" values="0 0 0 0 0 0 0 0 0 0 0 0 0 0 0 0 0 0 127 0" result="hardAlpha"/>
<feOffset dy="1"/>
<feGaussianBlur stdDeviation="3"/>
<feColorMatrix type="matrix" values="0 0 0 0 0.0431373 0 0 0 0 0.0431373 0 0 0 0 0.0431373 0 0 0 0.06 0"/>
<feBlend mode="normal" in2="effect1_dropShadow_2024_1702" result="effect2_dropShadow_2024_1702"/>
<feBlend mode="normal" in="SourceGraphic" in2="effect2_dropShadow_2024_1702" result="shape"/>
</filter>
<filter id="filter10_dd_2024_1702" x="152.5" y="72" width="56" height="42" filterUnits="userSpaceOnUse" color-interpolation-filters="sRGB">
<feFlood flood-opacity="0" result="BackgroundImageFix"/>
<feColorMatrix in="SourceAlpha" type="matrix" values="0 0 0 0 0 0 0 0 0 0 0 0 0 0 0 0 0 0 127 0" result="hardAlpha"/>
<feMorphology radius="1" operator="dilate" in="SourceAlpha" result="effect1_dropShadow_2024_1702"/>
<feOffset/>
<feColorMatrix type="matrix" values="0 0 0 0 0.0431373 0 0 0 0 0.0431373 0 0 0 0 0.0431373 0 0 0 0.05 0"/>
<feBlend mode="normal" in2="BackgroundImageFix" result="effect1_dropShadow_2024_1702"/>
<feColorMatrix in="SourceAlpha" type="matrix" values="0 0 0 0 0 0 0 0 0 0 0 0 0 0 0 0 0 0 127 0" result="hardAlpha"/>
<feOffset dy="1"/>
<feGaussianBlur stdDeviation="3"/>
<feColorMatrix type="matrix" values="0 0 0 0 0.0431373 0 0 0 0 0.0431373 0 0 0 0 0.0431373 0 0 0 0.06 0"/>
<feBlend mode="normal" in2="effect1_dropShadow_2024_1702" result="effect2_dropShadow_2024_1702"/>
<feBlend mode="normal" in="SourceGraphic" in2="effect2_dropShadow_2024_1702" result="shape"/>
</filter>
</defs>
</svg>
