<svg width="193" height="114" viewBox="0 0 193 114" fill="none" xmlns="http://www.w3.org/2000/svg">
<g filter="url(#filter0_dd_468_49282)">
<rect x="-19" y="5" width="41" height="30" rx="15" fill="white"/>
<path d="M-5.904 25.224C-6.79067 25.224 -7.57 25.0187 -8.242 24.608C-8.914 24.188 -9.43667 23.5907 -9.81 22.816C-10.1833 22.0413 -10.37 21.1173 -10.37 20.044C-10.37 18.9707 -10.1833 18.0467 -9.81 17.272C-9.43667 16.488 -8.914 15.886 -8.242 15.466C-7.57 15.046 -6.79067 14.836 -5.904 14.836C-4.7 14.836 -3.76667 15.1393 -3.104 15.746C-2.44133 16.3527 -2.00733 17.1787 -1.802 18.224L-3.076 18.308C-3.216 17.5987 -3.51467 17.0387 -3.972 16.628C-4.42933 16.2173 -5.07333 16.012 -5.904 16.012C-6.53867 16.012 -7.09867 16.1753 -7.584 16.502C-8.06 16.8193 -8.43333 17.2813 -8.704 17.888C-8.97467 18.4853 -9.11 19.204 -9.11 20.044C-9.11 20.884 -8.97467 21.6027 -8.704 22.2C-8.43333 22.7973 -8.06 23.2547 -7.584 23.572C-7.09867 23.8893 -6.53867 24.048 -5.904 24.048C-5.036 24.048 -4.364 23.824 -3.888 23.376C-3.412 22.9187 -3.11333 22.3027 -2.992 21.528L-1.718 21.612C-1.83933 22.3307 -2.07733 22.9607 -2.432 23.502C-2.78667 24.0433 -3.258 24.468 -3.846 24.776C-4.42467 25.0747 -5.11067 25.224 -5.904 25.224ZM0.159094 25V15.06H6.40309V16.236H0.761094L1.36309 15.62V20.184L0.761094 19.568H6.15109V20.716H0.761094L1.36309 20.1V25H0.159094ZM6.28781 25L9.87181 15.06H11.4958L15.0798 25H13.7638L12.7698 22.172H8.59781L7.60381 25H6.28781ZM9.00381 20.996H12.3638L10.6838 16.11L9.00381 20.996Z" fill="#171717"/>
</g>
<g filter="url(#filter1_dd_468_49282)">
<rect x="28" y="5" width="48" height="30" rx="15" fill="white"/>
<path d="M41.474 25V22.844H36.42V21.752L41.39 15.06H42.678V21.668H43.91V22.844H42.678V25H41.474ZM37.876 21.668H41.474V16.908L37.876 21.668ZM49.2473 25.224C48.4446 25.224 47.7493 25.014 47.1613 24.594C46.5733 24.174 46.1159 23.5767 45.7893 22.802C45.4719 22.0273 45.3133 21.108 45.3133 20.044C45.3133 18.98 45.4719 18.0607 45.7893 17.286C46.1159 16.502 46.5733 15.9 47.1613 15.48C47.7493 15.0507 48.4446 14.836 49.2473 14.836C50.0593 14.836 50.7593 15.0507 51.3473 15.48C51.9353 15.9 52.3879 16.4973 52.7053 17.272C53.0319 18.0467 53.1953 18.9707 53.1953 20.044C53.1953 21.108 53.0319 22.0273 52.7053 22.802C52.3879 23.5767 51.9353 24.174 51.3473 24.594C50.7593 25.014 50.0593 25.224 49.2473 25.224ZM49.2473 24.048C50.1059 24.048 50.7686 23.7027 51.2353 23.012C51.7019 22.312 51.9353 21.3227 51.9353 20.044C51.9353 19.1853 51.8279 18.4573 51.6133 17.86C51.4079 17.2533 51.1046 16.796 50.7033 16.488C50.3113 16.1707 49.8259 16.012 49.2473 16.012C48.6779 16.012 48.1926 16.1707 47.7913 16.488C47.3993 16.796 47.0959 17.2533 46.8813 17.86C46.6759 18.4573 46.5733 19.1853 46.5733 20.044C46.5733 21.3227 46.8066 22.312 47.2733 23.012C47.7399 23.7027 48.3979 24.048 49.2473 24.048ZM56.5285 25V17.636H54.4565V16.6H55.2965C55.6605 16.6 55.9498 16.5533 56.1645 16.46C56.3885 16.3667 56.5472 16.208 56.6405 15.984C56.7338 15.76 56.7805 15.452 56.7805 15.06H57.7325V25H56.5285ZM60.3895 25V15.06H61.5655V21.57L65.1775 17.58H66.7455L63.8195 20.73L66.8715 25H65.4435L63.0215 21.528L61.5655 23.068V25H60.3895Z" fill="#171717"/>
</g>
<g filter="url(#filter2_dd_468_49282)">
<rect x="82" y="5" width="73" height="30" rx="15" fill="white"/>
<path d="M94.368 25.224C93.668 25.224 93.0613 25.1073 92.548 24.874C92.044 24.6407 91.6427 24.314 91.344 23.894C91.0547 23.474 90.8867 22.9887 90.84 22.438L92.1 22.354C92.1747 22.914 92.4127 23.3387 92.814 23.628C93.2247 23.908 93.7427 24.048 94.368 24.048C95.068 24.048 95.6233 23.852 96.034 23.46C96.4447 23.0587 96.65 22.508 96.65 21.808C96.65 21.3413 96.5567 20.94 96.37 20.604C96.1927 20.2587 95.9313 19.9927 95.586 19.806C95.2407 19.6193 94.8253 19.526 94.34 19.526C93.8827 19.526 93.4673 19.624 93.094 19.82C92.7207 20.016 92.4547 20.2913 92.296 20.646H91.008L91.666 15.06H97.238V16.236H92.772L92.324 19.904L92.1 19.68C92.2493 19.3907 92.4453 19.1527 92.688 18.966C92.94 18.77 93.2247 18.6253 93.542 18.532C93.8687 18.4293 94.2093 18.378 94.564 18.378C95.2267 18.378 95.81 18.5273 96.314 18.826C96.818 19.1153 97.21 19.5213 97.49 20.044C97.77 20.5573 97.91 21.1453 97.91 21.808C97.91 22.4707 97.7607 23.0633 97.462 23.586C97.1633 24.0993 96.748 24.5007 96.216 24.79C95.684 25.0793 95.068 25.224 94.368 25.224ZM99.6037 25C99.6037 24.3 99.711 23.67 99.9257 23.11C100.15 22.5407 100.537 21.9993 101.088 21.486C101.648 20.9727 102.422 20.4547 103.412 19.932C103.869 19.6893 104.238 19.4653 104.518 19.26C104.798 19.0547 105.003 18.8353 105.134 18.602C105.264 18.3687 105.33 18.084 105.33 17.748C105.33 17.4027 105.255 17.104 105.106 16.852C104.956 16.5907 104.732 16.3853 104.434 16.236C104.144 16.0867 103.78 16.012 103.342 16.012C102.642 16.012 102.086 16.194 101.676 16.558C101.274 16.922 101.022 17.44 100.92 18.112L99.6597 18.028C99.7717 17.0573 100.145 16.2827 100.78 15.704C101.414 15.1253 102.268 14.836 103.342 14.836C104.023 14.836 104.606 14.9573 105.092 15.2C105.577 15.4427 105.946 15.7833 106.198 16.222C106.459 16.6513 106.59 17.1507 106.59 17.72C106.59 18.224 106.506 18.6627 106.338 19.036C106.17 19.4 105.885 19.7407 105.484 20.058C105.092 20.3753 104.55 20.716 103.86 21.08C102.964 21.556 102.282 22.0367 101.816 22.522C101.358 23.0073 101.116 23.4413 101.088 23.824H106.59V25H99.6037ZM111.464 25.224C110.642 25.224 109.97 25.0233 109.448 24.622C108.934 24.2113 108.584 23.698 108.398 23.082L109.672 22.984C109.784 23.32 109.989 23.5813 110.288 23.768C110.586 23.9547 110.978 24.048 111.464 24.048C112.294 24.048 112.929 23.7167 113.368 23.054C113.816 22.382 114.044 21.304 114.054 19.82L114.348 19.876C114.114 20.5013 113.755 20.9867 113.27 21.332C112.784 21.668 112.22 21.836 111.576 21.836C110.932 21.836 110.362 21.6913 109.868 21.402C109.373 21.1127 108.981 20.7067 108.692 20.184C108.412 19.6613 108.272 19.0547 108.272 18.364C108.272 17.636 108.421 17.0107 108.72 16.488C109.018 15.956 109.424 15.55 109.938 15.27C110.46 14.9807 111.058 14.836 111.73 14.836C112.56 14.836 113.237 15.0273 113.76 15.41C114.292 15.7927 114.684 16.3293 114.936 17.02C115.188 17.7013 115.314 18.5087 115.314 19.442C115.314 20.2727 115.248 21.0427 115.118 21.752C114.987 22.452 114.772 23.0633 114.474 23.586C114.175 24.0993 113.778 24.5007 113.284 24.79C112.798 25.0793 112.192 25.224 111.464 25.224ZM111.66 20.646C112.117 20.646 112.518 20.5573 112.864 20.38C113.209 20.2027 113.48 19.946 113.676 19.61C113.881 19.274 113.984 18.868 113.984 18.392C113.984 17.9347 113.89 17.5287 113.704 17.174C113.526 16.81 113.27 16.5253 112.934 16.32C112.598 16.1147 112.196 16.012 111.73 16.012C111.272 16.012 110.88 16.1147 110.554 16.32C110.227 16.516 109.975 16.7913 109.798 17.146C109.62 17.5007 109.532 17.9067 109.532 18.364C109.532 18.8307 109.62 19.2367 109.798 19.582C109.984 19.918 110.236 20.1793 110.554 20.366C110.871 20.5527 111.24 20.646 111.66 20.646ZM120.956 25V15.06H124.526C125.637 15.06 126.5 15.326 127.116 15.858C127.732 16.39 128.04 17.1273 128.04 18.07C128.04 18.7047 127.9 19.2553 127.62 19.722C127.34 20.1793 126.939 20.5293 126.416 20.772C125.893 21.0147 125.263 21.136 124.526 21.136H122.16V25H120.956ZM122.16 19.96H124.526C125.273 19.96 125.833 19.8013 126.206 19.484C126.589 19.1667 126.78 18.6953 126.78 18.07C126.78 17.4633 126.589 17.006 126.206 16.698C125.833 16.39 125.273 16.236 124.526 16.236H122.16V19.96ZM131.349 25C130.92 25 130.57 24.888 130.299 24.664C130.029 24.44 129.893 24.0853 129.893 23.6V15.06H131.069V23.502C131.069 23.6513 131.107 23.768 131.181 23.852C131.265 23.9267 131.382 23.964 131.531 23.964H132.175V25H131.349ZM135.628 25.168C134.863 25.168 134.251 24.9907 133.794 24.636C133.346 24.2813 133.122 23.7867 133.122 23.152C133.122 22.5173 133.309 22.018 133.682 21.654C134.055 21.29 134.648 21.0333 135.46 20.884L138.092 20.394C138.092 19.7687 137.943 19.302 137.644 18.994C137.355 18.686 136.916 18.532 136.328 18.532C135.815 18.532 135.409 18.6487 135.11 18.882C134.811 19.106 134.606 19.4327 134.494 19.862L133.248 19.764C133.388 19.064 133.724 18.4993 134.256 18.07C134.797 17.6313 135.488 17.412 136.328 17.412C137.28 17.412 138.008 17.6827 138.512 18.224C139.016 18.756 139.268 19.4933 139.268 20.436V23.502C139.268 23.67 139.296 23.7913 139.352 23.866C139.417 23.9313 139.52 23.964 139.66 23.964H139.954V25C139.917 25.0093 139.856 25.014 139.772 25.014C139.688 25.0233 139.599 25.028 139.506 25.028C139.17 25.028 138.895 24.9767 138.68 24.874C138.475 24.762 138.325 24.594 138.232 24.37C138.139 24.1367 138.092 23.8333 138.092 23.46L138.232 23.488C138.167 23.8053 138.008 24.0947 137.756 24.356C137.504 24.608 137.191 24.8087 136.818 24.958C136.445 25.098 136.048 25.168 135.628 25.168ZM135.74 24.132C136.235 24.132 136.655 24.0387 137 23.852C137.355 23.656 137.625 23.3947 137.812 23.068C137.999 22.732 138.092 22.3587 138.092 21.948V21.416L135.684 21.864C135.18 21.9573 134.83 22.102 134.634 22.298C134.447 22.4847 134.354 22.732 134.354 23.04C134.354 23.3853 134.475 23.656 134.718 23.852C134.97 24.0387 135.311 24.132 135.74 24.132ZM141.282 25V17.58H142.36L142.402 19.47L142.262 19.344C142.355 18.9053 142.519 18.546 142.752 18.266C142.985 17.9767 143.265 17.762 143.592 17.622C143.928 17.482 144.287 17.412 144.67 17.412C145.239 17.412 145.706 17.538 146.07 17.79C146.443 18.042 146.719 18.3827 146.896 18.812C147.083 19.232 147.176 19.7033 147.176 20.226V25H146V20.562C146 20.1047 145.944 19.722 145.832 19.414C145.729 19.0967 145.561 18.8587 145.328 18.7C145.095 18.532 144.791 18.448 144.418 18.448C143.849 18.448 143.377 18.63 143.004 18.994C142.64 19.3487 142.458 19.8713 142.458 20.562V25H141.282Z" fill="#171717"/>
</g>
<g filter="url(#filter3_dd_468_49282)">
<rect x="161" y="5" width="52" height="30" rx="15" fill="white"/>
<path d="M174.096 25.224C173.209 25.224 172.43 25.0187 171.758 24.608C171.086 24.188 170.563 23.5907 170.19 22.816C169.817 22.0413 169.63 21.1173 169.63 20.044C169.63 18.9707 169.817 18.0467 170.19 17.272C170.563 16.488 171.086 15.886 171.758 15.466C172.43 15.046 173.209 14.836 174.096 14.836C175.3 14.836 176.233 15.1393 176.896 15.746C177.559 16.3527 177.993 17.1787 178.198 18.224L176.924 18.308C176.784 17.5987 176.485 17.0387 176.028 16.628C175.571 16.2173 174.927 16.012 174.096 16.012C173.461 16.012 172.901 16.1753 172.416 16.502C171.94 16.8193 171.567 17.2813 171.296 17.888C171.025 18.4853 170.89 19.204 170.89 20.044C170.89 20.884 171.025 21.6027 171.296 22.2C171.567 22.7973 171.94 23.2547 172.416 23.572C172.901 23.8893 173.461 24.048 174.096 24.048C174.964 24.048 175.636 23.824 176.112 23.376C176.588 22.9187 176.887 22.3027 177.008 21.528L178.282 21.612C178.161 22.3307 177.923 22.9607 177.568 23.502C177.213 24.0433 176.742 24.468 176.154 24.776C175.575 25.0747 174.889 25.224 174.096 25.224ZM178.768 25L182.352 15.06H183.976L187.56 25H186.244L185.25 22.172H181.078L180.084 25H178.768ZM181.484 20.996H184.844L183.164 16.11L181.484 20.996ZM192.484 25.224C191.551 25.224 190.753 25 190.09 24.552C189.427 24.104 188.919 23.4927 188.564 22.718C188.219 21.934 188.046 21.0427 188.046 20.044C188.046 19.0453 188.223 18.154 188.578 17.37C188.933 16.586 189.441 15.97 190.104 15.522C190.776 15.0647 191.579 14.836 192.512 14.836C193.305 14.836 193.973 14.9807 194.514 15.27C195.065 15.5593 195.499 15.9513 195.816 16.446C196.143 16.9407 196.367 17.496 196.488 18.112L195.228 18.196C195.107 17.552 194.836 17.0293 194.416 16.628C193.996 16.2173 193.361 16.012 192.512 16.012C191.756 16.012 191.14 16.1987 190.664 16.572C190.197 16.9453 189.852 17.44 189.628 18.056C189.413 18.6627 189.306 19.3253 189.306 20.044C189.306 20.8 189.418 21.4813 189.642 22.088C189.866 22.6853 190.216 23.1613 190.692 23.516C191.168 23.8707 191.775 24.048 192.512 24.048C193.1 24.048 193.609 23.9173 194.038 23.656C194.467 23.3853 194.799 23.026 195.032 22.578C195.265 22.13 195.387 21.6447 195.396 21.122H192.54V19.974H196.516V25H195.62L195.536 22.704L195.704 22.9C195.592 23.348 195.377 23.7493 195.06 24.104C194.743 24.4493 194.36 24.7247 193.912 24.93C193.473 25.126 192.997 25.224 192.484 25.224ZM198.507 25V15.06H202.273C202.973 15.06 203.575 15.1813 204.079 15.424C204.583 15.6667 204.97 16.0167 205.241 16.474C205.521 16.922 205.661 17.454 205.661 18.07C205.661 18.518 205.553 18.9193 205.339 19.274C205.133 19.6193 204.867 19.8947 204.541 20.1C204.214 20.3053 203.873 20.4173 203.519 20.436L203.435 20.31C204.041 20.31 204.517 20.45 204.863 20.73C205.217 21.01 205.423 21.458 205.479 22.074L205.759 25H204.541L204.289 22.2C204.251 21.7893 204.102 21.486 203.841 21.29C203.589 21.094 203.173 20.996 202.595 20.996H199.711V25H198.507ZM199.711 19.82H202.427C203.033 19.82 203.514 19.666 203.869 19.358C204.223 19.05 204.401 18.6113 204.401 18.042C204.401 17.4633 204.219 17.02 203.855 16.712C203.491 16.3947 202.963 16.236 202.273 16.236H199.711V19.82Z" fill="#171717"/>
</g>
<g filter="url(#filter4_dd_468_49282)">
<rect x="-13.5" y="41" width="43" height="30" rx="15" fill="white"/>
<path d="M-0.432 61.224C-1.36533 61.224 -2.16333 61 -2.826 60.552C-3.48867 60.104 -3.99733 59.4927 -4.352 58.718C-4.69733 57.934 -4.87 57.0427 -4.87 56.044C-4.87 55.0453 -4.69267 54.154 -4.338 53.37C-3.98333 52.586 -3.47467 51.97 -2.812 51.522C-2.14 51.0647 -1.33733 50.836 -0.404 50.836C0.389334 50.836 1.05667 50.9807 1.598 51.27C2.14867 51.5593 2.58267 51.9513 2.9 52.446C3.22667 52.9407 3.45067 53.496 3.572 54.112L2.312 54.196C2.19067 53.552 1.92 53.0293 1.5 52.628C1.08 52.2173 0.445334 52.012 -0.404 52.012C-1.16 52.012 -1.776 52.1987 -2.252 52.572C-2.71867 52.9453 -3.064 53.44 -3.288 54.056C-3.50267 54.6627 -3.61 55.3253 -3.61 56.044C-3.61 56.8 -3.498 57.4813 -3.274 58.088C-3.05 58.6853 -2.7 59.1613 -2.224 59.516C-1.748 59.8707 -1.14133 60.048 -0.404 60.048C0.184 60.048 0.692667 59.9173 1.122 59.656C1.55133 59.3853 1.88267 59.026 2.116 58.578C2.34933 58.13 2.47067 57.6447 2.48 57.122H-0.376V55.974H3.6V61H2.704L2.62 58.704L2.788 58.9C2.676 59.348 2.46133 59.7493 2.144 60.104C1.82667 60.4493 1.444 60.7247 0.996 60.93C0.557334 61.126 0.0813337 61.224 -0.432 61.224ZM5.59073 61V51.06H8.67073C10.2014 51.06 11.3774 51.494 12.1987 52.362C13.0294 53.2207 13.4447 54.448 13.4447 56.044C13.4447 57.6307 13.0387 58.8533 12.2267 59.712C11.4147 60.5707 10.2574 61 8.75473 61H5.59073ZM6.79473 59.824H8.67073C9.8374 59.824 10.7147 59.5113 11.3027 58.886C11.8907 58.2513 12.1847 57.304 12.1847 56.044C12.1847 54.7653 11.8907 53.8133 11.3027 53.188C10.7147 52.5533 9.8374 52.236 8.67073 52.236H6.79473V59.824ZM15.1747 61V51.06H18.7447C19.8554 51.06 20.7187 51.326 21.3347 51.858C21.9507 52.39 22.2587 53.1273 22.2587 54.07C22.2587 54.7047 22.1187 55.2553 21.8387 55.722C21.5587 56.1793 21.1574 56.5293 20.6347 56.772C20.1121 57.0147 19.4821 57.136 18.7447 57.136H16.3787V61H15.1747ZM16.3787 55.96H18.7447C19.4914 55.96 20.0514 55.8013 20.4247 55.484C20.8074 55.1667 20.9987 54.6953 20.9987 54.07C20.9987 53.4633 20.8074 53.006 20.4247 52.698C20.0514 52.39 19.4914 52.236 18.7447 52.236H16.3787V55.96Z" fill="#171717"/>
</g>
<g filter="url(#filter5_dd_468_49282)">
<rect x="35.5" y="41" width="41" height="30" rx="15" fill="white"/>
<path d="M48.666 61.224C47.7233 61.224 46.9113 61.0187 46.23 60.608C45.558 60.188 45.04 59.5907 44.676 58.816C44.312 58.0413 44.13 57.1173 44.13 56.044C44.13 54.9707 44.312 54.0467 44.676 53.272C45.04 52.488 45.558 51.886 46.23 51.466C46.9113 51.046 47.7233 50.836 48.666 50.836C49.618 50.836 50.43 51.046 51.102 51.466C51.7833 51.886 52.306 52.488 52.67 53.272C53.034 54.0467 53.216 54.9707 53.216 56.044C53.216 57.1173 53.034 58.0413 52.67 58.816C52.306 59.5907 51.7833 60.188 51.102 60.608C50.43 61.0187 49.618 61.224 48.666 61.224ZM48.666 60.048C49.3567 60.048 49.9447 59.8893 50.43 59.572C50.9247 59.2547 51.3027 58.7973 51.564 58.2C51.8253 57.6027 51.956 56.884 51.956 56.044C51.956 55.204 51.8253 54.4853 51.564 53.888C51.3027 53.2813 50.9247 52.8193 50.43 52.502C49.9447 52.1753 49.3567 52.012 48.666 52.012C47.9847 52.012 47.3967 52.1753 46.902 52.502C46.4167 52.8193 46.0433 53.2813 45.782 53.888C45.5207 54.4853 45.39 55.204 45.39 56.044C45.39 56.884 45.5207 57.6027 45.782 58.2C46.0433 58.7973 46.4167 59.2547 46.902 59.572C47.3967 59.8893 47.9847 60.048 48.666 60.048ZM56.5511 61V52.236H53.4571V51.06H60.8491V52.236H57.7551V61H56.5511ZM65.5491 61.224C64.6625 61.224 63.8831 61.0187 63.2111 60.608C62.5391 60.188 62.0165 59.5907 61.6431 58.816C61.2698 58.0413 61.0831 57.1173 61.0831 56.044C61.0831 54.9707 61.2698 54.0467 61.6431 53.272C62.0165 52.488 62.5391 51.886 63.2111 51.466C63.8831 51.046 64.6625 50.836 65.5491 50.836C66.7531 50.836 67.6865 51.1393 68.3491 51.746C69.0118 52.3527 69.4458 53.1787 69.6511 54.224L68.3771 54.308C68.2371 53.5987 67.9385 53.0387 67.4811 52.628C67.0238 52.2173 66.3798 52.012 65.5491 52.012C64.9145 52.012 64.3545 52.1753 63.8691 52.502C63.3931 52.8193 63.0198 53.2813 62.7491 53.888C62.4785 54.4853 62.3431 55.204 62.3431 56.044C62.3431 56.884 62.4785 57.6027 62.7491 58.2C63.0198 58.7973 63.3931 59.2547 63.8691 59.572C64.3545 59.8893 64.9145 60.048 65.5491 60.048C66.4171 60.048 67.0891 59.824 67.5651 59.376C68.0411 58.9187 68.3398 58.3027 68.4611 57.528L69.7351 57.612C69.6138 58.3307 69.3758 58.9607 69.0211 59.502C68.6665 60.0433 68.1951 60.468 67.6071 60.776C67.0285 61.0747 66.3425 61.224 65.5491 61.224Z" fill="#171717"/>
</g>
<g filter="url(#filter6_dd_468_49282)">
<rect x="82.5" y="41" width="83" height="30" rx="15" fill="white"/>
<path d="M91.788 61V51.06H95.204C96.38 51.06 97.262 51.2747 97.85 51.704C98.438 52.1333 98.732 52.81 98.732 53.734C98.732 54.1633 98.6387 54.5413 98.452 54.868C98.2653 55.1947 97.9993 55.4513 97.654 55.638C97.3087 55.8153 96.898 55.904 96.422 55.904L96.408 55.82C97.2573 55.82 97.9247 56.0487 98.41 56.506C98.9047 56.954 99.152 57.542 99.152 58.27C99.152 59.1753 98.858 59.8567 98.27 60.314C97.682 60.7713 96.8467 61 95.764 61H91.788ZM92.992 59.824H95.764C96.4453 59.824 96.968 59.684 97.332 59.404C97.7053 59.124 97.892 58.7227 97.892 58.2C97.892 57.6773 97.7053 57.2713 97.332 56.982C96.968 56.6833 96.4453 56.534 95.764 56.534H92.992V59.824ZM92.992 55.358H95.204C95.932 55.358 96.492 55.2227 96.884 54.952C97.276 54.672 97.472 54.2847 97.472 53.79C97.472 53.2673 97.2807 52.88 96.898 52.628C96.5247 52.3667 95.96 52.236 95.204 52.236H92.992V55.358ZM104.006 61.168C103.325 61.168 102.728 61.0093 102.214 60.692C101.701 60.3747 101.304 59.9267 101.024 59.348C100.744 58.76 100.604 58.074 100.604 57.29C100.604 56.4967 100.744 55.8107 101.024 55.232C101.304 54.6533 101.701 54.2053 102.214 53.888C102.728 53.5707 103.325 53.412 104.006 53.412C104.688 53.412 105.28 53.5707 105.784 53.888C106.298 54.2053 106.694 54.6533 106.974 55.232C107.254 55.8107 107.394 56.4967 107.394 57.29C107.394 58.074 107.254 58.76 106.974 59.348C106.694 59.9267 106.298 60.3747 105.784 60.692C105.28 61.0093 104.688 61.168 104.006 61.168ZM104.006 60.048C104.688 60.048 105.215 59.8053 105.588 59.32C105.971 58.8253 106.162 58.1487 106.162 57.29C106.162 56.4313 105.971 55.7593 105.588 55.274C105.215 54.7793 104.688 54.532 104.006 54.532C103.325 54.532 102.793 54.7793 102.41 55.274C102.028 55.7593 101.836 56.4313 101.836 57.29C101.836 58.1487 102.028 58.8253 102.41 59.32C102.793 59.8053 103.325 60.048 104.006 60.048ZM111.811 63.268C111.279 63.268 110.798 63.1793 110.369 63.002C109.94 62.8247 109.58 62.5727 109.291 62.246C109.002 61.9193 108.806 61.5413 108.703 61.112L109.935 61.028C110.047 61.3733 110.243 61.644 110.523 61.84C110.812 62.0453 111.242 62.148 111.811 62.148C112.483 62.148 112.996 62.0127 113.351 61.742C113.715 61.4713 113.897 61.0653 113.897 60.524V59.32C113.72 59.712 113.435 60.0247 113.043 60.258C112.651 60.4913 112.212 60.608 111.727 60.608C111.102 60.608 110.542 60.454 110.047 60.146C109.562 59.838 109.179 59.4133 108.899 58.872C108.628 58.3307 108.493 57.71 108.493 57.01C108.493 56.3007 108.628 55.68 108.899 55.148C109.17 54.6067 109.543 54.182 110.019 53.874C110.504 53.566 111.055 53.412 111.671 53.412C112.194 53.412 112.66 53.5333 113.071 53.776C113.491 54.0187 113.785 54.3453 113.953 54.756V53.58H115.073V60.496C115.073 61.0747 114.942 61.5693 114.681 61.98C114.42 62.4 114.046 62.7173 113.561 62.932C113.076 63.156 112.492 63.268 111.811 63.268ZM111.783 59.488C112.418 59.488 112.926 59.2687 113.309 58.83C113.692 58.382 113.888 57.7753 113.897 57.01C113.906 56.4967 113.822 56.058 113.645 55.694C113.477 55.3207 113.23 55.036 112.903 54.84C112.586 54.6347 112.212 54.532 111.783 54.532C111.13 54.532 110.621 54.756 110.257 55.204C109.902 55.6427 109.725 56.2447 109.725 57.01C109.725 57.7753 109.907 58.382 110.271 58.83C110.644 59.2687 111.148 59.488 111.783 59.488ZM118.765 61C118.336 61 117.986 60.888 117.715 60.664C117.445 60.44 117.309 60.0853 117.309 59.6V51.06H118.485V59.502C118.485 59.6513 118.523 59.768 118.597 59.852C118.681 59.9267 118.798 59.964 118.947 59.964H119.591V61H118.765ZM123.858 61.168C123.158 61.168 122.551 61.0093 122.038 60.692C121.534 60.3747 121.142 59.9267 120.862 59.348C120.591 58.76 120.456 58.074 120.456 57.29C120.456 56.506 120.591 55.8247 120.862 55.246C121.142 54.6673 121.529 54.2193 122.024 53.902C122.528 53.5753 123.121 53.412 123.802 53.412C124.446 53.412 125.015 53.566 125.51 53.874C126.005 54.1727 126.387 54.6113 126.658 55.19C126.938 55.7687 127.078 56.4733 127.078 57.304V57.654H121.688C121.735 58.4473 121.945 59.0447 122.318 59.446C122.701 59.8473 123.214 60.048 123.858 60.048C124.343 60.048 124.74 59.936 125.048 59.712C125.365 59.4787 125.585 59.1753 125.706 58.802L126.966 58.9C126.77 59.5627 126.397 60.1087 125.846 60.538C125.305 60.958 124.642 61.168 123.858 61.168ZM121.688 56.618H125.79C125.734 55.8993 125.524 55.372 125.16 55.036C124.805 54.7 124.353 54.532 123.802 54.532C123.233 54.532 122.761 54.7093 122.388 55.064C122.024 55.4093 121.791 55.9273 121.688 56.618ZM128.671 61V51.06H129.847V55.218L129.707 55.19C129.8 54.7793 129.959 54.4433 130.183 54.182C130.407 53.9207 130.682 53.7293 131.009 53.608C131.335 53.4773 131.695 53.412 132.087 53.412C132.619 53.412 133.067 53.5333 133.431 53.776C133.804 54.0093 134.084 54.3407 134.271 54.77C134.467 55.19 134.565 55.6753 134.565 56.226V61H133.389V56.562C133.389 55.8433 133.258 55.3113 132.997 54.966C132.745 54.6207 132.357 54.448 131.835 54.448C131.237 54.448 130.757 54.63 130.393 54.994C130.029 55.358 129.847 55.8853 129.847 56.576V61H128.671ZM139.539 61.168C138.839 61.168 138.233 61.0093 137.719 60.692C137.215 60.3747 136.823 59.9267 136.543 59.348C136.273 58.76 136.137 58.074 136.137 57.29C136.137 56.506 136.273 55.8247 136.543 55.246C136.823 54.6673 137.211 54.2193 137.705 53.902C138.209 53.5753 138.802 53.412 139.483 53.412C140.127 53.412 140.697 53.566 141.191 53.874C141.686 54.1727 142.069 54.6113 142.339 55.19C142.619 55.7687 142.759 56.4733 142.759 57.304V57.654H137.369C137.416 58.4473 137.626 59.0447 137.999 59.446C138.382 59.8473 138.895 60.048 139.539 60.048C140.025 60.048 140.421 59.936 140.729 59.712C141.047 59.4787 141.266 59.1753 141.387 58.802L142.647 58.9C142.451 59.5627 142.078 60.1087 141.527 60.538C140.986 60.958 140.323 61.168 139.539 61.168ZM137.369 56.618H141.471C141.415 55.8993 141.205 55.372 140.841 55.036C140.487 54.7 140.034 54.532 139.483 54.532C138.914 54.532 138.443 54.7093 138.069 55.064C137.705 55.4093 137.472 55.9273 137.369 56.618ZM146.546 61.168C145.78 61.168 145.169 60.9907 144.712 60.636C144.264 60.2813 144.04 59.7867 144.04 59.152C144.04 58.5173 144.226 58.018 144.6 57.654C144.973 57.29 145.566 57.0333 146.378 56.884L149.01 56.394C149.01 55.7687 148.86 55.302 148.562 54.994C148.272 54.686 147.834 54.532 147.246 54.532C146.732 54.532 146.326 54.6487 146.028 54.882C145.729 55.106 145.524 55.4327 145.412 55.862L144.166 55.764C144.306 55.064 144.642 54.4993 145.174 54.07C145.715 53.6313 146.406 53.412 147.246 53.412C148.198 53.412 148.926 53.6827 149.43 54.224C149.934 54.756 150.186 55.4933 150.186 56.436V59.502C150.186 59.67 150.214 59.7913 150.27 59.866C150.335 59.9313 150.438 59.964 150.578 59.964H150.872V61C150.834 61.0093 150.774 61.014 150.69 61.014C150.606 61.0233 150.517 61.028 150.424 61.028C150.088 61.028 149.812 60.9767 149.598 60.874C149.392 60.762 149.243 60.594 149.15 60.37C149.056 60.1367 149.01 59.8333 149.01 59.46L149.15 59.488C149.084 59.8053 148.926 60.0947 148.674 60.356C148.422 60.608 148.109 60.8087 147.736 60.958C147.362 61.098 146.966 61.168 146.546 61.168ZM146.658 60.132C147.152 60.132 147.572 60.0387 147.918 59.852C148.272 59.656 148.543 59.3947 148.73 59.068C148.916 58.732 149.01 58.3587 149.01 57.948V57.416L146.602 57.864C146.098 57.9573 145.748 58.102 145.552 58.298C145.365 58.4847 145.272 58.732 145.272 59.04C145.272 59.3853 145.393 59.656 145.636 59.852C145.888 60.0387 146.228 60.132 146.658 60.132ZM154.805 61.168C154.161 61.168 153.601 61.0093 153.125 60.692C152.658 60.3747 152.299 59.9267 152.047 59.348C151.795 58.7693 151.669 58.0833 151.669 57.29C151.669 56.4967 151.795 55.8107 152.047 55.232C152.299 54.6533 152.658 54.2053 153.125 53.888C153.601 53.5707 154.161 53.412 154.805 53.412C155.299 53.412 155.752 53.5193 156.163 53.734C156.573 53.9393 156.881 54.2333 157.087 54.616V51.06H158.263V61H157.199L157.157 59.88C156.951 60.2813 156.639 60.5987 156.219 60.832C155.799 61.056 155.327 61.168 154.805 61.168ZM155.043 60.048C155.481 60.048 155.85 59.936 156.149 59.712C156.457 59.488 156.69 59.1707 156.849 58.76C157.007 58.34 157.087 57.85 157.087 57.29C157.087 56.7113 157.007 56.2167 156.849 55.806C156.69 55.3953 156.457 55.0827 156.149 54.868C155.85 54.644 155.481 54.532 155.043 54.532C154.389 54.532 153.867 54.7793 153.475 55.274C153.092 55.7593 152.901 56.4313 152.901 57.29C152.901 58.1393 153.092 58.8113 153.475 59.306C153.867 59.8007 154.389 60.048 155.043 60.048Z" fill="#171717"/>
</g>
<g filter="url(#filter7_dd_468_49282)">
<rect x="171.5" y="41" width="36" height="30" rx="15" fill="white"/>
<path d="M183.378 61L179.78 51.06H181.096L184.176 59.684L187.242 51.06H188.558L184.96 61H183.378ZM189.811 61V51.06H191.015V61H189.811ZM192.37 61L195.632 56.016L192.398 51.06H193.826L196.416 55.064L198.978 51.06H200.378L197.144 55.988L200.434 61H199.006L196.388 56.94L193.77 61H192.37Z" fill="#171717"/>
</g>
<g filter="url(#filter8_dd_468_49282)">
<rect x="16.5" y="77" width="54" height="30" rx="15" fill="white"/>
<path d="M24.892 97V95.768L30.212 88.236H25.074V87.06H31.584V88.292L26.264 95.824H31.724V97H24.892ZM32.4578 93.472V92.366H37.0918V93.472H32.4578ZM40.4085 97V88.236H37.3145V87.06H44.7065V88.236H41.6125V97H40.4085ZM47.768 97.168C47.068 97.168 46.4613 97.0093 45.948 96.692C45.444 96.3747 45.052 95.9267 44.772 95.348C44.5013 94.76 44.366 94.074 44.366 93.29C44.366 92.506 44.5013 91.8247 44.772 91.246C45.052 90.6673 45.4393 90.2193 45.934 89.902C46.438 89.5753 47.0307 89.412 47.712 89.412C48.356 89.412 48.9253 89.566 49.42 89.874C49.9147 90.1727 50.2973 90.6113 50.568 91.19C50.848 91.7687 50.988 92.4733 50.988 93.304V93.654H45.598C45.6447 94.4473 45.8547 95.0447 46.228 95.446C46.6107 95.8473 47.124 96.048 47.768 96.048C48.2533 96.048 48.65 95.936 48.958 95.712C49.2753 95.4787 49.4947 95.1753 49.616 94.802L50.876 94.9C50.68 95.5627 50.3067 96.1087 49.756 96.538C49.2147 96.958 48.552 97.168 47.768 97.168ZM45.598 92.618H49.7C49.644 91.8993 49.434 91.372 49.07 91.036C48.7153 90.7 48.2627 90.532 47.712 90.532C47.1427 90.532 46.6713 90.7093 46.298 91.064C45.934 91.4093 45.7007 91.9273 45.598 92.618ZM55.2829 97.168C54.6203 97.168 54.0556 97.0607 53.5889 96.846C53.1316 96.6313 52.7723 96.3373 52.5109 95.964C52.2589 95.5813 52.1143 95.1473 52.0769 94.662L53.3089 94.578C53.3836 95.026 53.5749 95.3853 53.8829 95.656C54.1909 95.9173 54.6576 96.048 55.2829 96.048C55.7869 96.048 56.1883 95.9687 56.4869 95.81C56.7949 95.642 56.9489 95.376 56.9489 95.012C56.9489 94.816 56.9023 94.6527 56.8089 94.522C56.7156 94.3913 56.5336 94.2793 56.2629 94.186C55.9923 94.0833 55.5909 93.9853 55.0589 93.892C54.3496 93.7613 53.7896 93.6027 53.3789 93.416C52.9776 93.22 52.6883 92.982 52.5109 92.702C52.3429 92.4127 52.2589 92.072 52.2589 91.68C52.2589 91.0173 52.5016 90.476 52.9869 90.056C53.4723 89.6267 54.1629 89.412 55.0589 89.412C55.6656 89.412 56.1743 89.524 56.5849 89.748C57.0049 89.9627 57.3316 90.252 57.5649 90.616C57.8076 90.9707 57.9663 91.3627 58.0409 91.792L56.8089 91.876C56.7529 91.6147 56.6503 91.386 56.5009 91.19C56.3516 90.9847 56.1556 90.826 55.9129 90.714C55.6703 90.5927 55.3809 90.532 55.0449 90.532C54.5129 90.532 54.1209 90.6347 53.8689 90.84C53.6169 91.0453 53.4909 91.3067 53.4909 91.624C53.4909 91.8667 53.5469 92.0673 53.6589 92.226C53.7803 92.3753 53.9716 92.5013 54.2329 92.604C54.4943 92.6973 54.8443 92.7813 55.2829 92.856C56.0389 92.9867 56.6269 93.1453 57.0469 93.332C57.4669 93.5187 57.7609 93.7473 57.9289 94.018C58.0969 94.2887 58.1809 94.62 58.1809 95.012C58.1809 95.4693 58.0503 95.8613 57.7889 96.188C57.5369 96.5053 57.1916 96.748 56.7529 96.916C56.3236 97.084 55.8336 97.168 55.2829 97.168ZM62.2149 97C61.5429 97 61.0436 96.846 60.7169 96.538C60.3996 96.23 60.2409 95.7493 60.2409 95.096V87.844H61.4169V95.068C61.4169 95.404 61.4916 95.6373 61.6409 95.768C61.7902 95.8987 62.0189 95.964 62.3269 95.964H63.3909V97H62.2149ZM59.1489 90.616V89.58H63.3909V90.616H59.1489Z" fill="#171717"/>
</g>
<g filter="url(#filter9_dd_468_49282)">
<rect x="76.5" y="77" width="51" height="30" rx="15" fill="white"/>
<path d="M84.78 97L88.364 87.06H89.988L93.572 97H92.256L91.262 94.172H87.09L86.096 97H84.78ZM87.496 92.996H90.856L89.176 88.11L87.496 92.996ZM96.1541 97C95.7248 97 95.3748 96.888 95.1041 96.664C94.8335 96.44 94.6981 96.0853 94.6981 95.6V87.06H95.8741V95.502C95.8741 95.6513 95.9115 95.768 95.9861 95.852C96.0701 95.9267 96.1868 95.964 96.3361 95.964H96.9801V97H96.1541ZM98.3759 99.1V89.58H99.4679L99.4959 91.176L99.3279 91.092C99.5145 90.5413 99.8225 90.126 100.252 89.846C100.691 89.5567 101.195 89.412 101.764 89.412C102.501 89.412 103.103 89.594 103.57 89.958C104.046 90.322 104.396 90.798 104.62 91.386C104.853 91.974 104.97 92.6087 104.97 93.29C104.97 93.9713 104.853 94.606 104.62 95.194C104.396 95.782 104.046 96.258 103.57 96.622C103.103 96.986 102.501 97.168 101.764 97.168C101.381 97.168 101.022 97.1027 100.686 96.972C100.359 96.8413 100.079 96.6593 99.8459 96.426C99.6219 96.1927 99.4679 95.9173 99.3839 95.6L99.5519 95.404V99.1H98.3759ZM101.652 96.048C102.296 96.048 102.805 95.8053 103.178 95.32C103.551 94.8347 103.738 94.158 103.738 93.29C103.738 92.422 103.551 91.7453 103.178 91.26C102.805 90.7747 102.296 90.532 101.652 90.532C101.223 90.532 100.849 90.6347 100.532 90.84C100.224 91.0453 99.9812 91.3533 99.8039 91.764C99.6359 92.1747 99.5519 92.6833 99.5519 93.29C99.5519 93.8967 99.6359 94.4053 99.8039 94.816C99.9719 95.2267 100.215 95.5347 100.532 95.74C100.849 95.9453 101.223 96.048 101.652 96.048ZM106.565 97V87.06H107.741V91.218L107.601 91.19C107.695 90.7793 107.853 90.4433 108.077 90.182C108.301 89.9207 108.577 89.7293 108.903 89.608C109.23 89.4773 109.589 89.412 109.981 89.412C110.513 89.412 110.961 89.5333 111.325 89.776C111.699 90.0093 111.979 90.3407 112.165 90.77C112.361 91.19 112.459 91.6753 112.459 92.226V97H111.283V92.562C111.283 91.8433 111.153 91.3113 110.891 90.966C110.639 90.6207 110.252 90.448 109.729 90.448C109.132 90.448 108.651 90.63 108.287 90.994C107.923 91.358 107.741 91.8853 107.741 92.576V97H106.565ZM116.565 97.168C115.8 97.168 115.189 96.9907 114.731 96.636C114.283 96.2813 114.059 95.7867 114.059 95.152C114.059 94.5173 114.246 94.018 114.619 93.654C114.993 93.29 115.585 93.0333 116.397 92.884L119.029 92.394C119.029 91.7687 118.88 91.302 118.581 90.994C118.292 90.686 117.853 90.532 117.265 90.532C116.752 90.532 116.346 90.6487 116.047 90.882C115.749 91.106 115.543 91.4327 115.431 91.862L114.185 91.764C114.325 91.064 114.661 90.4993 115.193 90.07C115.735 89.6313 116.425 89.412 117.265 89.412C118.217 89.412 118.945 89.6827 119.449 90.224C119.953 90.756 120.205 91.4933 120.205 92.436V95.502C120.205 95.67 120.233 95.7913 120.289 95.866C120.355 95.9313 120.457 95.964 120.597 95.964H120.891V97C120.854 97.0093 120.793 97.014 120.709 97.014C120.625 97.0233 120.537 97.028 120.443 97.028C120.107 97.028 119.832 96.9767 119.617 96.874C119.412 96.762 119.263 96.594 119.169 96.37C119.076 96.1367 119.029 95.8333 119.029 95.46L119.169 95.488C119.104 95.8053 118.945 96.0947 118.693 96.356C118.441 96.608 118.129 96.8087 117.755 96.958C117.382 97.098 116.985 97.168 116.565 97.168ZM116.677 96.132C117.172 96.132 117.592 96.0387 117.937 95.852C118.292 95.656 118.563 95.3947 118.749 95.068C118.936 94.732 119.029 94.3587 119.029 93.948V93.416L116.621 93.864C116.117 93.9573 115.767 94.102 115.571 94.298C115.385 94.4847 115.291 94.732 115.291 95.04C115.291 95.3853 115.413 95.656 115.655 95.852C115.907 96.0387 116.248 96.132 116.677 96.132Z" fill="#171717"/>
</g>
<g filter="url(#filter10_dd_468_49282)">
<rect x="133.5" y="77" width="44" height="30" rx="15" fill="white"/>
<path d="M142.788 97V87.06H146.204C147.38 87.06 148.262 87.2747 148.85 87.704C149.438 88.1333 149.732 88.81 149.732 89.734C149.732 90.1633 149.639 90.5413 149.452 90.868C149.265 91.1947 148.999 91.4513 148.654 91.638C148.309 91.8153 147.898 91.904 147.422 91.904L147.408 91.82C148.257 91.82 148.925 92.0487 149.41 92.506C149.905 92.954 150.152 93.542 150.152 94.27C150.152 95.1753 149.858 95.8567 149.27 96.314C148.682 96.7713 147.847 97 146.764 97H142.788ZM143.992 95.824H146.764C147.445 95.824 147.968 95.684 148.332 95.404C148.705 95.124 148.892 94.7227 148.892 94.2C148.892 93.6773 148.705 93.2713 148.332 92.982C147.968 92.6833 147.445 92.534 146.764 92.534H143.992V95.824ZM143.992 91.358H146.204C146.932 91.358 147.492 91.2227 147.884 90.952C148.276 90.672 148.472 90.2847 148.472 89.79C148.472 89.2673 148.281 88.88 147.898 88.628C147.525 88.3667 146.96 88.236 146.204 88.236H143.992V91.358ZM155.006 97.168C154.306 97.168 153.7 97.0093 153.186 96.692C152.682 96.3747 152.29 95.9267 152.01 95.348C151.74 94.76 151.604 94.074 151.604 93.29C151.604 92.506 151.74 91.8247 152.01 91.246C152.29 90.6673 152.678 90.2193 153.172 89.902C153.676 89.5753 154.269 89.412 154.95 89.412C155.594 89.412 156.164 89.566 156.658 89.874C157.153 90.1727 157.536 90.6113 157.806 91.19C158.086 91.7687 158.226 92.4733 158.226 93.304V93.654H152.836C152.883 94.4473 153.093 95.0447 153.466 95.446C153.849 95.8473 154.362 96.048 155.006 96.048C155.492 96.048 155.888 95.936 156.196 95.712C156.514 95.4787 156.733 95.1753 156.854 94.802L158.114 94.9C157.918 95.5627 157.545 96.1087 156.994 96.538C156.453 96.958 155.79 97.168 155.006 97.168ZM152.836 92.618H156.938C156.882 91.8993 156.672 91.372 156.308 91.036C155.954 90.7 155.501 90.532 154.95 90.532C154.381 90.532 153.91 90.7093 153.536 91.064C153.172 91.4093 152.939 91.9273 152.836 92.618ZM162.248 97C161.576 97 161.077 96.846 160.75 96.538C160.433 96.23 160.274 95.7493 160.274 95.096V87.844H161.45V95.068C161.45 95.404 161.525 95.6373 161.674 95.768C161.823 95.8987 162.052 95.964 162.36 95.964H163.424V97H162.248ZM159.182 90.616V89.58H163.424V90.616H159.182ZM166.88 97.168C166.114 97.168 165.503 96.9907 165.046 96.636C164.598 96.2813 164.374 95.7867 164.374 95.152C164.374 94.5173 164.56 94.018 164.934 93.654C165.307 93.29 165.9 93.0333 166.712 92.884L169.344 92.394C169.344 91.7687 169.194 91.302 168.896 90.994C168.606 90.686 168.168 90.532 167.58 90.532C167.066 90.532 166.66 90.6487 166.362 90.882C166.063 91.106 165.858 91.4327 165.746 91.862L164.5 91.764C164.64 91.064 164.976 90.4993 165.508 90.07C166.049 89.6313 166.74 89.412 167.58 89.412C168.532 89.412 169.26 89.6827 169.764 90.224C170.268 90.756 170.52 91.4933 170.52 92.436V95.502C170.52 95.67 170.548 95.7913 170.604 95.866C170.669 95.9313 170.772 95.964 170.912 95.964H171.206V97C171.168 97.0093 171.108 97.014 171.024 97.014C170.94 97.0233 170.851 97.028 170.758 97.028C170.422 97.028 170.146 96.9767 169.932 96.874C169.726 96.762 169.577 96.594 169.484 96.37C169.39 96.1367 169.344 95.8333 169.344 95.46L169.484 95.488C169.418 95.8053 169.26 96.0947 169.008 96.356C168.756 96.608 168.443 96.8087 168.07 96.958C167.696 97.098 167.3 97.168 166.88 97.168ZM166.992 96.132C167.486 96.132 167.906 96.0387 168.252 95.852C168.606 95.656 168.877 95.3947 169.064 95.068C169.25 94.732 169.344 94.3587 169.344 93.948V93.416L166.936 93.864C166.432 93.9573 166.082 94.102 165.886 94.298C165.699 94.4847 165.606 94.732 165.606 95.04C165.606 95.3853 165.727 95.656 165.97 95.852C166.222 96.0387 166.562 96.132 166.992 96.132Z" fill="#171717"/>
</g>
<defs>
<filter id="filter0_dd_468_49282" x="-25" y="0" width="53" height="42" filterUnits="userSpaceOnUse" color-interpolation-filters="sRGB">
<feFlood flood-opacity="0" result="BackgroundImageFix"/>
<feColorMatrix in="SourceAlpha" type="matrix" values="0 0 0 0 0 0 0 0 0 0 0 0 0 0 0 0 0 0 127 0" result="hardAlpha"/>
<feMorphology radius="1" operator="dilate" in="SourceAlpha" result="effect1_dropShadow_468_49282"/>
<feOffset/>
<feColorMatrix type="matrix" values="0 0 0 0 0.0431373 0 0 0 0 0.0431373 0 0 0 0 0.0431373 0 0 0 0.05 0"/>
<feBlend mode="normal" in2="BackgroundImageFix" result="effect1_dropShadow_468_49282"/>
<feColorMatrix in="SourceAlpha" type="matrix" values="0 0 0 0 0 0 0 0 0 0 0 0 0 0 0 0 0 0 127 0" result="hardAlpha"/>
<feOffset dy="1"/>
<feGaussianBlur stdDeviation="3"/>
<feColorMatrix type="matrix" values="0 0 0 0 0.0431373 0 0 0 0 0.0431373 0 0 0 0 0.0431373 0 0 0 0.06 0"/>
<feBlend mode="normal" in2="effect1_dropShadow_468_49282" result="effect2_dropShadow_468_49282"/>
<feBlend mode="normal" in="SourceGraphic" in2="effect2_dropShadow_468_49282" result="shape"/>
</filter>
<filter id="filter1_dd_468_49282" x="22" y="0" width="60" height="42" filterUnits="userSpaceOnUse" color-interpolation-filters="sRGB">
<feFlood flood-opacity="0" result="BackgroundImageFix"/>
<feColorMatrix in="SourceAlpha" type="matrix" values="0 0 0 0 0 0 0 0 0 0 0 0 0 0 0 0 0 0 127 0" result="hardAlpha"/>
<feMorphology radius="1" operator="dilate" in="SourceAlpha" result="effect1_dropShadow_468_49282"/>
<feOffset/>
<feColorMatrix type="matrix" values="0 0 0 0 0.0431373 0 0 0 0 0.0431373 0 0 0 0 0.0431373 0 0 0 0.05 0"/>
<feBlend mode="normal" in2="BackgroundImageFix" result="effect1_dropShadow_468_49282"/>
<feColorMatrix in="SourceAlpha" type="matrix" values="0 0 0 0 0 0 0 0 0 0 0 0 0 0 0 0 0 0 127 0" result="hardAlpha"/>
<feOffset dy="1"/>
<feGaussianBlur stdDeviation="3"/>
<feColorMatrix type="matrix" values="0 0 0 0 0.0431373 0 0 0 0 0.0431373 0 0 0 0 0.0431373 0 0 0 0.06 0"/>
<feBlend mode="normal" in2="effect1_dropShadow_468_49282" result="effect2_dropShadow_468_49282"/>
<feBlend mode="normal" in="SourceGraphic" in2="effect2_dropShadow_468_49282" result="shape"/>
</filter>
<filter id="filter2_dd_468_49282" x="76" y="0" width="85" height="42" filterUnits="userSpaceOnUse" color-interpolation-filters="sRGB">
<feFlood flood-opacity="0" result="BackgroundImageFix"/>
<feColorMatrix in="SourceAlpha" type="matrix" values="0 0 0 0 0 0 0 0 0 0 0 0 0 0 0 0 0 0 127 0" result="hardAlpha"/>
<feMorphology radius="1" operator="dilate" in="SourceAlpha" result="effect1_dropShadow_468_49282"/>
<feOffset/>
<feColorMatrix type="matrix" values="0 0 0 0 0.0431373 0 0 0 0 0.0431373 0 0 0 0 0.0431373 0 0 0 0.05 0"/>
<feBlend mode="normal" in2="BackgroundImageFix" result="effect1_dropShadow_468_49282"/>
<feColorMatrix in="SourceAlpha" type="matrix" values="0 0 0 0 0 0 0 0 0 0 0 0 0 0 0 0 0 0 127 0" result="hardAlpha"/>
<feOffset dy="1"/>
<feGaussianBlur stdDeviation="3"/>
<feColorMatrix type="matrix" values="0 0 0 0 0.0431373 0 0 0 0 0.0431373 0 0 0 0 0.0431373 0 0 0 0.06 0"/>
<feBlend mode="normal" in2="effect1_dropShadow_468_49282" result="effect2_dropShadow_468_49282"/>
<feBlend mode="normal" in="SourceGraphic" in2="effect2_dropShadow_468_49282" result="shape"/>
</filter>
<filter id="filter3_dd_468_49282" x="155" y="0" width="64" height="42" filterUnits="userSpaceOnUse" color-interpolation-filters="sRGB">
<feFlood flood-opacity="0" result="BackgroundImageFix"/>
<feColorMatrix in="SourceAlpha" type="matrix" values="0 0 0 0 0 0 0 0 0 0 0 0 0 0 0 0 0 0 127 0" result="hardAlpha"/>
<feMorphology radius="1" operator="dilate" in="SourceAlpha" result="effect1_dropShadow_468_49282"/>
<feOffset/>
<feColorMatrix type="matrix" values="0 0 0 0 0.0431373 0 0 0 0 0.0431373 0 0 0 0 0.0431373 0 0 0 0.05 0"/>
<feBlend mode="normal" in2="BackgroundImageFix" result="effect1_dropShadow_468_49282"/>
<feColorMatrix in="SourceAlpha" type="matrix" values="0 0 0 0 0 0 0 0 0 0 0 0 0 0 0 0 0 0 127 0" result="hardAlpha"/>
<feOffset dy="1"/>
<feGaussianBlur stdDeviation="3"/>
<feColorMatrix type="matrix" values="0 0 0 0 0.0431373 0 0 0 0 0.0431373 0 0 0 0 0.0431373 0 0 0 0.06 0"/>
<feBlend mode="normal" in2="effect1_dropShadow_468_49282" result="effect2_dropShadow_468_49282"/>
<feBlend mode="normal" in="SourceGraphic" in2="effect2_dropShadow_468_49282" result="shape"/>
</filter>
<filter id="filter4_dd_468_49282" x="-19.5" y="36" width="55" height="42" filterUnits="userSpaceOnUse" color-interpolation-filters="sRGB">
<feFlood flood-opacity="0" result="BackgroundImageFix"/>
<feColorMatrix in="SourceAlpha" type="matrix" values="0 0 0 0 0 0 0 0 0 0 0 0 0 0 0 0 0 0 127 0" result="hardAlpha"/>
<feMorphology radius="1" operator="dilate" in="SourceAlpha" result="effect1_dropShadow_468_49282"/>
<feOffset/>
<feColorMatrix type="matrix" values="0 0 0 0 0.0431373 0 0 0 0 0.0431373 0 0 0 0 0.0431373 0 0 0 0.05 0"/>
<feBlend mode="normal" in2="BackgroundImageFix" result="effect1_dropShadow_468_49282"/>
<feColorMatrix in="SourceAlpha" type="matrix" values="0 0 0 0 0 0 0 0 0 0 0 0 0 0 0 0 0 0 127 0" result="hardAlpha"/>
<feOffset dy="1"/>
<feGaussianBlur stdDeviation="3"/>
<feColorMatrix type="matrix" values="0 0 0 0 0.0431373 0 0 0 0 0.0431373 0 0 0 0 0.0431373 0 0 0 0.06 0"/>
<feBlend mode="normal" in2="effect1_dropShadow_468_49282" result="effect2_dropShadow_468_49282"/>
<feBlend mode="normal" in="SourceGraphic" in2="effect2_dropShadow_468_49282" result="shape"/>
</filter>
<filter id="filter5_dd_468_49282" x="29.5" y="36" width="53" height="42" filterUnits="userSpaceOnUse" color-interpolation-filters="sRGB">
<feFlood flood-opacity="0" result="BackgroundImageFix"/>
<feColorMatrix in="SourceAlpha" type="matrix" values="0 0 0 0 0 0 0 0 0 0 0 0 0 0 0 0 0 0 127 0" result="hardAlpha"/>
<feMorphology radius="1" operator="dilate" in="SourceAlpha" result="effect1_dropShadow_468_49282"/>
<feOffset/>
<feColorMatrix type="matrix" values="0 0 0 0 0.0431373 0 0 0 0 0.0431373 0 0 0 0 0.0431373 0 0 0 0.05 0"/>
<feBlend mode="normal" in2="BackgroundImageFix" result="effect1_dropShadow_468_49282"/>
<feColorMatrix in="SourceAlpha" type="matrix" values="0 0 0 0 0 0 0 0 0 0 0 0 0 0 0 0 0 0 127 0" result="hardAlpha"/>
<feOffset dy="1"/>
<feGaussianBlur stdDeviation="3"/>
<feColorMatrix type="matrix" values="0 0 0 0 0.0431373 0 0 0 0 0.0431373 0 0 0 0 0.0431373 0 0 0 0.06 0"/>
<feBlend mode="normal" in2="effect1_dropShadow_468_49282" result="effect2_dropShadow_468_49282"/>
<feBlend mode="normal" in="SourceGraphic" in2="effect2_dropShadow_468_49282" result="shape"/>
</filter>
<filter id="filter6_dd_468_49282" x="76.5" y="36" width="95" height="42" filterUnits="userSpaceOnUse" color-interpolation-filters="sRGB">
<feFlood flood-opacity="0" result="BackgroundImageFix"/>
<feColorMatrix in="SourceAlpha" type="matrix" values="0 0 0 0 0 0 0 0 0 0 0 0 0 0 0 0 0 0 127 0" result="hardAlpha"/>
<feMorphology radius="1" operator="dilate" in="SourceAlpha" result="effect1_dropShadow_468_49282"/>
<feOffset/>
<feColorMatrix type="matrix" values="0 0 0 0 0.0431373 0 0 0 0 0.0431373 0 0 0 0 0.0431373 0 0 0 0.05 0"/>
<feBlend mode="normal" in2="BackgroundImageFix" result="effect1_dropShadow_468_49282"/>
<feColorMatrix in="SourceAlpha" type="matrix" values="0 0 0 0 0 0 0 0 0 0 0 0 0 0 0 0 0 0 127 0" result="hardAlpha"/>
<feOffset dy="1"/>
<feGaussianBlur stdDeviation="3"/>
<feColorMatrix type="matrix" values="0 0 0 0 0.0431373 0 0 0 0 0.0431373 0 0 0 0 0.0431373 0 0 0 0.06 0"/>
<feBlend mode="normal" in2="effect1_dropShadow_468_49282" result="effect2_dropShadow_468_49282"/>
<feBlend mode="normal" in="SourceGraphic" in2="effect2_dropShadow_468_49282" result="shape"/>
</filter>
<filter id="filter7_dd_468_49282" x="165.5" y="36" width="48" height="42" filterUnits="userSpaceOnUse" color-interpolation-filters="sRGB">
<feFlood flood-opacity="0" result="BackgroundImageFix"/>
<feColorMatrix in="SourceAlpha" type="matrix" values="0 0 0 0 0 0 0 0 0 0 0 0 0 0 0 0 0 0 127 0" result="hardAlpha"/>
<feMorphology radius="1" operator="dilate" in="SourceAlpha" result="effect1_dropShadow_468_49282"/>
<feOffset/>
<feColorMatrix type="matrix" values="0 0 0 0 0.0431373 0 0 0 0 0.0431373 0 0 0 0 0.0431373 0 0 0 0.05 0"/>
<feBlend mode="normal" in2="BackgroundImageFix" result="effect1_dropShadow_468_49282"/>
<feColorMatrix in="SourceAlpha" type="matrix" values="0 0 0 0 0 0 0 0 0 0 0 0 0 0 0 0 0 0 127 0" result="hardAlpha"/>
<feOffset dy="1"/>
<feGaussianBlur stdDeviation="3"/>
<feColorMatrix type="matrix" values="0 0 0 0 0.0431373 0 0 0 0 0.0431373 0 0 0 0 0.0431373 0 0 0 0.06 0"/>
<feBlend mode="normal" in2="effect1_dropShadow_468_49282" result="effect2_dropShadow_468_49282"/>
<feBlend mode="normal" in="SourceGraphic" in2="effect2_dropShadow_468_49282" result="shape"/>
</filter>
<filter id="filter8_dd_468_49282" x="10.5" y="72" width="66" height="42" filterUnits="userSpaceOnUse" color-interpolation-filters="sRGB">
<feFlood flood-opacity="0" result="BackgroundImageFix"/>
<feColorMatrix in="SourceAlpha" type="matrix" values="0 0 0 0 0 0 0 0 0 0 0 0 0 0 0 0 0 0 127 0" result="hardAlpha"/>
<feMorphology radius="1" operator="dilate" in="SourceAlpha" result="effect1_dropShadow_468_49282"/>
<feOffset/>
<feColorMatrix type="matrix" values="0 0 0 0 0.0431373 0 0 0 0 0.0431373 0 0 0 0 0.0431373 0 0 0 0.05 0"/>
<feBlend mode="normal" in2="BackgroundImageFix" result="effect1_dropShadow_468_49282"/>
<feColorMatrix in="SourceAlpha" type="matrix" values="0 0 0 0 0 0 0 0 0 0 0 0 0 0 0 0 0 0 127 0" result="hardAlpha"/>
<feOffset dy="1"/>
<feGaussianBlur stdDeviation="3"/>
<feColorMatrix type="matrix" values="0 0 0 0 0.0431373 0 0 0 0 0.0431373 0 0 0 0 0.0431373 0 0 0 0.06 0"/>
<feBlend mode="normal" in2="effect1_dropShadow_468_49282" result="effect2_dropShadow_468_49282"/>
<feBlend mode="normal" in="SourceGraphic" in2="effect2_dropShadow_468_49282" result="shape"/>
</filter>
<filter id="filter9_dd_468_49282" x="70.5" y="72" width="63" height="42" filterUnits="userSpaceOnUse" color-interpolation-filters="sRGB">
<feFlood flood-opacity="0" result="BackgroundImageFix"/>
<feColorMatrix in="SourceAlpha" type="matrix" values="0 0 0 0 0 0 0 0 0 0 0 0 0 0 0 0 0 0 127 0" result="hardAlpha"/>
<feMorphology radius="1" operator="dilate" in="SourceAlpha" result="effect1_dropShadow_468_49282"/>
<feOffset/>
<feColorMatrix type="matrix" values="0 0 0 0 0.0431373 0 0 0 0 0.0431373 0 0 0 0 0.0431373 0 0 0 0.05 0"/>
<feBlend mode="normal" in2="BackgroundImageFix" result="effect1_dropShadow_468_49282"/>
<feColorMatrix in="SourceAlpha" type="matrix" values="0 0 0 0 0 0 0 0 0 0 0 0 0 0 0 0 0 0 127 0" result="hardAlpha"/>
<feOffset dy="1"/>
<feGaussianBlur stdDeviation="3"/>
<feColorMatrix type="matrix" values="0 0 0 0 0.0431373 0 0 0 0 0.0431373 0 0 0 0 0.0431373 0 0 0 0.06 0"/>
<feBlend mode="normal" in2="effect1_dropShadow_468_49282" result="effect2_dropShadow_468_49282"/>
<feBlend mode="normal" in="SourceGraphic" in2="effect2_dropShadow_468_49282" result="shape"/>
</filter>
<filter id="filter10_dd_468_49282" x="127.5" y="72" width="56" height="42" filterUnits="userSpaceOnUse" color-interpolation-filters="sRGB">
<feFlood flood-opacity="0" result="BackgroundImageFix"/>
<feColorMatrix in="SourceAlpha" type="matrix" values="0 0 0 0 0 0 0 0 0 0 0 0 0 0 0 0 0 0 127 0" result="hardAlpha"/>
<feMorphology radius="1" operator="dilate" in="SourceAlpha" result="effect1_dropShadow_468_49282"/>
<feOffset/>
<feColorMatrix type="matrix" values="0 0 0 0 0.0431373 0 0 0 0 0.0431373 0 0 0 0 0.0431373 0 0 0 0.05 0"/>
<feBlend mode="normal" in2="BackgroundImageFix" result="effect1_dropShadow_468_49282"/>
<feColorMatrix in="SourceAlpha" type="matrix" values="0 0 0 0 0 0 0 0 0 0 0 0 0 0 0 0 0 0 127 0" result="hardAlpha"/>
<feOffset dy="1"/>
<feGaussianBlur stdDeviation="3"/>
<feColorMatrix type="matrix" values="0 0 0 0 0.0431373 0 0 0 0 0.0431373 0 0 0 0 0.0431373 0 0 0 0.06 0"/>
<feBlend mode="normal" in2="effect1_dropShadow_468_49282" result="effect2_dropShadow_468_49282"/>
<feBlend mode="normal" in="SourceGraphic" in2="effect2_dropShadow_468_49282" result="shape"/>
</filter>
</defs>
</svg>
