<svg width="393" height="92" viewBox="0 0 393 92" fill="none" xmlns="http://www.w3.org/2000/svg">
<g filter="url(#filter0_dd_468_49221)">
<rect x="-44.5" y="5" width="143" height="36" rx="10" fill="white"/>
<path d="M-5.212 28V18.06H-1.446C-0.746 18.06 -0.144 18.1813 0.36 18.424C0.864 18.6667 1.25133 19.0167 1.522 19.474C1.802 19.922 1.942 20.454 1.942 21.07C1.942 21.518 1.83467 21.9193 1.62 22.274C1.41467 22.6193 1.14867 22.8947 0.822 23.1C0.495334 23.3053 0.154667 23.4173 -0.2 23.436L-0.284 23.31C0.322667 23.31 0.798667 23.45 1.144 23.73C1.49867 24.01 1.704 24.458 1.76 25.074L2.04 28H0.822L0.57 25.2C0.532667 24.7893 0.383334 24.486 0.122 24.29C-0.13 24.094 -0.545333 23.996 -1.124 23.996H-4.008V28H-5.212ZM-4.008 22.82H-1.292C-0.685333 22.82 -0.204666 22.666 0.15 22.358C0.504667 22.05 0.682 21.6113 0.682 21.042C0.682 20.4633 0.5 20.02 0.136001 19.712C-0.228 19.3947 -0.755333 19.236 -1.446 19.236H-4.008V22.82ZM7.86717 28.224C6.92451 28.224 6.11251 28.0187 5.43117 27.608C4.75917 27.188 4.24117 26.5907 3.87717 25.816C3.51317 25.0413 3.33117 24.1173 3.33117 23.044C3.33117 21.9707 3.51317 21.0467 3.87717 20.272C4.24117 19.488 4.75917 18.886 5.43117 18.466C6.11251 18.046 6.92451 17.836 7.86717 17.836C8.81917 17.836 9.63117 18.046 10.3032 18.466C10.9845 18.886 11.5072 19.488 11.8712 20.272C12.2352 21.0467 12.4172 21.9707 12.4172 23.044C12.4172 24.1173 12.2352 25.0413 11.8712 25.816C11.5072 26.5907 10.9845 27.188 10.3032 27.608C9.63117 28.0187 8.81917 28.224 7.86717 28.224ZM7.86717 27.048C8.55784 27.048 9.14584 26.8893 9.63117 26.572C10.1258 26.2547 10.5038 25.7973 10.7652 25.2C11.0265 24.6027 11.1572 23.884 11.1572 23.044C11.1572 22.204 11.0265 21.4853 10.7652 20.888C10.5038 20.2813 10.1258 19.8193 9.63117 19.502C9.14584 19.1753 8.55784 19.012 7.86717 19.012C7.18584 19.012 6.59784 19.1753 6.10317 19.502C5.61784 19.8193 5.24451 20.2813 4.98317 20.888C4.72184 21.4853 4.59117 22.204 4.59117 23.044C4.59117 23.884 4.72184 24.6027 4.98317 25.2C5.24451 25.7973 5.61784 26.2547 6.10317 26.572C6.59784 26.8893 7.18584 27.048 7.86717 27.048ZM14.1474 28V18.06H15.3514V28H14.1474ZM25.2288 28.224C24.3421 28.224 23.5628 28.0187 22.8908 27.608C22.2188 27.188 21.6961 26.5907 21.3228 25.816C20.9495 25.0413 20.7628 24.1173 20.7628 23.044C20.7628 21.9707 20.9495 21.0467 21.3228 20.272C21.6961 19.488 22.2188 18.886 22.8908 18.466C23.5628 18.046 24.3421 17.836 25.2288 17.836C26.4328 17.836 27.3661 18.1393 28.0288 18.746C28.6915 19.3527 29.1255 20.1787 29.3308 21.224L28.0568 21.308C27.9168 20.5987 27.6181 20.0387 27.1608 19.628C26.7035 19.2173 26.0595 19.012 25.2288 19.012C24.5941 19.012 24.0341 19.1753 23.5488 19.502C23.0728 19.8193 22.6995 20.2813 22.4288 20.888C22.1581 21.4853 22.0228 22.204 22.0228 23.044C22.0228 23.884 22.1581 24.6027 22.4288 25.2C22.6995 25.7973 23.0728 26.2547 23.5488 26.572C24.0341 26.8893 24.5941 27.048 25.2288 27.048C26.0968 27.048 26.7688 26.824 27.2448 26.376C27.7208 25.9187 28.0195 25.3027 28.1408 24.528L29.4148 24.612C29.2935 25.3307 29.0555 25.9607 28.7008 26.502C28.3461 27.0433 27.8748 27.468 27.2868 27.776C26.7081 28.0747 26.0221 28.224 25.2288 28.224ZM33.0439 28.168C32.2785 28.168 31.6672 27.9907 31.2099 27.636C30.7619 27.2813 30.5379 26.7867 30.5379 26.152C30.5379 25.5173 30.7245 25.018 31.0979 24.654C31.4712 24.29 32.0639 24.0333 32.8759 23.884L35.5079 23.394C35.5079 22.7687 35.3585 22.302 35.0599 21.994C34.7705 21.686 34.3319 21.532 33.7439 21.532C33.2305 21.532 32.8245 21.6487 32.5259 21.882C32.2272 22.106 32.0219 22.4327 31.9099 22.862L30.6639 22.764C30.8039 22.064 31.1399 21.4993 31.6719 21.07C32.2132 20.6313 32.9039 20.412 33.7439 20.412C34.6959 20.412 35.4239 20.6827 35.9279 21.224C36.4319 21.756 36.6839 22.4933 36.6839 23.436V26.502C36.6839 26.67 36.7119 26.7913 36.7679 26.866C36.8332 26.9313 36.9359 26.964 37.0759 26.964H37.3699V28C37.3325 28.0093 37.2719 28.014 37.1879 28.014C37.1039 28.0233 37.0152 28.028 36.9219 28.028C36.5859 28.028 36.3105 27.9767 36.0959 27.874C35.8905 27.762 35.7412 27.594 35.6479 27.37C35.5545 27.1367 35.5079 26.8333 35.5079 26.46L35.6479 26.488C35.5825 26.8053 35.4239 27.0947 35.1719 27.356C34.9199 27.608 34.6072 27.8087 34.2339 27.958C33.8605 28.098 33.4639 28.168 33.0439 28.168ZM33.1559 27.132C33.6505 27.132 34.0705 27.0387 34.4159 26.852C34.7705 26.656 35.0412 26.3947 35.2279 26.068C35.4145 25.732 35.5079 25.3587 35.5079 24.948V24.416L33.0999 24.864C32.5959 24.9573 32.2459 25.102 32.0499 25.298C31.8632 25.4847 31.7699 25.732 31.7699 26.04C31.7699 26.3853 31.8912 26.656 32.1339 26.852C32.3859 27.0387 32.7265 27.132 33.1559 27.132ZM40.0721 28C39.6428 28 39.2928 27.888 39.0221 27.664C38.7514 27.44 38.6161 27.0853 38.6161 26.6V18.06H39.7921V26.502C39.7921 26.6513 39.8294 26.768 39.9041 26.852C39.9881 26.9267 40.1048 26.964 40.2541 26.964H40.8981V28H40.0721ZM45.1645 28.168C44.4738 28.168 43.8718 28.0093 43.3585 27.692C42.8545 27.3747 42.4625 26.9267 42.1825 26.348C41.9025 25.76 41.7625 25.074 41.7625 24.29C41.7625 23.506 41.9025 22.8247 42.1825 22.246C42.4625 21.6673 42.8545 21.2193 43.3585 20.902C43.8718 20.5753 44.4738 20.412 45.1645 20.412C45.7338 20.412 46.2378 20.5147 46.6765 20.72C47.1245 20.916 47.4885 21.2053 47.7685 21.588C48.0485 21.9707 48.2305 22.4373 48.3145 22.988L47.0825 23.072C46.9985 22.5773 46.7838 22.1993 46.4385 21.938C46.0932 21.6673 45.6685 21.532 45.1645 21.532C44.4832 21.532 43.9512 21.7793 43.5685 22.274C43.1858 22.7593 42.9945 23.4313 42.9945 24.29C42.9945 25.1487 43.1858 25.8253 43.5685 26.32C43.9512 26.8053 44.4832 27.048 45.1645 27.048C45.6685 27.048 46.0932 26.908 46.4385 26.628C46.7838 26.348 46.9985 25.928 47.0825 25.368L48.3145 25.452C48.2305 26.0027 48.0485 26.4833 47.7685 26.894C47.4885 27.2953 47.1245 27.608 46.6765 27.832C46.2378 28.056 45.7338 28.168 45.1645 28.168ZM52.2083 28.168C51.471 28.168 50.8783 27.9207 50.4303 27.426C49.9917 26.922 49.7723 26.2313 49.7723 25.354V20.58H50.9483V25.032C50.9483 25.7507 51.0743 26.2827 51.3263 26.628C51.5877 26.964 51.9843 27.132 52.5163 27.132C53.1043 27.132 53.5663 26.9453 53.9023 26.572C54.2383 26.1893 54.4063 25.6667 54.4063 25.004V20.58H55.5823V28H54.4623V26.166L54.6443 26.264C54.495 26.8707 54.2103 27.342 53.7903 27.678C53.3703 28.0047 52.843 28.168 52.2083 28.168ZM59.2811 28C58.8517 28 58.5017 27.888 58.2311 27.664C57.9604 27.44 57.8251 27.0853 57.8251 26.6V18.06H59.0011V26.502C59.0011 26.6513 59.0384 26.768 59.1131 26.852C59.1971 26.9267 59.3137 26.964 59.4631 26.964H60.1071V28H59.2811ZM63.5595 28.168C62.7942 28.168 62.1828 27.9907 61.7255 27.636C61.2775 27.2813 61.0535 26.7867 61.0535 26.152C61.0535 25.5173 61.2402 25.018 61.6135 24.654C61.9868 24.29 62.5795 24.0333 63.3915 23.884L66.0235 23.394C66.0235 22.7687 65.8742 22.302 65.5755 21.994C65.2862 21.686 64.8475 21.532 64.2595 21.532C63.7462 21.532 63.3402 21.6487 63.0415 21.882C62.7428 22.106 62.5375 22.4327 62.4255 22.862L61.1795 22.764C61.3195 22.064 61.6555 21.4993 62.1875 21.07C62.7288 20.6313 63.4195 20.412 64.2595 20.412C65.2115 20.412 65.9395 20.6827 66.4435 21.224C66.9475 21.756 67.1995 22.4933 67.1995 23.436V26.502C67.1995 26.67 67.2275 26.7913 67.2835 26.866C67.3488 26.9313 67.4515 26.964 67.5915 26.964H67.8855V28C67.8482 28.0093 67.7875 28.014 67.7035 28.014C67.6195 28.0233 67.5308 28.028 67.4375 28.028C67.1015 28.028 66.8262 27.9767 66.6115 27.874C66.4062 27.762 66.2568 27.594 66.1635 27.37C66.0702 27.1367 66.0235 26.8333 66.0235 26.46L66.1635 26.488C66.0982 26.8053 65.9395 27.0947 65.6875 27.356C65.4355 27.608 65.1228 27.8087 64.7495 27.958C64.3762 28.098 63.9795 28.168 63.5595 28.168ZM63.6715 27.132C64.1662 27.132 64.5862 27.0387 64.9315 26.852C65.2862 26.656 65.5568 26.3947 65.7435 26.068C65.9302 25.732 66.0235 25.3587 66.0235 24.948V24.416L63.6155 24.864C63.1115 24.9573 62.7615 25.102 62.5655 25.298C62.3788 25.4847 62.2855 25.732 62.2855 26.04C62.2855 26.3853 62.4068 26.656 62.6495 26.852C62.9015 27.0387 63.2422 27.132 63.6715 27.132ZM71.5606 28C70.8886 28 70.3893 27.846 70.0626 27.538C69.7453 27.23 69.5866 26.7493 69.5866 26.096V18.844H70.7626V26.068C70.7626 26.404 70.8373 26.6373 70.9866 26.768C71.1359 26.8987 71.3646 26.964 71.6726 26.964H72.7366V28H71.5606ZM68.4946 21.616V20.58H72.7366V21.616H68.4946ZM77.0063 28.168C76.3249 28.168 75.7276 28.0093 75.2143 27.692C74.7009 27.3747 74.3043 26.9267 74.0243 26.348C73.7443 25.76 73.6043 25.074 73.6043 24.29C73.6043 23.4967 73.7443 22.8107 74.0243 22.232C74.3043 21.6533 74.7009 21.2053 75.2143 20.888C75.7276 20.5707 76.3249 20.412 77.0063 20.412C77.6876 20.412 78.2803 20.5707 78.7843 20.888C79.2976 21.2053 79.6943 21.6533 79.9743 22.232C80.2543 22.8107 80.3943 23.4967 80.3943 24.29C80.3943 25.074 80.2543 25.76 79.9743 26.348C79.6943 26.9267 79.2976 27.3747 78.7843 27.692C78.2803 28.0093 77.6876 28.168 77.0063 28.168ZM77.0063 27.048C77.6876 27.048 78.2149 26.8053 78.5883 26.32C78.9709 25.8253 79.1623 25.1487 79.1623 24.29C79.1623 23.4313 78.9709 22.7593 78.5883 22.274C78.2149 21.7793 77.6876 21.532 77.0063 21.532C76.3249 21.532 75.7929 21.7793 75.4103 22.274C75.0276 22.7593 74.8363 23.4313 74.8363 24.29C74.8363 25.1487 75.0276 25.8253 75.4103 26.32C75.7929 26.8053 76.3249 27.048 77.0063 27.048ZM81.997 28V20.58H83.033L83.089 22.456L82.977 22.414C83.0703 21.7793 83.271 21.3173 83.579 21.028C83.8963 20.7293 84.3163 20.58 84.839 20.58H85.567V21.7H84.853C84.4796 21.7 84.167 21.77 83.915 21.91C83.6723 22.0407 83.4856 22.2413 83.355 22.512C83.2336 22.7733 83.173 23.1093 83.173 23.52V28H81.997Z" fill="#171717"/>
</g>
<g filter="url(#filter1_dd_468_49221)">
<rect x="106.5" y="5" width="151" height="36" rx="10" fill="white"/>
<path d="M124.333 30.5H132.667M128.5 15.5V30.5M121 18.8333H122.667C124.333 18.8333 126.833 18 128.5 17.1667C130.167 18 132.667 18.8333 134.333 18.8333H136M131.833 26.3333L134.333 19.6667L136.833 26.3333C136.108 26.875 135.233 27.1667 134.333 27.1667C133.433 27.1667 132.558 26.875 131.833 26.3333ZM120.167 26.3333L122.667 19.6667L125.167 26.3333C124.442 26.875 123.567 27.1667 122.667 27.1667C121.767 27.1667 120.892 26.875 120.167 26.3333Z" stroke="#F23E94" stroke-width="1.5" stroke-linecap="round" stroke-linejoin="round"/>
<path d="M145.788 28V18.06H146.992V27.44L146.39 26.824H151.962V28H145.788ZM156.092 28.168C155.411 28.168 154.814 28.0093 154.3 27.692C153.787 27.3747 153.39 26.9267 153.11 26.348C152.83 25.76 152.69 25.074 152.69 24.29C152.69 23.4967 152.83 22.8107 153.11 22.232C153.39 21.6533 153.787 21.2053 154.3 20.888C154.814 20.5707 155.411 20.412 156.092 20.412C156.774 20.412 157.366 20.5707 157.87 20.888C158.384 21.2053 158.78 21.6533 159.06 22.232C159.34 22.8107 159.48 23.4967 159.48 24.29C159.48 25.074 159.34 25.76 159.06 26.348C158.78 26.9267 158.384 27.3747 157.87 27.692C157.366 28.0093 156.774 28.168 156.092 28.168ZM156.092 27.048C156.774 27.048 157.301 26.8053 157.674 26.32C158.057 25.8253 158.248 25.1487 158.248 24.29C158.248 23.4313 158.057 22.7593 157.674 22.274C157.301 21.7793 156.774 21.532 156.092 21.532C155.411 21.532 154.879 21.7793 154.496 22.274C154.114 22.7593 153.922 23.4313 153.922 24.29C153.922 25.1487 154.114 25.8253 154.496 26.32C154.879 26.8053 155.411 27.048 156.092 27.048ZM163.276 28.168C162.511 28.168 161.9 27.9907 161.442 27.636C160.994 27.2813 160.77 26.7867 160.77 26.152C160.77 25.5173 160.957 25.018 161.33 24.654C161.704 24.29 162.296 24.0333 163.108 23.884L165.74 23.394C165.74 22.7687 165.591 22.302 165.292 21.994C165.003 21.686 164.564 21.532 163.976 21.532C163.463 21.532 163.057 21.6487 162.758 21.882C162.46 22.106 162.254 22.4327 162.142 22.862L160.896 22.764C161.036 22.064 161.372 21.4993 161.904 21.07C162.446 20.6313 163.136 20.412 163.976 20.412C164.928 20.412 165.656 20.6827 166.16 21.224C166.664 21.756 166.916 22.4933 166.916 23.436V26.502C166.916 26.67 166.944 26.7913 167 26.866C167.066 26.9313 167.168 26.964 167.308 26.964H167.602V28C167.565 28.0093 167.504 28.014 167.42 28.014C167.336 28.0233 167.248 28.028 167.154 28.028C166.818 28.028 166.543 27.9767 166.328 27.874C166.123 27.762 165.974 27.594 165.88 27.37C165.787 27.1367 165.74 26.8333 165.74 26.46L165.88 26.488C165.815 26.8053 165.656 27.0947 165.404 27.356C165.152 27.608 164.84 27.8087 164.466 27.958C164.093 28.098 163.696 28.168 163.276 28.168ZM163.388 27.132C163.883 27.132 164.303 27.0387 164.648 26.852C165.003 26.656 165.274 26.3947 165.46 26.068C165.647 25.732 165.74 25.3587 165.74 24.948V24.416L163.332 24.864C162.828 24.9573 162.478 25.102 162.282 25.298C162.096 25.4847 162.002 25.732 162.002 26.04C162.002 26.3853 162.124 26.656 162.366 26.852C162.618 27.0387 162.959 27.132 163.388 27.132ZM168.931 28V20.58H170.009L170.051 22.47L169.911 22.344C170.004 21.9053 170.167 21.546 170.401 21.266C170.634 20.9767 170.914 20.762 171.241 20.622C171.577 20.482 171.936 20.412 172.319 20.412C172.888 20.412 173.355 20.538 173.719 20.79C174.092 21.042 174.367 21.3827 174.545 21.812C174.731 22.232 174.825 22.7033 174.825 23.226V28H173.649V23.562C173.649 23.1047 173.593 22.722 173.481 22.414C173.378 22.0967 173.21 21.8587 172.977 21.7C172.743 21.532 172.44 21.448 172.067 21.448C171.497 21.448 171.026 21.63 170.653 21.994C170.289 22.3487 170.107 22.8713 170.107 23.562V28H168.931ZM184.541 28.224C183.655 28.224 182.875 28.0187 182.203 27.608C181.531 27.188 181.009 26.5907 180.635 25.816C180.262 25.0413 180.075 24.1173 180.075 23.044C180.075 21.9707 180.262 21.0467 180.635 20.272C181.009 19.488 181.531 18.886 182.203 18.466C182.875 18.046 183.655 17.836 184.541 17.836C185.745 17.836 186.679 18.1393 187.341 18.746C188.004 19.3527 188.438 20.1787 188.643 21.224L187.369 21.308C187.229 20.5987 186.931 20.0387 186.473 19.628C186.016 19.2173 185.372 19.012 184.541 19.012C183.907 19.012 183.347 19.1753 182.861 19.502C182.385 19.8193 182.012 20.2813 181.741 20.888C181.471 21.4853 181.335 22.204 181.335 23.044C181.335 23.884 181.471 24.6027 181.741 25.2C182.012 25.7973 182.385 26.2547 182.861 26.572C183.347 26.8893 183.907 27.048 184.541 27.048C185.409 27.048 186.081 26.824 186.557 26.376C187.033 25.9187 187.332 25.3027 187.453 24.528L188.727 24.612C188.606 25.3307 188.368 25.9607 188.013 26.502C187.659 27.0433 187.187 27.468 186.599 27.776C186.021 28.0747 185.335 28.224 184.541 28.224ZM192.356 28.168C191.591 28.168 190.98 27.9907 190.522 27.636C190.074 27.2813 189.85 26.7867 189.85 26.152C189.85 25.5173 190.037 25.018 190.41 24.654C190.784 24.29 191.376 24.0333 192.188 23.884L194.82 23.394C194.82 22.7687 194.671 22.302 194.372 21.994C194.083 21.686 193.644 21.532 193.056 21.532C192.543 21.532 192.137 21.6487 191.838 21.882C191.54 22.106 191.334 22.4327 191.222 22.862L189.976 22.764C190.116 22.064 190.452 21.4993 190.984 21.07C191.526 20.6313 192.216 20.412 193.056 20.412C194.008 20.412 194.736 20.6827 195.24 21.224C195.744 21.756 195.996 22.4933 195.996 23.436V26.502C195.996 26.67 196.024 26.7913 196.08 26.866C196.146 26.9313 196.248 26.964 196.388 26.964H196.682V28C196.645 28.0093 196.584 28.014 196.5 28.014C196.416 28.0233 196.328 28.028 196.234 28.028C195.898 28.028 195.623 27.9767 195.408 27.874C195.203 27.762 195.054 27.594 194.96 27.37C194.867 27.1367 194.82 26.8333 194.82 26.46L194.96 26.488C194.895 26.8053 194.736 27.0947 194.484 27.356C194.232 27.608 193.92 27.8087 193.546 27.958C193.173 28.098 192.776 28.168 192.356 28.168ZM192.468 27.132C192.963 27.132 193.383 27.0387 193.728 26.852C194.083 26.656 194.354 26.3947 194.54 26.068C194.727 25.732 194.82 25.3587 194.82 24.948V24.416L192.412 24.864C191.908 24.9573 191.558 25.102 191.362 25.298C191.176 25.4847 191.082 25.732 191.082 26.04C191.082 26.3853 191.204 26.656 191.446 26.852C191.698 27.0387 192.039 27.132 192.468 27.132ZM199.385 28C198.955 28 198.605 27.888 198.335 27.664C198.064 27.44 197.929 27.0853 197.929 26.6V18.06H199.105V26.502C199.105 26.6513 199.142 26.768 199.217 26.852C199.301 26.9267 199.417 26.964 199.567 26.964H200.211V28H199.385ZM204.477 28.168C203.786 28.168 203.184 28.0093 202.671 27.692C202.167 27.3747 201.775 26.9267 201.495 26.348C201.215 25.76 201.075 25.074 201.075 24.29C201.075 23.506 201.215 22.8247 201.495 22.246C201.775 21.6673 202.167 21.2193 202.671 20.902C203.184 20.5753 203.786 20.412 204.477 20.412C205.046 20.412 205.55 20.5147 205.989 20.72C206.437 20.916 206.801 21.2053 207.081 21.588C207.361 21.9707 207.543 22.4373 207.627 22.988L206.395 23.072C206.311 22.5773 206.096 22.1993 205.751 21.938C205.406 21.6673 204.981 21.532 204.477 21.532C203.796 21.532 203.264 21.7793 202.881 22.274C202.498 22.7593 202.307 23.4313 202.307 24.29C202.307 25.1487 202.498 25.8253 202.881 26.32C203.264 26.8053 203.796 27.048 204.477 27.048C204.981 27.048 205.406 26.908 205.751 26.628C206.096 26.348 206.311 25.928 206.395 25.368L207.627 25.452C207.543 26.0027 207.361 26.4833 207.081 26.894C206.801 27.2953 206.437 27.608 205.989 27.832C205.55 28.056 205.046 28.168 204.477 28.168ZM211.521 28.168C210.784 28.168 210.191 27.9207 209.743 27.426C209.304 26.922 209.085 26.2313 209.085 25.354V20.58H210.261V25.032C210.261 25.7507 210.387 26.2827 210.639 26.628C210.9 26.964 211.297 27.132 211.829 27.132C212.417 27.132 212.879 26.9453 213.215 26.572C213.551 26.1893 213.719 25.6667 213.719 25.004V20.58H214.895V28H213.775V26.166L213.957 26.264C213.808 26.8707 213.523 27.342 213.103 27.678C212.683 28.0047 212.156 28.168 211.521 28.168ZM218.594 28C218.164 28 217.814 27.888 217.544 27.664C217.273 27.44 217.138 27.0853 217.138 26.6V18.06H218.314V26.502C218.314 26.6513 218.351 26.768 218.426 26.852C218.51 26.9267 218.626 26.964 218.776 26.964H219.42V28H218.594ZM222.872 28.168C222.107 28.168 221.495 27.9907 221.038 27.636C220.59 27.2813 220.366 26.7867 220.366 26.152C220.366 25.5173 220.553 25.018 220.926 24.654C221.299 24.29 221.892 24.0333 222.704 23.884L225.336 23.394C225.336 22.7687 225.187 22.302 224.888 21.994C224.599 21.686 224.16 21.532 223.572 21.532C223.059 21.532 222.653 21.6487 222.354 21.882C222.055 22.106 221.85 22.4327 221.738 22.862L220.492 22.764C220.632 22.064 220.968 21.4993 221.5 21.07C222.041 20.6313 222.732 20.412 223.572 20.412C224.524 20.412 225.252 20.6827 225.756 21.224C226.26 21.756 226.512 22.4933 226.512 23.436V26.502C226.512 26.67 226.54 26.7913 226.596 26.866C226.661 26.9313 226.764 26.964 226.904 26.964H227.198V28C227.161 28.0093 227.1 28.014 227.016 28.014C226.932 28.0233 226.843 28.028 226.75 28.028C226.414 28.028 226.139 27.9767 225.924 27.874C225.719 27.762 225.569 27.594 225.476 27.37C225.383 27.1367 225.336 26.8333 225.336 26.46L225.476 26.488C225.411 26.8053 225.252 27.0947 225 27.356C224.748 27.608 224.435 27.8087 224.062 27.958C223.689 28.098 223.292 28.168 222.872 28.168ZM222.984 27.132C223.479 27.132 223.899 27.0387 224.244 26.852C224.599 26.656 224.869 26.3947 225.056 26.068C225.243 25.732 225.336 25.3587 225.336 24.948V24.416L222.928 24.864C222.424 24.9573 222.074 25.102 221.878 25.298C221.691 25.4847 221.598 25.732 221.598 26.04C221.598 26.3853 221.719 26.656 221.962 26.852C222.214 27.0387 222.555 27.132 222.984 27.132ZM230.873 28C230.201 28 229.702 27.846 229.375 27.538C229.058 27.23 228.899 26.7493 228.899 26.096V18.844H230.075V26.068C230.075 26.404 230.15 26.6373 230.299 26.768C230.448 26.8987 230.677 26.964 230.985 26.964H232.049V28H230.873ZM227.807 21.616V20.58H232.049V21.616H227.807ZM236.319 28.168C235.637 28.168 235.04 28.0093 234.527 27.692C234.013 27.3747 233.617 26.9267 233.337 26.348C233.057 25.76 232.917 25.074 232.917 24.29C232.917 23.4967 233.057 22.8107 233.337 22.232C233.617 21.6533 234.013 21.2053 234.527 20.888C235.04 20.5707 235.637 20.412 236.319 20.412C237 20.412 237.593 20.5707 238.097 20.888C238.61 21.2053 239.007 21.6533 239.287 22.232C239.567 22.8107 239.707 23.4967 239.707 24.29C239.707 25.074 239.567 25.76 239.287 26.348C239.007 26.9267 238.61 27.3747 238.097 27.692C237.593 28.0093 237 28.168 236.319 28.168ZM236.319 27.048C237 27.048 237.527 26.8053 237.901 26.32C238.283 25.8253 238.475 25.1487 238.475 24.29C238.475 23.4313 238.283 22.7593 237.901 22.274C237.527 21.7793 237 21.532 236.319 21.532C235.637 21.532 235.105 21.7793 234.723 22.274C234.34 22.7593 234.149 23.4313 234.149 24.29C234.149 25.1487 234.34 25.8253 234.723 26.32C235.105 26.8053 235.637 27.048 236.319 27.048ZM241.309 28V20.58H242.345L242.401 22.456L242.289 22.414C242.383 21.7793 242.583 21.3173 242.891 21.028C243.209 20.7293 243.629 20.58 244.151 20.58H244.879V21.7H244.165C243.792 21.7 243.479 21.77 243.227 21.91C242.985 22.0407 242.798 22.2413 242.667 22.512C242.546 22.7733 242.485 23.1093 242.485 23.52V28H241.309Z" fill="#171717"/>
</g>
<g filter="url(#filter2_dd_468_49221)">
<rect x="265.5" y="5" width="173" height="36" rx="10" fill="white"/>
<path d="M287.5 23C285.833 20.775 284.167 19.6666 282.5 19.6666C281.616 19.6666 280.768 20.0178 280.143 20.6429C279.518 21.2681 279.167 22.1159 279.167 23C279.167 23.884 279.518 24.7319 280.143 25.357C280.768 25.9821 281.616 26.3333 282.5 26.3333C284.167 26.3333 285.833 25.225 287.5 23ZM287.5 23C289.167 25.225 290.833 26.3333 292.5 26.3333C293.384 26.3333 294.232 25.9821 294.857 25.357C295.482 24.7319 295.833 23.884 295.833 23C295.833 22.1159 295.482 21.2681 294.857 20.6429C294.232 20.0178 293.384 19.6666 292.5 19.6666C290.833 19.6666 289.167 20.775 287.5 23Z" stroke="#F79009" stroke-width="1.5" stroke-linecap="round" stroke-linejoin="round"/>
<path d="M304.788 28V18.06H305.992V28H304.788ZM308.53 28V20.58H309.608L309.65 22.47L309.51 22.344C309.603 21.9053 309.767 21.546 310 21.266C310.233 20.9767 310.513 20.762 310.84 20.622C311.176 20.482 311.535 20.412 311.918 20.412C312.487 20.412 312.954 20.538 313.318 20.79C313.691 21.042 313.967 21.3827 314.144 21.812C314.331 22.232 314.424 22.7033 314.424 23.226V28H313.248V23.562C313.248 23.1047 313.192 22.722 313.08 22.414C312.977 22.0967 312.809 21.8587 312.576 21.7C312.343 21.532 312.039 21.448 311.666 21.448C311.097 21.448 310.625 21.63 310.252 21.994C309.888 22.3487 309.706 22.8713 309.706 23.562V28H308.53ZM316.914 28V19.908C316.914 19.3573 317.073 18.914 317.39 18.578C317.708 18.2327 318.202 18.06 318.874 18.06H320.05V19.096H318.958C318.669 19.096 318.45 19.1753 318.3 19.334C318.16 19.4927 318.09 19.712 318.09 19.992V28H316.914ZM315.906 21.616V20.58H319.952V21.616H315.906ZM322.892 28C322.463 28 322.113 27.888 321.842 27.664C321.572 27.44 321.436 27.0853 321.436 26.6V18.06H322.612V26.502C322.612 26.6513 322.65 26.768 322.724 26.852C322.808 26.9267 322.925 26.964 323.074 26.964H323.718V28H322.892ZM327.171 28.168C326.405 28.168 325.794 27.9907 325.337 27.636C324.889 27.2813 324.665 26.7867 324.665 26.152C324.665 25.5173 324.851 25.018 325.225 24.654C325.598 24.29 326.191 24.0333 327.003 23.884L329.635 23.394C329.635 22.7687 329.485 22.302 329.187 21.994C328.897 21.686 328.459 21.532 327.871 21.532C327.357 21.532 326.951 21.6487 326.653 21.882C326.354 22.106 326.149 22.4327 326.037 22.862L324.791 22.764C324.931 22.064 325.267 21.4993 325.799 21.07C326.34 20.6313 327.031 20.412 327.871 20.412C328.823 20.412 329.551 20.6827 330.055 21.224C330.559 21.756 330.811 22.4933 330.811 23.436V26.502C330.811 26.67 330.839 26.7913 330.895 26.866C330.96 26.9313 331.063 26.964 331.203 26.964H331.497V28C331.459 28.0093 331.399 28.014 331.315 28.014C331.231 28.0233 331.142 28.028 331.049 28.028C330.713 28.028 330.437 27.9767 330.223 27.874C330.017 27.762 329.868 27.594 329.775 27.37C329.681 27.1367 329.635 26.8333 329.635 26.46L329.775 26.488C329.709 26.8053 329.551 27.0947 329.299 27.356C329.047 27.608 328.734 27.8087 328.361 27.958C327.987 28.098 327.591 28.168 327.171 28.168ZM327.283 27.132C327.777 27.132 328.197 27.0387 328.543 26.852C328.897 26.656 329.168 26.3947 329.355 26.068C329.541 25.732 329.635 25.3587 329.635 24.948V24.416L327.227 24.864C326.723 24.9573 326.373 25.102 326.177 25.298C325.99 25.4847 325.897 25.732 325.897 26.04C325.897 26.3853 326.018 26.656 326.261 26.852C326.513 27.0387 326.853 27.132 327.283 27.132ZM335.172 28C334.5 28 334.001 27.846 333.674 27.538C333.357 27.23 333.198 26.7493 333.198 26.096V18.844H334.374V26.068C334.374 26.404 334.449 26.6373 334.598 26.768C334.747 26.8987 334.976 26.964 335.284 26.964H336.348V28H335.172ZM332.106 21.616V20.58H336.348V21.616H332.106ZM337.856 28V20.58H339.032V28H337.856ZM337.828 19.418V18.046H339.06V19.418H337.828ZM344.036 28.168C343.354 28.168 342.757 28.0093 342.244 27.692C341.73 27.3747 341.334 26.9267 341.054 26.348C340.774 25.76 340.634 25.074 340.634 24.29C340.634 23.4967 340.774 22.8107 341.054 22.232C341.334 21.6533 341.73 21.2053 342.244 20.888C342.757 20.5707 343.354 20.412 344.036 20.412C344.717 20.412 345.31 20.5707 345.814 20.888C346.327 21.2053 346.724 21.6533 347.004 22.232C347.284 22.8107 347.424 23.4967 347.424 24.29C347.424 25.074 347.284 25.76 347.004 26.348C346.724 26.9267 346.327 27.3747 345.814 27.692C345.31 28.0093 344.717 28.168 344.036 28.168ZM344.036 27.048C344.717 27.048 345.244 26.8053 345.618 26.32C346 25.8253 346.192 25.1487 346.192 24.29C346.192 23.4313 346 22.7593 345.618 22.274C345.244 21.7793 344.717 21.532 344.036 21.532C343.354 21.532 342.822 21.7793 342.44 22.274C342.057 22.7593 341.866 23.4313 341.866 24.29C341.866 25.1487 342.057 25.8253 342.44 26.32C342.822 26.8053 343.354 27.048 344.036 27.048ZM349.026 28V20.58H350.104L350.146 22.47L350.006 22.344C350.1 21.9053 350.263 21.546 350.496 21.266C350.73 20.9767 351.01 20.762 351.336 20.622C351.672 20.482 352.032 20.412 352.414 20.412C352.984 20.412 353.45 20.538 353.814 20.79C354.188 21.042 354.463 21.3827 354.64 21.812C354.827 22.232 354.92 22.7033 354.92 23.226V28H353.744V23.562C353.744 23.1047 353.688 22.722 353.576 22.414C353.474 22.0967 353.306 21.8587 353.072 21.7C352.839 21.532 352.536 21.448 352.162 21.448C351.593 21.448 351.122 21.63 350.748 21.994C350.384 22.3487 350.202 22.8713 350.202 23.562V28H349.026ZM364.637 28.224C363.75 28.224 362.971 28.0187 362.299 27.608C361.627 27.188 361.104 26.5907 360.731 25.816C360.358 25.0413 360.171 24.1173 360.171 23.044C360.171 21.9707 360.358 21.0467 360.731 20.272C361.104 19.488 361.627 18.886 362.299 18.466C362.971 18.046 363.75 17.836 364.637 17.836C365.841 17.836 366.774 18.1393 367.437 18.746C368.1 19.3527 368.534 20.1787 368.739 21.224L367.465 21.308C367.325 20.5987 367.026 20.0387 366.569 19.628C366.112 19.2173 365.468 19.012 364.637 19.012C364.002 19.012 363.442 19.1753 362.957 19.502C362.481 19.8193 362.108 20.2813 361.837 20.888C361.566 21.4853 361.431 22.204 361.431 23.044C361.431 23.884 361.566 24.6027 361.837 25.2C362.108 25.7973 362.481 26.2547 362.957 26.572C363.442 26.8893 364.002 27.048 364.637 27.048C365.505 27.048 366.177 26.824 366.653 26.376C367.129 25.9187 367.428 25.3027 367.549 24.528L368.823 24.612C368.702 25.3307 368.464 25.9607 368.109 26.502C367.754 27.0433 367.283 27.468 366.695 27.776C366.116 28.0747 365.43 28.224 364.637 28.224ZM372.452 28.168C371.687 28.168 371.075 27.9907 370.618 27.636C370.17 27.2813 369.946 26.7867 369.946 26.152C369.946 25.5173 370.133 25.018 370.506 24.654C370.879 24.29 371.472 24.0333 372.284 23.884L374.916 23.394C374.916 22.7687 374.767 22.302 374.468 21.994C374.179 21.686 373.74 21.532 373.152 21.532C372.639 21.532 372.233 21.6487 371.934 21.882C371.635 22.106 371.43 22.4327 371.318 22.862L370.072 22.764C370.212 22.064 370.548 21.4993 371.08 21.07C371.621 20.6313 372.312 20.412 373.152 20.412C374.104 20.412 374.832 20.6827 375.336 21.224C375.84 21.756 376.092 22.4933 376.092 23.436V26.502C376.092 26.67 376.12 26.7913 376.176 26.866C376.241 26.9313 376.344 26.964 376.484 26.964H376.778V28C376.741 28.0093 376.68 28.014 376.596 28.014C376.512 28.0233 376.423 28.028 376.33 28.028C375.994 28.028 375.719 27.9767 375.504 27.874C375.299 27.762 375.149 27.594 375.056 27.37C374.963 27.1367 374.916 26.8333 374.916 26.46L375.056 26.488C374.991 26.8053 374.832 27.0947 374.58 27.356C374.328 27.608 374.015 27.8087 373.642 27.958C373.269 28.098 372.872 28.168 372.452 28.168ZM372.564 27.132C373.059 27.132 373.479 27.0387 373.824 26.852C374.179 26.656 374.449 26.3947 374.636 26.068C374.823 25.732 374.916 25.3587 374.916 24.948V24.416L372.508 24.864C372.004 24.9573 371.654 25.102 371.458 25.298C371.271 25.4847 371.178 25.732 371.178 26.04C371.178 26.3853 371.299 26.656 371.542 26.852C371.794 27.0387 372.135 27.132 372.564 27.132ZM379.48 28C379.051 28 378.701 27.888 378.43 27.664C378.16 27.44 378.024 27.0853 378.024 26.6V18.06H379.2V26.502C379.2 26.6513 379.238 26.768 379.312 26.852C379.396 26.9267 379.513 26.964 379.662 26.964H380.306V28H379.48ZM384.573 28.168C383.882 28.168 383.28 28.0093 382.767 27.692C382.263 27.3747 381.871 26.9267 381.591 26.348C381.311 25.76 381.171 25.074 381.171 24.29C381.171 23.506 381.311 22.8247 381.591 22.246C381.871 21.6673 382.263 21.2193 382.767 20.902C383.28 20.5753 383.882 20.412 384.573 20.412C385.142 20.412 385.646 20.5147 386.085 20.72C386.533 20.916 386.897 21.2053 387.177 21.588C387.457 21.9707 387.639 22.4373 387.723 22.988L386.491 23.072C386.407 22.5773 386.192 22.1993 385.847 21.938C385.501 21.6673 385.077 21.532 384.573 21.532C383.891 21.532 383.359 21.7793 382.977 22.274C382.594 22.7593 382.403 23.4313 382.403 24.29C382.403 25.1487 382.594 25.8253 382.977 26.32C383.359 26.8053 383.891 27.048 384.573 27.048C385.077 27.048 385.501 26.908 385.847 26.628C386.192 26.348 386.407 25.928 386.491 25.368L387.723 25.452C387.639 26.0027 387.457 26.4833 387.177 26.894C386.897 27.2953 386.533 27.608 386.085 27.832C385.646 28.056 385.142 28.168 384.573 28.168ZM391.617 28.168C390.879 28.168 390.287 27.9207 389.839 27.426C389.4 26.922 389.181 26.2313 389.181 25.354V20.58H390.357V25.032C390.357 25.7507 390.483 26.2827 390.735 26.628C390.996 26.964 391.393 27.132 391.925 27.132C392.513 27.132 392.975 26.9453 393.311 26.572C393.647 26.1893 393.815 25.6667 393.815 25.004V20.58H394.991V28H393.871V26.166L394.053 26.264C393.903 26.8707 393.619 27.342 393.199 27.678C392.779 28.0047 392.251 28.168 391.617 28.168ZM398.689 28C398.26 28 397.91 27.888 397.639 27.664C397.369 27.44 397.233 27.0853 397.233 26.6V18.06H398.409V26.502C398.409 26.6513 398.447 26.768 398.521 26.852C398.605 26.9267 398.722 26.964 398.871 26.964H399.515V28H398.689ZM402.968 28.168C402.202 28.168 401.591 27.9907 401.134 27.636C400.686 27.2813 400.462 26.7867 400.462 26.152C400.462 25.5173 400.648 25.018 401.022 24.654C401.395 24.29 401.988 24.0333 402.8 23.884L405.432 23.394C405.432 22.7687 405.282 22.302 404.984 21.994C404.694 21.686 404.256 21.532 403.668 21.532C403.154 21.532 402.748 21.6487 402.45 21.882C402.151 22.106 401.946 22.4327 401.834 22.862L400.588 22.764C400.728 22.064 401.064 21.4993 401.596 21.07C402.137 20.6313 402.828 20.412 403.668 20.412C404.62 20.412 405.348 20.6827 405.852 21.224C406.356 21.756 406.608 22.4933 406.608 23.436V26.502C406.608 26.67 406.636 26.7913 406.692 26.866C406.757 26.9313 406.86 26.964 407 26.964H407.294V28C407.256 28.0093 407.196 28.014 407.112 28.014C407.028 28.0233 406.939 28.028 406.846 28.028C406.51 28.028 406.234 27.9767 406.02 27.874C405.814 27.762 405.665 27.594 405.572 27.37C405.478 27.1367 405.432 26.8333 405.432 26.46L405.572 26.488C405.506 26.8053 405.348 27.0947 405.096 27.356C404.844 27.608 404.531 27.8087 404.158 27.958C403.784 28.098 403.388 28.168 402.968 28.168ZM403.08 27.132C403.574 27.132 403.994 27.0387 404.34 26.852C404.694 26.656 404.965 26.3947 405.152 26.068C405.338 25.732 405.432 25.3587 405.432 24.948V24.416L403.024 24.864C402.52 24.9573 402.17 25.102 401.974 25.298C401.787 25.4847 401.694 25.732 401.694 26.04C401.694 26.3853 401.815 26.656 402.058 26.852C402.31 27.0387 402.65 27.132 403.08 27.132ZM410.969 28C410.297 28 409.797 27.846 409.471 27.538C409.153 27.23 408.995 26.7493 408.995 26.096V18.844H410.171V26.068C410.171 26.404 410.245 26.6373 410.395 26.768C410.544 26.8987 410.773 26.964 411.081 26.964H412.145V28H410.969ZM407.903 21.616V20.58H412.145V21.616H407.903ZM416.414 28.168C415.733 28.168 415.136 28.0093 414.622 27.692C414.109 27.3747 413.712 26.9267 413.432 26.348C413.152 25.76 413.012 25.074 413.012 24.29C413.012 23.4967 413.152 22.8107 413.432 22.232C413.712 21.6533 414.109 21.2053 414.622 20.888C415.136 20.5707 415.733 20.412 416.414 20.412C417.096 20.412 417.688 20.5707 418.192 20.888C418.706 21.2053 419.102 21.6533 419.382 22.232C419.662 22.8107 419.802 23.4967 419.802 24.29C419.802 25.074 419.662 25.76 419.382 26.348C419.102 26.9267 418.706 27.3747 418.192 27.692C417.688 28.0093 417.096 28.168 416.414 28.168ZM416.414 27.048C417.096 27.048 417.623 26.8053 417.996 26.32C418.379 25.8253 418.57 25.1487 418.57 24.29C418.57 23.4313 418.379 22.7593 417.996 22.274C417.623 21.7793 417.096 21.532 416.414 21.532C415.733 21.532 415.201 21.7793 414.818 22.274C414.436 22.7593 414.244 23.4313 414.244 24.29C414.244 25.1487 414.436 25.8253 414.818 26.32C415.201 26.8053 415.733 27.048 416.414 27.048ZM421.405 28V20.58H422.441L422.497 22.456L422.385 22.414C422.478 21.7793 422.679 21.3173 422.987 21.028C423.304 20.7293 423.724 20.58 424.247 20.58H424.975V21.7H424.261C423.888 21.7 423.575 21.77 423.323 21.91C423.08 22.0407 422.894 22.2413 422.763 22.512C422.642 22.7733 422.581 23.1093 422.581 23.52V28H421.405Z" fill="#171717"/>
</g>
<g filter="url(#filter3_dd_468_49221)">
<rect x="-47" y="49" width="237" height="36" rx="10" fill="white"/>
<path d="M-7.712 72V62.06H-1.468V63.236H-7.11L-6.508 62.62V67.184L-7.11 66.568H-1.72V67.716H-7.11L-6.508 67.1V72H-7.712ZM0.104375 72V64.58H1.28038V72H0.104375ZM0.076375 63.418V62.046H1.30838V63.418H0.076375ZM3.65906 72V64.58H4.73706L4.77906 66.47L4.63906 66.344C4.7324 65.9053 4.89573 65.546 5.12906 65.266C5.3624 64.9767 5.6424 64.762 5.96906 64.622C6.30506 64.482 6.6644 64.412 7.04706 64.412C7.6164 64.412 8.08306 64.538 8.44706 64.79C8.8204 65.042 9.09573 65.3827 9.27306 65.812C9.45973 66.232 9.55306 66.7033 9.55306 67.226V72H8.37706V67.562C8.37706 67.1047 8.32106 66.722 8.20906 66.414C8.1064 66.0967 7.9384 65.8587 7.70506 65.7C7.47173 65.532 7.1684 65.448 6.79506 65.448C6.22573 65.448 5.7544 65.63 5.38106 65.994C5.01706 66.3487 4.83506 66.8713 4.83506 67.562V72H3.65906ZM13.6591 72.168C12.8938 72.168 12.2824 71.9907 11.8251 71.636C11.3771 71.2813 11.1531 70.7867 11.1531 70.152C11.1531 69.5173 11.3398 69.018 11.7131 68.654C12.0864 68.29 12.6791 68.0333 13.4911 67.884L16.1231 67.394C16.1231 66.7687 15.9738 66.302 15.6751 65.994C15.3858 65.686 14.9471 65.532 14.3591 65.532C13.8458 65.532 13.4398 65.6487 13.1411 65.882C12.8424 66.106 12.6371 66.4327 12.5251 66.862L11.2791 66.764C11.4191 66.064 11.7551 65.4993 12.2871 65.07C12.8284 64.6313 13.5191 64.412 14.3591 64.412C15.3111 64.412 16.0391 64.6827 16.5431 65.224C17.0471 65.756 17.2991 66.4933 17.2991 67.436V70.502C17.2991 70.67 17.3271 70.7913 17.3831 70.866C17.4484 70.9313 17.5511 70.964 17.6911 70.964H17.9851V72C17.9478 72.0093 17.8871 72.014 17.8031 72.014C17.7191 72.0233 17.6304 72.028 17.5371 72.028C17.2011 72.028 16.9258 71.9767 16.7111 71.874C16.5058 71.762 16.3564 71.594 16.2631 71.37C16.1698 71.1367 16.1231 70.8333 16.1231 70.46L16.2631 70.488C16.1978 70.8053 16.0391 71.0947 15.7871 71.356C15.5351 71.608 15.2224 71.8087 14.8491 71.958C14.4758 72.098 14.0791 72.168 13.6591 72.168ZM13.7711 71.132C14.2658 71.132 14.6858 71.0387 15.0311 70.852C15.3858 70.656 15.6564 70.3947 15.8431 70.068C16.0298 69.732 16.1231 69.3587 16.1231 68.948V68.416L13.7151 68.864C13.2111 68.9573 12.8611 69.102 12.6651 69.298C12.4784 69.4847 12.3851 69.732 12.3851 70.04C12.3851 70.3853 12.5064 70.656 12.7491 70.852C13.0011 71.0387 13.3418 71.132 13.7711 71.132ZM19.3134 72V64.58H20.3914L20.4334 66.47L20.2934 66.344C20.3867 65.9053 20.55 65.546 20.7834 65.266C21.0167 64.9767 21.2967 64.762 21.6234 64.622C21.9594 64.482 22.3187 64.412 22.7014 64.412C23.2707 64.412 23.7374 64.538 24.1014 64.79C24.4747 65.042 24.75 65.3827 24.9274 65.812C25.114 66.232 25.2074 66.7033 25.2074 67.226V72H24.0314V67.562C24.0314 67.1047 23.9754 66.722 23.8634 66.414C23.7607 66.0967 23.5927 65.8587 23.3594 65.7C23.126 65.532 22.8227 65.448 22.4494 65.448C21.88 65.448 21.4087 65.63 21.0354 65.994C20.6714 66.3487 20.4894 66.8713 20.4894 67.562V72H19.3134ZM30.1821 72.168C29.4914 72.168 28.8894 72.0093 28.3761 71.692C27.8721 71.3747 27.4801 70.9267 27.2001 70.348C26.9201 69.76 26.7801 69.074 26.7801 68.29C26.7801 67.506 26.9201 66.8247 27.2001 66.246C27.4801 65.6673 27.8721 65.2193 28.3761 64.902C28.8894 64.5753 29.4914 64.412 30.1821 64.412C30.7514 64.412 31.2554 64.5147 31.6941 64.72C32.1421 64.916 32.5061 65.2053 32.7861 65.588C33.0661 65.9707 33.2481 66.4373 33.3321 66.988L32.1001 67.072C32.0161 66.5773 31.8014 66.1993 31.4561 65.938C31.1107 65.6673 30.6861 65.532 30.1821 65.532C29.5007 65.532 28.9687 65.7793 28.5861 66.274C28.2034 66.7593 28.0121 67.4313 28.0121 68.29C28.0121 69.1487 28.2034 69.8253 28.5861 70.32C28.9687 70.8053 29.5007 71.048 30.1821 71.048C30.6861 71.048 31.1107 70.908 31.4561 70.628C31.8014 70.348 32.0161 69.928 32.1001 69.368L33.3321 69.452C33.2481 70.0027 33.0661 70.4833 32.7861 70.894C32.5061 71.2953 32.1421 71.608 31.6941 71.832C31.2554 72.056 30.7514 72.168 30.1821 72.168ZM34.7899 72V64.58H35.9659V72H34.7899ZM34.7619 63.418V62.046H35.9939V63.418H34.7619ZM40.0732 72.168C39.3078 72.168 38.6965 71.9907 38.2392 71.636C37.7912 71.2813 37.5672 70.7867 37.5672 70.152C37.5672 69.5173 37.7538 69.018 38.1272 68.654C38.5005 68.29 39.0932 68.0333 39.9052 67.884L42.5372 67.394C42.5372 66.7687 42.3878 66.302 42.0892 65.994C41.7998 65.686 41.3612 65.532 40.7732 65.532C40.2598 65.532 39.8538 65.6487 39.5552 65.882C39.2565 66.106 39.0512 66.4327 38.9392 66.862L37.6932 66.764C37.8332 66.064 38.1692 65.4993 38.7012 65.07C39.2425 64.6313 39.9332 64.412 40.7732 64.412C41.7252 64.412 42.4532 64.6827 42.9572 65.224C43.4612 65.756 43.7132 66.4933 43.7132 67.436V70.502C43.7132 70.67 43.7412 70.7913 43.7972 70.866C43.8625 70.9313 43.9652 70.964 44.1052 70.964H44.3992V72C44.3618 72.0093 44.3012 72.014 44.2172 72.014C44.1332 72.0233 44.0445 72.028 43.9512 72.028C43.6152 72.028 43.3398 71.9767 43.1252 71.874C42.9198 71.762 42.7705 71.594 42.6772 71.37C42.5838 71.1367 42.5372 70.8333 42.5372 70.46L42.6772 70.488C42.6118 70.8053 42.4532 71.0947 42.2012 71.356C41.9492 71.608 41.6365 71.8087 41.2632 71.958C40.8898 72.098 40.4932 72.168 40.0732 72.168ZM40.1852 71.132C40.6798 71.132 41.0998 71.0387 41.4452 70.852C41.7998 70.656 42.0705 70.3947 42.2572 70.068C42.4438 69.732 42.5372 69.3587 42.5372 68.948V68.416L40.1292 68.864C39.6252 68.9573 39.2752 69.102 39.0792 69.298C38.8925 69.4847 38.7992 69.732 38.7992 70.04C38.7992 70.3853 38.9205 70.656 39.1632 70.852C39.4152 71.0387 39.7558 71.132 40.1852 71.132ZM47.1014 72C46.6721 72 46.3221 71.888 46.0514 71.664C45.7807 71.44 45.6454 71.0853 45.6454 70.6V62.06H46.8214V70.502C46.8214 70.6513 46.8587 70.768 46.9334 70.852C47.0174 70.9267 47.1341 70.964 47.2834 70.964H47.9274V72H47.1014ZM53.0458 72V62.06H59.2898V63.236H53.6478L54.2498 62.62V67.184L53.6478 66.568H59.0378V67.716H53.6478L54.2498 67.1V72H53.0458ZM60.7118 72V64.58H61.7478L61.8038 66.456L61.6918 66.414C61.7851 65.7793 61.9858 65.3173 62.2938 65.028C62.6111 64.7293 63.0311 64.58 63.5538 64.58H64.2818V65.7H63.5678C63.1945 65.7 62.8818 65.77 62.6298 65.91C62.3871 66.0407 62.2005 66.2413 62.0698 66.512C61.9485 66.7733 61.8878 67.1093 61.8878 67.52V72H60.7118ZM68.3539 72.168C67.6539 72.168 67.0473 72.0093 66.5339 71.692C66.0299 71.3747 65.6379 70.9267 65.3579 70.348C65.0873 69.76 64.9519 69.074 64.9519 68.29C64.9519 67.506 65.0873 66.8247 65.3579 66.246C65.6379 65.6673 66.0253 65.2193 66.5199 64.902C67.0239 64.5753 67.6166 64.412 68.2979 64.412C68.9419 64.412 69.5113 64.566 70.0059 64.874C70.5006 65.1727 70.8833 65.6113 71.1539 66.19C71.4339 66.7687 71.5739 67.4733 71.5739 68.304V68.654H66.1839C66.2306 69.4473 66.4406 70.0447 66.8139 70.446C67.1966 70.8473 67.7099 71.048 68.3539 71.048C68.8393 71.048 69.2359 70.936 69.5439 70.712C69.8613 70.4787 70.0806 70.1753 70.2019 69.802L71.4619 69.9C71.2659 70.5627 70.8926 71.1087 70.3419 71.538C69.8006 71.958 69.1379 72.168 68.3539 72.168ZM66.1839 67.618H70.2859C70.2299 66.8993 70.0199 66.372 69.6559 66.036C69.3013 65.7 68.8486 65.532 68.2979 65.532C67.7286 65.532 67.2573 65.7093 66.8839 66.064C66.5199 66.4093 66.2866 66.9273 66.1839 67.618ZM76.0649 72.168C75.3649 72.168 74.7582 72.0093 74.2449 71.692C73.7409 71.3747 73.3489 70.9267 73.0689 70.348C72.7982 69.76 72.6629 69.074 72.6629 68.29C72.6629 67.506 72.7982 66.8247 73.0689 66.246C73.3489 65.6673 73.7362 65.2193 74.2309 64.902C74.7349 64.5753 75.3275 64.412 76.0089 64.412C76.6529 64.412 77.2222 64.566 77.7169 64.874C78.2115 65.1727 78.5942 65.6113 78.8649 66.19C79.1449 66.7687 79.2849 67.4733 79.2849 68.304V68.654H73.8949C73.9415 69.4473 74.1515 70.0447 74.5249 70.446C74.9075 70.8473 75.4209 71.048 76.0649 71.048C76.5502 71.048 76.9469 70.936 77.2549 70.712C77.5722 70.4787 77.7915 70.1753 77.9129 69.802L79.1729 69.9C78.9769 70.5627 78.6035 71.1087 78.0529 71.538C77.5115 71.958 76.8489 72.168 76.0649 72.168ZM73.8949 67.618H77.9969C77.9409 66.8993 77.7309 66.372 77.3669 66.036C77.0122 65.7 76.5595 65.532 76.0089 65.532C75.4395 65.532 74.9682 65.7093 74.5949 66.064C74.2309 66.4093 73.9975 66.9273 73.8949 67.618ZM83.5098 72.168C82.8658 72.168 82.3058 72.0093 81.8298 71.692C81.3631 71.3747 81.0038 70.9267 80.7518 70.348C80.4998 69.7693 80.3738 69.0833 80.3738 68.29C80.3738 67.4967 80.4998 66.8107 80.7518 66.232C81.0038 65.6533 81.3631 65.2053 81.8298 64.888C82.3058 64.5707 82.8658 64.412 83.5098 64.412C84.0045 64.412 84.4571 64.5193 84.8678 64.734C85.2785 64.9393 85.5865 65.2333 85.7918 65.616V62.06H86.9678V72H85.9038L85.8618 70.88C85.6565 71.2813 85.3438 71.5987 84.9238 71.832C84.5038 72.056 84.0325 72.168 83.5098 72.168ZM83.7478 71.048C84.1865 71.048 84.5551 70.936 84.8538 70.712C85.1618 70.488 85.3951 70.1707 85.5538 69.76C85.7125 69.34 85.7918 68.85 85.7918 68.29C85.7918 67.7113 85.7125 67.2167 85.5538 66.806C85.3951 66.3953 85.1618 66.0827 84.8538 65.868C84.5551 65.644 84.1865 65.532 83.7478 65.532C83.0945 65.532 82.5718 65.7793 82.1798 66.274C81.7971 66.7593 81.6058 67.4313 81.6058 68.29C81.6058 69.1393 81.7971 69.8113 82.1798 70.306C82.5718 70.8007 83.0945 71.048 83.7478 71.048ZM91.9653 72.168C91.2839 72.168 90.6866 72.0093 90.1733 71.692C89.6599 71.3747 89.2633 70.9267 88.9833 70.348C88.7033 69.76 88.5633 69.074 88.5633 68.29C88.5633 67.4967 88.7033 66.8107 88.9833 66.232C89.2633 65.6533 89.6599 65.2053 90.1733 64.888C90.6866 64.5707 91.2839 64.412 91.9653 64.412C92.6466 64.412 93.2393 64.5707 93.7433 64.888C94.2566 65.2053 94.6533 65.6533 94.9333 66.232C95.2133 66.8107 95.3533 67.4967 95.3533 68.29C95.3533 69.074 95.2133 69.76 94.9333 70.348C94.6533 70.9267 94.2566 71.3747 93.7433 71.692C93.2393 72.0093 92.6466 72.168 91.9653 72.168ZM91.9653 71.048C92.6466 71.048 93.1739 70.8053 93.5473 70.32C93.9299 69.8253 94.1213 69.1487 94.1213 68.29C94.1213 67.4313 93.9299 66.7593 93.5473 66.274C93.1739 65.7793 92.6466 65.532 91.9653 65.532C91.2839 65.532 90.7519 65.7793 90.3693 66.274C89.9866 66.7593 89.7953 67.4313 89.7953 68.29C89.7953 69.1487 89.9866 69.8253 90.3693 70.32C90.7519 70.8053 91.2839 71.048 91.9653 71.048ZM96.9559 72V64.58H98.0339L98.0759 66.456L97.9079 66.4C97.9919 65.9893 98.1366 65.6393 98.3419 65.35C98.5566 65.0513 98.8179 64.8227 99.1259 64.664C99.4339 64.496 99.7746 64.412 100.148 64.412C100.792 64.412 101.315 64.5893 101.716 64.944C102.127 65.2987 102.383 65.7933 102.486 66.428L102.262 66.414C102.337 65.9847 102.472 65.6253 102.668 65.336C102.873 65.0373 103.135 64.8087 103.452 64.65C103.769 64.4913 104.133 64.412 104.544 64.412C105.076 64.412 105.524 64.524 105.888 64.748C106.252 64.9627 106.527 65.28 106.714 65.7C106.901 66.12 106.994 66.6287 106.994 67.226V72H105.818V67.478C105.818 66.806 105.687 66.302 105.426 65.966C105.165 65.6207 104.777 65.448 104.264 65.448C103.919 65.448 103.615 65.532 103.354 65.7C103.102 65.868 102.906 66.1107 102.766 66.428C102.626 66.736 102.556 67.114 102.556 67.562V72H101.38V67.562C101.38 66.8993 101.263 66.3813 101.03 66.008C100.797 65.6347 100.405 65.448 99.8539 65.448C99.5086 65.448 99.2053 65.532 98.9439 65.7C98.6919 65.868 98.4913 66.1107 98.3419 66.428C98.2019 66.7453 98.1319 67.1233 98.1319 67.562V72H96.9559ZM116.709 72.224C115.823 72.224 115.043 72.0187 114.371 71.608C113.699 71.188 113.177 70.5907 112.803 69.816C112.43 69.0413 112.243 68.1173 112.243 67.044C112.243 65.9707 112.43 65.0467 112.803 64.272C113.177 63.488 113.699 62.886 114.371 62.466C115.043 62.046 115.823 61.836 116.709 61.836C117.913 61.836 118.847 62.1393 119.509 62.746C120.172 63.3527 120.606 64.1787 120.811 65.224L119.537 65.308C119.397 64.5987 119.099 64.0387 118.641 63.628C118.184 63.2173 117.54 63.012 116.709 63.012C116.075 63.012 115.515 63.1753 115.029 63.502C114.553 63.8193 114.18 64.2813 113.909 64.888C113.639 65.4853 113.503 66.204 113.503 67.044C113.503 67.884 113.639 68.6027 113.909 69.2C114.18 69.7973 114.553 70.2547 115.029 70.572C115.515 70.8893 116.075 71.048 116.709 71.048C117.577 71.048 118.249 70.824 118.725 70.376C119.201 69.9187 119.5 69.3027 119.621 68.528L120.895 68.612C120.774 69.3307 120.536 69.9607 120.181 70.502C119.827 71.0433 119.355 71.468 118.767 71.776C118.189 72.0747 117.503 72.224 116.709 72.224ZM124.524 72.168C123.759 72.168 123.148 71.9907 122.69 71.636C122.242 71.2813 122.018 70.7867 122.018 70.152C122.018 69.5173 122.205 69.018 122.578 68.654C122.952 68.29 123.544 68.0333 124.356 67.884L126.988 67.394C126.988 66.7687 126.839 66.302 126.54 65.994C126.251 65.686 125.812 65.532 125.224 65.532C124.711 65.532 124.305 65.6487 124.006 65.882C123.708 66.106 123.502 66.4327 123.39 66.862L122.144 66.764C122.284 66.064 122.62 65.4993 123.152 65.07C123.694 64.6313 124.384 64.412 125.224 64.412C126.176 64.412 126.904 64.6827 127.408 65.224C127.912 65.756 128.164 66.4933 128.164 67.436V70.502C128.164 70.67 128.192 70.7913 128.248 70.866C128.314 70.9313 128.416 70.964 128.556 70.964H128.85V72C128.813 72.0093 128.752 72.014 128.668 72.014C128.584 72.0233 128.496 72.028 128.402 72.028C128.066 72.028 127.791 71.9767 127.576 71.874C127.371 71.762 127.222 71.594 127.128 71.37C127.035 71.1367 126.988 70.8333 126.988 70.46L127.128 70.488C127.063 70.8053 126.904 71.0947 126.652 71.356C126.4 71.608 126.088 71.8087 125.714 71.958C125.341 72.098 124.944 72.168 124.524 72.168ZM124.636 71.132C125.131 71.132 125.551 71.0387 125.896 70.852C126.251 70.656 126.522 70.3947 126.708 70.068C126.895 69.732 126.988 69.3587 126.988 68.948V68.416L124.58 68.864C124.076 68.9573 123.726 69.102 123.53 69.298C123.344 69.4847 123.25 69.732 123.25 70.04C123.25 70.3853 123.372 70.656 123.614 70.852C123.866 71.0387 124.207 71.132 124.636 71.132ZM131.553 72C131.123 72 130.773 71.888 130.503 71.664C130.232 71.44 130.097 71.0853 130.097 70.6V62.06H131.273V70.502C131.273 70.6513 131.31 70.768 131.385 70.852C131.469 70.9267 131.585 70.964 131.735 70.964H132.379V72H131.553ZM136.645 72.168C135.954 72.168 135.352 72.0093 134.839 71.692C134.335 71.3747 133.943 70.9267 133.663 70.348C133.383 69.76 133.243 69.074 133.243 68.29C133.243 67.506 133.383 66.8247 133.663 66.246C133.943 65.6673 134.335 65.2193 134.839 64.902C135.352 64.5753 135.954 64.412 136.645 64.412C137.214 64.412 137.718 64.5147 138.157 64.72C138.605 64.916 138.969 65.2053 139.249 65.588C139.529 65.9707 139.711 66.4373 139.795 66.988L138.563 67.072C138.479 66.5773 138.264 66.1993 137.919 65.938C137.574 65.6673 137.149 65.532 136.645 65.532C135.964 65.532 135.432 65.7793 135.049 66.274C134.666 66.7593 134.475 67.4313 134.475 68.29C134.475 69.1487 134.666 69.8253 135.049 70.32C135.432 70.8053 135.964 71.048 136.645 71.048C137.149 71.048 137.574 70.908 137.919 70.628C138.264 70.348 138.479 69.928 138.563 69.368L139.795 69.452C139.711 70.0027 139.529 70.4833 139.249 70.894C138.969 71.2953 138.605 71.608 138.157 71.832C137.718 72.056 137.214 72.168 136.645 72.168ZM143.689 72.168C142.951 72.168 142.359 71.9207 141.911 71.426C141.472 70.922 141.253 70.2313 141.253 69.354V64.58H142.429V69.032C142.429 69.7507 142.555 70.2827 142.807 70.628C143.068 70.964 143.465 71.132 143.997 71.132C144.585 71.132 145.047 70.9453 145.383 70.572C145.719 70.1893 145.887 69.6667 145.887 69.004V64.58H147.063V72H145.943V70.166L146.125 70.264C145.975 70.8707 145.691 71.342 145.271 71.678C144.851 72.0047 144.323 72.168 143.689 72.168ZM150.762 72C150.332 72 149.982 71.888 149.712 71.664C149.441 71.44 149.306 71.0853 149.306 70.6V62.06H150.482V70.502C150.482 70.6513 150.519 70.768 150.594 70.852C150.678 70.9267 150.794 70.964 150.944 70.964H151.588V72H150.762ZM155.04 72.168C154.275 72.168 153.663 71.9907 153.206 71.636C152.758 71.2813 152.534 70.7867 152.534 70.152C152.534 69.5173 152.721 69.018 153.094 68.654C153.467 68.29 154.06 68.0333 154.872 67.884L157.504 67.394C157.504 66.7687 157.355 66.302 157.056 65.994C156.767 65.686 156.328 65.532 155.74 65.532C155.227 65.532 154.821 65.6487 154.522 65.882C154.223 66.106 154.018 66.4327 153.906 66.862L152.66 66.764C152.8 66.064 153.136 65.4993 153.668 65.07C154.209 64.6313 154.9 64.412 155.74 64.412C156.692 64.412 157.42 64.6827 157.924 65.224C158.428 65.756 158.68 66.4933 158.68 67.436V70.502C158.68 70.67 158.708 70.7913 158.764 70.866C158.829 70.9313 158.932 70.964 159.072 70.964H159.366V72C159.329 72.0093 159.268 72.014 159.184 72.014C159.1 72.0233 159.011 72.028 158.918 72.028C158.582 72.028 158.307 71.9767 158.092 71.874C157.887 71.762 157.737 71.594 157.644 71.37C157.551 71.1367 157.504 70.8333 157.504 70.46L157.644 70.488C157.579 70.8053 157.42 71.0947 157.168 71.356C156.916 71.608 156.603 71.8087 156.23 71.958C155.857 72.098 155.46 72.168 155.04 72.168ZM155.152 71.132C155.647 71.132 156.067 71.0387 156.412 70.852C156.767 70.656 157.037 70.3947 157.224 70.068C157.411 69.732 157.504 69.3587 157.504 68.948V68.416L155.096 68.864C154.592 68.9573 154.242 69.102 154.046 69.298C153.859 69.4847 153.766 69.732 153.766 70.04C153.766 70.3853 153.887 70.656 154.13 70.852C154.382 71.0387 154.723 71.132 155.152 71.132ZM163.041 72C162.369 72 161.87 71.846 161.543 71.538C161.226 71.23 161.067 70.7493 161.067 70.096V62.844H162.243V70.068C162.243 70.404 162.318 70.6373 162.467 70.768C162.616 70.8987 162.845 70.964 163.153 70.964H164.217V72H163.041ZM159.975 65.616V64.58H164.217V65.616H159.975ZM168.487 72.168C167.805 72.168 167.208 72.0093 166.695 71.692C166.181 71.3747 165.785 70.9267 165.505 70.348C165.225 69.76 165.085 69.074 165.085 68.29C165.085 67.4967 165.225 66.8107 165.505 66.232C165.785 65.6533 166.181 65.2053 166.695 64.888C167.208 64.5707 167.805 64.412 168.487 64.412C169.168 64.412 169.761 64.5707 170.265 64.888C170.778 65.2053 171.175 65.6533 171.455 66.232C171.735 66.8107 171.875 67.4967 171.875 68.29C171.875 69.074 171.735 69.76 171.455 70.348C171.175 70.9267 170.778 71.3747 170.265 71.692C169.761 72.0093 169.168 72.168 168.487 72.168ZM168.487 71.048C169.168 71.048 169.695 70.8053 170.069 70.32C170.451 69.8253 170.643 69.1487 170.643 68.29C170.643 67.4313 170.451 66.7593 170.069 66.274C169.695 65.7793 169.168 65.532 168.487 65.532C167.805 65.532 167.273 65.7793 166.891 66.274C166.508 66.7593 166.317 67.4313 166.317 68.29C166.317 69.1487 166.508 69.8253 166.891 70.32C167.273 70.8053 167.805 71.048 168.487 71.048ZM173.477 72V64.58H174.513L174.569 66.456L174.457 66.414C174.551 65.7793 174.751 65.3173 175.059 65.028C175.377 64.7293 175.797 64.58 176.319 64.58H177.047V65.7H176.333C175.96 65.7 175.647 65.77 175.395 65.91C175.153 66.0407 174.966 66.2413 174.835 66.512C174.714 66.7733 174.653 67.1093 174.653 67.52V72H173.477Z" fill="#171717"/>
</g>
<g filter="url(#filter4_dd_468_49221)">
<rect x="198" y="49" width="243" height="36" rx="10" fill="white"/>
<path d="M212.5 59.5V74.5H227.5M225.833 64.5L221.667 68.6667L218.333 65.3333L215.833 67.8333" stroke="#06AED4" stroke-width="1.5" stroke-linecap="round" stroke-linejoin="round"/>
<path d="M241.096 72.224C240.209 72.224 239.43 72.0187 238.758 71.608C238.086 71.188 237.563 70.5907 237.19 69.816C236.817 69.0413 236.63 68.1173 236.63 67.044C236.63 65.9707 236.817 65.0467 237.19 64.272C237.563 63.488 238.086 62.886 238.758 62.466C239.43 62.046 240.209 61.836 241.096 61.836C242.3 61.836 243.233 62.1393 243.896 62.746C244.559 63.3527 244.993 64.1787 245.198 65.224L243.924 65.308C243.784 64.5987 243.485 64.0387 243.028 63.628C242.571 63.2173 241.927 63.012 241.096 63.012C240.461 63.012 239.901 63.1753 239.416 63.502C238.94 63.8193 238.567 64.2813 238.296 64.888C238.025 65.4853 237.89 66.204 237.89 67.044C237.89 67.884 238.025 68.6027 238.296 69.2C238.567 69.7973 238.94 70.2547 239.416 70.572C239.901 70.8893 240.461 71.048 241.096 71.048C241.964 71.048 242.636 70.824 243.112 70.376C243.588 69.9187 243.887 69.3027 244.008 68.528L245.282 68.612C245.161 69.3307 244.923 69.9607 244.568 70.502C244.213 71.0433 243.742 71.468 243.154 71.776C242.575 72.0747 241.889 72.224 241.096 72.224ZM249.752 72.168C249.071 72.168 248.474 72.0093 247.96 71.692C247.447 71.3747 247.05 70.9267 246.77 70.348C246.49 69.76 246.35 69.074 246.35 68.29C246.35 67.4967 246.49 66.8107 246.77 66.232C247.05 65.6533 247.447 65.2053 247.96 64.888C248.474 64.5707 249.071 64.412 249.752 64.412C250.434 64.412 251.026 64.5707 251.53 64.888C252.044 65.2053 252.44 65.6533 252.72 66.232C253 66.8107 253.14 67.4967 253.14 68.29C253.14 69.074 253 69.76 252.72 70.348C252.44 70.9267 252.044 71.3747 251.53 71.692C251.026 72.0093 250.434 72.168 249.752 72.168ZM249.752 71.048C250.434 71.048 250.961 70.8053 251.334 70.32C251.717 69.8253 251.908 69.1487 251.908 68.29C251.908 67.4313 251.717 66.7593 251.334 66.274C250.961 65.7793 250.434 65.532 249.752 65.532C249.071 65.532 248.539 65.7793 248.156 66.274C247.774 66.7593 247.582 67.4313 247.582 68.29C247.582 69.1487 247.774 69.8253 248.156 70.32C248.539 70.8053 249.071 71.048 249.752 71.048ZM254.743 72V64.58H255.821L255.863 66.456L255.695 66.4C255.779 65.9893 255.924 65.6393 256.129 65.35C256.344 65.0513 256.605 64.8227 256.913 64.664C257.221 64.496 257.562 64.412 257.935 64.412C258.579 64.412 259.102 64.5893 259.503 64.944C259.914 65.2987 260.17 65.7933 260.273 66.428L260.049 66.414C260.124 65.9847 260.259 65.6253 260.455 65.336C260.66 65.0373 260.922 64.8087 261.239 64.65C261.556 64.4913 261.92 64.412 262.331 64.412C262.863 64.412 263.311 64.524 263.675 64.748C264.039 64.9627 264.314 65.28 264.501 65.7C264.688 66.12 264.781 66.6287 264.781 67.226V72H263.605V67.478C263.605 66.806 263.474 66.302 263.213 65.966C262.952 65.6207 262.564 65.448 262.051 65.448C261.706 65.448 261.402 65.532 261.141 65.7C260.889 65.868 260.693 66.1107 260.553 66.428C260.413 66.736 260.343 67.114 260.343 67.562V72H259.167V67.562C259.167 66.8993 259.05 66.3813 258.817 66.008C258.584 65.6347 258.192 65.448 257.641 65.448C257.296 65.448 256.992 65.532 256.731 65.7C256.479 65.868 256.278 66.1107 256.129 66.428C255.989 66.7453 255.919 67.1233 255.919 67.562V72H254.743ZM266.747 74.1V64.58H267.839L267.867 66.176L267.699 66.092C267.886 65.5413 268.194 65.126 268.623 64.846C269.062 64.5567 269.566 64.412 270.135 64.412C270.872 64.412 271.474 64.594 271.941 64.958C272.417 65.322 272.767 65.798 272.991 66.386C273.224 66.974 273.341 67.6087 273.341 68.29C273.341 68.9713 273.224 69.606 272.991 70.194C272.767 70.782 272.417 71.258 271.941 71.622C271.474 71.986 270.872 72.168 270.135 72.168C269.752 72.168 269.393 72.1027 269.057 71.972C268.73 71.8413 268.45 71.6593 268.217 71.426C267.993 71.1927 267.839 70.9173 267.755 70.6L267.923 70.404V74.1H266.747ZM270.023 71.048C270.667 71.048 271.176 70.8053 271.549 70.32C271.922 69.8347 272.109 69.158 272.109 68.29C272.109 67.422 271.922 66.7453 271.549 66.26C271.176 65.7747 270.667 65.532 270.023 65.532C269.594 65.532 269.22 65.6347 268.903 65.84C268.595 66.0453 268.352 66.3533 268.175 66.764C268.007 67.1747 267.923 67.6833 267.923 68.29C267.923 68.8967 268.007 69.4053 268.175 69.816C268.343 70.2267 268.586 70.5347 268.903 70.74C269.22 70.9453 269.594 71.048 270.023 71.048ZM277.834 72.168C277.153 72.168 276.556 72.0093 276.042 71.692C275.529 71.3747 275.132 70.9267 274.852 70.348C274.572 69.76 274.432 69.074 274.432 68.29C274.432 67.4967 274.572 66.8107 274.852 66.232C275.132 65.6533 275.529 65.2053 276.042 64.888C276.556 64.5707 277.153 64.412 277.834 64.412C278.516 64.412 279.108 64.5707 279.612 64.888C280.126 65.2053 280.522 65.6533 280.802 66.232C281.082 66.8107 281.222 67.4967 281.222 68.29C281.222 69.074 281.082 69.76 280.802 70.348C280.522 70.9267 280.126 71.3747 279.612 71.692C279.108 72.0093 278.516 72.168 277.834 72.168ZM277.834 71.048C278.516 71.048 279.043 70.8053 279.416 70.32C279.799 69.8253 279.99 69.1487 279.99 68.29C279.99 67.4313 279.799 66.7593 279.416 66.274C279.043 65.7793 278.516 65.532 277.834 65.532C277.153 65.532 276.621 65.7793 276.238 66.274C275.856 66.7593 275.664 67.4313 275.664 68.29C275.664 69.1487 275.856 69.8253 276.238 70.32C276.621 70.8053 277.153 71.048 277.834 71.048ZM285.261 72.168C284.524 72.168 283.931 71.9207 283.483 71.426C283.044 70.922 282.825 70.2313 282.825 69.354V64.58H284.001V69.032C284.001 69.7507 284.127 70.2827 284.379 70.628C284.64 70.964 285.037 71.132 285.569 71.132C286.157 71.132 286.619 70.9453 286.955 70.572C287.291 70.1893 287.459 69.6667 287.459 69.004V64.58H288.635V72H287.515V70.166L287.697 70.264C287.548 70.8707 287.263 71.342 286.843 71.678C286.423 72.0047 285.896 72.168 285.261 72.168ZM290.878 72V64.58H291.956L291.998 66.47L291.858 66.344C291.951 65.9053 292.114 65.546 292.348 65.266C292.581 64.9767 292.861 64.762 293.188 64.622C293.524 64.482 293.883 64.412 294.266 64.412C294.835 64.412 295.302 64.538 295.666 64.79C296.039 65.042 296.314 65.3827 296.492 65.812C296.678 66.232 296.772 66.7033 296.772 67.226V72H295.596V67.562C295.596 67.1047 295.54 66.722 295.428 66.414C295.325 66.0967 295.157 65.8587 294.924 65.7C294.69 65.532 294.387 65.448 294.014 65.448C293.444 65.448 292.973 65.63 292.6 65.994C292.236 66.3487 292.054 66.8713 292.054 67.562V72H290.878ZM301.481 72.168C300.837 72.168 300.277 72.0093 299.801 71.692C299.334 71.3747 298.975 70.9267 298.723 70.348C298.471 69.7693 298.345 69.0833 298.345 68.29C298.345 67.4967 298.471 66.8107 298.723 66.232C298.975 65.6533 299.334 65.2053 299.801 64.888C300.277 64.5707 300.837 64.412 301.481 64.412C301.975 64.412 302.428 64.5193 302.839 64.734C303.249 64.9393 303.557 65.2333 303.763 65.616V62.06H304.939V72H303.875L303.833 70.88C303.627 71.2813 303.315 71.5987 302.895 71.832C302.475 72.056 302.003 72.168 301.481 72.168ZM301.719 71.048C302.157 71.048 302.526 70.936 302.825 70.712C303.133 70.488 303.366 70.1707 303.525 69.76C303.683 69.34 303.763 68.85 303.763 68.29C303.763 67.7113 303.683 67.2167 303.525 66.806C303.366 66.3953 303.133 66.0827 302.825 65.868C302.526 65.644 302.157 65.532 301.719 65.532C301.065 65.532 300.543 65.7793 300.151 66.274C299.768 66.7593 299.577 67.4313 299.577 68.29C299.577 69.1393 299.768 69.8113 300.151 70.306C300.543 70.8007 301.065 71.048 301.719 71.048ZM310.843 72V62.06H312.047V72H310.843ZM314.585 72V64.58H315.663L315.705 66.47L315.565 66.344C315.658 65.9053 315.822 65.546 316.055 65.266C316.288 64.9767 316.568 64.762 316.895 64.622C317.231 64.482 317.59 64.412 317.973 64.412C318.542 64.412 319.009 64.538 319.373 64.79C319.746 65.042 320.022 65.3827 320.199 65.812C320.386 66.232 320.479 66.7033 320.479 67.226V72H319.303V67.562C319.303 67.1047 319.247 66.722 319.135 66.414C319.032 66.0967 318.864 65.8587 318.631 65.7C318.398 65.532 318.094 65.448 317.721 65.448C317.152 65.448 316.68 65.63 316.307 65.994C315.943 66.3487 315.761 66.8713 315.761 67.562V72H314.585ZM324.875 72C324.203 72 323.704 71.846 323.377 71.538C323.06 71.23 322.901 70.7493 322.901 70.096V62.844H324.077V70.068C324.077 70.404 324.152 70.6373 324.301 70.768C324.45 70.8987 324.679 70.964 324.987 70.964H326.051V72H324.875ZM321.809 65.616V64.58H326.051V65.616H321.809ZM330.321 72.168C329.621 72.168 329.014 72.0093 328.501 71.692C327.997 71.3747 327.605 70.9267 327.325 70.348C327.054 69.76 326.919 69.074 326.919 68.29C326.919 67.506 327.054 66.8247 327.325 66.246C327.605 65.6673 327.992 65.2193 328.487 64.902C328.991 64.5753 329.583 64.412 330.265 64.412C330.909 64.412 331.478 64.566 331.973 64.874C332.467 65.1727 332.85 65.6113 333.121 66.19C333.401 66.7687 333.541 67.4733 333.541 68.304V68.654H328.151C328.197 69.4473 328.407 70.0447 328.781 70.446C329.163 70.8473 329.677 71.048 330.321 71.048C330.806 71.048 331.203 70.936 331.511 70.712C331.828 70.4787 332.047 70.1753 332.169 69.802L333.429 69.9C333.233 70.5627 332.859 71.1087 332.309 71.538C331.767 71.958 331.105 72.168 330.321 72.168ZM328.151 67.618H332.253C332.197 66.8993 331.987 66.372 331.623 66.036C331.268 65.7 330.815 65.532 330.265 65.532C329.695 65.532 329.224 65.7093 328.851 66.064C328.487 66.4093 328.253 66.9273 328.151 67.618ZM335.134 72V64.58H336.17L336.226 66.456L336.114 66.414C336.207 65.7793 336.408 65.3173 336.716 65.028C337.033 64.7293 337.453 64.58 337.976 64.58H338.704V65.7H337.99C337.616 65.7 337.304 65.77 337.052 65.91C336.809 66.0407 336.622 66.2413 336.492 66.512C336.37 66.7733 336.31 67.1093 336.31 67.52V72H335.134ZM342.776 72.168C342.076 72.168 341.469 72.0093 340.956 71.692C340.452 71.3747 340.06 70.9267 339.78 70.348C339.509 69.76 339.374 69.074 339.374 68.29C339.374 67.506 339.509 66.8247 339.78 66.246C340.06 65.6673 340.447 65.2193 340.942 64.902C341.446 64.5753 342.038 64.412 342.72 64.412C343.364 64.412 343.933 64.566 344.428 64.874C344.922 65.1727 345.305 65.6113 345.576 66.19C345.856 66.7687 345.996 67.4733 345.996 68.304V68.654H340.606C340.652 69.4473 340.862 70.0447 341.236 70.446C341.618 70.8473 342.132 71.048 342.776 71.048C343.261 71.048 343.658 70.936 343.966 70.712C344.283 70.4787 344.502 70.1753 344.624 69.802L345.884 69.9C345.688 70.5627 345.314 71.1087 344.764 71.538C344.222 71.958 343.56 72.168 342.776 72.168ZM340.606 67.618H344.708C344.652 66.8993 344.442 66.372 344.078 66.036C343.723 65.7 343.27 65.532 342.72 65.532C342.15 65.532 341.679 65.7093 341.306 66.064C340.942 66.4093 340.708 66.9273 340.606 67.618ZM350.291 72.168C349.628 72.168 349.063 72.0607 348.597 71.846C348.139 71.6313 347.78 71.3373 347.519 70.964C347.267 70.5813 347.122 70.1473 347.085 69.662L348.317 69.578C348.391 70.026 348.583 70.3853 348.891 70.656C349.199 70.9173 349.665 71.048 350.291 71.048C350.795 71.048 351.196 70.9687 351.495 70.81C351.803 70.642 351.957 70.376 351.957 70.012C351.957 69.816 351.91 69.6527 351.817 69.522C351.723 69.3913 351.541 69.2793 351.271 69.186C351 69.0833 350.599 68.9853 350.067 68.892C349.357 68.7613 348.797 68.6027 348.387 68.416C347.985 68.22 347.696 67.982 347.519 67.702C347.351 67.4127 347.267 67.072 347.267 66.68C347.267 66.0173 347.509 65.476 347.995 65.056C348.48 64.6267 349.171 64.412 350.067 64.412C350.673 64.412 351.182 64.524 351.593 64.748C352.013 64.9627 352.339 65.252 352.573 65.616C352.815 65.9707 352.974 66.3627 353.049 66.792L351.817 66.876C351.761 66.6147 351.658 66.386 351.509 66.19C351.359 65.9847 351.163 65.826 350.921 65.714C350.678 65.5927 350.389 65.532 350.053 65.532C349.521 65.532 349.129 65.6347 348.877 65.84C348.625 66.0453 348.499 66.3067 348.499 66.624C348.499 66.8667 348.555 67.0673 348.667 67.226C348.788 67.3753 348.979 67.5013 349.241 67.604C349.502 67.6973 349.852 67.7813 350.291 67.856C351.047 67.9867 351.635 68.1453 352.055 68.332C352.475 68.5187 352.769 68.7473 352.937 69.018C353.105 69.2887 353.189 69.62 353.189 70.012C353.189 70.4693 353.058 70.8613 352.797 71.188C352.545 71.5053 352.199 71.748 351.761 71.916C351.331 72.084 350.841 72.168 350.291 72.168ZM357.223 72C356.551 72 356.051 71.846 355.725 71.538C355.407 71.23 355.249 70.7493 355.249 70.096V62.844H356.425V70.068C356.425 70.404 356.499 70.6373 356.649 70.768C356.798 70.8987 357.027 70.964 357.335 70.964H358.399V72H357.223ZM354.157 65.616V64.58H358.399V65.616H354.157ZM367.465 72.224C366.578 72.224 365.799 72.0187 365.127 71.608C364.455 71.188 363.932 70.5907 363.559 69.816C363.186 69.0413 362.999 68.1173 362.999 67.044C362.999 65.9707 363.186 65.0467 363.559 64.272C363.932 63.488 364.455 62.886 365.127 62.466C365.799 62.046 366.578 61.836 367.465 61.836C368.669 61.836 369.602 62.1393 370.265 62.746C370.928 63.3527 371.362 64.1787 371.567 65.224L370.293 65.308C370.153 64.5987 369.854 64.0387 369.397 63.628C368.94 63.2173 368.296 63.012 367.465 63.012C366.83 63.012 366.27 63.1753 365.785 63.502C365.309 63.8193 364.936 64.2813 364.665 64.888C364.394 65.4853 364.259 66.204 364.259 67.044C364.259 67.884 364.394 68.6027 364.665 69.2C364.936 69.7973 365.309 70.2547 365.785 70.572C366.27 70.8893 366.83 71.048 367.465 71.048C368.333 71.048 369.005 70.824 369.481 70.376C369.957 69.9187 370.256 69.3027 370.377 68.528L371.651 68.612C371.53 69.3307 371.292 69.9607 370.937 70.502C370.582 71.0433 370.111 71.468 369.523 71.776C368.944 72.0747 368.258 72.224 367.465 72.224ZM375.28 72.168C374.515 72.168 373.904 71.9907 373.446 71.636C372.998 71.2813 372.774 70.7867 372.774 70.152C372.774 69.5173 372.961 69.018 373.334 68.654C373.708 68.29 374.3 68.0333 375.112 67.884L377.744 67.394C377.744 66.7687 377.595 66.302 377.296 65.994C377.007 65.686 376.568 65.532 375.98 65.532C375.467 65.532 375.061 65.6487 374.762 65.882C374.464 66.106 374.258 66.4327 374.146 66.862L372.9 66.764C373.04 66.064 373.376 65.4993 373.908 65.07C374.45 64.6313 375.14 64.412 375.98 64.412C376.932 64.412 377.66 64.6827 378.164 65.224C378.668 65.756 378.92 66.4933 378.92 67.436V70.502C378.92 70.67 378.948 70.7913 379.004 70.866C379.07 70.9313 379.172 70.964 379.312 70.964H379.606V72C379.569 72.0093 379.508 72.014 379.424 72.014C379.34 72.0233 379.252 72.028 379.158 72.028C378.822 72.028 378.547 71.9767 378.332 71.874C378.127 71.762 377.978 71.594 377.884 71.37C377.791 71.1367 377.744 70.8333 377.744 70.46L377.884 70.488C377.819 70.8053 377.66 71.0947 377.408 71.356C377.156 71.608 376.844 71.8087 376.47 71.958C376.097 72.098 375.7 72.168 375.28 72.168ZM375.392 71.132C375.887 71.132 376.307 71.0387 376.652 70.852C377.007 70.656 377.278 70.3947 377.464 70.068C377.651 69.732 377.744 69.3587 377.744 68.948V68.416L375.336 68.864C374.832 68.9573 374.482 69.102 374.286 69.298C374.1 69.4847 374.006 69.732 374.006 70.04C374.006 70.3853 374.128 70.656 374.37 70.852C374.622 71.0387 374.963 71.132 375.392 71.132ZM382.308 72C381.879 72 381.529 71.888 381.258 71.664C380.988 71.44 380.852 71.0853 380.852 70.6V62.06H382.028V70.502C382.028 70.6513 382.066 70.768 382.14 70.852C382.224 70.9267 382.341 70.964 382.49 70.964H383.134V72H382.308ZM387.401 72.168C386.71 72.168 386.108 72.0093 385.595 71.692C385.091 71.3747 384.699 70.9267 384.419 70.348C384.139 69.76 383.999 69.074 383.999 68.29C383.999 67.506 384.139 66.8247 384.419 66.246C384.699 65.6673 385.091 65.2193 385.595 64.902C386.108 64.5753 386.71 64.412 387.401 64.412C387.97 64.412 388.474 64.5147 388.913 64.72C389.361 64.916 389.725 65.2053 390.005 65.588C390.285 65.9707 390.467 66.4373 390.551 66.988L389.319 67.072C389.235 66.5773 389.02 66.1993 388.675 65.938C388.329 65.6673 387.905 65.532 387.401 65.532C386.719 65.532 386.187 65.7793 385.805 66.274C385.422 66.7593 385.231 67.4313 385.231 68.29C385.231 69.1487 385.422 69.8253 385.805 70.32C386.187 70.8053 386.719 71.048 387.401 71.048C387.905 71.048 388.329 70.908 388.675 70.628C389.02 70.348 389.235 69.928 389.319 69.368L390.551 69.452C390.467 70.0027 390.285 70.4833 390.005 70.894C389.725 71.2953 389.361 71.608 388.913 71.832C388.474 72.056 387.97 72.168 387.401 72.168ZM394.445 72.168C393.707 72.168 393.115 71.9207 392.667 71.426C392.228 70.922 392.009 70.2313 392.009 69.354V64.58H393.185V69.032C393.185 69.7507 393.311 70.2827 393.563 70.628C393.824 70.964 394.221 71.132 394.753 71.132C395.341 71.132 395.803 70.9453 396.139 70.572C396.475 70.1893 396.643 69.6667 396.643 69.004V64.58H397.819V72H396.699V70.166L396.881 70.264C396.731 70.8707 396.447 71.342 396.027 71.678C395.607 72.0047 395.079 72.168 394.445 72.168ZM401.517 72C401.088 72 400.738 71.888 400.467 71.664C400.197 71.44 400.061 71.0853 400.061 70.6V62.06H401.237V70.502C401.237 70.6513 401.275 70.768 401.349 70.852C401.433 70.9267 401.55 70.964 401.699 70.964H402.343V72H401.517ZM405.796 72.168C405.03 72.168 404.419 71.9907 403.962 71.636C403.514 71.2813 403.29 70.7867 403.29 70.152C403.29 69.5173 403.476 69.018 403.85 68.654C404.223 68.29 404.816 68.0333 405.628 67.884L408.26 67.394C408.26 66.7687 408.11 66.302 407.812 65.994C407.522 65.686 407.084 65.532 406.496 65.532C405.982 65.532 405.576 65.6487 405.278 65.882C404.979 66.106 404.774 66.4327 404.662 66.862L403.416 66.764C403.556 66.064 403.892 65.4993 404.424 65.07C404.965 64.6313 405.656 64.412 406.496 64.412C407.448 64.412 408.176 64.6827 408.68 65.224C409.184 65.756 409.436 66.4933 409.436 67.436V70.502C409.436 70.67 409.464 70.7913 409.52 70.866C409.585 70.9313 409.688 70.964 409.828 70.964H410.122V72C410.084 72.0093 410.024 72.014 409.94 72.014C409.856 72.0233 409.767 72.028 409.674 72.028C409.338 72.028 409.062 71.9767 408.848 71.874C408.642 71.762 408.493 71.594 408.4 71.37C408.306 71.1367 408.26 70.8333 408.26 70.46L408.4 70.488C408.334 70.8053 408.176 71.0947 407.924 71.356C407.672 71.608 407.359 71.8087 406.986 71.958C406.612 72.098 406.216 72.168 405.796 72.168ZM405.908 71.132C406.402 71.132 406.822 71.0387 407.168 70.852C407.522 70.656 407.793 70.3947 407.98 70.068C408.166 69.732 408.26 69.3587 408.26 68.948V68.416L405.852 68.864C405.348 68.9573 404.998 69.102 404.802 69.298C404.615 69.4847 404.522 69.732 404.522 70.04C404.522 70.3853 404.643 70.656 404.886 70.852C405.138 71.0387 405.478 71.132 405.908 71.132ZM413.797 72C413.125 72 412.626 71.846 412.299 71.538C411.982 71.23 411.823 70.7493 411.823 70.096V62.844H412.999V70.068C412.999 70.404 413.074 70.6373 413.223 70.768C413.372 70.8987 413.601 70.964 413.909 70.964H414.973V72H413.797ZM410.731 65.616V64.58H414.973V65.616H410.731ZM419.243 72.168C418.561 72.168 417.964 72.0093 417.451 71.692C416.937 71.3747 416.541 70.9267 416.261 70.348C415.981 69.76 415.841 69.074 415.841 68.29C415.841 67.4967 415.981 66.8107 416.261 66.232C416.541 65.6533 416.937 65.2053 417.451 64.888C417.964 64.5707 418.561 64.412 419.243 64.412C419.924 64.412 420.517 64.5707 421.021 64.888C421.534 65.2053 421.931 65.6533 422.211 66.232C422.491 66.8107 422.631 67.4967 422.631 68.29C422.631 69.074 422.491 69.76 422.211 70.348C421.931 70.9267 421.534 71.3747 421.021 71.692C420.517 72.0093 419.924 72.168 419.243 72.168ZM419.243 71.048C419.924 71.048 420.451 70.8053 420.825 70.32C421.207 69.8253 421.399 69.1487 421.399 68.29C421.399 67.4313 421.207 66.7593 420.825 66.274C420.451 65.7793 419.924 65.532 419.243 65.532C418.561 65.532 418.029 65.7793 417.647 66.274C417.264 66.7593 417.073 67.4313 417.073 68.29C417.073 69.1487 417.264 69.8253 417.647 70.32C418.029 70.8053 418.561 71.048 419.243 71.048ZM424.233 72V64.58H425.269L425.325 66.456L425.213 66.414C425.307 65.7793 425.507 65.3173 425.815 65.028C426.133 64.7293 426.553 64.58 427.075 64.58H427.803V65.7H427.089C426.716 65.7 426.403 65.77 426.151 65.91C425.909 66.0407 425.722 66.2413 425.591 66.512C425.47 66.7733 425.409 67.1093 425.409 67.52V72H424.233Z" fill="#171717"/>
</g>
<defs>
<filter id="filter0_dd_468_49221" x="-50.5" y="0" width="155" height="48" filterUnits="userSpaceOnUse" color-interpolation-filters="sRGB">
<feFlood flood-opacity="0" result="BackgroundImageFix"/>
<feColorMatrix in="SourceAlpha" type="matrix" values="0 0 0 0 0 0 0 0 0 0 0 0 0 0 0 0 0 0 127 0" result="hardAlpha"/>
<feMorphology radius="1" operator="dilate" in="SourceAlpha" result="effect1_dropShadow_468_49221"/>
<feOffset/>
<feColorMatrix type="matrix" values="0 0 0 0 0.0431373 0 0 0 0 0.0431373 0 0 0 0 0.0431373 0 0 0 0.05 0"/>
<feBlend mode="normal" in2="BackgroundImageFix" result="effect1_dropShadow_468_49221"/>
<feColorMatrix in="SourceAlpha" type="matrix" values="0 0 0 0 0 0 0 0 0 0 0 0 0 0 0 0 0 0 127 0" result="hardAlpha"/>
<feOffset dy="1"/>
<feGaussianBlur stdDeviation="3"/>
<feColorMatrix type="matrix" values="0 0 0 0 0.0431373 0 0 0 0 0.0431373 0 0 0 0 0.0431373 0 0 0 0.06 0"/>
<feBlend mode="normal" in2="effect1_dropShadow_468_49221" result="effect2_dropShadow_468_49221"/>
<feBlend mode="normal" in="SourceGraphic" in2="effect2_dropShadow_468_49221" result="shape"/>
</filter>
<filter id="filter1_dd_468_49221" x="100.5" y="0" width="163" height="48" filterUnits="userSpaceOnUse" color-interpolation-filters="sRGB">
<feFlood flood-opacity="0" result="BackgroundImageFix"/>
<feColorMatrix in="SourceAlpha" type="matrix" values="0 0 0 0 0 0 0 0 0 0 0 0 0 0 0 0 0 0 127 0" result="hardAlpha"/>
<feMorphology radius="1" operator="dilate" in="SourceAlpha" result="effect1_dropShadow_468_49221"/>
<feOffset/>
<feColorMatrix type="matrix" values="0 0 0 0 0.0431373 0 0 0 0 0.0431373 0 0 0 0 0.0431373 0 0 0 0.05 0"/>
<feBlend mode="normal" in2="BackgroundImageFix" result="effect1_dropShadow_468_49221"/>
<feColorMatrix in="SourceAlpha" type="matrix" values="0 0 0 0 0 0 0 0 0 0 0 0 0 0 0 0 0 0 127 0" result="hardAlpha"/>
<feOffset dy="1"/>
<feGaussianBlur stdDeviation="3"/>
<feColorMatrix type="matrix" values="0 0 0 0 0.0431373 0 0 0 0 0.0431373 0 0 0 0 0.0431373 0 0 0 0.06 0"/>
<feBlend mode="normal" in2="effect1_dropShadow_468_49221" result="effect2_dropShadow_468_49221"/>
<feBlend mode="normal" in="SourceGraphic" in2="effect2_dropShadow_468_49221" result="shape"/>
</filter>
<filter id="filter2_dd_468_49221" x="259.5" y="0" width="185" height="48" filterUnits="userSpaceOnUse" color-interpolation-filters="sRGB">
<feFlood flood-opacity="0" result="BackgroundImageFix"/>
<feColorMatrix in="SourceAlpha" type="matrix" values="0 0 0 0 0 0 0 0 0 0 0 0 0 0 0 0 0 0 127 0" result="hardAlpha"/>
<feMorphology radius="1" operator="dilate" in="SourceAlpha" result="effect1_dropShadow_468_49221"/>
<feOffset/>
<feColorMatrix type="matrix" values="0 0 0 0 0.0431373 0 0 0 0 0.0431373 0 0 0 0 0.0431373 0 0 0 0.05 0"/>
<feBlend mode="normal" in2="BackgroundImageFix" result="effect1_dropShadow_468_49221"/>
<feColorMatrix in="SourceAlpha" type="matrix" values="0 0 0 0 0 0 0 0 0 0 0 0 0 0 0 0 0 0 127 0" result="hardAlpha"/>
<feOffset dy="1"/>
<feGaussianBlur stdDeviation="3"/>
<feColorMatrix type="matrix" values="0 0 0 0 0.0431373 0 0 0 0 0.0431373 0 0 0 0 0.0431373 0 0 0 0.06 0"/>
<feBlend mode="normal" in2="effect1_dropShadow_468_49221" result="effect2_dropShadow_468_49221"/>
<feBlend mode="normal" in="SourceGraphic" in2="effect2_dropShadow_468_49221" result="shape"/>
</filter>
<filter id="filter3_dd_468_49221" x="-53" y="44" width="249" height="48" filterUnits="userSpaceOnUse" color-interpolation-filters="sRGB">
<feFlood flood-opacity="0" result="BackgroundImageFix"/>
<feColorMatrix in="SourceAlpha" type="matrix" values="0 0 0 0 0 0 0 0 0 0 0 0 0 0 0 0 0 0 127 0" result="hardAlpha"/>
<feMorphology radius="1" operator="dilate" in="SourceAlpha" result="effect1_dropShadow_468_49221"/>
<feOffset/>
<feColorMatrix type="matrix" values="0 0 0 0 0.0431373 0 0 0 0 0.0431373 0 0 0 0 0.0431373 0 0 0 0.05 0"/>
<feBlend mode="normal" in2="BackgroundImageFix" result="effect1_dropShadow_468_49221"/>
<feColorMatrix in="SourceAlpha" type="matrix" values="0 0 0 0 0 0 0 0 0 0 0 0 0 0 0 0 0 0 127 0" result="hardAlpha"/>
<feOffset dy="1"/>
<feGaussianBlur stdDeviation="3"/>
<feColorMatrix type="matrix" values="0 0 0 0 0.0431373 0 0 0 0 0.0431373 0 0 0 0 0.0431373 0 0 0 0.06 0"/>
<feBlend mode="normal" in2="effect1_dropShadow_468_49221" result="effect2_dropShadow_468_49221"/>
<feBlend mode="normal" in="SourceGraphic" in2="effect2_dropShadow_468_49221" result="shape"/>
</filter>
<filter id="filter4_dd_468_49221" x="192" y="44" width="255" height="48" filterUnits="userSpaceOnUse" color-interpolation-filters="sRGB">
<feFlood flood-opacity="0" result="BackgroundImageFix"/>
<feColorMatrix in="SourceAlpha" type="matrix" values="0 0 0 0 0 0 0 0 0 0 0 0 0 0 0 0 0 0 127 0" result="hardAlpha"/>
<feMorphology radius="1" operator="dilate" in="SourceAlpha" result="effect1_dropShadow_468_49221"/>
<feOffset/>
<feColorMatrix type="matrix" values="0 0 0 0 0.0431373 0 0 0 0 0.0431373 0 0 0 0 0.0431373 0 0 0 0.05 0"/>
<feBlend mode="normal" in2="BackgroundImageFix" result="effect1_dropShadow_468_49221"/>
<feColorMatrix in="SourceAlpha" type="matrix" values="0 0 0 0 0 0 0 0 0 0 0 0 0 0 0 0 0 0 127 0" result="hardAlpha"/>
<feOffset dy="1"/>
<feGaussianBlur stdDeviation="3"/>
<feColorMatrix type="matrix" values="0 0 0 0 0.0431373 0 0 0 0 0.0431373 0 0 0 0 0.0431373 0 0 0 0.06 0"/>
<feBlend mode="normal" in2="effect1_dropShadow_468_49221" result="effect2_dropShadow_468_49221"/>
<feBlend mode="normal" in="SourceGraphic" in2="effect2_dropShadow_468_49221" result="shape"/>
</filter>
</defs>
</svg>
