<svg width="24" height="25" viewBox="0 0 24 25" fill="none" xmlns="http://www.w3.org/2000/svg">
<rect x="1.9" y="2.9" width="20.2" height="20.2" rx="6.1" stroke="url(#paint0_linear_749_3692)" stroke-width="1.8" stroke-linecap="round" stroke-linejoin="round"/>
<rect x="1.9" y="2.9" width="20.2" height="20.2" rx="6.1" stroke="#FEAB70" stroke-opacity="0.2" stroke-width="1.8" stroke-linecap="round" stroke-linejoin="round" style="mix-blend-mode:overlay"/>
<path d="M14.9422 15.9799C15.2251 16.0719 15.3965 16.3493 15.3644 16.6339L15.3377 16.7562C15.2119 17.1432 15.0281 17.5232 14.7522 17.8398L14.6279 17.9713C14.3156 18.2776 13.9234 18.4843 13.4534 18.5665L13.2478 18.5943C12.5215 18.6624 11.6403 18.403 11.1347 17.7117L11.0391 17.5667C10.8633 17.2757 10.9564 16.8977 11.2473 16.7217L11.3598 16.6679C11.6298 16.5717 11.9392 16.6754 12.0933 16.9302L12.1706 17.0338C12.3756 17.2639 12.7483 17.4035 13.1327 17.3674L13.2374 17.354C13.4705 17.3141 13.6358 17.2194 13.7656 17.0922L13.8798 16.96C13.9899 16.8131 14.0863 16.6202 14.1659 16.3755L14.2159 16.2605C14.3573 16.0114 14.6591 15.8879 14.9422 15.9799ZM10.5459 8.48409C10.754 8.28701 11.0785 8.25646 11.3224 8.42728L11.4167 8.50917C11.5855 8.68762 11.632 8.95123 11.5341 9.17655L11.4735 9.28568C11.2774 9.56568 11.0712 9.84739 10.8612 10.1296L10.2242 10.975L9.50072 11.9357C8.92786 12.7104 8.393 13.4821 7.95767 14.2722L7.77786 14.6112L7.7382 14.6875C7.71202 14.7374 7.68484 14.7891 7.65957 14.8414C8.12407 14.9504 8.65227 14.9664 9.22401 14.9229L9.66535 14.8794C10.1055 14.8274 10.545 14.7517 10.9782 14.6771L11.3871 14.6077L11.5116 14.5996C11.7978 14.6103 12.0467 14.8206 12.0956 15.114L12.1037 15.2385C12.0948 15.4841 11.9387 15.702 11.7093 15.79L11.5891 15.8235L11.2047 15.8883C10.7713 15.963 10.2935 16.0457 9.80655 16.1031L9.31753 16.151C8.61581 16.2044 7.86741 16.1893 7.16395 15.9855L6.86502 15.8862C6.75287 15.8438 6.64895 15.7783 6.56299 15.689L6.48384 15.5919C6.41359 15.4912 6.37477 15.3862 6.35411 15.2913L6.33906 15.2003C6.31446 14.9852 6.36665 14.7833 6.40866 14.6538L6.47171 14.4826C6.54087 14.3148 6.62151 14.1634 6.66121 14.0886L6.68007 14.0522L6.9581 13.5352C7.23478 13.0465 7.54124 12.5712 7.86119 12.108C7.85845 12.0994 7.85427 12.0911 7.85191 12.0823L7.83218 11.9597C7.82341 11.8137 7.81893 11.6652 7.81685 11.5189L7.81554 11.0899L7.81456 10.8105C7.81267 10.5364 7.80495 10.2821 7.77729 10.0403L7.74292 9.80258C7.68267 9.46775 7.90502 9.14775 8.23985 9.0875L8.36391 9.07726C8.65042 9.084 8.9022 9.29139 8.95494 9.58443L9.0013 9.89813C9.02462 10.1014 9.03545 10.302 9.04122 10.4962C9.11456 10.3994 9.1875 10.3029 9.26023 10.2071L9.87662 9.38958C10.0778 9.11927 10.2739 8.84969 10.464 8.57842L10.5459 8.48409ZM15.2869 8.64131C15.5687 8.69336 15.7841 8.93835 15.7897 9.23606L15.8257 10.5732C15.8408 11.0182 15.8589 11.4636 15.8802 11.9092L15.8734 12.0327C15.8297 12.3161 15.5915 12.5396 15.294 12.5538C14.9967 12.5679 14.7386 12.3685 14.6679 12.0908L14.6494 11.9676C14.6277 11.5163 14.6097 11.0654 14.5944 10.6143L14.5582 9.25893C14.5519 8.91881 14.823 8.63782 15.1631 8.63141L15.2869 8.64131Z" fill="url(#paint1_linear_749_3692)"/>
<path d="M14.9422 15.9799C15.2251 16.0719 15.3965 16.3493 15.3644 16.6339L15.3377 16.7562C15.2119 17.1432 15.0281 17.5232 14.7522 17.8398L14.6279 17.9713C14.3156 18.2776 13.9234 18.4843 13.4534 18.5665L13.2478 18.5943C12.5215 18.6624 11.6403 18.403 11.1347 17.7117L11.0391 17.5667C10.8633 17.2757 10.9564 16.8977 11.2473 16.7217L11.3598 16.6679C11.6298 16.5717 11.9392 16.6754 12.0933 16.9302L12.1706 17.0338C12.3756 17.2639 12.7483 17.4035 13.1327 17.3674L13.2374 17.354C13.4705 17.3141 13.6358 17.2194 13.7656 17.0922L13.8798 16.96C13.9899 16.8131 14.0863 16.6202 14.1659 16.3755L14.2159 16.2605C14.3573 16.0114 14.6591 15.8879 14.9422 15.9799ZM10.5459 8.48409C10.754 8.28701 11.0785 8.25646 11.3224 8.42728L11.4167 8.50917C11.5855 8.68762 11.632 8.95123 11.5341 9.17655L11.4735 9.28568C11.2774 9.56568 11.0712 9.84739 10.8612 10.1296L10.2242 10.975L9.50072 11.9357C8.92786 12.7104 8.393 13.4821 7.95767 14.2722L7.77786 14.6112L7.7382 14.6875C7.71202 14.7374 7.68484 14.7891 7.65957 14.8414C8.12407 14.9504 8.65227 14.9664 9.22401 14.9229L9.66535 14.8794C10.1055 14.8274 10.545 14.7517 10.9782 14.6771L11.3871 14.6077L11.5116 14.5996C11.7978 14.6103 12.0467 14.8206 12.0956 15.114L12.1037 15.2385C12.0948 15.4841 11.9387 15.702 11.7093 15.79L11.5891 15.8235L11.2047 15.8883C10.7713 15.963 10.2935 16.0457 9.80655 16.1031L9.31753 16.151C8.61581 16.2044 7.86741 16.1893 7.16395 15.9855L6.86502 15.8862C6.75287 15.8438 6.64895 15.7783 6.56299 15.689L6.48384 15.5919C6.41359 15.4912 6.37477 15.3862 6.35411 15.2913L6.33906 15.2003C6.31446 14.9852 6.36665 14.7833 6.40866 14.6538L6.47171 14.4826C6.54087 14.3148 6.62151 14.1634 6.66121 14.0886L6.68007 14.0522L6.9581 13.5352C7.23478 13.0465 7.54124 12.5712 7.86119 12.108C7.85845 12.0994 7.85427 12.0911 7.85191 12.0823L7.83218 11.9597C7.82341 11.8137 7.81893 11.6652 7.81685 11.5189L7.81554 11.0899L7.81456 10.8105C7.81267 10.5364 7.80495 10.2821 7.77729 10.0403L7.74292 9.80258C7.68267 9.46775 7.90502 9.14775 8.23985 9.0875L8.36391 9.07726C8.65042 9.084 8.9022 9.29139 8.95494 9.58443L9.0013 9.89813C9.02462 10.1014 9.03545 10.302 9.04122 10.4962C9.11456 10.3994 9.1875 10.3029 9.26023 10.2071L9.87662 9.38958C10.0778 9.11927 10.2739 8.84969 10.464 8.57842L10.5459 8.48409ZM15.2869 8.64131C15.5687 8.69336 15.7841 8.93835 15.7897 9.23606L15.8257 10.5732C15.8408 11.0182 15.8589 11.4636 15.8802 11.9092L15.8734 12.0327C15.8297 12.3161 15.5915 12.5396 15.294 12.5538C14.9967 12.5679 14.7386 12.3685 14.6679 12.0908L14.6494 11.9676C14.6277 11.5163 14.6097 11.0654 14.5944 10.6143L14.5582 9.25893C14.5519 8.91881 14.823 8.63782 15.1631 8.63141L15.2869 8.64131Z" fill="#FEAB70" fill-opacity="0.2" style="mix-blend-mode:overlay"/>
<path d="M14.9422 15.9799C15.2251 16.0719 15.3965 16.3493 15.3644 16.6339L15.3377 16.7562C15.2119 17.1432 15.0281 17.5232 14.7522 17.8398L14.6279 17.9713C14.3156 18.2776 13.9234 18.4843 13.4534 18.5665L13.2478 18.5943C12.5215 18.6624 11.6403 18.403 11.1347 17.7117L11.0391 17.5667C10.8633 17.2757 10.9564 16.8977 11.2473 16.7217L11.3598 16.6679C11.6298 16.5717 11.9392 16.6754 12.0933 16.9302L12.1706 17.0338C12.3756 17.2639 12.7483 17.4035 13.1327 17.3674L13.2374 17.354C13.4705 17.3141 13.6358 17.2194 13.7656 17.0922L13.8798 16.96C13.9899 16.8131 14.0863 16.6202 14.1659 16.3755L14.2159 16.2605C14.3573 16.0114 14.6591 15.8879 14.9422 15.9799ZM10.5459 8.48409C10.754 8.28701 11.0785 8.25646 11.3224 8.42728L11.4167 8.50917C11.5855 8.68762 11.632 8.95123 11.5341 9.17655L11.4735 9.28568C11.2774 9.56568 11.0712 9.84739 10.8612 10.1296L10.2242 10.975L9.50072 11.9357C8.92786 12.7104 8.393 13.4821 7.95767 14.2722L7.77786 14.6112L7.7382 14.6875C7.71202 14.7374 7.68484 14.7891 7.65957 14.8414C8.12407 14.9504 8.65227 14.9664 9.22401 14.9229L9.66535 14.8794C10.1055 14.8274 10.545 14.7517 10.9782 14.6771L11.3871 14.6077L11.5116 14.5996C11.7978 14.6103 12.0467 14.8206 12.0956 15.114L12.1037 15.2385C12.0948 15.4841 11.9387 15.702 11.7093 15.79L11.5891 15.8235L11.2047 15.8883C10.7713 15.963 10.2935 16.0457 9.80655 16.1031L9.31753 16.151C8.61581 16.2044 7.86741 16.1893 7.16395 15.9855L6.86502 15.8862C6.75287 15.8438 6.64895 15.7783 6.56299 15.689L6.48384 15.5919C6.41359 15.4912 6.37477 15.3862 6.35411 15.2913L6.33906 15.2003C6.31446 14.9852 6.36665 14.7833 6.40866 14.6538L6.47171 14.4826C6.54087 14.3148 6.62151 14.1634 6.66121 14.0886L6.68007 14.0522L6.9581 13.5352C7.23478 13.0465 7.54124 12.5712 7.86119 12.108C7.85845 12.0994 7.85427 12.0911 7.85191 12.0823L7.83218 11.9597C7.82341 11.8137 7.81893 11.6652 7.81685 11.5189L7.81554 11.0899L7.81456 10.8105C7.81267 10.5364 7.80495 10.2821 7.77729 10.0403L7.74292 9.80258C7.68267 9.46775 7.90502 9.14775 8.23985 9.0875L8.36391 9.07726C8.65042 9.084 8.9022 9.29139 8.95494 9.58443L9.0013 9.89813C9.02462 10.1014 9.03545 10.302 9.04122 10.4962C9.11456 10.3994 9.1875 10.3029 9.26023 10.2071L9.87662 9.38958C10.0778 9.11927 10.2739 8.84969 10.464 8.57842L10.5459 8.48409ZM15.2869 8.64131C15.5687 8.69336 15.7841 8.93835 15.7897 9.23606L15.8257 10.5732C15.8408 11.0182 15.8589 11.4636 15.8802 11.9092L15.8734 12.0327C15.8297 12.3161 15.5915 12.5396 15.294 12.5538C14.9967 12.5679 14.7386 12.3685 14.6679 12.0908L14.6494 11.9676C14.6277 11.5163 14.6097 11.0654 14.5944 10.6143L14.5582 9.25893C14.5519 8.91881 14.823 8.63782 15.1631 8.63141L15.2869 8.64131Z" stroke="url(#paint2_linear_749_3692)" stroke-width="0.3" stroke-linecap="round"/>
<path d="M14.9422 15.9799C15.2251 16.0719 15.3965 16.3493 15.3644 16.6339L15.3377 16.7562C15.2119 17.1432 15.0281 17.5232 14.7522 17.8398L14.6279 17.9713C14.3156 18.2776 13.9234 18.4843 13.4534 18.5665L13.2478 18.5943C12.5215 18.6624 11.6403 18.403 11.1347 17.7117L11.0391 17.5667C10.8633 17.2757 10.9564 16.8977 11.2473 16.7217L11.3598 16.6679C11.6298 16.5717 11.9392 16.6754 12.0933 16.9302L12.1706 17.0338C12.3756 17.2639 12.7483 17.4035 13.1327 17.3674L13.2374 17.354C13.4705 17.3141 13.6358 17.2194 13.7656 17.0922L13.8798 16.96C13.9899 16.8131 14.0863 16.6202 14.1659 16.3755L14.2159 16.2605C14.3573 16.0114 14.6591 15.8879 14.9422 15.9799ZM10.5459 8.48409C10.754 8.28701 11.0785 8.25646 11.3224 8.42728L11.4167 8.50917C11.5855 8.68762 11.632 8.95123 11.5341 9.17655L11.4735 9.28568C11.2774 9.56568 11.0712 9.84739 10.8612 10.1296L10.2242 10.975L9.50072 11.9357C8.92786 12.7104 8.393 13.4821 7.95767 14.2722L7.77786 14.6112L7.7382 14.6875C7.71202 14.7374 7.68484 14.7891 7.65957 14.8414C8.12407 14.9504 8.65227 14.9664 9.22401 14.9229L9.66535 14.8794C10.1055 14.8274 10.545 14.7517 10.9782 14.6771L11.3871 14.6077L11.5116 14.5996C11.7978 14.6103 12.0467 14.8206 12.0956 15.114L12.1037 15.2385C12.0948 15.4841 11.9387 15.702 11.7093 15.79L11.5891 15.8235L11.2047 15.8883C10.7713 15.963 10.2935 16.0457 9.80655 16.1031L9.31753 16.151C8.61581 16.2044 7.86741 16.1893 7.16395 15.9855L6.86502 15.8862C6.75287 15.8438 6.64895 15.7783 6.56299 15.689L6.48384 15.5919C6.41359 15.4912 6.37477 15.3862 6.35411 15.2913L6.33906 15.2003C6.31446 14.9852 6.36665 14.7833 6.40866 14.6538L6.47171 14.4826C6.54087 14.3148 6.62151 14.1634 6.66121 14.0886L6.68007 14.0522L6.9581 13.5352C7.23478 13.0465 7.54124 12.5712 7.86119 12.108C7.85845 12.0994 7.85427 12.0911 7.85191 12.0823L7.83218 11.9597C7.82341 11.8137 7.81893 11.6652 7.81685 11.5189L7.81554 11.0899L7.81456 10.8105C7.81267 10.5364 7.80495 10.2821 7.77729 10.0403L7.74292 9.80258C7.68267 9.46775 7.90502 9.14775 8.23985 9.0875L8.36391 9.07726C8.65042 9.084 8.9022 9.29139 8.95494 9.58443L9.0013 9.89813C9.02462 10.1014 9.03545 10.302 9.04122 10.4962C9.11456 10.3994 9.1875 10.3029 9.26023 10.2071L9.87662 9.38958C10.0778 9.11927 10.2739 8.84969 10.464 8.57842L10.5459 8.48409ZM15.2869 8.64131C15.5687 8.69336 15.7841 8.93835 15.7897 9.23606L15.8257 10.5732C15.8408 11.0182 15.8589 11.4636 15.8802 11.9092L15.8734 12.0327C15.8297 12.3161 15.5915 12.5396 15.294 12.5538C14.9967 12.5679 14.7386 12.3685 14.6679 12.0908L14.6494 11.9676C14.6277 11.5163 14.6097 11.0654 14.5944 10.6143L14.5582 9.25893C14.5519 8.91881 14.823 8.63782 15.1631 8.63141L15.2869 8.64131Z" stroke="#FEAB70" stroke-opacity="0.2" stroke-width="0.3" stroke-linecap="round" style="mix-blend-mode:overlay"/>
<defs>
<linearGradient id="paint0_linear_749_3692" x1="11.2176" y1="5.61842" x2="21.5511" y2="17.519" gradientUnits="userSpaceOnUse">
<stop stop-color="#EABE7F"/>
<stop offset="0.0666667" stop-color="#E9BD7F"/>
<stop offset="0.133333" stop-color="#E7BB7D"/>
<stop offset="0.2" stop-color="#E3B87B"/>
<stop offset="0.266667" stop-color="#DDB377"/>
<stop offset="0.333333" stop-color="#D6AC72"/>
<stop offset="0.4" stop-color="#CEA46D"/>
<stop offset="0.466667" stop-color="#C49B67"/>
<stop offset="0.533333" stop-color="#BB9361"/>
<stop offset="0.6" stop-color="#B18A5B"/>
<stop offset="0.666667" stop-color="#A98256"/>
<stop offset="0.733333" stop-color="#A27B51"/>
<stop offset="0.8" stop-color="#9C764D"/>
<stop offset="0.866667" stop-color="#98734B"/>
<stop offset="0.933333" stop-color="#967149"/>
<stop offset="1" stop-color="#957049"/>
</linearGradient>
<linearGradient id="paint1_linear_749_3692" x1="12.1528" y1="9.65798" x2="15.4763" y2="15.5784" gradientUnits="userSpaceOnUse">
<stop stop-color="#EABE7F"/>
<stop offset="0.0666667" stop-color="#E9BD7F"/>
<stop offset="0.133333" stop-color="#E7BB7D"/>
<stop offset="0.2" stop-color="#E3B87B"/>
<stop offset="0.266667" stop-color="#DDB377"/>
<stop offset="0.333333" stop-color="#D6AC72"/>
<stop offset="0.4" stop-color="#CEA46D"/>
<stop offset="0.466667" stop-color="#C49B67"/>
<stop offset="0.533333" stop-color="#BB9361"/>
<stop offset="0.6" stop-color="#B18A5B"/>
<stop offset="0.666667" stop-color="#A98256"/>
<stop offset="0.733333" stop-color="#A27B51"/>
<stop offset="0.8" stop-color="#9C764D"/>
<stop offset="0.866667" stop-color="#98734B"/>
<stop offset="0.933333" stop-color="#967149"/>
<stop offset="1" stop-color="#957049"/>
</linearGradient>
<linearGradient id="paint2_linear_749_3692" x1="12.1528" y1="9.65798" x2="15.4763" y2="15.5784" gradientUnits="userSpaceOnUse">
<stop stop-color="#EABE7F"/>
<stop offset="0.0666667" stop-color="#E9BD7F"/>
<stop offset="0.133333" stop-color="#E7BB7D"/>
<stop offset="0.2" stop-color="#E3B87B"/>
<stop offset="0.266667" stop-color="#DDB377"/>
<stop offset="0.333333" stop-color="#D6AC72"/>
<stop offset="0.4" stop-color="#CEA46D"/>
<stop offset="0.466667" stop-color="#C49B67"/>
<stop offset="0.533333" stop-color="#BB9361"/>
<stop offset="0.6" stop-color="#B18A5B"/>
<stop offset="0.666667" stop-color="#A98256"/>
<stop offset="0.733333" stop-color="#A27B51"/>
<stop offset="0.8" stop-color="#9C764D"/>
<stop offset="0.866667" stop-color="#98734B"/>
<stop offset="0.933333" stop-color="#967149"/>
<stop offset="1" stop-color="#957049"/>
</linearGradient>
</defs>
</svg>
