<svg width="24" height="25" viewBox="0 0 24 25" fill="none" xmlns="http://www.w3.org/2000/svg">
<path d="M22 18.1501L12.83 22.3101C12.5694 22.429 12.2864 22.4905 12 22.4905C11.7136 22.4905 11.4306 22.429 11.17 22.3101L2 18.1501M22 13.1501L12.83 17.3101C12.5694 17.429 12.2864 17.4905 12 17.4905C11.7136 17.4905 11.4306 17.429 11.17 17.3101L2 13.1501M12.83 2.68036C12.5694 2.56151 12.2864 2.5 12 2.5C11.7136 2.5 11.4305 2.56151 11.17 2.68036L2.59996 6.58036C2.42251 6.6586 2.27164 6.78676 2.16573 6.94921C2.05981 7.11167 2.00342 7.30142 2.00342 7.49536C2.00342 7.68929 2.05981 7.87904 2.16573 8.0415C2.27164 8.20396 2.42251 8.33211 2.59996 8.41036L11.18 12.3204C11.4405 12.4392 11.7236 12.5007 12.01 12.5007C12.2964 12.5007 12.5794 12.4392 12.84 12.3204L21.42 8.42036C21.5974 8.34211 21.7483 8.21396 21.8542 8.0515C21.9601 7.88904 22.0165 7.69929 22.0165 7.50536C22.0165 7.31142 21.9601 7.12167 21.8542 6.95921C21.7483 6.79676 21.5974 6.6686 21.42 6.59036L12.83 2.68036Z" stroke="url(#paint0_linear_749_3697)" stroke-width="2" stroke-linecap="round" stroke-linejoin="round"/>
<path d="M22 18.1501L12.83 22.3101C12.5694 22.429 12.2864 22.4905 12 22.4905C11.7136 22.4905 11.4306 22.429 11.17 22.3101L2 18.1501M22 13.1501L12.83 17.3101C12.5694 17.429 12.2864 17.4905 12 17.4905C11.7136 17.4905 11.4306 17.429 11.17 17.3101L2 13.1501M12.83 2.68036C12.5694 2.56151 12.2864 2.5 12 2.5C11.7136 2.5 11.4305 2.56151 11.17 2.68036L2.59996 6.58036C2.42251 6.6586 2.27164 6.78676 2.16573 6.94921C2.05981 7.11167 2.00342 7.30142 2.00342 7.49536C2.00342 7.68929 2.05981 7.87904 2.16573 8.0415C2.27164 8.20396 2.42251 8.33211 2.59996 8.41036L11.18 12.3204C11.4405 12.4392 11.7236 12.5007 12.01 12.5007C12.2964 12.5007 12.5794 12.4392 12.84 12.3204L21.42 8.42036C21.5974 8.34211 21.7483 8.21396 21.8542 8.0515C21.9601 7.88904 22.0165 7.69929 22.0165 7.50536C22.0165 7.31142 21.9601 7.12167 21.8542 6.95921C21.7483 6.79676 21.5974 6.6686 21.42 6.59036L12.83 2.68036Z" stroke="#FEAB70" stroke-opacity="0.2" stroke-width="2" stroke-linecap="round" stroke-linejoin="round" style="mix-blend-mode:overlay"/>
<defs>
<linearGradient id="paint0_linear_749_3697" x1="11.2964" y1="5.78791" x2="20.6843" y2="16.6136" gradientUnits="userSpaceOnUse">
<stop stop-color="#EABE7F"/>
<stop offset="0.0666667" stop-color="#E9BD7F"/>
<stop offset="0.133333" stop-color="#E7BB7D"/>
<stop offset="0.2" stop-color="#E3B87B"/>
<stop offset="0.266667" stop-color="#DDB377"/>
<stop offset="0.333333" stop-color="#D6AC72"/>
<stop offset="0.4" stop-color="#CEA46D"/>
<stop offset="0.466667" stop-color="#C49B67"/>
<stop offset="0.533333" stop-color="#BB9361"/>
<stop offset="0.6" stop-color="#B18A5B"/>
<stop offset="0.666667" stop-color="#A98256"/>
<stop offset="0.733333" stop-color="#A27B51"/>
<stop offset="0.8" stop-color="#9C764D"/>
<stop offset="0.866667" stop-color="#98734B"/>
<stop offset="0.933333" stop-color="#967149"/>
<stop offset="1" stop-color="#957049"/>
</linearGradient>
</defs>
</svg>
