<svg width="20" height="20" viewBox="0 0 20 20" fill="none" xmlns="http://www.w3.org/2000/svg">
<g clip-path="url(#clip0_468_54441)">
<path d="M16.9521 16.785H14.0042V12.2139C14.0042 11.1239 13.9846 9.72066 12.471 9.72066C10.9356 9.72066 10.7007 10.9083 10.7007 12.1345V16.7847H7.75274V7.38463H10.5828V8.66925H10.6224C10.9056 8.18977 11.3149 7.79533 11.8066 7.52794C12.2983 7.26055 12.854 7.13021 13.4146 7.15082C16.4025 7.15082 16.9534 9.09675 16.9534 11.6283L16.9521 16.785ZM4.4265 6.09971C4.08815 6.09977 3.75737 6.00049 3.47601 5.81441C3.19465 5.62834 2.97535 5.36383 2.84582 5.05433C2.71628 4.74484 2.68233 4.40427 2.74828 4.07568C2.81423 3.74709 2.97711 3.44524 3.21632 3.2083C3.45552 2.97137 3.76032 2.80999 4.09215 2.74457C4.42399 2.67915 4.76795 2.71264 5.08057 2.84079C5.39319 2.96894 5.6604 3.186 5.84843 3.46452C6.03646 3.74304 6.13685 4.07052 6.13691 4.40553C6.13696 4.62798 6.09274 4.84825 6.0068 5.05377C5.92087 5.2593 5.79491 5.44605 5.63608 5.60337C5.47725 5.76069 5.28867 5.88549 5.08113 5.97065C4.8736 6.05582 4.65115 6.09967 4.4265 6.09971ZM5.90046 16.785H2.94946V7.38463H5.90046V16.785ZM18.4218 0.00134214H1.46813C1.08333 -0.00295757 0.712532 0.144184 0.437243 0.410434C0.161953 0.676683 0.00469628 1.04026 0 1.42126V18.2776C0.00453555 18.6588 0.1617 19.0226 0.43698 19.2891C0.71226 19.5557 1.08314 19.7031 1.46813 19.699H18.4218C18.8076 19.7038 19.1795 19.5568 19.4558 19.2903C19.7322 19.0238 19.8904 18.6595 19.8958 18.2776V1.42005C19.8903 1.03829 19.7319 0.674298 19.4556 0.408055C19.1792 0.141812 18.8074 -0.00490955 18.4218 0.000125436" fill="#0A66C2"/>
</g>
<defs>
<clipPath id="clip0_468_54441">
<rect width="20" height="20" fill="white"/>
</clipPath>
</defs>
</svg>
