<svg width="17" height="20" viewBox="0 0 17 20" fill="none" xmlns="http://www.w3.org/2000/svg">
<g clip-path="url(#clip0_468_54436)">
<path d="M13.2442 9.25C13.1453 9.2 13.0959 9.15 12.9971 9.15C12.8488 6.3 11.3169 4.7 8.74709 4.65C8.74709 4.65 8.74709 4.65 8.69767 4.65C7.1657 4.65 5.88081 5.3 5.09012 6.55L6.52326 7.55C7.11628 6.65 8.05523 6.45 8.69767 6.45C9.53779 6.45 10.1802 6.7 10.625 7.2C10.9215 7.55 11.1192 8.05 11.218 8.65C10.4767 8.5 9.63663 8.5 8.79651 8.55C6.32558 8.7 4.74419 10.15 4.89244 12.15C4.94186 13.15 5.43605 14.05 6.32558 14.6C7.06686 15.1 8.00581 15.3 8.94477 15.25C10.2297 15.2 11.218 14.7 11.9593 13.8C12.5029 13.1 12.8488 12.2 12.9971 11.1C13.5901 11.45 14.0843 11.95 14.3314 12.55C14.7762 13.55 14.7762 15.2 13.4419 16.55C12.2558 17.75 10.8721 18.25 8.74709 18.25C6.375 18.25 4.64535 17.45 3.4593 16C2.27326 14.6 1.72965 12.55 1.72965 10C1.72965 7.45 2.32267 5.4 3.40988 4.05C4.54651 2.55 6.32558 1.8 8.69767 1.8C11.0698 1.8 12.8488 2.6 14.0843 4.1C14.6773 4.85 15.1221 5.75 15.4186 6.85L17.0988 6.4C16.6541 5 16.1105 3.85 15.3198 2.9C13.7878 1 11.564 0 8.64826 0C5.73256 0 3.50872 1 2.02616 2.9C0.69186 4.65 0 7 0 10C0 13 0.69186 15.35 2.02616 17.05C3.50872 18.95 5.73256 19.95 8.64826 19.95C11.218 19.95 13.0465 19.25 14.5291 17.75C16.5058 15.8 16.407 13.3 15.7645 11.8C15.3198 10.75 14.4302 9.85 13.2442 9.25ZM8.79651 13.5C7.7093 13.55 6.62209 13.05 6.57267 12.05C6.52326 11.25 7.11628 10.4 8.89535 10.3C9.09302 10.3 9.2907 10.3 9.48837 10.3C10.1308 10.3 10.7238 10.35 11.2674 10.5C11.0203 13 9.8343 13.45 8.79651 13.5Z" fill="black"/>
</g>
<defs>
<clipPath id="clip0_468_54436">
<rect width="17" height="20" fill="white"/>
</clipPath>
</defs>
</svg>
