<svg width="322" height="270" viewBox="0 0 322 270" fill="none" xmlns="http://www.w3.org/2000/svg">
<g filter="url(#filter0_dddddd_696_1839)">
<g clip-path="url(#clip0_696_1839)">
<path d="M8 20C8 13.3726 13.3726 8 20 8H302C308.627 8 314 13.3726 314 20V271C314 277.627 308.627 283 302 283H20C13.3726 283 8 277.627 8 271V20Z" fill="white"/>
<path d="M56 34C56 37.3137 53.3137 40 50 40C46.6863 40 44 37.3137 44 34C44 30.6863 46.6863 28 50 28C53.3137 28 56 30.6863 56 34ZM45.8 34C45.8 36.3196 47.6804 38.2 50 38.2C52.3196 38.2 54.2 36.3196 54.2 34C54.2 31.6804 52.3196 29.8 50 29.8C47.6804 29.8 45.8 31.6804 45.8 34Z" fill="#CCFF00"/>
<path d="M63.3144 39V29.06H67.0804C67.7804 29.06 68.3824 29.1813 68.8864 29.424C69.3904 29.6667 69.7777 30.0167 70.0484 30.474C70.3284 30.922 70.4684 31.454 70.4684 32.07C70.4684 32.518 70.361 32.9193 70.1464 33.274C69.941 33.6193 69.675 33.8947 69.3484 34.1C69.0217 34.3053 68.681 34.4173 68.3264 34.436L68.2424 34.31C68.849 34.31 69.325 34.45 69.6704 34.73C70.025 35.01 70.2304 35.458 70.2864 36.074L70.5664 39H69.3484L69.0964 36.2C69.059 35.7893 68.9097 35.486 68.6484 35.29C68.3964 35.094 67.981 34.996 67.4024 34.996H64.5184V39H63.3144ZM64.5184 33.82H67.2344C67.841 33.82 68.3217 33.666 68.6764 33.358C69.031 33.05 69.2084 32.6113 69.2084 32.042C69.2084 31.4633 69.0264 31.02 68.6624 30.712C68.2984 30.3947 67.771 30.236 67.0804 30.236H64.5184V33.82ZM75.2866 39.168C74.6052 39.168 74.0079 39.0093 73.4946 38.692C72.9812 38.3747 72.5846 37.9267 72.3046 37.348C72.0246 36.76 71.8846 36.074 71.8846 35.29C71.8846 34.4967 72.0246 33.8107 72.3046 33.232C72.5846 32.6533 72.9812 32.2053 73.4946 31.888C74.0079 31.5707 74.6052 31.412 75.2866 31.412C75.9679 31.412 76.5606 31.5707 77.0646 31.888C77.5779 32.2053 77.9746 32.6533 78.2546 33.232C78.5346 33.8107 78.6746 34.4967 78.6746 35.29C78.6746 36.074 78.5346 36.76 78.2546 37.348C77.9746 37.9267 77.5779 38.3747 77.0646 38.692C76.5606 39.0093 75.9679 39.168 75.2866 39.168ZM75.2866 38.048C75.9679 38.048 76.4952 37.8053 76.8686 37.32C77.2512 36.8253 77.4426 36.1487 77.4426 35.29C77.4426 34.4313 77.2512 33.7593 76.8686 33.274C76.4952 32.7793 75.9679 32.532 75.2866 32.532C74.6052 32.532 74.0732 32.7793 73.6906 33.274C73.3079 33.7593 73.1166 34.4313 73.1166 35.29C73.1166 36.1487 73.3079 36.8253 73.6906 37.32C74.0732 37.8053 74.6052 38.048 75.2866 38.048ZM83.6792 39.168C83.1659 39.168 82.7086 39.056 82.3072 38.832C81.9059 38.5987 81.5979 38.2813 81.3832 37.88L81.3412 39H80.2772V29.06H81.4532V32.616C81.6399 32.308 81.9292 32.0327 82.3212 31.79C82.7132 31.538 83.1659 31.412 83.6792 31.412C84.3326 31.412 84.8972 31.5707 85.3732 31.888C85.8492 32.2053 86.2179 32.6533 86.4792 33.232C86.7406 33.8107 86.8712 34.4967 86.8712 35.29C86.8712 36.0833 86.7406 36.7693 86.4792 37.348C86.2179 37.9267 85.8492 38.3747 85.3732 38.692C84.8972 39.0093 84.3326 39.168 83.6792 39.168ZM83.6092 38.048C84.2346 38.048 84.7292 37.8007 85.0932 37.306C85.4572 36.8113 85.6392 36.1393 85.6392 35.29C85.6392 34.4313 85.4572 33.7593 85.0932 33.274C84.7292 32.7793 84.2439 32.532 83.6372 32.532C83.1799 32.532 82.7879 32.644 82.4612 32.868C82.1346 33.0827 81.8826 33.3953 81.7052 33.806C81.5372 34.2167 81.4532 34.7113 81.4532 35.29C81.4532 35.85 81.5372 36.34 81.7052 36.76C81.8826 37.1707 82.1299 37.488 82.4472 37.712C82.7739 37.936 83.1612 38.048 83.6092 38.048ZM88.4667 39V31.58H89.6427V39H88.4667ZM88.4387 30.418V29.046H89.6707V30.418H88.4387ZM92.0214 39V31.58H93.0994L93.1414 33.47L93.0014 33.344C93.0947 32.9053 93.258 32.546 93.4914 32.266C93.7247 31.9767 94.0047 31.762 94.3314 31.622C94.6674 31.482 95.0267 31.412 95.4094 31.412C95.9787 31.412 96.4454 31.538 96.8094 31.79C97.1827 32.042 97.458 32.3827 97.6354 32.812C97.822 33.232 97.9154 33.7033 97.9154 34.226V39H96.7394V34.562C96.7394 34.1047 96.6834 33.722 96.5714 33.414C96.4687 33.0967 96.3007 32.8587 96.0674 32.7C95.834 32.532 95.5307 32.448 95.1574 32.448C94.588 32.448 94.1167 32.63 93.7434 32.994C93.3794 33.3487 93.1974 33.8713 93.1974 34.562V39H92.0214ZM100.019 39V29.06H101.195V33.218L101.055 33.19C101.149 32.7793 101.307 32.4433 101.531 32.182C101.755 31.9207 102.031 31.7293 102.357 31.608C102.684 31.4773 103.043 31.412 103.435 31.412C103.967 31.412 104.415 31.5333 104.779 31.776C105.153 32.0093 105.433 32.3407 105.619 32.77C105.815 33.19 105.913 33.6753 105.913 34.226V39H104.737V34.562C104.737 33.8433 104.607 33.3113 104.345 32.966C104.093 32.6207 103.706 32.448 103.183 32.448C102.586 32.448 102.105 32.63 101.741 32.994C101.377 33.358 101.195 33.8853 101.195 34.576V39H100.019ZM110.888 39.168C110.207 39.168 109.609 39.0093 109.096 38.692C108.583 38.3747 108.186 37.9267 107.906 37.348C107.626 36.76 107.486 36.074 107.486 35.29C107.486 34.4967 107.626 33.8107 107.906 33.232C108.186 32.6533 108.583 32.2053 109.096 31.888C109.609 31.5707 110.207 31.412 110.888 31.412C111.569 31.412 112.162 31.5707 112.666 31.888C113.179 32.2053 113.576 32.6533 113.856 33.232C114.136 33.8107 114.276 34.4967 114.276 35.29C114.276 36.074 114.136 36.76 113.856 37.348C113.576 37.9267 113.179 38.3747 112.666 38.692C112.162 39.0093 111.569 39.168 110.888 39.168ZM110.888 38.048C111.569 38.048 112.097 37.8053 112.47 37.32C112.853 36.8253 113.044 36.1487 113.044 35.29C113.044 34.4313 112.853 33.7593 112.47 33.274C112.097 32.7793 111.569 32.532 110.888 32.532C110.207 32.532 109.675 32.7793 109.292 33.274C108.909 33.7593 108.718 34.4313 108.718 35.29C108.718 36.1487 108.909 36.8253 109.292 37.32C109.675 37.8053 110.207 38.048 110.888 38.048ZM118.777 39.168C118.095 39.168 117.498 39.0093 116.985 38.692C116.471 38.3747 116.075 37.9267 115.795 37.348C115.515 36.76 115.375 36.074 115.375 35.29C115.375 34.4967 115.515 33.8107 115.795 33.232C116.075 32.6533 116.471 32.2053 116.985 31.888C117.498 31.5707 118.095 31.412 118.777 31.412C119.458 31.412 120.051 31.5707 120.555 31.888C121.068 32.2053 121.465 32.6533 121.745 33.232C122.025 33.8107 122.165 34.4967 122.165 35.29C122.165 36.074 122.025 36.76 121.745 37.348C121.465 37.9267 121.068 38.3747 120.555 38.692C120.051 39.0093 119.458 39.168 118.777 39.168ZM118.777 38.048C119.458 38.048 119.985 37.8053 120.359 37.32C120.741 36.8253 120.933 36.1487 120.933 35.29C120.933 34.4313 120.741 33.7593 120.359 33.274C119.985 32.7793 119.458 32.532 118.777 32.532C118.095 32.532 117.563 32.7793 117.181 33.274C116.798 33.7593 116.607 34.4313 116.607 35.29C116.607 36.1487 116.798 36.8253 117.181 37.32C117.563 37.8053 118.095 38.048 118.777 38.048ZM126.399 39.168C125.755 39.168 125.195 39.0093 124.719 38.692C124.253 38.3747 123.893 37.9267 123.641 37.348C123.389 36.7693 123.263 36.0833 123.263 35.29C123.263 34.4967 123.389 33.8107 123.641 33.232C123.893 32.6533 124.253 32.2053 124.719 31.888C125.195 31.5707 125.755 31.412 126.399 31.412C126.894 31.412 127.347 31.5193 127.757 31.734C128.168 31.9393 128.476 32.2333 128.681 32.616V29.06H129.857V39H128.793L128.751 37.88C128.546 38.2813 128.233 38.5987 127.813 38.832C127.393 39.056 126.922 39.168 126.399 39.168ZM126.637 38.048C127.076 38.048 127.445 37.936 127.743 37.712C128.051 37.488 128.285 37.1707 128.443 36.76C128.602 36.34 128.681 35.85 128.681 35.29C128.681 34.7113 128.602 34.2167 128.443 33.806C128.285 33.3953 128.051 33.0827 127.743 32.868C127.445 32.644 127.076 32.532 126.637 32.532C125.984 32.532 125.461 32.7793 125.069 33.274C124.687 33.7593 124.495 34.4313 124.495 35.29C124.495 36.1393 124.687 36.8113 125.069 37.306C125.461 37.8007 125.984 38.048 126.637 38.048Z" fill="#737373"/>
<path d="M51.1369 74.12V71.888H59.1769V74.12H51.1369ZM69.6585 80V76.448H61.0665V74.24L69.3465 62.96H72.2505V74.096H74.3385V76.448H72.2505V80H69.6585ZM64.0185 74.096H69.6585V66.56L64.0185 74.096ZM76.4963 80V76.976H79.5923V80H76.4963ZM89.8617 80V76.448H81.2697V74.24L89.5497 62.96H92.4537V74.096H94.5417V76.448H92.4537V80H89.8617ZM84.2217 74.096H89.8617V66.56L84.2217 74.096ZM100.227 80V67.856H96.6274V65.768H98.0914C98.7314 65.768 99.2514 65.688 99.6514 65.528C100.051 65.352 100.339 65.064 100.515 64.664C100.691 64.248 100.779 63.68 100.779 62.96H102.819V80H100.227ZM110.241 71.216C109.137 71.216 108.225 70.856 107.505 70.136C106.801 69.416 106.449 68.368 106.449 66.992C106.449 65.6 106.801 64.552 107.505 63.848C108.225 63.128 109.137 62.768 110.241 62.768C111.345 62.768 112.249 63.128 112.953 63.848C113.657 64.552 114.009 65.6 114.009 66.992C114.009 68.368 113.657 69.416 112.953 70.136C112.249 70.856 111.345 71.216 110.241 71.216ZM110.241 69.608C110.849 69.608 111.305 69.384 111.609 68.936C111.913 68.488 112.065 67.84 112.065 66.992C112.065 66.144 111.913 65.496 111.609 65.048C111.305 64.6 110.849 64.376 110.241 64.376C109.649 64.376 109.193 64.6 108.873 65.048C108.569 65.496 108.417 66.144 108.417 66.992C108.417 67.84 108.569 68.488 108.873 68.936C109.193 69.384 109.649 69.608 110.241 69.608ZM120.081 80.192C118.993 80.192 118.089 79.832 117.369 79.112C116.649 78.392 116.289 77.344 116.289 75.968C116.289 74.576 116.649 73.528 117.369 72.824C118.089 72.104 118.993 71.744 120.081 71.744C121.201 71.744 122.113 72.104 122.817 72.824C123.521 73.528 123.873 74.576 123.873 75.968C123.873 77.344 123.521 78.392 122.817 79.112C122.113 79.832 121.201 80.192 120.081 80.192ZM120.081 78.584C120.689 78.584 121.145 78.36 121.449 77.912C121.753 77.464 121.905 76.816 121.905 75.968C121.905 75.12 121.753 74.472 121.449 74.024C121.145 73.576 120.689 73.352 120.081 73.352C119.489 73.352 119.033 73.576 118.713 74.024C118.409 74.472 118.257 75.12 118.257 75.968C118.257 76.816 118.409 77.464 118.713 77.912C119.033 78.36 119.489 78.584 120.081 78.584ZM108.345 80L119.961 62.96H121.977L110.361 80H108.345Z" fill="#171717"/>
<path d="M47.4593 101.57V100.268H51.9953V101.57H47.4593ZM57.5899 106.26V93.786H58.6679V106.26H57.5899ZM58.2479 105.196C57.5292 105.196 56.8992 105.056 56.3579 104.776C55.8259 104.487 55.4012 104.085 55.0839 103.572C54.7665 103.059 54.5799 102.457 54.5239 101.766L56.0079 101.668C56.0732 102.144 56.2039 102.545 56.3999 102.872C56.5959 103.199 56.8525 103.446 57.1699 103.614C57.4872 103.773 57.8605 103.852 58.2899 103.852C58.7285 103.852 59.0925 103.801 59.3819 103.698C59.6712 103.586 59.8905 103.427 60.0399 103.222C60.1892 103.017 60.2639 102.769 60.2639 102.48C60.2639 102.181 60.1939 101.929 60.0539 101.724C59.9232 101.509 59.6712 101.318 59.2979 101.15C58.9245 100.982 58.3739 100.805 57.6459 100.618C56.9832 100.441 56.4372 100.231 56.0079 99.988C55.5785 99.736 55.2612 99.4327 55.0559 99.078C54.8599 98.7233 54.7619 98.308 54.7619 97.832C54.7619 97.2627 54.8925 96.7727 55.1539 96.362C55.4245 95.942 55.8072 95.62 56.3019 95.396C56.7965 95.1627 57.3939 95.046 58.0939 95.046C58.7845 95.046 59.3725 95.1767 59.8579 95.438C60.3525 95.69 60.7399 96.0493 61.0199 96.516C61.3092 96.9827 61.4865 97.5333 61.5519 98.168L60.0679 98.252C60.0212 97.8693 59.9185 97.538 59.7599 97.258C59.6012 96.978 59.3819 96.7633 59.1019 96.614C58.8219 96.4647 58.4719 96.39 58.0519 96.39C57.4732 96.39 57.0205 96.5113 56.6939 96.754C56.3672 96.9967 56.2039 97.3327 56.2039 97.762C56.2039 98.0513 56.2692 98.2893 56.3999 98.476C56.5305 98.6627 56.7592 98.8307 57.0859 98.98C57.4125 99.12 57.8792 99.274 58.4859 99.442C59.2885 99.6567 59.9232 99.8993 60.3899 100.17C60.8659 100.431 61.2065 100.749 61.4119 101.122C61.6172 101.486 61.7199 101.939 61.7199 102.48C61.7199 103.021 61.5752 103.497 61.2859 103.908C60.9965 104.319 60.5905 104.636 60.0679 104.86C59.5545 105.084 58.9479 105.196 58.2479 105.196ZM62.9884 105C62.9884 104.263 63.0957 103.605 63.3104 103.026C63.5251 102.447 63.9031 101.906 64.4444 101.402C64.9951 100.889 65.7557 100.375 66.7264 99.862C67.1464 99.6473 67.4871 99.442 67.7484 99.246C68.0097 99.05 68.2011 98.84 68.3224 98.616C68.4437 98.392 68.5044 98.1213 68.5044 97.804C68.5044 97.4773 68.4391 97.1973 68.3084 96.964C68.1777 96.7307 67.9817 96.5487 67.7204 96.418C67.4591 96.278 67.1324 96.208 66.7404 96.208C66.1057 96.208 65.6064 96.376 65.2424 96.712C64.8877 97.048 64.6637 97.5287 64.5704 98.154L63.0444 98.056C63.1471 97.076 63.5157 96.2967 64.1504 95.718C64.7851 95.13 65.6484 94.836 66.7404 94.836C67.4497 94.836 68.0471 94.9573 68.5324 95.2C69.0271 95.4427 69.4004 95.7833 69.6524 96.222C69.9044 96.6607 70.0304 97.1693 70.0304 97.748C70.0304 98.2613 69.9464 98.7047 69.7784 99.078C69.6104 99.4513 69.3304 99.7967 68.9384 100.114C68.5464 100.431 68.0097 100.772 67.3284 101.136C66.7591 101.444 66.2831 101.747 65.9004 102.046C65.5271 102.335 65.2424 102.615 65.0464 102.886C64.8597 103.147 64.7571 103.39 64.7384 103.614H70.0444V105H62.9884ZM74.1269 107.184L74.7989 105H73.9869V103.152H75.8349V104.804L74.9389 107.184H74.1269ZM83.2215 105.224C82.1295 105.224 81.2941 104.963 80.7155 104.44C80.1368 103.917 79.8241 103.231 79.7775 102.382L81.2755 102.284C81.3315 102.853 81.5368 103.259 81.8915 103.502C82.2555 103.735 82.7035 103.852 83.2355 103.852C83.5995 103.852 83.9401 103.796 84.2575 103.684C84.5748 103.572 84.8268 103.395 85.0135 103.152C85.2095 102.909 85.3075 102.583 85.3075 102.172C85.3075 101.771 85.2188 101.439 85.0415 101.178C84.8735 100.917 84.6308 100.725 84.3135 100.604C84.0055 100.473 83.6508 100.408 83.2495 100.408H82.4795V99.092H83.2495C83.5668 99.092 83.8561 99.0453 84.1175 98.952C84.3788 98.8587 84.5841 98.7047 84.7335 98.49C84.8921 98.2753 84.9715 98 84.9715 97.664C84.9715 97.1787 84.8221 96.8147 84.5235 96.572C84.2341 96.3293 83.8188 96.208 83.2775 96.208C82.7175 96.208 82.2928 96.3247 82.0035 96.558C81.7235 96.7913 81.5508 97.1133 81.4855 97.524L79.9735 97.426C80.0761 96.6513 80.4075 96.026 80.9675 95.55C81.5368 95.074 82.3115 94.836 83.2915 94.836C83.9448 94.836 84.5095 94.948 84.9855 95.172C85.4708 95.3867 85.8441 95.6947 86.1055 96.096C86.3668 96.4973 86.4975 96.978 86.4975 97.538C86.4975 98.154 86.3015 98.6533 85.9095 99.036C85.5268 99.4093 84.9668 99.666 84.2295 99.806V99.54C85.0321 99.6333 85.6668 99.9227 86.1335 100.408C86.6001 100.884 86.8335 101.486 86.8335 102.214C86.8335 102.849 86.6795 103.39 86.3715 103.838C86.0728 104.286 85.6481 104.631 85.0975 104.874C84.5561 105.107 83.9308 105.224 83.2215 105.224ZM90.076 105C90.076 103.983 90.2113 102.979 90.482 101.99C90.762 100.991 91.1633 100.025 91.686 99.092C92.2087 98.1587 92.8293 97.2767 93.548 96.446H88.312V95.06H95.088V96.348C94.4813 97.0387 93.9587 97.7247 93.52 98.406C93.0813 99.078 92.722 99.7593 92.442 100.45C92.162 101.141 91.9567 101.864 91.826 102.62C91.6953 103.367 91.63 104.16 91.63 105H90.076ZM98.4705 105C98.4705 103.983 98.6059 102.979 98.8765 101.99C99.1565 100.991 99.5579 100.025 100.081 99.092C100.603 98.1587 101.224 97.2767 101.943 96.446H96.7065V95.06H103.483V96.348C102.876 97.0387 102.353 97.7247 101.915 98.406C101.476 99.078 101.117 99.7593 100.837 100.45C100.557 101.141 100.351 101.864 100.221 102.62C100.09 103.367 100.025 104.16 100.025 105H98.4705ZM107.537 105V103.152H109.441V105H107.537ZM116.912 105.224C116.146 105.224 115.493 105.051 114.952 104.706C114.42 104.361 114.014 103.857 113.734 103.194C113.463 102.522 113.328 101.715 113.328 100.772C113.328 99.9507 113.398 99.1807 113.538 98.462C113.678 97.7433 113.902 97.1133 114.21 96.572C114.518 96.0307 114.924 95.606 115.428 95.298C115.932 94.99 116.552 94.836 117.29 94.836C117.906 94.836 118.419 94.9387 118.83 95.144C119.25 95.34 119.586 95.62 119.838 95.984C120.099 96.348 120.295 96.7633 120.426 97.23L118.914 97.356C118.82 97.0107 118.648 96.7353 118.396 96.53C118.153 96.3153 117.784 96.208 117.29 96.208C116.786 96.208 116.352 96.3527 115.988 96.642C115.633 96.9313 115.353 97.37 115.148 97.958C114.942 98.546 114.83 99.2973 114.812 100.212L114.448 100.156C114.55 99.8293 114.723 99.526 114.966 99.246C115.218 98.966 115.53 98.742 115.904 98.574C116.277 98.3967 116.706 98.308 117.192 98.308C117.854 98.308 118.424 98.448 118.9 98.728C119.385 98.9987 119.763 99.3907 120.034 99.904C120.304 100.408 120.44 100.996 120.44 101.668C120.44 102.405 120.29 103.04 119.992 103.572C119.693 104.095 119.282 104.501 118.76 104.79C118.237 105.079 117.621 105.224 116.912 105.224ZM116.912 103.838C117.528 103.838 118.013 103.651 118.368 103.278C118.732 102.905 118.914 102.377 118.914 101.696C118.914 101.061 118.746 100.562 118.41 100.198C118.074 99.8247 117.612 99.638 117.024 99.638C116.604 99.638 116.23 99.722 115.904 99.89C115.586 100.058 115.334 100.296 115.148 100.604C114.97 100.912 114.882 101.276 114.882 101.696C114.882 102.107 114.961 102.475 115.12 102.802C115.288 103.129 115.526 103.385 115.834 103.572C116.142 103.749 116.501 103.838 116.912 103.838ZM125.306 105.224C124.541 105.224 123.887 105.051 123.346 104.706C122.814 104.361 122.408 103.857 122.128 103.194C121.857 102.522 121.722 101.715 121.722 100.772C121.722 99.9507 121.792 99.1807 121.932 98.462C122.072 97.7433 122.296 97.1133 122.604 96.572C122.912 96.0307 123.318 95.606 123.822 95.298C124.326 94.99 124.947 94.836 125.684 94.836C126.3 94.836 126.813 94.9387 127.224 95.144C127.644 95.34 127.98 95.62 128.232 95.984C128.493 96.348 128.689 96.7633 128.82 97.23L127.308 97.356C127.215 97.0107 127.042 96.7353 126.79 96.53C126.547 96.3153 126.179 96.208 125.684 96.208C125.18 96.208 124.746 96.3527 124.382 96.642C124.027 96.9313 123.747 97.37 123.542 97.958C123.337 98.546 123.225 99.2973 123.206 100.212L122.842 100.156C122.945 99.8293 123.117 99.526 123.36 99.246C123.612 98.966 123.925 98.742 124.298 98.574C124.671 98.3967 125.101 98.308 125.586 98.308C126.249 98.308 126.818 98.448 127.294 98.728C127.779 98.9987 128.157 99.3907 128.428 99.904C128.699 100.408 128.834 100.996 128.834 101.668C128.834 102.405 128.685 103.04 128.386 103.572C128.087 104.095 127.677 104.501 127.154 104.79C126.631 105.079 126.015 105.224 125.306 105.224ZM125.306 103.838C125.922 103.838 126.407 103.651 126.762 103.278C127.126 102.905 127.308 102.377 127.308 101.696C127.308 101.061 127.14 100.562 126.804 100.198C126.468 99.8247 126.006 99.638 125.418 99.638C124.998 99.638 124.625 99.722 124.298 99.89C123.981 100.058 123.729 100.296 123.542 100.604C123.365 100.912 123.276 101.276 123.276 101.696C123.276 102.107 123.355 102.475 123.514 102.802C123.682 103.129 123.92 103.385 124.228 103.572C124.536 103.749 124.895 103.838 125.306 103.838Z" fill="#EC2222"/>
<path d="M207 34C207 37.3137 204.314 40 201 40C197.686 40 195 37.3137 195 34C195 30.6863 197.686 28 201 28C204.314 28 207 30.6863 207 34ZM196.8 34C196.8 36.3196 198.68 38.2 201 38.2C203.32 38.2 205.2 36.3196 205.2 34C205.2 31.6804 203.32 29.8 201 29.8C198.68 29.8 196.8 31.6804 196.8 34Z" fill="#0052FF"/>
<path d="M218.477 39.224C217.59 39.224 216.811 39.0187 216.139 38.608C215.467 38.188 214.944 37.5907 214.571 36.816C214.198 36.0413 214.011 35.1173 214.011 34.044C214.011 32.9707 214.198 32.0467 214.571 31.272C214.944 30.488 215.467 29.886 216.139 29.466C216.811 29.046 217.59 28.836 218.477 28.836C219.681 28.836 220.614 29.1393 221.277 29.746C221.94 30.3527 222.374 31.1787 222.579 32.224L221.305 32.308C221.165 31.5987 220.866 31.0387 220.409 30.628C219.952 30.2173 219.308 30.012 218.477 30.012C217.842 30.012 217.282 30.1753 216.797 30.502C216.321 30.8193 215.948 31.2813 215.677 31.888C215.406 32.4853 215.271 33.204 215.271 34.044C215.271 34.884 215.406 35.6027 215.677 36.2C215.948 36.7973 216.321 37.2547 216.797 37.572C217.282 37.8893 217.842 38.048 218.477 38.048C219.345 38.048 220.017 37.824 220.493 37.376C220.969 36.9187 221.268 36.3027 221.389 35.528L222.663 35.612C222.542 36.3307 222.304 36.9607 221.949 37.502C221.594 38.0433 221.123 38.468 220.535 38.776C219.956 39.0747 219.27 39.224 218.477 39.224ZM227.133 39.168C226.452 39.168 225.855 39.0093 225.341 38.692C224.828 38.3747 224.431 37.9267 224.151 37.348C223.871 36.76 223.731 36.074 223.731 35.29C223.731 34.4967 223.871 33.8107 224.151 33.232C224.431 32.6533 224.828 32.2053 225.341 31.888C225.855 31.5707 226.452 31.412 227.133 31.412C227.815 31.412 228.407 31.5707 228.911 31.888C229.425 32.2053 229.821 32.6533 230.101 33.232C230.381 33.8107 230.521 34.4967 230.521 35.29C230.521 36.074 230.381 36.76 230.101 37.348C229.821 37.9267 229.425 38.3747 228.911 38.692C228.407 39.0093 227.815 39.168 227.133 39.168ZM227.133 38.048C227.815 38.048 228.342 37.8053 228.715 37.32C229.098 36.8253 229.289 36.1487 229.289 35.29C229.289 34.4313 229.098 33.7593 228.715 33.274C228.342 32.7793 227.815 32.532 227.133 32.532C226.452 32.532 225.92 32.7793 225.537 33.274C225.155 33.7593 224.963 34.4313 224.963 35.29C224.963 36.1487 225.155 36.8253 225.537 37.32C225.92 37.8053 226.452 38.048 227.133 38.048ZM232.124 39V31.58H233.3V39H232.124ZM232.096 30.418V29.046H233.328V30.418H232.096ZM235.679 39V31.58H236.757L236.799 33.47L236.659 33.344C236.752 32.9053 236.915 32.546 237.149 32.266C237.382 31.9767 237.662 31.762 237.989 31.622C238.325 31.482 238.684 31.412 239.067 31.412C239.636 31.412 240.103 31.538 240.467 31.79C240.84 32.042 241.115 32.3827 241.293 32.812C241.479 33.232 241.573 33.7033 241.573 34.226V39H240.397V34.562C240.397 34.1047 240.341 33.722 240.229 33.414C240.126 33.0967 239.958 32.8587 239.725 32.7C239.491 32.532 239.188 32.448 238.815 32.448C238.245 32.448 237.774 32.63 237.401 32.994C237.037 33.3487 236.855 33.8713 236.855 34.562V39H235.679ZM247.079 39.168C246.565 39.168 246.108 39.056 245.707 38.832C245.305 38.5987 244.997 38.2813 244.783 37.88L244.741 39H243.677V29.06H244.853V32.616C245.039 32.308 245.329 32.0327 245.721 31.79C246.113 31.538 246.565 31.412 247.079 31.412C247.732 31.412 248.297 31.5707 248.773 31.888C249.249 32.2053 249.617 32.6533 249.879 33.232C250.14 33.8107 250.271 34.4967 250.271 35.29C250.271 36.0833 250.14 36.7693 249.879 37.348C249.617 37.9267 249.249 38.3747 248.773 38.692C248.297 39.0093 247.732 39.168 247.079 39.168ZM247.009 38.048C247.634 38.048 248.129 37.8007 248.493 37.306C248.857 36.8113 249.039 36.1393 249.039 35.29C249.039 34.4313 248.857 33.7593 248.493 33.274C248.129 32.7793 247.643 32.532 247.037 32.532C246.579 32.532 246.187 32.644 245.861 32.868C245.534 33.0827 245.282 33.3953 245.105 33.806C244.937 34.2167 244.853 34.7113 244.853 35.29C244.853 35.85 244.937 36.34 245.105 36.76C245.282 37.1707 245.529 37.488 245.847 37.712C246.173 37.936 246.561 38.048 247.009 38.048ZM254.06 39.168C253.294 39.168 252.683 38.9907 252.226 38.636C251.778 38.2813 251.554 37.7867 251.554 37.152C251.554 36.5173 251.74 36.018 252.114 35.654C252.487 35.29 253.08 35.0333 253.892 34.884L256.524 34.394C256.524 33.7687 256.374 33.302 256.076 32.994C255.786 32.686 255.348 32.532 254.76 32.532C254.246 32.532 253.84 32.6487 253.542 32.882C253.243 33.106 253.038 33.4327 252.926 33.862L251.68 33.764C251.82 33.064 252.156 32.4993 252.688 32.07C253.229 31.6313 253.92 31.412 254.76 31.412C255.712 31.412 256.44 31.6827 256.944 32.224C257.448 32.756 257.7 33.4933 257.7 34.436V37.502C257.7 37.67 257.728 37.7913 257.784 37.866C257.849 37.9313 257.952 37.964 258.092 37.964H258.386V39C258.348 39.0093 258.288 39.014 258.204 39.014C258.12 39.0233 258.031 39.028 257.938 39.028C257.602 39.028 257.326 38.9767 257.112 38.874C256.906 38.762 256.757 38.594 256.664 38.37C256.57 38.1367 256.524 37.8333 256.524 37.46L256.664 37.488C256.598 37.8053 256.44 38.0947 256.188 38.356C255.936 38.608 255.623 38.8087 255.25 38.958C254.876 39.098 254.48 39.168 254.06 39.168ZM254.172 38.132C254.666 38.132 255.086 38.0387 255.432 37.852C255.786 37.656 256.057 37.3947 256.244 37.068C256.43 36.732 256.524 36.3587 256.524 35.948V35.416L254.116 35.864C253.612 35.9573 253.262 36.102 253.066 36.298C252.879 36.4847 252.785 36.732 252.785 37.04C252.785 37.3853 252.907 37.656 253.15 37.852C253.402 38.0387 253.742 38.132 254.172 38.132ZM262.388 39.168C261.726 39.168 261.161 39.0607 260.694 38.846C260.237 38.6313 259.878 38.3373 259.616 37.964C259.364 37.5813 259.22 37.1473 259.182 36.662L260.414 36.578C260.489 37.026 260.68 37.3853 260.988 37.656C261.296 37.9173 261.763 38.048 262.388 38.048C262.892 38.048 263.294 37.9687 263.592 37.81C263.9 37.642 264.054 37.376 264.054 37.012C264.054 36.816 264.008 36.6527 263.914 36.522C263.821 36.3913 263.639 36.2793 263.368 36.186C263.098 36.0833 262.696 35.9853 262.164 35.892C261.455 35.7613 260.895 35.6027 260.484 35.416C260.083 35.22 259.794 34.982 259.616 34.702C259.448 34.4127 259.364 34.072 259.364 33.68C259.364 33.0173 259.607 32.476 260.092 32.056C260.578 31.6267 261.268 31.412 262.164 31.412C262.771 31.412 263.28 31.524 263.69 31.748C264.11 31.9627 264.437 32.252 264.67 32.616C264.913 32.9707 265.072 33.3627 265.146 33.792L263.914 33.876C263.858 33.6147 263.756 33.386 263.606 33.19C263.457 32.9847 263.261 32.826 263.018 32.714C262.776 32.5927 262.486 32.532 262.15 32.532C261.618 32.532 261.226 32.6347 260.974 32.84C260.722 33.0453 260.596 33.3067 260.596 33.624C260.596 33.8667 260.652 34.0673 260.764 34.226C260.886 34.3753 261.077 34.5013 261.338 34.604C261.6 34.6973 261.95 34.7813 262.388 34.856C263.144 34.9867 263.732 35.1453 264.152 35.332C264.572 35.5187 264.866 35.7473 265.034 36.018C265.202 36.2887 265.286 36.62 265.286 37.012C265.286 37.4693 265.156 37.8613 264.894 38.188C264.642 38.5053 264.297 38.748 263.858 38.916C263.429 39.084 262.939 39.168 262.388 39.168ZM269.789 39.168C269.089 39.168 268.483 39.0093 267.969 38.692C267.465 38.3747 267.073 37.9267 266.793 37.348C266.523 36.76 266.387 36.074 266.387 35.29C266.387 34.506 266.523 33.8247 266.793 33.246C267.073 32.6673 267.461 32.2193 267.955 31.902C268.459 31.5753 269.052 31.412 269.733 31.412C270.377 31.412 270.947 31.566 271.441 31.874C271.936 32.1727 272.319 32.6113 272.589 33.19C272.869 33.7687 273.009 34.4733 273.009 35.304V35.654H267.619C267.666 36.4473 267.876 37.0447 268.249 37.446C268.632 37.8473 269.145 38.048 269.789 38.048C270.275 38.048 270.671 37.936 270.979 37.712C271.297 37.4787 271.516 37.1753 271.637 36.802L272.897 36.9C272.701 37.5627 272.328 38.1087 271.777 38.538C271.236 38.958 270.573 39.168 269.789 39.168ZM267.619 34.618H271.721C271.665 33.8993 271.455 33.372 271.091 33.036C270.737 32.7 270.284 32.532 269.733 32.532C269.164 32.532 268.693 32.7093 268.319 33.064C267.955 33.4093 267.722 33.9273 267.619 34.618Z" fill="#737373"/>
<path d="M204.609 78.776V67.208H206.817V78.776H204.609ZM199.929 74.096V71.888H211.497V74.096H199.929ZM216.981 80V67.856H213.381V65.768H214.845C215.485 65.768 216.005 65.688 216.405 65.528C216.805 65.352 217.093 65.064 217.269 64.664C217.445 64.248 217.533 63.68 217.533 62.96H219.573V80H216.981ZM223.203 80V76.976H226.299V80H223.203ZM230.013 80V67.856H226.413V65.768H227.877C228.517 65.768 229.037 65.688 229.437 65.528C229.837 65.352 230.125 65.064 230.301 64.664C230.477 64.248 230.565 63.68 230.565 62.96H232.605V80H230.013ZM242.883 80.384C241.619 80.384 240.539 80.184 239.643 79.784C238.747 79.368 238.043 78.792 237.531 78.056C237.019 77.32 236.723 76.472 236.643 75.512L239.307 75.344C239.435 76.24 239.811 76.912 240.435 77.36C241.075 77.792 241.891 78.008 242.883 78.008C244.003 78.008 244.883 77.696 245.523 77.072C246.179 76.448 246.507 75.576 246.507 74.456C246.507 73.72 246.355 73.088 246.051 72.56C245.763 72.016 245.347 71.6 244.803 71.312C244.259 71.008 243.611 70.856 242.859 70.856C242.107 70.856 241.435 71.016 240.843 71.336C240.251 71.656 239.827 72.096 239.571 72.656H236.883L238.035 62.96H248.019V65.336H240.339L239.619 71.168L239.211 70.808C239.483 70.328 239.827 69.936 240.243 69.632C240.659 69.312 241.139 69.072 241.683 68.912C242.243 68.736 242.835 68.648 243.459 68.648C244.611 68.648 245.611 68.896 246.459 69.392C247.323 69.888 247.995 70.576 248.475 71.456C248.955 72.336 249.195 73.336 249.195 74.456C249.195 75.624 248.931 76.656 248.403 77.552C247.875 78.448 247.139 79.144 246.195 79.64C245.251 80.136 244.147 80.384 242.883 80.384ZM255.402 71.216C254.298 71.216 253.386 70.856 252.666 70.136C251.962 69.416 251.61 68.368 251.61 66.992C251.61 65.6 251.962 64.552 252.666 63.848C253.386 63.128 254.298 62.768 255.402 62.768C256.506 62.768 257.41 63.128 258.114 63.848C258.818 64.552 259.17 65.6 259.17 66.992C259.17 68.368 258.818 69.416 258.114 70.136C257.41 70.856 256.506 71.216 255.402 71.216ZM255.402 69.608C256.01 69.608 256.466 69.384 256.77 68.936C257.074 68.488 257.226 67.84 257.226 66.992C257.226 66.144 257.074 65.496 256.77 65.048C256.466 64.6 256.01 64.376 255.402 64.376C254.81 64.376 254.354 64.6 254.034 65.048C253.73 65.496 253.578 66.144 253.578 66.992C253.578 67.84 253.73 68.488 254.034 68.936C254.354 69.384 254.81 69.608 255.402 69.608ZM265.242 80.192C264.154 80.192 263.25 79.832 262.53 79.112C261.81 78.392 261.45 77.344 261.45 75.968C261.45 74.576 261.81 73.528 262.53 72.824C263.25 72.104 264.154 71.744 265.242 71.744C266.362 71.744 267.274 72.104 267.978 72.824C268.682 73.528 269.034 74.576 269.034 75.968C269.034 77.344 268.682 78.392 267.978 79.112C267.274 79.832 266.362 80.192 265.242 80.192ZM265.242 78.584C265.85 78.584 266.306 78.36 266.61 77.912C266.914 77.464 267.066 76.816 267.066 75.968C267.066 75.12 266.914 74.472 266.61 74.024C266.306 73.576 265.85 73.352 265.242 73.352C264.65 73.352 264.194 73.576 263.874 74.024C263.57 74.472 263.418 75.12 263.418 75.968C263.418 76.816 263.57 77.464 263.874 77.912C264.194 78.36 264.65 78.584 265.242 78.584ZM253.506 80L265.122 62.96H267.138L255.522 80H253.506Z" fill="#171717"/>
<path d="M201.326 101.556V100.268H208.074V101.556H201.326ZM204.056 104.286V97.538H205.344V104.286H204.056ZM212.563 106.26V93.786H213.641V106.26H212.563ZM213.221 105.196C212.502 105.196 211.872 105.056 211.331 104.776C210.799 104.487 210.374 104.085 210.057 103.572C209.739 103.059 209.553 102.457 209.497 101.766L210.981 101.668C211.046 102.144 211.177 102.545 211.373 102.872C211.569 103.199 211.825 103.446 212.143 103.614C212.46 103.773 212.833 103.852 213.263 103.852C213.701 103.852 214.065 103.801 214.355 103.698C214.644 103.586 214.863 103.427 215.013 103.222C215.162 103.017 215.237 102.769 215.237 102.48C215.237 102.181 215.167 101.929 215.027 101.724C214.896 101.509 214.644 101.318 214.271 101.15C213.897 100.982 213.347 100.805 212.619 100.618C211.956 100.441 211.41 100.231 210.981 99.988C210.551 99.736 210.234 99.4327 210.029 99.078C209.833 98.7233 209.735 98.308 209.735 97.832C209.735 97.2627 209.865 96.7727 210.127 96.362C210.397 95.942 210.78 95.62 211.275 95.396C211.769 95.1627 212.367 95.046 213.067 95.046C213.757 95.046 214.345 95.1767 214.831 95.438C215.325 95.69 215.713 96.0493 215.993 96.516C216.282 96.9827 216.459 97.5333 216.525 98.168L215.041 98.252C214.994 97.8693 214.891 97.538 214.733 97.258C214.574 96.978 214.355 96.7633 214.075 96.614C213.795 96.4647 213.445 96.39 213.025 96.39C212.446 96.39 211.993 96.5113 211.667 96.754C211.34 96.9967 211.177 97.3327 211.177 97.762C211.177 98.0513 211.242 98.2893 211.373 98.476C211.503 98.6627 211.732 98.8307 212.059 98.98C212.385 99.12 212.852 99.274 213.459 99.442C214.261 99.6567 214.896 99.8993 215.363 100.17C215.839 100.431 216.179 100.749 216.385 101.122C216.59 101.486 216.693 101.939 216.693 102.48C216.693 103.021 216.548 103.497 216.259 103.908C215.969 104.319 215.563 104.636 215.041 104.86C214.527 105.084 213.921 105.196 213.221 105.196ZM221.517 105.224C220.752 105.224 220.098 105.051 219.557 104.706C219.025 104.361 218.619 103.857 218.339 103.194C218.068 102.522 217.933 101.715 217.933 100.772C217.933 99.9507 218.003 99.1807 218.143 98.462C218.283 97.7433 218.507 97.1133 218.815 96.572C219.123 96.0307 219.529 95.606 220.033 95.298C220.537 94.99 221.158 94.836 221.895 94.836C222.511 94.836 223.024 94.9387 223.435 95.144C223.855 95.34 224.191 95.62 224.443 95.984C224.704 96.348 224.9 96.7633 225.031 97.23L223.519 97.356C223.426 97.0107 223.253 96.7353 223.001 96.53C222.758 96.3153 222.39 96.208 221.895 96.208C221.391 96.208 220.957 96.3527 220.593 96.642C220.238 96.9313 219.958 97.37 219.753 97.958C219.548 98.546 219.436 99.2973 219.417 100.212L219.053 100.156C219.156 99.8293 219.328 99.526 219.571 99.246C219.823 98.966 220.136 98.742 220.509 98.574C220.882 98.3967 221.312 98.308 221.797 98.308C222.46 98.308 223.029 98.448 223.505 98.728C223.99 98.9987 224.368 99.3907 224.639 99.904C224.91 100.408 225.045 100.996 225.045 101.668C225.045 102.405 224.896 103.04 224.597 103.572C224.298 104.095 223.888 104.501 223.365 104.79C222.842 105.079 222.226 105.224 221.517 105.224ZM221.517 103.838C222.133 103.838 222.618 103.651 222.973 103.278C223.337 102.905 223.519 102.377 223.519 101.696C223.519 101.061 223.351 100.562 223.015 100.198C222.679 99.8247 222.217 99.638 221.629 99.638C221.209 99.638 220.836 99.722 220.509 99.89C220.192 100.058 219.94 100.296 219.753 100.604C219.576 100.912 219.487 101.276 219.487 101.696C219.487 102.107 219.566 102.475 219.725 102.802C219.893 103.129 220.131 103.385 220.439 103.572C220.747 103.749 221.106 103.838 221.517 103.838ZM229.506 105V97.916H226.958V96.67H228.218C228.582 96.67 228.876 96.6187 229.1 96.516C229.324 96.404 229.487 96.2313 229.59 95.998C229.692 95.7647 229.744 95.452 229.744 95.06H230.976V105H229.506ZM226.468 105V103.614H233.3V105H226.468ZM236.654 105C236.654 103.983 236.789 102.979 237.06 101.99C237.34 100.991 237.741 100.025 238.264 99.092C238.787 98.1587 239.407 97.2767 240.126 96.446H234.89V95.06H241.666V96.348C241.059 97.0387 240.537 97.7247 240.098 98.406C239.659 99.078 239.3 99.7593 239.02 100.45C238.74 101.141 238.535 101.864 238.404 102.62C238.273 103.367 238.208 104.16 238.208 105H236.654ZM245.721 105V103.152H247.625V105H245.721ZM251.539 105C251.539 104.263 251.647 103.605 251.861 103.026C252.076 102.447 252.454 101.906 252.995 101.402C253.546 100.889 254.307 100.375 255.277 99.862C255.697 99.6473 256.038 99.442 256.299 99.246C256.561 99.05 256.752 98.84 256.873 98.616C256.995 98.392 257.055 98.1213 257.055 97.804C257.055 97.4773 256.99 97.1973 256.859 96.964C256.729 96.7307 256.533 96.5487 256.271 96.418C256.01 96.278 255.683 96.208 255.291 96.208C254.657 96.208 254.157 96.376 253.793 96.712C253.439 97.048 253.215 97.5287 253.121 98.154L251.595 98.056C251.698 97.076 252.067 96.2967 252.701 95.718C253.336 95.13 254.199 94.836 255.291 94.836C256.001 94.836 256.598 94.9573 257.083 95.2C257.578 95.4427 257.951 95.7833 258.203 96.222C258.455 96.6607 258.581 97.1693 258.581 97.748C258.581 98.2613 258.497 98.7047 258.329 99.078C258.161 99.4513 257.881 99.7967 257.489 100.114C257.097 100.431 256.561 100.772 255.879 101.136C255.31 101.444 254.834 101.747 254.451 102.046C254.078 102.335 253.793 102.615 253.597 102.886C253.411 103.147 253.308 103.39 253.289 103.614H258.595V105H251.539ZM259.934 105C259.934 104.263 260.041 103.605 260.256 103.026C260.47 102.447 260.848 101.906 261.39 101.402C261.94 100.889 262.701 100.375 263.672 99.862C264.092 99.6473 264.432 99.442 264.694 99.246C264.955 99.05 265.146 98.84 265.268 98.616C265.389 98.392 265.45 98.1213 265.45 97.804C265.45 97.4773 265.384 97.1973 265.254 96.964C265.123 96.7307 264.927 96.5487 264.666 96.418C264.404 96.278 264.078 96.208 263.686 96.208C263.051 96.208 262.552 96.376 262.188 96.712C261.833 97.048 261.609 97.5287 261.516 98.154L259.99 98.056C260.092 97.076 260.461 96.2967 261.096 95.718C261.73 95.13 262.594 94.836 263.686 94.836C264.395 94.836 264.992 94.9573 265.478 95.2C265.972 95.4427 266.346 95.7833 266.598 96.222C266.85 96.6607 266.976 97.1693 266.976 97.748C266.976 98.2613 266.892 98.7047 266.724 99.078C266.556 99.4513 266.276 99.7967 265.884 100.114C265.492 100.431 264.955 100.772 264.274 101.136C263.704 101.444 263.228 101.747 262.846 102.046C262.472 102.335 262.188 102.615 261.992 102.886C261.805 103.147 261.702 103.39 261.684 103.614H266.99V105H259.934Z" fill="#10A861"/>
<path d="M237 283L237 126" stroke="#9E9E9E" stroke-dasharray="4 4"/>
<path d="M237.5 211.693L247.062 209.686L256.625 213.912L266.188 212.034L275.75 193.568L285.312 190.781L294.875 199.813L304.438 211.863L314 218.714" stroke="#0B0B0B" stroke-opacity="0.1" stroke-width="2" stroke-miterlimit="16"/>
<path d="M8 210.046L17.5625 205.067L27.125 202.859L36.6875 204.722L46.25 191.755L55.8125 186.714L65.375 186L74.9375 204.084L84.5 221.169L94.0625 220.347L103.625 219.23L113.188 230.696L122.75 234.505L132.313 226.572L141.875 232.858L151.438 235L161 233.4L170.562 231.729L180.125 226.496L189.687 225.313L199.25 223.127L208.813 209.234L218.375 208.434L227.938 208.685L237.5 211.692" stroke="#CCFF00" stroke-width="2" stroke-miterlimit="16"/>
<path d="M8 201.748L17.511 207.346L27.022 215.93L36.533 240.246L46.044 232.035L55.555 225.208L65.0661 239.253L74.577 228.478L84.0881 229.304H93.5991L103.11 233.792L112.621 239.017L122.132 237.524L131.643 240.136L138.685 244.355L146.265 240.136L159.776 250L169.687 241.898L179.198 231.448L188.709 239.285L198.22 213.908L207.731 202.238L217.242 187.683L226.753 193.281L236.264 180.219" stroke="#0052FF" stroke-width="2" stroke-miterlimit="16"/>
<path d="M236.266 180.218L245.777 186.084L255.288 187.74L264.799 190.936L274.31 177.606L283.821 175.74L293.332 178.142L302.843 173.866L316 167" stroke="#0B0B0B" stroke-opacity="0.1" stroke-width="2" stroke-miterlimit="16"/>
<path d="M236.266 170.218L245.777 172.084L255.288 165.74L264.799 168.936L274.31 167.606L283.821 165.74L293.332 168.142L302.843 147.866L314.001 145" stroke="#0B0B0B" stroke-opacity="0.1" stroke-width="2" stroke-miterlimit="16"/>
<rect width="43" height="26" transform="translate(212 126)" fill="white"/>
<path d="M219.516 143.192C218.988 143.192 218.52 143.068 218.112 142.82C217.704 142.564 217.384 142.212 217.152 141.764C216.928 141.316 216.812 140.8 216.804 140.216L217.86 140.144C217.868 140.8 218.016 141.304 218.304 141.656C218.592 142.008 218.996 142.184 219.516 142.184C220.06 142.184 220.476 141.996 220.764 141.62C221.06 141.244 221.208 140.712 221.208 140.024V134.48H222.24V140.024C222.24 140.672 222.128 141.236 221.904 141.716C221.68 142.188 221.364 142.552 220.956 142.808C220.556 143.064 220.076 143.192 219.516 143.192ZM225.836 143.144C225.18 143.144 224.656 142.992 224.264 142.688C223.88 142.384 223.688 141.96 223.688 141.416C223.688 140.872 223.848 140.444 224.168 140.132C224.488 139.82 224.996 139.6 225.692 139.472L227.948 139.052C227.948 138.516 227.82 138.116 227.564 137.852C227.316 137.588 226.94 137.456 226.436 137.456C225.996 137.456 225.648 137.556 225.392 137.756C225.136 137.948 224.96 138.228 224.864 138.596L223.796 138.512C223.916 137.912 224.204 137.428 224.66 137.06C225.124 136.684 225.716 136.496 226.436 136.496C227.252 136.496 227.876 136.728 228.308 137.192C228.74 137.648 228.956 138.28 228.956 139.088V141.716C228.956 141.86 228.98 141.964 229.028 142.028C229.084 142.084 229.172 142.112 229.292 142.112H229.544V143C229.512 143.008 229.46 143.012 229.388 143.012C229.316 143.02 229.24 143.024 229.16 143.024C228.872 143.024 228.636 142.98 228.452 142.892C228.276 142.796 228.148 142.652 228.068 142.46C227.988 142.26 227.948 142 227.948 141.68L228.068 141.704C228.012 141.976 227.876 142.224 227.66 142.448C227.444 142.664 227.176 142.836 226.856 142.964C226.536 143.084 226.196 143.144 225.836 143.144ZM225.932 142.256C226.356 142.256 226.716 142.176 227.012 142.016C227.316 141.848 227.548 141.624 227.708 141.344C227.868 141.056 227.948 140.736 227.948 140.384V139.928L225.884 140.312C225.452 140.392 225.152 140.516 224.984 140.684C224.824 140.844 224.744 141.056 224.744 141.32C224.744 141.616 224.848 141.848 225.056 142.016C225.272 142.176 225.564 142.256 225.932 142.256ZM230.683 143V136.64H231.607L231.643 138.26L231.523 138.152C231.603 137.776 231.743 137.468 231.943 137.228C232.143 136.98 232.383 136.796 232.663 136.676C232.951 136.556 233.259 136.496 233.587 136.496C234.075 136.496 234.475 136.604 234.787 136.82C235.107 137.036 235.343 137.328 235.495 137.696C235.655 138.056 235.735 138.46 235.735 138.908V143H234.727V139.196C234.727 138.804 234.679 138.476 234.583 138.212C234.495 137.94 234.351 137.736 234.151 137.6C233.951 137.456 233.691 137.384 233.371 137.384C232.883 137.384 232.479 137.54 232.159 137.852C231.847 138.156 231.691 138.604 231.691 139.196V143H230.683ZM241.951 143V136.688H240.175V135.8H240.895C241.207 135.8 241.455 135.76 241.639 135.68C241.831 135.6 241.967 135.464 242.047 135.272C242.127 135.08 242.167 134.816 242.167 134.48H242.983V143H241.951ZM246.437 143C246.437 142.12 246.557 141.244 246.797 140.372C247.037 139.492 247.381 138.64 247.829 137.816C248.285 136.992 248.829 136.216 249.461 135.488H244.541V134.48H250.589V135.416C249.877 136.232 249.289 137.04 248.825 137.84C248.369 138.632 248.033 139.452 247.817 140.3C247.601 141.14 247.493 142.04 247.493 143H246.437Z" fill="#737373"/>
<g filter="url(#filter1_d_696_1839)">
<rect x="234" y="178" width="6" height="6" rx="3" fill="#0052FF"/>
</g>
<g filter="url(#filter2_d_696_1839)">
<rect x="234" y="208" width="6" height="6" rx="3" fill="#CCFF00"/>
</g>
</g>
</g>
<defs>
<filter id="filter0_dddddd_696_1839" x="-26.0626" y="-26.0626" width="374.125" height="343.125" filterUnits="userSpaceOnUse" color-interpolation-filters="sRGB">
<feFlood flood-opacity="0" result="BackgroundImageFix"/>
<feColorMatrix in="SourceAlpha" type="matrix" values="0 0 0 0 0 0 0 0 0 0 0 0 0 0 0 0 0 0 127 0" result="hardAlpha"/>
<feMorphology radius="1" operator="dilate" in="SourceAlpha" result="effect1_dropShadow_696_1839"/>
<feOffset/>
<feColorMatrix type="matrix" values="0 0 0 0 0.0431373 0 0 0 0 0.0431373 0 0 0 0 0.0431373 0 0 0 0.05 0"/>
<feBlend mode="normal" in2="BackgroundImageFix" result="effect1_dropShadow_696_1839"/>
<feColorMatrix in="SourceAlpha" type="matrix" values="0 0 0 0 0 0 0 0 0 0 0 0 0 0 0 0 0 0 127 0" result="hardAlpha"/>
<feOffset dy="1"/>
<feGaussianBlur stdDeviation="1"/>
<feColorMatrix type="matrix" values="0 0 0 0 0.0431373 0 0 0 0 0.0431373 0 0 0 0 0.0431373 0 0 0 0.06 0"/>
<feBlend mode="normal" in2="effect1_dropShadow_696_1839" result="effect2_dropShadow_696_1839"/>
<feColorMatrix in="SourceAlpha" type="matrix" values="0 0 0 0 0 0 0 0 0 0 0 0 0 0 0 0 0 0 127 0" result="hardAlpha"/>
<feOffset dy="1"/>
<feGaussianBlur stdDeviation="1"/>
<feColorMatrix type="matrix" values="0 0 0 0 0.0431373 0 0 0 0 0.0431373 0 0 0 0 0.0431373 0 0 0 0.05 0"/>
<feBlend mode="normal" in2="effect2_dropShadow_696_1839" result="effect3_dropShadow_696_1839"/>
<feColorMatrix in="SourceAlpha" type="matrix" values="0 0 0 0 0 0 0 0 0 0 0 0 0 0 0 0 0 0 127 0" result="hardAlpha"/>
<feMorphology radius="0.946184" operator="dilate" in="SourceAlpha" result="effect4_dropShadow_696_1839"/>
<feOffset/>
<feComposite in2="hardAlpha" operator="out"/>
<feColorMatrix type="matrix" values="0 0 0 0 0.0431373 0 0 0 0 0.0431373 0 0 0 0 0.0431373 0 0 0 0.05 0"/>
<feBlend mode="normal" in2="effect3_dropShadow_696_1839" result="effect4_dropShadow_696_1839"/>
<feColorMatrix in="SourceAlpha" type="matrix" values="0 0 0 0 0 0 0 0 0 0 0 0 0 0 0 0 0 0 127 0" result="hardAlpha"/>
<feOffset dy="3.78474"/>
<feGaussianBlur stdDeviation="3.78474"/>
<feComposite in2="hardAlpha" operator="out"/>
<feColorMatrix type="matrix" values="0 0 0 0 0.0431373 0 0 0 0 0.0431373 0 0 0 0 0.0431373 0 0 0 0.06 0"/>
<feBlend mode="normal" in2="effect4_dropShadow_696_1839" result="effect5_dropShadow_696_1839"/>
<feColorMatrix in="SourceAlpha" type="matrix" values="0 0 0 0 0 0 0 0 0 0 0 0 0 0 0 0 0 0 127 0" result="hardAlpha"/>
<feMorphology radius="8" operator="dilate" in="SourceAlpha" result="effect6_dropShadow_696_1839"/>
<feOffset/>
<feComposite in2="hardAlpha" operator="out"/>
<feColorMatrix type="matrix" values="0 0 0 0 0 0 0 0 0 0 0 0 0 0 0 0 0 0 0.02 0"/>
<feBlend mode="normal" in2="effect5_dropShadow_696_1839" result="effect6_dropShadow_696_1839"/>
<feBlend mode="normal" in="SourceGraphic" in2="effect6_dropShadow_696_1839" result="shape"/>
</filter>
<filter id="filter1_d_696_1839" x="226" y="170" width="22" height="22" filterUnits="userSpaceOnUse" color-interpolation-filters="sRGB">
<feFlood flood-opacity="0" result="BackgroundImageFix"/>
<feColorMatrix in="SourceAlpha" type="matrix" values="0 0 0 0 0 0 0 0 0 0 0 0 0 0 0 0 0 0 127 0" result="hardAlpha"/>
<feMorphology radius="8" operator="dilate" in="SourceAlpha" result="effect1_dropShadow_696_1839"/>
<feOffset/>
<feComposite in2="hardAlpha" operator="out"/>
<feColorMatrix type="matrix" values="0 0 0 0 0 0 0 0 0 0.321569 0 0 0 0 1 0 0 0 0.1 0"/>
<feBlend mode="normal" in2="BackgroundImageFix" result="effect1_dropShadow_696_1839"/>
<feBlend mode="normal" in="SourceGraphic" in2="effect1_dropShadow_696_1839" result="shape"/>
</filter>
<filter id="filter2_d_696_1839" x="226" y="200" width="22" height="22" filterUnits="userSpaceOnUse" color-interpolation-filters="sRGB">
<feFlood flood-opacity="0" result="BackgroundImageFix"/>
<feColorMatrix in="SourceAlpha" type="matrix" values="0 0 0 0 0 0 0 0 0 0 0 0 0 0 0 0 0 0 127 0" result="hardAlpha"/>
<feMorphology radius="8" operator="dilate" in="SourceAlpha" result="effect1_dropShadow_696_1839"/>
<feOffset/>
<feComposite in2="hardAlpha" operator="out"/>
<feColorMatrix type="matrix" values="0 0 0 0 0.8 0 0 0 0 1 0 0 0 0 0 0 0 0 0.1 0"/>
<feBlend mode="normal" in2="BackgroundImageFix" result="effect1_dropShadow_696_1839"/>
<feBlend mode="normal" in="SourceGraphic" in2="effect1_dropShadow_696_1839" result="shape"/>
</filter>
<clipPath id="clip0_696_1839">
<path d="M8 20C8 13.3726 13.3726 8 20 8H302C308.627 8 314 13.3726 314 20V271C314 277.627 308.627 283 302 283H20C13.3726 283 8 277.627 8 271V20Z" fill="white"/>
</clipPath>
</defs>
</svg>
