<svg width="572" height="215" viewBox="0 0 572 215" fill="none" xmlns="http://www.w3.org/2000/svg">
<g filter="url(#filter0_dddd_669_2829)">
<rect x="19" y="4" width="199" height="26" rx="13" fill="white"/>
<path d="M29 11V23H41M31.6667 17V20.3333H39.6667V14.3333L36.3333 17.6667L33.6667 15L31.6667 17Z" stroke="#737373" stroke-width="1.25" stroke-linecap="round" stroke-linejoin="round"/>
<path d="M50.104 21V12.48H55.456V13.488H51.136V16.236H55.312V17.22H51.136V19.992H55.552V21H50.104ZM58.5761 21L56.2601 14.64H57.3641L59.2121 19.968L61.0601 14.64H62.1641L59.8481 21H58.5761ZM64.8362 21.144C64.1802 21.144 63.6562 20.992 63.2642 20.688C62.8802 20.384 62.6882 19.96 62.6882 19.416C62.6882 18.872 62.8482 18.444 63.1682 18.132C63.4882 17.82 63.9962 17.6 64.6922 17.472L66.9482 17.052C66.9482 16.516 66.8202 16.116 66.5642 15.852C66.3162 15.588 65.9402 15.456 65.4362 15.456C64.9962 15.456 64.6482 15.556 64.3922 15.756C64.1362 15.948 63.9602 16.228 63.8642 16.596L62.7962 16.512C62.9162 15.912 63.2042 15.428 63.6602 15.06C64.1242 14.684 64.7162 14.496 65.4362 14.496C66.2522 14.496 66.8762 14.728 67.3082 15.192C67.7402 15.648 67.9562 16.28 67.9562 17.088V19.716C67.9562 19.86 67.9802 19.964 68.0282 20.028C68.0842 20.084 68.1722 20.112 68.2922 20.112H68.5442V21C68.5122 21.008 68.4602 21.012 68.3882 21.012C68.3162 21.02 68.2402 21.024 68.1602 21.024C67.8722 21.024 67.6362 20.98 67.4522 20.892C67.2762 20.796 67.1482 20.652 67.0682 20.46C66.9882 20.26 66.9482 20 66.9482 19.68L67.0682 19.704C67.0122 19.976 66.8762 20.224 66.6602 20.448C66.4442 20.664 66.1762 20.836 65.8562 20.964C65.5362 21.084 65.1962 21.144 64.8362 21.144ZM64.9322 20.256C65.3562 20.256 65.7162 20.176 66.0122 20.016C66.3162 19.848 66.5482 19.624 66.7082 19.344C66.8682 19.056 66.9482 18.736 66.9482 18.384V17.928L64.8842 18.312C64.4522 18.392 64.1522 18.516 63.9842 18.684C63.8242 18.844 63.7442 19.056 63.7442 19.32C63.7442 19.616 63.8482 19.848 64.0562 20.016C64.2722 20.176 64.5642 20.256 64.9322 20.256ZM70.8603 21C70.4923 21 70.1923 20.904 69.9603 20.712C69.7283 20.52 69.6123 20.216 69.6123 19.8V12.48H70.6203V19.716C70.6203 19.844 70.6523 19.944 70.7163 20.016C70.7883 20.08 70.8883 20.112 71.0163 20.112H71.5683V21H70.8603ZM74.7824 21.144C74.1504 21.144 73.6424 20.932 73.2584 20.508C72.8824 20.076 72.6944 19.484 72.6944 18.732V14.64H73.7024V18.456C73.7024 19.072 73.8104 19.528 74.0264 19.824C74.2504 20.112 74.5904 20.256 75.0464 20.256C75.5504 20.256 75.9464 20.096 76.2344 19.776C76.5224 19.448 76.6664 19 76.6664 18.432V14.64H77.6744V21H76.7144V19.428L76.8704 19.512C76.7424 20.032 76.4984 20.436 76.1384 20.724C75.7784 21.004 75.3264 21.144 74.7824 21.144ZM81.3127 21.144C80.6567 21.144 80.1327 20.992 79.7407 20.688C79.3567 20.384 79.1647 19.96 79.1647 19.416C79.1647 18.872 79.3247 18.444 79.6447 18.132C79.9647 17.82 80.4727 17.6 81.1687 17.472L83.4247 17.052C83.4247 16.516 83.2967 16.116 83.0407 15.852C82.7927 15.588 82.4167 15.456 81.9127 15.456C81.4727 15.456 81.1247 15.556 80.8687 15.756C80.6127 15.948 80.4367 16.228 80.3407 16.596L79.2727 16.512C79.3927 15.912 79.6807 15.428 80.1367 15.06C80.6007 14.684 81.1927 14.496 81.9127 14.496C82.7287 14.496 83.3527 14.728 83.7847 15.192C84.2167 15.648 84.4327 16.28 84.4327 17.088V19.716C84.4327 19.86 84.4567 19.964 84.5047 20.028C84.5607 20.084 84.6487 20.112 84.7687 20.112H85.0207V21C84.9887 21.008 84.9367 21.012 84.8647 21.012C84.7927 21.02 84.7167 21.024 84.6367 21.024C84.3487 21.024 84.1127 20.98 83.9287 20.892C83.7527 20.796 83.6247 20.652 83.5447 20.46C83.4647 20.26 83.4247 20 83.4247 19.68L83.5447 19.704C83.4887 19.976 83.3527 20.224 83.1367 20.448C82.9207 20.664 82.6527 20.836 82.3327 20.964C82.0127 21.084 81.6727 21.144 81.3127 21.144ZM81.4087 20.256C81.8327 20.256 82.1927 20.176 82.4887 20.016C82.7927 19.848 83.0247 19.624 83.1847 19.344C83.3447 19.056 83.4247 18.736 83.4247 18.384V17.928L81.3607 18.312C80.9287 18.392 80.6287 18.516 80.4607 18.684C80.3007 18.844 80.2207 19.056 80.2207 19.32C80.2207 19.616 80.3247 19.848 80.5327 20.016C80.7487 20.176 81.0407 20.256 81.4087 20.256ZM88.1708 21C87.5948 21 87.1668 20.868 86.8868 20.604C86.6148 20.34 86.4788 19.928 86.4788 19.368V13.152H87.4868V19.344C87.4868 19.632 87.5508 19.832 87.6788 19.944C87.8068 20.056 88.0028 20.112 88.2668 20.112H89.1788V21H88.1708ZM85.5428 15.528V14.64H89.1788V15.528H85.5428ZM92.8385 21.144C92.2385 21.144 91.7185 21.008 91.2785 20.736C90.8465 20.464 90.5105 20.08 90.2705 19.584C90.0385 19.08 89.9225 18.492 89.9225 17.82C89.9225 17.148 90.0385 16.564 90.2705 16.068C90.5105 15.572 90.8425 15.188 91.2665 14.916C91.6985 14.636 92.2065 14.496 92.7905 14.496C93.3425 14.496 93.8305 14.628 94.2545 14.892C94.6785 15.148 95.0065 15.524 95.2385 16.02C95.4785 16.516 95.5985 17.12 95.5985 17.832V18.132H90.9785C91.0185 18.812 91.1985 19.324 91.5185 19.668C91.8465 20.012 92.2865 20.184 92.8385 20.184C93.2545 20.184 93.5945 20.088 93.8585 19.896C94.1305 19.696 94.3185 19.436 94.4225 19.116L95.5025 19.2C95.3345 19.768 95.0145 20.236 94.5425 20.604C94.0785 20.964 93.5105 21.144 92.8385 21.144ZM90.9785 17.244H94.4945C94.4465 16.628 94.2665 16.176 93.9545 15.888C93.6505 15.6 93.2625 15.456 92.7905 15.456C92.3025 15.456 91.8985 15.608 91.5785 15.912C91.2665 16.208 91.0665 16.652 90.9785 17.244ZM100.081 21V14.64H101.089V21H100.081ZM100.057 13.644V12.468H101.113V13.644H100.057ZM103.128 21V14.64H104.052L104.088 16.26L103.968 16.152C104.048 15.776 104.188 15.468 104.388 15.228C104.588 14.98 104.828 14.796 105.108 14.676C105.396 14.556 105.704 14.496 106.032 14.496C106.52 14.496 106.92 14.604 107.232 14.82C107.552 15.036 107.788 15.328 107.94 15.696C108.1 16.056 108.18 16.46 108.18 16.908V21H107.172V17.196C107.172 16.804 107.124 16.476 107.028 16.212C106.94 15.94 106.796 15.736 106.596 15.6C106.396 15.456 106.136 15.384 105.816 15.384C105.328 15.384 104.924 15.54 104.604 15.852C104.292 16.156 104.136 16.604 104.136 17.196V21H103.128ZM111.31 21L108.994 14.64H110.098L111.946 19.968L113.794 14.64H114.898L112.582 21H111.31ZM118.292 21.144C117.692 21.144 117.172 21.008 116.732 20.736C116.3 20.464 115.964 20.08 115.724 19.584C115.492 19.08 115.376 18.492 115.376 17.82C115.376 17.148 115.492 16.564 115.724 16.068C115.964 15.572 116.296 15.188 116.72 14.916C117.152 14.636 117.66 14.496 118.244 14.496C118.796 14.496 119.284 14.628 119.708 14.892C120.132 15.148 120.46 15.524 120.692 16.02C120.932 16.516 121.052 17.12 121.052 17.832V18.132H116.432C116.472 18.812 116.652 19.324 116.972 19.668C117.3 20.012 117.74 20.184 118.292 20.184C118.708 20.184 119.048 20.088 119.312 19.896C119.584 19.696 119.772 19.436 119.876 19.116L120.956 19.2C120.788 19.768 120.468 20.236 119.996 20.604C119.532 20.964 118.964 21.144 118.292 21.144ZM116.432 17.244H119.948C119.9 16.628 119.72 16.176 119.408 15.888C119.104 15.6 118.716 15.456 118.244 15.456C117.756 15.456 117.352 15.608 117.032 15.912C116.72 16.208 116.52 16.652 116.432 17.244ZM124.733 21.144C124.165 21.144 123.681 21.052 123.281 20.868C122.889 20.684 122.581 20.432 122.357 20.112C122.141 19.784 122.017 19.412 121.985 18.996L123.041 18.924C123.105 19.308 123.269 19.616 123.533 19.848C123.797 20.072 124.197 20.184 124.733 20.184C125.165 20.184 125.509 20.116 125.765 19.98C126.029 19.836 126.161 19.608 126.161 19.296C126.161 19.128 126.121 18.988 126.041 18.876C125.961 18.764 125.805 18.668 125.573 18.588C125.341 18.5 124.997 18.416 124.541 18.336C123.933 18.224 123.453 18.088 123.101 17.928C122.757 17.76 122.509 17.556 122.357 17.316C122.213 17.068 122.141 16.776 122.141 16.44C122.141 15.872 122.349 15.408 122.765 15.048C123.181 14.68 123.773 14.496 124.541 14.496C125.061 14.496 125.497 14.592 125.849 14.784C126.209 14.968 126.489 15.216 126.689 15.528C126.897 15.832 127.033 16.168 127.097 16.536L126.041 16.608C125.993 16.384 125.905 16.188 125.777 16.02C125.649 15.844 125.481 15.708 125.273 15.612C125.065 15.508 124.817 15.456 124.529 15.456C124.073 15.456 123.737 15.544 123.521 15.72C123.305 15.896 123.197 16.12 123.197 16.392C123.197 16.6 123.245 16.772 123.341 16.908C123.445 17.036 123.609 17.144 123.833 17.232C124.057 17.312 124.357 17.384 124.733 17.448C125.381 17.56 125.885 17.696 126.245 17.856C126.605 18.016 126.857 18.212 127.001 18.444C127.145 18.676 127.217 18.96 127.217 19.296C127.217 19.688 127.105 20.024 126.881 20.304C126.665 20.576 126.369 20.784 125.993 20.928C125.625 21.072 125.205 21.144 124.733 21.144ZM130.675 21C130.099 21 129.671 20.868 129.391 20.604C129.119 20.34 128.983 19.928 128.983 19.368V13.152H129.991V19.344C129.991 19.632 130.055 19.832 130.183 19.944C130.311 20.056 130.507 20.112 130.771 20.112H131.683V21H130.675ZM128.047 15.528V14.64H131.683V15.528H128.047ZM133.105 21V14.64H134.029L134.065 16.248L133.921 16.2C133.993 15.848 134.117 15.548 134.293 15.3C134.477 15.044 134.701 14.848 134.965 14.712C135.229 14.568 135.521 14.496 135.841 14.496C136.393 14.496 136.841 14.648 137.185 14.952C137.537 15.256 137.757 15.68 137.845 16.224L137.653 16.212C137.717 15.844 137.833 15.536 138.001 15.288C138.177 15.032 138.401 14.836 138.673 14.7C138.945 14.564 139.257 14.496 139.609 14.496C140.065 14.496 140.449 14.592 140.761 14.784C141.073 14.968 141.309 15.24 141.469 15.6C141.629 15.96 141.709 16.396 141.709 16.908V21H140.701V17.124C140.701 16.548 140.589 16.116 140.365 15.828C140.141 15.532 139.809 15.384 139.369 15.384C139.073 15.384 138.813 15.456 138.589 15.6C138.373 15.744 138.205 15.952 138.085 16.224C137.965 16.488 137.905 16.812 137.905 17.196V21H136.897V17.196C136.897 16.628 136.797 16.184 136.597 15.864C136.397 15.544 136.061 15.384 135.589 15.384C135.293 15.384 135.033 15.456 134.809 15.6C134.593 15.744 134.421 15.952 134.293 16.224C134.173 16.496 134.113 16.82 134.113 17.196V21H133.105ZM145.971 21.144C145.371 21.144 144.851 21.008 144.411 20.736C143.979 20.464 143.643 20.08 143.403 19.584C143.171 19.08 143.055 18.492 143.055 17.82C143.055 17.148 143.171 16.564 143.403 16.068C143.643 15.572 143.975 15.188 144.399 14.916C144.831 14.636 145.339 14.496 145.923 14.496C146.475 14.496 146.963 14.628 147.387 14.892C147.811 15.148 148.139 15.524 148.371 16.02C148.611 16.516 148.731 17.12 148.731 17.832V18.132H144.111C144.151 18.812 144.331 19.324 144.651 19.668C144.979 20.012 145.419 20.184 145.971 20.184C146.387 20.184 146.727 20.088 146.991 19.896C147.263 19.696 147.451 19.436 147.555 19.116L148.635 19.2C148.467 19.768 148.147 20.236 147.675 20.604C147.211 20.964 146.643 21.144 145.971 21.144ZM144.111 17.244H147.627C147.579 16.628 147.399 16.176 147.087 15.888C146.783 15.6 146.395 15.456 145.923 15.456C145.435 15.456 145.031 15.608 144.711 15.912C144.399 16.208 144.199 16.652 144.111 17.244ZM150.097 21V14.64H151.021L151.057 16.26L150.937 16.152C151.017 15.776 151.157 15.468 151.357 15.228C151.557 14.98 151.797 14.796 152.077 14.676C152.365 14.556 152.673 14.496 153.001 14.496C153.489 14.496 153.889 14.604 154.201 14.82C154.521 15.036 154.757 15.328 154.909 15.696C155.069 16.056 155.149 16.46 155.149 16.908V21H154.141V17.196C154.141 16.804 154.093 16.476 153.997 16.212C153.909 15.94 153.765 15.736 153.565 15.6C153.365 15.456 153.105 15.384 152.785 15.384C152.297 15.384 151.893 15.54 151.573 15.852C151.261 16.156 151.105 16.604 151.105 17.196V21H150.097ZM158.917 21C158.341 21 157.913 20.868 157.633 20.604C157.361 20.34 157.225 19.928 157.225 19.368V13.152H158.233V19.344C158.233 19.632 158.297 19.832 158.425 19.944C158.553 20.056 158.749 20.112 159.013 20.112H159.925V21H158.917ZM156.289 15.528V14.64H159.925V15.528H156.289ZM164.288 22.8V14.64H165.224L165.248 16.008L165.104 15.936C165.264 15.464 165.528 15.108 165.896 14.868C166.272 14.62 166.704 14.496 167.192 14.496C167.824 14.496 168.34 14.652 168.74 14.964C169.148 15.276 169.448 15.684 169.64 16.188C169.84 16.692 169.94 17.236 169.94 17.82C169.94 18.404 169.84 18.948 169.64 19.452C169.448 19.956 169.148 20.364 168.74 20.676C168.34 20.988 167.824 21.144 167.192 21.144C166.864 21.144 166.556 21.088 166.268 20.976C165.988 20.864 165.748 20.708 165.548 20.508C165.356 20.308 165.224 20.072 165.152 19.8L165.296 19.632V22.8H164.288ZM167.096 20.184C167.648 20.184 168.084 19.976 168.404 19.56C168.724 19.144 168.884 18.564 168.884 17.82C168.884 17.076 168.724 16.496 168.404 16.08C168.084 15.664 167.648 15.456 167.096 15.456C166.728 15.456 166.408 15.544 166.136 15.72C165.872 15.896 165.664 16.16 165.512 16.512C165.368 16.864 165.296 17.3 165.296 17.82C165.296 18.34 165.368 18.776 165.512 19.128C165.656 19.48 165.864 19.744 166.136 19.92C166.408 20.096 166.728 20.184 167.096 20.184ZM173.792 21.144C173.208 21.144 172.696 21.008 172.256 20.736C171.816 20.464 171.476 20.08 171.236 19.584C170.996 19.08 170.876 18.492 170.876 17.82C170.876 17.14 170.996 16.552 171.236 16.056C171.476 15.56 171.816 15.176 172.256 14.904C172.696 14.632 173.208 14.496 173.792 14.496C174.376 14.496 174.884 14.632 175.316 14.904C175.756 15.176 176.096 15.56 176.336 16.056C176.576 16.552 176.696 17.14 176.696 17.82C176.696 18.492 176.576 19.08 176.336 19.584C176.096 20.08 175.756 20.464 175.316 20.736C174.884 21.008 174.376 21.144 173.792 21.144ZM173.792 20.184C174.376 20.184 174.828 19.976 175.148 19.56C175.476 19.136 175.64 18.556 175.64 17.82C175.64 17.084 175.476 16.508 175.148 16.092C174.828 15.668 174.376 15.456 173.792 15.456C173.208 15.456 172.752 15.668 172.424 16.092C172.096 16.508 171.932 17.084 171.932 17.82C171.932 18.556 172.096 19.136 172.424 19.56C172.752 19.976 173.208 20.184 173.792 20.184ZM178.069 21V14.64H178.957L179.005 16.248L178.909 16.212C178.989 15.668 179.161 15.272 179.425 15.024C179.697 14.768 180.057 14.64 180.505 14.64H181.129V15.6H180.517C180.197 15.6 179.929 15.66 179.713 15.78C179.505 15.892 179.345 16.064 179.233 16.296C179.129 16.52 179.077 16.808 179.077 17.16V21H178.069ZM184.347 21C183.771 21 183.343 20.868 183.063 20.604C182.791 20.34 182.655 19.928 182.655 19.368V13.152H183.663V19.344C183.663 19.632 183.727 19.832 183.855 19.944C183.983 20.056 184.179 20.112 184.443 20.112H185.355V21H184.347ZM181.719 15.528V14.64H185.355V15.528H181.719ZM186.932 21V14.064C186.932 13.592 187.068 13.212 187.34 12.924C187.612 12.628 188.036 12.48 188.612 12.48H189.62V13.368H188.684C188.436 13.368 188.248 13.436 188.12 13.572C188 13.708 187.94 13.896 187.94 14.136V21H186.932ZM186.068 15.528V14.64H189.536V15.528H186.068ZM192.999 21.144C192.415 21.144 191.903 21.008 191.463 20.736C191.023 20.464 190.683 20.08 190.443 19.584C190.203 19.08 190.083 18.492 190.083 17.82C190.083 17.14 190.203 16.552 190.443 16.056C190.683 15.56 191.023 15.176 191.463 14.904C191.903 14.632 192.415 14.496 192.999 14.496C193.583 14.496 194.091 14.632 194.523 14.904C194.963 15.176 195.303 15.56 195.543 16.056C195.783 16.552 195.903 17.14 195.903 17.82C195.903 18.492 195.783 19.08 195.543 19.584C195.303 20.08 194.963 20.464 194.523 20.736C194.091 21.008 193.583 21.144 192.999 21.144ZM192.999 20.184C193.583 20.184 194.035 19.976 194.355 19.56C194.683 19.136 194.847 18.556 194.847 17.82C194.847 17.084 194.683 16.508 194.355 16.092C194.035 15.668 193.583 15.456 192.999 15.456C192.415 15.456 191.959 15.668 191.631 16.092C191.303 16.508 191.139 17.084 191.139 17.82C191.139 18.556 191.303 19.136 191.631 19.56C191.959 19.976 192.415 20.184 192.999 20.184ZM198.583 21C198.215 21 197.915 20.904 197.683 20.712C197.451 20.52 197.335 20.216 197.335 19.8V12.48H198.343V19.716C198.343 19.844 198.375 19.944 198.439 20.016C198.511 20.08 198.611 20.112 198.739 20.112H199.291V21H198.583ZM200.44 21V14.64H201.448V21H200.44ZM200.416 13.644V12.468H201.472V13.644H200.416ZM205.737 21.144C205.153 21.144 204.641 21.008 204.201 20.736C203.761 20.464 203.421 20.08 203.181 19.584C202.941 19.08 202.821 18.492 202.821 17.82C202.821 17.14 202.941 16.552 203.181 16.056C203.421 15.56 203.761 15.176 204.201 14.904C204.641 14.632 205.153 14.496 205.737 14.496C206.321 14.496 206.829 14.632 207.261 14.904C207.701 15.176 208.041 15.56 208.281 16.056C208.521 16.552 208.641 17.14 208.641 17.82C208.641 18.492 208.521 19.08 208.281 19.584C208.041 20.08 207.701 20.464 207.261 20.736C206.829 21.008 206.321 21.144 205.737 21.144ZM205.737 20.184C206.321 20.184 206.773 19.976 207.093 19.56C207.421 19.136 207.585 18.556 207.585 17.82C207.585 17.084 207.421 16.508 207.093 16.092C206.773 15.668 206.321 15.456 205.737 15.456C205.153 15.456 204.697 15.668 204.369 16.092C204.041 16.508 203.877 17.084 203.877 17.82C203.877 18.556 204.041 19.136 204.369 19.56C204.697 19.976 205.153 20.184 205.737 20.184Z" fill="#171717"/>
</g>
<g filter="url(#filter1_dddd_669_2829)">
<rect x="226" y="4" width="169" height="26" rx="13" fill="white"/>
<path d="M245.333 18.3333H245.34M238.667 13.6667H246.667C247.02 13.6667 247.359 13.8071 247.609 14.0572C247.86 14.3072 248 14.6464 248 15V21.6667C248 22.0203 247.86 22.3594 247.609 22.6095C247.359 22.8595 247.02 23 246.667 23H237.333C236.98 23 236.641 22.8595 236.391 22.6095C236.14 22.3594 236 22.0203 236 21.6667V12.3333C236 11.9797 236.14 11.6406 236.391 11.3905C236.641 11.1405 236.98 11 237.333 11H246.667" stroke="#737373" stroke-width="1.25" stroke-linecap="round" stroke-linejoin="round"/>
<path d="M260.032 21.192C259.376 21.192 258.804 21.068 258.316 20.82C257.828 20.572 257.44 20.232 257.152 19.8C256.872 19.36 256.708 18.852 256.66 18.276L257.74 18.204C257.796 18.628 257.92 18.988 258.112 19.284C258.304 19.58 258.56 19.804 258.88 19.956C259.208 20.108 259.6 20.184 260.056 20.184C260.456 20.184 260.796 20.132 261.076 20.028C261.356 19.924 261.568 19.772 261.712 19.572C261.864 19.372 261.94 19.128 261.94 18.84C261.94 18.576 261.876 18.344 261.748 18.144C261.628 17.936 261.392 17.748 261.04 17.58C260.696 17.404 260.184 17.232 259.504 17.064C258.848 16.896 258.324 16.712 257.932 16.512C257.548 16.312 257.268 16.068 257.092 15.78C256.924 15.492 256.84 15.136 256.84 14.712C256.84 14.232 256.952 13.812 257.176 13.452C257.408 13.084 257.736 12.8 258.16 12.6C258.584 12.392 259.088 12.288 259.672 12.288C260.296 12.288 260.832 12.408 261.28 12.648C261.728 12.88 262.084 13.2 262.348 13.608C262.612 14.016 262.776 14.48 262.84 15L261.76 15.072C261.712 14.728 261.6 14.424 261.424 14.16C261.256 13.888 261.024 13.676 260.728 13.524C260.432 13.372 260.072 13.296 259.648 13.296C259.12 13.296 258.7 13.424 258.388 13.68C258.076 13.928 257.92 14.256 257.92 14.664C257.92 14.928 257.98 15.148 258.1 15.324C258.228 15.492 258.452 15.644 258.772 15.78C259.092 15.908 259.552 16.048 260.152 16.2C260.864 16.376 261.428 16.588 261.844 16.836C262.268 17.076 262.568 17.356 262.744 17.676C262.928 17.996 263.02 18.36 263.02 18.768C263.02 19.264 262.892 19.696 262.636 20.064C262.38 20.424 262.028 20.704 261.58 20.904C261.132 21.096 260.616 21.192 260.032 21.192ZM264.472 21V12.48H265.48V16.044L265.36 16.02C265.44 15.668 265.576 15.38 265.768 15.156C265.96 14.932 266.196 14.768 266.476 14.664C266.756 14.552 267.064 14.496 267.4 14.496C267.856 14.496 268.24 14.6 268.552 14.808C268.872 15.008 269.112 15.292 269.272 15.66C269.44 16.02 269.524 16.436 269.524 16.908V21H268.516V17.196C268.516 16.58 268.404 16.124 268.18 15.828C267.964 15.532 267.632 15.384 267.184 15.384C266.672 15.384 266.26 15.54 265.948 15.852C265.636 16.164 265.48 16.616 265.48 17.208V21H264.472ZM273.788 21.144C273.204 21.144 272.692 21.008 272.252 20.736C271.812 20.464 271.472 20.08 271.232 19.584C270.992 19.08 270.872 18.492 270.872 17.82C270.872 17.14 270.992 16.552 271.232 16.056C271.472 15.56 271.812 15.176 272.252 14.904C272.692 14.632 273.204 14.496 273.788 14.496C274.372 14.496 274.88 14.632 275.312 14.904C275.752 15.176 276.092 15.56 276.332 16.056C276.572 16.552 276.692 17.14 276.692 17.82C276.692 18.492 276.572 19.08 276.332 19.584C276.092 20.08 275.752 20.464 275.312 20.736C274.88 21.008 274.372 21.144 273.788 21.144ZM273.788 20.184C274.372 20.184 274.824 19.976 275.144 19.56C275.472 19.136 275.636 18.556 275.636 17.82C275.636 17.084 275.472 16.508 275.144 16.092C274.824 15.668 274.372 15.456 273.788 15.456C273.204 15.456 272.748 15.668 272.42 16.092C272.092 16.508 271.928 17.084 271.928 17.82C271.928 18.556 272.092 19.136 272.42 19.56C272.748 19.976 273.204 20.184 273.788 20.184ZM279.15 21L277.182 14.64H278.286L279.774 19.944L281.286 14.64H282.366L283.878 19.944L285.378 14.64H286.482L284.514 21H283.242L281.826 16.164L280.41 21H279.15ZM293.026 21.144C292.458 21.144 291.974 21.052 291.574 20.868C291.182 20.684 290.874 20.432 290.65 20.112C290.434 19.784 290.31 19.412 290.278 18.996L291.334 18.924C291.398 19.308 291.562 19.616 291.826 19.848C292.09 20.072 292.49 20.184 293.026 20.184C293.458 20.184 293.802 20.116 294.058 19.98C294.322 19.836 294.454 19.608 294.454 19.296C294.454 19.128 294.414 18.988 294.334 18.876C294.254 18.764 294.098 18.668 293.866 18.588C293.634 18.5 293.29 18.416 292.834 18.336C292.226 18.224 291.746 18.088 291.394 17.928C291.05 17.76 290.802 17.556 290.65 17.316C290.506 17.068 290.434 16.776 290.434 16.44C290.434 15.872 290.642 15.408 291.058 15.048C291.474 14.68 292.066 14.496 292.834 14.496C293.354 14.496 293.79 14.592 294.142 14.784C294.502 14.968 294.782 15.216 294.982 15.528C295.19 15.832 295.326 16.168 295.39 16.536L294.334 16.608C294.286 16.384 294.198 16.188 294.07 16.02C293.942 15.844 293.774 15.708 293.566 15.612C293.358 15.508 293.11 15.456 292.822 15.456C292.366 15.456 292.03 15.544 291.814 15.72C291.598 15.896 291.49 16.12 291.49 16.392C291.49 16.6 291.538 16.772 291.634 16.908C291.738 17.036 291.902 17.144 292.126 17.232C292.35 17.312 292.65 17.384 293.026 17.448C293.674 17.56 294.178 17.696 294.538 17.856C294.898 18.016 295.15 18.212 295.294 18.444C295.438 18.676 295.51 18.96 295.51 19.296C295.51 19.688 295.398 20.024 295.174 20.304C294.958 20.576 294.662 20.784 294.286 20.928C293.918 21.072 293.498 21.144 293.026 21.144ZM296.886 22.8V14.64H297.822L297.846 16.008L297.702 15.936C297.862 15.464 298.126 15.108 298.494 14.868C298.87 14.62 299.302 14.496 299.79 14.496C300.422 14.496 300.938 14.652 301.338 14.964C301.746 15.276 302.046 15.684 302.238 16.188C302.438 16.692 302.538 17.236 302.538 17.82C302.538 18.404 302.438 18.948 302.238 19.452C302.046 19.956 301.746 20.364 301.338 20.676C300.938 20.988 300.422 21.144 299.79 21.144C299.462 21.144 299.154 21.088 298.866 20.976C298.586 20.864 298.346 20.708 298.146 20.508C297.954 20.308 297.822 20.072 297.75 19.8L297.894 19.632V22.8H296.886ZM299.694 20.184C300.246 20.184 300.682 19.976 301.002 19.56C301.322 19.144 301.482 18.564 301.482 17.82C301.482 17.076 301.322 16.496 301.002 16.08C300.682 15.664 300.246 15.456 299.694 15.456C299.326 15.456 299.006 15.544 298.734 15.72C298.47 15.896 298.262 16.16 298.11 16.512C297.966 16.864 297.894 17.3 297.894 17.82C297.894 18.34 297.966 18.776 298.11 19.128C298.254 19.48 298.462 19.744 298.734 19.92C299.006 20.096 299.326 20.184 299.694 20.184ZM306.389 21.144C305.789 21.144 305.269 21.008 304.829 20.736C304.397 20.464 304.061 20.08 303.821 19.584C303.589 19.08 303.473 18.492 303.473 17.82C303.473 17.148 303.589 16.564 303.821 16.068C304.061 15.572 304.393 15.188 304.817 14.916C305.249 14.636 305.757 14.496 306.341 14.496C306.893 14.496 307.381 14.628 307.805 14.892C308.229 15.148 308.557 15.524 308.789 16.02C309.029 16.516 309.149 17.12 309.149 17.832V18.132H304.529C304.569 18.812 304.749 19.324 305.069 19.668C305.397 20.012 305.837 20.184 306.389 20.184C306.805 20.184 307.145 20.088 307.409 19.896C307.681 19.696 307.869 19.436 307.973 19.116L309.053 19.2C308.885 19.768 308.565 20.236 308.093 20.604C307.629 20.964 307.061 21.144 306.389 21.144ZM304.529 17.244H308.045C307.997 16.628 307.817 16.176 307.505 15.888C307.201 15.6 306.813 15.456 306.341 15.456C305.853 15.456 305.449 15.608 305.129 15.912C304.817 16.208 304.617 16.652 304.529 17.244ZM310.515 21V14.64H311.439L311.475 16.26L311.355 16.152C311.435 15.776 311.575 15.468 311.775 15.228C311.975 14.98 312.215 14.796 312.495 14.676C312.783 14.556 313.091 14.496 313.419 14.496C313.907 14.496 314.307 14.604 314.619 14.82C314.939 15.036 315.175 15.328 315.327 15.696C315.487 16.056 315.567 16.46 315.567 16.908V21H314.559V17.196C314.559 16.804 314.511 16.476 314.415 16.212C314.327 15.94 314.183 15.736 313.983 15.6C313.783 15.456 313.523 15.384 313.203 15.384C312.715 15.384 312.311 15.54 311.991 15.852C311.679 16.156 311.523 16.604 311.523 17.196V21H310.515ZM319.603 21.144C319.051 21.144 318.571 21.008 318.163 20.736C317.763 20.464 317.455 20.08 317.239 19.584C317.023 19.088 316.915 18.5 316.915 17.82C316.915 17.14 317.023 16.552 317.239 16.056C317.455 15.56 317.763 15.176 318.163 14.904C318.571 14.632 319.051 14.496 319.603 14.496C320.027 14.496 320.415 14.588 320.767 14.772C321.119 14.948 321.383 15.2 321.559 15.528V12.48H322.567V21H321.655L321.619 20.04C321.443 20.384 321.175 20.656 320.815 20.856C320.455 21.048 320.051 21.144 319.603 21.144ZM319.807 20.184C320.183 20.184 320.499 20.088 320.755 19.896C321.019 19.704 321.219 19.432 321.355 19.08C321.491 18.72 321.559 18.3 321.559 17.82C321.559 17.324 321.491 16.9 321.355 16.548C321.219 16.196 321.019 15.928 320.755 15.744C320.499 15.552 320.183 15.456 319.807 15.456C319.247 15.456 318.799 15.668 318.463 16.092C318.135 16.508 317.971 17.084 317.971 17.82C317.971 18.548 318.135 19.124 318.463 19.548C318.799 19.972 319.247 20.184 319.807 20.184ZM324.249 21V14.64H325.257V21H324.249ZM324.225 13.644V12.468H325.281V13.644H324.225ZM327.296 21V14.64H328.22L328.256 16.26L328.136 16.152C328.216 15.776 328.356 15.468 328.556 15.228C328.756 14.98 328.996 14.796 329.276 14.676C329.564 14.556 329.872 14.496 330.2 14.496C330.688 14.496 331.088 14.604 331.4 14.82C331.72 15.036 331.956 15.328 332.108 15.696C332.268 16.056 332.348 16.46 332.348 16.908V21H331.34V17.196C331.34 16.804 331.292 16.476 331.196 16.212C331.108 15.94 330.964 15.736 330.764 15.6C330.564 15.456 330.304 15.384 329.984 15.384C329.496 15.384 329.092 15.54 328.772 15.852C328.46 16.156 328.304 16.604 328.304 17.196V21H327.296ZM336.54 22.944C336.084 22.944 335.672 22.868 335.304 22.716C334.936 22.564 334.628 22.348 334.38 22.068C334.132 21.788 333.964 21.464 333.876 21.096L334.932 21.024C335.028 21.32 335.196 21.552 335.436 21.72C335.684 21.896 336.052 21.984 336.54 21.984C337.116 21.984 337.556 21.868 337.86 21.636C338.172 21.404 338.328 21.056 338.328 20.592V19.56C338.176 19.896 337.932 20.164 337.596 20.364C337.26 20.564 336.884 20.664 336.468 20.664C335.932 20.664 335.452 20.532 335.028 20.268C334.612 20.004 334.284 19.64 334.044 19.176C333.812 18.712 333.696 18.18 333.696 17.58C333.696 16.972 333.812 16.44 334.044 15.984C334.276 15.52 334.596 15.156 335.004 14.892C335.42 14.628 335.892 14.496 336.42 14.496C336.868 14.496 337.268 14.6 337.62 14.808C337.98 15.016 338.232 15.296 338.376 15.648V14.64H339.336V20.568C339.336 21.064 339.224 21.488 339 21.84C338.776 22.2 338.456 22.472 338.04 22.656C337.624 22.848 337.124 22.944 336.54 22.944ZM336.516 19.704C337.06 19.704 337.496 19.516 337.824 19.14C338.152 18.756 338.32 18.236 338.328 17.58C338.336 17.14 338.264 16.764 338.112 16.452C337.968 16.132 337.756 15.888 337.476 15.72C337.204 15.544 336.884 15.456 336.516 15.456C335.956 15.456 335.52 15.648 335.208 16.032C334.904 16.408 334.752 16.924 334.752 17.58C334.752 18.236 334.908 18.756 335.22 19.14C335.54 19.516 335.972 19.704 336.516 19.704ZM344.253 21V14.64H345.261V21H344.253ZM344.229 13.644V12.468H345.285V13.644H344.229ZM347.3 21V14.64H348.224L348.26 16.26L348.14 16.152C348.22 15.776 348.36 15.468 348.56 15.228C348.76 14.98 349 14.796 349.28 14.676C349.568 14.556 349.876 14.496 350.204 14.496C350.692 14.496 351.092 14.604 351.404 14.82C351.724 15.036 351.96 15.328 352.112 15.696C352.272 16.056 352.352 16.46 352.352 16.908V21H351.344V17.196C351.344 16.804 351.296 16.476 351.2 16.212C351.112 15.94 350.968 15.736 350.768 15.6C350.568 15.456 350.308 15.384 349.988 15.384C349.5 15.384 349.096 15.54 348.776 15.852C348.464 16.156 348.308 16.604 348.308 17.196V21H347.3ZM356.448 21.144C355.88 21.144 355.396 21.052 354.996 20.868C354.604 20.684 354.296 20.432 354.072 20.112C353.856 19.784 353.732 19.412 353.7 18.996L354.756 18.924C354.82 19.308 354.984 19.616 355.248 19.848C355.512 20.072 355.912 20.184 356.448 20.184C356.88 20.184 357.224 20.116 357.48 19.98C357.744 19.836 357.876 19.608 357.876 19.296C357.876 19.128 357.836 18.988 357.756 18.876C357.676 18.764 357.52 18.668 357.288 18.588C357.056 18.5 356.712 18.416 356.256 18.336C355.648 18.224 355.168 18.088 354.816 17.928C354.472 17.76 354.224 17.556 354.072 17.316C353.928 17.068 353.856 16.776 353.856 16.44C353.856 15.872 354.064 15.408 354.48 15.048C354.896 14.68 355.488 14.496 356.256 14.496C356.776 14.496 357.212 14.592 357.564 14.784C357.924 14.968 358.204 15.216 358.404 15.528C358.612 15.832 358.748 16.168 358.812 16.536L357.756 16.608C357.708 16.384 357.62 16.188 357.492 16.02C357.364 15.844 357.196 15.708 356.988 15.612C356.78 15.508 356.532 15.456 356.244 15.456C355.788 15.456 355.452 15.544 355.236 15.72C355.02 15.896 354.912 16.12 354.912 16.392C354.912 16.6 354.96 16.772 355.056 16.908C355.16 17.036 355.324 17.144 355.548 17.232C355.772 17.312 356.072 17.384 356.448 17.448C357.096 17.56 357.6 17.696 357.96 17.856C358.32 18.016 358.572 18.212 358.716 18.444C358.86 18.676 358.932 18.96 358.932 19.296C358.932 19.688 358.82 20.024 358.596 20.304C358.38 20.576 358.084 20.784 357.708 20.928C357.34 21.072 356.92 21.144 356.448 21.144ZM360.308 21V14.64H361.316V21H360.308ZM360.284 13.644V12.468H361.34V13.644H360.284ZM365.532 22.944C365.076 22.944 364.664 22.868 364.296 22.716C363.928 22.564 363.62 22.348 363.372 22.068C363.124 21.788 362.956 21.464 362.868 21.096L363.924 21.024C364.02 21.32 364.188 21.552 364.428 21.72C364.676 21.896 365.044 21.984 365.532 21.984C366.108 21.984 366.548 21.868 366.852 21.636C367.164 21.404 367.32 21.056 367.32 20.592V19.56C367.168 19.896 366.924 20.164 366.588 20.364C366.252 20.564 365.876 20.664 365.46 20.664C364.924 20.664 364.444 20.532 364.02 20.268C363.604 20.004 363.276 19.64 363.036 19.176C362.804 18.712 362.688 18.18 362.688 17.58C362.688 16.972 362.804 16.44 363.036 15.984C363.268 15.52 363.588 15.156 363.996 14.892C364.412 14.628 364.884 14.496 365.412 14.496C365.86 14.496 366.26 14.6 366.612 14.808C366.972 15.016 367.224 15.296 367.368 15.648V14.64H368.328V20.568C368.328 21.064 368.216 21.488 367.992 21.84C367.768 22.2 367.448 22.472 367.032 22.656C366.616 22.848 366.116 22.944 365.532 22.944ZM365.508 19.704C366.052 19.704 366.488 19.516 366.816 19.14C367.144 18.756 367.312 18.236 367.32 17.58C367.328 17.14 367.256 16.764 367.104 16.452C366.96 16.132 366.748 15.888 366.468 15.72C366.196 15.544 365.876 15.456 365.508 15.456C364.948 15.456 364.512 15.648 364.2 16.032C363.896 16.408 363.744 16.924 363.744 17.58C363.744 18.236 363.9 18.756 364.212 19.14C364.532 19.516 364.964 19.704 365.508 19.704ZM370.069 21V12.48H371.077V16.044L370.957 16.02C371.037 15.668 371.173 15.38 371.365 15.156C371.557 14.932 371.793 14.768 372.073 14.664C372.353 14.552 372.661 14.496 372.997 14.496C373.453 14.496 373.837 14.6 374.149 14.808C374.469 15.008 374.709 15.292 374.869 15.66C375.037 16.02 375.121 16.436 375.121 16.908V21H374.113V17.196C374.113 16.58 374.001 16.124 373.777 15.828C373.561 15.532 373.229 15.384 372.781 15.384C372.269 15.384 371.857 15.54 371.545 15.852C371.233 16.164 371.077 16.616 371.077 17.208V21H370.069ZM378.89 21C378.314 21 377.886 20.868 377.606 20.604C377.334 20.34 377.198 19.928 377.198 19.368V13.152H378.206V19.344C378.206 19.632 378.27 19.832 378.398 19.944C378.526 20.056 378.722 20.112 378.986 20.112H379.898V21H378.89ZM376.262 15.528V14.64H379.898V15.528H376.262ZM383.389 21.144C382.821 21.144 382.337 21.052 381.937 20.868C381.545 20.684 381.237 20.432 381.013 20.112C380.797 19.784 380.673 19.412 380.641 18.996L381.697 18.924C381.761 19.308 381.925 19.616 382.189 19.848C382.453 20.072 382.853 20.184 383.389 20.184C383.821 20.184 384.165 20.116 384.421 19.98C384.685 19.836 384.817 19.608 384.817 19.296C384.817 19.128 384.777 18.988 384.697 18.876C384.617 18.764 384.461 18.668 384.229 18.588C383.997 18.5 383.653 18.416 383.197 18.336C382.589 18.224 382.109 18.088 381.757 17.928C381.413 17.76 381.165 17.556 381.013 17.316C380.869 17.068 380.797 16.776 380.797 16.44C380.797 15.872 381.005 15.408 381.421 15.048C381.837 14.68 382.429 14.496 383.197 14.496C383.717 14.496 384.153 14.592 384.505 14.784C384.865 14.968 385.145 15.216 385.345 15.528C385.553 15.832 385.689 16.168 385.753 16.536L384.697 16.608C384.649 16.384 384.561 16.188 384.433 16.02C384.305 15.844 384.137 15.708 383.929 15.612C383.721 15.508 383.473 15.456 383.185 15.456C382.729 15.456 382.393 15.544 382.177 15.72C381.961 15.896 381.853 16.12 381.853 16.392C381.853 16.6 381.901 16.772 381.997 16.908C382.101 17.036 382.265 17.144 382.489 17.232C382.713 17.312 383.013 17.384 383.389 17.448C384.037 17.56 384.541 17.696 384.901 17.856C385.261 18.016 385.513 18.212 385.657 18.444C385.801 18.676 385.873 18.96 385.873 19.296C385.873 19.688 385.761 20.024 385.537 20.304C385.321 20.576 385.025 20.784 384.649 20.928C384.281 21.072 383.861 21.144 383.389 21.144Z" fill="#171717"/>
</g>
<g filter="url(#filter2_dddd_669_2829)">
<rect x="403" y="4" width="150" height="26" rx="13" fill="white"/>
<path d="M419 15.0002V17.6668M419 20.3335H419.007M425.487 21.0002L420.154 11.6668C420.037 11.4616 419.869 11.291 419.665 11.1722C419.461 11.0535 419.23 10.9909 418.994 10.9909C418.758 10.9909 418.526 11.0535 418.322 11.1722C418.119 11.291 417.95 11.4616 417.834 11.6668L412.5 21.0002C412.383 21.2037 412.321 21.4348 412.322 21.6698C412.322 21.9049 412.385 22.1357 412.503 22.3387C412.622 22.5418 412.792 22.7099 412.996 22.8261C413.201 22.9422 413.432 23.0023 413.667 23.0002H424.334C424.568 22.9999 424.797 22.9381 425 22.821C425.202 22.7039 425.371 22.5356 425.487 22.3329C425.604 22.1303 425.666 21.9004 425.666 21.6665C425.666 21.4326 425.604 21.2028 425.487 21.0002Z" stroke="#737373" stroke-width="1.25" stroke-linecap="round" stroke-linejoin="round"/>
<path d="M434.104 21V12.48H439.456V13.488H434.62L435.136 12.96V16.872L434.62 16.344H439.24V17.328H434.62L435.136 16.8V21H434.104ZM440.804 21V14.64H441.812V21H440.804ZM440.78 13.644V12.468H441.836V13.644H440.78ZM443.851 21V14.64H444.775L444.811 16.26L444.691 16.152C444.771 15.776 444.911 15.468 445.111 15.228C445.311 14.98 445.551 14.796 445.831 14.676C446.119 14.556 446.427 14.496 446.755 14.496C447.243 14.496 447.643 14.604 447.955 14.82C448.275 15.036 448.511 15.328 448.663 15.696C448.823 16.056 448.903 16.46 448.903 16.908V21H447.895V17.196C447.895 16.804 447.847 16.476 447.751 16.212C447.663 15.94 447.519 15.736 447.319 15.6C447.119 15.456 446.859 15.384 446.539 15.384C446.051 15.384 445.647 15.54 445.327 15.852C445.015 16.156 444.859 16.604 444.859 17.196V21H443.851ZM452.939 21.144C452.387 21.144 451.907 21.008 451.499 20.736C451.099 20.464 450.791 20.08 450.575 19.584C450.359 19.088 450.251 18.5 450.251 17.82C450.251 17.14 450.359 16.552 450.575 16.056C450.791 15.56 451.099 15.176 451.499 14.904C451.907 14.632 452.387 14.496 452.939 14.496C453.363 14.496 453.751 14.588 454.103 14.772C454.455 14.948 454.719 15.2 454.895 15.528V12.48H455.903V21H454.991L454.955 20.04C454.779 20.384 454.511 20.656 454.151 20.856C453.791 21.048 453.387 21.144 452.939 21.144ZM453.143 20.184C453.519 20.184 453.835 20.088 454.091 19.896C454.355 19.704 454.555 19.432 454.691 19.08C454.827 18.72 454.895 18.3 454.895 17.82C454.895 17.324 454.827 16.9 454.691 16.548C454.555 16.196 454.355 15.928 454.091 15.744C453.835 15.552 453.519 15.456 453.143 15.456C452.583 15.456 452.135 15.668 451.799 16.092C451.471 16.508 451.307 17.084 451.307 17.82C451.307 18.548 451.471 19.124 451.799 19.548C452.135 19.972 452.583 20.184 453.143 20.184ZM462.907 21.144C462.275 21.144 461.767 20.932 461.383 20.508C461.007 20.076 460.819 19.484 460.819 18.732V14.64H461.827V18.456C461.827 19.072 461.935 19.528 462.151 19.824C462.375 20.112 462.715 20.256 463.171 20.256C463.675 20.256 464.071 20.096 464.359 19.776C464.647 19.448 464.791 19 464.791 18.432V14.64H465.799V21H464.839V19.428L464.995 19.512C464.867 20.032 464.623 20.436 464.263 20.724C463.903 21.004 463.451 21.144 462.907 21.144ZM467.722 21V14.64H468.646L468.682 16.26L468.562 16.152C468.642 15.776 468.782 15.468 468.982 15.228C469.182 14.98 469.422 14.796 469.702 14.676C469.99 14.556 470.298 14.496 470.626 14.496C471.114 14.496 471.514 14.604 471.826 14.82C472.146 15.036 472.382 15.328 472.534 15.696C472.694 16.056 472.774 16.46 472.774 16.908V21H471.766V17.196C471.766 16.804 471.718 16.476 471.622 16.212C471.534 15.94 471.39 15.736 471.19 15.6C470.99 15.456 470.73 15.384 470.41 15.384C469.922 15.384 469.518 15.54 469.198 15.852C468.886 16.156 468.73 16.604 468.73 17.196V21H467.722ZM476.607 21.144C475.975 21.144 475.467 20.932 475.083 20.508C474.707 20.076 474.519 19.484 474.519 18.732V14.64H475.527V18.456C475.527 19.072 475.635 19.528 475.851 19.824C476.075 20.112 476.415 20.256 476.871 20.256C477.375 20.256 477.771 20.096 478.059 19.776C478.347 19.448 478.491 19 478.491 18.432V14.64H479.499V21H478.539V19.428L478.695 19.512C478.567 20.032 478.323 20.436 477.963 20.724C477.603 21.004 477.151 21.144 476.607 21.144ZM483.62 21.144C483.052 21.144 482.568 21.052 482.168 20.868C481.776 20.684 481.468 20.432 481.244 20.112C481.028 19.784 480.904 19.412 480.872 18.996L481.928 18.924C481.992 19.308 482.156 19.616 482.42 19.848C482.684 20.072 483.084 20.184 483.62 20.184C484.052 20.184 484.396 20.116 484.652 19.98C484.916 19.836 485.048 19.608 485.048 19.296C485.048 19.128 485.008 18.988 484.928 18.876C484.848 18.764 484.692 18.668 484.46 18.588C484.228 18.5 483.884 18.416 483.428 18.336C482.82 18.224 482.34 18.088 481.988 17.928C481.644 17.76 481.396 17.556 481.244 17.316C481.1 17.068 481.028 16.776 481.028 16.44C481.028 15.872 481.236 15.408 481.652 15.048C482.068 14.68 482.66 14.496 483.428 14.496C483.948 14.496 484.384 14.592 484.736 14.784C485.096 14.968 485.376 15.216 485.576 15.528C485.784 15.832 485.92 16.168 485.984 16.536L484.928 16.608C484.88 16.384 484.792 16.188 484.664 16.02C484.536 15.844 484.368 15.708 484.16 15.612C483.952 15.508 483.704 15.456 483.416 15.456C482.96 15.456 482.624 15.544 482.408 15.72C482.192 15.896 482.084 16.12 482.084 16.392C482.084 16.6 482.132 16.772 482.228 16.908C482.332 17.036 482.496 17.144 482.72 17.232C482.944 17.312 483.244 17.384 483.62 17.448C484.268 17.56 484.772 17.696 485.132 17.856C485.492 18.016 485.744 18.212 485.888 18.444C486.032 18.676 486.104 18.96 486.104 19.296C486.104 19.688 485.992 20.024 485.768 20.304C485.552 20.576 485.256 20.784 484.88 20.928C484.512 21.072 484.092 21.144 483.62 21.144ZM489.36 21.144C488.704 21.144 488.18 20.992 487.788 20.688C487.404 20.384 487.212 19.96 487.212 19.416C487.212 18.872 487.372 18.444 487.692 18.132C488.012 17.82 488.52 17.6 489.216 17.472L491.472 17.052C491.472 16.516 491.344 16.116 491.088 15.852C490.84 15.588 490.464 15.456 489.96 15.456C489.52 15.456 489.172 15.556 488.916 15.756C488.66 15.948 488.484 16.228 488.388 16.596L487.32 16.512C487.44 15.912 487.728 15.428 488.184 15.06C488.648 14.684 489.24 14.496 489.96 14.496C490.776 14.496 491.4 14.728 491.832 15.192C492.264 15.648 492.48 16.28 492.48 17.088V19.716C492.48 19.86 492.504 19.964 492.552 20.028C492.608 20.084 492.696 20.112 492.816 20.112H493.068V21C493.036 21.008 492.984 21.012 492.912 21.012C492.84 21.02 492.764 21.024 492.684 21.024C492.396 21.024 492.16 20.98 491.976 20.892C491.8 20.796 491.672 20.652 491.592 20.46C491.512 20.26 491.472 20 491.472 19.68L491.592 19.704C491.536 19.976 491.4 20.224 491.184 20.448C490.968 20.664 490.7 20.836 490.38 20.964C490.06 21.084 489.72 21.144 489.36 21.144ZM489.456 20.256C489.88 20.256 490.24 20.176 490.536 20.016C490.84 19.848 491.072 19.624 491.232 19.344C491.392 19.056 491.472 18.736 491.472 18.384V17.928L489.408 18.312C488.976 18.392 488.676 18.516 488.508 18.684C488.348 18.844 488.268 19.056 488.268 19.32C488.268 19.616 488.372 19.848 488.58 20.016C488.796 20.176 489.088 20.256 489.456 20.256ZM495.384 21C495.016 21 494.716 20.904 494.484 20.712C494.252 20.52 494.136 20.216 494.136 19.8V12.48H495.144V19.716C495.144 19.844 495.176 19.944 495.24 20.016C495.312 20.08 495.412 20.112 495.54 20.112H496.092V21H495.384ZM500.335 22.8V14.64H501.271L501.295 16.008L501.151 15.936C501.311 15.464 501.575 15.108 501.943 14.868C502.319 14.62 502.751 14.496 503.239 14.496C503.871 14.496 504.387 14.652 504.787 14.964C505.195 15.276 505.495 15.684 505.687 16.188C505.887 16.692 505.987 17.236 505.987 17.82C505.987 18.404 505.887 18.948 505.687 19.452C505.495 19.956 505.195 20.364 504.787 20.676C504.387 20.988 503.871 21.144 503.239 21.144C502.911 21.144 502.603 21.088 502.315 20.976C502.035 20.864 501.795 20.708 501.595 20.508C501.403 20.308 501.271 20.072 501.199 19.8L501.343 19.632V22.8H500.335ZM503.143 20.184C503.695 20.184 504.131 19.976 504.451 19.56C504.771 19.144 504.931 18.564 504.931 17.82C504.931 17.076 504.771 16.496 504.451 16.08C504.131 15.664 503.695 15.456 503.143 15.456C502.775 15.456 502.455 15.544 502.183 15.72C501.919 15.896 501.711 16.16 501.559 16.512C501.415 16.864 501.343 17.3 501.343 17.82C501.343 18.34 501.415 18.776 501.559 19.128C501.703 19.48 501.911 19.744 502.183 19.92C502.455 20.096 502.775 20.184 503.143 20.184ZM509.235 21.144C508.579 21.144 508.055 20.992 507.663 20.688C507.279 20.384 507.087 19.96 507.087 19.416C507.087 18.872 507.247 18.444 507.567 18.132C507.887 17.82 508.395 17.6 509.091 17.472L511.347 17.052C511.347 16.516 511.219 16.116 510.963 15.852C510.715 15.588 510.339 15.456 509.835 15.456C509.395 15.456 509.047 15.556 508.791 15.756C508.535 15.948 508.359 16.228 508.263 16.596L507.195 16.512C507.315 15.912 507.603 15.428 508.059 15.06C508.523 14.684 509.115 14.496 509.835 14.496C510.651 14.496 511.275 14.728 511.707 15.192C512.139 15.648 512.355 16.28 512.355 17.088V19.716C512.355 19.86 512.379 19.964 512.427 20.028C512.483 20.084 512.571 20.112 512.691 20.112H512.943V21C512.911 21.008 512.859 21.012 512.787 21.012C512.715 21.02 512.639 21.024 512.559 21.024C512.271 21.024 512.035 20.98 511.851 20.892C511.675 20.796 511.547 20.652 511.467 20.46C511.387 20.26 511.347 20 511.347 19.68L511.467 19.704C511.411 19.976 511.275 20.224 511.059 20.448C510.843 20.664 510.575 20.836 510.255 20.964C509.935 21.084 509.595 21.144 509.235 21.144ZM509.331 20.256C509.755 20.256 510.115 20.176 510.411 20.016C510.715 19.848 510.947 19.624 511.107 19.344C511.267 19.056 511.347 18.736 511.347 18.384V17.928L509.283 18.312C508.851 18.392 508.551 18.516 508.383 18.684C508.223 18.844 508.143 19.056 508.143 19.32C508.143 19.616 508.247 19.848 508.455 20.016C508.671 20.176 508.963 20.256 509.331 20.256ZM516.093 21C515.517 21 515.089 20.868 514.809 20.604C514.537 20.34 514.401 19.928 514.401 19.368V13.152H515.409V19.344C515.409 19.632 515.473 19.832 515.601 19.944C515.729 20.056 515.925 20.112 516.189 20.112H517.101V21H516.093ZM513.465 15.528V14.64H517.101V15.528H513.465ZM519.705 21C519.129 21 518.701 20.868 518.421 20.604C518.149 20.34 518.013 19.928 518.013 19.368V13.152H519.021V19.344C519.021 19.632 519.085 19.832 519.213 19.944C519.341 20.056 519.537 20.112 519.801 20.112H520.713V21H519.705ZM517.077 15.528V14.64H520.713V15.528H517.077ZM524.382 21.144C523.782 21.144 523.262 21.008 522.822 20.736C522.39 20.464 522.054 20.08 521.814 19.584C521.582 19.08 521.466 18.492 521.466 17.82C521.466 17.148 521.582 16.564 521.814 16.068C522.054 15.572 522.386 15.188 522.81 14.916C523.242 14.636 523.75 14.496 524.334 14.496C524.886 14.496 525.374 14.628 525.798 14.892C526.222 15.148 526.55 15.524 526.782 16.02C527.022 16.516 527.142 17.12 527.142 17.832V18.132H522.521C522.562 18.812 522.742 19.324 523.062 19.668C523.39 20.012 523.83 20.184 524.382 20.184C524.798 20.184 525.138 20.088 525.402 19.896C525.674 19.696 525.862 19.436 525.966 19.116L527.046 19.2C526.878 19.768 526.558 20.236 526.086 20.604C525.622 20.964 525.054 21.144 524.382 21.144ZM522.521 17.244H526.038C525.99 16.628 525.81 16.176 525.498 15.888C525.194 15.6 524.806 15.456 524.334 15.456C523.846 15.456 523.442 15.608 523.122 15.912C522.81 16.208 522.61 16.652 522.521 17.244ZM528.507 21V14.64H529.395L529.443 16.248L529.347 16.212C529.427 15.668 529.599 15.272 529.863 15.024C530.135 14.768 530.495 14.64 530.943 14.64H531.567V15.6H530.955C530.635 15.6 530.367 15.66 530.151 15.78C529.943 15.892 529.783 16.064 529.671 16.296C529.567 16.52 529.515 16.808 529.515 17.16V21H528.507ZM532.573 21V14.64H533.497L533.533 16.26L533.413 16.152C533.493 15.776 533.633 15.468 533.833 15.228C534.033 14.98 534.273 14.796 534.553 14.676C534.841 14.556 535.149 14.496 535.477 14.496C535.965 14.496 536.365 14.604 536.677 14.82C536.997 15.036 537.233 15.328 537.385 15.696C537.545 16.056 537.625 16.46 537.625 16.908V21H536.617V17.196C536.617 16.804 536.569 16.476 536.473 16.212C536.385 15.94 536.241 15.736 536.041 15.6C535.841 15.456 535.581 15.384 535.261 15.384C534.773 15.384 534.369 15.54 534.049 15.852C533.737 16.156 533.581 16.604 533.581 17.196V21H532.573ZM541.721 21.144C541.153 21.144 540.669 21.052 540.269 20.868C539.877 20.684 539.569 20.432 539.345 20.112C539.129 19.784 539.005 19.412 538.973 18.996L540.029 18.924C540.093 19.308 540.257 19.616 540.521 19.848C540.785 20.072 541.185 20.184 541.721 20.184C542.153 20.184 542.497 20.116 542.753 19.98C543.017 19.836 543.149 19.608 543.149 19.296C543.149 19.128 543.109 18.988 543.029 18.876C542.949 18.764 542.793 18.668 542.561 18.588C542.329 18.5 541.985 18.416 541.529 18.336C540.921 18.224 540.441 18.088 540.089 17.928C539.745 17.76 539.497 17.556 539.345 17.316C539.201 17.068 539.129 16.776 539.129 16.44C539.129 15.872 539.337 15.408 539.753 15.048C540.169 14.68 540.761 14.496 541.529 14.496C542.049 14.496 542.485 14.592 542.837 14.784C543.197 14.968 543.477 15.216 543.677 15.528C543.885 15.832 544.021 16.168 544.085 16.536L543.029 16.608C542.981 16.384 542.893 16.188 542.765 16.02C542.637 15.844 542.469 15.708 542.261 15.612C542.053 15.508 541.805 15.456 541.517 15.456C541.061 15.456 540.725 15.544 540.509 15.72C540.293 15.896 540.185 16.12 540.185 16.392C540.185 16.6 540.233 16.772 540.329 16.908C540.433 17.036 540.597 17.144 540.821 17.232C541.045 17.312 541.345 17.384 541.721 17.448C542.369 17.56 542.873 17.696 543.233 17.856C543.593 18.016 543.845 18.212 543.989 18.444C544.133 18.676 544.205 18.96 544.205 19.296C544.205 19.688 544.093 20.024 543.869 20.304C543.653 20.576 543.357 20.784 542.981 20.928C542.613 21.072 542.193 21.144 541.721 21.144Z" fill="#171717"/>
</g>
<g filter="url(#filter3_ddddd_669_2829)">
<rect x="19" y="50" width="534" height="128" rx="12" fill="white"/>
<path d="M31.28 79L34.864 69.06H36.488L40.072 79H38.756L37.762 76.172H33.59L32.596 79H31.28ZM33.996 74.996H37.356L35.676 70.11L33.996 74.996ZM43.9275 79.168C43.2648 79.168 42.7001 79.0607 42.2335 78.846C41.7761 78.6313 41.4168 78.3373 41.1555 77.964C40.9035 77.5813 40.7588 77.1473 40.7215 76.662L41.9535 76.578C42.0281 77.026 42.2195 77.3853 42.5275 77.656C42.8355 77.9173 43.3021 78.048 43.9275 78.048C44.4315 78.048 44.8328 77.9687 45.1315 77.81C45.4395 77.642 45.5935 77.376 45.5935 77.012C45.5935 76.816 45.5468 76.6527 45.4535 76.522C45.3601 76.3913 45.1781 76.2793 44.9075 76.186C44.6368 76.0833 44.2355 75.9853 43.7035 75.892C42.9941 75.7613 42.4341 75.6027 42.0235 75.416C41.6221 75.22 41.3328 74.982 41.1555 74.702C40.9875 74.4127 40.9035 74.072 40.9035 73.68C40.9035 73.0173 41.1461 72.476 41.6315 72.056C42.1168 71.6267 42.8075 71.412 43.7035 71.412C44.3101 71.412 44.8188 71.524 45.2295 71.748C45.6495 71.9627 45.9761 72.252 46.2095 72.616C46.4521 72.9707 46.6108 73.3627 46.6855 73.792L45.4535 73.876C45.3975 73.6147 45.2948 73.386 45.1455 73.19C44.9961 72.9847 44.8001 72.826 44.5575 72.714C44.3148 72.5927 44.0255 72.532 43.6895 72.532C43.1575 72.532 42.7655 72.6347 42.5135 72.84C42.2615 73.0453 42.1355 73.3067 42.1355 73.624C42.1355 73.8667 42.1915 74.0673 42.3035 74.226C42.4248 74.3753 42.6161 74.5013 42.8775 74.604C43.1388 74.6973 43.4888 74.7813 43.9275 74.856C44.6835 74.9867 45.2715 75.1453 45.6915 75.332C46.1115 75.5187 46.4055 75.7473 46.5735 76.018C46.7415 76.2887 46.8255 76.62 46.8255 77.012C46.8255 77.4693 46.6948 77.8613 46.4335 78.188C46.1815 78.5053 45.8361 78.748 45.3975 78.916C44.9681 79.084 44.4781 79.168 43.9275 79.168ZM48.4305 79V69.06H49.6065V75.57L53.2185 71.58H54.7865L51.8605 74.73L54.9125 79H53.4845L51.0625 75.528L49.6065 77.068V79H48.4305ZM62.1904 79.168C61.425 79.168 60.8137 78.9907 60.3564 78.636C59.9084 78.2813 59.6844 77.7867 59.6844 77.152C59.6844 76.5173 59.871 76.018 60.2444 75.654C60.6177 75.29 61.2104 75.0333 62.0224 74.884L64.6544 74.394C64.6544 73.7687 64.505 73.302 64.2064 72.994C63.917 72.686 63.4784 72.532 62.8904 72.532C62.377 72.532 61.971 72.6487 61.6724 72.882C61.3737 73.106 61.1684 73.4327 61.0564 73.862L59.8104 73.764C59.9504 73.064 60.2864 72.4993 60.8184 72.07C61.3597 71.6313 62.0504 71.412 62.8904 71.412C63.8424 71.412 64.5704 71.6827 65.0744 72.224C65.5784 72.756 65.8304 73.4933 65.8304 74.436V77.502C65.8304 77.67 65.8584 77.7913 65.9144 77.866C65.9797 77.9313 66.0824 77.964 66.2224 77.964H66.5164V79C66.479 79.0093 66.4184 79.014 66.3344 79.014C66.2504 79.0233 66.1617 79.028 66.0684 79.028C65.7324 79.028 65.457 78.9767 65.2424 78.874C65.037 78.762 64.8877 78.594 64.7944 78.37C64.701 78.1367 64.6544 77.8333 64.6544 77.46L64.7944 77.488C64.729 77.8053 64.5704 78.0947 64.3184 78.356C64.0664 78.608 63.7537 78.8087 63.3804 78.958C63.007 79.098 62.6104 79.168 62.1904 79.168ZM62.3024 78.132C62.797 78.132 63.217 78.0387 63.5624 77.852C63.917 77.656 64.1877 77.3947 64.3744 77.068C64.561 76.732 64.6544 76.3587 64.6544 75.948V75.416L62.2464 75.864C61.7424 75.9573 61.3924 76.102 61.1964 76.298C61.0097 76.4847 60.9164 76.732 60.9164 77.04C60.9164 77.3853 61.0377 77.656 61.2804 77.852C61.5324 78.0387 61.873 78.132 62.3024 78.132ZM67.8446 79V71.58H68.9226L68.9646 73.47L68.8246 73.344C68.9179 72.9053 69.0813 72.546 69.3146 72.266C69.5479 71.9767 69.8279 71.762 70.1546 71.622C70.4906 71.482 70.8499 71.412 71.2326 71.412C71.8019 71.412 72.2686 71.538 72.6326 71.79C73.0059 72.042 73.2813 72.3827 73.4586 72.812C73.6453 73.232 73.7386 73.7033 73.7386 74.226V79H72.5626V74.562C72.5626 74.1047 72.5066 73.722 72.3946 73.414C72.2919 73.0967 72.1239 72.8587 71.8906 72.7C71.6573 72.532 71.3539 72.448 70.9806 72.448C70.4113 72.448 69.9399 72.63 69.5666 72.994C69.2026 73.3487 69.0206 73.8713 69.0206 74.562V79H67.8446ZM75.8229 81.1V80.064H76.6769C76.9382 80.064 77.1295 80.022 77.2509 79.938C77.3815 79.8633 77.4795 79.7373 77.5449 79.56L77.8109 78.86H77.4049L74.6889 71.58H75.9769L78.1889 77.768L80.3029 71.58H81.5909L78.5809 79.938C78.4409 80.3393 78.2309 80.6333 77.9509 80.82C77.6709 81.0067 77.2835 81.1 76.7889 81.1H75.8229ZM85.3946 79C84.7226 79 84.2233 78.846 83.8966 78.538C83.5793 78.23 83.4206 77.7493 83.4206 77.096V69.844H84.5966V77.068C84.5966 77.404 84.6713 77.6373 84.8206 77.768C84.9699 77.8987 85.1986 77.964 85.5066 77.964H86.5706V79H85.3946ZM82.3286 72.616V71.58H86.5706V72.616H82.3286ZM88.079 79V69.06H89.255V73.218L89.115 73.19C89.2083 72.7793 89.367 72.4433 89.591 72.182C89.815 71.9207 90.0903 71.7293 90.417 71.608C90.7437 71.4773 91.103 71.412 91.495 71.412C92.027 71.412 92.475 71.5333 92.839 71.776C93.2123 72.0093 93.4923 72.3407 93.679 72.77C93.875 73.19 93.973 73.6753 93.973 74.226V79H92.797V74.562C92.797 73.8433 92.6663 73.3113 92.405 72.966C92.153 72.6207 91.7657 72.448 91.243 72.448C90.6457 72.448 90.165 72.63 89.801 72.994C89.437 73.358 89.255 73.8853 89.255 74.576V79H88.079ZM96.077 79V71.58H97.253V79H96.077ZM96.049 70.418V69.046H97.281V70.418H96.049ZM99.6317 79V71.58H100.71L100.752 73.47L100.612 73.344C100.705 72.9053 100.868 72.546 101.102 72.266C101.335 71.9767 101.615 71.762 101.942 71.622C102.278 71.482 102.637 71.412 103.02 71.412C103.589 71.412 104.056 71.538 104.42 71.79C104.793 72.042 105.068 72.3827 105.246 72.812C105.432 73.232 105.526 73.7033 105.526 74.226V79H104.35V74.562C104.35 74.1047 104.294 73.722 104.182 73.414C104.079 73.0967 103.911 72.8587 103.678 72.7C103.444 72.532 103.141 72.448 102.768 72.448C102.198 72.448 101.727 72.63 101.354 72.994C100.99 73.3487 100.808 73.8713 100.808 74.562V79H99.6317ZM110.416 81.268C109.884 81.268 109.404 81.1793 108.974 81.002C108.545 80.8247 108.186 80.5727 107.896 80.246C107.607 79.9193 107.411 79.5413 107.308 79.112L108.54 79.028C108.652 79.3733 108.848 79.644 109.128 79.84C109.418 80.0453 109.847 80.148 110.416 80.148C111.088 80.148 111.602 80.0127 111.956 79.742C112.32 79.4713 112.502 79.0653 112.502 78.524V77.32C112.325 77.712 112.04 78.0247 111.648 78.258C111.256 78.4913 110.818 78.608 110.332 78.608C109.707 78.608 109.147 78.454 108.652 78.146C108.167 77.838 107.784 77.4133 107.504 76.872C107.234 76.3307 107.098 75.71 107.098 75.01C107.098 74.3007 107.234 73.68 107.504 73.148C107.775 72.6067 108.148 72.182 108.624 71.874C109.11 71.566 109.66 71.412 110.276 71.412C110.799 71.412 111.266 71.5333 111.676 71.776C112.096 72.0187 112.39 72.3453 112.558 72.756V71.58H113.678V78.496C113.678 79.0747 113.548 79.5693 113.286 79.98C113.025 80.4 112.652 80.7173 112.166 80.932C111.681 81.156 111.098 81.268 110.416 81.268ZM110.388 77.488C111.023 77.488 111.532 77.2687 111.914 76.83C112.297 76.382 112.493 75.7753 112.502 75.01C112.512 74.4967 112.428 74.058 112.25 73.694C112.082 73.3207 111.835 73.036 111.508 72.84C111.191 72.6347 110.818 72.532 110.388 72.532C109.735 72.532 109.226 72.756 108.862 73.204C108.508 73.6427 108.33 74.2447 108.33 75.01C108.33 75.7753 108.512 76.382 108.876 76.83C109.25 77.2687 109.754 77.488 110.388 77.488ZM118.911 79V77.418H120.493V79H118.911ZM121.727 79V77.418H123.309V79H121.727ZM124.544 79V77.418H126.126V79H124.544Z" fill="#737373"/>
<path d="M37.1665 156H48.8332M42.9998 150.167V161.833" stroke="#737373" stroke-width="1.5" stroke-linecap="round" stroke-linejoin="round"/>
<path d="M81.5 151V161C81.5 161.494 81.6466 161.978 81.9213 162.389C82.196 162.8 82.5865 163.12 83.0433 163.31C83.5001 163.499 84.0028 163.548 84.4877 163.452C84.9727 163.356 85.4181 163.117 85.7678 162.768C86.1174 162.418 86.3555 161.973 86.452 161.488C86.5484 161.003 86.4989 160.5 86.3097 160.043C86.1205 159.586 85.8 159.196 85.3889 158.921C84.9778 158.647 84.4945 158.5 84 158.5H74C73.5055 158.5 73.0222 158.647 72.6111 158.921C72.2 159.196 71.8795 159.586 71.6903 160.043C71.5011 160.5 71.4516 161.003 71.548 161.488C71.6445 161.973 71.8826 162.418 72.2322 162.768C72.5819 163.117 73.0273 163.356 73.5123 163.452C73.9972 163.548 74.4999 163.499 74.9567 163.31C75.4135 163.12 75.804 162.8 76.0787 162.389C76.3534 161.978 76.5 161.494 76.5 161V151C76.5 150.506 76.3534 150.022 76.0787 149.611C75.804 149.2 75.4135 148.88 74.9567 148.69C74.4999 148.501 73.9972 148.452 73.5123 148.548C73.0273 148.645 72.5819 148.883 72.2322 149.232C71.8826 149.582 71.6445 150.027 71.548 150.512C71.4516 150.997 71.5011 151.5 71.6903 151.957C71.8795 152.414 72.2 152.804 72.6111 153.079C73.0222 153.353 73.5055 153.5 74 153.5H84C84.4945 153.5 84.9778 153.353 85.3889 153.079C85.8 152.804 86.1205 152.414 86.3097 151.957C86.4989 151.5 86.5484 150.997 86.452 150.512C86.3555 150.027 86.1174 149.582 85.7678 149.232C85.4181 148.883 84.9727 148.645 84.4877 148.548C84.0028 148.452 83.5001 148.501 83.0433 148.69C82.5865 148.88 82.196 149.2 81.9213 149.611C81.6466 150.022 81.5 150.506 81.5 151Z" stroke="#737373" stroke-width="1.5" stroke-linecap="round" stroke-linejoin="round"/>
<g clip-path="url(#clip0_669_2829)">
<path d="M118.333 152.667V156.833C118.333 157.496 118.597 158.132 119.065 158.601C119.534 159.07 120.17 159.333 120.833 159.333C121.496 159.333 122.132 159.07 122.601 158.601C123.07 158.132 123.333 157.496 123.333 156.833V156C123.333 154.123 122.699 152.301 121.534 150.829C120.369 149.356 118.741 148.321 116.914 147.89C115.087 147.458 113.168 147.657 111.468 148.452C109.768 149.248 108.386 150.594 107.546 152.273C106.707 153.952 106.459 155.866 106.842 157.703C107.226 159.541 108.219 161.195 109.66 162.398C111.102 163.601 112.907 164.282 114.783 164.331C116.66 164.379 118.498 163.793 120 162.667M118.333 156C118.333 157.841 116.841 159.333 115 159.333C113.159 159.333 111.667 157.841 111.667 156C111.667 154.159 113.159 152.667 115 152.667C116.841 152.667 118.333 154.159 118.333 156Z" stroke="#737373" stroke-width="1.5" stroke-linecap="round" stroke-linejoin="round"/>
</g>
<path d="M146.999 147.833L147.666 150.25M145.249 152.667L142.833 152M152.666 149.417L150.999 151M145.999 156L144.416 157.667M148.499 153.5L152.666 163.5L154.166 159.167L158.499 157.667L148.499 153.5Z" stroke="#737373" stroke-width="1.5" stroke-linecap="round" stroke-linejoin="round"/>
<rect x="513" y="140" width="32" height="32" rx="16" fill="#F7F7F7"/>
<path d="M523.167 156L529 150.167M529 150.167L534.833 156M529 150.167V161.833" stroke="#9E9E9E" stroke-width="1.5" stroke-linecap="round" stroke-linejoin="round"/>
</g>
<defs>
<filter id="filter0_dddd_669_2829" x="-5" y="-20" width="247" height="86.7893" filterUnits="userSpaceOnUse" color-interpolation-filters="sRGB">
<feFlood flood-opacity="0" result="BackgroundImageFix"/>
<feColorMatrix in="SourceAlpha" type="matrix" values="0 0 0 0 0 0 0 0 0 0 0 0 0 0 0 0 0 0 127 0" result="hardAlpha"/>
<feOffset dy="1"/>
<feGaussianBlur stdDeviation="1"/>
<feColorMatrix type="matrix" values="0 0 0 0 0.0431373 0 0 0 0 0.0431373 0 0 0 0 0.0431373 0 0 0 0.05 0"/>
<feBlend mode="normal" in2="BackgroundImageFix" result="effect1_dropShadow_669_2829"/>
<feColorMatrix in="SourceAlpha" type="matrix" values="0 0 0 0 0 0 0 0 0 0 0 0 0 0 0 0 0 0 127 0" result="hardAlpha"/>
<feMorphology radius="1" operator="dilate" in="SourceAlpha" result="effect2_dropShadow_669_2829"/>
<feOffset/>
<feComposite in2="hardAlpha" operator="out"/>
<feColorMatrix type="matrix" values="0 0 0 0 0.0431373 0 0 0 0 0.0431373 0 0 0 0 0.0431373 0 0 0 0.05 0"/>
<feBlend mode="normal" in2="effect1_dropShadow_669_2829" result="effect2_dropShadow_669_2829"/>
<feColorMatrix in="SourceAlpha" type="matrix" values="0 0 0 0 0 0 0 0 0 0 0 0 0 0 0 0 0 0 127 0" result="hardAlpha"/>
<feOffset dy="4"/>
<feGaussianBlur stdDeviation="4"/>
<feComposite in2="hardAlpha" operator="out"/>
<feColorMatrix type="matrix" values="0 0 0 0 0.0431373 0 0 0 0 0.0431373 0 0 0 0 0.0431373 0 0 0 0.06 0"/>
<feBlend mode="normal" in2="effect2_dropShadow_669_2829" result="effect3_dropShadow_669_2829"/>
<feColorMatrix in="SourceAlpha" type="matrix" values="0 0 0 0 0 0 0 0 0 0 0 0 0 0 0 0 0 0 127 0" result="hardAlpha"/>
<feMorphology radius="3.67893" operator="erode" in="SourceAlpha" result="effect4_dropShadow_669_2829"/>
<feOffset dy="18.3946"/>
<feGaussianBlur stdDeviation="11.0368"/>
<feColorMatrix type="matrix" values="0 0 0 0 0.0431373 0 0 0 0 0.0431373 0 0 0 0 0.0431373 0 0 0 0.02 0"/>
<feBlend mode="normal" in2="effect3_dropShadow_669_2829" result="effect4_dropShadow_669_2829"/>
<feBlend mode="normal" in="SourceGraphic" in2="effect4_dropShadow_669_2829" result="shape"/>
</filter>
<filter id="filter1_dddd_669_2829" x="202" y="-20" width="217" height="86.7893" filterUnits="userSpaceOnUse" color-interpolation-filters="sRGB">
<feFlood flood-opacity="0" result="BackgroundImageFix"/>
<feColorMatrix in="SourceAlpha" type="matrix" values="0 0 0 0 0 0 0 0 0 0 0 0 0 0 0 0 0 0 127 0" result="hardAlpha"/>
<feOffset dy="1"/>
<feGaussianBlur stdDeviation="1"/>
<feColorMatrix type="matrix" values="0 0 0 0 0.0431373 0 0 0 0 0.0431373 0 0 0 0 0.0431373 0 0 0 0.05 0"/>
<feBlend mode="normal" in2="BackgroundImageFix" result="effect1_dropShadow_669_2829"/>
<feColorMatrix in="SourceAlpha" type="matrix" values="0 0 0 0 0 0 0 0 0 0 0 0 0 0 0 0 0 0 127 0" result="hardAlpha"/>
<feMorphology radius="1" operator="dilate" in="SourceAlpha" result="effect2_dropShadow_669_2829"/>
<feOffset/>
<feComposite in2="hardAlpha" operator="out"/>
<feColorMatrix type="matrix" values="0 0 0 0 0.0431373 0 0 0 0 0.0431373 0 0 0 0 0.0431373 0 0 0 0.05 0"/>
<feBlend mode="normal" in2="effect1_dropShadow_669_2829" result="effect2_dropShadow_669_2829"/>
<feColorMatrix in="SourceAlpha" type="matrix" values="0 0 0 0 0 0 0 0 0 0 0 0 0 0 0 0 0 0 127 0" result="hardAlpha"/>
<feOffset dy="4"/>
<feGaussianBlur stdDeviation="4"/>
<feComposite in2="hardAlpha" operator="out"/>
<feColorMatrix type="matrix" values="0 0 0 0 0.0431373 0 0 0 0 0.0431373 0 0 0 0 0.0431373 0 0 0 0.06 0"/>
<feBlend mode="normal" in2="effect2_dropShadow_669_2829" result="effect3_dropShadow_669_2829"/>
<feColorMatrix in="SourceAlpha" type="matrix" values="0 0 0 0 0 0 0 0 0 0 0 0 0 0 0 0 0 0 127 0" result="hardAlpha"/>
<feMorphology radius="3.67893" operator="erode" in="SourceAlpha" result="effect4_dropShadow_669_2829"/>
<feOffset dy="18.3946"/>
<feGaussianBlur stdDeviation="11.0368"/>
<feColorMatrix type="matrix" values="0 0 0 0 0.0431373 0 0 0 0 0.0431373 0 0 0 0 0.0431373 0 0 0 0.02 0"/>
<feBlend mode="normal" in2="effect3_dropShadow_669_2829" result="effect4_dropShadow_669_2829"/>
<feBlend mode="normal" in="SourceGraphic" in2="effect4_dropShadow_669_2829" result="shape"/>
</filter>
<filter id="filter2_dddd_669_2829" x="379" y="-20" width="198" height="86.7893" filterUnits="userSpaceOnUse" color-interpolation-filters="sRGB">
<feFlood flood-opacity="0" result="BackgroundImageFix"/>
<feColorMatrix in="SourceAlpha" type="matrix" values="0 0 0 0 0 0 0 0 0 0 0 0 0 0 0 0 0 0 127 0" result="hardAlpha"/>
<feOffset dy="1"/>
<feGaussianBlur stdDeviation="1"/>
<feColorMatrix type="matrix" values="0 0 0 0 0.0431373 0 0 0 0 0.0431373 0 0 0 0 0.0431373 0 0 0 0.05 0"/>
<feBlend mode="normal" in2="BackgroundImageFix" result="effect1_dropShadow_669_2829"/>
<feColorMatrix in="SourceAlpha" type="matrix" values="0 0 0 0 0 0 0 0 0 0 0 0 0 0 0 0 0 0 127 0" result="hardAlpha"/>
<feMorphology radius="1" operator="dilate" in="SourceAlpha" result="effect2_dropShadow_669_2829"/>
<feOffset/>
<feComposite in2="hardAlpha" operator="out"/>
<feColorMatrix type="matrix" values="0 0 0 0 0.0431373 0 0 0 0 0.0431373 0 0 0 0 0.0431373 0 0 0 0.05 0"/>
<feBlend mode="normal" in2="effect1_dropShadow_669_2829" result="effect2_dropShadow_669_2829"/>
<feColorMatrix in="SourceAlpha" type="matrix" values="0 0 0 0 0 0 0 0 0 0 0 0 0 0 0 0 0 0 127 0" result="hardAlpha"/>
<feOffset dy="4"/>
<feGaussianBlur stdDeviation="4"/>
<feComposite in2="hardAlpha" operator="out"/>
<feColorMatrix type="matrix" values="0 0 0 0 0.0431373 0 0 0 0 0.0431373 0 0 0 0 0.0431373 0 0 0 0.06 0"/>
<feBlend mode="normal" in2="effect2_dropShadow_669_2829" result="effect3_dropShadow_669_2829"/>
<feColorMatrix in="SourceAlpha" type="matrix" values="0 0 0 0 0 0 0 0 0 0 0 0 0 0 0 0 0 0 127 0" result="hardAlpha"/>
<feMorphology radius="3.67893" operator="erode" in="SourceAlpha" result="effect4_dropShadow_669_2829"/>
<feOffset dy="18.3946"/>
<feGaussianBlur stdDeviation="11.0368"/>
<feColorMatrix type="matrix" values="0 0 0 0 0.0431373 0 0 0 0 0.0431373 0 0 0 0 0.0431373 0 0 0 0.02 0"/>
<feBlend mode="normal" in2="effect3_dropShadow_669_2829" result="effect4_dropShadow_669_2829"/>
<feBlend mode="normal" in="SourceGraphic" in2="effect4_dropShadow_669_2829" result="shape"/>
</filter>
<filter id="filter3_ddddd_669_2829" x="-17" y="14" width="606" height="200.789" filterUnits="userSpaceOnUse" color-interpolation-filters="sRGB">
<feFlood flood-opacity="0" result="BackgroundImageFix"/>
<feColorMatrix in="SourceAlpha" type="matrix" values="0 0 0 0 0 0 0 0 0 0 0 0 0 0 0 0 0 0 127 0" result="hardAlpha"/>
<feOffset dy="1"/>
<feGaussianBlur stdDeviation="1"/>
<feColorMatrix type="matrix" values="0 0 0 0 0.0431373 0 0 0 0 0.0431373 0 0 0 0 0.0431373 0 0 0 0.05 0"/>
<feBlend mode="normal" in2="BackgroundImageFix" result="effect1_dropShadow_669_2829"/>
<feColorMatrix in="SourceAlpha" type="matrix" values="0 0 0 0 0 0 0 0 0 0 0 0 0 0 0 0 0 0 127 0" result="hardAlpha"/>
<feMorphology radius="1" operator="dilate" in="SourceAlpha" result="effect2_dropShadow_669_2829"/>
<feOffset/>
<feComposite in2="hardAlpha" operator="out"/>
<feColorMatrix type="matrix" values="0 0 0 0 0.0431373 0 0 0 0 0.0431373 0 0 0 0 0.0431373 0 0 0 0.05 0"/>
<feBlend mode="normal" in2="effect1_dropShadow_669_2829" result="effect2_dropShadow_669_2829"/>
<feColorMatrix in="SourceAlpha" type="matrix" values="0 0 0 0 0 0 0 0 0 0 0 0 0 0 0 0 0 0 127 0" result="hardAlpha"/>
<feOffset dy="4"/>
<feGaussianBlur stdDeviation="4"/>
<feComposite in2="hardAlpha" operator="out"/>
<feColorMatrix type="matrix" values="0 0 0 0 0.0431373 0 0 0 0 0.0431373 0 0 0 0 0.0431373 0 0 0 0.06 0"/>
<feBlend mode="normal" in2="effect2_dropShadow_669_2829" result="effect3_dropShadow_669_2829"/>
<feColorMatrix in="SourceAlpha" type="matrix" values="0 0 0 0 0 0 0 0 0 0 0 0 0 0 0 0 0 0 127 0" result="hardAlpha"/>
<feMorphology radius="10" operator="dilate" in="SourceAlpha" result="effect4_dropShadow_669_2829"/>
<feOffset/>
<feComposite in2="hardAlpha" operator="out"/>
<feColorMatrix type="matrix" values="0 0 0 0 0 0 0 0 0 0 0 0 0 0 0 0 0 0 0.02 0"/>
<feBlend mode="normal" in2="effect3_dropShadow_669_2829" result="effect4_dropShadow_669_2829"/>
<feColorMatrix in="SourceAlpha" type="matrix" values="0 0 0 0 0 0 0 0 0 0 0 0 0 0 0 0 0 0 127 0" result="hardAlpha"/>
<feMorphology radius="3.67893" operator="erode" in="SourceAlpha" result="effect5_dropShadow_669_2829"/>
<feOffset dy="18.3946"/>
<feGaussianBlur stdDeviation="11.0368"/>
<feColorMatrix type="matrix" values="0 0 0 0 0.0431373 0 0 0 0 0.0431373 0 0 0 0 0.0431373 0 0 0 0.02 0"/>
<feBlend mode="normal" in2="effect4_dropShadow_669_2829" result="effect5_dropShadow_669_2829"/>
<feBlend mode="normal" in="SourceGraphic" in2="effect5_dropShadow_669_2829" result="shape"/>
</filter>
<clipPath id="clip0_669_2829">
<rect width="20" height="20" fill="white" transform="translate(105 146)"/>
</clipPath>
</defs>
</svg>
