<svg width="320" height="270" viewBox="0 0 320 270" fill="none" xmlns="http://www.w3.org/2000/svg">
<g filter="url(#filter0_dddddddd_696_1818)">
<g clip-path="url(#clip0_696_1818)">
<path d="M8 20C8 13.3726 13.3726 8 20 8H300C306.627 8 312 13.3726 312 20V264C312 270.627 306.627 276 300 276H20C13.3726 276 8 270.627 8 264V20Z" fill="white"/>
<path d="M319 94L10 94" stroke="#0B0B0B" stroke-opacity="0.15" stroke-dasharray="4 4"/>
<path d="M20.28 145L23.864 135.06H25.488L29.072 145H27.756L26.762 142.172H22.59L21.596 145H20.28ZM22.996 140.996H26.356L24.676 136.11L22.996 140.996ZM32.6341 145.168C31.8968 145.168 31.3041 144.921 30.8561 144.426C30.4175 143.922 30.1981 143.231 30.1981 142.354V137.58H31.3741V142.032C31.3741 142.751 31.5001 143.283 31.7521 143.628C32.0135 143.964 32.4101 144.132 32.9421 144.132C33.5301 144.132 33.9921 143.945 34.3281 143.572C34.6641 143.189 34.8321 142.667 34.8321 142.004V137.58H36.0081V145H34.8881V143.166L35.0701 143.264C34.9208 143.871 34.6361 144.342 34.2161 144.678C33.7961 145.005 33.2688 145.168 32.6341 145.168ZM40.9281 147.268C40.3961 147.268 39.9155 147.179 39.4861 147.002C39.0568 146.825 38.6975 146.573 38.4081 146.246C38.1188 145.919 37.9228 145.541 37.8201 145.112L39.0521 145.028C39.1641 145.373 39.3601 145.644 39.6401 145.84C39.9295 146.045 40.3588 146.148 40.9281 146.148C41.6001 146.148 42.1135 146.013 42.4681 145.742C42.8321 145.471 43.0141 145.065 43.0141 144.524V143.32C42.8368 143.712 42.5521 144.025 42.1601 144.258C41.7681 144.491 41.3295 144.608 40.8441 144.608C40.2188 144.608 39.6588 144.454 39.1641 144.146C38.6788 143.838 38.2961 143.413 38.0161 142.872C37.7455 142.331 37.6101 141.71 37.6101 141.01C37.6101 140.301 37.7455 139.68 38.0161 139.148C38.2868 138.607 38.6601 138.182 39.1361 137.874C39.6215 137.566 40.1721 137.412 40.7881 137.412C41.3108 137.412 41.7775 137.533 42.1881 137.776C42.6081 138.019 42.9021 138.345 43.0701 138.756V137.58H44.1901V144.496C44.1901 145.075 44.0595 145.569 43.7981 145.98C43.5368 146.4 43.1635 146.717 42.6781 146.932C42.1928 147.156 41.6095 147.268 40.9281 147.268ZM40.9001 143.488C41.5348 143.488 42.0435 143.269 42.4261 142.83C42.8088 142.382 43.0048 141.775 43.0141 141.01C43.0235 140.497 42.9395 140.058 42.7621 139.694C42.5941 139.321 42.3468 139.036 42.0201 138.84C41.7028 138.635 41.3295 138.532 40.9001 138.532C40.2468 138.532 39.7381 138.756 39.3741 139.204C39.0195 139.643 38.8421 140.245 38.8421 141.01C38.8421 141.775 39.0241 142.382 39.3881 142.83C39.7615 143.269 40.2655 143.488 40.9001 143.488Z" fill="#737373"/>
<path d="M76.1039 145.224C75.3386 145.224 74.6712 145.079 74.1019 144.79C73.5326 144.501 73.0799 144.104 72.7439 143.6C72.4172 143.087 72.2259 142.494 72.1699 141.822L73.4299 141.738C73.4952 142.233 73.6399 142.653 73.8639 142.998C74.0879 143.343 74.3866 143.605 74.7599 143.782C75.1426 143.959 75.5999 144.048 76.1319 144.048C76.5986 144.048 76.9952 143.987 77.3219 143.866C77.6486 143.745 77.8959 143.567 78.0639 143.334C78.2412 143.101 78.3299 142.816 78.3299 142.48C78.3299 142.172 78.2552 141.901 78.1059 141.668C77.9659 141.425 77.6906 141.206 77.2799 141.01C76.8786 140.805 76.2812 140.604 75.4879 140.408C74.7226 140.212 74.1112 139.997 73.6539 139.764C73.2059 139.531 72.8792 139.246 72.6739 138.91C72.4779 138.574 72.3799 138.159 72.3799 137.664C72.3799 137.104 72.5106 136.614 72.7719 136.194C73.0426 135.765 73.4252 135.433 73.9199 135.2C74.4146 134.957 75.0026 134.836 75.6839 134.836C76.4119 134.836 77.0372 134.976 77.5599 135.256C78.0826 135.527 78.4979 135.9 78.8059 136.376C79.1139 136.852 79.3052 137.393 79.3799 138L78.1199 138.084C78.0639 137.683 77.9332 137.328 77.7279 137.02C77.5319 136.703 77.2612 136.455 76.9159 136.278C76.5706 136.101 76.1506 136.012 75.6559 136.012C75.0399 136.012 74.5499 136.161 74.1859 136.46C73.8219 136.749 73.6399 137.132 73.6399 137.608C73.6399 137.916 73.7099 138.173 73.8499 138.378C73.9992 138.574 74.2606 138.751 74.6339 138.91C75.0072 139.059 75.5439 139.223 76.2439 139.4C77.0746 139.605 77.7326 139.853 78.2179 140.142C78.7126 140.422 79.0626 140.749 79.2679 141.122C79.4826 141.495 79.5899 141.92 79.5899 142.396C79.5899 142.975 79.4406 143.479 79.1419 143.908C78.8432 144.328 78.4326 144.655 77.9099 144.888C77.3872 145.112 76.7852 145.224 76.1039 145.224ZM84.5644 145.168C83.8644 145.168 83.2577 145.009 82.7444 144.692C82.2404 144.375 81.8484 143.927 81.5684 143.348C81.2977 142.76 81.1624 142.074 81.1624 141.29C81.1624 140.506 81.2977 139.825 81.5684 139.246C81.8484 138.667 82.2357 138.219 82.7304 137.902C83.2344 137.575 83.8271 137.412 84.5084 137.412C85.1524 137.412 85.7217 137.566 86.2164 137.874C86.7111 138.173 87.0937 138.611 87.3644 139.19C87.6444 139.769 87.7844 140.473 87.7844 141.304V141.654H82.3944C82.4411 142.447 82.6511 143.045 83.0244 143.446C83.4071 143.847 83.9204 144.048 84.5644 144.048C85.0497 144.048 85.4464 143.936 85.7544 143.712C86.0717 143.479 86.2911 143.175 86.4124 142.802L87.6724 142.9C87.4764 143.563 87.1031 144.109 86.5524 144.538C86.0111 144.958 85.3484 145.168 84.5644 145.168ZM82.3944 140.618H86.4964C86.4404 139.899 86.2304 139.372 85.8664 139.036C85.5117 138.7 85.0591 138.532 84.5084 138.532C83.9391 138.532 83.4677 138.709 83.0944 139.064C82.7304 139.409 82.4971 139.927 82.3944 140.618ZM89.3773 147.1V137.58H90.4693L90.4973 139.176L90.3293 139.092C90.516 138.541 90.824 138.126 91.2533 137.846C91.692 137.557 92.196 137.412 92.7653 137.412C93.5027 137.412 94.1047 137.594 94.5713 137.958C95.0473 138.322 95.3973 138.798 95.6213 139.386C95.8547 139.974 95.9713 140.609 95.9713 141.29C95.9713 141.971 95.8547 142.606 95.6213 143.194C95.3973 143.782 95.0473 144.258 94.5713 144.622C94.1047 144.986 93.5027 145.168 92.7653 145.168C92.3827 145.168 92.0233 145.103 91.6873 144.972C91.3607 144.841 91.0807 144.659 90.8473 144.426C90.6233 144.193 90.4693 143.917 90.3853 143.6L90.5533 143.404V147.1H89.3773ZM92.6533 144.048C93.2973 144.048 93.806 143.805 94.1793 143.32C94.5527 142.835 94.7393 142.158 94.7393 141.29C94.7393 140.422 94.5527 139.745 94.1793 139.26C93.806 138.775 93.2973 138.532 92.6533 138.532C92.224 138.532 91.8507 138.635 91.5333 138.84C91.2253 139.045 90.9827 139.353 90.8053 139.764C90.6373 140.175 90.5533 140.683 90.5533 141.29C90.5533 141.897 90.6373 142.405 90.8053 142.816C90.9733 143.227 91.216 143.535 91.5333 143.74C91.8507 143.945 92.224 144.048 92.6533 144.048Z" fill="#737373"/>
<path d="M127.966 145.224C127.023 145.224 126.211 145.019 125.53 144.608C124.858 144.188 124.34 143.591 123.976 142.816C123.612 142.041 123.43 141.117 123.43 140.044C123.43 138.971 123.612 138.047 123.976 137.272C124.34 136.488 124.858 135.886 125.53 135.466C126.211 135.046 127.023 134.836 127.966 134.836C128.918 134.836 129.73 135.046 130.402 135.466C131.083 135.886 131.606 136.488 131.97 137.272C132.334 138.047 132.516 138.971 132.516 140.044C132.516 141.117 132.334 142.041 131.97 142.816C131.606 143.591 131.083 144.188 130.402 144.608C129.73 145.019 128.918 145.224 127.966 145.224ZM127.966 144.048C128.656 144.048 129.244 143.889 129.73 143.572C130.224 143.255 130.602 142.797 130.864 142.2C131.125 141.603 131.256 140.884 131.256 140.044C131.256 139.204 131.125 138.485 130.864 137.888C130.602 137.281 130.224 136.819 129.73 136.502C129.244 136.175 128.656 136.012 127.966 136.012C127.284 136.012 126.696 136.175 126.202 136.502C125.716 136.819 125.343 137.281 125.082 137.888C124.82 138.485 124.69 139.204 124.69 140.044C124.69 140.884 124.82 141.603 125.082 142.2C125.343 142.797 125.716 143.255 126.202 143.572C126.696 143.889 127.284 144.048 127.966 144.048ZM137.359 145.168C136.668 145.168 136.066 145.009 135.553 144.692C135.049 144.375 134.657 143.927 134.377 143.348C134.097 142.76 133.957 142.074 133.957 141.29C133.957 140.506 134.097 139.825 134.377 139.246C134.657 138.667 135.049 138.219 135.553 137.902C136.066 137.575 136.668 137.412 137.359 137.412C137.928 137.412 138.432 137.515 138.871 137.72C139.319 137.916 139.683 138.205 139.963 138.588C140.243 138.971 140.425 139.437 140.509 139.988L139.277 140.072C139.193 139.577 138.978 139.199 138.633 138.938C138.287 138.667 137.863 138.532 137.359 138.532C136.677 138.532 136.145 138.779 135.763 139.274C135.38 139.759 135.189 140.431 135.189 141.29C135.189 142.149 135.38 142.825 135.763 143.32C136.145 143.805 136.677 144.048 137.359 144.048C137.863 144.048 138.287 143.908 138.633 143.628C138.978 143.348 139.193 142.928 139.277 142.368L140.509 142.452C140.425 143.003 140.243 143.483 139.963 143.894C139.683 144.295 139.319 144.608 138.871 144.832C138.432 145.056 137.928 145.168 137.359 145.168ZM144.396 145C143.724 145 143.224 144.846 142.898 144.538C142.58 144.23 142.422 143.749 142.422 143.096V135.844H143.598V143.068C143.598 143.404 143.672 143.637 143.822 143.768C143.971 143.899 144.2 143.964 144.508 143.964H145.572V145H144.396ZM141.33 138.616V137.58H145.572V138.616H141.33Z" fill="#737373"/>
<path d="M173.488 145V135.06H175.196L180.11 143.796V135.06H181.314V145H179.522L174.692 136.432V145H173.488ZM186.486 145.168C185.804 145.168 185.207 145.009 184.694 144.692C184.18 144.375 183.784 143.927 183.504 143.348C183.224 142.76 183.084 142.074 183.084 141.29C183.084 140.497 183.224 139.811 183.504 139.232C183.784 138.653 184.18 138.205 184.694 137.888C185.207 137.571 185.804 137.412 186.486 137.412C187.167 137.412 187.76 137.571 188.264 137.888C188.777 138.205 189.174 138.653 189.454 139.232C189.734 139.811 189.874 140.497 189.874 141.29C189.874 142.074 189.734 142.76 189.454 143.348C189.174 143.927 188.777 144.375 188.264 144.692C187.76 145.009 187.167 145.168 186.486 145.168ZM186.486 144.048C187.167 144.048 187.694 143.805 188.068 143.32C188.45 142.825 188.642 142.149 188.642 141.29C188.642 140.431 188.45 139.759 188.068 139.274C187.694 138.779 187.167 138.532 186.486 138.532C185.804 138.532 185.272 138.779 184.89 139.274C184.507 139.759 184.316 140.431 184.316 141.29C184.316 142.149 184.507 142.825 184.89 143.32C185.272 143.805 185.804 144.048 186.486 144.048ZM193.148 145L190.446 137.58H191.734L193.89 143.796L196.046 137.58H197.334L194.632 145H193.148Z" fill="#737373"/>
<path d="M224.888 145V135.06H227.968C229.499 135.06 230.675 135.494 231.496 136.362C232.327 137.221 232.742 138.448 232.742 140.044C232.742 141.631 232.336 142.853 231.524 143.712C230.712 144.571 229.555 145 228.052 145H224.888ZM226.092 143.824H227.968C229.135 143.824 230.012 143.511 230.6 142.886C231.188 142.251 231.482 141.304 231.482 140.044C231.482 138.765 231.188 137.813 230.6 137.188C230.012 136.553 229.135 136.236 227.968 136.236H226.092V143.824ZM237.585 145.168C236.885 145.168 236.278 145.009 235.765 144.692C235.261 144.375 234.869 143.927 234.589 143.348C234.318 142.76 234.183 142.074 234.183 141.29C234.183 140.506 234.318 139.825 234.589 139.246C234.869 138.667 235.256 138.219 235.751 137.902C236.255 137.575 236.848 137.412 237.529 137.412C238.173 137.412 238.742 137.566 239.237 137.874C239.732 138.173 240.114 138.611 240.385 139.19C240.665 139.769 240.805 140.473 240.805 141.304V141.654H235.415C235.462 142.447 235.672 143.045 236.045 143.446C236.428 143.847 236.941 144.048 237.585 144.048C238.07 144.048 238.467 143.936 238.775 143.712C239.092 143.479 239.312 143.175 239.433 142.802L240.693 142.9C240.497 143.563 240.124 144.109 239.573 144.538C239.032 144.958 238.369 145.168 237.585 145.168ZM235.415 140.618H239.517C239.461 139.899 239.251 139.372 238.887 139.036C238.532 138.7 238.08 138.532 237.529 138.532C236.96 138.532 236.488 138.709 236.115 139.064C235.751 139.409 235.518 139.927 235.415 140.618ZM245.296 145.168C244.605 145.168 244.003 145.009 243.49 144.692C242.986 144.375 242.594 143.927 242.314 143.348C242.034 142.76 241.894 142.074 241.894 141.29C241.894 140.506 242.034 139.825 242.314 139.246C242.594 138.667 242.986 138.219 243.49 137.902C244.003 137.575 244.605 137.412 245.296 137.412C245.865 137.412 246.369 137.515 246.808 137.72C247.256 137.916 247.62 138.205 247.9 138.588C248.18 138.971 248.362 139.437 248.446 139.988L247.214 140.072C247.13 139.577 246.915 139.199 246.57 138.938C246.224 138.667 245.8 138.532 245.296 138.532C244.614 138.532 244.082 138.779 243.7 139.274C243.317 139.759 243.126 140.431 243.126 141.29C243.126 142.149 243.317 142.825 243.7 143.32C244.082 143.805 244.614 144.048 245.296 144.048C245.8 144.048 246.224 143.908 246.57 143.628C246.915 143.348 247.13 142.928 247.214 142.368L248.446 142.452C248.362 143.003 248.18 143.483 247.9 143.894C247.62 144.295 247.256 144.608 246.808 144.832C246.369 145.056 245.865 145.168 245.296 145.168Z" fill="#737373"/>
<path d="M279.102 145.224C278.486 145.224 277.94 145.079 277.464 144.79C276.988 144.491 276.615 144.081 276.344 143.558C276.083 143.035 275.947 142.433 275.938 141.752L277.17 141.668C277.179 142.433 277.352 143.021 277.688 143.432C278.024 143.843 278.495 144.048 279.102 144.048C279.737 144.048 280.222 143.829 280.558 143.39C280.903 142.951 281.076 142.331 281.076 141.528V135.06H282.28V141.528C282.28 142.284 282.149 142.942 281.888 143.502C281.627 144.053 281.258 144.477 280.782 144.776C280.315 145.075 279.755 145.224 279.102 145.224ZM286.406 145.168C285.64 145.168 285.029 144.991 284.572 144.636C284.124 144.281 283.9 143.787 283.9 143.152C283.9 142.517 284.086 142.018 284.46 141.654C284.833 141.29 285.426 141.033 286.238 140.884L288.87 140.394C288.87 139.769 288.72 139.302 288.422 138.994C288.132 138.686 287.694 138.532 287.106 138.532C286.592 138.532 286.186 138.649 285.888 138.882C285.589 139.106 285.384 139.433 285.272 139.862L284.026 139.764C284.166 139.064 284.502 138.499 285.034 138.07C285.575 137.631 286.266 137.412 287.106 137.412C288.058 137.412 288.786 137.683 289.29 138.224C289.794 138.756 290.046 139.493 290.046 140.436V145H288.982L288.94 143.432L289.066 143.46C289 143.787 288.837 144.081 288.576 144.342C288.314 144.594 287.992 144.795 287.61 144.944C287.227 145.093 286.826 145.168 286.406 145.168ZM286.518 144.132C287.012 144.132 287.432 144.039 287.778 143.852C288.132 143.656 288.403 143.395 288.59 143.068C288.776 142.732 288.87 142.359 288.87 141.948V141.416L286.462 141.864C285.958 141.957 285.608 142.102 285.412 142.298C285.225 142.485 285.132 142.732 285.132 143.04C285.132 143.385 285.253 143.656 285.496 143.852C285.748 144.039 286.088 144.132 286.518 144.132ZM292.007 145V137.58H293.085L293.127 139.47L292.987 139.344C293.08 138.905 293.243 138.546 293.477 138.266C293.71 137.977 293.99 137.762 294.317 137.622C294.653 137.482 295.012 137.412 295.395 137.412C295.964 137.412 296.431 137.538 296.795 137.79C297.168 138.042 297.443 138.383 297.621 138.812C297.807 139.232 297.901 139.703 297.901 140.226V145H296.725V140.562C296.725 140.105 296.669 139.722 296.557 139.414C296.454 139.097 296.286 138.859 296.053 138.7C295.819 138.532 295.516 138.448 295.143 138.448C294.573 138.448 294.102 138.63 293.729 138.994C293.365 139.349 293.183 139.871 293.183 140.562V145H292.007Z" fill="#737373"/>
<path d="M315 43L6 43" stroke="#EC2222" stroke-dasharray="4 4"/>
<rect x="20" y="162" width="32" height="32" rx="16" fill="#22CCEE" fill-opacity="0.1"/>
<path d="M28.5 169.667V175.5C28.5 176.417 29.25 177.167 30.1667 177.167H33.5C33.942 177.167 34.366 176.991 34.6785 176.679C34.9911 176.366 35.1667 175.942 35.1667 175.5V169.667M31.8333 169.667V186.333M43.5 180.5V169.667C42.3949 169.667 41.3351 170.106 40.5537 170.887C39.7723 171.669 39.3333 172.728 39.3333 173.833V178.833C39.3333 179.75 40.0833 180.5 41 180.5H43.5ZM43.5 180.5V186.333" stroke="#06AED4" stroke-width="1.5" stroke-linecap="round" stroke-linejoin="round"/>
<path d="M26.96 232.16V210.8H28.784V232.16H26.96ZM28.064 230.336C26.736 230.336 25.584 230.096 24.608 229.616C23.632 229.12 22.856 228.44 22.28 227.576C21.72 226.712 21.392 225.712 21.296 224.576L23.912 224.432C24.008 225.2 24.232 225.856 24.584 226.4C24.936 226.928 25.4 227.336 25.976 227.624C26.568 227.896 27.28 228.032 28.112 228.032C28.832 228.032 29.448 227.944 29.96 227.768C30.472 227.576 30.856 227.304 31.112 226.952C31.384 226.6 31.52 226.16 31.52 225.632C31.52 225.152 31.408 224.736 31.184 224.384C30.96 224.016 30.528 223.68 29.888 223.376C29.248 223.056 28.312 222.752 27.08 222.464C25.752 222.144 24.688 221.784 23.888 221.384C23.088 220.984 22.512 220.496 22.16 219.92C21.824 219.328 21.656 218.592 21.656 217.712C21.656 216.768 21.888 215.936 22.352 215.216C22.816 214.48 23.472 213.912 24.32 213.512C25.184 213.096 26.216 212.888 27.416 212.888C28.696 212.888 29.784 213.12 30.68 213.584C31.592 214.048 32.312 214.688 32.84 215.504C33.368 216.32 33.696 217.256 33.824 218.312L31.208 218.456C31.128 217.832 30.928 217.272 30.608 216.776C30.304 216.28 29.88 215.896 29.336 215.624C28.792 215.336 28.136 215.192 27.368 215.192C26.408 215.192 25.648 215.416 25.088 215.864C24.528 216.312 24.248 216.904 24.248 217.64C24.248 218.12 24.36 218.52 24.584 218.84C24.824 219.16 25.232 219.44 25.808 219.68C26.4 219.92 27.24 220.168 28.328 220.424C29.768 220.76 30.912 221.168 31.76 221.648C32.608 222.112 33.216 222.664 33.584 223.304C33.952 223.944 34.136 224.672 34.136 225.488C34.136 226.48 33.88 227.344 33.368 228.08C32.856 228.8 32.144 229.36 31.232 229.76C30.32 230.144 29.264 230.336 28.064 230.336ZM36.8379 230C36.8379 228.72 37.0299 227.576 37.4139 226.568C37.7979 225.56 38.4539 224.624 39.3819 223.76C40.3099 222.896 41.5899 222.032 43.2219 221.168C44.0059 220.768 44.6299 220.4 45.0939 220.064C45.5739 219.712 45.9179 219.352 46.1259 218.984C46.3339 218.616 46.4379 218.168 46.4379 217.64C46.4379 217.096 46.3179 216.632 46.0779 216.248C45.8539 215.848 45.5179 215.536 45.0699 215.312C44.6219 215.072 44.0539 214.952 43.3659 214.952C42.2779 214.952 41.4139 215.248 40.7739 215.84C40.1499 216.416 39.7579 217.248 39.5979 218.336L36.9099 218.168C37.1019 216.456 37.7499 215.096 38.8539 214.088C39.9739 213.08 41.4779 212.576 43.3659 212.576C44.5819 212.576 45.6139 212.792 46.4619 213.224C47.3259 213.64 47.9819 214.224 48.4299 214.976C48.8939 215.728 49.1259 216.6 49.1259 217.592C49.1259 218.456 48.9819 219.2 48.6939 219.824C48.4059 220.448 47.9259 221.032 47.2539 221.576C46.5819 222.104 45.6699 222.672 44.5179 223.28C43.0459 224.064 41.9339 224.84 41.1819 225.608C40.4299 226.36 40.0299 227.032 39.9819 227.624H49.1259V230H36.8379ZM58.0511 230.384C56.7551 230.384 55.6111 230.192 54.6191 229.808C53.6271 229.424 52.8511 228.856 52.2911 228.104C51.7471 227.352 51.4751 226.432 51.4751 225.344C51.4751 224.096 51.8511 223.064 52.6031 222.248C53.3551 221.432 54.3631 220.888 55.6271 220.616L55.6751 221.096C54.6511 220.856 53.8271 220.416 53.2031 219.776C52.5951 219.136 52.2911 218.296 52.2911 217.256C52.2911 216.344 52.5231 215.536 52.9871 214.832C53.4511 214.128 54.1071 213.576 54.9551 213.176C55.8191 212.776 56.8511 212.576 58.0511 212.576C59.2351 212.576 60.2591 212.776 61.1231 213.176C61.9871 213.576 62.6431 214.128 63.0911 214.832C63.5551 215.536 63.7871 216.344 63.7871 217.256C63.7871 218.296 63.4831 219.136 62.8751 219.776C62.2671 220.4 61.4431 220.84 60.4031 221.096L60.4511 220.616C61.7311 220.888 62.7471 221.432 63.4991 222.248C64.2511 223.064 64.6271 224.096 64.6271 225.344C64.6271 226.432 64.3471 227.352 63.7871 228.104C63.2431 228.856 62.4751 229.424 61.4831 229.808C60.4911 230.192 59.3471 230.384 58.0511 230.384ZM58.0511 228.008C59.2351 228.008 60.1711 227.768 60.8591 227.288C61.5631 226.792 61.9151 226.056 61.9151 225.08C61.9151 224.152 61.5951 223.408 60.9551 222.848C60.3311 222.288 59.3631 222.008 58.0511 222.008C56.7391 222.008 55.7631 222.288 55.1231 222.848C54.4831 223.408 54.1631 224.152 54.1631 225.08C54.1631 226.056 54.5151 226.792 55.2191 227.288C55.9231 227.768 56.8671 228.008 58.0511 228.008ZM58.0511 219.872C59.0271 219.872 59.7791 219.672 60.3071 219.272C60.8511 218.856 61.1231 218.224 61.1231 217.376C61.1231 216.64 60.8591 216.048 60.3311 215.6C59.8191 215.152 59.0591 214.928 58.0511 214.928C57.0431 214.928 56.2751 215.152 55.7471 215.6C55.2191 216.048 54.9551 216.64 54.9551 217.376C54.9551 218.224 55.2271 218.856 55.7711 219.272C56.3151 219.672 57.0751 219.872 58.0511 219.872ZM74.8031 230V226.448H66.2111V224.24L74.4911 212.96H77.3951V224.096H79.4831V226.448H77.3951V230H74.8031ZM69.1631 224.096H74.8031V216.56L69.1631 224.096ZM81.6408 230V226.976H84.7368V230H81.6408ZM93.3982 230.384C92.1342 230.384 91.0542 230.184 90.1582 229.784C89.2622 229.368 88.5582 228.792 88.0462 228.056C87.5342 227.32 87.2382 226.472 87.1582 225.512L89.8222 225.344C89.9502 226.24 90.3262 226.912 90.9502 227.36C91.5902 227.792 92.4062 228.008 93.3982 228.008C94.5182 228.008 95.3982 227.696 96.0382 227.072C96.6942 226.448 97.0222 225.576 97.0222 224.456C97.0222 223.72 96.8702 223.088 96.5662 222.56C96.2782 222.016 95.8622 221.6 95.3182 221.312C94.7742 221.008 94.1262 220.856 93.3742 220.856C92.6222 220.856 91.9502 221.016 91.3582 221.336C90.7662 221.656 90.3422 222.096 90.0862 222.656H87.3982L88.5502 212.96H98.5342V215.336H90.8542L90.1342 221.168L89.7262 220.808C89.9982 220.328 90.3422 219.936 90.7582 219.632C91.1742 219.312 91.6542 219.072 92.1982 218.912C92.7582 218.736 93.3502 218.648 93.9742 218.648C95.1262 218.648 96.1262 218.896 96.9742 219.392C97.8382 219.888 98.5102 220.576 98.9902 221.456C99.4702 222.336 99.7102 223.336 99.7102 224.456C99.7102 225.624 99.4462 226.656 98.9182 227.552C98.3902 228.448 97.6542 229.144 96.7102 229.64C95.7662 230.136 94.6622 230.384 93.3982 230.384ZM108.773 230.384C107.509 230.384 106.429 230.184 105.533 229.784C104.637 229.368 103.933 228.792 103.421 228.056C102.909 227.32 102.613 226.472 102.533 225.512L105.197 225.344C105.325 226.24 105.701 226.912 106.325 227.36C106.965 227.792 107.781 228.008 108.773 228.008C109.893 228.008 110.773 227.696 111.413 227.072C112.069 226.448 112.397 225.576 112.397 224.456C112.397 223.72 112.245 223.088 111.941 222.56C111.653 222.016 111.237 221.6 110.693 221.312C110.149 221.008 109.501 220.856 108.749 220.856C107.997 220.856 107.325 221.016 106.733 221.336C106.141 221.656 105.717 222.096 105.461 222.656H102.773L103.925 212.96H113.909V215.336H106.229L105.509 221.168L105.101 220.808C105.373 220.328 105.717 219.936 106.133 219.632C106.549 219.312 107.029 219.072 107.573 218.912C108.133 218.736 108.725 218.648 109.349 218.648C110.501 218.648 111.501 218.896 112.349 219.392C113.213 219.888 113.885 220.576 114.365 221.456C114.845 222.336 115.085 223.336 115.085 224.456C115.085 225.624 114.821 226.656 114.293 227.552C113.765 228.448 113.029 229.144 112.085 229.64C111.141 230.136 110.037 230.384 108.773 230.384ZM129.048 230.288C127.848 230.288 126.832 230.104 126 229.736C125.184 229.368 124.552 228.864 124.104 228.224C123.656 227.568 123.4 226.816 123.336 225.968L125.952 225.848C126.08 226.552 126.384 227.112 126.864 227.528C127.344 227.944 128.072 228.152 129.048 228.152C129.848 228.152 130.48 228.024 130.944 227.768C131.408 227.512 131.64 227.104 131.64 226.544C131.64 226.24 131.56 225.984 131.4 225.776C131.256 225.552 130.968 225.368 130.536 225.224C130.104 225.064 129.464 224.912 128.616 224.768C127.352 224.528 126.36 224.248 125.64 223.928C124.92 223.608 124.408 223.2 124.104 222.704C123.8 222.208 123.648 221.608 123.648 220.904C123.648 219.736 124.08 218.784 124.944 218.048C125.824 217.312 127.088 216.944 128.736 216.944C129.84 216.944 130.768 217.136 131.52 217.52C132.272 217.888 132.856 218.392 133.272 219.032C133.704 219.656 133.976 220.36 134.088 221.144L131.472 221.288C131.392 220.84 131.232 220.456 130.992 220.136C130.768 219.8 130.464 219.544 130.08 219.368C129.696 219.176 129.24 219.08 128.712 219.08C127.896 219.08 127.288 219.24 126.888 219.56C126.488 219.88 126.288 220.296 126.288 220.808C126.288 221.192 126.376 221.504 126.552 221.744C126.744 221.984 127.048 222.184 127.464 222.344C127.88 222.488 128.432 222.616 129.12 222.728C130.448 222.952 131.488 223.232 132.24 223.568C132.992 223.888 133.52 224.288 133.824 224.768C134.128 225.248 134.28 225.832 134.28 226.52C134.28 227.32 134.056 228 133.608 228.56C133.16 229.12 132.544 229.552 131.76 229.856C130.976 230.144 130.072 230.288 129.048 230.288ZM136.855 233.6V217.232H139.255L139.327 219.968L139.039 219.824C139.359 218.88 139.887 218.168 140.623 217.688C141.359 217.192 142.207 216.944 143.167 216.944C144.415 216.944 145.439 217.256 146.239 217.88C147.055 218.488 147.655 219.296 148.039 220.304C148.439 221.312 148.639 222.416 148.639 223.616C148.639 224.816 148.439 225.92 148.039 226.928C147.655 227.936 147.055 228.752 146.239 229.376C145.439 229.984 144.415 230.288 143.167 230.288C142.527 230.288 141.927 230.176 141.367 229.952C140.807 229.728 140.327 229.416 139.927 229.016C139.543 228.6 139.271 228.112 139.111 227.552L139.399 227.264V233.6H136.855ZM142.711 228.08C143.735 228.08 144.535 227.688 145.111 226.904C145.703 226.12 145.999 225.024 145.999 223.616C145.999 222.208 145.703 221.112 145.111 220.328C144.535 219.544 143.735 219.152 142.711 219.152C142.039 219.152 141.455 219.32 140.959 219.656C140.463 219.976 140.079 220.472 139.807 221.144C139.535 221.816 139.399 222.64 139.399 223.616C139.399 224.592 139.527 225.416 139.783 226.088C140.055 226.76 140.439 227.264 140.935 227.6C141.447 227.92 142.039 228.08 142.711 228.08ZM156.478 230.288C155.23 230.288 154.15 230.016 153.238 229.472C152.342 228.928 151.646 228.152 151.15 227.144C150.67 226.136 150.43 224.96 150.43 223.616C150.43 222.272 150.67 221.104 151.15 220.112C151.646 219.104 152.342 218.328 153.238 217.784C154.134 217.224 155.19 216.944 156.406 216.944C157.558 216.944 158.574 217.216 159.454 217.76C160.334 218.288 161.014 219.056 161.494 220.064C161.99 221.072 162.238 222.288 162.238 223.712V224.36H153.07C153.134 225.608 153.462 226.544 154.054 227.168C154.662 227.792 155.478 228.104 156.502 228.104C157.254 228.104 157.878 227.928 158.374 227.576C158.87 227.224 159.214 226.752 159.406 226.16L162.046 226.328C161.71 227.512 161.046 228.472 160.054 229.208C159.078 229.928 157.886 230.288 156.478 230.288ZM153.07 222.44H159.55C159.47 221.304 159.142 220.464 158.566 219.92C158.006 219.376 157.286 219.104 156.406 219.104C155.494 219.104 154.742 219.392 154.15 219.968C153.574 220.528 153.214 221.352 153.07 222.44ZM164.816 230V217.232H167.144L167.24 220.64L166.928 220.472C167.072 219.64 167.344 218.968 167.744 218.456C168.144 217.944 168.632 217.568 169.208 217.328C169.784 217.072 170.408 216.944 171.08 216.944C172.04 216.944 172.832 217.16 173.456 217.592C174.096 218.008 174.576 218.584 174.896 219.32C175.232 220.04 175.4 220.864 175.4 221.792V230H172.856V222.56C172.856 221.808 172.776 221.176 172.616 220.664C172.456 220.152 172.192 219.76 171.824 219.488C171.456 219.216 170.976 219.08 170.384 219.08C169.488 219.08 168.76 219.376 168.2 219.968C167.64 220.56 167.36 221.424 167.36 222.56V230H164.816ZM182.977 230C181.761 230 180.865 229.72 180.289 229.16C179.713 228.6 179.425 227.728 179.425 226.544V214.232H181.969V226.352C181.969 226.944 182.097 227.352 182.353 227.576C182.609 227.8 183.001 227.912 183.529 227.912H185.353V230H182.977ZM177.481 219.32V217.232H185.353V219.32H177.481Z" fill="#171717"/>
<path d="M20.9451 251.556V250.268H27.6931V251.556H20.9451ZM23.6751 254.286V247.538H24.9631V254.286H23.6751ZM32.1817 256.26V243.786H33.2597V256.26H32.1817ZM32.8397 255.196C32.121 255.196 31.491 255.056 30.9497 254.776C30.4177 254.487 29.993 254.085 29.6757 253.572C29.3583 253.059 29.1717 252.457 29.1157 251.766L30.5997 251.668C30.665 252.144 30.7957 252.545 30.9917 252.872C31.1877 253.199 31.4443 253.446 31.7617 253.614C32.079 253.773 32.4523 253.852 32.8817 253.852C33.3203 253.852 33.6843 253.801 33.9737 253.698C34.263 253.586 34.4823 253.427 34.6317 253.222C34.781 253.017 34.8557 252.769 34.8557 252.48C34.8557 252.181 34.7857 251.929 34.6457 251.724C34.515 251.509 34.263 251.318 33.8897 251.15C33.5163 250.982 32.9657 250.805 32.2377 250.618C31.575 250.441 31.029 250.231 30.5997 249.988C30.1703 249.736 29.853 249.433 29.6477 249.078C29.4517 248.723 29.3537 248.308 29.3537 247.832C29.3537 247.263 29.4843 246.773 29.7457 246.362C30.0163 245.942 30.399 245.62 30.8937 245.396C31.3883 245.163 31.9857 245.046 32.6857 245.046C33.3763 245.046 33.9643 245.177 34.4497 245.438C34.9443 245.69 35.3317 246.049 35.6117 246.516C35.901 246.983 36.0783 247.533 36.1437 248.168L34.6597 248.252C34.613 247.869 34.5103 247.538 34.3517 247.258C34.193 246.978 33.9737 246.763 33.6937 246.614C33.4137 246.465 33.0637 246.39 32.6437 246.39C32.065 246.39 31.6123 246.511 31.2857 246.754C30.959 246.997 30.7957 247.333 30.7957 247.762C30.7957 248.051 30.861 248.289 30.9917 248.476C31.1223 248.663 31.351 248.831 31.6777 248.98C32.0043 249.12 32.471 249.274 33.0777 249.442C33.8803 249.657 34.515 249.899 34.9817 250.17C35.4577 250.431 35.7983 250.749 36.0037 251.122C36.209 251.486 36.3117 251.939 36.3117 252.48C36.3117 253.021 36.167 253.497 35.8777 253.908C35.5883 254.319 35.1823 254.636 34.6597 254.86C34.1463 255.084 33.5397 255.196 32.8397 255.196ZM41.1082 255.224C40.4269 255.224 39.8155 255.112 39.2742 254.888C38.7422 254.664 38.3222 254.333 38.0142 253.894C37.7062 253.455 37.5522 252.914 37.5522 252.27C37.5522 251.551 37.7669 250.954 38.1962 250.478C38.6349 250.002 39.2182 249.685 39.9462 249.526L39.9742 249.806C39.3862 249.657 38.9102 249.4 38.5462 249.036C38.1822 248.672 38.0002 248.182 38.0002 247.566C38.0002 247.043 38.1309 246.577 38.3922 246.166C38.6629 245.755 39.0315 245.433 39.4982 245.2C39.9649 244.957 40.5015 244.836 41.1082 244.836C41.7149 244.836 42.2515 244.957 42.7182 245.2C43.1942 245.433 43.5629 245.755 43.8242 246.166C44.0855 246.577 44.2162 247.043 44.2162 247.566C44.2162 248.182 44.0342 248.672 43.6702 249.036C43.3155 249.4 42.8395 249.657 42.2422 249.806L42.2702 249.526C42.9982 249.694 43.5769 250.016 44.0062 250.492C44.4449 250.959 44.6642 251.551 44.6642 252.27C44.6642 252.914 44.5102 253.455 44.2022 253.894C43.8942 254.333 43.4742 254.664 42.9422 254.888C42.4102 255.112 41.7989 255.224 41.1082 255.224ZM41.1082 253.852C41.6962 253.852 42.1815 253.717 42.5642 253.446C42.9469 253.166 43.1382 252.737 43.1382 252.158C43.1382 251.617 42.9655 251.187 42.6202 250.87C42.2842 250.543 41.7802 250.38 41.1082 250.38C40.4455 250.38 39.9415 250.543 39.5962 250.87C39.2509 251.187 39.0782 251.617 39.0782 252.158C39.0782 252.737 39.2695 253.166 39.6522 253.446C40.0349 253.717 40.5202 253.852 41.1082 253.852ZM41.1082 249.064C41.5842 249.064 41.9669 248.943 42.2562 248.7C42.5455 248.457 42.6902 248.093 42.6902 247.608C42.6902 247.179 42.5455 246.838 42.2562 246.586C41.9762 246.334 41.5935 246.208 41.1082 246.208C40.6229 246.208 40.2355 246.334 39.9462 246.586C39.6662 246.838 39.5262 247.179 39.5262 247.608C39.5262 248.093 39.6709 248.457 39.9602 248.7C40.2495 248.943 40.6322 249.064 41.1082 249.064ZM49.5027 255.224C48.8214 255.224 48.2101 255.112 47.6687 254.888C47.1367 254.664 46.7167 254.333 46.4087 253.894C46.1007 253.455 45.9467 252.914 45.9467 252.27C45.9467 251.551 46.1614 250.954 46.5907 250.478C47.0294 250.002 47.6127 249.685 48.3407 249.526L48.3687 249.806C47.7807 249.657 47.3047 249.4 46.9407 249.036C46.5767 248.672 46.3947 248.182 46.3947 247.566C46.3947 247.043 46.5254 246.577 46.7867 246.166C47.0574 245.755 47.4261 245.433 47.8927 245.2C48.3594 244.957 48.8961 244.836 49.5027 244.836C50.1094 244.836 50.6461 244.957 51.1127 245.2C51.5887 245.433 51.9574 245.755 52.2187 246.166C52.4801 246.577 52.6107 247.043 52.6107 247.566C52.6107 248.182 52.4287 248.672 52.0647 249.036C51.7101 249.4 51.2341 249.657 50.6367 249.806L50.6647 249.526C51.3927 249.694 51.9714 250.016 52.4007 250.492C52.8394 250.959 53.0587 251.551 53.0587 252.27C53.0587 252.914 52.9047 253.455 52.5967 253.894C52.2887 254.333 51.8687 254.664 51.3367 254.888C50.8047 255.112 50.1934 255.224 49.5027 255.224ZM49.5027 253.852C50.0907 253.852 50.5761 253.717 50.9587 253.446C51.3414 253.166 51.5327 252.737 51.5327 252.158C51.5327 251.617 51.3601 251.187 51.0147 250.87C50.6787 250.543 50.1747 250.38 49.5027 250.38C48.8401 250.38 48.3361 250.543 47.9907 250.87C47.6454 251.187 47.4727 251.617 47.4727 252.158C47.4727 252.737 47.6641 253.166 48.0467 253.446C48.4294 253.717 48.9147 253.852 49.5027 253.852ZM49.5027 249.064C49.9787 249.064 50.3614 248.943 50.6507 248.7C50.9401 248.457 51.0847 248.093 51.0847 247.608C51.0847 247.179 50.9401 246.838 50.6507 246.586C50.3707 246.334 49.9881 246.208 49.5027 246.208C49.0174 246.208 48.6301 246.334 48.3407 246.586C48.0607 246.838 47.9207 247.179 47.9207 247.608C47.9207 248.093 48.0654 248.457 48.3547 248.7C48.6441 248.943 49.0267 249.064 49.5027 249.064ZM56.9453 255V253.152H58.8493V255H56.9453ZM66.2078 255.224C65.1158 255.224 64.2805 254.963 63.7018 254.44C63.1231 253.917 62.8105 253.231 62.7638 252.382L64.2618 252.284C64.3178 252.853 64.5231 253.259 64.8778 253.502C65.2418 253.735 65.6898 253.852 66.2218 253.852C66.5858 253.852 66.9265 253.796 67.2438 253.684C67.5611 253.572 67.8131 253.395 67.9998 253.152C68.1958 252.909 68.2938 252.583 68.2938 252.172C68.2938 251.771 68.2051 251.439 68.0278 251.178C67.8598 250.917 67.6171 250.725 67.2998 250.604C66.9918 250.473 66.6371 250.408 66.2358 250.408H65.4658V249.092H66.2358C66.5531 249.092 66.8425 249.045 67.1038 248.952C67.3651 248.859 67.5705 248.705 67.7198 248.49C67.8785 248.275 67.9578 248 67.9578 247.664C67.9578 247.179 67.8085 246.815 67.5098 246.572C67.2205 246.329 66.8051 246.208 66.2638 246.208C65.7038 246.208 65.2791 246.325 64.9898 246.558C64.7098 246.791 64.5371 247.113 64.4718 247.524L62.9598 247.426C63.0625 246.651 63.3938 246.026 63.9538 245.55C64.5231 245.074 65.2978 244.836 66.2778 244.836C66.9311 244.836 67.4958 244.948 67.9718 245.172C68.4571 245.387 68.8305 245.695 69.0918 246.096C69.3531 246.497 69.4838 246.978 69.4838 247.538C69.4838 248.154 69.2878 248.653 68.8958 249.036C68.5131 249.409 67.9531 249.666 67.2158 249.806V249.54C68.0185 249.633 68.6531 249.923 69.1198 250.408C69.5865 250.884 69.8198 251.486 69.8198 252.214C69.8198 252.849 69.6658 253.39 69.3578 253.838C69.0591 254.286 68.6345 254.631 68.0838 254.874C67.5425 255.107 66.9171 255.224 66.2078 255.224ZM74.3083 255V247.916H71.7603V246.67H73.0203C73.3843 246.67 73.6783 246.619 73.9023 246.516C74.1263 246.404 74.2897 246.231 74.3923 245.998C74.495 245.765 74.5463 245.452 74.5463 245.06H75.7783V255H74.3083ZM71.2703 255V253.614H78.1023V255H71.2703Z" fill="#EC2222"/>
<path d="M89.7326 256.54C89.0886 255.56 88.6033 254.566 88.2766 253.558C87.9593 252.55 87.8006 251.537 87.8006 250.52C87.8006 248.457 88.4446 246.451 89.7326 244.5H91.0486C89.8819 246.516 89.2986 248.523 89.2986 250.52C89.2986 251.519 89.4433 252.522 89.7326 253.53C90.0313 254.529 90.4699 255.532 91.0486 256.54H89.7326ZM94.4451 251.556V250.268H101.193V251.556H94.4451ZM97.1751 254.286V247.538H98.4631V254.286H97.1751ZM107.25 255V252.9H102.518V251.626L107.096 245.06H108.72V251.542H109.91V252.9H108.72V255H107.25ZM103.96 251.542H107.25V247.02L103.96 251.542ZM114.58 255.224C113.918 255.224 113.339 255.107 112.844 254.874C112.359 254.631 111.972 254.3 111.682 253.88C111.402 253.451 111.239 252.961 111.192 252.41L112.718 252.312C112.784 252.825 112.98 253.213 113.306 253.474C113.633 253.726 114.058 253.852 114.58 253.852C115.168 253.852 115.635 253.675 115.98 253.32C116.326 252.956 116.498 252.443 116.498 251.78C116.498 251.351 116.419 250.977 116.26 250.66C116.111 250.343 115.896 250.105 115.616 249.946C115.336 249.778 115 249.694 114.608 249.694C114.244 249.694 113.899 249.787 113.572 249.974C113.255 250.151 113.031 250.399 112.9 250.716L111.346 250.688L111.99 245.06H117.464V246.446H113.264L112.858 249.876L112.564 249.666C112.714 249.386 112.905 249.153 113.138 248.966C113.381 248.779 113.647 248.639 113.936 248.546C114.235 248.443 114.534 248.392 114.832 248.392C115.476 248.392 116.036 248.537 116.512 248.826C116.998 249.115 117.371 249.517 117.632 250.03C117.894 250.543 118.024 251.131 118.024 251.794C118.024 252.457 117.88 253.049 117.59 253.572C117.301 254.095 116.895 254.501 116.372 254.79C115.859 255.079 115.262 255.224 114.58 255.224ZM122.051 255V253.152H123.955V255H122.051ZM127.869 255C127.869 254.263 127.977 253.605 128.191 253.026C128.406 252.447 128.784 251.906 129.325 251.402C129.876 250.889 130.637 250.375 131.607 249.862C132.027 249.647 132.368 249.442 132.629 249.246C132.891 249.05 133.082 248.84 133.203 248.616C133.325 248.392 133.385 248.121 133.385 247.804C133.385 247.477 133.32 247.197 133.189 246.964C133.059 246.731 132.863 246.549 132.601 246.418C132.34 246.278 132.013 246.208 131.621 246.208C130.987 246.208 130.487 246.376 130.123 246.712C129.769 247.048 129.545 247.529 129.451 248.154L127.925 248.056C128.028 247.076 128.397 246.297 129.031 245.718C129.666 245.13 130.529 244.836 131.621 244.836C132.331 244.836 132.928 244.957 133.413 245.2C133.908 245.443 134.281 245.783 134.533 246.222C134.785 246.661 134.911 247.169 134.911 247.748C134.911 248.261 134.827 248.705 134.659 249.078C134.491 249.451 134.211 249.797 133.819 250.114C133.427 250.431 132.891 250.772 132.209 251.136C131.64 251.444 131.164 251.747 130.781 252.046C130.408 252.335 130.123 252.615 129.927 252.886C129.741 253.147 129.638 253.39 129.619 253.614H134.925V255H127.869ZM140.828 255V252.9H136.096V251.626L140.674 245.06H142.298V251.542H143.488V252.9H142.298V255H140.828ZM137.538 251.542H140.828V247.02L137.538 251.542ZM146.128 249.876C145.559 249.876 145.078 249.666 144.686 249.246C144.294 248.826 144.098 248.215 144.098 247.412C144.098 246.6 144.294 245.989 144.686 245.578C145.078 245.158 145.559 244.948 146.128 244.948C146.707 244.948 147.188 245.158 147.57 245.578C147.962 245.989 148.158 246.6 148.158 247.412C148.158 248.215 147.962 248.826 147.57 249.246C147.188 249.666 146.707 249.876 146.128 249.876ZM146.128 248.938C146.408 248.938 146.628 248.807 146.786 248.546C146.954 248.285 147.038 247.907 147.038 247.412C147.038 246.917 146.954 246.539 146.786 246.278C146.628 246.017 146.408 245.886 146.128 245.886C145.848 245.886 145.624 246.017 145.456 246.278C145.298 246.539 145.218 246.917 145.218 247.412C145.218 247.907 145.298 248.285 145.456 248.546C145.624 248.807 145.848 248.938 146.128 248.938ZM144.672 255L150.566 245.06H151.7L145.806 255H144.672ZM150.244 255.112C149.666 255.112 149.18 254.902 148.788 254.482C148.406 254.062 148.214 253.451 148.214 252.648C148.214 251.836 148.406 251.225 148.788 250.814C149.18 250.394 149.666 250.184 150.244 250.184C150.814 250.184 151.294 250.394 151.686 250.814C152.078 251.225 152.274 251.836 152.274 252.648C152.274 253.451 152.078 254.062 151.686 254.482C151.294 254.902 150.814 255.112 150.244 255.112ZM150.244 254.174C150.524 254.174 150.744 254.043 150.902 253.782C151.07 253.521 151.154 253.143 151.154 252.648C151.154 252.153 151.07 251.775 150.902 251.514C150.744 251.253 150.524 251.122 150.244 251.122C149.964 251.122 149.74 251.253 149.572 251.514C149.414 251.775 149.334 252.153 149.334 252.648C149.334 253.143 149.414 253.521 149.572 253.782C149.74 254.043 149.964 254.174 150.244 254.174ZM156.273 256.54H154.957C155.536 255.532 155.97 254.529 156.259 253.53C156.558 252.522 156.707 251.519 156.707 250.52C156.707 248.523 156.124 246.516 154.957 244.5H156.273C157.561 246.451 158.205 248.457 158.205 250.52C158.205 251.537 158.042 252.55 157.715 253.558C157.398 254.566 156.917 255.56 156.273 256.54Z" fill="#EC2222"/>
<path d="M170.289 255L167.587 247.58H168.875L171.031 253.796L173.187 247.58H174.475L171.773 255H170.289ZM178.238 255.168C177.575 255.168 177.011 255.061 176.544 254.846C176.087 254.631 175.727 254.337 175.466 253.964C175.214 253.581 175.069 253.147 175.032 252.662L176.264 252.578C176.339 253.026 176.53 253.385 176.838 253.656C177.146 253.917 177.613 254.048 178.238 254.048C178.742 254.048 179.143 253.969 179.442 253.81C179.75 253.642 179.904 253.376 179.904 253.012C179.904 252.816 179.857 252.653 179.764 252.522C179.671 252.391 179.489 252.279 179.218 252.186C178.947 252.083 178.546 251.985 178.014 251.892C177.305 251.761 176.745 251.603 176.334 251.416C175.933 251.22 175.643 250.982 175.466 250.702C175.298 250.413 175.214 250.072 175.214 249.68C175.214 249.017 175.457 248.476 175.942 248.056C176.427 247.627 177.118 247.412 178.014 247.412C178.621 247.412 179.129 247.524 179.54 247.748C179.96 247.963 180.287 248.252 180.52 248.616C180.763 248.971 180.921 249.363 180.996 249.792L179.764 249.876C179.708 249.615 179.605 249.386 179.456 249.19C179.307 248.985 179.111 248.826 178.868 248.714C178.625 248.593 178.336 248.532 178 248.532C177.468 248.532 177.076 248.635 176.824 248.84C176.572 249.045 176.446 249.307 176.446 249.624C176.446 249.867 176.502 250.067 176.614 250.226C176.735 250.375 176.927 250.501 177.188 250.604C177.449 250.697 177.799 250.781 178.238 250.856C178.994 250.987 179.582 251.145 180.002 251.332C180.422 251.519 180.716 251.747 180.884 252.018C181.052 252.289 181.136 252.62 181.136 253.012C181.136 253.469 181.005 253.861 180.744 254.188C180.492 254.505 180.147 254.748 179.708 254.916C179.279 255.084 178.789 255.168 178.238 255.168ZM186.378 257.1V247.58H187.47L187.498 249.176L187.33 249.092C187.516 248.541 187.824 248.126 188.254 247.846C188.692 247.557 189.196 247.412 189.766 247.412C190.503 247.412 191.105 247.594 191.572 247.958C192.048 248.322 192.398 248.798 192.622 249.386C192.855 249.974 192.972 250.609 192.972 251.29C192.972 251.971 192.855 252.606 192.622 253.194C192.398 253.782 192.048 254.258 191.572 254.622C191.105 254.986 190.503 255.168 189.766 255.168C189.383 255.168 189.024 255.103 188.688 254.972C188.361 254.841 188.081 254.659 187.848 254.426C187.624 254.193 187.47 253.917 187.386 253.6L187.554 253.404V257.1H186.378ZM189.654 254.048C190.298 254.048 190.806 253.805 191.18 253.32C191.553 252.835 191.74 252.158 191.74 251.29C191.74 250.422 191.553 249.745 191.18 249.26C190.806 248.775 190.298 248.532 189.654 248.532C189.224 248.532 188.851 248.635 188.534 248.84C188.226 249.045 187.983 249.353 187.806 249.764C187.638 250.175 187.554 250.683 187.554 251.29C187.554 251.897 187.638 252.405 187.806 252.816C187.974 253.227 188.216 253.535 188.534 253.74C188.851 253.945 189.224 254.048 189.654 254.048ZM196.761 255.168C195.995 255.168 195.384 254.991 194.927 254.636C194.479 254.281 194.255 253.787 194.255 253.152C194.255 252.517 194.441 252.018 194.815 251.654C195.188 251.29 195.781 251.033 196.593 250.884L199.225 250.394C199.225 249.769 199.075 249.302 198.777 248.994C198.487 248.686 198.049 248.532 197.461 248.532C196.947 248.532 196.541 248.649 196.243 248.882C195.944 249.106 195.739 249.433 195.627 249.862L194.381 249.764C194.521 249.064 194.857 248.499 195.389 248.07C195.93 247.631 196.621 247.412 197.461 247.412C198.413 247.412 199.141 247.683 199.645 248.224C200.149 248.756 200.401 249.493 200.401 250.436V253.502C200.401 253.67 200.429 253.791 200.485 253.866C200.55 253.931 200.653 253.964 200.793 253.964H201.087V255C201.049 255.009 200.989 255.014 200.905 255.014C200.821 255.023 200.732 255.028 200.639 255.028C200.303 255.028 200.027 254.977 199.813 254.874C199.607 254.762 199.458 254.594 199.365 254.37C199.271 254.137 199.225 253.833 199.225 253.46L199.365 253.488C199.299 253.805 199.141 254.095 198.889 254.356C198.637 254.608 198.324 254.809 197.951 254.958C197.577 255.098 197.181 255.168 196.761 255.168ZM196.873 254.132C197.367 254.132 197.787 254.039 198.133 253.852C198.487 253.656 198.758 253.395 198.945 253.068C199.131 252.732 199.225 252.359 199.225 251.948V251.416L196.817 251.864C196.313 251.957 195.963 252.102 195.767 252.298C195.58 252.485 195.487 252.732 195.487 253.04C195.487 253.385 195.608 253.656 195.851 253.852C196.103 254.039 196.443 254.132 196.873 254.132ZM205.09 255.168C204.427 255.168 203.862 255.061 203.396 254.846C202.938 254.631 202.579 254.337 202.318 253.964C202.066 253.581 201.921 253.147 201.884 252.662L203.116 252.578C203.19 253.026 203.382 253.385 203.69 253.656C203.998 253.917 204.464 254.048 205.09 254.048C205.594 254.048 205.995 253.969 206.294 253.81C206.602 253.642 206.756 253.376 206.756 253.012C206.756 252.816 206.709 252.653 206.616 252.522C206.522 252.391 206.34 252.279 206.07 252.186C205.799 252.083 205.398 251.985 204.866 251.892C204.156 251.761 203.596 251.603 203.186 251.416C202.784 251.22 202.495 250.982 202.318 250.702C202.15 250.413 202.066 250.072 202.066 249.68C202.066 249.017 202.308 248.476 202.794 248.056C203.279 247.627 203.97 247.412 204.866 247.412C205.472 247.412 205.981 247.524 206.392 247.748C206.812 247.963 207.138 248.252 207.372 248.616C207.614 248.971 207.773 249.363 207.848 249.792L206.616 249.876C206.56 249.615 206.457 249.386 206.308 249.19C206.158 248.985 205.962 248.826 205.72 248.714C205.477 248.593 205.188 248.532 204.852 248.532C204.32 248.532 203.928 248.635 203.676 248.84C203.424 249.045 203.298 249.307 203.298 249.624C203.298 249.867 203.354 250.067 203.466 250.226C203.587 250.375 203.778 250.501 204.04 250.604C204.301 250.697 204.651 250.781 205.09 250.856C205.846 250.987 206.434 251.145 206.854 251.332C207.274 251.519 207.568 251.747 207.736 252.018C207.904 252.289 207.988 252.62 207.988 253.012C207.988 253.469 207.857 253.861 207.596 254.188C207.344 254.505 206.998 254.748 206.56 254.916C206.13 255.084 205.64 255.168 205.09 255.168ZM212.022 255C211.35 255 210.85 254.846 210.524 254.538C210.206 254.23 210.048 253.749 210.048 253.096V245.844H211.224V253.068C211.224 253.404 211.298 253.637 211.448 253.768C211.597 253.899 211.826 253.964 212.134 253.964H213.198V255H212.022ZM208.956 248.616V247.58H213.198V248.616H208.956ZM221.536 255.224C220.836 255.224 220.229 255.107 219.716 254.874C219.212 254.641 218.811 254.314 218.512 253.894C218.223 253.474 218.055 252.989 218.008 252.438L219.268 252.354C219.343 252.914 219.581 253.339 219.982 253.628C220.393 253.908 220.911 254.048 221.536 254.048C222.236 254.048 222.791 253.852 223.202 253.46C223.613 253.059 223.818 252.508 223.818 251.808C223.818 251.341 223.725 250.94 223.538 250.604C223.361 250.259 223.099 249.993 222.754 249.806C222.409 249.619 221.993 249.526 221.508 249.526C221.051 249.526 220.635 249.624 220.262 249.82C219.889 250.016 219.623 250.291 219.464 250.646H218.176L218.834 245.06H224.406V246.236H219.94L219.492 249.904L219.268 249.68C219.417 249.391 219.613 249.153 219.856 248.966C220.108 248.77 220.393 248.625 220.71 248.532C221.037 248.429 221.377 248.378 221.732 248.378C222.395 248.378 222.978 248.527 223.482 248.826C223.986 249.115 224.378 249.521 224.658 250.044C224.938 250.557 225.078 251.145 225.078 251.808C225.078 252.471 224.929 253.063 224.63 253.586C224.331 254.099 223.916 254.501 223.384 254.79C222.852 255.079 222.236 255.224 221.536 255.224ZM230.552 255V247.58H231.63L231.672 249.456L231.504 249.4C231.588 248.989 231.732 248.639 231.938 248.35C232.152 248.051 232.414 247.823 232.722 247.664C233.03 247.496 233.37 247.412 233.744 247.412C234.388 247.412 234.91 247.589 235.312 247.944C235.722 248.299 235.979 248.793 236.082 249.428L235.858 249.414C235.932 248.985 236.068 248.625 236.264 248.336C236.469 248.037 236.73 247.809 237.048 247.65C237.365 247.491 237.729 247.412 238.14 247.412C238.672 247.412 239.12 247.524 239.484 247.748C239.848 247.963 240.123 248.28 240.31 248.7C240.496 249.12 240.59 249.629 240.59 250.226V255H239.414V250.478C239.414 249.806 239.283 249.302 239.022 248.966C238.76 248.621 238.373 248.448 237.86 248.448C237.514 248.448 237.211 248.532 236.95 248.7C236.698 248.868 236.502 249.111 236.362 249.428C236.222 249.736 236.152 250.114 236.152 250.562V255H234.976V250.562C234.976 249.899 234.859 249.381 234.626 249.008C234.392 248.635 234 248.448 233.45 248.448C233.104 248.448 232.801 248.532 232.54 248.7C232.288 248.868 232.087 249.111 231.938 249.428C231.798 249.745 231.728 250.123 231.728 250.562V255H230.552ZM245.563 255.168C244.882 255.168 244.284 255.009 243.771 254.692C243.258 254.375 242.861 253.927 242.581 253.348C242.301 252.76 242.161 252.074 242.161 251.29C242.161 250.497 242.301 249.811 242.581 249.232C242.861 248.653 243.258 248.205 243.771 247.888C244.284 247.571 244.882 247.412 245.563 247.412C246.244 247.412 246.837 247.571 247.341 247.888C247.854 248.205 248.251 248.653 248.531 249.232C248.811 249.811 248.951 250.497 248.951 251.29C248.951 252.074 248.811 252.76 248.531 253.348C248.251 253.927 247.854 254.375 247.341 254.692C246.837 255.009 246.244 255.168 245.563 255.168ZM245.563 254.048C246.244 254.048 246.772 253.805 247.145 253.32C247.528 252.825 247.719 252.149 247.719 251.29C247.719 250.431 247.528 249.759 247.145 249.274C246.772 248.779 246.244 248.532 245.563 248.532C244.882 248.532 244.35 248.779 243.967 249.274C243.584 249.759 243.393 250.431 243.393 251.29C243.393 252.149 243.584 252.825 243.967 253.32C244.35 253.805 244.882 254.048 245.563 254.048ZM250.554 255V247.58H251.632L251.674 249.47L251.534 249.344C251.627 248.905 251.79 248.546 252.024 248.266C252.257 247.977 252.537 247.762 252.864 247.622C253.2 247.482 253.559 247.412 253.942 247.412C254.511 247.412 254.978 247.538 255.342 247.79C255.715 248.042 255.99 248.383 256.168 248.812C256.354 249.232 256.448 249.703 256.448 250.226V255H255.272V250.562C255.272 250.105 255.216 249.722 255.104 249.414C255.001 249.097 254.833 248.859 254.6 248.7C254.366 248.532 254.063 248.448 253.69 248.448C253.12 248.448 252.649 248.63 252.276 248.994C251.912 249.349 251.73 249.871 251.73 250.562V255H250.554ZM260.844 255C260.172 255 259.672 254.846 259.346 254.538C259.028 254.23 258.87 253.749 258.87 253.096V245.844H260.046V253.068C260.046 253.404 260.12 253.637 260.27 253.768C260.419 253.899 260.648 253.964 260.956 253.964H262.02V255H260.844ZM257.778 248.616V247.58H262.02V248.616H257.778ZM263.528 255V245.06H264.704V249.218L264.564 249.19C264.658 248.779 264.816 248.443 265.04 248.182C265.264 247.921 265.54 247.729 265.866 247.608C266.193 247.477 266.552 247.412 266.944 247.412C267.476 247.412 267.924 247.533 268.288 247.776C268.662 248.009 268.942 248.341 269.128 248.77C269.324 249.19 269.422 249.675 269.422 250.226V255H268.246V250.562C268.246 249.843 268.116 249.311 267.854 248.966C267.602 248.621 267.215 248.448 266.692 248.448C266.095 248.448 265.614 248.63 265.25 248.994C264.886 249.358 264.704 249.885 264.704 250.576V255H263.528ZM274.201 255.168C273.538 255.168 272.974 255.061 272.507 254.846C272.05 254.631 271.69 254.337 271.429 253.964C271.177 253.581 271.032 253.147 270.995 252.662L272.227 252.578C272.302 253.026 272.493 253.385 272.801 253.656C273.109 253.917 273.576 254.048 274.201 254.048C274.705 254.048 275.106 253.969 275.405 253.81C275.713 253.642 275.867 253.376 275.867 253.012C275.867 252.816 275.82 252.653 275.727 252.522C275.634 252.391 275.452 252.279 275.181 252.186C274.91 252.083 274.509 251.985 273.977 251.892C273.268 251.761 272.708 251.603 272.297 251.416C271.896 251.22 271.606 250.982 271.429 250.702C271.261 250.413 271.177 250.072 271.177 249.68C271.177 249.017 271.42 248.476 271.905 248.056C272.39 247.627 273.081 247.412 273.977 247.412C274.584 247.412 275.092 247.524 275.503 247.748C275.923 247.963 276.25 248.252 276.483 248.616C276.726 248.971 276.884 249.363 276.959 249.792L275.727 249.876C275.671 249.615 275.568 249.386 275.419 249.19C275.27 248.985 275.074 248.826 274.831 248.714C274.588 248.593 274.299 248.532 273.963 248.532C273.431 248.532 273.039 248.635 272.787 248.84C272.535 249.045 272.409 249.307 272.409 249.624C272.409 249.867 272.465 250.067 272.577 250.226C272.698 250.375 272.89 250.501 273.151 250.604C273.412 250.697 273.762 250.781 274.201 250.856C274.957 250.987 275.545 251.145 275.965 251.332C276.385 251.519 276.679 251.747 276.847 252.018C277.015 252.289 277.099 252.62 277.099 253.012C277.099 253.469 276.968 253.861 276.707 254.188C276.455 254.505 276.11 254.748 275.671 254.916C275.242 255.084 274.752 255.168 274.201 255.168Z" fill="#737373"/>
<path d="M18.48 91.08V80.4H19.392V91.08H18.48ZM19.032 90.168C18.368 90.168 17.792 90.048 17.304 89.808C16.816 89.56 16.428 89.22 16.14 88.788C15.86 88.356 15.696 87.856 15.648 87.288L16.956 87.216C17.004 87.6 17.116 87.928 17.292 88.2C17.468 88.464 17.7 88.668 17.988 88.812C18.284 88.948 18.64 89.016 19.056 89.016C19.416 89.016 19.724 88.972 19.98 88.884C20.236 88.788 20.428 88.652 20.556 88.476C20.692 88.3 20.76 88.08 20.76 87.816C20.76 87.576 20.704 87.368 20.592 87.192C20.48 87.008 20.264 86.84 19.944 86.688C19.624 86.528 19.156 86.376 18.54 86.232C17.876 86.072 17.344 85.892 16.944 85.692C16.544 85.492 16.256 85.248 16.08 84.96C15.912 84.664 15.828 84.296 15.828 83.856C15.828 83.384 15.944 82.968 16.176 82.608C16.408 82.24 16.736 81.956 17.16 81.756C17.592 81.548 18.108 81.444 18.708 81.444C19.348 81.444 19.892 81.56 20.34 81.792C20.796 82.024 21.156 82.344 21.42 82.752C21.684 83.16 21.848 83.628 21.912 84.156L20.604 84.228C20.564 83.916 20.464 83.636 20.304 83.388C20.152 83.14 19.94 82.948 19.668 82.812C19.396 82.668 19.068 82.596 18.684 82.596C18.204 82.596 17.824 82.708 17.544 82.932C17.264 83.156 17.124 83.452 17.124 83.82C17.124 84.06 17.18 84.26 17.292 84.42C17.412 84.58 17.616 84.72 17.904 84.84C18.2 84.96 18.62 85.084 19.164 85.212C19.884 85.38 20.456 85.584 20.88 85.824C21.304 86.056 21.608 86.332 21.792 86.652C21.976 86.972 22.068 87.336 22.068 87.744C22.068 88.24 21.94 88.672 21.684 89.04C21.428 89.4 21.072 89.68 20.616 89.88C20.16 90.072 19.632 90.168 19.032 90.168ZM26.2749 90.192C25.5389 90.192 24.9429 90.016 24.4869 89.664C24.0309 89.312 23.7149 88.844 23.5389 88.26L24.8469 88.176C24.9429 88.44 25.1069 88.648 25.3389 88.8C25.5789 88.944 25.8909 89.016 26.2749 89.016C26.9469 89.016 27.4549 88.752 27.7989 88.224C28.1509 87.696 28.3309 86.84 28.3389 85.656L28.5789 85.716C28.3789 86.22 28.0749 86.604 27.6669 86.868C27.2669 87.132 26.7949 87.264 26.2509 87.264C25.6909 87.264 25.1989 87.144 24.7749 86.904C24.3509 86.656 24.0189 86.312 23.7789 85.872C23.5389 85.432 23.4189 84.92 23.4189 84.336C23.4189 83.704 23.5469 83.164 23.8029 82.716C24.0589 82.26 24.4149 81.908 24.8709 81.66C25.3269 81.412 25.8549 81.288 26.4549 81.288C27.1909 81.288 27.7909 81.452 28.2549 81.78C28.7269 82.108 29.0749 82.572 29.2989 83.172C29.5309 83.764 29.6469 84.476 29.6469 85.308C29.6469 86.028 29.5869 86.688 29.4669 87.288C29.3469 87.888 29.1509 88.404 28.8789 88.836C28.6149 89.268 28.2669 89.604 27.8349 89.844C27.4109 90.076 26.8909 90.192 26.2749 90.192ZM26.4309 86.148C26.7909 86.148 27.1069 86.076 27.3789 85.932C27.6509 85.788 27.8629 85.584 28.0149 85.32C28.1669 85.048 28.2429 84.72 28.2429 84.336C28.2429 83.968 28.1709 83.644 28.0269 83.364C27.8909 83.076 27.6909 82.852 27.4269 82.692C27.1629 82.524 26.8469 82.44 26.4789 82.44C26.1189 82.44 25.8069 82.52 25.5429 82.68C25.2869 82.84 25.0869 83.064 24.9429 83.352C24.8069 83.632 24.7389 83.956 24.7389 84.324C24.7389 84.7 24.8109 85.024 24.9549 85.296C25.0989 85.568 25.2949 85.78 25.5429 85.932C25.7989 86.076 26.0949 86.148 26.4309 86.148ZM34.1193 90.192C33.4713 90.192 32.8993 90.096 32.4033 89.904C31.9073 89.712 31.5193 89.428 31.2393 89.052C30.9673 88.676 30.8313 88.216 30.8313 87.672C30.8313 87.048 31.0193 86.532 31.3953 86.124C31.7713 85.716 32.2753 85.444 32.9073 85.308L32.9313 85.548C32.4193 85.428 32.0073 85.208 31.6953 84.888C31.3913 84.568 31.2393 84.148 31.2393 83.628C31.2393 83.172 31.3553 82.768 31.5873 82.416C31.8193 82.064 32.1473 81.788 32.5713 81.588C33.0033 81.388 33.5193 81.288 34.1193 81.288C34.7113 81.288 35.2233 81.388 35.6553 81.588C36.0873 81.788 36.4153 82.064 36.6393 82.416C36.8713 82.768 36.9873 83.172 36.9873 83.628C36.9873 84.148 36.8353 84.568 36.5313 84.888C36.2273 85.2 35.8153 85.42 35.2953 85.548L35.3193 85.308C35.9593 85.444 36.4673 85.716 36.8433 86.124C37.2193 86.532 37.4073 87.048 37.4073 87.672C37.4073 88.216 37.2673 88.676 36.9873 89.052C36.7153 89.428 36.3313 89.712 35.8353 89.904C35.3393 90.096 34.7673 90.192 34.1193 90.192ZM34.1193 89.004C34.7113 89.004 35.1793 88.884 35.5233 88.644C35.8753 88.396 36.0513 88.028 36.0513 87.54C36.0513 87.076 35.8913 86.704 35.5713 86.424C35.2593 86.144 34.7753 86.004 34.1193 86.004C33.4633 86.004 32.9753 86.144 32.6553 86.424C32.3353 86.704 32.1753 87.076 32.1753 87.54C32.1753 88.028 32.3513 88.396 32.7033 88.644C33.0553 88.884 33.5273 89.004 34.1193 89.004ZM34.1193 84.936C34.6073 84.936 34.9833 84.836 35.2473 84.636C35.5193 84.428 35.6553 84.112 35.6553 83.688C35.6553 83.32 35.5233 83.024 35.2593 82.8C35.0033 82.576 34.6233 82.464 34.1193 82.464C33.6153 82.464 33.2313 82.576 32.9673 82.8C32.7033 83.024 32.5713 83.32 32.5713 83.688C32.5713 84.112 32.7073 84.428 32.9793 84.636C33.2513 84.836 33.6313 84.936 34.1193 84.936ZM38.3673 90V88.488H39.9153V90H38.3673ZM41.126 90C41.126 89.36 41.222 88.788 41.414 88.284C41.606 87.78 41.934 87.312 42.398 86.88C42.862 86.448 43.502 86.016 44.318 85.584C44.71 85.384 45.022 85.2 45.254 85.032C45.494 84.856 45.666 84.676 45.77 84.492C45.874 84.308 45.926 84.084 45.926 83.82C45.926 83.548 45.866 83.316 45.746 83.124C45.634 82.924 45.466 82.768 45.242 82.656C45.018 82.536 44.734 82.476 44.39 82.476C43.846 82.476 43.414 82.624 43.094 82.92C42.782 83.208 42.586 83.624 42.506 84.168L41.162 84.084C41.258 83.228 41.582 82.548 42.134 82.044C42.694 81.54 43.446 81.288 44.39 81.288C44.998 81.288 45.514 81.396 45.938 81.612C46.37 81.82 46.698 82.112 46.922 82.488C47.154 82.864 47.27 83.3 47.27 83.796C47.27 84.228 47.198 84.6 47.054 84.912C46.91 85.224 46.67 85.516 46.334 85.788C45.998 86.052 45.542 86.336 44.966 86.64C44.23 87.032 43.674 87.42 43.298 87.804C42.922 88.18 42.722 88.516 42.698 88.812H47.27V90H41.126ZM48.6846 90C48.6846 89.36 48.7806 88.788 48.9726 88.284C49.1646 87.78 49.4926 87.312 49.9566 86.88C50.4206 86.448 51.0606 86.016 51.8766 85.584C52.2686 85.384 52.5806 85.2 52.8126 85.032C53.0526 84.856 53.2246 84.676 53.3286 84.492C53.4326 84.308 53.4846 84.084 53.4846 83.82C53.4846 83.548 53.4246 83.316 53.3046 83.124C53.1926 82.924 53.0246 82.768 52.8006 82.656C52.5766 82.536 52.2926 82.476 51.9486 82.476C51.4046 82.476 50.9726 82.624 50.6526 82.92C50.3406 83.208 50.1446 83.624 50.0646 84.168L48.7206 84.084C48.8166 83.228 49.1406 82.548 49.6926 82.044C50.2526 81.54 51.0046 81.288 51.9486 81.288C52.5566 81.288 53.0726 81.396 53.4966 81.612C53.9286 81.82 54.2566 82.112 54.4806 82.488C54.7126 82.864 54.8286 83.3 54.8286 83.796C54.8286 84.228 54.7566 84.6 54.6126 84.912C54.4686 85.224 54.2286 85.516 53.8926 85.788C53.5566 86.052 53.1006 86.336 52.5246 86.64C51.7886 87.032 51.2326 87.42 50.8566 87.804C50.4806 88.18 50.2806 88.516 50.2566 88.812H54.8286V90H48.6846Z" fill="#06AED4"/>
<rect width="57" height="18" transform="translate(250 18)" fill="white"/>
<path d="M257.857 32.08V21.4H258.769V32.08H257.857ZM258.409 31.168C257.745 31.168 257.169 31.048 256.681 30.808C256.193 30.56 255.805 30.22 255.517 29.788C255.237 29.356 255.073 28.856 255.025 28.288L256.333 28.216C256.381 28.6 256.493 28.928 256.669 29.2C256.845 29.464 257.077 29.668 257.365 29.812C257.661 29.948 258.017 30.016 258.433 30.016C258.793 30.016 259.101 29.972 259.357 29.884C259.613 29.788 259.805 29.652 259.933 29.476C260.069 29.3 260.137 29.08 260.137 28.816C260.137 28.576 260.081 28.368 259.969 28.192C259.857 28.008 259.641 27.84 259.321 27.688C259.001 27.528 258.533 27.376 257.917 27.232C257.253 27.072 256.721 26.892 256.321 26.692C255.921 26.492 255.633 26.248 255.457 25.96C255.289 25.664 255.205 25.296 255.205 24.856C255.205 24.384 255.321 23.968 255.553 23.608C255.785 23.24 256.113 22.956 256.537 22.756C256.969 22.548 257.485 22.444 258.085 22.444C258.725 22.444 259.269 22.56 259.717 22.792C260.173 23.024 260.533 23.344 260.797 23.752C261.061 24.16 261.225 24.628 261.289 25.156L259.981 25.228C259.941 24.916 259.841 24.636 259.681 24.388C259.529 24.14 259.317 23.948 259.045 23.812C258.773 23.668 258.445 23.596 258.061 23.596C257.581 23.596 257.201 23.708 256.921 23.932C256.641 24.156 256.501 24.452 256.501 24.82C256.501 25.06 256.557 25.26 256.669 25.42C256.789 25.58 256.993 25.72 257.281 25.84C257.577 25.96 257.997 26.084 258.541 26.212C259.261 26.38 259.833 26.584 260.257 26.824C260.681 27.056 260.985 27.332 261.169 27.652C261.353 27.972 261.445 28.336 261.445 28.744C261.445 29.24 261.317 29.672 261.061 30.04C260.805 30.4 260.449 30.68 259.993 30.88C259.537 31.072 259.009 31.168 258.409 31.168ZM262.796 31C262.796 30.36 262.892 29.788 263.084 29.284C263.276 28.78 263.604 28.312 264.068 27.88C264.532 27.448 265.172 27.016 265.988 26.584C266.38 26.384 266.692 26.2 266.924 26.032C267.164 25.856 267.336 25.676 267.44 25.492C267.544 25.308 267.596 25.084 267.596 24.82C267.596 24.548 267.536 24.316 267.416 24.124C267.304 23.924 267.136 23.768 266.912 23.656C266.688 23.536 266.404 23.476 266.06 23.476C265.516 23.476 265.084 23.624 264.764 23.92C264.452 24.208 264.256 24.624 264.176 25.168L262.832 25.084C262.928 24.228 263.252 23.548 263.804 23.044C264.364 22.54 265.116 22.288 266.06 22.288C266.668 22.288 267.184 22.396 267.608 22.612C268.04 22.82 268.368 23.112 268.592 23.488C268.824 23.864 268.94 24.3 268.94 24.796C268.94 25.228 268.868 25.6 268.724 25.912C268.58 26.224 268.34 26.516 268.004 26.788C267.668 27.052 267.212 27.336 266.636 27.64C265.9 28.032 265.344 28.42 264.968 28.804C264.592 29.18 264.392 29.516 264.368 29.812H268.94V31H262.796ZM273.402 31.192C272.754 31.192 272.182 31.096 271.686 30.904C271.19 30.712 270.802 30.428 270.522 30.052C270.25 29.676 270.114 29.216 270.114 28.672C270.114 28.048 270.302 27.532 270.678 27.124C271.054 26.716 271.558 26.444 272.19 26.308L272.214 26.548C271.702 26.428 271.29 26.208 270.978 25.888C270.674 25.568 270.522 25.148 270.522 24.628C270.522 24.172 270.638 23.768 270.87 23.416C271.102 23.064 271.43 22.788 271.854 22.588C272.286 22.388 272.802 22.288 273.402 22.288C273.994 22.288 274.506 22.388 274.938 22.588C275.37 22.788 275.698 23.064 275.922 23.416C276.154 23.768 276.27 24.172 276.27 24.628C276.27 25.148 276.118 25.568 275.814 25.888C275.51 26.2 275.098 26.42 274.578 26.548L274.602 26.308C275.242 26.444 275.75 26.716 276.126 27.124C276.502 27.532 276.69 28.048 276.69 28.672C276.69 29.216 276.55 29.676 276.27 30.052C275.998 30.428 275.614 30.712 275.118 30.904C274.622 31.096 274.05 31.192 273.402 31.192ZM273.402 30.004C273.994 30.004 274.462 29.884 274.806 29.644C275.158 29.396 275.334 29.028 275.334 28.54C275.334 28.076 275.174 27.704 274.854 27.424C274.542 27.144 274.058 27.004 273.402 27.004C272.746 27.004 272.258 27.144 271.938 27.424C271.618 27.704 271.458 28.076 271.458 28.54C271.458 29.028 271.634 29.396 271.986 29.644C272.338 29.884 272.81 30.004 273.402 30.004ZM273.402 25.936C273.89 25.936 274.266 25.836 274.53 25.636C274.802 25.428 274.938 25.112 274.938 24.688C274.938 24.32 274.806 24.024 274.542 23.8C274.286 23.576 273.906 23.464 273.402 23.464C272.898 23.464 272.514 23.576 272.25 23.8C271.986 24.024 271.854 24.32 271.854 24.688C271.854 25.112 271.99 25.428 272.262 25.636C272.534 25.836 272.914 25.936 273.402 25.936ZM281.778 31V29.224H277.482V28.12L281.622 22.48H283.074V28.048H284.118V29.224H283.074V31H281.778ZM278.958 28.048H281.778V24.28L278.958 28.048ZM285.197 31V29.488H286.745V31H285.197ZM291.076 31.192C290.444 31.192 289.904 31.092 289.456 30.892C289.008 30.684 288.656 30.396 288.4 30.028C288.144 29.66 287.996 29.236 287.956 28.756L289.288 28.672C289.352 29.12 289.54 29.456 289.852 29.68C290.172 29.896 290.58 30.004 291.076 30.004C291.636 30.004 292.076 29.848 292.396 29.536C292.724 29.224 292.888 28.788 292.888 28.228C292.888 27.86 292.812 27.544 292.66 27.28C292.516 27.008 292.308 26.8 292.036 26.656C291.764 26.504 291.44 26.428 291.064 26.428C290.688 26.428 290.352 26.508 290.056 26.668C289.76 26.828 289.548 27.048 289.42 27.328H288.076L288.652 22.48H293.644V23.668H289.804L289.444 26.584L289.24 26.404C289.376 26.164 289.548 25.968 289.756 25.816C289.964 25.656 290.204 25.536 290.476 25.456C290.756 25.368 291.052 25.324 291.364 25.324C291.94 25.324 292.44 25.448 292.864 25.696C293.296 25.944 293.632 26.288 293.872 26.728C294.112 27.168 294.232 27.668 294.232 28.228C294.232 28.812 294.1 29.328 293.836 29.776C293.572 30.224 293.204 30.572 292.732 30.82C292.26 31.068 291.708 31.192 291.076 31.192ZM298.764 31.192C298.132 31.192 297.592 31.092 297.144 30.892C296.696 30.684 296.344 30.396 296.088 30.028C295.832 29.66 295.684 29.236 295.644 28.756L296.976 28.672C297.04 29.12 297.228 29.456 297.54 29.68C297.86 29.896 298.268 30.004 298.764 30.004C299.324 30.004 299.764 29.848 300.084 29.536C300.412 29.224 300.576 28.788 300.576 28.228C300.576 27.86 300.5 27.544 300.348 27.28C300.204 27.008 299.996 26.8 299.724 26.656C299.452 26.504 299.128 26.428 298.752 26.428C298.376 26.428 298.04 26.508 297.744 26.668C297.448 26.828 297.236 27.048 297.108 27.328H295.764L296.34 22.48H301.332V23.668H297.492L297.132 26.584L296.928 26.404C297.064 26.164 297.236 25.968 297.444 25.816C297.652 25.656 297.892 25.536 298.164 25.456C298.444 25.368 298.74 25.324 299.052 25.324C299.628 25.324 300.128 25.448 300.552 25.696C300.984 25.944 301.32 26.288 301.56 26.728C301.8 27.168 301.92 27.668 301.92 28.228C301.92 28.812 301.788 29.328 301.524 29.776C301.26 30.224 300.892 30.572 300.42 30.82C299.948 31.068 299.396 31.192 298.764 31.192Z" fill="#EC2222"/>
</g>
</g>
<defs>
<filter id="filter0_dddddddd_696_1818" x="-26.0626" y="-26.0626" width="372.125" height="336.125" filterUnits="userSpaceOnUse" color-interpolation-filters="sRGB">
<feFlood flood-opacity="0" result="BackgroundImageFix"/>
<feColorMatrix in="SourceAlpha" type="matrix" values="0 0 0 0 0 0 0 0 0 0 0 0 0 0 0 0 0 0 127 0" result="hardAlpha"/>
<feMorphology radius="1" operator="dilate" in="SourceAlpha" result="effect1_dropShadow_696_1818"/>
<feOffset/>
<feColorMatrix type="matrix" values="0 0 0 0 0.0431373 0 0 0 0 0.0431373 0 0 0 0 0.0431373 0 0 0 0.05 0"/>
<feBlend mode="normal" in2="BackgroundImageFix" result="effect1_dropShadow_696_1818"/>
<feColorMatrix in="SourceAlpha" type="matrix" values="0 0 0 0 0 0 0 0 0 0 0 0 0 0 0 0 0 0 127 0" result="hardAlpha"/>
<feOffset dy="1"/>
<feGaussianBlur stdDeviation="1"/>
<feColorMatrix type="matrix" values="0 0 0 0 0.0431373 0 0 0 0 0.0431373 0 0 0 0 0.0431373 0 0 0 0.06 0"/>
<feBlend mode="normal" in2="effect1_dropShadow_696_1818" result="effect2_dropShadow_696_1818"/>
<feColorMatrix in="SourceAlpha" type="matrix" values="0 0 0 0 0 0 0 0 0 0 0 0 0 0 0 0 0 0 127 0" result="hardAlpha"/>
<feMorphology radius="1" operator="dilate" in="SourceAlpha" result="effect3_dropShadow_696_1818"/>
<feOffset/>
<feColorMatrix type="matrix" values="0 0 0 0 0.0431373 0 0 0 0 0.0431373 0 0 0 0 0.0431373 0 0 0 0.05 0"/>
<feBlend mode="normal" in2="effect2_dropShadow_696_1818" result="effect3_dropShadow_696_1818"/>
<feColorMatrix in="SourceAlpha" type="matrix" values="0 0 0 0 0 0 0 0 0 0 0 0 0 0 0 0 0 0 127 0" result="hardAlpha"/>
<feOffset dy="1"/>
<feGaussianBlur stdDeviation="1"/>
<feColorMatrix type="matrix" values="0 0 0 0 0.0431373 0 0 0 0 0.0431373 0 0 0 0 0.0431373 0 0 0 0.06 0"/>
<feBlend mode="normal" in2="effect3_dropShadow_696_1818" result="effect4_dropShadow_696_1818"/>
<feColorMatrix in="SourceAlpha" type="matrix" values="0 0 0 0 0 0 0 0 0 0 0 0 0 0 0 0 0 0 127 0" result="hardAlpha"/>
<feOffset dy="1"/>
<feGaussianBlur stdDeviation="1"/>
<feColorMatrix type="matrix" values="0 0 0 0 0.0431373 0 0 0 0 0.0431373 0 0 0 0 0.0431373 0 0 0 0.05 0"/>
<feBlend mode="normal" in2="effect4_dropShadow_696_1818" result="effect5_dropShadow_696_1818"/>
<feColorMatrix in="SourceAlpha" type="matrix" values="0 0 0 0 0 0 0 0 0 0 0 0 0 0 0 0 0 0 127 0" result="hardAlpha"/>
<feMorphology radius="0.946184" operator="dilate" in="SourceAlpha" result="effect6_dropShadow_696_1818"/>
<feOffset/>
<feComposite in2="hardAlpha" operator="out"/>
<feColorMatrix type="matrix" values="0 0 0 0 0.0431373 0 0 0 0 0.0431373 0 0 0 0 0.0431373 0 0 0 0.05 0"/>
<feBlend mode="normal" in2="effect5_dropShadow_696_1818" result="effect6_dropShadow_696_1818"/>
<feColorMatrix in="SourceAlpha" type="matrix" values="0 0 0 0 0 0 0 0 0 0 0 0 0 0 0 0 0 0 127 0" result="hardAlpha"/>
<feOffset dy="3.78474"/>
<feGaussianBlur stdDeviation="3.78474"/>
<feComposite in2="hardAlpha" operator="out"/>
<feColorMatrix type="matrix" values="0 0 0 0 0.0431373 0 0 0 0 0.0431373 0 0 0 0 0.0431373 0 0 0 0.06 0"/>
<feBlend mode="normal" in2="effect6_dropShadow_696_1818" result="effect7_dropShadow_696_1818"/>
<feColorMatrix in="SourceAlpha" type="matrix" values="0 0 0 0 0 0 0 0 0 0 0 0 0 0 0 0 0 0 127 0" result="hardAlpha"/>
<feMorphology radius="8" operator="dilate" in="SourceAlpha" result="effect8_dropShadow_696_1818"/>
<feOffset/>
<feComposite in2="hardAlpha" operator="out"/>
<feColorMatrix type="matrix" values="0 0 0 0 0 0 0 0 0 0 0 0 0 0 0 0 0 0 0.02 0"/>
<feBlend mode="normal" in2="effect7_dropShadow_696_1818" result="effect8_dropShadow_696_1818"/>
<feBlend mode="normal" in="SourceGraphic" in2="effect8_dropShadow_696_1818" result="shape"/>
</filter>
<clipPath id="clip0_696_1818">
<path d="M8 20C8 13.3726 13.3726 8 20 8H300C306.627 8 312 13.3726 312 20V264C312 270.627 306.627 276 300 276H20C13.3726 276 8 270.627 8 264V20Z" fill="white"/>
</clipPath>
</defs>
</svg>
