<svg width="463" height="313" viewBox="0 0 463 313" fill="none" xmlns="http://www.w3.org/2000/svg">
<g filter="url(#filter0_dddddd_468_39358)">
<g clip-path="url(#clip0_468_39358)">
<path d="M18 22C18 15.3726 23.3726 10 30 10H433C439.627 10 445 15.3726 445 22V266C445 272.627 439.627 278 433 278H30C23.3726 278 18 272.627 18 266V22Z" fill="white"/>
<path d="M35.581 41V31.06H41.825V32.236H36.785V35.442H41.657V36.59H36.785V39.824H41.937V41H35.581ZM42.9627 41L45.6927 37.192L43.1027 33.58H44.4747L46.4207 36.38L48.3107 33.58H49.7107L47.1487 37.22L49.8367 41H48.4647L46.4207 38.004L44.3627 41H42.9627ZM51.0263 43.1V33.58H52.1183L52.1463 35.176L51.9783 35.092C52.1649 34.5413 52.4729 34.126 52.9023 33.846C53.3409 33.5567 53.8449 33.412 54.4143 33.412C55.1516 33.412 55.7536 33.594 56.2203 33.958C56.6963 34.322 57.0463 34.798 57.2703 35.386C57.5036 35.974 57.6202 36.6087 57.6202 37.29C57.6202 37.9713 57.5036 38.606 57.2703 39.194C57.0463 39.782 56.6963 40.258 56.2203 40.622C55.7536 40.986 55.1516 41.168 54.4143 41.168C54.0316 41.168 53.6723 41.1027 53.3363 40.972C53.0096 40.8413 52.7296 40.6593 52.4963 40.426C52.2723 40.1927 52.1183 39.9173 52.0343 39.6L52.2023 39.404V43.1H51.0263ZM54.3023 40.048C54.9463 40.048 55.4549 39.8053 55.8283 39.32C56.2016 38.8347 56.3883 38.158 56.3883 37.29C56.3883 36.422 56.2016 35.7453 55.8283 35.26C55.4549 34.7747 54.9463 34.532 54.3023 34.532C53.8729 34.532 53.4996 34.6347 53.1823 34.84C52.8743 35.0453 52.6316 35.3533 52.4543 35.764C52.2863 36.1747 52.2023 36.6833 52.2023 37.29C52.2023 37.8967 52.2863 38.4053 52.4543 38.816C52.6223 39.2267 52.8649 39.5347 53.1823 39.74C53.4996 39.9453 53.8729 40.048 54.3023 40.048ZM62.1137 41.168C61.4137 41.168 60.807 41.0093 60.2937 40.692C59.7897 40.3747 59.3977 39.9267 59.1177 39.348C58.847 38.76 58.7117 38.074 58.7117 37.29C58.7117 36.506 58.847 35.8247 59.1177 35.246C59.3977 34.6673 59.785 34.2193 60.2797 33.902C60.7837 33.5753 61.3764 33.412 62.0577 33.412C62.7017 33.412 63.271 33.566 63.7657 33.874C64.2604 34.1727 64.643 34.6113 64.9137 35.19C65.1937 35.7687 65.3337 36.4733 65.3337 37.304V37.654H59.9437C59.9904 38.4473 60.2004 39.0447 60.5737 39.446C60.9564 39.8473 61.4697 40.048 62.1137 40.048C62.599 40.048 62.9957 39.936 63.3037 39.712C63.621 39.4787 63.8404 39.1753 63.9617 38.802L65.2217 38.9C65.0257 39.5627 64.6524 40.1087 64.1017 40.538C63.5604 40.958 62.8977 41.168 62.1137 41.168ZM59.9437 36.618H64.0457C63.9897 35.8993 63.7797 35.372 63.4157 35.036C63.061 34.7 62.6084 34.532 62.0577 34.532C61.4884 34.532 61.017 34.7093 60.6437 35.064C60.2797 35.4093 60.0464 35.9273 59.9437 36.618ZM69.8246 41.168C69.134 41.168 68.532 41.0093 68.0186 40.692C67.5146 40.3747 67.1226 39.9267 66.8426 39.348C66.5626 38.76 66.4226 38.074 66.4226 37.29C66.4226 36.506 66.5626 35.8247 66.8426 35.246C67.1226 34.6673 67.5146 34.2193 68.0186 33.902C68.532 33.5753 69.134 33.412 69.8246 33.412C70.394 33.412 70.898 33.5147 71.3366 33.72C71.7846 33.916 72.1486 34.2053 72.4286 34.588C72.7086 34.9707 72.8906 35.4373 72.9746 35.988L71.7426 36.072C71.6586 35.5773 71.444 35.1993 71.0986 34.938C70.7533 34.6673 70.3286 34.532 69.8246 34.532C69.1433 34.532 68.6113 34.7793 68.2286 35.274C67.846 35.7593 67.6546 36.4313 67.6546 37.29C67.6546 38.1487 67.846 38.8253 68.2286 39.32C68.6113 39.8053 69.1433 40.048 69.8246 40.048C70.3286 40.048 70.7533 39.908 71.0986 39.628C71.444 39.348 71.6586 38.928 71.7426 38.368L72.9746 38.452C72.8906 39.0027 72.7086 39.4833 72.4286 39.894C72.1486 40.2953 71.7846 40.608 71.3366 40.832C70.898 41.056 70.394 41.168 69.8246 41.168ZM76.8614 41C76.1894 41 75.6901 40.846 75.3634 40.538C75.0461 40.23 74.8874 39.7493 74.8874 39.096V31.844H76.0634V39.068C76.0634 39.404 76.1381 39.6373 76.2874 39.768C76.4367 39.8987 76.6654 39.964 76.9734 39.964H78.0374V41H76.8614ZM73.7954 34.616V33.58H78.0374V34.616H73.7954ZM82.3071 41.168C81.6071 41.168 81.0004 41.0093 80.4871 40.692C79.9831 40.3747 79.5911 39.9267 79.3111 39.348C79.0404 38.76 78.9051 38.074 78.9051 37.29C78.9051 36.506 79.0404 35.8247 79.3111 35.246C79.5911 34.6673 79.9784 34.2193 80.4731 33.902C80.9771 33.5753 81.5697 33.412 82.2511 33.412C82.8951 33.412 83.4644 33.566 83.9591 33.874C84.4537 34.1727 84.8364 34.6113 85.1071 35.19C85.3871 35.7687 85.5271 36.4733 85.5271 37.304V37.654H80.1371C80.1837 38.4473 80.3937 39.0447 80.7671 39.446C81.1497 39.8473 81.6631 40.048 82.3071 40.048C82.7924 40.048 83.1891 39.936 83.4971 39.712C83.8144 39.4787 84.0337 39.1753 84.1551 38.802L85.4151 38.9C85.2191 39.5627 84.8457 40.1087 84.2951 40.538C83.7537 40.958 83.0911 41.168 82.3071 41.168ZM80.1371 36.618H84.2391C84.1831 35.8993 83.9731 35.372 83.6091 35.036C83.2544 34.7 82.8017 34.532 82.2511 34.532C81.6817 34.532 81.2104 34.7093 80.8371 35.064C80.4731 35.4093 80.2397 35.9273 80.1371 36.618ZM89.752 41.168C89.108 41.168 88.548 41.0093 88.072 40.692C87.6053 40.3747 87.246 39.9267 86.994 39.348C86.742 38.7693 86.616 38.0833 86.616 37.29C86.616 36.4967 86.742 35.8107 86.994 35.232C87.246 34.6533 87.6053 34.2053 88.072 33.888C88.548 33.5707 89.108 33.412 89.752 33.412C90.2467 33.412 90.6993 33.5193 91.11 33.734C91.5207 33.9393 91.8287 34.2333 92.034 34.616V31.06H93.21V41H92.146L92.104 39.88C91.8987 40.2813 91.586 40.5987 91.166 40.832C90.746 41.056 90.2747 41.168 89.752 41.168ZM89.99 40.048C90.4287 40.048 90.7973 39.936 91.096 39.712C91.404 39.488 91.6373 39.1707 91.796 38.76C91.9547 38.34 92.034 37.85 92.034 37.29C92.034 36.7113 91.9547 36.2167 91.796 35.806C91.6373 35.3953 91.404 35.0827 91.096 34.868C90.7973 34.644 90.4287 34.532 89.99 34.532C89.3367 34.532 88.814 34.7793 88.422 35.274C88.0393 35.7593 87.848 36.4313 87.848 37.29C87.848 38.1393 88.0393 38.8113 88.422 39.306C88.814 39.8007 89.3367 40.048 89.99 40.048ZM98.9462 41V33.58H100.122V41H98.9462ZM98.9182 32.418V31.046H100.15V32.418H98.9182ZM102.501 41V33.58H103.579L103.621 35.47L103.481 35.344C103.574 34.9053 103.738 34.546 103.971 34.266C104.204 33.9767 104.484 33.762 104.811 33.622C105.147 33.482 105.506 33.412 105.889 33.412C106.458 33.412 106.925 33.538 107.289 33.79C107.662 34.042 107.938 34.3827 108.115 34.812C108.302 35.232 108.395 35.7033 108.395 36.226V41H107.219V36.562C107.219 36.1047 107.163 35.722 107.051 35.414C106.948 35.0967 106.78 34.8587 106.547 34.7C106.314 34.532 106.01 34.448 105.637 34.448C105.068 34.448 104.596 34.63 104.223 34.994C103.859 35.3487 103.677 35.8713 103.677 36.562V41H102.501ZM113.37 41.168C112.679 41.168 112.077 41.0093 111.564 40.692C111.06 40.3747 110.668 39.9267 110.388 39.348C110.108 38.76 109.968 38.074 109.968 37.29C109.968 36.506 110.108 35.8247 110.388 35.246C110.668 34.6673 111.06 34.2193 111.564 33.902C112.077 33.5753 112.679 33.412 113.37 33.412C113.939 33.412 114.443 33.5147 114.882 33.72C115.33 33.916 115.694 34.2053 115.974 34.588C116.254 34.9707 116.436 35.4373 116.52 35.988L115.288 36.072C115.204 35.5773 114.989 35.1993 114.644 34.938C114.298 34.6673 113.874 34.532 113.37 34.532C112.688 34.532 112.156 34.7793 111.774 35.274C111.391 35.7593 111.2 36.4313 111.2 37.29C111.2 38.1487 111.391 38.8253 111.774 39.32C112.156 39.8053 112.688 40.048 113.37 40.048C113.874 40.048 114.298 39.908 114.644 39.628C114.989 39.348 115.204 38.928 115.288 38.368L116.52 38.452C116.436 39.0027 116.254 39.4833 115.974 39.894C115.694 40.2953 115.33 40.608 114.882 40.832C114.443 41.056 113.939 41.168 113.37 41.168ZM120.875 41.168C120.194 41.168 119.597 41.0093 119.083 40.692C118.57 40.3747 118.173 39.9267 117.893 39.348C117.613 38.76 117.473 38.074 117.473 37.29C117.473 36.4967 117.613 35.8107 117.893 35.232C118.173 34.6533 118.57 34.2053 119.083 33.888C119.597 33.5707 120.194 33.412 120.875 33.412C121.557 33.412 122.149 33.5707 122.653 33.888C123.167 34.2053 123.563 34.6533 123.843 35.232C124.123 35.8107 124.263 36.4967 124.263 37.29C124.263 38.074 124.123 38.76 123.843 39.348C123.563 39.9267 123.167 40.3747 122.653 40.692C122.149 41.0093 121.557 41.168 120.875 41.168ZM120.875 40.048C121.557 40.048 122.084 39.8053 122.457 39.32C122.84 38.8253 123.031 38.1487 123.031 37.29C123.031 36.4313 122.84 35.7593 122.457 35.274C122.084 34.7793 121.557 34.532 120.875 34.532C120.194 34.532 119.662 34.7793 119.279 35.274C118.897 35.7593 118.705 36.4313 118.705 37.29C118.705 38.1487 118.897 38.8253 119.279 39.32C119.662 39.8053 120.194 40.048 120.875 40.048ZM125.866 41V33.58H126.944L126.986 35.456L126.818 35.4C126.902 34.9893 127.047 34.6393 127.252 34.35C127.467 34.0513 127.728 33.8227 128.036 33.664C128.344 33.496 128.685 33.412 129.058 33.412C129.702 33.412 130.225 33.5893 130.626 33.944C131.037 34.2987 131.293 34.7933 131.396 35.428L131.172 35.414C131.247 34.9847 131.382 34.6253 131.578 34.336C131.783 34.0373 132.045 33.8087 132.362 33.65C132.679 33.4913 133.043 33.412 133.454 33.412C133.986 33.412 134.434 33.524 134.798 33.748C135.162 33.9627 135.437 34.28 135.624 34.7C135.811 35.12 135.904 35.6287 135.904 36.226V41H134.728V36.478C134.728 35.806 134.597 35.302 134.336 34.966C134.075 34.6207 133.687 34.448 133.174 34.448C132.829 34.448 132.525 34.532 132.264 34.7C132.012 34.868 131.816 35.1107 131.676 35.428C131.536 35.736 131.466 36.114 131.466 36.562V41H130.29V36.562C130.29 35.8993 130.173 35.3813 129.94 35.008C129.707 34.6347 129.315 34.448 128.764 34.448C128.419 34.448 128.115 34.532 127.854 34.7C127.602 34.868 127.401 35.1107 127.252 35.428C127.112 35.7453 127.042 36.1233 127.042 36.562V41H125.866ZM140.877 41.168C140.177 41.168 139.571 41.0093 139.057 40.692C138.553 40.3747 138.161 39.9267 137.881 39.348C137.611 38.76 137.475 38.074 137.475 37.29C137.475 36.506 137.611 35.8247 137.881 35.246C138.161 34.6673 138.549 34.2193 139.043 33.902C139.547 33.5753 140.14 33.412 140.821 33.412C141.465 33.412 142.035 33.566 142.529 33.874C143.024 34.1727 143.407 34.6113 143.677 35.19C143.957 35.7687 144.097 36.4733 144.097 37.304V37.654H138.707C138.754 38.4473 138.964 39.0447 139.337 39.446C139.72 39.8473 140.233 40.048 140.877 40.048C141.363 40.048 141.759 39.936 142.067 39.712C142.385 39.4787 142.604 39.1753 142.725 38.802L143.985 38.9C143.789 39.5627 143.416 40.1087 142.865 40.538C142.324 40.958 141.661 41.168 140.877 41.168ZM138.707 36.618H142.809C142.753 35.8993 142.543 35.372 142.179 35.036C141.825 34.7 141.372 34.532 140.821 34.532C140.252 34.532 139.781 34.7093 139.407 35.064C139.043 35.4093 138.81 35.9273 138.707 36.618Z" fill="#737373"/>
<path d="M40.96 81.16V59.8H42.784V81.16H40.96ZM42.064 79.336C40.736 79.336 39.584 79.096 38.608 78.616C37.632 78.12 36.856 77.44 36.28 76.576C35.72 75.712 35.392 74.712 35.296 73.576L37.912 73.432C38.008 74.2 38.232 74.856 38.584 75.4C38.936 75.928 39.4 76.336 39.976 76.624C40.568 76.896 41.28 77.032 42.112 77.032C42.832 77.032 43.448 76.944 43.96 76.768C44.472 76.576 44.856 76.304 45.112 75.952C45.384 75.6 45.52 75.16 45.52 74.632C45.52 74.152 45.408 73.736 45.184 73.384C44.96 73.016 44.528 72.68 43.888 72.376C43.248 72.056 42.312 71.752 41.08 71.464C39.752 71.144 38.688 70.784 37.888 70.384C37.088 69.984 36.512 69.496 36.16 68.92C35.824 68.328 35.656 67.592 35.656 66.712C35.656 65.768 35.888 64.936 36.352 64.216C36.816 63.48 37.472 62.912 38.32 62.512C39.184 62.096 40.216 61.888 41.416 61.888C42.696 61.888 43.784 62.12 44.68 62.584C45.592 63.048 46.312 63.688 46.84 64.504C47.368 65.32 47.696 66.256 47.824 67.312L45.208 67.456C45.128 66.832 44.928 66.272 44.608 65.776C44.304 65.28 43.88 64.896 43.336 64.624C42.792 64.336 42.136 64.192 41.368 64.192C40.408 64.192 39.648 64.416 39.088 64.864C38.528 65.312 38.248 65.904 38.248 66.64C38.248 67.12 38.36 67.52 38.584 67.84C38.824 68.16 39.232 68.44 39.808 68.68C40.4 68.92 41.24 69.168 42.328 69.424C43.768 69.76 44.912 70.168 45.76 70.648C46.608 71.112 47.216 71.664 47.584 72.304C47.952 72.944 48.136 73.672 48.136 74.488C48.136 75.48 47.88 76.344 47.368 77.08C46.856 77.8 46.144 78.36 45.232 78.76C44.32 79.144 43.264 79.336 42.064 79.336ZM53.5739 79C53.5739 77.24 53.8059 75.504 54.2699 73.792C54.7499 72.064 55.4219 70.408 56.2859 68.824C57.1659 67.224 58.2139 65.728 59.4299 64.336H49.9019V61.96H62.1659V64.168C60.8219 65.704 59.7019 67.24 58.8059 68.776C57.9259 70.296 57.2699 71.896 56.8379 73.576C56.4219 75.24 56.2139 77.048 56.2139 79H53.5739ZM61.003 82.768L62.203 79H60.883V75.976H63.979V78.64L62.467 82.768H61.003ZM66.4004 79C66.4004 77.72 66.5924 76.576 66.9764 75.568C67.3604 74.56 68.0164 73.624 68.9444 72.76C69.8724 71.896 71.1524 71.032 72.7844 70.168C73.5684 69.768 74.1924 69.4 74.6564 69.064C75.1364 68.712 75.4804 68.352 75.6884 67.984C75.8964 67.616 76.0004 67.168 76.0004 66.64C76.0004 66.096 75.8804 65.632 75.6404 65.248C75.4164 64.848 75.0804 64.536 74.6324 64.312C74.1844 64.072 73.6164 63.952 72.9284 63.952C71.8404 63.952 70.9764 64.248 70.3364 64.84C69.7124 65.416 69.3204 66.248 69.1604 67.336L66.4724 67.168C66.6644 65.456 67.3124 64.096 68.4164 63.088C69.5364 62.08 71.0404 61.576 72.9284 61.576C74.1444 61.576 75.1764 61.792 76.0244 62.224C76.8884 62.64 77.5444 63.224 77.9924 63.976C78.4564 64.728 78.6884 65.6 78.6884 66.592C78.6884 67.456 78.5444 68.2 78.2564 68.824C77.9684 69.448 77.4884 70.032 76.8164 70.576C76.1444 71.104 75.2324 71.672 74.0804 72.28C72.6084 73.064 71.4964 73.84 70.7444 74.608C69.9924 75.36 69.5924 76.032 69.5444 76.624H78.6884V79H66.4004ZM87.7576 79.384C86.4936 79.384 85.4136 79.184 84.5176 78.784C83.6216 78.368 82.9176 77.792 82.4056 77.056C81.8936 76.32 81.5976 75.472 81.5176 74.512L84.1816 74.344C84.3096 75.24 84.6856 75.912 85.3096 76.36C85.9496 76.792 86.7656 77.008 87.7576 77.008C88.8776 77.008 89.7576 76.696 90.3976 76.072C91.0536 75.448 91.3816 74.576 91.3816 73.456C91.3816 72.72 91.2296 72.088 90.9256 71.56C90.6376 71.016 90.2216 70.6 89.6776 70.312C89.1336 70.008 88.4856 69.856 87.7336 69.856C86.9816 69.856 86.3096 70.016 85.7176 70.336C85.1256 70.656 84.7016 71.096 84.4456 71.656H81.7576L82.9096 61.96H92.8936V64.336H85.2136L84.4936 70.168L84.0856 69.808C84.3576 69.328 84.7016 68.936 85.1176 68.632C85.5336 68.312 86.0136 68.072 86.5576 67.912C87.1176 67.736 87.7096 67.648 88.3336 67.648C89.4856 67.648 90.4856 67.896 91.3336 68.392C92.1976 68.888 92.8696 69.576 93.3496 70.456C93.8296 71.336 94.0696 72.336 94.0696 73.456C94.0696 74.624 93.8056 75.656 93.2776 76.552C92.7496 77.448 92.0136 78.144 91.0696 78.64C90.1256 79.136 89.0216 79.384 87.7576 79.384ZM103.565 79.384C102.157 79.384 100.933 79.024 99.8926 78.304C98.8526 77.584 98.0526 76.56 97.4926 75.232C96.9326 73.904 96.6526 72.328 96.6526 70.504C96.6526 68.68 96.9326 67.104 97.4926 65.776C98.0686 64.432 98.8686 63.4 99.8926 62.68C100.933 61.944 102.157 61.576 103.565 61.576C104.989 61.576 106.213 61.944 107.237 62.68C108.277 63.4 109.077 64.424 109.637 65.752C110.213 67.08 110.501 68.664 110.501 70.504C110.501 72.328 110.221 73.904 109.661 75.232C109.101 76.56 108.301 77.584 107.261 78.304C106.221 79.024 104.989 79.384 103.565 79.384ZM103.565 77.008C104.925 77.008 105.973 76.448 106.709 75.328C107.445 74.208 107.813 72.6 107.813 70.504C107.813 69.096 107.645 67.904 107.309 66.928C106.989 65.952 106.509 65.216 105.869 64.72C105.245 64.208 104.477 63.952 103.565 63.952C102.669 63.952 101.901 64.208 101.261 64.72C100.637 65.216 100.157 65.952 99.8206 66.928C99.5006 67.904 99.3406 69.096 99.3406 70.504C99.3406 72.6 99.7086 74.208 100.445 75.328C101.181 76.448 102.221 77.008 103.565 77.008Z" fill="#141414"/>
<g clip-path="url(#clip1_468_39358)">
<rect x="34" y="94" width="210" height="6" rx="3" fill="#10A861"/>
<rect x="248" y="94" width="181" height="6" rx="3" fill="#10A861"/>
</g>
<path d="M37.99 124.26V111.8H39.026V124.26H37.99ZM38.62 123.224C37.8733 123.224 37.22 123.084 36.66 122.804C36.1093 122.515 35.6707 122.123 35.344 121.628C35.0173 121.124 34.826 120.545 34.77 119.892L36.002 119.808C36.0673 120.293 36.2073 120.704 36.422 121.04C36.646 121.376 36.94 121.633 37.304 121.81C37.6773 121.978 38.1253 122.062 38.648 122.062C39.1053 122.062 39.4927 122.006 39.81 121.894C40.1367 121.773 40.384 121.6 40.552 121.376C40.72 121.143 40.804 120.863 40.804 120.536C40.804 120.228 40.734 119.957 40.594 119.724C40.454 119.491 40.1833 119.276 39.782 119.08C39.3807 118.884 38.7927 118.693 38.018 118.506C37.2713 118.31 36.674 118.1 36.226 117.876C35.778 117.643 35.456 117.363 35.26 117.036C35.0733 116.7 34.98 116.289 34.98 115.804C34.98 115.263 35.1107 114.787 35.372 114.376C35.6333 113.956 36.002 113.629 36.478 113.396C36.9633 113.163 37.542 113.046 38.214 113.046C38.9233 113.046 39.5347 113.181 40.048 113.452C40.5613 113.713 40.9673 114.077 41.266 114.544C41.574 115.011 41.7653 115.543 41.84 116.14L40.594 116.224C40.5473 115.832 40.426 115.482 40.23 115.174C40.034 114.866 39.7633 114.628 39.418 114.46C39.082 114.283 38.6713 114.194 38.186 114.194C37.5793 114.194 37.0987 114.339 36.744 114.628C36.3893 114.917 36.212 115.295 36.212 115.762C36.212 116.061 36.282 116.313 36.422 116.518C36.562 116.714 36.814 116.887 37.178 117.036C37.5513 117.185 38.0787 117.344 38.76 117.512C39.572 117.717 40.216 117.96 40.692 118.24C41.1773 118.511 41.5227 118.833 41.728 119.206C41.9333 119.57 42.036 119.985 42.036 120.452C42.036 121.012 41.8867 121.502 41.588 121.922C41.2987 122.333 40.8973 122.655 40.384 122.888C39.8707 123.112 39.2827 123.224 38.62 123.224ZM47.0327 123.224C46.3234 123.224 45.6887 123.112 45.1287 122.888C44.578 122.664 44.144 122.333 43.8267 121.894C43.5187 121.455 43.3647 120.914 43.3647 120.27C43.3647 119.551 43.5794 118.959 44.0087 118.492C44.438 118.016 45.0074 117.694 45.7167 117.526L45.7447 117.806C45.1754 117.647 44.7134 117.391 44.3587 117.036C44.0134 116.672 43.8407 116.182 43.8407 115.566C43.8407 115.043 43.9714 114.577 44.2327 114.166C44.5034 113.755 44.8767 113.433 45.3527 113.2C45.8287 112.957 46.3887 112.836 47.0327 112.836C47.6767 112.836 48.2367 112.957 48.7127 113.2C49.198 113.433 49.5714 113.755 49.8327 114.166C50.094 114.577 50.2247 115.043 50.2247 115.566C50.2247 116.182 50.052 116.672 49.7067 117.036C49.3614 117.391 48.8994 117.647 48.3207 117.806L48.3487 117.526C49.0674 117.694 49.6367 118.016 50.0567 118.492C50.486 118.959 50.7007 119.551 50.7007 120.27C50.7007 120.914 50.542 121.455 50.2247 121.894C49.9167 122.333 49.4874 122.664 48.9367 122.888C48.386 123.112 47.7514 123.224 47.0327 123.224ZM47.0327 122.048C47.77 122.048 48.3534 121.899 48.7827 121.6C49.2214 121.292 49.4407 120.825 49.4407 120.2C49.4407 119.621 49.2447 119.159 48.8527 118.814C48.47 118.459 47.8634 118.282 47.0327 118.282C46.2114 118.282 45.6047 118.459 45.2127 118.814C44.8207 119.159 44.6247 119.621 44.6247 120.2C44.6247 120.825 44.8394 121.292 45.2687 121.6C45.7074 121.899 46.2954 122.048 47.0327 122.048ZM47.0327 117.162C47.6487 117.162 48.1247 117.031 48.4607 116.77C48.7967 116.499 48.9647 116.098 48.9647 115.566C48.9647 115.09 48.8014 114.712 48.4747 114.432C48.148 114.152 47.6674 114.012 47.0327 114.012C46.4074 114.012 45.9267 114.152 45.5907 114.432C45.264 114.712 45.1007 115.09 45.1007 115.566C45.1007 116.098 45.2687 116.499 45.6047 116.77C45.9407 117.031 46.4167 117.162 47.0327 117.162ZM51.9119 125.184L52.5839 123H51.8699V121.418H53.4519V122.804L52.6119 125.184H51.9119ZM58.2983 123.224C57.589 123.224 56.9543 123.112 56.3943 122.888C55.8436 122.664 55.4096 122.333 55.0923 121.894C54.7843 121.455 54.6303 120.914 54.6303 120.27C54.6303 119.551 54.845 118.959 55.2743 118.492C55.7036 118.016 56.273 117.694 56.9823 117.526L57.0103 117.806C56.441 117.647 55.979 117.391 55.6243 117.036C55.279 116.672 55.1063 116.182 55.1063 115.566C55.1063 115.043 55.237 114.577 55.4983 114.166C55.769 113.755 56.1423 113.433 56.6183 113.2C57.0943 112.957 57.6543 112.836 58.2983 112.836C58.9423 112.836 59.5023 112.957 59.9783 113.2C60.4636 113.433 60.837 113.755 61.0983 114.166C61.3596 114.577 61.4903 115.043 61.4903 115.566C61.4903 116.182 61.3176 116.672 60.9723 117.036C60.627 117.391 60.165 117.647 59.5863 117.806L59.6143 117.526C60.333 117.694 60.9023 118.016 61.3223 118.492C61.7516 118.959 61.9663 119.551 61.9663 120.27C61.9663 120.914 61.8076 121.455 61.4903 121.894C61.1823 122.333 60.753 122.664 60.2023 122.888C59.6516 123.112 59.017 123.224 58.2983 123.224ZM58.2983 122.048C59.0356 122.048 59.619 121.899 60.0483 121.6C60.487 121.292 60.7063 120.825 60.7063 120.2C60.7063 119.621 60.5103 119.159 60.1183 118.814C59.7356 118.459 59.129 118.282 58.2983 118.282C57.477 118.282 56.8703 118.459 56.4783 118.814C56.0863 119.159 55.8903 119.621 55.8903 120.2C55.8903 120.825 56.105 121.292 56.5343 121.6C56.973 121.899 57.561 122.048 58.2983 122.048ZM58.2983 117.162C58.9143 117.162 59.3903 117.031 59.7263 116.77C60.0623 116.499 60.2303 116.098 60.2303 115.566C60.2303 115.09 60.067 114.712 59.7403 114.432C59.4136 114.152 58.933 114.012 58.2983 114.012C57.673 114.012 57.1923 114.152 56.8563 114.432C56.5296 114.712 56.3663 115.09 56.3663 115.566C56.3663 116.098 56.5343 116.499 56.8703 116.77C57.2063 117.031 57.6823 117.162 58.2983 117.162ZM66.8875 123.224C66.1875 123.224 65.5809 123.107 65.0675 122.874C64.5635 122.641 64.1622 122.314 63.8635 121.894C63.5742 121.474 63.4062 120.989 63.3595 120.438L64.6195 120.354C64.6942 120.914 64.9322 121.339 65.3335 121.628C65.7442 121.908 66.2622 122.048 66.8875 122.048C67.5875 122.048 68.1429 121.852 68.5535 121.46C68.9642 121.059 69.1695 120.508 69.1695 119.808C69.1695 119.341 69.0762 118.94 68.8895 118.604C68.7122 118.259 68.4509 117.993 68.1055 117.806C67.7602 117.619 67.3449 117.526 66.8595 117.526C66.4022 117.526 65.9869 117.624 65.6135 117.82C65.2402 118.016 64.9742 118.291 64.8155 118.646H63.5275L64.1855 113.06H69.7575V114.236H65.2915L64.8435 117.904L64.6195 117.68C64.7689 117.391 64.9649 117.153 65.2075 116.966C65.4595 116.77 65.7442 116.625 66.0615 116.532C66.3882 116.429 66.7289 116.378 67.0835 116.378C67.7462 116.378 68.3295 116.527 68.8335 116.826C69.3375 117.115 69.7295 117.521 70.0095 118.044C70.2895 118.557 70.4295 119.145 70.4295 119.808C70.4295 120.471 70.2802 121.063 69.9815 121.586C69.6829 122.099 69.2675 122.501 68.7355 122.79C68.2035 123.079 67.5875 123.224 66.8875 123.224ZM75.6512 123.224C74.9512 123.224 74.3445 123.107 73.8312 122.874C73.3272 122.641 72.9259 122.314 72.6272 121.894C72.3379 121.474 72.1699 120.989 72.1232 120.438L73.3832 120.354C73.4579 120.914 73.6959 121.339 74.0972 121.628C74.5079 121.908 75.0259 122.048 75.6512 122.048C76.3512 122.048 76.9065 121.852 77.3172 121.46C77.7279 121.059 77.9332 120.508 77.9332 119.808C77.9332 119.341 77.8399 118.94 77.6532 118.604C77.4759 118.259 77.2145 117.993 76.8692 117.806C76.5239 117.619 76.1085 117.526 75.6232 117.526C75.1659 117.526 74.7505 117.624 74.3772 117.82C74.0039 118.016 73.7379 118.291 73.5792 118.646H72.2912L72.9492 113.06H78.5212V114.236H74.0552L73.6072 117.904L73.3832 117.68C73.5325 117.391 73.7285 117.153 73.9712 116.966C74.2232 116.77 74.5079 116.625 74.8252 116.532C75.1519 116.429 75.4925 116.378 75.8472 116.378C76.5099 116.378 77.0932 116.527 77.5972 116.826C78.1012 117.115 78.4932 117.521 78.7732 118.044C79.0532 118.557 79.1932 119.145 79.1932 119.808C79.1932 120.471 79.0439 121.063 78.7452 121.586C78.4465 122.099 78.0312 122.501 77.4992 122.79C76.9672 123.079 76.3512 123.224 75.6512 123.224ZM80.6629 123V121.418H82.2449V123H80.6629ZM87.2313 123.224C86.5313 123.224 85.9246 123.107 85.4113 122.874C84.9073 122.641 84.5059 122.314 84.2073 121.894C83.9179 121.474 83.7499 120.989 83.7033 120.438L84.9633 120.354C85.0379 120.914 85.2759 121.339 85.6773 121.628C86.0879 121.908 86.6059 122.048 87.2313 122.048C87.9313 122.048 88.4866 121.852 88.8973 121.46C89.3079 121.059 89.5133 120.508 89.5133 119.808C89.5133 119.341 89.4199 118.94 89.2333 118.604C89.0559 118.259 88.7946 117.993 88.4493 117.806C88.1039 117.619 87.6886 117.526 87.2033 117.526C86.7459 117.526 86.3306 117.624 85.9573 117.82C85.5839 118.016 85.3179 118.291 85.1593 118.646H83.8713L84.5293 113.06H90.1013V114.236H85.6353L85.1873 117.904L84.9633 117.68C85.1126 117.391 85.3086 117.153 85.5513 116.966C85.8033 116.77 86.0879 116.625 86.4053 116.532C86.7319 116.429 87.0726 116.378 87.4273 116.378C88.0899 116.378 88.6733 116.527 89.1773 116.826C89.6813 117.115 90.0733 117.521 90.3533 118.044C90.6333 118.557 90.7733 119.145 90.7733 119.808C90.7733 120.471 90.6239 121.063 90.3253 121.586C90.0266 122.099 89.6113 122.501 89.0793 122.79C88.5473 123.079 87.9313 123.224 87.2313 123.224ZM95.995 123.224C95.295 123.224 94.6883 123.107 94.175 122.874C93.671 122.641 93.2696 122.314 92.971 121.894C92.6816 121.474 92.5136 120.989 92.467 120.438L93.727 120.354C93.8016 120.914 94.0396 121.339 94.441 121.628C94.8516 121.908 95.3696 122.048 95.995 122.048C96.695 122.048 97.2503 121.852 97.661 121.46C98.0716 121.059 98.277 120.508 98.277 119.808C98.277 119.341 98.1836 118.94 97.997 118.604C97.8196 118.259 97.5583 117.993 97.213 117.806C96.8676 117.619 96.4523 117.526 95.967 117.526C95.5096 117.526 95.0943 117.624 94.721 117.82C94.3476 118.016 94.0816 118.291 93.923 118.646H92.635L93.293 113.06H98.865V114.236H94.399L93.951 117.904L93.727 117.68C93.8763 117.391 94.0723 117.153 94.315 116.966C94.567 116.77 94.8516 116.625 95.169 116.532C95.4956 116.429 95.8363 116.378 96.191 116.378C96.8536 116.378 97.437 116.527 97.941 116.826C98.445 117.115 98.837 117.521 99.117 118.044C99.397 118.557 99.537 119.145 99.537 119.808C99.537 120.471 99.3876 121.063 99.089 121.586C98.7903 122.099 98.375 122.501 97.843 122.79C97.311 123.079 96.695 123.224 95.995 123.224ZM107.909 123.168C107.209 123.168 106.602 123.009 106.089 122.692C105.585 122.375 105.193 121.927 104.913 121.348C104.642 120.76 104.507 120.074 104.507 119.29C104.507 118.506 104.642 117.825 104.913 117.246C105.193 116.667 105.58 116.219 106.075 115.902C106.579 115.575 107.171 115.412 107.853 115.412C108.497 115.412 109.066 115.566 109.561 115.874C110.055 116.173 110.438 116.611 110.709 117.19C110.989 117.769 111.129 118.473 111.129 119.304V119.654H105.739C105.785 120.447 105.995 121.045 106.369 121.446C106.751 121.847 107.265 122.048 107.909 122.048C108.394 122.048 108.791 121.936 109.099 121.712C109.416 121.479 109.635 121.175 109.757 120.802L111.017 120.9C110.821 121.563 110.447 122.109 109.897 122.538C109.355 122.958 108.693 123.168 107.909 123.168ZM105.739 118.618H109.841C109.785 117.899 109.575 117.372 109.211 117.036C108.856 116.7 108.403 116.532 107.853 116.532C107.283 116.532 106.812 116.709 106.439 117.064C106.075 117.409 105.841 117.927 105.739 118.618ZM114.915 123.168C114.15 123.168 113.538 122.991 113.081 122.636C112.633 122.281 112.409 121.787 112.409 121.152C112.409 120.517 112.596 120.018 112.969 119.654C113.342 119.29 113.935 119.033 114.747 118.884L117.379 118.394C117.379 117.769 117.23 117.302 116.931 116.994C116.642 116.686 116.203 116.532 115.615 116.532C115.102 116.532 114.696 116.649 114.397 116.882C114.098 117.106 113.893 117.433 113.781 117.862L112.535 117.764C112.675 117.064 113.011 116.499 113.543 116.07C114.084 115.631 114.775 115.412 115.615 115.412C116.567 115.412 117.295 115.683 117.799 116.224C118.303 116.756 118.555 117.493 118.555 118.436V121.502C118.555 121.67 118.583 121.791 118.639 121.866C118.704 121.931 118.807 121.964 118.947 121.964H119.241V123C119.204 123.009 119.143 123.014 119.059 123.014C118.975 123.023 118.886 123.028 118.793 123.028C118.457 123.028 118.182 122.977 117.967 122.874C117.762 122.762 117.612 122.594 117.519 122.37C117.426 122.137 117.379 121.833 117.379 121.46L117.519 121.488C117.454 121.805 117.295 122.095 117.043 122.356C116.791 122.608 116.478 122.809 116.105 122.958C115.732 123.098 115.335 123.168 114.915 123.168ZM115.027 122.132C115.522 122.132 115.942 122.039 116.287 121.852C116.642 121.656 116.912 121.395 117.099 121.068C117.286 120.732 117.379 120.359 117.379 119.948V119.416L114.971 119.864C114.467 119.957 114.117 120.102 113.921 120.298C113.734 120.485 113.641 120.732 113.641 121.04C113.641 121.385 113.762 121.656 114.005 121.852C114.257 122.039 114.598 122.132 115.027 122.132ZM120.569 123V115.58H121.605L121.661 117.456L121.549 117.414C121.643 116.779 121.843 116.317 122.151 116.028C122.469 115.729 122.889 115.58 123.411 115.58H124.139V116.7H123.425C123.052 116.7 122.739 116.77 122.487 116.91C122.245 117.041 122.058 117.241 121.927 117.512C121.806 117.773 121.745 118.109 121.745 118.52V123H120.569ZM125.313 123V115.58H126.391L126.433 117.47L126.293 117.344C126.387 116.905 126.55 116.546 126.783 116.266C127.017 115.977 127.297 115.762 127.623 115.622C127.959 115.482 128.319 115.412 128.701 115.412C129.271 115.412 129.737 115.538 130.101 115.79C130.475 116.042 130.75 116.383 130.927 116.812C131.114 117.232 131.207 117.703 131.207 118.226V123H130.031V118.562C130.031 118.105 129.975 117.722 129.863 117.414C129.761 117.097 129.593 116.859 129.359 116.7C129.126 116.532 128.823 116.448 128.449 116.448C127.88 116.448 127.409 116.63 127.035 116.994C126.671 117.349 126.489 117.871 126.489 118.562V123H125.313ZM136.182 123.168C135.482 123.168 134.875 123.009 134.362 122.692C133.858 122.375 133.466 121.927 133.186 121.348C132.915 120.76 132.78 120.074 132.78 119.29C132.78 118.506 132.915 117.825 133.186 117.246C133.466 116.667 133.853 116.219 134.348 115.902C134.852 115.575 135.445 115.412 136.126 115.412C136.77 115.412 137.339 115.566 137.834 115.874C138.329 116.173 138.711 116.611 138.982 117.19C139.262 117.769 139.402 118.473 139.402 119.304V119.654H134.012C134.059 120.447 134.269 121.045 134.642 121.446C135.025 121.847 135.538 122.048 136.182 122.048C136.667 122.048 137.064 121.936 137.372 121.712C137.689 121.479 137.909 121.175 138.03 120.802L139.29 120.9C139.094 121.563 138.721 122.109 138.17 122.538C137.629 122.958 136.966 123.168 136.182 123.168ZM134.012 118.618H138.114C138.058 117.899 137.848 117.372 137.484 117.036C137.129 116.7 136.677 116.532 136.126 116.532C135.557 116.532 135.085 116.709 134.712 117.064C134.348 117.409 134.115 117.927 134.012 118.618ZM143.627 123.168C142.983 123.168 142.423 123.009 141.947 122.692C141.48 122.375 141.121 121.927 140.869 121.348C140.617 120.769 140.491 120.083 140.491 119.29C140.491 118.497 140.617 117.811 140.869 117.232C141.121 116.653 141.48 116.205 141.947 115.888C142.423 115.571 142.983 115.412 143.627 115.412C144.122 115.412 144.574 115.519 144.985 115.734C145.396 115.939 145.704 116.233 145.909 116.616V113.06H147.085V123H146.021L145.979 121.88C145.774 122.281 145.461 122.599 145.041 122.832C144.621 123.056 144.15 123.168 143.627 123.168ZM143.865 122.048C144.304 122.048 144.672 121.936 144.971 121.712C145.279 121.488 145.512 121.171 145.671 120.76C145.83 120.34 145.909 119.85 145.909 119.29C145.909 118.711 145.83 118.217 145.671 117.806C145.512 117.395 145.279 117.083 144.971 116.868C144.672 116.644 144.304 116.532 143.865 116.532C143.212 116.532 142.689 116.779 142.297 117.274C141.914 117.759 141.723 118.431 141.723 119.29C141.723 120.139 141.914 120.811 142.297 121.306C142.689 121.801 143.212 122.048 143.865 122.048Z" fill="#737373"/>
<path d="M335.06 124.26V111.8H336.124V124.26H335.06ZM335.704 123.196C334.929 123.196 334.257 123.056 333.688 122.776C333.119 122.487 332.666 122.09 332.33 121.586C332.003 121.082 331.812 120.499 331.756 119.836L333.282 119.752C333.338 120.2 333.469 120.583 333.674 120.9C333.879 121.208 334.15 121.446 334.486 121.614C334.831 121.773 335.247 121.852 335.732 121.852C336.152 121.852 336.511 121.801 336.81 121.698C337.109 121.586 337.333 121.427 337.482 121.222C337.641 121.017 337.72 120.76 337.72 120.452C337.72 120.172 337.655 119.929 337.524 119.724C337.393 119.509 337.141 119.313 336.768 119.136C336.395 118.949 335.849 118.772 335.13 118.604C334.355 118.417 333.735 118.207 333.268 117.974C332.801 117.741 332.465 117.456 332.26 117.12C332.064 116.775 331.966 116.345 331.966 115.832C331.966 115.281 332.101 114.796 332.372 114.376C332.643 113.947 333.025 113.615 333.52 113.382C334.024 113.139 334.626 113.018 335.326 113.018C336.073 113.018 336.707 113.153 337.23 113.424C337.762 113.695 338.182 114.068 338.49 114.544C338.798 115.02 338.989 115.566 339.064 116.182L337.538 116.266C337.491 115.902 337.375 115.575 337.188 115.286C337.011 114.997 336.763 114.773 336.446 114.614C336.129 114.446 335.746 114.362 335.298 114.362C334.738 114.362 334.295 114.493 333.968 114.754C333.641 115.015 333.478 115.361 333.478 115.79C333.478 116.07 333.543 116.303 333.674 116.49C333.814 116.677 334.052 116.84 334.388 116.98C334.733 117.12 335.223 117.265 335.858 117.414C336.698 117.61 337.365 117.848 337.86 118.128C338.355 118.399 338.709 118.721 338.924 119.094C339.139 119.467 339.246 119.892 339.246 120.368C339.246 120.947 339.097 121.451 338.798 121.88C338.499 122.3 338.084 122.627 337.552 122.86C337.02 123.084 336.404 123.196 335.704 123.196ZM342.642 123V115.916H340.542V114.698H341.396C341.769 114.698 342.073 114.651 342.306 114.558C342.539 114.455 342.707 114.287 342.81 114.054C342.913 113.811 342.964 113.48 342.964 113.06H344.154V123H342.642ZM346.342 125.198L347.042 123H346.272V121.236H348.078V122.79L347.196 125.198H346.342ZM352.857 123.224C352.073 123.224 351.41 123.051 350.869 122.706C350.327 122.351 349.917 121.843 349.637 121.18C349.357 120.508 349.217 119.696 349.217 118.744C349.217 117.913 349.287 117.143 349.427 116.434C349.576 115.715 349.809 115.09 350.127 114.558C350.444 114.017 350.855 113.597 351.359 113.298C351.872 112.99 352.493 112.836 353.221 112.836C354.135 112.836 354.849 113.06 355.363 113.508C355.876 113.947 356.231 114.535 356.427 115.272L354.929 115.398C354.817 115.034 354.63 114.745 354.369 114.53C354.117 114.315 353.734 114.208 353.221 114.208C352.455 114.208 351.853 114.535 351.415 115.188C350.976 115.841 350.743 116.84 350.715 118.184L350.449 118.128C350.551 117.811 350.724 117.521 350.967 117.26C351.209 116.989 351.513 116.775 351.877 116.616C352.25 116.448 352.675 116.364 353.151 116.364C353.813 116.364 354.392 116.504 354.887 116.784C355.391 117.055 355.778 117.442 356.049 117.946C356.329 118.45 356.469 119.038 356.469 119.71C356.469 120.438 356.315 121.068 356.007 121.6C355.699 122.123 355.274 122.524 354.733 122.804C354.191 123.084 353.566 123.224 352.857 123.224ZM352.871 121.88C353.477 121.88 353.967 121.689 354.341 121.306C354.723 120.914 354.915 120.382 354.915 119.71C354.915 119.29 354.831 118.926 354.663 118.618C354.504 118.301 354.275 118.058 353.977 117.89C353.687 117.722 353.351 117.638 352.969 117.638C352.549 117.638 352.175 117.722 351.849 117.89C351.522 118.058 351.265 118.301 351.079 118.618C350.892 118.926 350.799 119.29 350.799 119.71C350.799 120.13 350.883 120.503 351.051 120.83C351.219 121.157 351.457 121.413 351.765 121.6C352.082 121.787 352.451 121.88 352.871 121.88ZM362.009 123.224C361.188 123.224 360.474 123.014 359.867 122.594C359.26 122.174 358.794 121.577 358.467 120.802C358.14 120.027 357.977 119.108 357.977 118.044C357.977 116.98 358.14 116.061 358.467 115.286C358.803 114.502 359.27 113.9 359.867 113.48C360.474 113.051 361.188 112.836 362.009 112.836C362.84 112.836 363.554 113.051 364.151 113.48C364.758 113.9 365.224 114.497 365.551 115.272C365.887 116.047 366.055 116.971 366.055 118.044C366.055 119.108 365.892 120.027 365.565 120.802C365.238 121.577 364.772 122.174 364.165 122.594C363.558 123.014 362.84 123.224 362.009 123.224ZM362.009 121.838C362.802 121.838 363.414 121.511 363.843 120.858C364.272 120.205 364.487 119.267 364.487 118.044C364.487 117.223 364.389 116.527 364.193 115.958C364.006 115.389 363.726 114.959 363.353 114.67C362.989 114.371 362.541 114.222 362.009 114.222C361.486 114.222 361.038 114.371 360.665 114.67C360.301 114.959 360.021 115.389 359.825 115.958C359.638 116.527 359.545 117.223 359.545 118.044C359.545 119.267 359.76 120.205 360.189 120.858C360.618 121.511 361.225 121.838 362.009 121.838ZM371.204 123.224C370.467 123.224 369.837 123.107 369.314 122.874C368.792 122.631 368.381 122.295 368.082 121.866C367.784 121.437 367.611 120.942 367.564 120.382L369.118 120.284C369.193 120.807 369.412 121.199 369.776 121.46C370.15 121.712 370.626 121.838 371.204 121.838C371.858 121.838 372.371 121.656 372.744 121.292C373.127 120.928 373.318 120.419 373.318 119.766C373.318 119.337 373.23 118.968 373.052 118.66C372.884 118.343 372.642 118.1 372.324 117.932C372.007 117.755 371.629 117.666 371.19 117.666C370.752 117.666 370.36 117.759 370.014 117.946C369.669 118.133 369.422 118.389 369.272 118.716H367.704L368.376 113.06H374.2V114.446H369.72L369.3 117.848L369.062 117.638C369.221 117.358 369.422 117.129 369.664 116.952C369.907 116.765 370.187 116.625 370.504 116.532C370.831 116.429 371.176 116.378 371.54 116.378C372.212 116.378 372.796 116.523 373.29 116.812C373.794 117.101 374.186 117.503 374.466 118.016C374.746 118.529 374.886 119.113 374.886 119.766C374.886 120.447 374.732 121.049 374.424 121.572C374.116 122.095 373.687 122.501 373.136 122.79C372.586 123.079 371.942 123.224 371.204 123.224ZM376.295 123V121.236H378.101V123H376.295ZM383.07 123.224C382.314 123.224 381.646 123.112 381.068 122.888C380.489 122.664 380.036 122.333 379.71 121.894C379.392 121.455 379.234 120.919 379.234 120.284C379.234 119.556 379.453 118.954 379.892 118.478C380.33 118.002 380.918 117.685 381.656 117.526L381.684 117.806C381.086 117.666 380.606 117.409 380.242 117.036C379.887 116.663 379.71 116.173 379.71 115.566C379.71 115.034 379.845 114.563 380.116 114.152C380.386 113.741 380.769 113.419 381.264 113.186C381.768 112.953 382.37 112.836 383.07 112.836C383.76 112.836 384.358 112.953 384.862 113.186C385.366 113.419 385.748 113.741 386.01 114.152C386.28 114.563 386.416 115.034 386.416 115.566C386.416 116.173 386.238 116.663 385.883 117.036C385.529 117.4 385.048 117.657 384.442 117.806L384.47 117.526C385.216 117.685 385.809 118.002 386.248 118.478C386.686 118.954 386.906 119.556 386.906 120.284C386.906 120.919 386.742 121.455 386.416 121.894C386.098 122.333 385.65 122.664 385.072 122.888C384.493 123.112 383.826 123.224 383.07 123.224ZM383.07 121.838C383.76 121.838 384.306 121.698 384.708 121.418C385.118 121.129 385.324 120.699 385.324 120.13C385.324 119.589 385.137 119.155 384.764 118.828C384.4 118.501 383.835 118.338 383.07 118.338C382.304 118.338 381.735 118.501 381.362 118.828C380.988 119.155 380.802 119.589 380.802 120.13C380.802 120.699 381.007 121.129 381.418 121.418C381.828 121.698 382.379 121.838 383.07 121.838ZM383.07 117.092C383.639 117.092 384.078 116.975 384.386 116.742C384.703 116.499 384.862 116.131 384.862 115.636C384.862 115.207 384.708 114.861 384.4 114.6C384.101 114.339 383.658 114.208 383.07 114.208C382.482 114.208 382.034 114.339 381.726 114.6C381.418 114.861 381.264 115.207 381.264 115.636C381.264 116.131 381.422 116.499 381.74 116.742C382.057 116.975 382.5 117.092 383.07 117.092ZM391.904 123.224C391.166 123.224 390.536 123.107 390.014 122.874C389.491 122.631 389.08 122.295 388.782 121.866C388.483 121.437 388.31 120.942 388.264 120.382L389.818 120.284C389.892 120.807 390.112 121.199 390.476 121.46C390.849 121.712 391.325 121.838 391.904 121.838C392.557 121.838 393.07 121.656 393.444 121.292C393.826 120.928 394.018 120.419 394.018 119.766C394.018 119.337 393.929 118.968 393.752 118.66C393.584 118.343 393.341 118.1 393.024 117.932C392.706 117.755 392.328 117.666 391.89 117.666C391.451 117.666 391.059 117.759 390.714 117.946C390.368 118.133 390.121 118.389 389.972 118.716H388.404L389.076 113.06H394.9V114.446H390.42L390 117.848L389.762 117.638C389.92 117.358 390.121 117.129 390.364 116.952C390.606 116.765 390.886 116.625 391.204 116.532C391.53 116.429 391.876 116.378 392.24 116.378C392.912 116.378 393.495 116.523 393.99 116.812C394.494 117.101 394.886 117.503 395.166 118.016C395.446 118.529 395.586 119.113 395.586 119.766C395.586 120.447 395.432 121.049 395.124 121.572C394.816 122.095 394.386 122.501 393.836 122.79C393.285 123.079 392.641 123.224 391.904 123.224ZM403.927 123.168C403.217 123.168 402.597 123.009 402.065 122.692C401.533 122.375 401.122 121.922 400.833 121.334C400.543 120.746 400.399 120.06 400.399 119.276C400.399 118.483 400.543 117.797 400.833 117.218C401.122 116.639 401.533 116.191 402.065 115.874C402.597 115.547 403.217 115.384 403.927 115.384C404.636 115.384 405.257 115.547 405.789 115.874C406.321 116.191 406.731 116.639 407.021 117.218C407.31 117.797 407.455 118.483 407.455 119.276C407.455 120.06 407.31 120.746 407.021 121.334C406.731 121.922 406.321 122.375 405.789 122.692C405.257 123.009 404.636 123.168 403.927 123.168ZM403.927 121.88C404.561 121.88 405.051 121.651 405.397 121.194C405.742 120.727 405.915 120.088 405.915 119.276C405.915 118.464 405.742 117.829 405.397 117.372C405.051 116.905 404.561 116.672 403.927 116.672C403.301 116.672 402.811 116.905 402.457 117.372C402.111 117.829 401.939 118.464 401.939 119.276C401.939 120.088 402.111 120.727 402.457 121.194C402.811 121.651 403.301 121.88 403.927 121.88ZM410.696 123L407.98 115.552H409.562L411.592 121.488L413.622 115.552H415.218L412.488 123H410.696ZM419.239 123.168C418.511 123.168 417.881 123.009 417.349 122.692C416.826 122.375 416.42 121.922 416.131 121.334C415.851 120.746 415.711 120.06 415.711 119.276C415.711 118.492 415.851 117.811 416.131 117.232C416.42 116.644 416.826 116.191 417.349 115.874C417.872 115.547 418.488 115.384 419.197 115.384C419.869 115.384 420.462 115.543 420.975 115.86C421.488 116.168 421.885 116.616 422.165 117.204C422.454 117.792 422.599 118.501 422.599 119.332V119.71H417.251C417.288 120.438 417.48 120.984 417.825 121.348C418.18 121.712 418.656 121.894 419.253 121.894C419.692 121.894 420.056 121.791 420.345 121.586C420.634 121.381 420.835 121.105 420.947 120.76L422.487 120.858C422.291 121.549 421.904 122.109 421.325 122.538C420.756 122.958 420.06 123.168 419.239 123.168ZM417.251 118.59H421.031C420.984 117.927 420.793 117.437 420.457 117.12C420.13 116.803 419.71 116.644 419.197 116.644C418.665 116.644 418.226 116.812 417.881 117.148C417.545 117.475 417.335 117.955 417.251 118.59ZM424.103 123V115.552H425.461L425.517 117.526L425.391 117.484C425.493 116.812 425.699 116.322 426.007 116.014C426.324 115.706 426.749 115.552 427.281 115.552H427.995V116.882H427.281C426.907 116.882 426.595 116.943 426.343 117.064C426.091 117.185 425.899 117.372 425.769 117.624C425.647 117.876 425.587 118.203 425.587 118.604V123H424.103Z" fill="#10A861"/>
<path d="M381.5 144H81.5" stroke="#0B0B0B" stroke-opacity="0.08"/>
<path d="M35.6093 175V165.06H39.0253C40.2013 165.06 41.0833 165.275 41.6713 165.704C42.2593 166.133 42.5533 166.81 42.5533 167.734C42.5533 168.163 42.46 168.541 42.2733 168.868C42.0866 169.195 41.8206 169.451 41.4753 169.638C41.13 169.815 40.7193 169.904 40.2433 169.904L40.2293 169.82C41.0786 169.82 41.746 170.049 42.2313 170.506C42.726 170.954 42.9733 171.542 42.9733 172.27C42.9733 173.175 42.6793 173.857 42.0913 174.314C41.5033 174.771 40.668 175 39.5853 175H35.6093ZM36.8133 173.824H39.5853C40.2666 173.824 40.7893 173.684 41.1533 173.404C41.5266 173.124 41.7133 172.723 41.7133 172.2C41.7133 171.677 41.5266 171.271 41.1533 170.982C40.7893 170.683 40.2666 170.534 39.5853 170.534H36.8133V173.824ZM36.8133 169.358H39.0253C39.7533 169.358 40.3133 169.223 40.7053 168.952C41.0973 168.672 41.2933 168.285 41.2933 167.79C41.2933 167.267 41.102 166.88 40.7193 166.628C40.346 166.367 39.7813 166.236 39.0253 166.236H36.8133V169.358ZM47.2289 175.168C46.4915 175.168 45.8989 174.921 45.4509 174.426C45.0122 173.922 44.7929 173.231 44.7929 172.354V167.58H45.9689V172.032C45.9689 172.751 46.0949 173.283 46.3469 173.628C46.6082 173.964 47.0049 174.132 47.5369 174.132C48.1249 174.132 48.5869 173.945 48.9229 173.572C49.2589 173.189 49.4269 172.667 49.4269 172.004V167.58H50.6029V175H49.4829V173.166L49.6649 173.264C49.5155 173.871 49.2309 174.342 48.8109 174.678C48.3909 175.005 47.8635 175.168 47.2289 175.168ZM55.3409 175.168C54.6969 175.168 54.1369 175.009 53.6609 174.692C53.1942 174.375 52.8349 173.927 52.5829 173.348C52.3309 172.769 52.2049 172.083 52.2049 171.29C52.2049 170.497 52.3309 169.811 52.5829 169.232C52.8349 168.653 53.1942 168.205 53.6609 167.888C54.1369 167.571 54.6969 167.412 55.3409 167.412C55.8355 167.412 56.2882 167.519 56.6989 167.734C57.1095 167.939 57.4175 168.233 57.6229 168.616V165.06H58.7989V175H57.7349L57.6929 173.88C57.4875 174.281 57.1749 174.599 56.7549 174.832C56.3349 175.056 55.8635 175.168 55.3409 175.168ZM55.5789 174.048C56.0175 174.048 56.3862 173.936 56.6849 173.712C56.9929 173.488 57.2262 173.171 57.3849 172.76C57.5435 172.34 57.6229 171.85 57.6229 171.29C57.6229 170.711 57.5435 170.217 57.3849 169.806C57.2262 169.395 56.9929 169.083 56.6849 168.868C56.3862 168.644 56.0175 168.532 55.5789 168.532C54.9255 168.532 54.4029 168.779 54.0109 169.274C53.6282 169.759 53.4369 170.431 53.4369 171.29C53.4369 172.139 53.6282 172.811 54.0109 173.306C54.4029 173.801 54.9255 174.048 55.5789 174.048ZM63.7123 177.268C63.1803 177.268 62.6997 177.179 62.2703 177.002C61.841 176.825 61.4817 176.573 61.1923 176.246C60.903 175.919 60.707 175.541 60.6043 175.112L61.8363 175.028C61.9483 175.373 62.1443 175.644 62.4243 175.84C62.7137 176.045 63.143 176.148 63.7123 176.148C64.3843 176.148 64.8977 176.013 65.2523 175.742C65.6163 175.471 65.7983 175.065 65.7983 174.524V173.32C65.621 173.712 65.3363 174.025 64.9443 174.258C64.5523 174.491 64.1137 174.608 63.6283 174.608C63.003 174.608 62.443 174.454 61.9483 174.146C61.463 173.838 61.0803 173.413 60.8003 172.872C60.5297 172.331 60.3943 171.71 60.3943 171.01C60.3943 170.301 60.5297 169.68 60.8003 169.148C61.071 168.607 61.4443 168.182 61.9203 167.874C62.4057 167.566 62.9563 167.412 63.5723 167.412C64.095 167.412 64.5617 167.533 64.9723 167.776C65.3923 168.019 65.6863 168.345 65.8543 168.756V167.58H66.9743V174.496C66.9743 175.075 66.8437 175.569 66.5823 175.98C66.321 176.4 65.9477 176.717 65.4623 176.932C64.977 177.156 64.3937 177.268 63.7123 177.268ZM63.6843 173.488C64.319 173.488 64.8277 173.269 65.2103 172.83C65.593 172.382 65.789 171.775 65.7983 171.01C65.8077 170.497 65.7237 170.058 65.5463 169.694C65.3783 169.321 65.131 169.036 64.8043 168.84C64.487 168.635 64.1137 168.532 63.6843 168.532C63.031 168.532 62.5223 168.756 62.1583 169.204C61.8037 169.643 61.6263 170.245 61.6263 171.01C61.6263 171.775 61.8083 172.382 62.1723 172.83C62.5457 173.269 63.0497 173.488 63.6843 173.488ZM71.9721 175.168C71.2721 175.168 70.6654 175.009 70.1521 174.692C69.6481 174.375 69.2561 173.927 68.9761 173.348C68.7054 172.76 68.5701 172.074 68.5701 171.29C68.5701 170.506 68.7054 169.825 68.9761 169.246C69.2561 168.667 69.6434 168.219 70.1381 167.902C70.6421 167.575 71.2348 167.412 71.9161 167.412C72.5601 167.412 73.1294 167.566 73.6241 167.874C74.1188 168.173 74.5014 168.611 74.7721 169.19C75.0521 169.769 75.1921 170.473 75.1921 171.304V171.654H69.8021C69.8488 172.447 70.0588 173.045 70.4321 173.446C70.8148 173.847 71.3281 174.048 71.9721 174.048C72.4574 174.048 72.8541 173.936 73.1621 173.712C73.4794 173.479 73.6988 173.175 73.8201 172.802L75.0801 172.9C74.8841 173.563 74.5108 174.109 73.9601 174.538C73.4188 174.958 72.7561 175.168 71.9721 175.168ZM69.8021 170.618H73.9041C73.8481 169.899 73.6381 169.372 73.2741 169.036C72.9194 168.7 72.4668 168.532 71.9161 168.532C71.3468 168.532 70.8754 168.709 70.5021 169.064C70.1381 169.409 69.9048 169.927 69.8021 170.618ZM79.2139 175C78.5419 175 78.0426 174.846 77.7159 174.538C77.3986 174.23 77.2399 173.749 77.2399 173.096V165.844H78.4159V173.068C78.4159 173.404 78.4906 173.637 78.6399 173.768C78.7893 173.899 79.0179 173.964 79.3259 173.964H80.3899V175H79.2139ZM76.1479 168.616V167.58H80.3899V168.616H76.1479ZM84.6596 175.168C83.9596 175.168 83.3529 175.009 82.8396 174.692C82.3356 174.375 81.9436 173.927 81.6636 173.348C81.3929 172.76 81.2576 172.074 81.2576 171.29C81.2576 170.506 81.3929 169.825 81.6636 169.246C81.9436 168.667 82.3309 168.219 82.8256 167.902C83.3296 167.575 83.9223 167.412 84.6036 167.412C85.2476 167.412 85.8169 167.566 86.3116 167.874C86.8063 168.173 87.1889 168.611 87.4596 169.19C87.7396 169.769 87.8796 170.473 87.8796 171.304V171.654H82.4896C82.5363 172.447 82.7463 173.045 83.1196 173.446C83.5023 173.847 84.0156 174.048 84.6596 174.048C85.1449 174.048 85.5416 173.936 85.8496 173.712C86.1669 173.479 86.3863 173.175 86.5076 172.802L87.7676 172.9C87.5716 173.563 87.1983 174.109 86.6476 174.538C86.1063 174.958 85.4436 175.168 84.6596 175.168ZM82.4896 170.618H86.5916C86.5356 169.899 86.3256 169.372 85.9616 169.036C85.6069 168.7 85.1543 168.532 84.6036 168.532C84.0343 168.532 83.5629 168.709 83.1896 169.064C82.8256 169.409 82.5923 169.927 82.4896 170.618ZM92.1045 175.168C91.4605 175.168 90.9005 175.009 90.4245 174.692C89.9579 174.375 89.5985 173.927 89.3465 173.348C89.0945 172.769 88.9685 172.083 88.9685 171.29C88.9685 170.497 89.0945 169.811 89.3465 169.232C89.5985 168.653 89.9579 168.205 90.4245 167.888C90.9005 167.571 91.4605 167.412 92.1045 167.412C92.5992 167.412 93.0519 167.519 93.4625 167.734C93.8732 167.939 94.1812 168.233 94.3865 168.616V165.06H95.5625V175H94.4985L94.4565 173.88C94.2512 174.281 93.9385 174.599 93.5185 174.832C93.0985 175.056 92.6272 175.168 92.1045 175.168ZM92.3425 174.048C92.7812 174.048 93.1499 173.936 93.4485 173.712C93.7565 173.488 93.9899 173.171 94.1485 172.76C94.3072 172.34 94.3865 171.85 94.3865 171.29C94.3865 170.711 94.3072 170.217 94.1485 169.806C93.9899 169.395 93.7565 169.083 93.4485 168.868C93.1499 168.644 92.7812 168.532 92.3425 168.532C91.6892 168.532 91.1665 168.779 90.7745 169.274C90.3919 169.759 90.2005 170.431 90.2005 171.29C90.2005 172.139 90.3919 172.811 90.7745 173.306C91.1665 173.801 91.6892 174.048 92.3425 174.048Z" fill="#737373"/>
<path d="M40.96 215.16V193.8H42.784V215.16H40.96ZM42.064 213.336C40.736 213.336 39.584 213.096 38.608 212.616C37.632 212.12 36.856 211.44 36.28 210.576C35.72 209.712 35.392 208.712 35.296 207.576L37.912 207.432C38.008 208.2 38.232 208.856 38.584 209.4C38.936 209.928 39.4 210.336 39.976 210.624C40.568 210.896 41.28 211.032 42.112 211.032C42.832 211.032 43.448 210.944 43.96 210.768C44.472 210.576 44.856 210.304 45.112 209.952C45.384 209.6 45.52 209.16 45.52 208.632C45.52 208.152 45.408 207.736 45.184 207.384C44.96 207.016 44.528 206.68 43.888 206.376C43.248 206.056 42.312 205.752 41.08 205.464C39.752 205.144 38.688 204.784 37.888 204.384C37.088 203.984 36.512 203.496 36.16 202.92C35.824 202.328 35.656 201.592 35.656 200.712C35.656 199.768 35.888 198.936 36.352 198.216C36.816 197.48 37.472 196.912 38.32 196.512C39.184 196.096 40.216 195.888 41.416 195.888C42.696 195.888 43.784 196.12 44.68 196.584C45.592 197.048 46.312 197.688 46.84 198.504C47.368 199.32 47.696 200.256 47.824 201.312L45.208 201.456C45.128 200.832 44.928 200.272 44.608 199.776C44.304 199.28 43.88 198.896 43.336 198.624C42.792 198.336 42.136 198.192 41.368 198.192C40.408 198.192 39.648 198.416 39.088 198.864C38.528 199.312 38.248 199.904 38.248 200.64C38.248 201.12 38.36 201.52 38.584 201.84C38.824 202.16 39.232 202.44 39.808 202.68C40.4 202.92 41.24 203.168 42.328 203.424C43.768 203.76 44.912 204.168 45.76 204.648C46.608 205.112 47.216 205.664 47.584 206.304C47.952 206.944 48.136 207.672 48.136 208.488C48.136 209.48 47.88 210.344 47.368 211.08C46.856 211.8 46.144 212.36 45.232 212.76C44.32 213.144 43.264 213.336 42.064 213.336ZM56.8379 213.384C54.8699 213.384 53.3499 212.928 52.2779 212.016C51.2219 211.104 50.6539 209.904 50.5739 208.416L53.2379 208.272C53.3339 209.248 53.7019 209.952 54.3419 210.384C54.9979 210.8 55.8299 211.008 56.8379 211.008C57.5099 211.008 58.1259 210.92 58.6859 210.744C59.2619 210.552 59.7179 210.248 60.0539 209.832C60.4059 209.4 60.5819 208.84 60.5819 208.152C60.5819 207.128 60.2379 206.376 59.5499 205.896C58.8619 205.4 57.9499 205.152 56.8139 205.152H55.3979V202.896H56.8139C57.7259 202.896 58.4859 202.712 59.0939 202.344C59.7019 201.976 60.0059 201.336 60.0059 200.424C60.0059 199.624 59.7499 199.016 59.2379 198.6C58.7259 198.168 57.9419 197.952 56.8859 197.952C55.8619 197.952 55.0859 198.152 54.5579 198.552C54.0299 198.952 53.7179 199.496 53.6219 200.184L50.9579 200.04C51.1179 198.696 51.7019 197.616 52.7099 196.8C53.7339 195.984 55.1259 195.576 56.8859 195.576C58.1019 195.576 59.1419 195.768 60.0059 196.152C60.8699 196.52 61.5339 197.056 61.9979 197.76C62.4619 198.464 62.6939 199.288 62.6939 200.232C62.6939 201.272 62.3579 202.12 61.6859 202.776C61.0299 203.432 60.0619 203.88 58.7819 204.12V203.688C60.1739 203.864 61.2699 204.36 62.0699 205.176C62.8699 205.976 63.2699 207 63.2699 208.248C63.2699 209.32 62.9979 210.248 62.4539 211.032C61.9099 211.8 61.1579 212.384 60.1979 212.784C59.2379 213.184 58.1179 213.384 56.8379 213.384ZM65.5499 216.768L66.7499 213H65.4299V209.976H68.5259V212.64L67.0139 216.768H65.5499ZM77.0433 213.384C75.7473 213.384 74.6033 213.192 73.6113 212.808C72.6193 212.424 71.8433 211.856 71.2833 211.104C70.7393 210.352 70.4673 209.432 70.4673 208.344C70.4673 207.096 70.8433 206.064 71.5953 205.248C72.3473 204.432 73.3553 203.888 74.6193 203.616L74.6673 204.096C73.6433 203.856 72.8193 203.416 72.1953 202.776C71.5873 202.136 71.2833 201.296 71.2833 200.256C71.2833 199.344 71.5153 198.536 71.9793 197.832C72.4433 197.128 73.0993 196.576 73.9473 196.176C74.8113 195.776 75.8433 195.576 77.0433 195.576C78.2273 195.576 79.2513 195.776 80.1153 196.176C80.9793 196.576 81.6353 197.128 82.0833 197.832C82.5473 198.536 82.7793 199.344 82.7793 200.256C82.7793 201.296 82.4753 202.136 81.8672 202.776C81.2593 203.4 80.4353 203.84 79.3953 204.096L79.4433 203.616C80.7233 203.888 81.7393 204.432 82.4913 205.248C83.2433 206.064 83.6193 207.096 83.6193 208.344C83.6193 209.432 83.3393 210.352 82.7793 211.104C82.2353 211.856 81.4673 212.424 80.4753 212.808C79.4833 213.192 78.3393 213.384 77.0433 213.384ZM77.0433 211.008C78.2273 211.008 79.1633 210.768 79.8513 210.288C80.5553 209.792 80.9073 209.056 80.9073 208.08C80.9073 207.152 80.5873 206.408 79.9473 205.848C79.3233 205.288 78.3553 205.008 77.0433 205.008C75.7313 205.008 74.7553 205.288 74.1153 205.848C73.4753 206.408 73.1553 207.152 73.1553 208.08C73.1553 209.056 73.5073 209.792 74.2113 210.288C74.9153 210.768 75.8593 211.008 77.0433 211.008ZM77.0433 202.872C78.0193 202.872 78.7713 202.672 79.2993 202.272C79.8433 201.856 80.1153 201.224 80.1153 200.376C80.1153 199.64 79.8513 199.048 79.3233 198.6C78.8113 198.152 78.0513 197.928 77.0433 197.928C76.0353 197.928 75.2673 198.152 74.7393 198.6C74.2113 199.048 73.9473 199.64 73.9473 200.376C73.9473 201.224 74.2193 201.856 74.7633 202.272C75.3073 202.672 76.0673 202.872 77.0433 202.872ZM92.1873 213.384C90.9233 213.384 89.8433 213.184 88.9473 212.784C88.0513 212.368 87.3473 211.792 86.8353 211.056C86.3233 210.32 86.0273 209.472 85.9473 208.512L88.6113 208.344C88.7393 209.24 89.1153 209.912 89.7393 210.36C90.3793 210.792 91.1953 211.008 92.1873 211.008C93.3073 211.008 94.1873 210.696 94.8273 210.072C95.4833 209.448 95.8113 208.576 95.8113 207.456C95.8113 206.72 95.6593 206.088 95.3553 205.56C95.0673 205.016 94.6513 204.6 94.1073 204.312C93.5633 204.008 92.9153 203.856 92.1633 203.856C91.4113 203.856 90.7393 204.016 90.1473 204.336C89.5553 204.656 89.1313 205.096 88.8753 205.656H86.1873L87.3393 195.96H97.3233V198.336H89.6433L88.9233 204.168L88.5153 203.808C88.7873 203.328 89.1313 202.936 89.5473 202.632C89.9633 202.312 90.4433 202.072 90.9873 201.912C91.5473 201.736 92.1393 201.648 92.7633 201.648C93.9153 201.648 94.9153 201.896 95.7633 202.392C96.6273 202.888 97.2993 203.576 97.7793 204.456C98.2593 205.336 98.4993 206.336 98.4993 207.456C98.4993 208.624 98.2353 209.656 97.7073 210.552C97.1793 211.448 96.4433 212.144 95.4993 212.64C94.5553 213.136 93.4513 213.384 92.1873 213.384ZM107.994 213.384C106.586 213.384 105.362 213.024 104.322 212.304C103.282 211.584 102.482 210.56 101.922 209.232C101.362 207.904 101.082 206.328 101.082 204.504C101.082 202.68 101.362 201.104 101.922 199.776C102.498 198.432 103.298 197.4 104.322 196.68C105.362 195.944 106.586 195.576 107.994 195.576C109.418 195.576 110.642 195.944 111.666 196.68C112.706 197.4 113.506 198.424 114.066 199.752C114.642 201.08 114.93 202.664 114.93 204.504C114.93 206.328 114.65 207.904 114.09 209.232C113.53 210.56 112.73 211.584 111.69 212.304C110.65 213.024 109.418 213.384 107.994 213.384ZM107.994 211.008C109.354 211.008 110.402 210.448 111.138 209.328C111.874 208.208 112.242 206.6 112.242 204.504C112.242 203.096 112.074 201.904 111.738 200.928C111.418 199.952 110.938 199.216 110.298 198.72C109.674 198.208 108.906 197.952 107.994 197.952C107.098 197.952 106.33 198.208 105.69 198.72C105.066 199.216 104.586 199.952 104.25 200.928C103.93 201.904 103.77 203.096 103.77 204.504C103.77 206.6 104.138 208.208 104.874 209.328C105.61 210.448 106.65 211.008 107.994 211.008Z" fill="#141414"/>
<g clip-path="url(#clip2_468_39358)">
<rect x="34" y="228" width="216" height="6" rx="3" fill="#141414"/>
<rect x="254" y="228" width="175" height="6" rx="3" fill="#F0F0F0"/>
</g>
<path d="M37.99 258.26V245.8H39.026V258.26H37.99ZM38.62 257.224C37.8733 257.224 37.22 257.084 36.66 256.804C36.1093 256.515 35.6707 256.123 35.344 255.628C35.0173 255.124 34.826 254.545 34.77 253.892L36.002 253.808C36.0673 254.293 36.2073 254.704 36.422 255.04C36.646 255.376 36.94 255.633 37.304 255.81C37.6773 255.978 38.1253 256.062 38.648 256.062C39.1053 256.062 39.4927 256.006 39.81 255.894C40.1367 255.773 40.384 255.6 40.552 255.376C40.72 255.143 40.804 254.863 40.804 254.536C40.804 254.228 40.734 253.957 40.594 253.724C40.454 253.491 40.1833 253.276 39.782 253.08C39.3807 252.884 38.7927 252.693 38.018 252.506C37.2713 252.31 36.674 252.1 36.226 251.876C35.778 251.643 35.456 251.363 35.26 251.036C35.0733 250.7 34.98 250.289 34.98 249.804C34.98 249.263 35.1107 248.787 35.372 248.376C35.6333 247.956 36.002 247.629 36.478 247.396C36.9633 247.163 37.542 247.046 38.214 247.046C38.9233 247.046 39.5347 247.181 40.048 247.452C40.5613 247.713 40.9673 248.077 41.266 248.544C41.574 249.011 41.7653 249.543 41.84 250.14L40.594 250.224C40.5473 249.832 40.426 249.482 40.23 249.174C40.034 248.866 39.7633 248.628 39.418 248.46C39.082 248.283 38.6713 248.194 38.186 248.194C37.5793 248.194 37.0987 248.339 36.744 248.628C36.3893 248.917 36.212 249.295 36.212 249.762C36.212 250.061 36.282 250.313 36.422 250.518C36.562 250.714 36.814 250.887 37.178 251.036C37.5513 251.185 38.0787 251.344 38.76 251.512C39.572 251.717 40.216 251.96 40.692 252.24C41.1773 252.511 41.5227 252.833 41.728 253.206C41.9333 253.57 42.036 253.985 42.036 254.452C42.036 255.012 41.8867 255.502 41.588 255.922C41.2987 256.333 40.8973 256.655 40.384 256.888C39.8707 257.112 39.2827 257.224 38.62 257.224ZM47.0187 257.224C45.9174 257.224 45.068 256.967 44.4707 256.454C43.8734 255.931 43.5514 255.259 43.5047 254.438L44.7507 254.354C44.8067 254.961 45.04 255.395 45.4507 255.656C45.8707 255.917 46.3934 256.048 47.0187 256.048C47.448 256.048 47.8447 255.992 48.2087 255.88C48.5727 255.759 48.8667 255.567 49.0907 255.306C49.3147 255.035 49.4267 254.676 49.4267 254.228C49.4267 253.565 49.2074 253.08 48.7687 252.772C48.33 252.464 47.7514 252.31 47.0327 252.31H46.2487V251.134H47.0327C47.6207 251.134 48.106 251.017 48.4887 250.784C48.8807 250.551 49.0767 250.149 49.0767 249.58C49.0767 249.067 48.9087 248.679 48.5727 248.418C48.246 248.147 47.7514 248.012 47.0887 248.012C46.4354 248.012 45.9407 248.138 45.6047 248.39C45.278 248.642 45.082 248.987 45.0167 249.426L43.7567 249.342C43.85 248.595 44.1814 247.993 44.7507 247.536C45.32 247.069 46.0994 246.836 47.0887 246.836C47.7607 246.836 48.3394 246.948 48.8247 247.172C49.31 247.387 49.6834 247.695 49.9447 248.096C50.206 248.497 50.3367 248.973 50.3367 249.524C50.3367 250.14 50.1407 250.639 49.7487 251.022C49.366 251.395 48.7967 251.652 48.0407 251.792V251.54C48.8527 251.633 49.4967 251.923 49.9727 252.408C50.4487 252.893 50.6867 253.5 50.6867 254.228C50.6867 254.863 50.528 255.404 50.2107 255.852C49.9027 256.3 49.4734 256.641 48.9227 256.874C48.372 257.107 47.7374 257.224 47.0187 257.224ZM52.0486 259.184L52.7206 257H52.0066V255.418H53.5886V256.804L52.7486 259.184H52.0486ZM58.5676 257.224C57.7649 257.224 57.0696 257.014 56.4816 256.594C55.8936 256.174 55.4363 255.577 55.1096 254.802C54.7923 254.027 54.6336 253.108 54.6336 252.044C54.6336 250.98 54.7923 250.061 55.1096 249.286C55.4363 248.502 55.8936 247.9 56.4816 247.48C57.0696 247.051 57.7649 246.836 58.5676 246.836C59.3796 246.836 60.0796 247.051 60.6676 247.48C61.2556 247.9 61.7083 248.497 62.0256 249.272C62.3523 250.047 62.5156 250.971 62.5156 252.044C62.5156 253.108 62.3523 254.027 62.0256 254.802C61.7083 255.577 61.2556 256.174 60.6676 256.594C60.0796 257.014 59.3796 257.224 58.5676 257.224ZM58.5676 256.048C59.4263 256.048 60.0889 255.703 60.5556 255.012C61.0223 254.312 61.2556 253.323 61.2556 252.044C61.2556 251.185 61.1483 250.457 60.9336 249.86C60.7283 249.253 60.4249 248.796 60.0236 248.488C59.6316 248.171 59.1463 248.012 58.5676 248.012C57.9983 248.012 57.5129 248.171 57.1116 248.488C56.7196 248.796 56.4163 249.253 56.2016 249.86C55.9963 250.457 55.8936 251.185 55.8936 252.044C55.8936 253.323 56.1269 254.312 56.5936 255.012C57.0603 255.703 57.7183 256.048 58.5676 256.048ZM65.8488 257V249.636H63.7768V248.6H64.6168C64.9808 248.6 65.2701 248.553 65.4848 248.46C65.7088 248.367 65.8675 248.208 65.9608 247.984C66.0541 247.76 66.1008 247.452 66.1008 247.06H67.0528V257H65.8488ZM73.7904 257V254.844H68.7364V253.752L73.7064 247.06H74.9944V253.668H76.2264V254.844H74.9944V257H73.7904ZM70.1924 253.668H73.7904V248.908L70.1924 253.668ZM77.5457 257V255.418H79.1277V257H77.5457ZM83.7781 257.224C82.9568 257.224 82.2848 257.023 81.7621 256.622C81.2488 256.211 80.8988 255.698 80.7121 255.082L81.9861 254.984C82.0981 255.32 82.3034 255.581 82.6021 255.768C82.9008 255.955 83.2928 256.048 83.7781 256.048C84.6088 256.048 85.2434 255.717 85.6821 255.054C86.1301 254.382 86.3588 253.304 86.3681 251.82L86.6621 251.876C86.4288 252.501 86.0694 252.987 85.5841 253.332C85.0988 253.668 84.5341 253.836 83.8901 253.836C83.2461 253.836 82.6768 253.691 82.1821 253.402C81.6874 253.113 81.2954 252.707 81.0061 252.184C80.7261 251.661 80.5861 251.055 80.5861 250.364C80.5861 249.636 80.7354 249.011 81.0341 248.488C81.3328 247.956 81.7388 247.55 82.2521 247.27C82.7748 246.981 83.3721 246.836 84.0441 246.836C84.8748 246.836 85.5514 247.027 86.0741 247.41C86.6061 247.793 86.9981 248.329 87.2501 249.02C87.5021 249.701 87.6281 250.509 87.6281 251.442C87.6281 252.273 87.5628 253.043 87.4321 253.752C87.3014 254.452 87.0868 255.063 86.7881 255.586C86.4894 256.099 86.0928 256.501 85.5981 256.79C85.1128 257.079 84.5061 257.224 83.7781 257.224ZM83.9741 252.646C84.4314 252.646 84.8328 252.557 85.1781 252.38C85.5234 252.203 85.7941 251.946 85.9901 251.61C86.1954 251.274 86.2981 250.868 86.2981 250.392C86.2981 249.935 86.2048 249.529 86.0181 249.174C85.8408 248.81 85.5841 248.525 85.2481 248.32C84.9121 248.115 84.5108 248.012 84.0441 248.012C83.5868 248.012 83.1948 248.115 82.8681 248.32C82.5414 248.516 82.2894 248.791 82.1121 249.146C81.9348 249.501 81.8461 249.907 81.8461 250.364C81.8461 250.831 81.9348 251.237 82.1121 251.582C82.2988 251.918 82.5508 252.179 82.8681 252.366C83.1854 252.553 83.5541 252.646 83.9741 252.646ZM92.5144 257.224C91.6931 257.224 91.0211 257.023 90.4984 256.622C89.9851 256.211 89.6351 255.698 89.4484 255.082L90.7224 254.984C90.8344 255.32 91.0398 255.581 91.3384 255.768C91.6371 255.955 92.0291 256.048 92.5144 256.048C93.3451 256.048 93.9798 255.717 94.4184 255.054C94.8664 254.382 95.0951 253.304 95.1044 251.82L95.3984 251.876C95.1651 252.501 94.8058 252.987 94.3204 253.332C93.8351 253.668 93.2704 253.836 92.6264 253.836C91.9824 253.836 91.4131 253.691 90.9184 253.402C90.4238 253.113 90.0318 252.707 89.7424 252.184C89.4624 251.661 89.3224 251.055 89.3224 250.364C89.3224 249.636 89.4718 249.011 89.7704 248.488C90.0691 247.956 90.4751 247.55 90.9884 247.27C91.5111 246.981 92.1084 246.836 92.7804 246.836C93.6111 246.836 94.2878 247.027 94.8104 247.41C95.3424 247.793 95.7344 248.329 95.9864 249.02C96.2384 249.701 96.3644 250.509 96.3644 251.442C96.3644 252.273 96.2991 253.043 96.1684 253.752C96.0378 254.452 95.8231 255.063 95.5244 255.586C95.2258 256.099 94.8291 256.501 94.3344 256.79C93.8491 257.079 93.2424 257.224 92.5144 257.224ZM92.7104 252.646C93.1678 252.646 93.5691 252.557 93.9144 252.38C94.2598 252.203 94.5304 251.946 94.7264 251.61C94.9318 251.274 95.0344 250.868 95.0344 250.392C95.0344 249.935 94.9411 249.529 94.7544 249.174C94.5771 248.81 94.3204 248.525 93.9844 248.32C93.6484 248.115 93.2471 248.012 92.7804 248.012C92.3231 248.012 91.9311 248.115 91.6044 248.32C91.2778 248.516 91.0258 248.791 90.8484 249.146C90.6711 249.501 90.5824 249.907 90.5824 250.364C90.5824 250.831 90.6711 251.237 90.8484 251.582C91.0351 251.918 91.2871 252.179 91.6044 252.366C91.9218 252.553 92.2904 252.646 92.7104 252.646ZM104.541 257.168C103.878 257.168 103.313 257.061 102.847 256.846C102.389 256.631 102.03 256.337 101.769 255.964C101.517 255.581 101.372 255.147 101.335 254.662L102.567 254.578C102.641 255.026 102.833 255.385 103.141 255.656C103.449 255.917 103.915 256.048 104.541 256.048C105.045 256.048 105.446 255.969 105.745 255.81C106.053 255.642 106.207 255.376 106.207 255.012C106.207 254.816 106.16 254.653 106.067 254.522C105.973 254.391 105.791 254.279 105.521 254.186C105.25 254.083 104.849 253.985 104.317 253.892C103.607 253.761 103.047 253.603 102.637 253.416C102.235 253.22 101.946 252.982 101.769 252.702C101.601 252.413 101.517 252.072 101.517 251.68C101.517 251.017 101.759 250.476 102.245 250.056C102.73 249.627 103.421 249.412 104.317 249.412C104.923 249.412 105.432 249.524 105.843 249.748C106.263 249.963 106.589 250.252 106.823 250.616C107.065 250.971 107.224 251.363 107.299 251.792L106.067 251.876C106.011 251.615 105.908 251.386 105.759 251.19C105.609 250.985 105.413 250.826 105.171 250.714C104.928 250.593 104.639 250.532 104.303 250.532C103.771 250.532 103.379 250.635 103.127 250.84C102.875 251.045 102.749 251.307 102.749 251.624C102.749 251.867 102.805 252.067 102.917 252.226C103.038 252.375 103.229 252.501 103.491 252.604C103.752 252.697 104.102 252.781 104.541 252.856C105.297 252.987 105.885 253.145 106.305 253.332C106.725 253.519 107.019 253.747 107.187 254.018C107.355 254.289 107.439 254.62 107.439 255.012C107.439 255.469 107.308 255.861 107.047 256.188C106.795 256.505 106.449 256.748 106.011 256.916C105.581 257.084 105.091 257.168 104.541 257.168ZM109.044 259.1V249.58H110.136L110.164 251.176L109.996 251.092C110.182 250.541 110.49 250.126 110.92 249.846C111.358 249.557 111.862 249.412 112.432 249.412C113.169 249.412 113.771 249.594 114.238 249.958C114.714 250.322 115.064 250.798 115.288 251.386C115.521 251.974 115.638 252.609 115.638 253.29C115.638 253.971 115.521 254.606 115.288 255.194C115.064 255.782 114.714 256.258 114.238 256.622C113.771 256.986 113.169 257.168 112.432 257.168C112.049 257.168 111.69 257.103 111.354 256.972C111.027 256.841 110.747 256.659 110.514 256.426C110.29 256.193 110.136 255.917 110.052 255.6L110.22 255.404V259.1H109.044ZM112.32 256.048C112.964 256.048 113.472 255.805 113.846 255.32C114.219 254.835 114.406 254.158 114.406 253.29C114.406 252.422 114.219 251.745 113.846 251.26C113.472 250.775 112.964 250.532 112.32 250.532C111.89 250.532 111.517 250.635 111.2 250.84C110.892 251.045 110.649 251.353 110.472 251.764C110.304 252.175 110.22 252.683 110.22 253.29C110.22 253.897 110.304 254.405 110.472 254.816C110.64 255.227 110.882 255.535 111.2 255.74C111.517 255.945 111.89 256.048 112.32 256.048ZM120.131 257.168C119.431 257.168 118.825 257.009 118.311 256.692C117.807 256.375 117.415 255.927 117.135 255.348C116.865 254.76 116.729 254.074 116.729 253.29C116.729 252.506 116.865 251.825 117.135 251.246C117.415 250.667 117.803 250.219 118.297 249.902C118.801 249.575 119.394 249.412 120.075 249.412C120.719 249.412 121.289 249.566 121.783 249.874C122.278 250.173 122.661 250.611 122.931 251.19C123.211 251.769 123.351 252.473 123.351 253.304V253.654H117.961C118.008 254.447 118.218 255.045 118.591 255.446C118.974 255.847 119.487 256.048 120.131 256.048C120.617 256.048 121.013 255.936 121.321 255.712C121.639 255.479 121.858 255.175 121.979 254.802L123.239 254.9C123.043 255.563 122.67 256.109 122.119 256.538C121.578 256.958 120.915 257.168 120.131 257.168ZM117.961 252.618H122.063C122.007 251.899 121.797 251.372 121.433 251.036C121.079 250.7 120.626 250.532 120.075 250.532C119.506 250.532 119.035 250.709 118.661 251.064C118.297 251.409 118.064 251.927 117.961 252.618ZM124.944 257V249.58H126.022L126.064 251.47L125.924 251.344C126.018 250.905 126.181 250.546 126.414 250.266C126.648 249.977 126.928 249.762 127.254 249.622C127.59 249.482 127.95 249.412 128.332 249.412C128.902 249.412 129.368 249.538 129.732 249.79C130.106 250.042 130.381 250.383 130.558 250.812C130.745 251.232 130.838 251.703 130.838 252.226V257H129.662V252.562C129.662 252.105 129.606 251.722 129.494 251.414C129.392 251.097 129.224 250.859 128.99 250.7C128.757 250.532 128.454 250.448 128.08 250.448C127.511 250.448 127.04 250.63 126.666 250.994C126.302 251.349 126.12 251.871 126.12 252.562V257H124.944ZM135.234 257C134.562 257 134.063 256.846 133.736 256.538C133.419 256.23 133.26 255.749 133.26 255.096V247.844H134.436V255.068C134.436 255.404 134.511 255.637 134.66 255.768C134.81 255.899 135.038 255.964 135.346 255.964H136.41V257H135.234ZM132.168 250.616V249.58H136.41V250.616H132.168Z" fill="#737373"/>
<path d="M353.06 258.26V245.8H354.124V258.26H353.06ZM353.704 257.196C352.929 257.196 352.257 257.056 351.688 256.776C351.119 256.487 350.666 256.09 350.33 255.586C350.003 255.082 349.812 254.499 349.756 253.836L351.282 253.752C351.338 254.2 351.469 254.583 351.674 254.9C351.879 255.208 352.15 255.446 352.486 255.614C352.831 255.773 353.247 255.852 353.732 255.852C354.152 255.852 354.511 255.801 354.81 255.698C355.109 255.586 355.333 255.427 355.482 255.222C355.641 255.017 355.72 254.76 355.72 254.452C355.72 254.172 355.655 253.929 355.524 253.724C355.393 253.509 355.141 253.313 354.768 253.136C354.395 252.949 353.849 252.772 353.13 252.604C352.355 252.417 351.735 252.207 351.268 251.974C350.801 251.741 350.465 251.456 350.26 251.12C350.064 250.775 349.966 250.345 349.966 249.832C349.966 249.281 350.101 248.796 350.372 248.376C350.643 247.947 351.025 247.615 351.52 247.382C352.024 247.139 352.626 247.018 353.326 247.018C354.073 247.018 354.707 247.153 355.23 247.424C355.762 247.695 356.182 248.068 356.49 248.544C356.798 249.02 356.989 249.566 357.064 250.182L355.538 250.266C355.491 249.902 355.375 249.575 355.188 249.286C355.011 248.997 354.763 248.773 354.446 248.614C354.129 248.446 353.746 248.362 353.298 248.362C352.738 248.362 352.295 248.493 351.968 248.754C351.641 249.015 351.478 249.361 351.478 249.79C351.478 250.07 351.543 250.303 351.674 250.49C351.814 250.677 352.052 250.84 352.388 250.98C352.733 251.12 353.223 251.265 353.858 251.414C354.698 251.61 355.365 251.848 355.86 252.128C356.355 252.399 356.709 252.721 356.924 253.094C357.139 253.467 357.246 253.892 357.246 254.368C357.246 254.947 357.097 255.451 356.798 255.88C356.499 256.3 356.084 256.627 355.552 256.86C355.02 257.084 354.404 257.196 353.704 257.196ZM362.378 257.224C361.622 257.224 360.955 257.112 360.376 256.888C359.797 256.664 359.345 256.333 359.018 255.894C358.701 255.455 358.542 254.919 358.542 254.284C358.542 253.556 358.761 252.954 359.2 252.478C359.639 252.002 360.227 251.685 360.964 251.526L360.992 251.806C360.395 251.666 359.914 251.409 359.55 251.036C359.195 250.663 359.018 250.173 359.018 249.566C359.018 249.034 359.153 248.563 359.424 248.152C359.695 247.741 360.077 247.419 360.572 247.186C361.076 246.953 361.678 246.836 362.378 246.836C363.069 246.836 363.666 246.953 364.17 247.186C364.674 247.419 365.057 247.741 365.318 248.152C365.589 248.563 365.724 249.034 365.724 249.566C365.724 250.173 365.547 250.663 365.192 251.036C364.837 251.4 364.357 251.657 363.75 251.806L363.778 251.526C364.525 251.685 365.117 252.002 365.556 252.478C365.995 252.954 366.214 253.556 366.214 254.284C366.214 254.919 366.051 255.455 365.724 255.894C365.407 256.333 364.959 256.664 364.38 256.888C363.801 257.112 363.134 257.224 362.378 257.224ZM362.378 255.838C363.069 255.838 363.615 255.698 364.016 255.418C364.427 255.129 364.632 254.699 364.632 254.13C364.632 253.589 364.445 253.155 364.072 252.828C363.708 252.501 363.143 252.338 362.378 252.338C361.613 252.338 361.043 252.501 360.67 252.828C360.297 253.155 360.11 253.589 360.11 254.13C360.11 254.699 360.315 255.129 360.726 255.418C361.137 255.698 361.687 255.838 362.378 255.838ZM362.378 251.092C362.947 251.092 363.386 250.975 363.694 250.742C364.011 250.499 364.17 250.131 364.17 249.636C364.17 249.207 364.016 248.861 363.708 248.6C363.409 248.339 362.966 248.208 362.378 248.208C361.79 248.208 361.342 248.339 361.034 248.6C360.726 248.861 360.572 249.207 360.572 249.636C360.572 250.131 360.731 250.499 361.048 250.742C361.365 250.975 361.809 251.092 362.378 251.092ZM371.072 257.224C369.924 257.224 369.037 256.958 368.412 256.426C367.796 255.894 367.465 255.194 367.418 254.326L368.972 254.242C369.028 254.811 369.243 255.222 369.616 255.474C369.999 255.717 370.484 255.838 371.072 255.838C371.464 255.838 371.823 255.787 372.15 255.684C372.486 255.572 372.752 255.395 372.948 255.152C373.153 254.9 373.256 254.573 373.256 254.172C373.256 253.575 373.055 253.136 372.654 252.856C372.253 252.567 371.721 252.422 371.058 252.422H370.232V251.106H371.058C371.59 251.106 372.033 250.999 372.388 250.784C372.743 250.569 372.92 250.196 372.92 249.664C372.92 249.197 372.771 248.843 372.472 248.6C372.173 248.348 371.716 248.222 371.1 248.222C370.503 248.222 370.05 248.339 369.742 248.572C369.434 248.805 369.252 249.123 369.196 249.524L367.642 249.44C367.735 248.656 368.076 248.026 368.664 247.55C369.261 247.074 370.073 246.836 371.1 246.836C371.809 246.836 372.416 246.948 372.92 247.172C373.424 247.387 373.811 247.699 374.082 248.11C374.353 248.521 374.488 249.001 374.488 249.552C374.488 250.159 374.292 250.653 373.9 251.036C373.517 251.419 372.953 251.68 372.206 251.82V251.568C373.018 251.671 373.657 251.96 374.124 252.436C374.591 252.903 374.824 253.5 374.824 254.228C374.824 254.853 374.665 255.395 374.348 255.852C374.031 256.3 373.592 256.641 373.032 256.874C372.472 257.107 371.819 257.224 371.072 257.224ZM379.962 257.224C379.225 257.224 378.595 257.107 378.072 256.874C377.549 256.631 377.139 256.295 376.84 255.866C376.541 255.437 376.369 254.942 376.322 254.382L377.876 254.284C377.951 254.807 378.17 255.199 378.534 255.46C378.907 255.712 379.383 255.838 379.962 255.838C380.615 255.838 381.129 255.656 381.502 255.292C381.885 254.928 382.076 254.419 382.076 253.766C382.076 253.337 381.987 252.968 381.81 252.66C381.642 252.343 381.399 252.1 381.082 251.932C380.765 251.755 380.387 251.666 379.948 251.666C379.509 251.666 379.117 251.759 378.772 251.946C378.427 252.133 378.179 252.389 378.03 252.716H376.462L377.134 247.06H382.958V248.446H378.478L378.058 251.848L377.82 251.638C377.979 251.358 378.179 251.129 378.422 250.952C378.665 250.765 378.945 250.625 379.262 250.532C379.589 250.429 379.934 250.378 380.298 250.378C380.97 250.378 381.553 250.523 382.048 250.812C382.552 251.101 382.944 251.503 383.224 252.016C383.504 252.529 383.644 253.113 383.644 253.766C383.644 254.447 383.49 255.049 383.182 255.572C382.874 256.095 382.445 256.501 381.894 256.79C381.343 257.079 380.699 257.224 379.962 257.224ZM385.053 257V255.236H386.859V257H385.053ZM391.89 257.224C391.069 257.224 390.355 257.014 389.748 256.594C389.141 256.174 388.675 255.577 388.348 254.802C388.021 254.027 387.858 253.108 387.858 252.044C387.858 250.98 388.021 250.061 388.348 249.286C388.684 248.502 389.151 247.9 389.748 247.48C390.355 247.051 391.069 246.836 391.89 246.836C392.721 246.836 393.435 247.051 394.032 247.48C394.639 247.9 395.105 248.497 395.432 249.272C395.768 250.047 395.936 250.971 395.936 252.044C395.936 253.108 395.773 254.027 395.446 254.802C395.119 255.577 394.653 256.174 394.046 256.594C393.439 257.014 392.721 257.224 391.89 257.224ZM391.89 255.838C392.683 255.838 393.295 255.511 393.724 254.858C394.153 254.205 394.368 253.267 394.368 252.044C394.368 251.223 394.27 250.527 394.074 249.958C393.887 249.389 393.607 248.959 393.234 248.67C392.87 248.371 392.422 248.222 391.89 248.222C391.367 248.222 390.919 248.371 390.546 248.67C390.182 248.959 389.902 249.389 389.706 249.958C389.519 250.527 389.426 251.223 389.426 252.044C389.426 253.267 389.641 254.205 390.07 254.858C390.499 255.511 391.106 255.838 391.89 255.838ZM399.265 257V249.916H397.165V248.698H398.019C398.392 248.698 398.696 248.651 398.929 248.558C399.162 248.455 399.33 248.287 399.433 248.054C399.536 247.811 399.587 247.48 399.587 247.06H400.777V257H399.265ZM408.385 257C407.9 257 407.508 256.874 407.209 256.622C406.91 256.37 406.761 255.969 406.761 255.418V247.06H408.245V255.278C408.245 255.446 408.287 255.572 408.371 255.656C408.464 255.74 408.595 255.782 408.763 255.782H409.351V257H408.385ZM413.682 257.168C412.954 257.168 412.324 257.009 411.792 256.692C411.27 256.375 410.864 255.922 410.574 255.334C410.294 254.746 410.154 254.06 410.154 253.276C410.154 252.492 410.294 251.811 410.574 251.232C410.864 250.644 411.27 250.191 411.792 249.874C412.315 249.547 412.931 249.384 413.64 249.384C414.312 249.384 414.905 249.543 415.418 249.86C415.932 250.168 416.328 250.616 416.608 251.204C416.898 251.792 417.042 252.501 417.042 253.332V253.71H411.694C411.732 254.438 411.923 254.984 412.268 255.348C412.623 255.712 413.099 255.894 413.696 255.894C414.135 255.894 414.499 255.791 414.788 255.586C415.078 255.381 415.278 255.105 415.39 254.76L416.93 254.858C416.734 255.549 416.347 256.109 415.768 256.538C415.199 256.958 414.504 257.168 413.682 257.168ZM411.694 252.59H415.474C415.428 251.927 415.236 251.437 414.9 251.12C414.574 250.803 414.154 250.644 413.64 250.644C413.108 250.644 412.67 250.812 412.324 251.148C411.988 251.475 411.778 251.955 411.694 252.59ZM419.015 257V249.076C419.015 248.46 419.188 247.97 419.533 247.606C419.878 247.242 420.42 247.06 421.157 247.06H422.473V248.278H421.353C421.064 248.278 420.849 248.357 420.709 248.516C420.569 248.665 420.499 248.88 420.499 249.16V257H419.015ZM417.979 250.854V249.65H422.361V250.854H417.979ZM426.379 257C425.669 257 425.147 256.837 424.811 256.51C424.475 256.183 424.307 255.675 424.307 254.984V247.802H425.791V254.872C425.791 255.217 425.865 255.455 426.015 255.586C426.164 255.717 426.393 255.782 426.701 255.782H427.765V257H426.379ZM423.173 250.77V249.552H427.765V250.77H423.173Z" fill="#141414"/>
</g>
</g>
<defs>
<filter id="filter0_dddddd_468_39358" x="-16.0626" y="-24.0626" width="495.125" height="336.872" filterUnits="userSpaceOnUse" color-interpolation-filters="sRGB">
<feFlood flood-opacity="0" result="BackgroundImageFix"/>
<feColorMatrix in="SourceAlpha" type="matrix" values="0 0 0 0 0 0 0 0 0 0 0 0 0 0 0 0 0 0 127 0" result="hardAlpha"/>
<feOffset dy="1"/>
<feGaussianBlur stdDeviation="1"/>
<feColorMatrix type="matrix" values="0 0 0 0 0.0431373 0 0 0 0 0.0431373 0 0 0 0 0.0431373 0 0 0 0.05 0"/>
<feBlend mode="normal" in2="BackgroundImageFix" result="effect1_dropShadow_468_39358"/>
<feColorMatrix in="SourceAlpha" type="matrix" values="0 0 0 0 0 0 0 0 0 0 0 0 0 0 0 0 0 0 127 0" result="hardAlpha"/>
<feMorphology radius="0.946184" operator="dilate" in="SourceAlpha" result="effect2_dropShadow_468_39358"/>
<feOffset/>
<feColorMatrix type="matrix" values="0 0 0 0 0.0431373 0 0 0 0 0.0431373 0 0 0 0 0.0431373 0 0 0 0.05 0"/>
<feBlend mode="normal" in2="effect1_dropShadow_468_39358" result="effect2_dropShadow_468_39358"/>
<feColorMatrix in="SourceAlpha" type="matrix" values="0 0 0 0 0 0 0 0 0 0 0 0 0 0 0 0 0 0 127 0" result="hardAlpha"/>
<feMorphology radius="0.946184" operator="dilate" in="SourceAlpha" result="effect3_dropShadow_468_39358"/>
<feOffset/>
<feComposite in2="hardAlpha" operator="out"/>
<feColorMatrix type="matrix" values="0 0 0 0 0.0431373 0 0 0 0 0.0431373 0 0 0 0 0.0431373 0 0 0 0.05 0"/>
<feBlend mode="normal" in2="effect2_dropShadow_468_39358" result="effect3_dropShadow_468_39358"/>
<feColorMatrix in="SourceAlpha" type="matrix" values="0 0 0 0 0 0 0 0 0 0 0 0 0 0 0 0 0 0 127 0" result="hardAlpha"/>
<feOffset dy="3.78474"/>
<feGaussianBlur stdDeviation="3.78474"/>
<feComposite in2="hardAlpha" operator="out"/>
<feColorMatrix type="matrix" values="0 0 0 0 0.0431373 0 0 0 0 0.0431373 0 0 0 0 0.0431373 0 0 0 0.06 0"/>
<feBlend mode="normal" in2="effect3_dropShadow_468_39358" result="effect4_dropShadow_468_39358"/>
<feColorMatrix in="SourceAlpha" type="matrix" values="0 0 0 0 0 0 0 0 0 0 0 0 0 0 0 0 0 0 127 0" result="hardAlpha"/>
<feMorphology radius="9.46184" operator="dilate" in="SourceAlpha" result="effect5_dropShadow_468_39358"/>
<feOffset/>
<feComposite in2="hardAlpha" operator="out"/>
<feColorMatrix type="matrix" values="0 0 0 0 0 0 0 0 0 0 0 0 0 0 0 0 0 0 0.02 0"/>
<feBlend mode="normal" in2="effect4_dropShadow_468_39358" result="effect5_dropShadow_468_39358"/>
<feColorMatrix in="SourceAlpha" type="matrix" values="0 0 0 0 0 0 0 0 0 0 0 0 0 0 0 0 0 0 127 0" result="hardAlpha"/>
<feMorphology radius="3.48094" operator="erode" in="SourceAlpha" result="effect6_dropShadow_468_39358"/>
<feOffset dy="17.4047"/>
<feGaussianBlur stdDeviation="10.4428"/>
<feColorMatrix type="matrix" values="0 0 0 0 0.0431373 0 0 0 0 0.0431373 0 0 0 0 0.0431373 0 0 0 0.02 0"/>
<feBlend mode="normal" in2="effect5_dropShadow_468_39358" result="effect6_dropShadow_468_39358"/>
<feBlend mode="normal" in="SourceGraphic" in2="effect6_dropShadow_468_39358" result="shape"/>
</filter>
<clipPath id="clip0_468_39358">
<path d="M18 22C18 15.3726 23.3726 10 30 10H433C439.627 10 445 15.3726 445 22V266C445 272.627 439.627 278 433 278H30C23.3726 278 18 272.627 18 266V22Z" fill="white"/>
</clipPath>
<clipPath id="clip1_468_39358">
<rect width="395" height="6" fill="white" transform="translate(34 94)"/>
</clipPath>
<clipPath id="clip2_468_39358">
<rect width="395" height="6" fill="white" transform="translate(34 228)"/>
</clipPath>
</defs>
</svg>
