<svg width="426" height="383" viewBox="0 0 426 383" fill="none" xmlns="http://www.w3.org/2000/svg">
<g filter="url(#filter0_ddddd_468_39217)">
<rect x="44" y="10" width="338" height="338" rx="169" fill="white"/>
<path d="M361.589 203.146C364.565 203.63 366.596 206.437 366.008 209.395C360.611 236.563 348.069 261.84 329.631 282.597C309.983 304.718 284.449 320.794 256.009 328.952C227.57 337.109 197.396 337.011 169.01 328.668C140.625 320.326 115.196 304.083 95.6925 281.835C76.1887 259.587 63.4139 232.252 58.8583 203.018C54.3028 173.784 58.1545 143.858 69.9641 116.731C81.7736 89.6032 101.054 66.3934 125.556 49.8093C148.548 34.2467 175.249 25.1209 202.889 23.3262C205.899 23.1309 208.416 25.5113 208.506 28.5254C208.596 31.5396 206.224 34.0453 203.216 34.2486C177.646 35.9764 152.954 44.4509 131.677 58.8526C108.89 74.2758 90.9593 95.8609 79.9764 121.089C68.9936 146.318 65.4115 174.149 69.6481 201.337C73.8847 228.524 85.7654 253.946 103.904 274.637C122.042 295.327 145.691 310.433 172.09 318.191C198.489 325.95 226.55 326.041 252.999 318.455C279.448 310.869 303.194 295.917 321.467 275.346C338.529 256.136 350.163 232.766 355.222 207.642C355.818 204.686 358.612 202.663 361.589 203.146Z" fill="#F0F0F0"/>
<path d="M349.016 114.49C351.741 113.198 355.006 114.355 356.202 117.123C365.949 139.681 370.229 164.225 368.693 188.75C368.504 191.76 365.823 193.954 362.822 193.661C359.821 193.367 357.637 190.696 357.818 187.686C359.171 165.132 355.237 142.571 346.329 121.806C345.141 119.035 346.292 115.782 349.016 114.49Z" fill="#FDB022"/>
<path d="M212.998 28.4584C212.998 25.4429 215.443 22.9884 218.457 23.094C226.9 23.3896 235.306 24.3707 243.591 26.0275C246.548 26.6189 248.362 29.5706 247.667 32.505C246.973 35.4394 244.033 37.2446 241.074 36.661C233.616 35.1899 226.053 34.3072 218.457 34.0211C215.443 33.9077 212.998 31.4739 212.998 28.4584Z" fill="#F23E94"/>
<path d="M251.933 33.5806C252.713 30.6677 255.71 28.9292 258.594 29.8105C267.182 32.4353 275.527 35.7967 283.537 39.8573C286.227 41.2208 287.182 44.5512 285.725 47.1914C284.268 49.8317 280.951 50.7812 278.258 49.4248C271.027 45.7829 263.504 42.7526 255.767 40.3659C252.886 39.4769 251.153 36.4935 251.933 33.5806Z" fill="#1570EF"/>
<path d="M290.646 50.0291C292.201 47.4457 295.562 46.6042 298.09 48.249C304.837 52.6402 311.235 57.5472 317.225 62.9259C319.468 64.9406 319.527 68.4048 317.435 70.5766C315.343 72.7484 311.893 72.8048 309.644 70.796C304.25 65.9785 298.504 61.571 292.453 57.6103C289.93 55.9589 289.091 52.6125 290.646 50.0291Z" fill="#06AED4"/>
<path d="M321.988 75.1544C324.171 73.0743 327.635 73.1515 329.637 75.4061C336.322 82.9332 342.263 91.0896 347.376 99.7614C348.908 102.359 347.919 105.679 345.269 107.119C342.62 108.559 339.314 107.573 337.775 104.979C333.129 97.1465 327.755 89.7688 321.726 82.9437C319.729 80.6838 319.804 77.2345 321.988 75.1544Z" fill="#FF692E"/>
<path d="M176.519 123.602L181.179 110.68H183.29L187.949 123.602H186.238L184.946 119.925H179.522L178.23 123.602H176.519ZM180.05 118.396H184.418L182.234 112.045L180.05 118.396ZM191.141 123.602L187.629 113.956H189.303L192.106 122.036L194.909 113.956H196.583L193.07 123.602H191.141ZM200.636 123.82C199.641 123.82 198.846 123.589 198.251 123.128C197.669 122.667 197.378 122.024 197.378 121.199C197.378 120.374 197.621 119.725 198.106 119.252C198.591 118.779 199.362 118.445 200.417 118.251L203.839 117.614C203.839 116.801 203.645 116.194 203.256 115.794C202.88 115.393 202.31 115.193 201.546 115.193C200.878 115.193 200.351 115.345 199.962 115.648C199.574 115.939 199.307 116.364 199.161 116.922L197.542 116.795C197.724 115.885 198.16 115.151 198.852 114.593C199.556 114.022 200.454 113.737 201.546 113.737C202.783 113.737 203.73 114.089 204.385 114.793C205.04 115.484 205.368 116.443 205.368 117.668V121.654C205.368 121.873 205.404 122.03 205.477 122.127C205.562 122.212 205.695 122.255 205.877 122.255H206.259V123.602C206.211 123.614 206.132 123.62 206.023 123.62C205.914 123.632 205.798 123.638 205.677 123.638C205.24 123.638 204.882 123.571 204.603 123.438C204.336 123.292 204.142 123.074 204.021 122.783C203.9 122.479 203.839 122.085 203.839 121.6L204.021 121.636C203.936 122.048 203.73 122.425 203.402 122.764C203.074 123.092 202.668 123.353 202.183 123.547C201.697 123.729 201.182 123.82 200.636 123.82ZM200.781 122.473C201.424 122.473 201.97 122.352 202.419 122.109C202.88 121.854 203.232 121.515 203.475 121.09C203.718 120.653 203.839 120.168 203.839 119.634V118.942L200.708 119.525C200.053 119.646 199.598 119.834 199.343 120.089C199.101 120.332 198.979 120.653 198.979 121.054C198.979 121.502 199.137 121.854 199.453 122.109C199.78 122.352 200.223 122.473 200.781 122.473ZM207.915 123.602V113.956H209.444V123.602H207.915ZM207.879 112.445V110.661H209.48V112.445H207.879ZM214.074 123.602C213.515 123.602 213.06 123.456 212.709 123.165C212.357 122.874 212.181 122.412 212.181 121.782V110.68H213.71V121.654C213.71 121.848 213.758 122 213.855 122.109C213.964 122.206 214.116 122.255 214.31 122.255H215.147V123.602H214.074ZM219.635 123.82C218.641 123.82 217.846 123.589 217.251 123.128C216.669 122.667 216.378 122.024 216.378 121.199C216.378 120.374 216.62 119.725 217.106 119.252C217.591 118.779 218.361 118.445 219.417 118.251L222.839 117.614C222.839 116.801 222.645 116.194 222.256 115.794C221.88 115.393 221.31 115.193 220.545 115.193C219.878 115.193 219.35 115.345 218.962 115.648C218.574 115.939 218.307 116.364 218.161 116.922L216.541 116.795C216.723 115.885 217.16 115.151 217.852 114.593C218.556 114.022 219.453 113.737 220.545 113.737C221.783 113.737 222.729 114.089 223.385 114.793C224.04 115.484 224.367 116.443 224.367 117.668V121.654C224.367 121.873 224.404 122.03 224.477 122.127C224.562 122.212 224.695 122.255 224.877 122.255H225.259V123.602C225.211 123.614 225.132 123.62 225.023 123.62C224.913 123.632 224.798 123.638 224.677 123.638C224.24 123.638 223.882 123.571 223.603 123.438C223.336 123.292 223.142 123.074 223.021 122.783C222.899 122.479 222.839 122.085 222.839 121.6L223.021 121.636C222.936 122.048 222.729 122.425 222.402 122.764C222.074 123.092 221.668 123.353 221.182 123.547C220.697 123.729 220.181 123.82 219.635 123.82ZM219.781 122.473C220.424 122.473 220.97 122.352 221.419 122.109C221.88 121.854 222.232 121.515 222.475 121.09C222.717 120.653 222.839 120.168 222.839 119.634V118.942L219.708 119.525C219.053 119.646 218.598 119.834 218.343 120.089C218.101 120.332 217.979 120.653 217.979 121.054C217.979 121.502 218.137 121.854 218.452 122.109C218.78 122.352 219.223 122.473 219.781 122.473ZM231.337 123.82C230.67 123.82 230.076 123.674 229.554 123.383C229.032 123.08 228.632 122.667 228.353 122.146L228.298 123.602H226.915V110.68H228.444V115.302C228.686 114.902 229.062 114.544 229.572 114.229C230.082 113.901 230.67 113.737 231.337 113.737C232.187 113.737 232.921 113.943 233.54 114.356C234.158 114.768 234.638 115.351 234.977 116.103C235.317 116.855 235.487 117.747 235.487 118.779C235.487 119.81 235.317 120.702 234.977 121.454C234.638 122.206 234.158 122.789 233.54 123.201C232.921 123.614 232.187 123.82 231.337 123.82ZM231.246 122.364C232.059 122.364 232.702 122.042 233.176 121.399C233.649 120.756 233.885 119.883 233.885 118.779C233.885 117.662 233.649 116.789 233.176 116.158C232.702 115.515 232.072 115.193 231.283 115.193C230.688 115.193 230.179 115.339 229.754 115.63C229.329 115.909 229.002 116.315 228.771 116.849C228.553 117.383 228.444 118.026 228.444 118.779C228.444 119.507 228.553 120.144 228.771 120.69C229.002 121.223 229.323 121.636 229.736 121.927C230.161 122.218 230.664 122.364 231.246 122.364ZM239.543 123.602C238.985 123.602 238.53 123.456 238.178 123.165C237.826 122.874 237.65 122.412 237.65 121.782V110.68H239.179V121.654C239.179 121.848 239.227 122 239.324 122.109C239.434 122.206 239.585 122.255 239.779 122.255H240.617V123.602H239.543ZM246.163 123.82C245.253 123.82 244.464 123.614 243.797 123.201C243.142 122.789 242.632 122.206 242.268 121.454C241.916 120.69 241.74 119.798 241.74 118.779C241.74 117.759 241.916 116.874 242.268 116.121C242.632 115.369 243.136 114.787 243.779 114.374C244.434 113.949 245.204 113.737 246.09 113.737C246.927 113.737 247.667 113.937 248.311 114.338C248.954 114.726 249.451 115.296 249.803 116.049C250.167 116.801 250.349 117.717 250.349 118.797V119.252H243.342C243.403 120.283 243.676 121.06 244.161 121.581C244.658 122.103 245.326 122.364 246.163 122.364C246.794 122.364 247.31 122.218 247.71 121.927C248.122 121.624 248.408 121.229 248.565 120.744L250.203 120.872C249.949 121.733 249.463 122.443 248.747 123.001C248.044 123.547 247.182 123.82 246.163 123.82ZM243.342 117.905H248.675C248.602 116.971 248.329 116.285 247.856 115.848C247.394 115.412 246.806 115.193 246.09 115.193C245.35 115.193 244.737 115.424 244.252 115.885C243.779 116.334 243.475 117.007 243.342 117.905Z" fill="#737373"/>
<path d="M150.71 188.712V154.002H153.674V188.712H150.71ZM152.504 185.748C150.346 185.748 148.474 185.358 146.888 184.578C145.302 183.772 144.041 182.667 143.105 181.263C142.195 179.859 141.662 178.234 141.506 176.388L145.757 176.154C145.913 177.402 146.277 178.468 146.849 179.352C147.421 180.21 148.175 180.873 149.111 181.341C150.073 181.783 151.23 182.004 152.582 182.004C153.752 182.004 154.753 181.861 155.585 181.575C156.417 181.263 157.041 180.821 157.457 180.249C157.899 179.677 158.12 178.962 158.12 178.104C158.12 177.324 157.938 176.648 157.574 176.076C157.21 175.478 156.508 174.932 155.468 174.438C154.428 173.918 152.907 173.424 150.905 172.956C148.747 172.436 147.018 171.851 145.718 171.201C144.418 170.551 143.482 169.758 142.91 168.822C142.364 167.86 142.091 166.664 142.091 165.234C142.091 163.7 142.468 162.348 143.222 161.178C143.976 159.982 145.042 159.059 146.42 158.409C147.824 157.733 149.501 157.395 151.451 157.395C153.531 157.395 155.299 157.772 156.755 158.526C158.237 159.28 159.407 160.32 160.265 161.646C161.123 162.972 161.656 164.493 161.864 166.209L157.613 166.443C157.483 165.429 157.158 164.519 156.638 163.713C156.144 162.907 155.455 162.283 154.571 161.841C153.687 161.373 152.621 161.139 151.373 161.139C149.813 161.139 148.578 161.503 147.668 162.231C146.758 162.959 146.303 163.921 146.303 165.117C146.303 165.897 146.485 166.547 146.849 167.067C147.239 167.587 147.902 168.042 148.838 168.432C149.8 168.822 151.165 169.225 152.933 169.641C155.273 170.187 157.132 170.85 158.51 171.63C159.888 172.384 160.876 173.281 161.474 174.321C162.072 175.361 162.371 176.544 162.371 177.87C162.371 179.482 161.955 180.886 161.123 182.082C160.291 183.252 159.134 184.162 157.652 184.812C156.17 185.436 154.454 185.748 152.504 185.748ZM176.667 185.826C174.561 185.826 172.702 185.514 171.09 184.89C169.478 184.266 168.217 183.343 167.307 182.121C166.423 180.899 165.981 179.404 165.981 177.636C165.981 175.608 166.592 173.931 167.814 172.605C169.036 171.279 170.674 170.395 172.728 169.953L172.806 170.733C171.142 170.343 169.803 169.628 168.789 168.588C167.801 167.548 167.307 166.183 167.307 164.493C167.307 163.011 167.684 161.698 168.438 160.554C169.192 159.41 170.258 158.513 171.636 157.863C173.04 157.213 174.717 156.888 176.667 156.888C178.591 156.888 180.255 157.213 181.659 157.863C183.063 158.513 184.129 159.41 184.857 160.554C185.611 161.698 185.988 163.011 185.988 164.493C185.988 166.183 185.494 167.548 184.506 168.588C183.518 169.602 182.179 170.317 180.489 170.733L180.567 169.953C182.647 170.395 184.298 171.279 185.52 172.605C186.742 173.931 187.353 175.608 187.353 177.636C187.353 179.404 186.898 180.899 185.988 182.121C185.104 183.343 183.856 184.266 182.244 184.89C180.632 185.514 178.773 185.826 176.667 185.826ZM176.667 181.965C178.591 181.965 180.112 181.575 181.23 180.795C182.374 179.989 182.946 178.793 182.946 177.207C182.946 175.699 182.426 174.49 181.386 173.58C180.372 172.67 178.799 172.215 176.667 172.215C174.535 172.215 172.949 172.67 171.909 173.58C170.869 174.49 170.349 175.699 170.349 177.207C170.349 178.793 170.921 179.989 172.065 180.795C173.209 181.575 174.743 181.965 176.667 181.965ZM176.667 168.744C178.253 168.744 179.475 168.419 180.333 167.769C181.217 167.093 181.659 166.066 181.659 164.688C181.659 163.492 181.23 162.53 180.372 161.802C179.54 161.074 178.305 160.71 176.667 160.71C175.029 160.71 173.781 161.074 172.923 161.802C172.065 162.53 171.636 163.492 171.636 164.688C171.636 166.066 172.078 167.093 172.962 167.769C173.846 168.419 175.081 168.744 176.667 168.744ZM200.886 185.826C197.688 185.826 195.218 185.085 193.476 183.603C191.76 182.121 190.837 180.171 190.707 177.753L195.036 177.519C195.192 179.105 195.79 180.249 196.83 180.951C197.896 181.627 199.248 181.965 200.886 181.965C201.978 181.965 202.979 181.822 203.889 181.536C204.825 181.224 205.566 180.73 206.112 180.054C206.684 179.352 206.97 178.442 206.97 177.324C206.97 175.66 206.411 174.438 205.293 173.658C204.175 172.852 202.693 172.449 200.847 172.449H198.546V168.783H200.847C202.329 168.783 203.564 168.484 204.552 167.886C205.54 167.288 206.034 166.248 206.034 164.766C206.034 163.466 205.618 162.478 204.786 161.802C203.954 161.1 202.68 160.749 200.964 160.749C199.3 160.749 198.039 161.074 197.181 161.724C196.323 162.374 195.816 163.258 195.66 164.376L191.331 164.142C191.591 161.958 192.54 160.203 194.178 158.877C195.842 157.551 198.104 156.888 200.964 156.888C202.94 156.888 204.63 157.2 206.034 157.824C207.438 158.422 208.517 159.293 209.271 160.437C210.025 161.581 210.402 162.92 210.402 164.454C210.402 166.144 209.856 167.522 208.764 168.588C207.698 169.654 206.125 170.382 204.045 170.772V170.07C206.307 170.356 208.088 171.162 209.388 172.488C210.688 173.788 211.338 175.452 211.338 177.48C211.338 179.222 210.896 180.73 210.012 182.004C209.128 183.252 207.906 184.201 206.346 184.851C204.786 185.501 202.966 185.826 200.886 185.826ZM225.651 185.826C223.597 185.826 221.842 185.501 220.386 184.851C218.93 184.175 217.786 183.239 216.954 182.043C216.122 180.847 215.641 179.469 215.511 177.909L219.84 177.636C220.048 179.092 220.659 180.184 221.673 180.912C222.713 181.614 224.039 181.965 225.651 181.965C227.471 181.965 228.901 181.458 229.941 180.444C231.007 179.43 231.54 178.013 231.54 176.193C231.54 174.997 231.293 173.97 230.799 173.112C230.331 172.228 229.655 171.552 228.771 171.084C227.887 170.59 226.834 170.343 225.612 170.343C224.39 170.343 223.298 170.603 222.336 171.123C221.374 171.643 220.685 172.358 220.269 173.268H215.901L217.773 157.512H233.997V161.373H221.517L220.347 170.85L219.684 170.265C220.126 169.485 220.685 168.848 221.361 168.354C222.037 167.834 222.817 167.444 223.701 167.184C224.611 166.898 225.573 166.755 226.587 166.755C228.459 166.755 230.084 167.158 231.462 167.964C232.866 168.77 233.958 169.888 234.738 171.318C235.518 172.748 235.908 174.373 235.908 176.193C235.908 178.091 235.479 179.768 234.621 181.224C233.763 182.68 232.567 183.811 231.033 184.617C229.499 185.423 227.705 185.826 225.651 185.826ZM239.833 185.202V180.288H244.864V185.202H239.833ZM258.879 185.826C256.591 185.826 254.602 185.241 252.912 184.071C251.222 182.901 249.922 181.237 249.012 179.079C248.102 176.921 247.647 174.36 247.647 171.396C247.647 168.432 248.102 165.871 249.012 163.713C249.948 161.529 251.248 159.852 252.912 158.682C254.602 157.486 256.591 156.888 258.879 156.888C261.193 156.888 263.182 157.486 264.846 158.682C266.536 159.852 267.836 161.516 268.746 163.674C269.682 165.832 270.15 168.406 270.15 171.396C270.15 174.36 269.695 176.921 268.785 179.079C267.875 181.237 266.575 182.901 264.885 184.071C263.195 185.241 261.193 185.826 258.879 185.826ZM258.879 181.965C261.089 181.965 262.792 181.055 263.988 179.235C265.184 177.415 265.782 174.802 265.782 171.396C265.782 169.108 265.509 167.171 264.963 165.585C264.443 163.999 263.663 162.803 262.623 161.997C261.609 161.165 260.361 160.749 258.879 160.749C257.423 160.749 256.175 161.165 255.135 161.997C254.121 162.803 253.341 163.999 252.795 165.585C252.275 167.171 252.015 169.108 252.015 171.396C252.015 174.802 252.613 177.415 253.809 179.235C255.005 181.055 256.695 181.965 258.879 181.965ZM279.424 185.202V165.468H273.574V162.075H275.953C276.993 162.075 277.838 161.945 278.488 161.685C279.138 161.399 279.606 160.931 279.892 160.281C280.178 159.605 280.321 158.682 280.321 157.512H283.636V185.202H279.424Z" fill="#141414"/>
<rect x="147.748" y="211.802" width="131.8" height="41.6" rx="13" fill="#F5F5F5"/>
<path d="M163.832 238.82C162.91 238.82 162.103 238.614 161.411 238.201C160.72 237.789 160.186 237.2 159.81 236.436C159.433 235.671 159.245 234.78 159.245 233.76C159.245 232.729 159.433 231.837 159.81 231.085C160.186 230.333 160.72 229.75 161.411 229.338C162.103 228.913 162.91 228.701 163.832 228.701C164.754 228.701 165.561 228.913 166.252 229.338C166.944 229.75 167.478 230.333 167.854 231.085C168.23 231.837 168.418 232.729 168.418 233.76C168.418 234.78 168.23 235.671 167.854 236.436C167.478 237.2 166.944 237.789 166.252 238.201C165.561 238.614 164.754 238.82 163.832 238.82ZM163.832 237.146C164.657 237.146 165.294 236.848 165.743 236.254C166.192 235.647 166.416 234.816 166.416 233.76C166.416 232.705 166.192 231.88 165.743 231.285C165.294 230.678 164.657 230.375 163.832 230.375C163.019 230.375 162.382 230.678 161.921 231.285C161.472 231.88 161.247 232.705 161.247 233.76C161.247 234.816 161.472 235.647 161.921 236.254C162.382 236.848 163.019 237.146 163.832 237.146ZM170.977 238.602V228.3C170.977 227.5 171.202 226.863 171.651 226.389C172.1 225.916 172.803 225.68 173.762 225.68H175.473V227.263H174.017C173.641 227.263 173.362 227.366 173.18 227.572C172.998 227.766 172.907 228.046 172.907 228.41V238.602H170.977ZM169.631 230.612V229.047H175.327V230.612H169.631ZM185.834 240.24V224.042H187.217V240.24H185.834ZM186.671 238.856C185.664 238.856 184.79 238.674 184.05 238.31C183.31 237.934 182.721 237.419 182.285 236.763C181.86 236.108 181.611 235.35 181.538 234.488L183.522 234.379C183.595 234.962 183.765 235.459 184.032 235.872C184.299 236.272 184.651 236.581 185.087 236.8C185.536 237.006 186.076 237.109 186.707 237.109C187.253 237.109 187.72 237.042 188.109 236.909C188.497 236.763 188.788 236.557 188.982 236.29C189.188 236.023 189.292 235.69 189.292 235.289C189.292 234.925 189.207 234.61 189.037 234.343C188.867 234.064 188.539 233.809 188.054 233.578C187.569 233.336 186.859 233.105 185.925 232.887C184.918 232.644 184.111 232.371 183.504 232.068C182.897 231.764 182.461 231.394 182.194 230.958C181.939 230.509 181.811 229.95 181.811 229.283C181.811 228.567 181.987 227.936 182.339 227.39C182.691 226.832 183.189 226.401 183.832 226.098C184.487 225.783 185.269 225.625 186.179 225.625C187.15 225.625 187.975 225.801 188.655 226.153C189.346 226.505 189.892 226.99 190.293 227.609C190.693 228.228 190.942 228.937 191.039 229.738L189.055 229.847C188.994 229.374 188.843 228.949 188.6 228.573C188.369 228.197 188.048 227.906 187.635 227.7C187.223 227.481 186.725 227.372 186.143 227.372C185.415 227.372 184.839 227.542 184.414 227.882C183.989 228.221 183.777 228.67 183.777 229.229C183.777 229.593 183.862 229.896 184.032 230.139C184.214 230.381 184.523 230.594 184.96 230.776C185.409 230.958 186.046 231.146 186.871 231.34C187.963 231.595 188.831 231.904 189.474 232.268C190.117 232.62 190.578 233.038 190.857 233.524C191.136 234.009 191.275 234.561 191.275 235.18C191.275 235.932 191.081 236.587 190.693 237.146C190.305 237.692 189.765 238.116 189.073 238.42C188.382 238.711 187.581 238.856 186.671 238.856ZM197.874 238.893C196.382 238.893 195.229 238.547 194.416 237.855C193.615 237.164 193.185 236.254 193.124 235.125L195.144 235.016C195.217 235.756 195.496 236.29 195.981 236.618C196.479 236.933 197.11 237.091 197.874 237.091C198.384 237.091 198.851 237.024 199.276 236.891C199.712 236.745 200.058 236.515 200.313 236.199C200.58 235.872 200.713 235.447 200.713 234.925C200.713 234.149 200.453 233.578 199.931 233.214C199.409 232.838 198.718 232.65 197.856 232.65H196.782V230.939H197.856C198.548 230.939 199.124 230.8 199.585 230.521C200.046 230.242 200.277 229.756 200.277 229.065C200.277 228.458 200.083 227.997 199.694 227.682C199.306 227.354 198.711 227.19 197.911 227.19C197.134 227.19 196.546 227.342 196.145 227.645C195.745 227.948 195.508 228.361 195.435 228.883L193.415 228.774C193.537 227.754 193.979 226.935 194.744 226.317C195.52 225.698 196.576 225.388 197.911 225.388C198.833 225.388 199.621 225.534 200.277 225.825C200.932 226.104 201.435 226.511 201.787 227.045C202.139 227.578 202.315 228.203 202.315 228.919C202.315 229.708 202.06 230.351 201.551 230.848C201.053 231.346 200.319 231.686 199.348 231.868V231.54C200.404 231.673 201.235 232.05 201.842 232.668C202.449 233.275 202.752 234.052 202.752 234.998C202.752 235.811 202.546 236.515 202.133 237.109C201.721 237.692 201.15 238.134 200.422 238.438C199.694 238.741 198.845 238.893 197.874 238.893ZM204.481 241.459L205.391 238.602H204.39V236.308H206.738V238.329L205.591 241.459H204.481ZM213.197 238.893C212.214 238.893 211.346 238.747 210.594 238.456C209.842 238.165 209.253 237.734 208.829 237.164C208.416 236.593 208.21 235.896 208.21 235.071C208.21 234.124 208.495 233.342 209.065 232.723C209.636 232.104 210.4 231.692 211.358 231.485L211.395 231.849C210.618 231.667 209.993 231.334 209.52 230.848C209.059 230.363 208.829 229.726 208.829 228.937C208.829 228.246 209.005 227.633 209.356 227.099C209.708 226.565 210.206 226.147 210.849 225.843C211.504 225.54 212.287 225.388 213.197 225.388C214.095 225.388 214.871 225.54 215.526 225.843C216.182 226.147 216.679 226.565 217.019 227.099C217.371 227.633 217.547 228.246 217.547 228.937C217.547 229.726 217.316 230.363 216.855 230.848C216.394 231.322 215.769 231.655 214.98 231.849L215.017 231.485C215.987 231.692 216.758 232.104 217.328 232.723C217.898 233.342 218.183 234.124 218.183 235.071C218.183 235.896 217.971 236.593 217.547 237.164C217.134 237.734 216.552 238.165 215.799 238.456C215.047 238.747 214.179 238.893 213.197 238.893ZM213.197 237.091C214.095 237.091 214.804 236.909 215.326 236.545C215.86 236.169 216.127 235.611 216.127 234.871C216.127 234.167 215.884 233.603 215.399 233.178C214.926 232.753 214.192 232.541 213.197 232.541C212.202 232.541 211.462 232.753 210.976 233.178C210.491 233.603 210.248 234.167 210.248 234.871C210.248 235.611 210.515 236.169 211.049 236.545C211.583 236.909 212.299 237.091 213.197 237.091ZM213.197 230.921C213.937 230.921 214.507 230.769 214.907 230.466C215.32 230.151 215.526 229.671 215.526 229.028C215.526 228.47 215.326 228.021 214.926 227.682C214.537 227.342 213.961 227.172 213.197 227.172C212.432 227.172 211.85 227.342 211.449 227.682C211.049 228.021 210.849 228.47 210.849 229.028C210.849 229.671 211.055 230.151 211.468 230.466C211.88 230.769 212.457 230.921 213.197 230.921ZM224.681 238.893C223.722 238.893 222.903 238.741 222.224 238.438C221.544 238.122 221.011 237.685 220.622 237.127C220.234 236.569 220.01 235.926 219.949 235.198L221.969 235.071C222.066 235.75 222.351 236.26 222.824 236.6C223.31 236.927 223.929 237.091 224.681 237.091C225.53 237.091 226.198 236.854 226.683 236.381C227.18 235.908 227.429 235.247 227.429 234.397C227.429 233.839 227.314 233.36 227.083 232.96C226.865 232.547 226.549 232.232 226.137 232.013C225.724 231.783 225.233 231.667 224.663 231.667C224.092 231.667 223.583 231.789 223.134 232.031C222.685 232.274 222.363 232.608 222.169 233.032H220.131L221.004 225.68H228.576V227.481H222.752L222.206 231.904L221.896 231.631C222.103 231.267 222.363 230.97 222.679 230.739C222.994 230.496 223.358 230.314 223.771 230.193C224.196 230.06 224.644 229.993 225.118 229.993C225.991 229.993 226.75 230.181 227.393 230.557C228.048 230.933 228.558 231.455 228.922 232.122C229.286 232.79 229.467 233.548 229.467 234.397C229.467 235.283 229.267 236.066 228.867 236.745C228.467 237.425 227.908 237.952 227.192 238.329C226.477 238.705 225.639 238.893 224.681 238.893ZM236.668 238.893C235.6 238.893 234.672 238.62 233.883 238.074C233.095 237.528 232.488 236.751 232.063 235.744C231.639 234.737 231.426 233.542 231.426 232.159C231.426 230.776 231.639 229.58 232.063 228.573C232.5 227.554 233.107 226.772 233.883 226.226C234.672 225.667 235.6 225.388 236.668 225.388C237.748 225.388 238.676 225.667 239.452 226.226C240.241 226.772 240.848 227.548 241.272 228.555C241.709 229.562 241.928 230.763 241.928 232.159C241.928 233.542 241.715 234.737 241.291 235.744C240.866 236.751 240.259 237.528 239.471 238.074C238.682 238.62 237.748 238.893 236.668 238.893ZM236.668 237.091C237.699 237.091 238.494 236.666 239.052 235.817C239.61 234.968 239.889 233.748 239.889 232.159C239.889 231.091 239.762 230.187 239.507 229.447C239.264 228.707 238.9 228.149 238.415 227.773C237.942 227.384 237.359 227.19 236.668 227.19C235.988 227.19 235.406 227.384 234.921 227.773C234.447 228.149 234.083 228.707 233.829 229.447C233.586 230.187 233.465 231.091 233.465 232.159C233.465 233.748 233.744 234.968 234.302 235.817C234.86 236.666 235.649 237.091 236.668 237.091Z" fill="#141414"/>
<g clip-path="url(#clip0_468_39217)">
<path d="M261.348 226.535L264.814 230.001M263.081 224.801C263.302 224.54 263.575 224.328 263.883 224.178C264.191 224.028 264.527 223.943 264.87 223.929C265.212 223.914 265.554 223.971 265.874 224.096C266.193 224.22 266.483 224.409 266.725 224.651C266.967 224.893 267.155 225.182 267.278 225.5C267.401 225.818 267.456 226.158 267.439 226.498C267.423 226.838 267.335 227.172 267.181 227.476C267.028 227.781 266.812 228.051 266.548 228.268L254.848 239.968L250.081 241.268L251.381 236.501L263.081 224.801Z" stroke="#737373" stroke-width="1.95" stroke-linecap="round" stroke-linejoin="round"/>
</g>
</g>
<g filter="url(#filter1_dddddd_468_39217)">
<path d="M18 290C18 284.477 22.4772 280 28 280H398C403.523 280 408 284.477 408 290V338C408 343.523 403.523 348 398 348H28C22.4772 348 18 343.523 18 338V290Z" fill="white"/>
<path d="M34.1667 294.5V297.833M45.8333 306.167V309.5M32.5 296.167H35.8333M44.1667 307.833H47.5M40 294.5L38.4067 299.344C38.3251 299.592 38.1865 299.817 38.0019 300.002C37.8174 300.186 37.5921 300.325 37.3442 300.407L32.5 302L37.3442 303.593C37.5921 303.675 37.8174 303.814 38.0019 303.998C38.1865 304.183 38.3251 304.408 38.4067 304.656L40 309.5L41.5933 304.656C41.6749 304.408 41.8135 304.183 41.9981 303.998C42.1826 303.814 42.4079 303.675 42.6558 303.593L47.5 302L42.6558 300.407C42.4079 300.325 42.1826 300.186 41.9981 300.002C41.8135 299.817 41.6749 299.592 41.5933 299.344L40 294.5Z" stroke="#737373" stroke-width="1.5" stroke-linecap="round" stroke-linejoin="round"/>
<path d="M58.28 307L61.864 297.06H63.488L67.072 307H65.756L64.762 304.172H60.59L59.596 307H58.28ZM60.996 302.996H64.356L62.676 298.11L60.996 302.996ZM70.6341 307.168C69.8968 307.168 69.3041 306.921 68.8561 306.426C68.4175 305.922 68.1981 305.231 68.1981 304.354V299.58H69.3741V304.032C69.3741 304.751 69.5001 305.283 69.7521 305.628C70.0135 305.964 70.4101 306.132 70.9421 306.132C71.5301 306.132 71.9921 305.945 72.3281 305.572C72.6641 305.189 72.8321 304.667 72.8321 304.004V299.58H74.0081V307H72.8881V305.166L73.0701 305.264C72.9208 305.871 72.6361 306.342 72.2161 306.678C71.7961 307.005 71.2688 307.168 70.6341 307.168ZM78.5704 307C77.8984 307 77.399 306.846 77.0724 306.538C76.755 306.23 76.5964 305.749 76.5964 305.096V297.844H77.7724V305.068C77.7724 305.404 77.847 305.637 77.9964 305.768C78.1457 305.899 78.3744 305.964 78.6824 305.964H79.7464V307H78.5704ZM75.5044 300.616V299.58H79.7464V300.616H75.5044ZM84.016 307.168C83.3347 307.168 82.7374 307.009 82.224 306.692C81.7107 306.375 81.314 305.927 81.034 305.348C80.754 304.76 80.614 304.074 80.614 303.29C80.614 302.497 80.754 301.811 81.034 301.232C81.314 300.653 81.7107 300.205 82.224 299.888C82.7374 299.571 83.3347 299.412 84.016 299.412C84.6974 299.412 85.29 299.571 85.794 299.888C86.3074 300.205 86.704 300.653 86.984 301.232C87.264 301.811 87.404 302.497 87.404 303.29C87.404 304.074 87.264 304.76 86.984 305.348C86.704 305.927 86.3074 306.375 85.794 306.692C85.29 307.009 84.6974 307.168 84.016 307.168ZM84.016 306.048C84.6974 306.048 85.2247 305.805 85.598 305.32C85.9807 304.825 86.172 304.149 86.172 303.29C86.172 302.431 85.9807 301.759 85.598 301.274C85.2247 300.779 84.6974 300.532 84.016 300.532C83.3347 300.532 82.8027 300.779 82.42 301.274C82.0374 301.759 81.846 302.431 81.846 303.29C81.846 304.149 82.0374 304.825 82.42 305.32C82.8027 305.805 83.3347 306.048 84.016 306.048ZM91.7087 307.168C91.0461 307.168 90.4814 307.061 90.0147 306.846C89.5574 306.631 89.1981 306.337 88.9367 305.964C88.6847 305.581 88.5401 305.147 88.5027 304.662L89.7347 304.578C89.8094 305.026 90.0007 305.385 90.3087 305.656C90.6167 305.917 91.0834 306.048 91.7087 306.048C92.2127 306.048 92.6141 305.969 92.9127 305.81C93.2207 305.642 93.3747 305.376 93.3747 305.012C93.3747 304.816 93.3281 304.653 93.2347 304.522C93.1414 304.391 92.9594 304.279 92.6887 304.186C92.4181 304.083 92.0167 303.985 91.4847 303.892C90.7754 303.761 90.2154 303.603 89.8047 303.416C89.4034 303.22 89.1141 302.982 88.9367 302.702C88.7687 302.413 88.6847 302.072 88.6847 301.68C88.6847 301.017 88.9274 300.476 89.4127 300.056C89.8981 299.627 90.5887 299.412 91.4847 299.412C92.0914 299.412 92.6001 299.524 93.0107 299.748C93.4307 299.963 93.7574 300.252 93.9907 300.616C94.2334 300.971 94.3921 301.363 94.4667 301.792L93.2347 301.876C93.1787 301.615 93.0761 301.386 92.9267 301.19C92.7774 300.985 92.5814 300.826 92.3387 300.714C92.0961 300.593 91.8067 300.532 91.4707 300.532C90.9387 300.532 90.5467 300.635 90.2947 300.84C90.0427 301.045 89.9167 301.307 89.9167 301.624C89.9167 301.867 89.9727 302.067 90.0847 302.226C90.2061 302.375 90.3974 302.501 90.6587 302.604C90.9201 302.697 91.2701 302.781 91.7087 302.856C92.4647 302.987 93.0527 303.145 93.4727 303.332C93.8927 303.519 94.1867 303.747 94.3547 304.018C94.5227 304.289 94.6067 304.62 94.6067 305.012C94.6067 305.469 94.4761 305.861 94.2147 306.188C93.9627 306.505 93.6174 306.748 93.1787 306.916C92.7494 307.084 92.2594 307.168 91.7087 307.168ZM98.6478 307.168C97.9105 307.168 97.3178 306.921 96.8698 306.426C96.4311 305.922 96.2118 305.231 96.2118 304.354V299.58H97.3878V304.032C97.3878 304.751 97.5138 305.283 97.7658 305.628C98.0271 305.964 98.4238 306.132 98.9558 306.132C99.5438 306.132 100.006 305.945 100.342 305.572C100.678 305.189 100.846 304.667 100.846 304.004V299.58H102.022V307H100.902V305.166L101.084 305.264C100.934 305.871 100.65 306.342 100.23 306.678C99.8098 307.005 99.2825 307.168 98.6478 307.168ZM106.942 309.268C106.41 309.268 105.929 309.179 105.5 309.002C105.07 308.825 104.711 308.573 104.422 308.246C104.132 307.919 103.936 307.541 103.834 307.112L105.066 307.028C105.178 307.373 105.374 307.644 105.654 307.84C105.943 308.045 106.372 308.148 106.942 308.148C107.614 308.148 108.127 308.013 108.482 307.742C108.846 307.471 109.028 307.065 109.028 306.524V305.32C108.85 305.712 108.566 306.025 108.174 306.258C107.782 306.491 107.343 306.608 106.858 306.608C106.232 306.608 105.672 306.454 105.178 306.146C104.692 305.838 104.31 305.413 104.03 304.872C103.759 304.331 103.624 303.71 103.624 303.01C103.624 302.301 103.759 301.68 104.03 301.148C104.3 300.607 104.674 300.182 105.15 299.874C105.635 299.566 106.186 299.412 106.802 299.412C107.324 299.412 107.791 299.533 108.202 299.776C108.622 300.019 108.916 300.345 109.084 300.756V299.58H110.204V306.496C110.204 307.075 110.073 307.569 109.812 307.98C109.55 308.4 109.177 308.717 108.692 308.932C108.206 309.156 107.623 309.268 106.942 309.268ZM106.914 305.488C107.548 305.488 108.057 305.269 108.44 304.83C108.822 304.382 109.018 303.775 109.028 303.01C109.037 302.497 108.953 302.058 108.776 301.694C108.608 301.321 108.36 301.036 108.034 300.84C107.716 300.635 107.343 300.532 106.914 300.532C106.26 300.532 105.752 300.756 105.388 301.204C105.033 301.643 104.856 302.245 104.856 303.01C104.856 303.775 105.038 304.382 105.402 304.83C105.775 305.269 106.279 305.488 106.914 305.488ZM115.118 309.268C114.586 309.268 114.105 309.179 113.676 309.002C113.246 308.825 112.887 308.573 112.598 308.246C112.308 307.919 112.112 307.541 112.01 307.112L113.242 307.028C113.354 307.373 113.55 307.644 113.83 307.84C114.119 308.045 114.548 308.148 115.118 308.148C115.79 308.148 116.303 308.013 116.658 307.742C117.022 307.471 117.204 307.065 117.204 306.524V305.32C117.026 305.712 116.742 306.025 116.35 306.258C115.958 306.491 115.519 306.608 115.034 306.608C114.408 306.608 113.848 306.454 113.354 306.146C112.868 305.838 112.486 305.413 112.206 304.872C111.935 304.331 111.8 303.71 111.8 303.01C111.8 302.301 111.935 301.68 112.206 301.148C112.476 300.607 112.85 300.182 113.326 299.874C113.811 299.566 114.362 299.412 114.978 299.412C115.5 299.412 115.967 299.533 116.378 299.776C116.798 300.019 117.092 300.345 117.26 300.756V299.58H118.38V306.496C118.38 307.075 118.249 307.569 117.988 307.98C117.726 308.4 117.353 308.717 116.868 308.932C116.382 309.156 115.799 309.268 115.118 309.268ZM115.09 305.488C115.724 305.488 116.233 305.269 116.616 304.83C116.998 304.382 117.194 303.775 117.204 303.01C117.213 302.497 117.129 302.058 116.952 301.694C116.784 301.321 116.536 301.036 116.21 300.84C115.892 300.635 115.519 300.532 115.09 300.532C114.436 300.532 113.928 300.756 113.564 301.204C113.209 301.643 113.032 302.245 113.032 303.01C113.032 303.775 113.214 304.382 113.578 304.83C113.951 305.269 114.455 305.488 115.09 305.488ZM123.377 307.168C122.677 307.168 122.071 307.009 121.557 306.692C121.053 306.375 120.661 305.927 120.381 305.348C120.111 304.76 119.975 304.074 119.975 303.29C119.975 302.506 120.111 301.825 120.381 301.246C120.661 300.667 121.049 300.219 121.543 299.902C122.047 299.575 122.64 299.412 123.321 299.412C123.965 299.412 124.535 299.566 125.029 299.874C125.524 300.173 125.907 300.611 126.177 301.19C126.457 301.769 126.597 302.473 126.597 303.304V303.654H121.207C121.254 304.447 121.464 305.045 121.837 305.446C122.22 305.847 122.733 306.048 123.377 306.048C123.863 306.048 124.259 305.936 124.567 305.712C124.885 305.479 125.104 305.175 125.225 304.802L126.485 304.9C126.289 305.563 125.916 306.109 125.365 306.538C124.824 306.958 124.161 307.168 123.377 307.168ZM121.207 302.618H125.309C125.253 301.899 125.043 301.372 124.679 301.036C124.325 300.7 123.872 300.532 123.321 300.532C122.752 300.532 122.281 300.709 121.907 301.064C121.543 301.409 121.31 301.927 121.207 302.618ZM130.892 307.168C130.23 307.168 129.665 307.061 129.198 306.846C128.741 306.631 128.382 306.337 128.12 305.964C127.868 305.581 127.724 305.147 127.686 304.662L128.918 304.578C128.993 305.026 129.184 305.385 129.492 305.656C129.8 305.917 130.267 306.048 130.892 306.048C131.396 306.048 131.798 305.969 132.096 305.81C132.404 305.642 132.558 305.376 132.558 305.012C132.558 304.816 132.512 304.653 132.418 304.522C132.325 304.391 132.143 304.279 131.872 304.186C131.602 304.083 131.2 303.985 130.668 303.892C129.959 303.761 129.399 303.603 128.988 303.416C128.587 303.22 128.298 302.982 128.12 302.702C127.952 302.413 127.868 302.072 127.868 301.68C127.868 301.017 128.111 300.476 128.596 300.056C129.082 299.627 129.772 299.412 130.668 299.412C131.275 299.412 131.784 299.524 132.194 299.748C132.614 299.963 132.941 300.252 133.174 300.616C133.417 300.971 133.576 301.363 133.65 301.792L132.418 301.876C132.362 301.615 132.26 301.386 132.11 301.19C131.961 300.985 131.765 300.826 131.522 300.714C131.28 300.593 130.99 300.532 130.654 300.532C130.122 300.532 129.73 300.635 129.478 300.84C129.226 301.045 129.1 301.307 129.1 301.624C129.1 301.867 129.156 302.067 129.268 302.226C129.39 302.375 129.581 302.501 129.842 302.604C130.104 302.697 130.454 302.781 130.892 302.856C131.648 302.987 132.236 303.145 132.656 303.332C133.076 303.519 133.37 303.747 133.538 304.018C133.706 304.289 133.79 304.62 133.79 305.012C133.79 305.469 133.66 305.861 133.398 306.188C133.146 306.505 132.801 306.748 132.362 306.916C131.933 307.084 131.443 307.168 130.892 307.168ZM137.824 307C137.152 307 136.653 306.846 136.326 306.538C136.009 306.23 135.85 305.749 135.85 305.096V297.844H137.026V305.068C137.026 305.404 137.101 305.637 137.25 305.768C137.4 305.899 137.628 305.964 137.936 305.964H139V307H137.824ZM134.758 300.616V299.58H139V300.616H134.758ZM144.091 307V299.58H145.267V307H144.091ZM144.063 298.418V297.046H145.295V298.418H144.063ZM147.645 307V299.58H148.723L148.765 301.47L148.625 301.344C148.719 300.905 148.882 300.546 149.115 300.266C149.349 299.977 149.629 299.762 149.955 299.622C150.291 299.482 150.651 299.412 151.033 299.412C151.603 299.412 152.069 299.538 152.433 299.79C152.807 300.042 153.082 300.383 153.259 300.812C153.446 301.232 153.539 301.703 153.539 302.226V307H152.363V302.562C152.363 302.105 152.307 301.722 152.195 301.414C152.093 301.097 151.925 300.859 151.691 300.7C151.458 300.532 151.155 300.448 150.781 300.448C150.212 300.448 149.741 300.63 149.367 300.994C149.003 301.349 148.821 301.871 148.821 302.562V307H147.645ZM158.514 307.168C157.823 307.168 157.221 307.009 156.708 306.692C156.204 306.375 155.812 305.927 155.532 305.348C155.252 304.76 155.112 304.074 155.112 303.29C155.112 302.506 155.252 301.825 155.532 301.246C155.812 300.667 156.204 300.219 156.708 299.902C157.221 299.575 157.823 299.412 158.514 299.412C159.083 299.412 159.587 299.515 160.026 299.72C160.474 299.916 160.838 300.205 161.118 300.588C161.398 300.971 161.58 301.437 161.664 301.988L160.432 302.072C160.348 301.577 160.133 301.199 159.788 300.938C159.443 300.667 159.018 300.532 158.514 300.532C157.833 300.532 157.301 300.779 156.918 301.274C156.535 301.759 156.344 302.431 156.344 303.29C156.344 304.149 156.535 304.825 156.918 305.32C157.301 305.805 157.833 306.048 158.514 306.048C159.018 306.048 159.443 305.908 159.788 305.628C160.133 305.348 160.348 304.928 160.432 304.368L161.664 304.452C161.58 305.003 161.398 305.483 161.118 305.894C160.838 306.295 160.474 306.608 160.026 306.832C159.587 307.056 159.083 307.168 158.514 307.168ZM166.02 307.168C165.339 307.168 164.741 307.009 164.228 306.692C163.715 306.375 163.318 305.927 163.038 305.348C162.758 304.76 162.618 304.074 162.618 303.29C162.618 302.497 162.758 301.811 163.038 301.232C163.318 300.653 163.715 300.205 164.228 299.888C164.741 299.571 165.339 299.412 166.02 299.412C166.701 299.412 167.294 299.571 167.798 299.888C168.311 300.205 168.708 300.653 168.988 301.232C169.268 301.811 169.408 302.497 169.408 303.29C169.408 304.074 169.268 304.76 168.988 305.348C168.708 305.927 168.311 306.375 167.798 306.692C167.294 307.009 166.701 307.168 166.02 307.168ZM166.02 306.048C166.701 306.048 167.229 305.805 167.602 305.32C167.985 304.825 168.176 304.149 168.176 303.29C168.176 302.431 167.985 301.759 167.602 301.274C167.229 300.779 166.701 300.532 166.02 300.532C165.339 300.532 164.807 300.779 164.424 301.274C164.041 301.759 163.85 302.431 163.85 303.29C163.85 304.149 164.041 304.825 164.424 305.32C164.807 305.805 165.339 306.048 166.02 306.048ZM171.011 307V299.58H172.089L172.131 301.456L171.963 301.4C172.047 300.989 172.191 300.639 172.397 300.35C172.611 300.051 172.873 299.823 173.181 299.664C173.489 299.496 173.829 299.412 174.203 299.412C174.847 299.412 175.369 299.589 175.771 299.944C176.181 300.299 176.438 300.793 176.541 301.428L176.317 301.414C176.391 300.985 176.527 300.625 176.723 300.336C176.928 300.037 177.189 299.809 177.507 299.65C177.824 299.491 178.188 299.412 178.599 299.412C179.131 299.412 179.579 299.524 179.943 299.748C180.307 299.963 180.582 300.28 180.769 300.7C180.955 301.12 181.049 301.629 181.049 302.226V307H179.873V302.478C179.873 301.806 179.742 301.302 179.481 300.966C179.219 300.621 178.832 300.448 178.319 300.448C177.973 300.448 177.67 300.532 177.409 300.7C177.157 300.868 176.961 301.111 176.821 301.428C176.681 301.736 176.611 302.114 176.611 302.562V307H175.435V302.562C175.435 301.899 175.318 301.381 175.085 301.008C174.851 300.635 174.459 300.448 173.909 300.448C173.563 300.448 173.26 300.532 172.999 300.7C172.747 300.868 172.546 301.111 172.397 301.428C172.257 301.745 172.187 302.123 172.187 302.562V307H171.011ZM186.022 307.168C185.322 307.168 184.715 307.009 184.202 306.692C183.698 306.375 183.306 305.927 183.026 305.348C182.755 304.76 182.62 304.074 182.62 303.29C182.62 302.506 182.755 301.825 183.026 301.246C183.306 300.667 183.693 300.219 184.188 299.902C184.692 299.575 185.285 299.412 185.966 299.412C186.61 299.412 187.179 299.566 187.674 299.874C188.169 300.173 188.551 300.611 188.822 301.19C189.102 301.769 189.242 302.473 189.242 303.304V303.654H183.852C183.899 304.447 184.109 305.045 184.482 305.446C184.865 305.847 185.378 306.048 186.022 306.048C186.507 306.048 186.904 305.936 187.212 305.712C187.529 305.479 187.749 305.175 187.87 304.802L189.13 304.9C188.934 305.563 188.561 306.109 188.01 306.538C187.469 306.958 186.806 307.168 186.022 307.168ZM183.852 302.618H187.954C187.898 301.899 187.688 301.372 187.324 301.036C186.969 300.7 186.517 300.532 185.966 300.532C185.397 300.532 184.925 300.709 184.552 301.064C184.188 301.409 183.955 301.927 183.852 302.618ZM196.992 307.224C196.04 307.224 195.288 306.995 194.738 306.538C194.187 306.071 193.912 305.413 193.912 304.564C193.912 304.135 193.972 303.757 194.094 303.43C194.215 303.094 194.416 302.772 194.696 302.464C194.985 302.156 195.377 301.829 195.872 301.484C195.657 301.204 195.475 300.943 195.326 300.7C195.176 300.448 195.06 300.196 194.976 299.944C194.901 299.692 194.864 299.421 194.864 299.132C194.864 298.413 195.078 297.853 195.508 297.452C195.946 297.041 196.544 296.836 197.3 296.836C197.794 296.836 198.214 296.925 198.56 297.102C198.905 297.27 199.166 297.513 199.344 297.83C199.53 298.147 199.624 298.525 199.624 298.964C199.624 299.496 199.465 299.977 199.148 300.406C198.83 300.826 198.298 301.283 197.552 301.778L199.82 304.676C200.156 304.209 200.324 303.5 200.324 302.548L201.5 302.66C201.49 303.22 201.397 303.761 201.22 304.284C201.052 304.807 200.832 305.231 200.562 305.558L201.752 307H200.338L199.82 306.37C199.549 306.631 199.176 306.841 198.7 307C198.233 307.149 197.664 307.224 196.992 307.224ZM197.132 306.104C197.608 306.104 198.004 306.048 198.322 305.936C198.639 305.824 198.877 305.684 199.036 305.516L196.572 302.408C196.068 302.753 195.708 303.089 195.494 303.416C195.279 303.743 195.172 304.125 195.172 304.564C195.172 305.031 195.326 305.404 195.634 305.684C195.951 305.964 196.45 306.104 197.132 306.104ZM196.908 300.924C197.262 300.7 197.547 300.495 197.762 300.308C197.976 300.112 198.13 299.911 198.224 299.706C198.317 299.501 198.364 299.281 198.364 299.048C198.364 298.712 198.27 298.455 198.084 298.278C197.897 298.101 197.636 298.012 197.3 298.012C196.926 298.012 196.637 298.11 196.432 298.306C196.226 298.502 196.124 298.777 196.124 299.132C196.124 299.319 196.147 299.505 196.194 299.692C196.24 299.869 196.32 300.056 196.432 300.252C196.553 300.448 196.712 300.672 196.908 300.924ZM209.355 307.168C208.693 307.168 208.128 307.061 207.661 306.846C207.204 306.631 206.845 306.337 206.583 305.964C206.331 305.581 206.187 305.147 206.149 304.662L207.381 304.578C207.456 305.026 207.647 305.385 207.955 305.656C208.263 305.917 208.73 306.048 209.355 306.048C209.859 306.048 210.261 305.969 210.559 305.81C210.867 305.642 211.021 305.376 211.021 305.012C211.021 304.816 210.975 304.653 210.881 304.522C210.788 304.391 210.606 304.279 210.335 304.186C210.065 304.083 209.663 303.985 209.131 303.892C208.422 303.761 207.862 303.603 207.451 303.416C207.05 303.22 206.761 302.982 206.583 302.702C206.415 302.413 206.331 302.072 206.331 301.68C206.331 301.017 206.574 300.476 207.059 300.056C207.545 299.627 208.235 299.412 209.131 299.412C209.738 299.412 210.247 299.524 210.657 299.748C211.077 299.963 211.404 300.252 211.637 300.616C211.88 300.971 212.039 301.363 212.113 301.792L210.881 301.876C210.825 301.615 210.723 301.386 210.573 301.19C210.424 300.985 210.228 300.826 209.985 300.714C209.743 300.593 209.453 300.532 209.117 300.532C208.585 300.532 208.193 300.635 207.941 300.84C207.689 301.045 207.563 301.307 207.563 301.624C207.563 301.867 207.619 302.067 207.731 302.226C207.853 302.375 208.044 302.501 208.305 302.604C208.567 302.697 208.917 302.781 209.355 302.856C210.111 302.987 210.699 303.145 211.119 303.332C211.539 303.519 211.833 303.747 212.001 304.018C212.169 304.289 212.253 304.62 212.253 305.012C212.253 305.469 212.123 305.861 211.861 306.188C211.609 306.505 211.264 306.748 210.825 306.916C210.396 307.084 209.906 307.168 209.355 307.168ZM213.858 309.1V299.58H214.95L214.978 301.176L214.81 301.092C214.997 300.541 215.305 300.126 215.734 299.846C216.173 299.557 216.677 299.412 217.246 299.412C217.984 299.412 218.586 299.594 219.052 299.958C219.528 300.322 219.878 300.798 220.102 301.386C220.336 301.974 220.452 302.609 220.452 303.29C220.452 303.971 220.336 304.606 220.102 305.194C219.878 305.782 219.528 306.258 219.052 306.622C218.586 306.986 217.984 307.168 217.246 307.168C216.864 307.168 216.504 307.103 216.168 306.972C215.842 306.841 215.562 306.659 215.328 306.426C215.104 306.193 214.95 305.917 214.866 305.6L215.034 305.404V309.1H213.858ZM217.134 306.048C217.778 306.048 218.287 305.805 218.66 305.32C219.034 304.835 219.22 304.158 219.22 303.29C219.22 302.422 219.034 301.745 218.66 301.26C218.287 300.775 217.778 300.532 217.134 300.532C216.705 300.532 216.332 300.635 216.014 300.84C215.706 301.045 215.464 301.353 215.286 301.764C215.118 302.175 215.034 302.683 215.034 303.29C215.034 303.897 215.118 304.405 215.286 304.816C215.454 305.227 215.697 305.535 216.014 305.74C216.332 305.945 216.705 306.048 217.134 306.048ZM224.946 307.168C224.246 307.168 223.639 307.009 223.126 306.692C222.622 306.375 222.23 305.927 221.95 305.348C221.679 304.76 221.544 304.074 221.544 303.29C221.544 302.506 221.679 301.825 221.95 301.246C222.23 300.667 222.617 300.219 223.112 299.902C223.616 299.575 224.208 299.412 224.89 299.412C225.534 299.412 226.103 299.566 226.598 299.874C227.092 300.173 227.475 300.611 227.746 301.19C228.026 301.769 228.166 302.473 228.166 303.304V303.654H222.776C222.822 304.447 223.032 305.045 223.406 305.446C223.788 305.847 224.302 306.048 224.946 306.048C225.431 306.048 225.828 305.936 226.136 305.712C226.453 305.479 226.672 305.175 226.794 304.802L228.054 304.9C227.858 305.563 227.484 306.109 226.934 306.538C226.392 306.958 225.73 307.168 224.946 307.168ZM222.776 302.618H226.878C226.822 301.899 226.612 301.372 226.248 301.036C225.893 300.7 225.44 300.532 224.89 300.532C224.32 300.532 223.849 300.709 223.476 301.064C223.112 301.409 222.878 301.927 222.776 302.618ZM229.759 307V299.58H230.837L230.879 301.47L230.739 301.344C230.832 300.905 230.995 300.546 231.229 300.266C231.462 299.977 231.742 299.762 232.069 299.622C232.405 299.482 232.764 299.412 233.147 299.412C233.716 299.412 234.183 299.538 234.547 299.79C234.92 300.042 235.195 300.383 235.373 300.812C235.559 301.232 235.653 301.703 235.653 302.226V307H234.477V302.562C234.477 302.105 234.421 301.722 234.309 301.414C234.206 301.097 234.038 300.859 233.805 300.7C233.571 300.532 233.268 300.448 232.895 300.448C232.325 300.448 231.854 300.63 231.481 300.994C231.117 301.349 230.935 301.871 230.935 302.562V307H229.759ZM240.361 307.168C239.717 307.168 239.157 307.009 238.681 306.692C238.215 306.375 237.855 305.927 237.603 305.348C237.351 304.769 237.225 304.083 237.225 303.29C237.225 302.497 237.351 301.811 237.603 301.232C237.855 300.653 238.215 300.205 238.681 299.888C239.157 299.571 239.717 299.412 240.361 299.412C240.856 299.412 241.309 299.519 241.719 299.734C242.13 299.939 242.438 300.233 242.643 300.616V297.06H243.819V307H242.755L242.713 305.88C242.508 306.281 242.195 306.599 241.775 306.832C241.355 307.056 240.884 307.168 240.361 307.168ZM240.599 306.048C241.038 306.048 241.407 305.936 241.705 305.712C242.013 305.488 242.247 305.171 242.405 304.76C242.564 304.34 242.643 303.85 242.643 303.29C242.643 302.711 242.564 302.217 242.405 301.806C242.247 301.395 242.013 301.083 241.705 300.868C241.407 300.644 241.038 300.532 240.599 300.532C239.946 300.532 239.423 300.779 239.031 301.274C238.649 301.759 238.457 302.431 238.457 303.29C238.457 304.139 238.649 304.811 239.031 305.306C239.423 305.801 239.946 306.048 240.599 306.048ZM245.782 307V299.58H246.958V307H245.782ZM245.754 298.418V297.046H246.986V298.418H245.754ZM249.337 307V299.58H250.415L250.457 301.47L250.317 301.344C250.41 300.905 250.573 300.546 250.807 300.266C251.04 299.977 251.32 299.762 251.647 299.622C251.983 299.482 252.342 299.412 252.725 299.412C253.294 299.412 253.761 299.538 254.125 299.79C254.498 300.042 254.773 300.383 254.951 300.812C255.137 301.232 255.231 301.703 255.231 302.226V307H254.055V302.562C254.055 302.105 253.999 301.722 253.887 301.414C253.784 301.097 253.616 300.859 253.383 300.7C253.149 300.532 252.846 300.448 252.473 300.448C251.903 300.448 251.432 300.63 251.059 300.994C250.695 301.349 250.513 301.871 250.513 302.562V307H249.337ZM260.122 309.268C259.59 309.268 259.109 309.179 258.68 309.002C258.25 308.825 257.891 308.573 257.602 308.246C257.312 307.919 257.116 307.541 257.014 307.112L258.245 307.028C258.358 307.373 258.554 307.644 258.834 307.84C259.123 308.045 259.552 308.148 260.122 308.148C260.794 308.148 261.307 308.013 261.662 307.742C262.026 307.471 262.208 307.065 262.208 306.524V305.32C262.03 305.712 261.746 306.025 261.354 306.258C260.962 306.491 260.523 306.608 260.038 306.608C259.412 306.608 258.852 306.454 258.358 306.146C257.872 305.838 257.49 305.413 257.21 304.872C256.939 304.331 256.804 303.71 256.804 303.01C256.804 302.301 256.939 301.68 257.21 301.148C257.48 300.607 257.854 300.182 258.33 299.874C258.815 299.566 259.366 299.412 259.982 299.412C260.504 299.412 260.971 299.533 261.382 299.776C261.802 300.019 262.096 300.345 262.264 300.756V299.58H263.383V306.496C263.383 307.075 263.253 307.569 262.992 307.98C262.73 308.4 262.357 308.717 261.872 308.932C261.386 309.156 260.803 309.268 260.122 309.268ZM260.094 305.488C260.728 305.488 261.237 305.269 261.62 304.83C262.002 304.382 262.198 303.775 262.208 303.01C262.217 302.497 262.133 302.058 261.956 301.694C261.788 301.321 261.54 301.036 261.214 300.84C260.896 300.635 260.523 300.532 260.094 300.532C259.44 300.532 258.932 300.756 258.568 301.204C258.213 301.643 258.035 302.245 258.035 303.01C258.035 303.775 258.218 304.382 258.582 304.83C258.955 305.269 259.459 305.488 260.094 305.488ZM272.522 307.168C272.009 307.168 271.551 307.056 271.15 306.832C270.749 306.599 270.441 306.281 270.226 305.88L270.184 307H269.12V297.06H270.296V300.616C270.483 300.308 270.772 300.033 271.164 299.79C271.556 299.538 272.009 299.412 272.522 299.412C273.175 299.412 273.74 299.571 274.216 299.888C274.692 300.205 275.061 300.653 275.322 301.232C275.583 301.811 275.714 302.497 275.714 303.29C275.714 304.083 275.583 304.769 275.322 305.348C275.061 305.927 274.692 306.375 274.216 306.692C273.74 307.009 273.175 307.168 272.522 307.168ZM272.452 306.048C273.077 306.048 273.572 305.801 273.936 305.306C274.3 304.811 274.482 304.139 274.482 303.29C274.482 302.431 274.3 301.759 273.936 301.274C273.572 300.779 273.087 300.532 272.48 300.532C272.023 300.532 271.631 300.644 271.304 300.868C270.977 301.083 270.725 301.395 270.548 301.806C270.38 302.217 270.296 302.711 270.296 303.29C270.296 303.85 270.38 304.34 270.548 304.76C270.725 305.171 270.973 305.488 271.29 305.712C271.617 305.936 272.004 306.048 272.452 306.048ZM279.745 307.168C279.008 307.168 278.415 306.921 277.967 306.426C277.529 305.922 277.309 305.231 277.309 304.354V299.58H278.485V304.032C278.485 304.751 278.611 305.283 278.863 305.628C279.125 305.964 279.521 306.132 280.053 306.132C280.641 306.132 281.103 305.945 281.439 305.572C281.775 305.189 281.943 304.667 281.943 304.004V299.58H283.119V307H281.999V305.166L282.181 305.264C282.032 305.871 281.747 306.342 281.327 306.678C280.907 307.005 280.38 307.168 279.745 307.168ZM287.857 307.168C287.213 307.168 286.653 307.009 286.177 306.692C285.711 306.375 285.351 305.927 285.099 305.348C284.847 304.769 284.721 304.083 284.721 303.29C284.721 302.497 284.847 301.811 285.099 301.232C285.351 300.653 285.711 300.205 286.177 299.888C286.653 299.571 287.213 299.412 287.857 299.412C288.352 299.412 288.805 299.519 289.215 299.734C289.626 299.939 289.934 300.233 290.139 300.616V297.06H291.315V307H290.251L290.209 305.88C290.004 306.281 289.691 306.599 289.271 306.832C288.851 307.056 288.38 307.168 287.857 307.168ZM288.095 306.048C288.534 306.048 288.903 305.936 289.201 305.712C289.509 305.488 289.743 305.171 289.901 304.76C290.06 304.34 290.139 303.85 290.139 303.29C290.139 302.711 290.06 302.217 289.901 301.806C289.743 301.395 289.509 301.083 289.201 300.868C288.903 300.644 288.534 300.532 288.095 300.532C287.442 300.532 286.919 300.779 286.527 301.274C286.145 301.759 285.953 302.431 285.953 303.29C285.953 304.139 286.145 304.811 286.527 305.306C286.919 305.801 287.442 306.048 288.095 306.048ZM296.229 309.268C295.697 309.268 295.216 309.179 294.787 309.002C294.358 308.825 293.998 308.573 293.709 308.246C293.42 307.919 293.224 307.541 293.121 307.112L294.353 307.028C294.465 307.373 294.661 307.644 294.941 307.84C295.23 308.045 295.66 308.148 296.229 308.148C296.901 308.148 297.414 308.013 297.769 307.742C298.133 307.471 298.315 307.065 298.315 306.524V305.32C298.138 305.712 297.853 306.025 297.461 306.258C297.069 306.491 296.63 306.608 296.145 306.608C295.52 306.608 294.96 306.454 294.465 306.146C293.98 305.838 293.597 305.413 293.317 304.872C293.046 304.331 292.911 303.71 292.911 303.01C292.911 302.301 293.046 301.68 293.317 301.148C293.588 300.607 293.961 300.182 294.437 299.874C294.922 299.566 295.473 299.412 296.089 299.412C296.612 299.412 297.078 299.533 297.489 299.776C297.909 300.019 298.203 300.345 298.371 300.756V299.58H299.491V306.496C299.491 307.075 299.36 307.569 299.099 307.98C298.838 308.4 298.464 308.717 297.979 308.932C297.494 309.156 296.91 309.268 296.229 309.268ZM296.201 305.488C296.836 305.488 297.344 305.269 297.727 304.83C298.11 304.382 298.306 303.775 298.315 303.01C298.324 302.497 298.24 302.058 298.063 301.694C297.895 301.321 297.648 301.036 297.321 300.84C297.004 300.635 296.63 300.532 296.201 300.532C295.548 300.532 295.039 300.756 294.675 301.204C294.32 301.643 294.143 302.245 294.143 303.01C294.143 303.775 294.325 304.382 294.689 304.83C295.062 305.269 295.566 305.488 296.201 305.488ZM304.489 307.168C303.789 307.168 303.182 307.009 302.669 306.692C302.165 306.375 301.773 305.927 301.493 305.348C301.222 304.76 301.087 304.074 301.087 303.29C301.087 302.506 301.222 301.825 301.493 301.246C301.773 300.667 302.16 300.219 302.655 299.902C303.159 299.575 303.751 299.412 304.433 299.412C305.077 299.412 305.646 299.566 306.141 299.874C306.635 300.173 307.018 300.611 307.289 301.19C307.569 301.769 307.709 302.473 307.709 303.304V303.654H302.319C302.365 304.447 302.575 305.045 302.949 305.446C303.331 305.847 303.845 306.048 304.489 306.048C304.974 306.048 305.371 305.936 305.679 305.712C305.996 305.479 306.215 305.175 306.337 304.802L307.597 304.9C307.401 305.563 307.027 306.109 306.477 306.538C305.935 306.958 305.273 307.168 304.489 307.168ZM302.319 302.618H306.421C306.365 301.899 306.155 301.372 305.791 301.036C305.436 300.7 304.983 300.532 304.433 300.532C303.863 300.532 303.392 300.709 303.019 301.064C302.655 301.409 302.421 301.927 302.319 302.618ZM311.731 307C311.059 307 310.559 306.846 310.233 306.538C309.915 306.23 309.757 305.749 309.757 305.096V297.844H310.933V305.068C310.933 305.404 311.007 305.637 311.157 305.768C311.306 305.899 311.535 305.964 311.843 305.964H312.907V307H311.731ZM308.665 300.616V299.58H312.907V300.616H308.665Z" fill="#141414"/>
<path d="M61.262 331V322.236H58.168V321.06H65.56V322.236H62.466V331H61.262ZM66.4208 331V321.06H67.5968V325.218L67.4568 325.19C67.5501 324.779 67.7088 324.443 67.9328 324.182C68.1568 323.921 68.4321 323.729 68.7588 323.608C69.0854 323.477 69.4448 323.412 69.8368 323.412C70.3688 323.412 70.8168 323.533 71.1808 323.776C71.5541 324.009 71.8341 324.341 72.0208 324.77C72.2168 325.19 72.3148 325.675 72.3148 326.226V331H71.1388V326.562C71.1388 325.843 71.0081 325.311 70.7468 324.966C70.4948 324.621 70.1074 324.448 69.5848 324.448C68.9874 324.448 68.5068 324.63 68.1428 324.994C67.7788 325.358 67.5968 325.885 67.5968 326.576V331H66.4208ZM74.4188 331V323.58H75.5948V331H74.4188ZM74.3908 322.418V321.046H75.6228V322.418H74.3908ZM80.4021 331.168C79.7394 331.168 79.1747 331.061 78.7081 330.846C78.2507 330.631 77.8914 330.337 77.6301 329.964C77.3781 329.581 77.2334 329.147 77.1961 328.662L78.4281 328.578C78.5027 329.026 78.6941 329.385 79.0021 329.656C79.3101 329.917 79.7767 330.048 80.4021 330.048C80.9061 330.048 81.3074 329.969 81.6061 329.81C81.9141 329.642 82.0681 329.376 82.0681 329.012C82.0681 328.816 82.0214 328.653 81.9281 328.522C81.8347 328.391 81.6527 328.279 81.3821 328.186C81.1114 328.083 80.7101 327.985 80.1781 327.892C79.4687 327.761 78.9087 327.603 78.4981 327.416C78.0967 327.22 77.8074 326.982 77.6301 326.702C77.4621 326.413 77.3781 326.072 77.3781 325.68C77.3781 325.017 77.6207 324.476 78.1061 324.056C78.5914 323.627 79.2821 323.412 80.1781 323.412C80.7847 323.412 81.2934 323.524 81.7041 323.748C82.1241 323.963 82.4507 324.252 82.6841 324.616C82.9267 324.971 83.0854 325.363 83.1601 325.792L81.9281 325.876C81.8721 325.615 81.7694 325.386 81.6201 325.19C81.4707 324.985 81.2747 324.826 81.0321 324.714C80.7894 324.593 80.5001 324.532 80.1641 324.532C79.6321 324.532 79.2401 324.635 78.9881 324.84C78.7361 325.045 78.6101 325.307 78.6101 325.624C78.6101 325.867 78.6661 326.067 78.7781 326.226C78.8994 326.375 79.0907 326.501 79.3521 326.604C79.6134 326.697 79.9634 326.781 80.4021 326.856C81.1581 326.987 81.7461 327.145 82.1661 327.332C82.5861 327.519 82.8801 327.747 83.0481 328.018C83.2161 328.289 83.3001 328.62 83.3001 329.012C83.3001 329.469 83.1694 329.861 82.9081 330.188C82.6561 330.505 82.3107 330.748 81.8721 330.916C81.4427 331.084 80.9527 331.168 80.4021 331.168ZM90.0259 331L87.7299 323.58H89.0179L90.7539 329.768L92.5179 323.58H93.7779L95.5419 329.768L97.2919 323.58H98.5799L96.2839 331H94.7999L93.1479 325.358L91.4959 331H90.0259ZM99.8759 331V323.58H101.052V331H99.8759ZM99.8479 322.418V321.046H101.08V322.418H99.8479ZM104.613 331C104.184 331 103.834 330.888 103.563 330.664C103.292 330.44 103.157 330.085 103.157 329.6V321.06H104.333V329.502C104.333 329.651 104.37 329.768 104.445 329.852C104.529 329.927 104.646 329.964 104.795 329.964H105.439V331H104.613ZM108.209 331C107.779 331 107.429 330.888 107.159 330.664C106.888 330.44 106.753 330.085 106.753 329.6V321.06H107.929V329.502C107.929 329.651 107.966 329.768 108.041 329.852C108.125 329.927 108.241 329.964 108.391 329.964H109.035V331H108.209ZM117.387 331.168C116.874 331.168 116.417 331.056 116.015 330.832C115.614 330.599 115.306 330.281 115.091 329.88L115.049 331H113.985V321.06H115.161V324.616C115.348 324.308 115.637 324.033 116.029 323.79C116.421 323.538 116.874 323.412 117.387 323.412C118.041 323.412 118.605 323.571 119.081 323.888C119.557 324.205 119.926 324.653 120.187 325.232C120.449 325.811 120.579 326.497 120.579 327.29C120.579 328.083 120.449 328.769 120.187 329.348C119.926 329.927 119.557 330.375 119.081 330.692C118.605 331.009 118.041 331.168 117.387 331.168ZM117.317 330.048C117.943 330.048 118.437 329.801 118.801 329.306C119.165 328.811 119.347 328.139 119.347 327.29C119.347 326.431 119.165 325.759 118.801 325.274C118.437 324.779 117.952 324.532 117.345 324.532C116.888 324.532 116.496 324.644 116.169 324.868C115.843 325.083 115.591 325.395 115.413 325.806C115.245 326.217 115.161 326.711 115.161 327.29C115.161 327.85 115.245 328.34 115.413 328.76C115.591 329.171 115.838 329.488 116.155 329.712C116.482 329.936 116.869 330.048 117.317 330.048ZM125.073 331.168C124.373 331.168 123.766 331.009 123.253 330.692C122.749 330.375 122.357 329.927 122.077 329.348C121.806 328.76 121.671 328.074 121.671 327.29C121.671 326.506 121.806 325.825 122.077 325.246C122.357 324.667 122.744 324.219 123.239 323.902C123.743 323.575 124.335 323.412 125.017 323.412C125.661 323.412 126.23 323.566 126.725 323.874C127.219 324.173 127.602 324.611 127.873 325.19C128.153 325.769 128.293 326.473 128.293 327.304V327.654H122.903C122.949 328.447 123.159 329.045 123.533 329.446C123.915 329.847 124.429 330.048 125.073 330.048C125.558 330.048 125.955 329.936 126.263 329.712C126.58 329.479 126.799 329.175 126.921 328.802L128.181 328.9C127.985 329.563 127.611 330.109 127.061 330.538C126.519 330.958 125.857 331.168 125.073 331.168ZM122.903 326.618H127.005C126.949 325.899 126.739 325.372 126.375 325.036C126.02 324.7 125.567 324.532 125.017 324.532C124.447 324.532 123.976 324.709 123.603 325.064C123.239 325.409 123.005 325.927 122.903 326.618ZM136.924 331.168C136.411 331.168 135.954 331.056 135.552 330.832C135.151 330.599 134.843 330.281 134.628 329.88L134.586 331H133.522V321.06H134.698V324.616C134.885 324.308 135.174 324.033 135.566 323.79C135.958 323.538 136.411 323.412 136.924 323.412C137.578 323.412 138.142 323.571 138.618 323.888C139.094 324.205 139.463 324.653 139.724 325.232C139.986 325.811 140.116 326.497 140.116 327.29C140.116 328.083 139.986 328.769 139.724 329.348C139.463 329.927 139.094 330.375 138.618 330.692C138.142 331.009 137.578 331.168 136.924 331.168ZM136.854 330.048C137.48 330.048 137.974 329.801 138.338 329.306C138.702 328.811 138.884 328.139 138.884 327.29C138.884 326.431 138.702 325.759 138.338 325.274C137.974 324.779 137.489 324.532 136.882 324.532C136.425 324.532 136.033 324.644 135.706 324.868C135.38 325.083 135.128 325.395 134.95 325.806C134.782 326.217 134.698 326.711 134.698 327.29C134.698 327.85 134.782 328.34 134.95 328.76C135.128 329.171 135.375 329.488 135.692 329.712C136.019 329.936 136.406 330.048 136.854 330.048ZM143.905 331.168C143.14 331.168 142.529 330.991 142.071 330.636C141.623 330.281 141.399 329.787 141.399 329.152C141.399 328.517 141.586 328.018 141.959 327.654C142.333 327.29 142.925 327.033 143.737 326.884L146.369 326.394C146.369 325.769 146.22 325.302 145.921 324.994C145.632 324.686 145.193 324.532 144.605 324.532C144.092 324.532 143.686 324.649 143.387 324.882C143.089 325.106 142.883 325.433 142.771 325.862L141.525 325.764C141.665 325.064 142.001 324.499 142.533 324.07C143.075 323.631 143.765 323.412 144.605 323.412C145.557 323.412 146.285 323.683 146.789 324.224C147.293 324.756 147.545 325.493 147.545 326.436V329.502C147.545 329.67 147.573 329.791 147.629 329.866C147.695 329.931 147.797 329.964 147.937 329.964H148.231V331C148.194 331.009 148.133 331.014 148.049 331.014C147.965 331.023 147.877 331.028 147.783 331.028C147.447 331.028 147.172 330.977 146.957 330.874C146.752 330.762 146.603 330.594 146.509 330.37C146.416 330.137 146.369 329.833 146.369 329.46L146.509 329.488C146.444 329.805 146.285 330.095 146.033 330.356C145.781 330.608 145.469 330.809 145.095 330.958C144.722 331.098 144.325 331.168 143.905 331.168ZM144.017 330.132C144.512 330.132 144.932 330.039 145.277 329.852C145.632 329.656 145.903 329.395 146.089 329.068C146.276 328.732 146.369 328.359 146.369 327.948V327.416L143.961 327.864C143.457 327.957 143.107 328.102 142.911 328.298C142.725 328.485 142.631 328.732 142.631 329.04C142.631 329.385 142.753 329.656 142.995 329.852C143.247 330.039 143.588 330.132 144.017 330.132ZM152.234 331.168C151.571 331.168 151.007 331.061 150.54 330.846C150.083 330.631 149.723 330.337 149.462 329.964C149.21 329.581 149.065 329.147 149.028 328.662L150.26 328.578C150.335 329.026 150.526 329.385 150.834 329.656C151.142 329.917 151.609 330.048 152.234 330.048C152.738 330.048 153.139 329.969 153.438 329.81C153.746 329.642 153.9 329.376 153.9 329.012C153.9 328.816 153.853 328.653 153.76 328.522C153.667 328.391 153.485 328.279 153.214 328.186C152.943 328.083 152.542 327.985 152.01 327.892C151.301 327.761 150.741 327.603 150.33 327.416C149.929 327.22 149.639 326.982 149.462 326.702C149.294 326.413 149.21 326.072 149.21 325.68C149.21 325.017 149.453 324.476 149.938 324.056C150.423 323.627 151.114 323.412 152.01 323.412C152.617 323.412 153.125 323.524 153.536 323.748C153.956 323.963 154.283 324.252 154.516 324.616C154.759 324.971 154.917 325.363 154.992 325.792L153.76 325.876C153.704 325.615 153.601 325.386 153.452 325.19C153.303 324.985 153.107 324.826 152.864 324.714C152.621 324.593 152.332 324.532 151.996 324.532C151.464 324.532 151.072 324.635 150.82 324.84C150.568 325.045 150.442 325.307 150.442 325.624C150.442 325.867 150.498 326.067 150.61 326.226C150.731 326.375 150.923 326.501 151.184 326.604C151.445 326.697 151.795 326.781 152.234 326.856C152.99 326.987 153.578 327.145 153.998 327.332C154.418 327.519 154.712 327.747 154.88 328.018C155.048 328.289 155.132 328.62 155.132 329.012C155.132 329.469 155.001 329.861 154.74 330.188C154.488 330.505 154.143 330.748 153.704 330.916C153.275 331.084 152.785 331.168 152.234 331.168ZM159.635 331.168C158.935 331.168 158.329 331.009 157.815 330.692C157.311 330.375 156.919 329.927 156.639 329.348C156.369 328.76 156.233 328.074 156.233 327.29C156.233 326.506 156.369 325.825 156.639 325.246C156.919 324.667 157.307 324.219 157.801 323.902C158.305 323.575 158.898 323.412 159.579 323.412C160.223 323.412 160.793 323.566 161.287 323.874C161.782 324.173 162.165 324.611 162.435 325.19C162.715 325.769 162.855 326.473 162.855 327.304V327.654H157.465C157.512 328.447 157.722 329.045 158.095 329.446C158.478 329.847 158.991 330.048 159.635 330.048C160.121 330.048 160.517 329.936 160.825 329.712C161.143 329.479 161.362 329.175 161.483 328.802L162.743 328.9C162.547 329.563 162.174 330.109 161.623 330.538C161.082 330.958 160.419 331.168 159.635 331.168ZM157.465 326.618H161.567C161.511 325.899 161.301 325.372 160.937 325.036C160.583 324.7 160.13 324.532 159.579 324.532C159.01 324.532 158.539 324.709 158.165 325.064C157.801 325.409 157.568 325.927 157.465 326.618ZM167.08 331.168C166.436 331.168 165.876 331.009 165.4 330.692C164.933 330.375 164.574 329.927 164.322 329.348C164.07 328.769 163.944 328.083 163.944 327.29C163.944 326.497 164.07 325.811 164.322 325.232C164.574 324.653 164.933 324.205 165.4 323.888C165.876 323.571 166.436 323.412 167.08 323.412C167.575 323.412 168.027 323.519 168.438 323.734C168.849 323.939 169.157 324.233 169.362 324.616V321.06H170.538V331H169.474L169.432 329.88C169.227 330.281 168.914 330.599 168.494 330.832C168.074 331.056 167.603 331.168 167.08 331.168ZM167.318 330.048C167.757 330.048 168.125 329.936 168.424 329.712C168.732 329.488 168.965 329.171 169.124 328.76C169.283 328.34 169.362 327.85 169.362 327.29C169.362 326.711 169.283 326.217 169.124 325.806C168.965 325.395 168.732 325.083 168.424 324.868C168.125 324.644 167.757 324.532 167.318 324.532C166.665 324.532 166.142 324.779 165.75 325.274C165.367 325.759 165.176 326.431 165.176 327.29C165.176 328.139 165.367 328.811 165.75 329.306C166.142 329.801 166.665 330.048 167.318 330.048ZM179.172 331.168C178.491 331.168 177.894 331.009 177.38 330.692C176.867 330.375 176.47 329.927 176.19 329.348C175.91 328.76 175.77 328.074 175.77 327.29C175.77 326.497 175.91 325.811 176.19 325.232C176.47 324.653 176.867 324.205 177.38 323.888C177.894 323.571 178.491 323.412 179.172 323.412C179.854 323.412 180.446 323.571 180.95 323.888C181.464 324.205 181.86 324.653 182.14 325.232C182.42 325.811 182.56 326.497 182.56 327.29C182.56 328.074 182.42 328.76 182.14 329.348C181.86 329.927 181.464 330.375 180.95 330.692C180.446 331.009 179.854 331.168 179.172 331.168ZM179.172 330.048C179.854 330.048 180.381 329.805 180.754 329.32C181.137 328.825 181.328 328.149 181.328 327.29C181.328 326.431 181.137 325.759 180.754 325.274C180.381 324.779 179.854 324.532 179.172 324.532C178.491 324.532 177.959 324.779 177.576 325.274C177.194 325.759 177.002 326.431 177.002 327.29C177.002 328.149 177.194 328.825 177.576 329.32C177.959 329.805 178.491 330.048 179.172 330.048ZM184.163 331V323.58H185.241L185.283 325.47L185.143 325.344C185.236 324.905 185.4 324.546 185.633 324.266C185.866 323.977 186.146 323.762 186.473 323.622C186.809 323.482 187.168 323.412 187.551 323.412C188.12 323.412 188.587 323.538 188.951 323.79C189.324 324.042 189.6 324.383 189.777 324.812C189.964 325.232 190.057 325.703 190.057 326.226V331H188.881V326.562C188.881 326.105 188.825 325.722 188.713 325.414C188.61 325.097 188.442 324.859 188.209 324.7C187.976 324.532 187.672 324.448 187.299 324.448C186.73 324.448 186.258 324.63 185.885 324.994C185.521 325.349 185.339 325.871 185.339 326.562V331H184.163ZM198.514 331C197.842 331 197.342 330.846 197.016 330.538C196.698 330.23 196.54 329.749 196.54 329.096V321.844H197.716V329.068C197.716 329.404 197.79 329.637 197.94 329.768C198.089 329.899 198.318 329.964 198.626 329.964H199.69V331H198.514ZM195.448 324.616V323.58H199.69V324.616H195.448ZM201.349 331V323.58H202.385L202.441 325.456L202.329 325.414C202.422 324.779 202.623 324.317 202.931 324.028C203.248 323.729 203.668 323.58 204.191 323.58H204.919V324.7H204.205C203.831 324.7 203.519 324.77 203.267 324.91C203.024 325.041 202.837 325.241 202.707 325.512C202.585 325.773 202.525 326.109 202.525 326.52V331H201.349ZM208.095 331.168C207.329 331.168 206.718 330.991 206.261 330.636C205.813 330.281 205.589 329.787 205.589 329.152C205.589 328.517 205.775 328.018 206.149 327.654C206.522 327.29 207.115 327.033 207.927 326.884L210.559 326.394C210.559 325.769 210.409 325.302 210.111 324.994C209.821 324.686 209.383 324.532 208.795 324.532C208.281 324.532 207.875 324.649 207.577 324.882C207.278 325.106 207.073 325.433 206.961 325.862L205.715 325.764C205.855 325.064 206.191 324.499 206.723 324.07C207.264 323.631 207.955 323.412 208.795 323.412C209.747 323.412 210.475 323.683 210.979 324.224C211.483 324.756 211.735 325.493 211.735 326.436V329.502C211.735 329.67 211.763 329.791 211.819 329.866C211.884 329.931 211.987 329.964 212.127 329.964H212.421V331C212.383 331.009 212.323 331.014 212.239 331.014C212.155 331.023 212.066 331.028 211.973 331.028C211.637 331.028 211.361 330.977 211.147 330.874C210.941 330.762 210.792 330.594 210.699 330.37C210.605 330.137 210.559 329.833 210.559 329.46L210.699 329.488C210.633 329.805 210.475 330.095 210.223 330.356C209.971 330.608 209.658 330.809 209.285 330.958C208.911 331.098 208.515 331.168 208.095 331.168ZM208.207 330.132C208.701 330.132 209.121 330.039 209.467 329.852C209.821 329.656 210.092 329.395 210.279 329.068C210.465 328.732 210.559 328.359 210.559 327.948V327.416L208.151 327.864C207.647 327.957 207.297 328.102 207.101 328.298C206.914 328.485 206.821 328.732 206.821 329.04C206.821 329.385 206.942 329.656 207.185 329.852C207.437 330.039 207.777 330.132 208.207 330.132ZM213.749 331V323.58H214.827L214.869 325.47L214.729 325.344C214.822 324.905 214.986 324.546 215.219 324.266C215.452 323.977 215.732 323.762 216.059 323.622C216.395 323.482 216.754 323.412 217.137 323.412C217.706 323.412 218.173 323.538 218.537 323.79C218.91 324.042 219.186 324.383 219.363 324.812C219.55 325.232 219.643 325.703 219.643 326.226V331H218.467V326.562C218.467 326.105 218.411 325.722 218.299 325.414C218.196 325.097 218.028 324.859 217.795 324.7C217.562 324.532 217.258 324.448 216.885 324.448C216.316 324.448 215.844 324.63 215.471 324.994C215.107 325.349 214.925 325.871 214.925 326.562V331H213.749ZM224.422 331.168C223.759 331.168 223.194 331.061 222.728 330.846C222.27 330.631 221.911 330.337 221.65 329.964C221.398 329.581 221.253 329.147 221.216 328.662L222.448 328.578C222.522 329.026 222.714 329.385 223.022 329.656C223.33 329.917 223.796 330.048 224.422 330.048C224.926 330.048 225.327 329.969 225.626 329.81C225.934 329.642 226.088 329.376 226.088 329.012C226.088 328.816 226.041 328.653 225.948 328.522C225.854 328.391 225.672 328.279 225.402 328.186C225.131 328.083 224.73 327.985 224.198 327.892C223.488 327.761 222.928 327.603 222.518 327.416C222.116 327.22 221.827 326.982 221.65 326.702C221.482 326.413 221.398 326.072 221.398 325.68C221.398 325.017 221.64 324.476 222.126 324.056C222.611 323.627 223.302 323.412 224.198 323.412C224.804 323.412 225.313 323.524 225.724 323.748C226.144 323.963 226.47 324.252 226.704 324.616C226.946 324.971 227.105 325.363 227.18 325.792L225.948 325.876C225.892 325.615 225.789 325.386 225.64 325.19C225.49 324.985 225.294 324.826 225.052 324.714C224.809 324.593 224.52 324.532 224.184 324.532C223.652 324.532 223.26 324.635 223.008 324.84C222.756 325.045 222.63 325.307 222.63 325.624C222.63 325.867 222.686 326.067 222.798 326.226C222.919 326.375 223.11 326.501 223.372 326.604C223.633 326.697 223.983 326.781 224.422 326.856C225.178 326.987 225.766 327.145 226.186 327.332C226.606 327.519 226.9 327.747 227.068 328.018C227.236 328.289 227.32 328.62 227.32 329.012C227.32 329.469 227.189 329.861 226.928 330.188C226.676 330.505 226.33 330.748 225.892 330.916C225.462 331.084 224.972 331.168 224.422 331.168ZM231.118 331.168C230.353 331.168 229.741 330.991 229.284 330.636C228.836 330.281 228.612 329.787 228.612 329.152C228.612 328.517 228.799 328.018 229.172 327.654C229.545 327.29 230.138 327.033 230.95 326.884L233.582 326.394C233.582 325.769 233.433 325.302 233.134 324.994C232.845 324.686 232.406 324.532 231.818 324.532C231.305 324.532 230.899 324.649 230.6 324.882C230.301 325.106 230.096 325.433 229.984 325.862L228.738 325.764C228.878 325.064 229.214 324.499 229.746 324.07C230.287 323.631 230.978 323.412 231.818 323.412C232.77 323.412 233.498 323.683 234.002 324.224C234.506 324.756 234.758 325.493 234.758 326.436V329.502C234.758 329.67 234.786 329.791 234.842 329.866C234.907 329.931 235.01 329.964 235.15 329.964H235.444V331C235.407 331.009 235.346 331.014 235.262 331.014C235.178 331.023 235.089 331.028 234.996 331.028C234.66 331.028 234.385 330.977 234.17 330.874C233.965 330.762 233.815 330.594 233.722 330.37C233.629 330.137 233.582 329.833 233.582 329.46L233.722 329.488C233.657 329.805 233.498 330.095 233.246 330.356C232.994 330.608 232.681 330.809 232.308 330.958C231.935 331.098 231.538 331.168 231.118 331.168ZM231.23 330.132C231.725 330.132 232.145 330.039 232.49 329.852C232.845 329.656 233.115 329.395 233.302 329.068C233.489 328.732 233.582 328.359 233.582 327.948V327.416L231.174 327.864C230.67 327.957 230.32 328.102 230.124 328.298C229.937 328.485 229.844 328.732 229.844 329.04C229.844 329.385 229.965 329.656 230.208 329.852C230.46 330.039 230.801 330.132 231.23 330.132ZM239.643 331.168C238.952 331.168 238.35 331.009 237.837 330.692C237.333 330.375 236.941 329.927 236.661 329.348C236.381 328.76 236.241 328.074 236.241 327.29C236.241 326.506 236.381 325.825 236.661 325.246C236.941 324.667 237.333 324.219 237.837 323.902C238.35 323.575 238.952 323.412 239.643 323.412C240.212 323.412 240.716 323.515 241.155 323.72C241.603 323.916 241.967 324.205 242.247 324.588C242.527 324.971 242.709 325.437 242.793 325.988L241.561 326.072C241.477 325.577 241.262 325.199 240.917 324.938C240.572 324.667 240.147 324.532 239.643 324.532C238.962 324.532 238.43 324.779 238.047 325.274C237.664 325.759 237.473 326.431 237.473 327.29C237.473 328.149 237.664 328.825 238.047 329.32C238.43 329.805 238.962 330.048 239.643 330.048C240.147 330.048 240.572 329.908 240.917 329.628C241.262 329.348 241.477 328.928 241.561 328.368L242.793 328.452C242.709 329.003 242.527 329.483 242.247 329.894C241.967 330.295 241.603 330.608 241.155 330.832C240.716 331.056 240.212 331.168 239.643 331.168ZM246.68 331C246.008 331 245.508 330.846 245.182 330.538C244.864 330.23 244.706 329.749 244.706 329.096V321.844H245.882V329.068C245.882 329.404 245.956 329.637 246.106 329.768C246.255 329.899 246.484 329.964 246.792 329.964H247.856V331H246.68ZM243.614 324.616V323.58H247.856V324.616H243.614ZM249.364 331V323.58H250.54V331H249.364ZM249.336 322.418V321.046H250.568V322.418H249.336ZM255.543 331.168C254.862 331.168 254.265 331.009 253.751 330.692C253.238 330.375 252.841 329.927 252.561 329.348C252.281 328.76 252.141 328.074 252.141 327.29C252.141 326.497 252.281 325.811 252.561 325.232C252.841 324.653 253.238 324.205 253.751 323.888C254.265 323.571 254.862 323.412 255.543 323.412C256.225 323.412 256.817 323.571 257.321 323.888C257.835 324.205 258.231 324.653 258.511 325.232C258.791 325.811 258.931 326.497 258.931 327.29C258.931 328.074 258.791 328.76 258.511 329.348C258.231 329.927 257.835 330.375 257.321 330.692C256.817 331.009 256.225 331.168 255.543 331.168ZM255.543 330.048C256.225 330.048 256.752 329.805 257.125 329.32C257.508 328.825 257.699 328.149 257.699 327.29C257.699 326.431 257.508 325.759 257.125 325.274C256.752 324.779 256.225 324.532 255.543 324.532C254.862 324.532 254.33 324.779 253.947 325.274C253.565 325.759 253.373 326.431 253.373 327.29C253.373 328.149 253.565 328.825 253.947 329.32C254.33 329.805 254.862 330.048 255.543 330.048ZM260.534 331V323.58H261.612L261.654 325.47L261.514 325.344C261.607 324.905 261.771 324.546 262.004 324.266C262.237 323.977 262.517 323.762 262.844 323.622C263.18 323.482 263.539 323.412 263.922 323.412C264.491 323.412 264.958 323.538 265.322 323.79C265.695 324.042 265.971 324.383 266.148 324.812C266.335 325.232 266.428 325.703 266.428 326.226V331H265.252V326.562C265.252 326.105 265.196 325.722 265.084 325.414C264.981 325.097 264.813 324.859 264.58 324.7C264.347 324.532 264.043 324.448 263.67 324.448C263.101 324.448 262.629 324.63 262.256 324.994C261.892 325.349 261.71 325.871 261.71 326.562V331H260.534ZM272.169 331V321.06H273.345V325.218L273.205 325.19C273.298 324.779 273.457 324.443 273.681 324.182C273.905 323.921 274.18 323.729 274.507 323.608C274.833 323.477 275.193 323.412 275.585 323.412C276.117 323.412 276.565 323.533 276.929 323.776C277.302 324.009 277.582 324.341 277.769 324.77C277.965 325.19 278.063 325.675 278.063 326.226V331H276.887V326.562C276.887 325.843 276.756 325.311 276.495 324.966C276.243 324.621 275.855 324.448 275.333 324.448C274.735 324.448 274.255 324.63 273.891 324.994C273.527 325.358 273.345 325.885 273.345 326.576V331H272.169ZM280.167 331V323.58H281.343V331H280.167ZM280.139 322.418V321.046H281.371V322.418H280.139ZM286.15 331.168C285.487 331.168 284.923 331.061 284.456 330.846C283.999 330.631 283.639 330.337 283.378 329.964C283.126 329.581 282.981 329.147 282.944 328.662L284.176 328.578C284.251 329.026 284.442 329.385 284.75 329.656C285.058 329.917 285.525 330.048 286.15 330.048C286.654 330.048 287.055 329.969 287.354 329.81C287.662 329.642 287.816 329.376 287.816 329.012C287.816 328.816 287.769 328.653 287.676 328.522C287.583 328.391 287.401 328.279 287.13 328.186C286.859 328.083 286.458 327.985 285.926 327.892C285.217 327.761 284.657 327.603 284.246 327.416C283.845 327.22 283.555 326.982 283.378 326.702C283.21 326.413 283.126 326.072 283.126 325.68C283.126 325.017 283.369 324.476 283.854 324.056C284.339 323.627 285.03 323.412 285.926 323.412C286.533 323.412 287.041 323.524 287.452 323.748C287.872 323.963 288.199 324.252 288.432 324.616C288.675 324.971 288.833 325.363 288.908 325.792L287.676 325.876C287.62 325.615 287.517 325.386 287.368 325.19C287.219 324.985 287.023 324.826 286.78 324.714C286.537 324.593 286.248 324.532 285.912 324.532C285.38 324.532 284.988 324.635 284.736 324.84C284.484 325.045 284.358 325.307 284.358 325.624C284.358 325.867 284.414 326.067 284.526 326.226C284.647 326.375 284.839 326.501 285.1 326.604C285.361 326.697 285.711 326.781 286.15 326.856C286.906 326.987 287.494 327.145 287.914 327.332C288.334 327.519 288.628 327.747 288.796 328.018C288.964 328.289 289.048 328.62 289.048 329.012C289.048 329.469 288.917 329.861 288.656 330.188C288.404 330.505 288.059 330.748 287.62 330.916C287.191 331.084 286.701 331.168 286.15 331.168ZM293.082 331C292.41 331 291.911 330.846 291.584 330.538C291.267 330.23 291.108 329.749 291.108 329.096V321.844H292.284V329.068C292.284 329.404 292.359 329.637 292.508 329.768C292.657 329.899 292.886 329.964 293.194 329.964H294.258V331H293.082ZM290.016 324.616V323.58H294.258V324.616H290.016ZM298.528 331.168C297.846 331.168 297.249 331.009 296.736 330.692C296.222 330.375 295.826 329.927 295.546 329.348C295.266 328.76 295.126 328.074 295.126 327.29C295.126 326.497 295.266 325.811 295.546 325.232C295.826 324.653 296.222 324.205 296.736 323.888C297.249 323.571 297.846 323.412 298.528 323.412C299.209 323.412 299.802 323.571 300.306 323.888C300.819 324.205 301.216 324.653 301.496 325.232C301.776 325.811 301.916 326.497 301.916 327.29C301.916 328.074 301.776 328.76 301.496 329.348C301.216 329.927 300.819 330.375 300.306 330.692C299.802 331.009 299.209 331.168 298.528 331.168ZM298.528 330.048C299.209 330.048 299.736 329.805 300.11 329.32C300.492 328.825 300.684 328.149 300.684 327.29C300.684 326.431 300.492 325.759 300.11 325.274C299.736 324.779 299.209 324.532 298.528 324.532C297.846 324.532 297.314 324.779 296.932 325.274C296.549 325.759 296.358 326.431 296.358 327.29C296.358 328.149 296.549 328.825 296.932 329.32C297.314 329.805 297.846 330.048 298.528 330.048ZM303.518 331V323.58H304.554L304.61 325.456L304.498 325.414C304.592 324.779 304.792 324.317 305.1 324.028C305.418 323.729 305.838 323.58 306.36 323.58H307.088V324.7H306.374C306.001 324.7 305.688 324.77 305.436 324.91C305.194 325.041 305.007 325.241 304.876 325.512C304.755 325.773 304.694 326.109 304.694 326.52V331H303.518ZM308.79 333.1V332.064H309.644C309.905 332.064 310.096 332.022 310.218 331.938C310.348 331.863 310.446 331.737 310.512 331.56L310.778 330.86H310.372L307.656 323.58H308.944L311.156 329.768L313.27 323.58H314.558L311.548 331.938C311.408 332.339 311.198 332.633 310.918 332.82C310.638 333.007 310.25 333.1 309.756 333.1H308.79ZM314.649 331V329.418H316.231V331H314.649Z" fill="#737373"/>
<g filter="url(#filter2_diiii_468_39217)">
<g clip-path="url(#clip1_468_39217)">
<rect x="360" y="292" width="36" height="20" rx="10" fill="#0CD175"/>
<g filter="url(#filter3_dddddii_468_39217)">
<rect x="377.664" y="293.664" width="16.6667" height="16.6667" rx="8.33333" fill="white"/>
<rect x="377.664" y="293.664" width="16.6667" height="16.6667" rx="8.33333" fill="url(#paint0_linear_468_39217)" fill-opacity="0.06"/>
</g>
</g>
</g>
</g>
<defs>
<filter id="filter0_ddddd_468_39217" x="9.93738" y="-24.0626" width="406.125" height="406.872" filterUnits="userSpaceOnUse" color-interpolation-filters="sRGB">
<feFlood flood-opacity="0" result="BackgroundImageFix"/>
<feColorMatrix in="SourceAlpha" type="matrix" values="0 0 0 0 0 0 0 0 0 0 0 0 0 0 0 0 0 0 127 0" result="hardAlpha"/>
<feOffset dy="1"/>
<feGaussianBlur stdDeviation="1"/>
<feColorMatrix type="matrix" values="0 0 0 0 0.0431373 0 0 0 0 0.0431373 0 0 0 0 0.0431373 0 0 0 0.05 0"/>
<feBlend mode="normal" in2="BackgroundImageFix" result="effect1_dropShadow_468_39217"/>
<feColorMatrix in="SourceAlpha" type="matrix" values="0 0 0 0 0 0 0 0 0 0 0 0 0 0 0 0 0 0 127 0" result="hardAlpha"/>
<feMorphology radius="0.946184" operator="dilate" in="SourceAlpha" result="effect2_dropShadow_468_39217"/>
<feOffset/>
<feColorMatrix type="matrix" values="0 0 0 0 0.0431373 0 0 0 0 0.0431373 0 0 0 0 0.0431373 0 0 0 0.05 0"/>
<feBlend mode="normal" in2="effect1_dropShadow_468_39217" result="effect2_dropShadow_468_39217"/>
<feColorMatrix in="SourceAlpha" type="matrix" values="0 0 0 0 0 0 0 0 0 0 0 0 0 0 0 0 0 0 127 0" result="hardAlpha"/>
<feOffset dy="3.78474"/>
<feGaussianBlur stdDeviation="3.78474"/>
<feComposite in2="hardAlpha" operator="out"/>
<feColorMatrix type="matrix" values="0 0 0 0 0.0431373 0 0 0 0 0.0431373 0 0 0 0 0.0431373 0 0 0 0.06 0"/>
<feBlend mode="normal" in2="effect2_dropShadow_468_39217" result="effect3_dropShadow_468_39217"/>
<feColorMatrix in="SourceAlpha" type="matrix" values="0 0 0 0 0 0 0 0 0 0 0 0 0 0 0 0 0 0 127 0" result="hardAlpha"/>
<feMorphology radius="9.46184" operator="dilate" in="SourceAlpha" result="effect4_dropShadow_468_39217"/>
<feOffset/>
<feComposite in2="hardAlpha" operator="out"/>
<feColorMatrix type="matrix" values="0 0 0 0 0 0 0 0 0 0 0 0 0 0 0 0 0 0 0.02 0"/>
<feBlend mode="normal" in2="effect3_dropShadow_468_39217" result="effect4_dropShadow_468_39217"/>
<feColorMatrix in="SourceAlpha" type="matrix" values="0 0 0 0 0 0 0 0 0 0 0 0 0 0 0 0 0 0 127 0" result="hardAlpha"/>
<feMorphology radius="3.48094" operator="erode" in="SourceAlpha" result="effect5_dropShadow_468_39217"/>
<feOffset dy="17.4047"/>
<feGaussianBlur stdDeviation="10.4428"/>
<feColorMatrix type="matrix" values="0 0 0 0 0.0431373 0 0 0 0 0.0431373 0 0 0 0 0.0431373 0 0 0 0.02 0"/>
<feBlend mode="normal" in2="effect4_dropShadow_468_39217" result="effect5_dropShadow_468_39217"/>
<feBlend mode="normal" in="SourceGraphic" in2="effect5_dropShadow_468_39217" result="shape"/>
</filter>
<filter id="filter1_dddddd_468_39217" x="-16.0626" y="245.937" width="458.125" height="136.872" filterUnits="userSpaceOnUse" color-interpolation-filters="sRGB">
<feFlood flood-opacity="0" result="BackgroundImageFix"/>
<feColorMatrix in="SourceAlpha" type="matrix" values="0 0 0 0 0 0 0 0 0 0 0 0 0 0 0 0 0 0 127 0" result="hardAlpha"/>
<feOffset dy="1"/>
<feGaussianBlur stdDeviation="1"/>
<feColorMatrix type="matrix" values="0 0 0 0 0.0431373 0 0 0 0 0.0431373 0 0 0 0 0.0431373 0 0 0 0.05 0"/>
<feBlend mode="normal" in2="BackgroundImageFix" result="effect1_dropShadow_468_39217"/>
<feColorMatrix in="SourceAlpha" type="matrix" values="0 0 0 0 0 0 0 0 0 0 0 0 0 0 0 0 0 0 127 0" result="hardAlpha"/>
<feMorphology radius="0.946184" operator="dilate" in="SourceAlpha" result="effect2_dropShadow_468_39217"/>
<feOffset/>
<feColorMatrix type="matrix" values="0 0 0 0 0.0431373 0 0 0 0 0.0431373 0 0 0 0 0.0431373 0 0 0 0.05 0"/>
<feBlend mode="normal" in2="effect1_dropShadow_468_39217" result="effect2_dropShadow_468_39217"/>
<feColorMatrix in="SourceAlpha" type="matrix" values="0 0 0 0 0 0 0 0 0 0 0 0 0 0 0 0 0 0 127 0" result="hardAlpha"/>
<feMorphology radius="0.946184" operator="dilate" in="SourceAlpha" result="effect3_dropShadow_468_39217"/>
<feOffset/>
<feComposite in2="hardAlpha" operator="out"/>
<feColorMatrix type="matrix" values="0 0 0 0 0.0431373 0 0 0 0 0.0431373 0 0 0 0 0.0431373 0 0 0 0.05 0"/>
<feBlend mode="normal" in2="effect2_dropShadow_468_39217" result="effect3_dropShadow_468_39217"/>
<feColorMatrix in="SourceAlpha" type="matrix" values="0 0 0 0 0 0 0 0 0 0 0 0 0 0 0 0 0 0 127 0" result="hardAlpha"/>
<feOffset dy="3.78474"/>
<feGaussianBlur stdDeviation="3.78474"/>
<feComposite in2="hardAlpha" operator="out"/>
<feColorMatrix type="matrix" values="0 0 0 0 0.0431373 0 0 0 0 0.0431373 0 0 0 0 0.0431373 0 0 0 0.06 0"/>
<feBlend mode="normal" in2="effect3_dropShadow_468_39217" result="effect4_dropShadow_468_39217"/>
<feColorMatrix in="SourceAlpha" type="matrix" values="0 0 0 0 0 0 0 0 0 0 0 0 0 0 0 0 0 0 127 0" result="hardAlpha"/>
<feMorphology radius="9.46184" operator="dilate" in="SourceAlpha" result="effect5_dropShadow_468_39217"/>
<feOffset/>
<feComposite in2="hardAlpha" operator="out"/>
<feColorMatrix type="matrix" values="0 0 0 0 0 0 0 0 0 0 0 0 0 0 0 0 0 0 0.02 0"/>
<feBlend mode="normal" in2="effect4_dropShadow_468_39217" result="effect5_dropShadow_468_39217"/>
<feColorMatrix in="SourceAlpha" type="matrix" values="0 0 0 0 0 0 0 0 0 0 0 0 0 0 0 0 0 0 127 0" result="hardAlpha"/>
<feMorphology radius="3.48094" operator="erode" in="SourceAlpha" result="effect6_dropShadow_468_39217"/>
<feOffset dy="17.4047"/>
<feGaussianBlur stdDeviation="10.4428"/>
<feColorMatrix type="matrix" values="0 0 0 0 0.0431373 0 0 0 0 0.0431373 0 0 0 0 0.0431373 0 0 0 0.02 0"/>
<feBlend mode="normal" in2="effect5_dropShadow_468_39217" result="effect6_dropShadow_468_39217"/>
<feBlend mode="normal" in="SourceGraphic" in2="effect6_dropShadow_468_39217" result="shape"/>
</filter>
<filter id="filter2_diiii_468_39217" x="356.667" y="290.333" width="42.6667" height="26.6667" filterUnits="userSpaceOnUse" color-interpolation-filters="sRGB">
<feFlood flood-opacity="0" result="BackgroundImageFix"/>
<feColorMatrix in="SourceAlpha" type="matrix" values="0 0 0 0 0 0 0 0 0 0 0 0 0 0 0 0 0 0 127 0" result="hardAlpha"/>
<feOffset dy="1.66667"/>
<feGaussianBlur stdDeviation="1.66667"/>
<feComposite in2="hardAlpha" operator="out"/>
<feColorMatrix type="matrix" values="0 0 0 0 0 0 0 0 0 0 0 0 0 0 0 0 0 0 0.04 0"/>
<feBlend mode="normal" in2="BackgroundImageFix" result="effect1_dropShadow_468_39217"/>
<feBlend mode="normal" in="SourceGraphic" in2="effect1_dropShadow_468_39217" result="shape"/>
<feColorMatrix in="SourceAlpha" type="matrix" values="0 0 0 0 0 0 0 0 0 0 0 0 0 0 0 0 0 0 127 0" result="hardAlpha"/>
<feOffset/>
<feGaussianBlur stdDeviation="3.33333"/>
<feComposite in2="hardAlpha" operator="arithmetic" k2="-1" k3="1"/>
<feColorMatrix type="matrix" values="0 0 0 0 0 0 0 0 0 0 0 0 0 0 0 0 0 0 0.02 0"/>
<feBlend mode="normal" in2="shape" result="effect2_innerShadow_468_39217"/>
<feColorMatrix in="SourceAlpha" type="matrix" values="0 0 0 0 0 0 0 0 0 0 0 0 0 0 0 0 0 0 127 0" result="hardAlpha"/>
<feMorphology radius="0.416667" operator="erode" in="SourceAlpha" result="effect3_innerShadow_468_39217"/>
<feOffset/>
<feComposite in2="hardAlpha" operator="arithmetic" k2="-1" k3="1"/>
<feColorMatrix type="matrix" values="0 0 0 0 0 0 0 0 0 0 0 0 0 0 0 0 0 0 0.06 0"/>
<feBlend mode="normal" in2="effect2_innerShadow_468_39217" result="effect3_innerShadow_468_39217"/>
<feColorMatrix in="SourceAlpha" type="matrix" values="0 0 0 0 0 0 0 0 0 0 0 0 0 0 0 0 0 0 127 0" result="hardAlpha"/>
<feOffset dy="1.66667"/>
<feGaussianBlur stdDeviation="1.66667"/>
<feComposite in2="hardAlpha" operator="arithmetic" k2="-1" k3="1"/>
<feColorMatrix type="matrix" values="0 0 0 0 0 0 0 0 0 0 0 0 0 0 0 0 0 0 0.04 0"/>
<feBlend mode="normal" in2="effect3_innerShadow_468_39217" result="effect4_innerShadow_468_39217"/>
<feColorMatrix in="SourceAlpha" type="matrix" values="0 0 0 0 0 0 0 0 0 0 0 0 0 0 0 0 0 0 127 0" result="hardAlpha"/>
<feOffset dy="0.833333"/>
<feGaussianBlur stdDeviation="0.416667"/>
<feComposite in2="hardAlpha" operator="arithmetic" k2="-1" k3="1"/>
<feColorMatrix type="matrix" values="0 0 0 0 0 0 0 0 0 0 0 0 0 0 0 0 0 0 0.04 0"/>
<feBlend mode="normal" in2="effect4_innerShadow_468_39217" result="effect5_innerShadow_468_39217"/>
</filter>
<filter id="filter3_dddddii_468_39217" x="374.331" y="292.831" width="23.3337" height="25" filterUnits="userSpaceOnUse" color-interpolation-filters="sRGB">
<feFlood flood-opacity="0" result="BackgroundImageFix"/>
<feColorMatrix in="SourceAlpha" type="matrix" values="0 0 0 0 0 0 0 0 0 0 0 0 0 0 0 0 0 0 127 0" result="hardAlpha"/>
<feOffset/>
<feGaussianBlur stdDeviation="0.416667"/>
<feColorMatrix type="matrix" values="0 0 0 0 0 0 0 0 0 0 0 0 0 0 0 0 0 0 0.08 0"/>
<feBlend mode="normal" in2="BackgroundImageFix" result="effect1_dropShadow_468_39217"/>
<feColorMatrix in="SourceAlpha" type="matrix" values="0 0 0 0 0 0 0 0 0 0 0 0 0 0 0 0 0 0 127 0" result="hardAlpha"/>
<feOffset dy="0.833333"/>
<feGaussianBlur stdDeviation="0.833333"/>
<feColorMatrix type="matrix" values="0 0 0 0 0 0 0 0 0 0 0 0 0 0 0 0 0 0 0.12 0"/>
<feBlend mode="normal" in2="effect1_dropShadow_468_39217" result="effect2_dropShadow_468_39217"/>
<feColorMatrix in="SourceAlpha" type="matrix" values="0 0 0 0 0 0 0 0 0 0 0 0 0 0 0 0 0 0 127 0" result="hardAlpha"/>
<feOffset dy="2.5"/>
<feGaussianBlur stdDeviation="1.25"/>
<feColorMatrix type="matrix" values="0 0 0 0 0 0 0 0 0 0 0 0 0 0 0 0 0 0 0.04 0"/>
<feBlend mode="normal" in2="effect2_dropShadow_468_39217" result="effect3_dropShadow_468_39217"/>
<feColorMatrix in="SourceAlpha" type="matrix" values="0 0 0 0 0 0 0 0 0 0 0 0 0 0 0 0 0 0 127 0" result="hardAlpha"/>
<feOffset dy="4.16667"/>
<feGaussianBlur stdDeviation="1.66667"/>
<feColorMatrix type="matrix" values="0 0 0 0 0 0 0 0 0 0 0 0 0 0 0 0 0 0 0.02 0"/>
<feBlend mode="normal" in2="effect3_dropShadow_468_39217" result="effect4_dropShadow_468_39217"/>
<feColorMatrix in="SourceAlpha" type="matrix" values="0 0 0 0 0 0 0 0 0 0 0 0 0 0 0 0 0 0 127 0" result="hardAlpha"/>
<feMorphology radius="0.416667" operator="dilate" in="SourceAlpha" result="effect5_dropShadow_468_39217"/>
<feOffset/>
<feComposite in2="hardAlpha" operator="out"/>
<feColorMatrix type="matrix" values="0 0 0 0 0 0 0 0 0 0 0 0 0 0 0 0 0 0 0.02 0"/>
<feBlend mode="normal" in2="effect4_dropShadow_468_39217" result="effect5_dropShadow_468_39217"/>
<feBlend mode="normal" in="SourceGraphic" in2="effect5_dropShadow_468_39217" result="shape"/>
<feColorMatrix in="SourceAlpha" type="matrix" values="0 0 0 0 0 0 0 0 0 0 0 0 0 0 0 0 0 0 127 0" result="hardAlpha"/>
<feOffset dy="0.833333"/>
<feComposite in2="hardAlpha" operator="arithmetic" k2="-1" k3="1"/>
<feColorMatrix type="matrix" values="0 0 0 0 1 0 0 0 0 1 0 0 0 0 1 0 0 0 1 0"/>
<feBlend mode="normal" in2="shape" result="effect6_innerShadow_468_39217"/>
<feColorMatrix in="SourceAlpha" type="matrix" values="0 0 0 0 0 0 0 0 0 0 0 0 0 0 0 0 0 0 127 0" result="hardAlpha"/>
<feMorphology radius="0.833333" operator="erode" in="SourceAlpha" result="effect7_innerShadow_468_39217"/>
<feOffset/>
<feGaussianBlur stdDeviation="0.833333"/>
<feComposite in2="hardAlpha" operator="arithmetic" k2="-1" k3="1"/>
<feColorMatrix type="matrix" values="0 0 0 0 1 0 0 0 0 1 0 0 0 0 1 0 0 0 1 0"/>
<feBlend mode="normal" in2="effect6_innerShadow_468_39217" result="effect7_innerShadow_468_39217"/>
</filter>
<linearGradient id="paint0_linear_468_39217" x1="385.997" y1="293.664" x2="385.997" y2="310.331" gradientUnits="userSpaceOnUse">
<stop offset="0.354167" stop-opacity="0"/>
<stop offset="1"/>
</linearGradient>
<clipPath id="clip0_468_39217">
<rect width="20.8" height="20.8" fill="white" transform="translate(248.348 222.202)"/>
</clipPath>
<clipPath id="clip1_468_39217">
<rect x="360" y="292" width="36" height="20" rx="10" fill="white"/>
</clipPath>
</defs>
</svg>
