<svg width="41" height="41" fill="none" xmlns="http://www.w3.org/2000/svg"><mask id="a" style="mask-type:alpha" maskUnits="userSpaceOnUse" x="1" y="1" width="39" height="39"><path d="M2.773 16.99c.234-3.337.598-5.962 1.207-8.015.607-2.046 1.446-3.484 2.606-4.492 1.159-1.008 2.7-1.638 4.81-1.955 2.118-.317 4.768-.313 8.105-.08l5.057.354c3.337.234 5.963.598 8.016 1.207 2.045.607 3.483 1.446 4.491 2.605 1.008 1.16 1.639 2.7 1.955 4.81.318 2.119.313 4.769.08 8.106l-.354 5.057c-.233 3.337-.598 5.962-1.207 8.015-.607 2.046-1.446 3.484-2.605 4.492-1.16 1.008-2.7 1.638-4.81 1.955-2.118.317-4.769.313-8.106.08l-5.057-.354c-3.337-.234-5.962-.598-8.015-1.207-2.046-.607-3.484-1.446-4.492-2.605-1.007-1.16-1.638-2.7-1.955-4.81-.317-2.119-.313-4.769-.08-8.106l.354-5.057z" fill="url(#paint0_linear_11_12395)"/><path d="M2.773 16.99c.234-3.337.598-5.962 1.207-8.015.607-2.046 1.446-3.484 2.606-4.492 1.159-1.008 2.7-1.638 4.81-1.955 2.118-.317 4.768-.313 8.105-.08l5.057.354c3.337.234 5.963.598 8.016 1.207 2.045.607 3.483 1.446 4.491 2.605 1.008 1.16 1.639 2.7 1.955 4.81.318 2.119.313 4.769.08 8.106l-.354 5.057c-.233 3.337-.598 5.962-1.207 8.015-.607 2.046-1.446 3.484-2.605 4.492-1.16 1.008-2.7 1.638-4.81 1.955-2.118.317-4.769.313-8.106.08l-5.057-.354c-3.337-.234-5.962-.598-8.015-1.207-2.046-.607-3.484-1.446-4.492-2.605-1.007-1.16-1.638-2.7-1.955-4.81-.317-2.119-.313-4.769-.08-8.106l.354-5.057z" stroke="#fff" stroke-width="1.3"/><path d="M2.773 16.99c.234-3.337.598-5.962 1.207-8.015.607-2.046 1.446-3.484 2.606-4.492 1.159-1.008 2.7-1.638 4.81-1.955 2.118-.317 4.768-.313 8.105-.08l5.057.354c3.337.234 5.963.598 8.016 1.207 2.045.607 3.483 1.446 4.491 2.605 1.008 1.16 1.639 2.7 1.955 4.81.318 2.119.313 4.769.08 8.106l-.354 5.057c-.233 3.337-.598 5.962-1.207 8.015-.607 2.046-1.446 3.484-2.605 4.492-1.16 1.008-2.7 1.638-4.81 1.955-2.118.317-4.769.313-8.106.08l-5.057-.354c-3.337-.234-5.962-.598-8.015-1.207-2.046-.607-3.484-1.446-4.492-2.605-1.007-1.16-1.638-2.7-1.955-4.81-.317-2.119-.313-4.769-.08-8.106l.354-5.057z" stroke="url(#paint1_linear_11_12395)" stroke-width="1.3"/></mask><g mask="url(#a)"><g filter="url(#filter0_iii_11_12395)"><path d="M2.121 16.947C3.06 3.537 6.134.865 19.543 1.802l5.056.354c13.41.937 16.083 4.012 15.145 17.422l-.354 5.056c-.937 13.41-4.012 16.082-17.421 15.145l-5.057-.354C3.502 38.487.83 35.412 1.768 22.003l.353-5.056z" fill="url(#paint2_linear_11_12395)"/><path d="M2.121 16.947C3.06 3.537 6.134.865 19.543 1.802l5.056.354c13.41.937 16.083 4.012 15.145 17.422l-.354 5.056c-.937 13.41-4.012 16.082-17.421 15.145l-5.057-.354C3.502 38.487.83 35.412 1.768 22.003l.353-5.056z" fill="#000" fill-opacity=".7"/></g><path d="M2.77 16.992c.233-3.337.597-5.963 1.206-8.016.607-2.045 1.447-3.483 2.606-4.491 1.159-1.008 2.7-1.638 4.81-1.955 2.118-.318 4.768-.313 8.106-.08l5.056.354c3.338.234 5.963.598 8.016 1.207 2.045.607 3.484 1.446 4.491 2.605 1.008 1.16 1.639 2.7 1.955 4.81.318 2.118.313 4.769.08 8.106l-.354 5.057c-.233 3.337-.597 5.962-1.207 8.015-.607 2.046-1.446 3.484-2.605 4.492-1.16 1.008-2.7 1.638-4.81 1.955-2.118.317-4.769.313-8.106.08l-5.057-.354c-3.337-.234-5.962-.598-8.015-1.207-2.046-.607-3.484-1.446-4.492-2.605-1.007-1.16-1.638-2.7-1.955-4.81-.317-2.119-.312-4.769-.079-8.106l.354-5.057z" stroke="#fff" stroke-width="1.3"/><path d="M2.77 16.992c.233-3.337.597-5.963 1.206-8.016.607-2.045 1.447-3.483 2.606-4.491 1.159-1.008 2.7-1.638 4.81-1.955 2.118-.318 4.768-.313 8.106-.08l5.056.354c3.338.234 5.963.598 8.016 1.207 2.045.607 3.484 1.446 4.491 2.605 1.008 1.16 1.639 2.7 1.955 4.81.318 2.118.313 4.769.08 8.106l-.354 5.057c-.233 3.337-.597 5.962-1.207 8.015-.607 2.046-1.446 3.484-2.605 4.492-1.16 1.008-2.7 1.638-4.81 1.955-2.118.317-4.769.313-8.106.08l-5.057-.354c-3.337-.234-5.962-.598-8.015-1.207-2.046-.607-3.484-1.446-4.492-2.605-1.007-1.16-1.638-2.7-1.955-4.81-.317-2.119-.312-4.769-.079-8.106l.354-5.057z" stroke="url(#paint3_linear_11_12395)" stroke-width="1.3"/><path d="M3.243 17.025c.233-3.326.594-5.91 1.189-7.913.59-1.99 1.391-3.338 2.461-4.269 1.07-.93 2.516-1.535 4.57-1.843 2.066-.31 4.675-.308 8.002-.076l5.056.354c3.327.233 5.91.594 7.914 1.188 1.99.591 3.338 1.392 4.268 2.462.93 1.07 1.535 2.516 1.843 4.57.31 2.065.308 4.674.076 8.001l-.354 5.057c-.233 3.326-.594 5.91-1.188 7.913-.59 1.99-1.392 3.338-2.462 4.268-1.07.93-2.516 1.536-4.569 1.844-2.066.31-4.675.308-8.002.075l-5.056-.353c-3.327-.233-5.911-.594-7.914-1.188-1.99-.591-3.338-1.392-4.268-2.462-.93-1.07-1.536-2.516-1.844-4.57-.31-2.065-.308-4.675-.075-8.001l.353-5.057z" stroke="url(#paint4_linear_11_12395)" stroke-opacity=".05" stroke-width="2.25"/><path fill-rule="evenodd" clip-rule="evenodd" d="M4.659 9.179c-.587 1.978-.947 4.541-1.18 7.863l-.353 5.056c-.232 3.322-.233 5.91.074 7.95.303 2.025.896 3.424 1.788 4.45.891 1.025 2.194 1.807 4.156 2.39 1.978.586 4.542.946 7.863 1.178l5.057.354c3.32.232 5.91.233 7.95-.073 2.024-.304 3.423-.897 4.449-1.788 1.025-.892 1.807-2.195 2.39-4.157.587-1.978.947-4.542 1.179-7.863l.353-5.056c.233-3.322.233-5.91-.073-7.95-.304-2.025-.897-3.424-1.788-4.45-.892-1.025-2.194-1.807-4.157-2.39-1.978-.586-4.541-.946-7.863-1.179l-5.056-.353c-3.321-.232-5.91-.233-7.95.073-2.025.304-3.424.897-4.45 1.788-1.025.892-1.807 2.194-2.39 4.157zm14.884-7.377C6.133.865 3.059 3.538 2.12 16.947l-.353 5.056C.83 35.413 3.503 38.487 16.912 39.425l5.057.354c13.409.937 16.484-1.736 17.421-15.145l.354-5.056c.938-13.41-1.735-16.485-15.145-17.422l-5.056-.354z" fill="url(#paint5_linear_11_12395)"/><g filter="url(#filter1_ddii_11_12395)"><path d="M12.83 25.632l-3.494-.244c-.827-.058-1.547.6-1.608 1.47-.061.87.56 1.62 1.388 1.679l3.493.244c.828.058 1.548-.6 1.609-1.47.06-.87-.561-1.62-1.389-1.679z" fill="#F23E94"/><path d="M9.33 25.482l3.493.244c.77.054 1.358.757 1.3 1.579-.057.822-.736 1.436-1.507 1.382l-3.493-.244c-.771-.054-1.358-.757-1.301-1.579.057-.822.737-1.436 1.508-1.382z" stroke="url(#paint6_linear_11_12395)" stroke-opacity=".1" stroke-width=".189" stroke-linejoin="round"/><path d="M28.231 29.873l3.493.244c.828.058 1.548-.6 1.609-1.47.06-.87-.561-1.621-1.389-1.679l-3.492-.244c-.828-.058-1.548.6-1.61 1.47-.06.869.562 1.62 1.39 1.679z" fill="#F23E94"/><path d="M31.73 30.023l-3.492-.244c-.771-.055-1.358-.757-1.3-1.579.057-.822.736-1.436 1.507-1.382l3.493.244c.771.054 1.358.757 1.3 1.579-.057.822-.736 1.436-1.507 1.382z" stroke="url(#paint7_linear_11_12395)" stroke-opacity=".1" stroke-width=".189" stroke-linejoin="round"/><path d="M22.055 26.267l-2.844-.2c-.827-.057-1.547.6-1.608 1.47-.061.87.56 1.622 1.388 1.68l2.843.198c.828.058 1.548-.6 1.61-1.47.06-.869-.562-1.62-1.39-1.678z" fill="#F23E94"/><path d="M19.205 26.162l2.843.199c.771.054 1.358.756 1.3 1.578-.057.822-.736 1.436-1.507 1.382l-2.843-.199c-.771-.054-1.358-.756-1.301-1.578.058-.822.737-1.436 1.508-1.382z" stroke="url(#paint8_linear_11_12395)" stroke-opacity=".1" stroke-width=".189" stroke-linejoin="round"/><path d="M27.19 25.247l3.364.236c.828.058 1.548-.6 1.609-1.47.06-.87-.561-1.621-1.389-1.68l-3.363-.234c-.828-.058-1.548.6-1.609 1.47-.06.869.561 1.62 1.389 1.678z" fill="#6927DA"/><path d="M30.56 25.388l-3.363-.235c-.77-.054-1.358-.756-1.3-1.578.057-.822.736-1.436 1.507-1.382l3.364.235c.771.054 1.358.756 1.3 1.578-.057.822-.736 1.436-1.507 1.382z" stroke="url(#paint9_linear_11_12395)" stroke-opacity=".1" stroke-width=".189" stroke-linejoin="round"/><path d="M14.448 21.192l-3.364-.236c-.827-.058-1.547.6-1.608 1.47-.061.87.56 1.621 1.388 1.68l3.364.234c.827.058 1.547-.6 1.608-1.47.061-.869-.56-1.62-1.388-1.678z" fill="#6927DA"/><path d="M11.078 21.05l3.363.236c.771.054 1.359.756 1.301 1.578-.057.822-.737 1.436-1.508 1.382l-3.363-.235c-.771-.054-1.358-.756-1.301-1.578.058-.822.737-1.436 1.508-1.382z" stroke="url(#paint10_linear_11_12395)" stroke-opacity=".1" stroke-width=".189" stroke-linejoin="round"/><path d="M23.45 21.811l-5.004-.35c-.828-.058-1.548.6-1.609 1.47-.06.87.561 1.621 1.389 1.679l5.005.35c.827.058 1.547-.6 1.608-1.47.061-.87-.56-1.62-1.388-1.679z" fill="#6927DA"/><path d="M18.44 21.555l5.004.35c.771.054 1.358.757 1.301 1.579-.058.822-.737 1.436-1.508 1.382l-5.005-.35c-.771-.054-1.358-.757-1.3-1.579.057-.822.736-1.436 1.507-1.382z" stroke="url(#paint11_linear_11_12395)" stroke-opacity=".1" stroke-width=".189" stroke-linejoin="round"/><path d="M19.285 16.84l-6.386-.447c-.828-.058-1.548.6-1.609 1.47-.06.87.561 1.621 1.389 1.68l6.386.446c.828.058 1.548-.6 1.609-1.47.06-.87-.561-1.621-1.389-1.68z" fill="#1570EF"/><path d="M12.892 16.488l6.387.446c.771.054 1.358.757 1.3 1.578-.057.822-.736 1.436-1.507 1.383l-6.387-.447c-.77-.054-1.358-.756-1.3-1.578.057-.822.736-1.436 1.507-1.382z" stroke="url(#paint12_linear_11_12395)" stroke-opacity=".1" stroke-width=".189" stroke-linejoin="round"/><path d="M23.41 20.292l5.978.418c.828.057 1.548-.6 1.609-1.47.06-.87-.561-1.621-1.389-1.68l-5.978-.417c-.828-.058-1.548.6-1.609 1.47-.06.869.561 1.62 1.389 1.679z" fill="#1570EF"/><path d="M29.395 20.616l-5.979-.419c-.771-.053-1.358-.756-1.3-1.578.057-.822.736-1.436 1.507-1.382l5.979.418c.771.054 1.358.756 1.3 1.578-.057.822-.736 1.436-1.507 1.383z" stroke="url(#paint13_linear_11_12395)" stroke-opacity=".1" stroke-width=".189" stroke-linejoin="round"/><path d="M28.489 12.93l-3.371-.236c-.828-.058-1.548.6-1.609 1.47-.06.87.56 1.621 1.389 1.679l3.37.236c.828.058 1.548-.6 1.609-1.47.06-.87-.56-1.621-1.388-1.68z" fill="#2CE"/><path d="M25.111 12.788l3.371.236c.771.054 1.358.757 1.3 1.579-.057.821-.736 1.435-1.507 1.382l-3.37-.236c-.772-.054-1.36-.757-1.302-1.579.058-.822.737-1.436 1.508-1.382z" stroke="url(#paint14_linear_11_12395)" stroke-opacity=".1" stroke-width=".189" stroke-linejoin="round"/><path d="M18.02 12.197l-3.371-.235c-.828-.058-1.548.6-1.609 1.47-.06.869.561 1.62 1.389 1.678l3.37.236c.828.058 1.549-.6 1.61-1.47.06-.869-.562-1.62-1.39-1.679z" fill="#2CE"/><path d="M14.642 12.056l3.371.236c.771.054 1.358.756 1.301 1.578-.057.822-.736 1.436-1.508 1.382l-3.37-.236c-.772-.054-1.359-.756-1.302-1.578.058-.822.737-1.436 1.508-1.382z" stroke="url(#paint15_linear_11_12395)" stroke-opacity=".1" stroke-width=".189" stroke-linejoin="round"/></g><path d="M2.696 23.728l5.602 2.492 14.752 6.808 15.566 2.664-11.97 5.99-25.568-2.314 1.618-15.64z" fill="#F24396" opacity=".23" filter="url(#filter2_f_11_12395)"/><path d="M2.628 2.194L30.614-.049l9.454 7.487-7.012 2.66-18.848-.793-11.58-7.11z" fill="#2CE" opacity=".23" filter="url(#filter3_f_11_12395)"/><path d="M7.439.78l27.97-2.445 9.507 7.419-6.993 2.71-18.853-.656L7.439.78z" fill="#2CE" opacity=".1" filter="url(#filter4_f_11_12395)"/><path d="M-7.229 36.4l27.97-2.446 9.507 7.419-6.993 2.71-18.853-.656-11.63-7.027z" fill="#F24497" opacity=".1" filter="url(#filter5_f_11_12395)"/></g><defs><filter id="filter0_iii_11_12395" x="1.598" y="-.367" width="38.316" height="42.315" filterUnits="userSpaceOnUse" color-interpolation-filters="sRGB"><feFlood flood-opacity="0" result="BackgroundImageFix"/><feBlend in="SourceGraphic" in2="BackgroundImageFix" result="shape"/><feColorMatrix in="SourceAlpha" values="0 0 0 0 0 0 0 0 0 0 0 0 0 0 0 0 0 0 127 0" result="hardAlpha"/><feOffset dy=".714"/><feGaussianBlur stdDeviation=".893"/><feComposite in2="hardAlpha" operator="arithmetic" k2="-1" k3="1"/><feColorMatrix values="0 0 0 0 0.196078 0 0 0 0 0.188235 0 0 0 0 0.219608 0 0 0 1 0"/><feBlend in2="shape" result="effect1_innerShadow_11_12395"/><feColorMatrix in="SourceAlpha" values="0 0 0 0 0 0 0 0 0 0 0 0 0 0 0 0 0 0 127 0" result="hardAlpha"/><feOffset dy="2"/><feGaussianBlur stdDeviation="1.5"/><feComposite in2="hardAlpha" operator="arithmetic" k2="-1" k3="1"/><feColorMatrix values="0 0 0 0 0.321569 0 0 0 0 0.905882 0 0 0 0 1 0 0 0 0.6 0"/><feBlend in2="effect1_innerShadow_11_12395" result="effect2_innerShadow_11_12395"/><feColorMatrix in="SourceAlpha" values="0 0 0 0 0 0 0 0 0 0 0 0 0 0 0 0 0 0 127 0" result="hardAlpha"/><feOffset dy="-2"/><feGaussianBlur stdDeviation="1"/><feComposite in2="hardAlpha" operator="arithmetic" k2="-1" k3="1"/><feColorMatrix values="0 0 0 0 0.933333 0 0 0 0 0.160784 0 0 0 0 0.509804 0 0 0 0.5 0"/><feBlend in2="effect2_innerShadow_11_12395" result="effect3_innerShadow_11_12395"/></filter><filter id="filter1_ddii_11_12395" x="2.059" y="7.236" width="36.943" height="29.495" filterUnits="userSpaceOnUse" color-interpolation-filters="sRGB"><feFlood flood-opacity="0" result="BackgroundImageFix"/><feColorMatrix in="SourceAlpha" values="0 0 0 0 0 0 0 0 0 0 0 0 0 0 0 0 0 0 127 0" result="hardAlpha"/><feOffset dy=".944"/><feGaussianBlur stdDeviation="2.833"/><feComposite in2="hardAlpha" operator="out"/><feColorMatrix values="0 0 0 0 0.29135 0 0 0 0 0.0895476 0 0 0 0 0.654593 0 0 0 1 0"/><feBlend in2="BackgroundImageFix" result="effect1_dropShadow_11_12395"/><feColorMatrix in="SourceAlpha" values="0 0 0 0 0 0 0 0 0 0 0 0 0 0 0 0 0 0 127 0" result="hardAlpha"/><feOffset dy=".944"/><feGaussianBlur stdDeviation="2.361"/><feComposite in2="hardAlpha" operator="out"/><feColorMatrix values="0 0 0 0 0 0 0 0 0 0 0 0 0 0 0 0 0 0 0.5 0"/><feBlend in2="effect1_dropShadow_11_12395" result="effect2_dropShadow_11_12395"/><feBlend in="SourceGraphic" in2="effect2_dropShadow_11_12395" result="shape"/><feColorMatrix in="SourceAlpha" values="0 0 0 0 0 0 0 0 0 0 0 0 0 0 0 0 0 0 127 0" result="hardAlpha"/><feOffset dy="-.944"/><feGaussianBlur stdDeviation=".472"/><feComposite in2="hardAlpha" operator="arithmetic" k2="-1" k3="1"/><feColorMatrix values="0 0 0 0 0 0 0 0 0 0 0 0 0 0 0 0 0 0 0.1 0"/><feBlend in2="shape" result="effect3_innerShadow_11_12395"/><feColorMatrix in="SourceAlpha" values="0 0 0 0 0 0 0 0 0 0 0 0 0 0 0 0 0 0 127 0" result="hardAlpha"/><feOffset dy=".944"/><feGaussianBlur stdDeviation=".472"/><feComposite in2="hardAlpha" operator="arithmetic" k2="-1" k3="1"/><feColorMatrix values="0 0 0 0 1 0 0 0 0 1 0 0 0 0 1 0 0 0 0.05 0"/><feBlend in2="effect3_innerShadow_11_12395" result="effect4_innerShadow_11_12395"/></filter><filter id="filter2_f_11_12395" x="-11.922" y="10.729" width="63.539" height="43.953" filterUnits="userSpaceOnUse" color-interpolation-filters="sRGB"><feFlood flood-opacity="0" result="BackgroundImageFix"/><feBlend in="SourceGraphic" in2="BackgroundImageFix" result="shape"/><feGaussianBlur stdDeviation="6.5" result="effect1_foregroundBlur_11_12395"/></filter><filter id="filter3_f_11_12395" x="-10.373" y="-13.049" width="63.441" height="36.148" filterUnits="userSpaceOnUse" color-interpolation-filters="sRGB"><feFlood flood-opacity="0" result="BackgroundImageFix"/><feBlend in="SourceGraphic" in2="BackgroundImageFix" result="shape"/><feGaussianBlur stdDeviation="6.5" result="effect1_foregroundBlur_11_12395"/></filter><filter id="filter4_f_11_12395" x="-5.561" y="-14.665" width="63.477" height="36.129" filterUnits="userSpaceOnUse" color-interpolation-filters="sRGB"><feFlood flood-opacity="0" result="BackgroundImageFix"/><feBlend in="SourceGraphic" in2="BackgroundImageFix" result="shape"/><feGaussianBlur stdDeviation="6.5" result="effect1_foregroundBlur_11_12395"/></filter><filter id="filter5_f_11_12395" x="-20.229" y="20.954" width="63.477" height="36.129" filterUnits="userSpaceOnUse" color-interpolation-filters="sRGB"><feFlood flood-opacity="0" result="BackgroundImageFix"/><feBlend in="SourceGraphic" in2="BackgroundImageFix" result="shape"/><feGaussianBlur stdDeviation="6.5" result="effect1_foregroundBlur_11_12395"/></filter><linearGradient id="paint0_linear_11_12395" x1="31.262" y1="5.77" x2="22.85" y2="20.935" gradientUnits="userSpaceOnUse"><stop stop-color="#363636"/><stop offset="1" stop-color="#141414"/></linearGradient><linearGradient id="paint1_linear_11_12395" x1="22.075" y1="1.977" x2="19.444" y2="39.6" gradientUnits="userSpaceOnUse"><stop stop-color="#52EDFF"/><stop offset=".274" stop-color="#4361EE"/><stop offset=".63" stop-color="#7209B7"/><stop offset="1" stop-color="#F12980"/></linearGradient><linearGradient id="paint2_linear_11_12395" x1="31.258" y1="5.772" x2="22.846" y2="20.937" gradientUnits="userSpaceOnUse"><stop stop-color="#363636"/><stop offset="1" stop-color="#141414"/></linearGradient><linearGradient id="paint3_linear_11_12395" x1="22.071" y1="1.979" x2="19.44" y2="39.602" gradientUnits="userSpaceOnUse"><stop stop-color="#52EDFF"/><stop offset=".274" stop-color="#4361EE"/><stop offset=".63" stop-color="#7209B7"/><stop offset="1" stop-color="#F12980"/></linearGradient><linearGradient id="paint4_linear_11_12395" x1="21.889" y1="4.592" x2="19.915" y2="32.809" gradientUnits="userSpaceOnUse"><stop stop-color="#fff"/><stop offset="1" stop-color="#fff" stop-opacity="0"/></linearGradient><linearGradient id="paint5_linear_11_12395" x1="22.071" y1="1.979" x2="19.44" y2="39.602" gradientUnits="userSpaceOnUse"><stop stop-color="#52EDFF"/><stop offset=".274" stop-color="#4361EE"/><stop offset=".63" stop-color="#7209B7"/><stop offset="1" stop-color="#F12980"/></linearGradient><linearGradient id="paint6_linear_11_12395" x1="11.083" y1="25.51" x2="10.863" y2="28.659" gradientUnits="userSpaceOnUse"><stop stop-color="#fff"/><stop offset="1" stop-color="#fff" stop-opacity="0"/></linearGradient><linearGradient id="paint7_linear_11_12395" x1="29.978" y1="29.995" x2="30.198" y2="26.846" gradientUnits="userSpaceOnUse"><stop stop-color="#fff" stop-opacity="0"/><stop offset="1" stop-color="#fff"/></linearGradient><linearGradient id="paint8_linear_11_12395" x1="20.633" y1="26.167" x2="20.413" y2="29.316" gradientUnits="userSpaceOnUse"><stop stop-color="#fff"/><stop offset="1" stop-color="#fff" stop-opacity="0"/></linearGradient><linearGradient id="paint9_linear_11_12395" x1="28.872" y1="25.365" x2="29.093" y2="22.216" gradientUnits="userSpaceOnUse"><stop stop-color="#fff" stop-opacity="0"/><stop offset="1" stop-color="#fff"/></linearGradient><linearGradient id="paint10_linear_11_12395" x1="12.766" y1="21.074" x2="12.546" y2="24.223" gradientUnits="userSpaceOnUse"><stop stop-color="#fff"/><stop offset="1" stop-color="#fff" stop-opacity="0"/></linearGradient><linearGradient id="paint11_linear_11_12395" x1="20.948" y1="21.636" x2="20.728" y2="24.785" gradientUnits="userSpaceOnUse"><stop stop-color="#fff"/><stop offset="1" stop-color="#fff" stop-opacity="0"/></linearGradient><linearGradient id="paint12_linear_11_12395" x1="16.092" y1="16.617" x2="15.872" y2="19.765" gradientUnits="userSpaceOnUse"><stop stop-color="#fff"/><stop offset="1" stop-color="#fff" stop-opacity="0"/></linearGradient><linearGradient id="paint13_linear_11_12395" x1="26.399" y1="20.501" x2="26.619" y2="17.352" gradientUnits="userSpaceOnUse"><stop stop-color="#fff" stop-opacity="0"/><stop offset="1" stop-color="#fff"/></linearGradient><linearGradient id="paint14_linear_11_12395" x1="26.803" y1="12.812" x2="26.583" y2="15.961" gradientUnits="userSpaceOnUse"><stop stop-color="#fff" stop-opacity="0"/><stop offset="1" stop-color="#fff"/></linearGradient><linearGradient id="paint15_linear_11_12395" x1="16.334" y1="12.08" x2="16.114" y2="15.228" gradientUnits="userSpaceOnUse"><stop stop-color="#fff"/><stop offset="1" stop-color="#fff" stop-opacity="0"/></linearGradient></defs></svg>